#N canvas -1144 -681 1135 668 12;
#X obj 65 392 guitarchorder;
#N canvas 137 181 620 385 synth 0;
#X obj 235 47 inlet;
#X obj 224 127 pack f f f;
#X obj 235 75 unpack;
#X obj 251 290 lop~;
#X obj 240 347 dac~;
#X obj 101 101 cnv 15 83 48 empty empty synth 5 7 0 10 #606060 #fcfcfc 0;
#X obj 166 131 tgl 15 0 empty empty DSP 1 8 0 8 #fcfcfc #000000 #000000 0 1;
#X obj 107 131 hsl 53 15 0.01 0.3 1 1 empty empty volume -2 -8 0 10 #fcfcfc #000000 #000000 3100 1;
#X obj 149 120 hsl 30 8 1000 18000 1 1 empty empty filter -2 -8 0 10 #fcfcfc #000000 #000000 2000 1;
#X msg 362 94 \; pd dsp \$1;
#X obj 251 317 *~;
#X msg 325 293 \$1 100;
#X obj 325 316 line~;
#X obj 139 57 loadbang;
#N canvas 234 278 450 300 osc 0;
#X obj 45 42 inlet;
#X obj 47 251 outlet~;
#X obj 45 85 unpack;
#X obj 46 114 mtof;
#X obj 46 184 *~;
#X obj 131 96 / 127;
#X obj 131 160 line~;
#X msg 131 128 \$1 100;
#X obj 46 145 phasor~;
#X connect 0 0 2 0;
#X connect 2 0 3 0;
#X connect 2 1 5 0;
#X connect 3 0 8 0;
#X connect 4 0 1 0;
#X connect 5 0 7 0;
#X connect 6 0 4 1;
#X connect 7 0 6 0;
#X connect 8 0 4 0;
#X restore 7 219 pd osc;
#N canvas 234 278 450 300 osc 0;
#X obj 45 42 inlet;
#X obj 46 249 outlet~;
#X obj 45 85 unpack;
#X obj 46 143 mtof;
#X obj 46 213 *~;
#X obj 131 125 / 127;
#X obj 131 189 line~;
#X msg 131 157 \$1 100;
#X obj 46 174 phasor~;
#X connect 0 0 2 0;
#X connect 2 0 3 0;
#X connect 2 1 5 0;
#X connect 3 0 8 0;
#X connect 4 0 1 0;
#X connect 5 0 7 0;
#X connect 6 0 4 1;
#X connect 7 0 6 0;
#X connect 8 0 4 0;
#X restore 55 219 pd osc;
#N canvas 234 278 450 300 osc 0;
#X obj 45 42 inlet;
#X obj 47 251 outlet~;
#X obj 45 85 unpack;
#X obj 46 143 mtof;
#X obj 46 213 *~;
#X obj 131 125 / 127;
#X obj 131 189 line~;
#X msg 131 157 \$1 100;
#X obj 46 174 phasor~;
#X connect 0 0 2 0;
#X connect 2 0 3 0;
#X connect 2 1 5 0;
#X connect 3 0 8 0;
#X connect 4 0 1 0;
#X connect 5 0 7 0;
#X connect 6 0 4 1;
#X connect 7 0 6 0;
#X connect 8 0 4 0;
#X restore 103 219 pd osc;
#N canvas 234 278 450 300 osc 0;
#X obj 45 42 inlet;
#X obj 47 251 outlet~;
#X obj 45 85 unpack;
#X obj 46 143 mtof;
#X obj 46 213 *~;
#X obj 131 125 / 127;
#X obj 131 189 line~;
#X msg 131 157 \$1 100;
#X obj 46 174 phasor~;
#X connect 0 0 2 0;
#X connect 2 0 3 0;
#X connect 2 1 5 0;
#X connect 3 0 8 0;
#X connect 4 0 1 0;
#X connect 5 0 7 0;
#X connect 6 0 4 1;
#X connect 7 0 6 0;
#X connect 8 0 4 0;
#X restore 151 219 pd osc;
#N canvas 234 278 450 300 osc 0;
#X obj 45 42 inlet;
#X obj 47 251 outlet~;
#X obj 45 85 unpack;
#X obj 46 114 mtof;
#X obj 46 184 *~;
#X obj 131 96 / 127;
#X obj 131 160 line~;
#X msg 131 128 \$1 100;
#X obj 46 145 phasor~;
#X connect 0 0 2 0;
#X connect 2 0 3 0;
#X connect 2 1 5 0;
#X connect 3 0 8 0;
#X connect 4 0 1 0;
#X connect 5 0 7 0;
#X connect 6 0 4 1;
#X connect 7 0 6 0;
#X connect 8 0 4 0;
#X restore 199 219 pd osc;
#N canvas 234 278 450 300 osc 0;
#X obj 45 42 inlet;
#X obj 46 249 outlet~;
#X obj 45 85 unpack;
#X obj 46 143 mtof;
#X obj 46 213 *~;
#X obj 131 125 / 127;
#X obj 131 189 line~;
#X msg 131 157 \$1 100;
#X obj 46 174 phasor~;
#X connect 0 0 2 0;
#X connect 2 0 3 0;
#X connect 2 1 5 0;
#X connect 3 0 8 0;
#X connect 4 0 1 0;
#X connect 5 0 7 0;
#X connect 6 0 4 1;
#X connect 7 0 6 0;
#X connect 8 0 4 0;
#X restore 247 219 pd osc;
#N canvas 234 278 450 300 osc 0;
#X obj 45 42 inlet;
#X obj 47 251 outlet~;
#X obj 45 85 unpack;
#X obj 46 143 mtof;
#X obj 46 213 *~;
#X obj 131 125 / 127;
#X obj 131 189 line~;
#X msg 131 157 \$1 100;
#X obj 46 174 phasor~;
#X connect 0 0 2 0;
#X connect 2 0 3 0;
#X connect 2 1 5 0;
#X connect 3 0 8 0;
#X connect 4 0 1 0;
#X connect 5 0 7 0;
#X connect 6 0 4 1;
#X connect 7 0 6 0;
#X connect 8 0 4 0;
#X restore 295 219 pd osc;
#N canvas 234 278 450 300 osc 0;
#X obj 45 42 inlet;
#X obj 47 251 outlet~;
#X obj 45 85 unpack;
#X obj 46 143 mtof;
#X obj 46 213 *~;
#X obj 131 125 / 127;
#X obj 131 189 line~;
#X msg 131 157 \$1 100;
#X obj 46 174 phasor~;
#X connect 0 0 2 0;
#X connect 2 0 3 0;
#X connect 2 1 5 0;
#X connect 3 0 8 0;
#X connect 4 0 1 0;
#X connect 5 0 7 0;
#X connect 6 0 4 1;
#X connect 7 0 6 0;
#X connect 8 0 4 0;
#X restore 343 219 pd osc;
#X obj 231 102 poly 12 1;
#X obj 233 171 route 1 2 3 4 5 6 7 8 9 10 11 12;
#N canvas 234 278 450 300 osc 0;
#X obj 45 42 inlet;
#X obj 47 251 outlet~;
#X obj 45 85 unpack;
#X obj 46 114 mtof;
#X obj 46 184 *~;
#X obj 131 96 / 127;
#X obj 131 160 line~;
#X msg 131 128 \$1 100;
#X obj 46 145 phasor~;
#X connect 0 0 2 0;
#X connect 2 0 3 0;
#X connect 2 1 5 0;
#X connect 3 0 8 0;
#X connect 4 0 1 0;
#X connect 5 0 7 0;
#X connect 6 0 4 1;
#X connect 7 0 6 0;
#X connect 8 0 4 0;
#X restore 394 218 pd osc;
#N canvas 234 278 450 300 osc 0;
#X obj 45 42 inlet;
#X obj 46 249 outlet~;
#X obj 45 85 unpack;
#X obj 46 143 mtof;
#X obj 46 213 *~;
#X obj 131 125 / 127;
#X obj 131 189 line~;
#X msg 131 157 \$1 100;
#X obj 46 174 phasor~;
#X connect 0 0 2 0;
#X connect 2 0 3 0;
#X connect 2 1 5 0;
#X connect 3 0 8 0;
#X connect 4 0 1 0;
#X connect 5 0 7 0;
#X connect 6 0 4 1;
#X connect 7 0 6 0;
#X connect 8 0 4 0;
#X restore 442 218 pd osc;
#N canvas 234 278 450 300 osc 0;
#X obj 45 42 inlet;
#X obj 47 251 outlet~;
#X obj 45 85 unpack;
#X obj 46 143 mtof;
#X obj 46 213 *~;
#X obj 131 125 / 127;
#X obj 131 189 line~;
#X msg 131 157 \$1 100;
#X obj 46 174 phasor~;
#X connect 0 0 2 0;
#X connect 2 0 3 0;
#X connect 2 1 5 0;
#X connect 3 0 8 0;
#X connect 4 0 1 0;
#X connect 5 0 7 0;
#X connect 6 0 4 1;
#X connect 7 0 6 0;
#X connect 8 0 4 0;
#X restore 490 218 pd osc;
#N canvas 234 278 450 300 osc 0;
#X obj 45 42 inlet;
#X obj 47 251 outlet~;
#X obj 45 85 unpack;
#X obj 46 143 mtof;
#X obj 46 213 *~;
#X obj 131 125 / 127;
#X obj 131 189 line~;
#X msg 131 157 \$1 100;
#X obj 46 174 phasor~;
#X connect 0 0 2 0;
#X connect 2 0 3 0;
#X connect 2 1 5 0;
#X connect 3 0 8 0;
#X connect 4 0 1 0;
#X connect 5 0 7 0;
#X connect 6 0 4 1;
#X connect 7 0 6 0;
#X connect 8 0 4 0;
#X restore 538 218 pd osc;
#X connect 0 0 2 0;
#X connect 1 0 23 0;
#X connect 2 0 22 0;
#X connect 2 1 22 1;
#X connect 3 0 10 0;
#X connect 6 0 9 0;
#X connect 7 0 11 0;
#X connect 8 0 3 1;
#X connect 10 0 4 0;
#X connect 10 0 4 1;
#X connect 11 0 12 0;
#X connect 12 0 10 1;
#X connect 13 0 6 0;
#X connect 14 0 3 0;
#X connect 15 0 3 0;
#X connect 16 0 3 0;
#X connect 17 0 3 0;
#X connect 18 0 3 0;
#X connect 19 0 3 0;
#X connect 20 0 3 0;
#X connect 21 0 3 0;
#X connect 22 0 1 0;
#X connect 22 1 1 1;
#X connect 22 2 1 2;
#X connect 23 0 14 0;
#X connect 23 1 15 0;
#X connect 23 2 16 0;
#X connect 23 3 17 0;
#X connect 23 4 18 0;
#X connect 23 5 19 0;
#X connect 23 6 20 0;
#X connect 23 7 21 0;
#X connect 23 8 24 0;
#X connect 23 9 25 0;
#X connect 23 10 26 0;
#X connect 23 11 27 0;
#X connect 24 0 3 0;
#X connect 25 0 3 0;
#X connect 26 0 3 0;
#X connect 27 0 3 0;
#X coords 0 -1 1 1 85 50 1 100 100;
#X restore 65 465 pd synth;
#X text 164 474 Simple synth based on sawtooth oscillators with 12 notes polyphony and a low-pass filter. Turn on DSP to hear it.;
#X msg 427 341 vel 89;
#X text 516 310 set duration of all the strings;
#X text 517 342 set velocity of all the strings;
#X text 696 375 set different durations for each string;
#X text 690 403 set different velocities for each string;
#X text 578 233 set standard tuning EADGBE;
#X text 579 254 set drop-D tuning DADGBE;
#X msg 59 26 fing 0 3 2 0 1 0;
#X text 194 25 play C major chord;
#X msg 426 312 dur 700;
#X msg 74 57 fing 3 2 0 0 0 3;
#X text 209 56 play G major chord;
#X msg 91 87 fing -1 -1 0 2 3 1;
#X text 233 86 play D minor chord;
#X text 247 115 play A minor chord;
#X msg 106 116 fing -1 0 2 2 1 0;
#X msg 121 145 fing 0 2 2 0 0 0;
#X text 263 143 play E minor chord;
#X msg 131 177 fing 1 3 3 2 1 1;
#X text 267 175 play F major chord;
#X text 580 279 set drop-D tuning DADGBE;
#X text 460 93 Generate and play chords using guitar fingering!;
#X text 460 75 GUITARCHORDER;
#X msg 427 375 dur+ 800 700 600 500 400 300;
#X msg 428 403 vel+ 40 50 60 70 80 90;
#X msg 422 233 tune 0 0 0 0 0 0;
#X msg 423 257 tune -2 0 0 0 0 0;
#X msg 424 282 tune 5 5 5 5 5 5;
#X connect 0 0 1 0;
#X connect 3 0 0 0;
#X connect 10 0 0 0;
#X connect 12 0 0 0;
#X connect 13 0 0 0;
#X connect 15 0 0 0;
#X connect 18 0 0 0;
#X connect 19 0 0 0;
#X connect 21 0 0 0;
#X connect 26 0 0 0;
#X connect 27 0 0 0;
#X connect 28 0 0 0;
#X connect 29 0 0 0;
#X connect 30 0 0 0;
