#N canvas 0 0 1248 924 10;
#X obj 101 101 cnv 15 143 187 empty empty BLACK:SHEEP 73 4 0 10 -133153
-262144 0;
#X obj 444 43 inlet~;
#X obj 445 387 outlet~;
#X obj 467 218 r \$0-mix;
#X msg 467 239 \$1 50;
#N canvas 519 169 538 468 DELAY1 0;
#X obj 109 21 inlet~;
#X obj 98 114 delwrite~ \$0-delay1 600;
#N canvas 496 50 492 710 FEEDBACK 0;
#X obj 144 664 outlet~;
#X obj 263 234 vcf~;
#X obj 274 51 r \$0-midfreq1;
#X obj 274 93 line~;
#X msg 274 72 \$1 50;
#X msg 319 194 \$1 50;
#X obj 319 173 r \$0-qfactor1;
#X obj 319 217 line;
#X obj 146 433 hip~;
#X msg 183 395 \$1 50;
#X obj 183 416 line;
#X obj 183 374 r \$0-hipass1;
#X obj 264 323 *~;
#X obj 310 294 line~;
#X msg 310 273 \$1 50;
#X obj 310 252 r \$0-midgain1;
#X obj 147 339 +~;
#X msg 251 474 \$1 50;
#X obj 251 495 line;
#X obj 145 512 lop~;
#X obj 251 453 r \$0-lopass1;
#X obj 274 159 +~;
#X obj 301 129 *~;
#X obj 107 15 inlet~;
#X obj 327 107 r~ \$0-lfo_freq1;
#X obj 146 472 clip~ -1 0.95;
#X obj 33 15 inlet~;
#X obj 147 101 *~;
#X msg 165 47 \$1 50;
#X obj 165 26 r \$0-feedback1;
#X obj 165 68 line~;
#X connect 1 0 12 0;
#X connect 2 0 4 0;
#X connect 3 0 21 0;
#X connect 3 0 22 0;
#X connect 4 0 3 0;
#X connect 5 0 7 0;
#X connect 6 0 5 0;
#X connect 7 0 1 2;
#X connect 8 0 25 0;
#X connect 9 0 10 0;
#X connect 10 0 8 1;
#X connect 11 0 9 0;
#X connect 12 0 16 1;
#X connect 13 0 12 1;
#X connect 14 0 13 0;
#X connect 15 0 14 0;
#X connect 16 0 8 0;
#X connect 17 0 18 0;
#X connect 18 0 19 1;
#X connect 19 0 0 0;
#X connect 20 0 17 0;
#X connect 21 0 1 1;
#X connect 22 0 21 1;
#X connect 23 0 27 0;
#X connect 24 0 22 1;
#X connect 25 0 19 0;
#X connect 26 0 1 0;
#X connect 26 0 16 0;
#X connect 27 0 1 0;
#X connect 27 0 16 0;
#X connect 28 0 30 0;
#X connect 29 0 28 0;
#X connect 30 0 27 1;
#X restore 181 65 pd FEEDBACK;
#X obj 99 280 delread4~ \$0-delay1;
#X obj 98 195 line~;
#X msg 98 173 \$1 50;
#X obj 98 150 r \$0-time1;
#X obj 99 251 +~;
#X obj 99 424 outlet~;
#X obj 125 349 s~ \$0-feed_sig1;
#X obj 276 186 osc~;
#X obj 277 148 line~;
#X msg 277 126 \$1 50;
#X obj 275 266 *~;
#X obj 327 250 line~;
#X msg 327 228 \$1 50;
#X obj 407 387 s~ \$0-lfo_freq1;
#X obj 274 388 s~ \$0-lfo_time1;
#X obj 255 36 r~ \$0-feed_sig1;
#X obj 155 222 r~ \$0-lfo_time1;
#X obj 274 309 *~ 5;
#X obj 414 198 osc~;
#X obj 415 160 line~;
#X msg 415 138 \$1 50;
#X obj 413 278 *~;
#X obj 465 262 line~;
#X msg 465 240 \$1 50;
#X obj 277 105 r \$0-tspeed1;
#X obj 327 207 r \$0-tdepth1;
#X obj 415 117 r \$0-fspeed1;
#X obj 465 219 r \$0-fdepth1;
#X obj 409 330 +~ 1;
#X connect 0 0 2 0;
#X connect 2 0 1 0;
#X connect 3 0 9 0;
#X connect 3 0 8 0;
#X connect 4 0 7 0;
#X connect 5 0 4 0;
#X connect 6 0 5 0;
#X connect 7 0 3 0;
#X connect 10 0 13 0;
#X connect 11 0 10 0;
#X connect 12 0 11 0;
#X connect 13 0 20 0;
#X connect 14 0 13 1;
#X connect 15 0 14 0;
#X connect 18 0 2 1;
#X connect 19 0 7 1;
#X connect 20 0 17 0;
#X connect 21 0 24 0;
#X connect 22 0 21 0;
#X connect 23 0 22 0;
#X connect 24 0 31 0;
#X connect 25 0 24 1;
#X connect 26 0 25 0;
#X connect 27 0 12 0;
#X connect 28 0 15 0;
#X connect 29 0 23 0;
#X connect 30 0 26 0;
#X connect 31 0 16 0;
#X restore 537 207 pd DELAY1;
#X obj 611 166 *~;
#X obj 614 63 r \$0-byp;
#X msg 614 108 \$1 50;
#X obj 614 129 line~;
#N canvas 639 53 453 635 makePreset 0;
#X obj 34 559 outlet message;
#X msg 52 93 preset.name;
#X obj 52 67 metro 5000;
#X obj 52 40 loadbang;
#X obj 69 119 r \$0-qfactor1;
#X obj 87 142 r \$0-midgain1;
#X obj 104 174 r \$0-midfreq1;
#X obj 124 200 r \$0-time1;
#X obj 143 228 r \$0-feedback1;
#X obj 163 254 r \$0-hipass1;
#X obj 185 290 r \$0-lopass1;
#X obj 34 492 pack s f f f f f f f f f f f f;
#X obj 249 372 r \$0-mix;
#X obj 263 401 r \$0-fdepth1;
#X obj 277 432 r \$0-fspeed1;
#X obj 210 318 r \$0-tdepth1;
#X obj 229 346 r \$0-tspeed1;
#X msg 34 525 set \$1 \$2 \$3 \$4 \$5 \$6 \$7 \$8 \$9 \$10 \$11 \$12
\$13;
#X connect 1 0 11 0;
#X connect 2 0 1 0;
#X connect 3 0 2 0;
#X connect 4 0 11 1;
#X connect 5 0 11 2;
#X connect 6 0 11 3;
#X connect 7 0 11 4;
#X connect 8 0 11 5;
#X connect 9 0 11 6;
#X connect 10 0 11 7;
#X connect 11 0 17 0;
#X connect 12 0 11 10;
#X connect 13 0 11 11;
#X connect 14 0 11 12;
#X connect 15 0 11 8;
#X connect 16 0 11 9;
#X connect 17 0 0 0;
#X restore 796 322 pd makePreset;
#N canvas 484 257 406 454 loadPreset 0;
#X obj 53 39 inlet message;
#X obj 65 328 s \$0-qfactor1R;
#X obj 85 307 s \$0-midgain1R;
#X obj 102 288 s \$0-midfreq1R;
#X obj 124 264 s \$0-time1R;
#X obj 141 243 s \$0-feedback1R;
#X obj 181 198 s \$0-lopass1R;
#X obj 158 221 s \$0-hipass1R;
#X obj 52 62 unpack s f f f f f f f f f f f f;
#X obj 231 134 s \$0-mixR;
#X obj 254 111 s \$0-fdepth1R;
#X obj 266 90 s \$0-fspeed1R;
#X obj 198 176 s \$0-tdepth1R;
#X obj 216 156 s \$0-tspeed1R;
#X msg 50 389 label \$1;
#X obj 50 418 s \$0-presetR;
#X connect 0 0 8 0;
#X connect 8 0 14 0;
#X connect 8 1 1 0;
#X connect 8 2 2 0;
#X connect 8 3 3 0;
#X connect 8 4 4 0;
#X connect 8 5 5 0;
#X connect 8 6 7 0;
#X connect 8 7 6 0;
#X connect 8 8 12 0;
#X connect 8 9 13 0;
#X connect 8 10 9 0;
#X connect 8 11 10 0;
#X connect 8 12 11 0;
#X connect 14 0 15 0;
#X restore 796 298 pd loadPreset;
#N canvas 519 50 618 705 presetDispenser 0;
#X obj 230 647 outlet;
#X msg 286 185;
#X msg 226 236;
#X msg 256 210;
#X msg 341 130;
#X msg 310 161;
#X obj 136 57 sel 0 1 2 3 4 5 6 7 8 9;
#X obj 136 28 inlet;
#X msg 29 458 SIMPLE_DELAY 1 0 100 320 0.3 10 7000 0 0.1 0.3 0 0.1
;
#X msg 80 416 CHORUSSY 1 0 100 92.8346 0.755906 388.11 7000 0.181102
2 0.208778 0 0.1;
#X msg 126 376 FLOW 61.8032 0.84252 2176.57 308.268 0.874016 10 7000
0 0.1 0.33451 1 0.294488;
#X msg 159 331 GND_CONTROL 71.937 -1 209.443 155.669 0.92126 10 3287.24
0.0314961 2 0.33451 0.685039 0.0468143;
#X msg 189 287 HEADRUSH 100 1 2700.32 133.228 0.901575 260.787 7000
1 2 0.042342 1 0.0991994;
#X connect 1 0 0 0;
#X connect 2 0 0 0;
#X connect 3 0 0 0;
#X connect 4 0 0 0;
#X connect 5 0 0 0;
#X connect 6 0 8 0;
#X connect 6 1 9 0;
#X connect 6 2 10 0;
#X connect 6 3 11 0;
#X connect 6 4 12 0;
#X connect 6 5 2 0;
#X connect 6 6 3 0;
#X connect 6 7 1 0;
#X connect 6 8 5 0;
#X connect 6 9 4 0;
#X connect 7 0 6 0;
#X connect 8 0 0 0;
#X connect 9 0 0 0;
#X connect 10 0 0 0;
#X connect 11 0 0 0;
#X connect 12 0 0 0;
#X restore 796 266 pd presetDispenser;
#X obj 796 234 r \$0-preset;
#X obj 796 102 loadbang;
#X obj 796 195 s \$0-presetR;
#X msg 796 140 0;
#X obj 808 170 s \$0-bypR;
#X obj 106 129 hsl 128 10 30 600 0 0 \$0-time1 \$0-time1R DELAY\ TIME
10 3 1 10 -199729 -4033 -1 6461 1;
#X obj 106 142 hsl 128 10 0 1 0 0 \$0-feedback1 \$0-feedback1R FEEDBACK
10 3 1 10 -199729 -4033 -1 3810 1;
#X obj 106 155 hsl 128 10 0.01 1 1 0 \$0-mix \$0-mixR MIX 10 3 1 10
-199729 -4033 -1 9380 1;
#X obj 106 194 hsl 128 10 0 1 0 0 \$0-fdepth1 \$0-fdepth1R SWEEP\ DEPTH
10 3 1 10 -199729 -4033 -1 0 1;
#X obj 106 207 hsl 128 10 0.01 2 1 0 \$0-fspeed1 \$0-fspeed1R SWEEP\ SPEED
10 3 1 10 -199729 -4033 -1 5519 1;
#X obj 106 168 hsl 128 10 0 1 0 0 \$0-tdepth1 \$0-tdepth1R MOD\ DEPTH
10 3 1 10 -199729 -4033 -1 0 1;
#X obj 106 181 hsl 128 10 0.1 2 0 0 \$0-tspeed1 \$0-tspeed1R MOD\ SPEED
10 3 1 10 -199729 -4033 -1 0 1;
#X obj 106 220 hsl 128 10 100 5000 1 0 \$0-midfreq1 \$0-midfreq1R SWEEP\ CENTER\ FREQ
10 3 1 10 -199729 -4033 -1 0 1;
#X obj 106 233 hsl 128 10 -1 1 0 0 \$0-midgain1 \$0-midgain1R SWEEP\ GAIN
10 3 1 10 -199729 -4033 -1 6350 1;
#X obj 106 246 hsl 128 10 0 100 0 0 \$0-qfactor1 \$0-qfactor1R SWEEP\ Q\ FACTOR
10 3 1 10 -199729 -4033 -1 127 1;
#X obj 106 259 hsl 128 10 10 500 0 0 \$0-hipass1 \$0-hipass1R LOW\ CUT
10 3 1 10 -199729 -4033 -1 0 1;
#X obj 106 272 hsl 128 10 7000 200 1 0 \$0-lopass1 \$0-lopass1R HIGH\ CUT
10 3 1 10 -199729 -4033 -1 0 1;
#X obj 106 116 hradio 10 0 0 10 \$0-preset \$0-presetR SIMPLE_DELAY
0 -8 1 8 -199729 -4033 -199729 0;
#X obj 229 116 tgl 10 0 \$0-byp \$0-bypR empty 17 7 0 10 -199729 -4033
-1 0 1;
#X obj 598 386 outlet~;
#X obj 500 299 *~;
#X obj 467 260 line~;
#X obj 656 233 r \$0-mix;
#X msg 656 254 \$1 50;
#X obj 630 297 *~;
#X obj 656 275 line~;
#X msg 796 346 preset.name 1 0 100 320 0.3 10 7000 0 0.1 0.30003 0
0.0999888;
#X connect 1 0 6 0;
#X connect 1 0 2 0;
#X connect 3 0 4 0;
#X connect 4 0 34 0;
#X connect 5 0 32 0;
#X connect 5 0 33 1;
#X connect 6 0 5 0;
#X connect 6 0 37 0;
#X connect 7 0 8 0;
#X connect 8 0 9 0;
#X connect 9 0 6 1;
#X connect 10 0 39 0;
#X connect 12 0 11 0;
#X connect 13 0 12 0;
#X connect 14 0 16 0;
#X connect 16 0 15 0;
#X connect 16 0 17 0;
#X connect 33 0 2 0;
#X connect 34 0 33 0;
#X connect 35 0 36 0;
#X connect 36 0 38 0;
#X connect 37 0 32 0;
#X connect 38 0 37 1;
#X coords 0 -1 1 1 145 189 2 100 100;
