#N canvas -1491 -159 578 668 10;
#X obj 101 101 cnv 15 143 198 empty empty blacksheep~ 6 8 0 10 #ffffff #000000 0;
#X obj 111 367 inlet~;
#X obj 112 513 outlet~;
#N canvas 639 53 453 635 makePreset 0;
#X obj 34 559 outlet message;
#X msg 52 93 preset.name;
#X obj 52 67 metro 5000;
#X obj 52 40 loadbang;
#X obj 69 119 r \$0-qfactor1;
#X obj 87 142 r \$0-midgain1;
#X obj 104 174 r \$0-midfreq1;
#X obj 124 200 r \$0-time1;
#X obj 143 228 r \$0-feedback1;
#X obj 163 254 r \$0-hipass1;
#X obj 185 290 r \$0-lopass1;
#X obj 34 492 pack s f f f f f f f f f f f f;
#X obj 249 372 r \$0-mix;
#X obj 263 401 r \$0-fdepth1;
#X obj 277 432 r \$0-fspeed1;
#X obj 210 318 r \$0-tdepth1;
#X obj 229 346 r \$0-tspeed1;
#X msg 34 525 set \$1 \$2 \$3 \$4 \$5 \$6 \$7 \$8 \$9 \$10 \$11 \$12 \$13;
#X connect 1 0 11 0;
#X connect 2 0 1 0;
#X connect 3 0 2 0;
#X connect 4 0 11 1;
#X connect 5 0 11 2;
#X connect 6 0 11 3;
#X connect 7 0 11 4;
#X connect 8 0 11 5;
#X connect 9 0 11 6;
#X connect 10 0 11 7;
#X connect 11 0 17 0;
#X connect 12 0 11 10;
#X connect 13 0 11 11;
#X connect 14 0 11 12;
#X connect 15 0 11 8;
#X connect 16 0 11 9;
#X connect 17 0 0 0;
#X restore 327 375 pd makePreset;
#N canvas 484 257 406 454 loadPreset 0;
#X obj 53 39 inlet message;
#X obj 65 328 s \$0-qfactor1R;
#X obj 85 307 s \$0-midgain1R;
#X obj 102 288 s \$0-midfreq1R;
#X obj 124 264 s \$0-time1R;
#X obj 141 243 s \$0-feedback1R;
#X obj 181 198 s \$0-lopass1R;
#X obj 158 221 s \$0-hipass1R;
#X obj 52 62 unpack s f f f f f f f f f f f f;
#X obj 231 134 s \$0-mixR;
#X obj 254 111 s \$0-fdepth1R;
#X obj 266 90 s \$0-fspeed1R;
#X obj 198 176 s \$0-tdepth1R;
#X obj 216 156 s \$0-tspeed1R;
#X msg 50 389 label \$1;
#X obj 50 418 s \$0-presetR;
#X connect 0 0 8 0;
#X connect 8 0 14 0;
#X connect 8 1 1 0;
#X connect 8 2 2 0;
#X connect 8 3 3 0;
#X connect 8 4 4 0;
#X connect 8 5 5 0;
#X connect 8 6 7 0;
#X connect 8 7 6 0;
#X connect 8 8 12 0;
#X connect 8 9 13 0;
#X connect 8 10 9 0;
#X connect 8 11 10 0;
#X connect 8 12 11 0;
#X connect 14 0 15 0;
#X restore 327 351 pd loadPreset;
#N canvas -69 4 1301 725 presetDispenser 0;
#X obj 230 647 outlet;
#X msg 296 173;
#X msg 351 118;
#X msg 320 149;
#X obj 136 57 sel 0 1 2 3 4 5 6 7 8 9;
#X obj 136 28 inlet;
#X msg 29 458 SIMPLE_DELAY 1 0 100 320 0.3 10 7000 0 0.1 0.3 0 0.1;
#X msg 80 416 CHORUSSY 1 0 100 92.8346 0.755906 388.11 7000 0.181102 2 0.208778 0 0.1;
#X msg 126 376 FLOW 61.8032 0.84252 2176.57 308.268 0.874016 10 7000 0 0.1 0.33451 1 0.294488;
#X msg 159 331 GND_CONTROL 71.937 -1 209.443 155.669 0.92126 10 3287.24 0.0314961 2 0.33451 0.685039 0.0468143;
#X msg 189 287 HEADRUSH 100 1 2700.32 133.228 0.901575 260.787 7000 1 2 0.042342 1 0.0991994;
#X msg 226 236 CELESTIAL 1 0 100 357.638 0.708661 191.339 3108.25 0.322835 1.34173 0.151741 0 0.1;
#X msg 266 198 RESONANCE 22.0472 0.0708661 497.295 196.063 1 33.1496 3781.13 0.346457 0.189764 0.243123 0.417323 0.027217;
#X connect 1 0 0 0;
#X connect 2 0 0 0;
#X connect 3 0 0 0;
#X connect 4 0 6 0;
#X connect 4 1 7 0;
#X connect 4 2 8 0;
#X connect 4 3 9 0;
#X connect 4 4 10 0;
#X connect 4 5 11 0;
#X connect 4 6 12 0;
#X connect 4 7 1 0;
#X connect 4 8 3 0;
#X connect 4 9 2 0;
#X connect 5 0 4 0;
#X connect 6 0 0 0;
#X connect 7 0 0 0;
#X connect 8 0 0 0;
#X connect 9 0 0 0;
#X connect 10 0 0 0;
#X connect 11 0 0 0;
#X connect 12 0 0 0;
#X restore 327 319 pd presetDispenser;
#X obj 327 287 r \$0-preset;
#X obj 327 155 loadbang;
#X obj 327 248 s \$0-presetR;
#X msg 327 193 0;
#X obj 339 223 s \$0-bypR;
#X obj 109 140 hsl 128 10 30 600 0 0 \$0-time1 \$0-time1R DELAY\ TIME 10 5 1 10 #ffffff #000000 #000000 0 1;
#X obj 109 153 hsl 128 10 0 1 0 0 \$0-feedback1 \$0-feedback1R FEEDBACK 10 5 1 10 #ffffff #000000 #000000 0 1;
#X obj 109 166 hsl 128 10 0.01 1 1 0 \$0-mix \$0-mixR MIX 10 5 1 10 #ffffff #000000 #000000 0 1;
#X obj 109 205 hsl 128 10 0 1 0 0 \$0-fdepth1 \$0-fdepth1R SWEEP\ DEPTH 10 5 1 10 #ffffff #000000 #000000 0 1;
#X obj 109 218 hsl 128 10 0.01 2 1 0 \$0-fspeed1 \$0-fspeed1R SWEEP\ SPEED 10 5 1 10 #ffffff #000000 #000000 0 1;
#X obj 109 179 hsl 128 10 0 1 0 0 \$0-tdepth1 \$0-tdepth1R MOD\ DEPTH 10 5 1 10 #ffffff #000000 #000000 0 1;
#X obj 109 192 hsl 128 10 0.1 2 0 0 \$0-tspeed1 \$0-tspeed1R MOD\ SPEED 10 5 1 10 #ffffff #000000 #000000 0 1;
#X obj 109 244 hsl 128 10 100 2000 1 0 \$0-midfreq1 \$0-midfreq1R SWEEP\ CENTER\ FREQ 10 5 1 10 #ffffff #000000 #000000 0 1;
#X obj 109 231 hsl 128 10 -1 1 0 0 \$0-midgain1 \$0-midgain1R SWEEP\ MIX 10 5 1 10 #ffffff #000000 #000000 0 1;
#X obj 109 257 hsl 128 10 1 100 0 0 \$0-qfactor1 \$0-qfactor1R SWEEP\ Q\ FACTOR 10 5 1 10 #ffffff #000000 #000000 0 1;
#X obj 109 270 hsl 128 10 10 500 0 0 \$0-hipass1 \$0-hipass1R LOW\ CUT 10 5 1 10 #ffffff #000000 #000000 0 1;
#X obj 109 283 hsl 128 10 7000 200 1 0 \$0-lopass1 \$0-lopass1R HIGH\ CUT 10 5 1 10 #ffffff #000000 #000000 0 1;
#X obj 106 126 hradio 10 1 0 10 \$0-preset \$0-presetR RESONANCE 0 -6 1 8 #ffffff #000000 #000000 0;
#X obj 223 106 tgl 16 0 \$0-byp \$0-bypR B 5 9 0 12 #ffffff #000000 #000000 0 1;
#X obj 216 511 outlet~;
#X msg 327 399 preset.name 22.0472 0.0708661 497.295 196.063 1 33.1496 3781.13 0.346457 0.189764 0.243123 0.417323 0.027217, f 29;
#X obj 203 106 tgl 16 0 \$0-switch \$0-switchR S 5 9 0 12 #ffffff #000000 #000000 0 1;
#X text 109 540 dry + wet(mix);
#X text 214 539 wet + dry(mix);
#N canvas -1308 -413 657 585 FX 0;
#X obj 159 37 inlet~;
#X obj 147 437 outlet~;
#X obj 296 436 outlet~;
#X obj 155 260 r \$0-mix;
#X msg 155 281 \$1 50;
#N canvas -803 -668 703 468 DELAY1 0;
#X obj 109 21 inlet~;
#X obj 98 114 delwrite~ \$0-delay1 600;
#N canvas -3211 -309 451 710 FEEDBACK 0;
#X obj 144 664 outlet~;
#X obj 263 234 vcf~;
#X obj 274 51 r \$0-midfreq1;
#X obj 274 93 line~;
#X msg 274 72 \$1 50;
#X msg 319 194 \$1 50;
#X obj 319 173 r \$0-qfactor1;
#X obj 319 217 line;
#X obj 145 518 hip~;
#X msg 182 480 \$1 50;
#X obj 182 501 line;
#X obj 182 459 r \$0-hipass1;
#X obj 264 323 *~;
#X obj 310 294 line~;
#X msg 310 273 \$1 50;
#X obj 310 252 r \$0-midgain1;
#X obj 146 424 +~;
#X msg 244 588 \$1 50;
#X obj 244 609 line;
#X obj 144 634 lop~;
#X obj 244 567 r \$0-lopass1;
#X obj 274 159 +~;
#X obj 301 129 *~;
#X obj 107 15 inlet~;
#X obj 327 107 r~ \$0-lfo_freq1;
#X obj 33 15 inlet~;
#X obj 147 101 *~;
#X msg 165 47 \$1 50;
#X obj 165 26 r \$0-feedback1;
#X obj 165 68 line~;
#X obj 263 349 expr~ tanh($v1);
#X obj 145 543 expr~ tanh($v1);
#X connect 1 0 12 0;
#X connect 2 0 4 0;
#X connect 3 0 21 0;
#X connect 3 0 22 0;
#X connect 4 0 3 0;
#X connect 5 0 7 0;
#X connect 6 0 5 0;
#X connect 7 0 1 2;
#X connect 8 0 31 0;
#X connect 9 0 10 0;
#X connect 10 0 8 1;
#X connect 11 0 9 0;
#X connect 12 0 30 0;
#X connect 13 0 12 1;
#X connect 14 0 13 0;
#X connect 15 0 14 0;
#X connect 16 0 8 0;
#X connect 17 0 18 0;
#X connect 18 0 19 1;
#X connect 19 0 0 0;
#X connect 20 0 17 0;
#X connect 21 0 1 1;
#X connect 22 0 21 1;
#X connect 23 0 26 0;
#X connect 24 0 22 1;
#X connect 25 0 1 0;
#X connect 25 0 16 0;
#X connect 26 0 1 0;
#X connect 26 0 16 0;
#X connect 27 0 29 0;
#X connect 28 0 27 0;
#X connect 29 0 26 1;
#X connect 30 0 16 1;
#X connect 31 0 19 0;
#X restore 181 65 pd FEEDBACK;
#X obj 99 280 delread4~ \$0-delay1;
#X obj 98 195 line~;
#X msg 98 173 \$1 50;
#X obj 98 150 r \$0-time1;
#X obj 99 251 +~;
#X obj 99 424 outlet~;
#X obj 125 349 s~ \$0-feed_sig1;
#X obj 276 186 osc~;
#X obj 277 148 line~;
#X msg 277 126 \$1 50;
#X obj 275 266 *~;
#X obj 327 250 line~;
#X msg 327 228 \$1 50;
#X obj 407 387 s~ \$0-lfo_freq1;
#X obj 274 388 s~ \$0-lfo_time1;
#X obj 255 36 r~ \$0-feed_sig1;
#X obj 155 222 r~ \$0-lfo_time1;
#X obj 274 309 *~ 5;
#X obj 414 198 osc~;
#X obj 415 160 line~;
#X msg 415 138 \$1 50;
#X obj 413 278 *~;
#X obj 465 262 line~;
#X msg 465 240 \$1 50;
#X obj 277 105 r \$0-tspeed1;
#X obj 327 207 r \$0-tdepth1;
#X obj 415 117 r \$0-fspeed1;
#X obj 465 219 r \$0-fdepth1;
#X obj 409 330 +~ 1;
#X connect 0 0 2 0;
#X connect 2 0 1 0;
#X connect 3 0 9 0;
#X connect 3 0 8 0;
#X connect 4 0 7 0;
#X connect 5 0 4 0;
#X connect 6 0 5 0;
#X connect 7 0 3 0;
#X connect 10 0 13 0;
#X connect 11 0 10 0;
#X connect 12 0 11 0;
#X connect 13 0 20 0;
#X connect 14 0 13 1;
#X connect 15 0 14 0;
#X connect 18 0 2 1;
#X connect 19 0 7 1;
#X connect 20 0 17 0;
#X connect 21 0 24 0;
#X connect 22 0 21 0;
#X connect 23 0 22 0;
#X connect 24 0 31 0;
#X connect 25 0 24 1;
#X connect 26 0 25 0;
#X connect 27 0 12 0;
#X connect 28 0 15 0;
#X connect 29 0 23 0;
#X connect 30 0 26 0;
#X connect 31 0 16 0;
#X restore 225 249 pd DELAY1;
#X obj 299 208 *~;
#X obj 302 105 r \$0-byp;
#X msg 302 150 \$1 50;
#X obj 302 171 line~;
#X obj 188 341 *~;
#X obj 155 302 line~;
#X obj 344 275 r \$0-mix;
#X msg 344 296 \$1 50;
#X obj 318 339 *~;
#X obj 344 317 line~;
#X obj 58 129 r \$0-switch;
#X obj 58 152 switch~;
#X connect 0 0 6 0;
#X connect 3 0 4 0;
#X connect 4 0 11 0;
#X connect 5 0 10 1;
#X connect 5 0 2 0;
#X connect 6 0 5 0;
#X connect 6 0 14 0;
#X connect 7 0 8 0;
#X connect 8 0 9 0;
#X connect 9 0 6 1;
#X connect 10 0 1 0;
#X connect 11 0 10 0;
#X connect 12 0 13 0;
#X connect 13 0 15 0;
#X connect 14 0 2 0;
#X connect 15 0 14 1;
#X connect 16 0 17 0;
#X restore 156 443 pd FX;
#X connect 1 0 2 0;
#X connect 1 0 30 0;
#X connect 3 0 26 0;
#X connect 5 0 4 0;
#X connect 6 0 5 0;
#X connect 7 0 9 0;
#X connect 9 0 8 0;
#X connect 9 0 10 0;
#X connect 30 0 2 0;
#X connect 30 1 25 0;
#X coords 0 -1 1 1 145 200 2 100 100;
