#N canvas 97 50 1199 671 12;
#X declare -path moonlib;
#N canvas 406 172 560 507 pt2399 0;
#X obj 75 299 delread4~ \$0-pt1;
#X obj 75 253 line~;
#X msg 75 225 \$1 100;
#X obj 77 3 inlet~;
#X obj 75 449 outlet~;
#X obj 75 201 +;
#X obj 91 175 t b f;
#X obj 75 275 lop~ 1;
#X obj 206 163 random 11;
#X obj 206 194 - 5;
#X obj 284 137 * 200;
#X obj 261 83 loadbang;
#X obj 206 137 delay 200;
#X obj 243 194 r \$0-stab;
#X obj 75 150 r \$0-time;
#X obj 76 57 delwrite~ \$0-pt1 1000;
#X msg 391 209 set 64 1 \$1;
#X obj 393 9 r \$0-downsample;
#X msg 393 78 1;
#X msg 414 102 0.5;
#X msg 436 131 0.25;
#X msg 288 163 seed \$1;
#X obj 287 111 f \$0;
#X obj 391 235 block~;
#X obj 206 220 *;
#X obj 77 28 expr~ 0.26*(4.7*$v1/(1+3.7*abs($v1)));
#X msg 458 156 0.125;
#X obj 393 53 sel 0 1 2 3;
#X obj 142 101 * 0.03;
#X connect 0 0 4 0;
#X connect 1 0 7 0;
#X connect 2 0 1 0;
#X connect 3 0 25 0;
#X connect 5 0 2 0;
#X connect 6 0 5 0;
#X connect 6 1 5 1;
#X connect 7 0 0 0;
#X connect 8 0 9 0;
#X connect 8 0 10 0;
#X connect 9 0 24 0;
#X connect 10 0 12 1;
#X connect 10 0 12 0;
#X connect 11 0 12 0;
#X connect 11 0 22 0;
#X connect 12 0 8 0;
#X connect 13 0 24 1;
#X connect 14 0 5 0;
#X connect 14 0 28 0;
#X connect 16 0 23 0;
#X connect 17 0 27 0;
#X connect 18 0 16 0;
#X connect 19 0 16 0;
#X connect 20 0 16 0;
#X connect 21 0 8 0;
#X connect 22 0 21 0;
#X connect 24 0 6 0;
#X connect 25 0 15 0;
#X connect 26 0 16 0;
#X connect 27 0 18 0;
#X connect 27 1 19 0;
#X connect 27 2 20 0;
#X connect 27 3 26 0;
#X connect 28 0 10 1;
#X restore 410 283 pd pt2399;
#X obj 364 11 inlet~;
#X obj 101 101 cnv 15 148 48 empty empty LoFi:Delay 3 7 1 9 #000000 #9c9c9c 0;
#X obj 477 176 r \$0-lpf;
#X obj 465 421 r \$0-hpf;
#X obj 409 446 hip~;
#X obj 409 255 lop~;
#X obj 409 233 lop~;
#X obj 409 211 lop~;
#X obj 477 222 + 100;
#X obj 477 199 + 100;
#X obj 474 388 r \$0-lpf;
#X obj 410 416 lop~;
#X obj 411 390 lop~;
#X obj 490 81 *~;
#X obj 581 46 r \$0-fb;
#X obj 581 92 line~;
#X msg 581 70 \$1 50;
#N canvas 289 0 370 573 makePreset 0;
#X obj 37 432 outlet message;
#X msg 52 93 preset.name;
#X obj 52 67 metro 5000;
#X obj 52 40 loadbang;
#X obj 69 119 r \$0-time;
#X obj 104 174 r \$0-stab;
#X obj 124 200 r \$0-lpf;
#X obj 143 228 r \$0-hpf;
#X obj 163 254 r \$0-fb;
#X obj 185 290 r \$0-mix;
#X obj 37 365 pack s f f f f f f f;
#X obj 87 142 r \$0-quality;
#X msg 37 398 set \$1 \$2 \$3 \$4 \$5 \$6 \$7 \$8;
#X connect 1 0 10 0;
#X connect 2 0 1 0;
#X connect 3 0 2 0;
#X connect 4 0 10 1;
#X connect 5 0 10 3;
#X connect 6 0 10 4;
#X connect 7 0 10 5;
#X connect 8 0 10 6;
#X connect 9 0 10 7;
#X connect 10 0 12 0;
#X connect 11 0 10 2;
#X connect 12 0 0 0;
#X restore 740 580 pd makePreset;
#N canvas 429 50 355 395 loadPreset 0;
#X obj 53 39 inlet message;
#X obj 102 276 s \$0-timeR;
#X obj 139 236 s \$0-stabR;
#X obj 161 212 s \$0-lpfR;
#X obj 178 191 s \$0-hpfR;
#X obj 196 169 s \$0-fbR;
#X obj 218 146 s \$0-mixR;
#X obj 122 255 s \$0-qualityR;
#X obj 53 62 unpack s f f f f f f f;
#X connect 0 0 8 0;
#X connect 8 1 1 0;
#X connect 8 2 7 0;
#X connect 8 3 2 0;
#X connect 8 4 3 0;
#X connect 8 5 4 0;
#X connect 8 6 5 0;
#X connect 8 7 6 0;
#X restore 740 556 pd loadPreset;
#X msg 741 604 preset.name 382.971 1 0 10000 20 0.176471 0;
#N canvas 555 0 497 710 presetDispenser 0;
#X obj 230 647 outlet;
#X msg 186 333;
#X msg 276 260;
#X msg 216 311;
#X msg 246 285;
#X msg 331 205;
#X msg 300 236;
#X obj 136 57 sel 0 1 2 3 4 5 6 7 8 9;
#X obj 136 28 inlet;
#X msg 64 442 INIT 382.971 1 0 10000 20 0.176471 0 0.441176 1;
#X msg 97 402 BADSAMPLING 643.636 4.99 0.414141 10000 272.121 0.474747 0.494949;
#X msg 126 376 INSTABLE 406.061 0 1 3574.22 39.3939 0.59596 0.373737;
#X msg 155 354 WETROOM 20 2.06657 0.767677 3467.69 189.697 0.808081 0.59596;
#X connect 1 0 0 0;
#X connect 2 0 0 0;
#X connect 3 0 0 0;
#X connect 4 0 0 0;
#X connect 5 0 0 0;
#X connect 6 0 0 0;
#X connect 7 0 9 0;
#X connect 7 1 10 0;
#X connect 7 2 11 0;
#X connect 7 3 12 0;
#X connect 7 4 1 0;
#X connect 7 5 3 0;
#X connect 7 6 4 0;
#X connect 7 7 2 0;
#X connect 7 8 6 0;
#X connect 7 9 5 0;
#X connect 8 0 7 0;
#X connect 9 0 0 0;
#X connect 10 0 0 0;
#X connect 11 0 0 0;
#X connect 12 0 0 0;
#X restore 740 524 pd presetDispenser;
#X obj 740 492 r \$0-preset;
#X obj 364 631 outlet~;
#X obj 457 479 r \$0-mix;
#N canvas 0 50 532 457 crossfade 0;
#X obj 23 59 inlet~;
#X obj 234 69 inlet;
#X obj 23 343 outlet~;
#X obj 39 205 expr cos($f1 * 3.14159 / 2);
#X obj 272 204 expr sin($f1 * 3.14159 / 2);
#N canvas 0 50 450 300 pan_core 0;
#X obj 21 106 inlet~;
#X obj 226 126 inlet;
#X obj 80 453 *~;
#X obj 144 497 outlet~;
#X obj 210 452 *~;
#X obj 226 428 line~;
#X obj 96 428 line~;
#X obj 96 127 inlet;
#X obj 179 104 inlet~;
#X text 244 544 comment;
#X obj 96 389 pack f 5;
#X obj 226 389 pack f 5;
#X text 223 540 Hans-Christoph Steiner \, 2004;
#X text 223 526 Adapted from [pan_core~];
#X connect 0 0 2 0;
#X connect 1 0 11 0;
#X connect 2 0 3 0;
#X connect 4 0 3 0;
#X connect 5 0 4 1;
#X connect 6 0 2 1;
#X connect 7 0 10 0;
#X connect 8 0 4 0;
#X connect 10 0 6 0;
#X connect 11 0 5 0;
#X restore 29 277 pd pan_core;
#X obj 118 57 inlet~;
#X connect 0 0 5 0;
#X connect 1 0 3 0;
#X connect 1 0 4 0;
#X connect 3 0 5 1;
#X connect 4 0 5 3;
#X connect 5 0 2 0;
#X connect 6 0 5 2;
#X restore 364 508 pd crossfade;
#X obj 491 39 r~ \$0-feed;
#X obj 606 474 s~ \$0-feed;
#X obj 740 360 loadbang;
#X obj 740 453 s \$0-presetR;
#X msg 740 398 0;
#X obj 382 113 *~;
#X obj 404 85 r \$0-byp;
#X obj 313 590 *~;
#X obj 334 566 == 0;
#X obj 394 585 *~;
#X obj 393 537 r \$0-byp;
#X obj 752 428 s \$0-bypR;
#X obj 411 359 *~;
#X obj 494 261 noise~;
#X obj 494 332 +~ 1;
#X obj 494 308 hip~ 1;
#X obj 563 261 r \$0-noise;
#X obj 494 285 lop~;
#X obj 235 103 tgl 12 0 \$0-byp \$0-bypR B 3 6 1 10 #fc2828 #fc2828 #fcfcfc 0 1;
#X obj 907 307 sel 0 1;
#X obj 907 267 r \$0-byp;
#X obj 897 411 s \$0-bypR;
#X obj 105 119 mknob 18 100 0 1 0 0 \$0-mix \$0-mixR MIX 3 24 1 7 #404040 #fcfcfc #e0e0e0 0 1;
#X obj 125 119 mknob 18 100 20 1000 0 0 \$0-time \$0-timeR DLY 3 24 1 7 #404040 #fcfcfc #e0e0e0 3667 1;
#X obj 145 119 mknob 18 100 0 1 0 0 \$0-fb \$0-fbR FBK 3 24 1 7 #404040 #fcfcfc #e0e0e0 1747 1;
#X obj 166 119 mknob 18 100 500 10000 1 0 \$0-lpf \$0-lpfR HFR 3 24 1 7 #404040 #fcfcfc #e0e0e0 9900 1;
#X obj 186 119 mknob 18 100 500 20 0 0 \$0-hpf \$0-hpfR LFR 3 24 1 7 #404040 #fcfcfc #e0e0e0 9900 1;
#X obj 207 119 mknob 18 100 4.99 0 0 0 \$0-quality \$0-qualityR QTY 3 24 1 7 #404040 #fcfcfc #e0e0e0 7916 1;
#X obj 227 119 mknob 18 100 0 1 0 0 \$0-stab \$0-stabR MOD 3 24 1 7 #404040 #fcfcfc #e0e0e0 0 1;
#X obj 166 105 hradio 8 1 0 8 \$0-preset \$0-presetR empty 0 -8 0 10 #404040 #9c9c9c #000000 0;
#X obj 96 335 r \$0-quality;
#X obj 67 478 + 20;
#X obj 147 447 div 1;
#X obj 47 559 s \$0-noise;
#X obj 151 564 s \$0-downsample;
#X obj 67 448 * 200;
#X msg 897 351 color 2 2 1;
#X msg 1031 352 color 13 13 0;
#X obj 58 35 declare -path moonlib;
#X connect 0 0 38 0;
#X connect 1 0 25 0;
#X connect 1 0 31 0;
#X connect 1 0 33 0;
#X connect 3 0 10 0;
#X connect 3 0 8 1;
#X connect 4 0 5 1;
#X connect 5 0 25 1;
#X connect 5 0 27 0;
#X connect 6 0 0 0;
#X connect 7 0 6 0;
#X connect 8 0 7 0;
#X connect 9 0 6 1;
#X connect 10 0 9 0;
#X connect 10 0 7 1;
#X connect 11 0 12 1;
#X connect 11 0 13 1;
#X connect 12 0 5 0;
#X connect 13 0 12 0;
#X connect 14 0 8 0;
#X connect 15 0 17 0;
#X connect 16 0 14 1;
#X connect 17 0 16 0;
#X connect 18 0 20 0;
#X connect 21 0 19 0;
#X connect 22 0 21 0;
#X connect 24 0 25 2;
#X connect 25 0 35 0;
#X connect 26 0 14 0;
#X connect 28 0 30 0;
#X connect 30 0 29 0;
#X connect 30 0 37 0;
#X connect 31 0 8 0;
#X connect 32 0 31 1;
#X connect 33 0 23 0;
#X connect 34 0 33 1;
#X connect 35 0 23 0;
#X connect 36 0 34 0;
#X connect 36 0 35 1;
#X connect 38 0 13 0;
#X connect 39 0 43 0;
#X connect 40 0 38 1;
#X connect 41 0 40 0;
#X connect 42 0 43 1;
#X connect 43 0 41 0;
#X connect 45 0 62 0;
#X connect 45 1 63 0;
#X connect 46 0 45 0;
#X connect 56 0 58 0;
#X connect 56 0 61 0;
#X connect 57 0 59 0;
#X connect 58 0 60 0;
#X connect 61 0 57 0;
#X connect 62 0 47 0;
#X connect 63 0 47 0;
#X coords 0 -1 1 1 150 50 2 100 100;
