#N canvas 148 64 765 611 10;
#X declare -path moonlib;
#X obj 444 43 inlet~;
#X obj 445 581 outlet~;
#X obj 101 101 cnv 15 148 98 empty empty Para:EQ 3 7 1 9 #000000 #9c9c9c 0;
#X obj 167 105 hradio 8 1 0 8 \$0-preset \$0-presetR empty 0 -8 0 10 #404040 #9c9c9c #000000 0;
#N canvas 100 62 450 300 byp 0;
#X obj 244 107 sel 0 1;
#X msg 244 152 color \$1 \$2 \$3;
#X obj 243 86 r \$0-byp;
#X obj 244 174 s \$0-bypR;
#X obj 100 100 tgl 12 0 \$0-byp \$0-bypR B 3 6 1 10 #404040 #404040 #a0a0a0 0 1;
#X obj 100 67 inlet;
#X obj 99 150 outlet;
#X msg 244 129 2 2 1;
#X msg 308 129 13 13 0;
#X connect 0 0 7 0;
#X connect 0 1 8 0;
#X connect 1 0 3 0;
#X connect 2 0 0 0;
#X connect 4 0 6 0;
#X connect 5 0 4 0;
#X connect 7 0 1 0;
#X connect 8 0 1 0;
#X coords 0 -1 1 1 12 12 2 100 100;
#X restore 235 103 pd byp;
#X obj 503 126 *~;
#X obj 444 126 *~;
#X obj 497 38 == 0;
#X obj 550 14 r \$0-byp;
#X msg 550 59 \$1 50;
#X obj 550 80 line~;
#X msg 497 60 \$1 50;
#X obj 497 81 line~;
#N canvas 557 18 453 614 makePreset 0;
#X obj 34 559 outlet message;
#X msg 52 93 preset.name;
#X obj 52 67 metro 5000;
#X obj 52 40 loadbang;
#X obj 69 119 r \$0-logain;
#X obj 87 142 r \$0-lofreq;
#X obj 104 165 r \$0-gain1;
#X obj 124 191 r \$0-bw1;
#X obj 143 219 r \$0-freq1;
#X obj 163 245 r \$0-gain2;
#X obj 185 270 r \$0-bw2;
#X obj 210 294 r \$0-freq2;
#X obj 229 322 r \$0-gain3;
#X obj 249 348 r \$0-bw3;
#X obj 263 371 r \$0-freq3;
#X obj 34 492 pack s f f f f f f f f f f f f f;
#X obj 278 395 r \$0-higain;
#X obj 292 418 r \$0-hifreq;
#X msg 34 525 set \$1 \$2 \$3 \$4 \$5 \$6 \$7 \$8 \$9 \$10 \$11 \$12 \$13 \$14;
#X connect 1 0 15 0;
#X connect 2 0 1 0;
#X connect 3 0 2 0;
#X connect 4 0 15 1;
#X connect 5 0 15 2;
#X connect 6 0 15 3;
#X connect 7 0 15 4;
#X connect 8 0 15 5;
#X connect 9 0 15 6;
#X connect 10 0 15 7;
#X connect 11 0 15 8;
#X connect 12 0 15 9;
#X connect 13 0 15 10;
#X connect 14 0 15 11;
#X connect 15 0 18 0;
#X connect 16 0 15 12;
#X connect 17 0 15 13;
#X connect 18 0 0 0;
#X restore 107 461 pd makePreset;
#N canvas 429 50 464 505 loadPreset 0;
#X obj 53 39 inlet message;
#X obj 62 338 s \$0-logainR;
#X obj 82 317 s \$0-lofreqR;
#X obj 99 298 s \$0-gain1R;
#X obj 121 274 s \$0-bw1R;
#X obj 138 253 s \$0-freq1R;
#X obj 155 231 s \$0-gain2R;
#X obj 178 208 s \$0-bw2R;
#X obj 199 188 s \$0-freq2R;
#X obj 216 167 s \$0-gain3R;
#X obj 233 145 s \$0-bw3R;
#X obj 256 125 s \$0-freq3R;
#X obj 50 62 unpack s f f f f f f f f f f f f f;
#X obj 269 106 s \$0-higainR;
#X obj 285 87 s \$0-hifreqR;
#X connect 0 0 12 0;
#X connect 12 1 1 0;
#X connect 12 2 2 0;
#X connect 12 3 3 0;
#X connect 12 4 4 0;
#X connect 12 5 5 0;
#X connect 12 6 6 0;
#X connect 12 7 7 0;
#X connect 12 8 8 0;
#X connect 12 9 9 0;
#X connect 12 10 10 0;
#X connect 12 11 11 0;
#X connect 12 12 13 0;
#X connect 12 13 14 0;
#X restore 107 437 pd loadPreset;
#X msg 107 485 preset.name 0 100 0 1 300 0 1 1500 0 1 3000 0 5001, f 22;
#N canvas 568 12 534 710 presetDispenser 0;
#X obj 230 647 outlet;
#X msg 286 185;
#X msg 226 236;
#X msg 256 210;
#X msg 341 130;
#X msg 310 161;
#X obj 136 57 sel 0 1 2 3 4 5 6 7 8 9;
#X obj 136 28 inlet;
#X msg 189 287;
#X msg 159 331;
#X msg 126 376;
#X msg 29 458 INIT 0 100 0 1 300 0 1 1500 0 1 3000 0 5001;
#X msg 80 416 METAL 4.36364 100 0 1 300.031 -12 1 800.598 0 1 3000.21 4.12121 4517.05;
#X connect 1 0 0 0;
#X connect 2 0 0 0;
#X connect 3 0 0 0;
#X connect 4 0 0 0;
#X connect 5 0 0 0;
#X connect 6 0 11 0;
#X connect 6 1 12 0;
#X connect 6 2 10 0;
#X connect 6 3 9 0;
#X connect 6 4 8 0;
#X connect 6 5 2 0;
#X connect 6 6 3 0;
#X connect 6 7 1 0;
#X connect 6 8 5 0;
#X connect 6 9 4 0;
#X connect 7 0 6 0;
#X connect 8 0 0 0;
#X connect 9 0 0 0;
#X connect 10 0 0 0;
#X connect 11 0 0 0;
#X connect 12 0 0 0;
#X restore 107 405 pd presetDispenser;
#X obj 107 373 r \$0-preset;
#X obj 107 241 loadbang;
#X obj 107 334 s \$0-presetR;
#X msg 107 279 0;
#X obj 119 309 s \$0-bypR;
#X obj 504 169 bq_lowshelving~ 100 0, f 20;
#X obj 504 530 bq_highshelving~ 10000 0;
#X obj 110 120 mknob 18 100 -12 12 0 0 \$0-logain \$0-logainR empty 3 24 1 7 #404040 #9c9c9c #b8b8b8 4950 1;
#X obj 110 160 mknob 18 100 20 200 0 0 \$0-lofreq \$0-lofreqR empty 3 24 1 7 #404040 #9c9c9c #b8b8b8 4400 1;
#X obj 138 140 mknob 18 100 0.2 2 0 0 \$0-bw1 \$0-bw1R empty 3 24 1 7 #404040 #9c9c9c #b8b8b8 4400 1;
#X obj 138 160 mknob 18 100 100 999 1 0 \$0-freq1 \$0-freq1R empty 3 24 1 7 #404040 #9c9c9c #b8b8b8 4726 1;
#X obj 166 140 mknob 18 100 0.2 2 0 0 \$0-bw2 \$0-bw2R empty 3 24 1 7 #404040 #9c9c9c #b8b8b8 4400 1;
#X obj 166 160 mknob 18 100 500 5000 1 0 \$0-freq2 \$0-freq2R empty 3 24 1 7 #404040 #9c9c9c #b8b8b8 4724 1;
#X obj 194 140 mknob 18 100 0.2 2 0 0 \$0-bw3 \$0-bw3R empty 3 24 1 7 #404040 #9c9c9c #b8b8b8 4400 1;
#X obj 194 160 mknob 18 100 1000 9999 1 0 \$0-freq3 \$0-freq3R empty 3 24 1 7 #404040 #9c9c9c #b8b8b8 4724 1;
#X obj 223 160 mknob 18 100 2000 15000 1 0 \$0-hifreq \$0-hifreqR empty 3 24 1 7 #404040 #9c9c9c #b8b8b8 4503 1;
#X obj 141 183 cnv 10 10 10 empty \$0-freq1S 300 0 5 1 8 #000000 #9c9c9c 0;
#X obj 168 183 cnv 10 10 10 empty \$0-freq2S 1500 0 5 1 8 #000000 #9c9c9c 0;
#X obj 195 183 cnv 10 10 10 empty \$0-freq3S 3000 0 5 1 8 #000000 #9c9c9c 0;
#X obj 113 183 cnv 10 10 10 empty \$0-lofreqS 100 0 5 1 8 #000000 #9c9c9c 0;
#X obj 224 183 cnv 10 10 10 empty \$0-hifreqS 5001 0 5 1 8 #000000 #9c9c9c 0;
#X obj 138 120 mknob 18 100 -12 12 0 0 \$0-gain1 \$0-gain1R empty 3 24 1 7 #404040 #9c9c9c #b8b8b8 4950 1;
#X obj 166 120 mknob 18 100 -12 12 0 0 \$0-gain2 \$0-gain2R empty 3 24 1 7 #404040 #9c9c9c #b8b8b8 4950 1;
#X obj 194 120 mknob 18 100 -12 12 0 0 \$0-gain3 \$0-gain3R empty 3 24 1 7 #404040 #9c9c9c #b8b8b8 4950 1;
#X obj 223 120 mknob 18 100 -12 12 0 0 \$0-higain \$0-higainR empty 3 24 1 7 #404040 #9c9c9c #b8b8b8 4950 1;
#N canvas 387 229 450 300 line 0;
#X obj 150 127 line;
#X obj 150 77 inlet;
#X obj 150 151 outlet;
#X obj 208 127 line;
#X obj 208 77 inlet;
#X obj 208 151 outlet;
#X msg 150 102 \$1 50;
#X msg 208 102 \$1 50;
#X connect 0 0 2 0;
#X connect 1 0 6 0;
#X connect 3 0 5 0;
#X connect 4 0 7 0;
#X connect 6 0 0 0;
#X connect 7 0 3 0;
#X restore 549 150 pd line;
#X obj 549 112 r \$0-lofreq;
#X obj 594 131 r \$0-logain;
#N canvas 387 229 450 300 line 0;
#X obj 150 127 line;
#X obj 150 77 inlet;
#X obj 150 151 outlet;
#X obj 208 127 line;
#X obj 208 77 inlet;
#X obj 208 151 outlet;
#X msg 150 102 \$1 50;
#X msg 208 102 \$1 50;
#X connect 0 0 2 0;
#X connect 1 0 6 0;
#X connect 3 0 5 0;
#X connect 4 0 7 0;
#X connect 6 0 0 0;
#X connect 7 0 3 0;
#X restore 549 511 pd line;
#X obj 549 473 r \$0-hifreq;
#X obj 594 492 r \$0-higain;
#N canvas 387 229 450 300 line 0;
#X obj 150 127 line;
#X obj 150 77 inlet;
#X obj 150 151 outlet;
#X obj 208 127 line;
#X obj 208 77 inlet;
#X obj 208 151 outlet;
#X obj 267 126 line;
#X obj 267 76 inlet;
#X obj 267 150 outlet;
#X msg 150 102 \$1 50;
#X msg 208 102 \$1 50;
#X msg 267 101 \$1 50;
#X connect 0 0 2 0;
#X connect 1 0 9 0;
#X connect 3 0 5 0;
#X connect 4 0 10 0;
#X connect 6 0 8 0;
#X connect 7 0 11 0;
#X connect 9 0 0 0;
#X connect 10 0 3 0;
#X connect 11 0 6 0;
#X restore 550 245 pd line;
#X obj 594 207 r \$0-bw1;
#X obj 550 188 r \$0-freq1;
#X obj 638 226 r \$0-gain1;
#N canvas 387 229 450 300 line 0;
#X obj 150 127 line;
#X obj 150 77 inlet;
#X obj 150 151 outlet;
#X obj 208 127 line;
#X obj 208 77 inlet;
#X obj 208 151 outlet;
#X obj 267 126 line;
#X obj 267 76 inlet;
#X obj 267 150 outlet;
#X msg 150 102 \$1 50;
#X msg 208 102 \$1 50;
#X msg 267 101 \$1 50;
#X connect 0 0 2 0;
#X connect 1 0 9 0;
#X connect 3 0 5 0;
#X connect 4 0 10 0;
#X connect 6 0 8 0;
#X connect 7 0 11 0;
#X connect 9 0 0 0;
#X connect 10 0 3 0;
#X connect 11 0 6 0;
#X restore 550 340 pd line;
#N canvas 387 229 450 300 line 0;
#X obj 150 127 line;
#X obj 150 77 inlet;
#X obj 150 151 outlet;
#X obj 208 127 line;
#X obj 208 77 inlet;
#X obj 208 151 outlet;
#X obj 267 126 line;
#X obj 267 76 inlet;
#X obj 267 150 outlet;
#X msg 150 102 \$1 50;
#X msg 208 102 \$1 50;
#X msg 267 101 \$1 50;
#X connect 0 0 2 0;
#X connect 1 0 9 0;
#X connect 3 0 5 0;
#X connect 4 0 10 0;
#X connect 6 0 8 0;
#X connect 7 0 11 0;
#X connect 9 0 0 0;
#X connect 10 0 3 0;
#X connect 11 0 6 0;
#X restore 550 435 pd line;
#X obj 550 283 r \$0-freq2;
#X obj 594 302 r \$0-bw2;
#X obj 638 321 r \$0-gain2;
#X obj 550 378 r \$0-freq3;
#X obj 594 397 r \$0-bw3;
#X obj 638 416 r \$0-gain3;
#X obj 505 264 bq_peak~ 300 1 0;
#X obj 505 359 bq_peak~ 2000 1 0;
#X obj 505 454 bq_peak~ 3000 1 0;
#N canvas 458 195 786 300 LABELER 0;
#X obj 94 196 s \$0-lofreqS;
#X obj 94 148 makefilename %d;
#X msg 94 173 label \$1;
#X obj 94 99 r \$0-lofreq;
#X obj 94 123 i;
#X obj 214 146 makefilename %d;
#X msg 214 171 label \$1;
#X obj 214 121 i;
#X obj 214 194 s \$0-freq1S;
#X obj 214 97 r \$0-freq1;
#X obj 329 145 makefilename %d;
#X msg 329 170 label \$1;
#X obj 329 120 i;
#X obj 449 143 makefilename %d;
#X msg 449 168 label \$1;
#X obj 449 118 i;
#X obj 329 193 s \$0-freq2S;
#X obj 329 96 r \$0-freq2;
#X obj 449 94 r \$0-freq3;
#X obj 449 191 s \$0-freq3S;
#X obj 568 142 makefilename %d;
#X msg 568 167 label \$1;
#X obj 568 117 i;
#X obj 568 93 r \$0-hifreq;
#X obj 568 190 s \$0-hifreqS;
#X connect 1 0 2 0;
#X connect 2 0 0 0;
#X connect 3 0 4 0;
#X connect 4 0 1 0;
#X connect 5 0 6 0;
#X connect 6 0 8 0;
#X connect 7 0 5 0;
#X connect 9 0 7 0;
#X connect 10 0 11 0;
#X connect 11 0 16 0;
#X connect 12 0 10 0;
#X connect 13 0 14 0;
#X connect 14 0 19 0;
#X connect 15 0 13 0;
#X connect 17 0 12 0;
#X connect 18 0 15 0;
#X connect 20 0 21 0;
#X connect 21 0 24 0;
#X connect 22 0 20 0;
#X connect 23 0 22 0;
#X restore 312 320 pd LABELER;
#X floatatom 667 156 5 0 0 0 - - - 0;
#X obj 43 20 declare -path moonlib;
#X connect 0 0 5 0;
#X connect 0 0 6 0;
#X connect 5 0 22 0;
#X connect 6 0 1 0;
#X connect 7 0 11 0;
#X connect 8 0 9 0;
#X connect 8 0 7 0;
#X connect 9 0 10 0;
#X connect 10 0 5 1;
#X connect 11 0 12 0;
#X connect 12 0 6 1;
#X connect 13 0 15 0;
#X connect 16 0 14 0;
#X connect 17 0 16 0;
#X connect 18 0 20 0;
#X connect 20 0 19 0;
#X connect 20 0 21 0;
#X connect 22 0 60 0;
#X connect 23 0 1 0;
#X connect 42 0 22 1;
#X connect 42 1 22 2;
#X connect 42 1 64 0;
#X connect 43 0 42 0;
#X connect 44 0 42 1;
#X connect 45 0 23 1;
#X connect 45 1 23 2;
#X connect 46 0 45 0;
#X connect 47 0 45 1;
#X connect 48 0 60 1;
#X connect 48 1 60 2;
#X connect 48 2 60 3;
#X connect 49 0 48 1;
#X connect 50 0 48 0;
#X connect 51 0 48 2;
#X connect 52 0 61 1;
#X connect 52 1 61 2;
#X connect 52 2 61 3;
#X connect 53 0 62 1;
#X connect 53 1 62 2;
#X connect 53 2 62 3;
#X connect 54 0 52 0;
#X connect 55 0 52 1;
#X connect 56 0 52 2;
#X connect 57 0 53 0;
#X connect 58 0 53 1;
#X connect 59 0 53 2;
#X connect 60 0 61 0;
#X connect 61 0 62 0;
#X connect 62 0 23 0;
#X coords 0 -1 1 1 150 100 2 100 100;
