#N canvas -1436 -477 1135 668 10;
#N canvas 72 19 934 710 oscillator 0;
#X msg 435 43 \$1 50;
#X obj 270 10 inlet;
#X obj 270 63 unpack;
#X obj 435 136 +;
#X obj 435 65 line;
#X obj 435 20 r \$0-detune;
#X obj 288 140 r \$0-transpose;
#X obj 270 162 +;
#X obj 445 89 r \$0-shift;
#X obj 445 113 t b f;
#X obj 435 189 +;
#X obj 435 162 t b f;
#X obj 69 293 / 127;
#X obj 143 402 line~;
#X obj 253 418 *~;
#X msg 143 380 \$1 \$2;
#X obj 144 320 r \$0-attack1;
#X obj 69 315 route 0;
#X obj 122 293 r \$0-release1;
#X msg 69 339 0;
#X obj 69 363 pack f f;
#X obj 143 352 pack f f;
#X obj 622 293 / 127;
#X obj 696 402 line~;
#X msg 696 380 \$1 \$2;
#X obj 622 315 route 0;
#X msg 622 339 0;
#X obj 622 363 pack f f;
#X obj 696 352 pack f f;
#X obj 675 293 r \$0-release2;
#X obj 697 320 r \$0-attack2;
#X obj 434 418 *~;
#X obj 295 649 outlet~;
#X obj 350 364 r \$0-blend;
#X obj 416 445 *~;
#X obj 350 408 line~;
#X msg 350 386 \$1 100;
#X obj 576 126 pack;
#X msg 576 162 set \$2-wave\$1;
#X obj 627 60 loadbang;
#X obj 627 85 f \$0;
#X obj 762 134 pack;
#X msg 762 170 set \$2-wave\$1;
#X obj 813 68 loadbang;
#X obj 813 93 f \$0;
#X obj 557 72 r \$0-wf1;
#X obj 727 74 r \$0-wf2;
#X obj 557 93 i;
#X obj 738 100 i;
#X obj 271 336 tabosc4~;
#X obj 435 386 tabosc4~;
#X obj 270 197 mtof~;
#X obj 435 213 mtof~;
#X obj 299 487 +~;
#X connect 0 0 4 0;
#X connect 1 0 2 0;
#X connect 2 0 7 0;
#X connect 2 1 12 0;
#X connect 2 1 22 0;
#X connect 3 0 11 0;
#X connect 4 0 3 0;
#X connect 5 0 0 0;
#X connect 6 0 7 1;
#X connect 7 0 10 0;
#X connect 7 0 51 0;
#X connect 8 0 9 0;
#X connect 9 0 3 0;
#X connect 9 1 3 1;
#X connect 10 0 52 0;
#X connect 11 0 10 0;
#X connect 11 1 10 1;
#X connect 12 0 17 0;
#X connect 13 0 14 0;
#X connect 14 0 53 0;
#X connect 15 0 13 0;
#X connect 16 0 21 1;
#X connect 17 0 19 0;
#X connect 17 1 21 0;
#X connect 18 0 20 1;
#X connect 19 0 20 0;
#X connect 20 0 15 0;
#X connect 21 0 15 0;
#X connect 22 0 25 0;
#X connect 23 0 31 1;
#X connect 24 0 23 0;
#X connect 25 0 26 0;
#X connect 25 1 28 0;
#X connect 26 0 27 0;
#X connect 27 0 24 0;
#X connect 28 0 24 0;
#X connect 29 0 27 1;
#X connect 30 0 28 1;
#X connect 31 0 34 1;
#X connect 33 0 36 0;
#X connect 34 0 53 1;
#X connect 35 0 34 0;
#X connect 36 0 35 0;
#X connect 37 0 38 0;
#X connect 38 0 49 0;
#X connect 39 0 40 0;
#X connect 40 0 37 1;
#X connect 41 0 42 0;
#X connect 42 0 50 0;
#X connect 43 0 44 0;
#X connect 44 0 41 1;
#X connect 45 0 47 0;
#X connect 46 0 48 0;
#X connect 47 0 37 0;
#X connect 48 0 41 0;
#X connect 49 0 14 1;
#X connect 50 0 31 0;
#X connect 51 0 49 0;
#X connect 52 0 50 0;
#X connect 53 0 32 0;
#X restore 404 291 pd oscillator;
#X obj 488 53 inlet;
#X obj 486 219 route 1 2 3 4;
#X obj 646 499 *~;
#X obj 101 101 cnv 15 202 78 empty empty quadrilogue~ 5 8 0 10 #9f9f9f #202020 0;
#N canvas 492 159 450 300 loadbang 0;
#X obj 192 29 loadbang;
#X msg 206 59 0;
#X obj 269 102 s \$0-transpose;
#X obj 153 138 s \$0-preset_r;
#X obj 153 113 del 1;
#X connect 0 0 1 0;
#X connect 1 0 2 0;
#X connect 1 0 4 0;
#X connect 4 0 3 0;
#X restore 104 25 pd loadbang;
#X obj 235 49 switch~;
#X obj 235 26 r \$0-switch;
#X obj 486 151 poly 4;
#X obj 486 186 pack f f f;
#X obj 646 623 outlet~;
#X obj 125 123 vsl 10 50 20 2000 1 0 \$0-attack1 \$0-attack1_r A 1 5 0 10 #404040 #b8b8b8 #ffffff 0 1;
#X obj 138 123 vsl 10 50 20 5000 1 0 \$0-release1 \$0-release1_r R 2 5 0 10 #404040 #b8b8b8 #ffffff 0 1;
#X obj 167 123 vsl 10 50 20 2000 1 0 \$0-attack2 \$0-attack2_r A 1 5 0 10 #404040 #b8b8b8 #ffffff 0 1;
#X obj 180 123 vsl 10 50 20 5000 1 0 \$0-release2 \$0-release2_r R 2 5 0 10 #404040 #b8b8b8 #ffffff 0 1;
#X obj 193 123 vsl 10 50 -1 1 0 0 \$0-detune \$0-detune_r D 2 5 0 10 #404040 #b8b8b8 #ffffff 0 1;
#X obj 206 123 vsl 10 50 -24 24 0 0 \$0-shift \$0-shift_r S 2 5 0 10 #404040 #b8b8b8 #ffffff 0 1;
#X obj 219 123 vsl 10 50 0 1 0 0 \$0-blend \$0-blend_r B 2 5 0 10 #404040 #b8b8b8 #ffffff 0 1;
#X obj 104 123 vsl 12 50 0.01 1 1 0 \$0-master \$0-master_r M 3 5 0 10 #606060 #b8b8b8 #ffffff 0 1;
#X obj 238 123 vsl 10 50 20 2000 1 0 \$0-attackf \$0-attackf_r A 1 5 0 10 #606060 #b8b8b8 #ffffff 0 1;
#X obj 251 123 vsl 10 50 20 5000 1 0 \$0-releasef \$0-releasef_r R 2 5 0 10 #606060 #b8b8b8 #ffffff 0 1;
#X obj 264 123 vsl 10 50 100 15000 1 0 \$0-frequencyf \$0-frequencyf_r F 2 5 0 10 #606060 #b8b8b8 #ffffff 0 1;
#X obj 277 123 vsl 10 50 0.5 50 1 0 \$0-resonancef \$0-resonancef_r Q 2 5 0 10 #606060 #b8b8b8 #ffffff 0 1;
#X obj 290 123 vsl 10 37 0 1 0 0 \$0-spreadf \$0-spreadf_r S 2 5 0 10 #606060 #b8b8b8 #ffffff 0 1;
#X obj 186 105 hradio 10 1 0 10 \$0-preset \$0-preset_r empty 0 -8 0 10 #404040 #ffffff #000000 0;
#N canvas 202 15 1027 700 makePreset 0;
#X obj 44 678 outlet message;
#X msg 44 93 preset.name;
#X obj 44 611 pack s f f f f f f f f f f f f f f f f, f 39;
#X obj 61 135 r \$0-master;
#X obj 79 158 r \$0-attack1;
#X obj 96 190 r \$0-release1;
#X obj 116 216 r \$0-wf1;
#X obj 135 248 r \$0-wf2;
#X obj 155 284 r \$0-attack2;
#X obj 177 307 r \$0-release2;
#X obj 195 328 r \$0-detune;
#X obj 216 353 r \$0-shift;
#X obj 254 407 r \$0-blend;
#X obj 268 437 r \$0-attackf;
#X obj 294 463 r \$0-releasef;
#X obj 312 488 r \$0-frequencyf;
#X obj 332 516 r \$0-resonancef;
#X obj 348 541 r \$0-spreadf;
#X msg 44 644 set \$1 \$2 \$3 \$4 \$5 \$6 \$7 \$8 \$9 \$10 \$11 \$12 \$13 \$14 \$15 \$16 \$17, f 62;
#X obj 44 67 metro 5000;
#X obj 44 40 loadbang;
#X obj 241 377 r \$0-directionf;
#X connect 1 0 2 0;
#X connect 2 0 18 0;
#X connect 3 0 2 1;
#X connect 4 0 2 2;
#X connect 5 0 2 3;
#X connect 6 0 2 4;
#X connect 7 0 2 5;
#X connect 8 0 2 6;
#X connect 9 0 2 7;
#X connect 10 0 2 8;
#X connect 11 0 2 9;
#X connect 12 0 2 11;
#X connect 13 0 2 12;
#X connect 14 0 2 13;
#X connect 15 0 2 14;
#X connect 16 0 2 15;
#X connect 17 0 2 16;
#X connect 18 0 0 0;
#X connect 19 0 1 0;
#X connect 20 0 19 0;
#X connect 21 0 2 10;
#X restore 107 579 pd makePreset;
#N canvas 429 50 696 606 loadPreset 0;
#X obj 53 39 inlet message;
#X obj 53 62 unpack s f f f f f f f f f f f f f f f f;
#X obj 343 121 s \$0-spreadf_r;
#X obj 329 146 s \$0-resonancef_r;
#X obj 310 172 s \$0-frequencyf_r;
#X obj 288 195 s \$0-releasef_r;
#X obj 266 216 s \$0-attackf_r;
#X obj 245 246 s \$0-blend_r;
#X obj 210 289 s \$0-shift_r;
#X obj 195 311 s \$0-detune_r;
#X obj 178 334 s \$0-release2_r;
#X obj 160 356 s \$0-attack2_r;
#X obj 142 378 s \$0-wf2_r;
#X obj 125 399 s \$0-wf1_r;
#X obj 103 423 s \$0-release1_r;
#X obj 86 442 s \$0-attack1_r;
#X obj 66 463 s \$0-master_r;
#X obj 231 266 s \$0-directionf_r;
#X connect 0 0 1 0;
#X connect 1 1 16 0;
#X connect 1 2 15 0;
#X connect 1 3 14 0;
#X connect 1 4 13 0;
#X connect 1 5 12 0;
#X connect 1 6 11 0;
#X connect 1 7 10 0;
#X connect 1 8 9 0;
#X connect 1 9 8 0;
#X connect 1 10 17 0;
#X connect 1 11 7 0;
#X connect 1 12 6 0;
#X connect 1 13 5 0;
#X connect 1 14 4 0;
#X connect 1 15 3 0;
#X connect 1 16 2 0;
#X restore 107 555 pd loadPreset;
#X msg 107 603 preset.name 0.5 200 500 0 0 300 600 0 0 0 0.7 500 200 3000 20 3000;
#N canvas -2210 -426 679 710 presetDispenser 0;
#X obj 230 647 outlet;
#X msg 182 299;
#X msg 272 226;
#X msg 1058 350 ETHER 1 0.508022 500 0 1 1 1 0 1 0 0 1 1 0.741011 0.279741 0.01 0.01 1 15000 4054.78 4054.78 79.3701 22.1831 18.9155 0.684615 0.769231 0.615385 1.03704 0.666667 0 0.275723 0.657692 0.1 0.466835 0.636199 0.695027 1 1 1 1 1 2;
#X msg 212 277;
#X msg 242 251;
#X msg 327 171;
#X msg 296 202;
#X obj 136 57 sel 0 1 2 3 4 5 6 7 8 9;
#X obj 136 28 inlet;
#X msg 66 425 INIT 0.5 200 500 0 0 300 600 0 0 0 0.7 500 200 3000 20 3000;
#X msg 96 397 SWOOSH 1 200 500 1 2 300 96.8625 0.510204 21.0612 1 0.734694 305.284 1813.56 204.583 13.4135 0.277778;
#X msg 125 353 QUOCK 1 67.8644 20 0 1 38.614 96.8625 -0.0204082 -24 0 0.714286 51.191 419.125 513.524 6.32428 0.138889;
#X msg 151 320 ZIUUUM 1 922.373 218.487 1 1 3185.81 2386.82 -0.111111 12 1 1 419.125 2029.88 790.604 4.67664 0.75;
#X connect 1 0 0 0;
#X connect 2 0 0 0;
#X connect 4 0 0 0;
#X connect 5 0 0 0;
#X connect 6 0 0 0;
#X connect 7 0 0 0;
#X connect 8 0 10 0;
#X connect 8 1 11 0;
#X connect 8 2 12 0;
#X connect 8 3 13 0;
#X connect 8 4 1 0;
#X connect 8 5 4 0;
#X connect 8 6 5 0;
#X connect 8 7 2 0;
#X connect 8 8 7 0;
#X connect 8 9 6 0;
#X connect 9 0 8 0;
#X connect 10 0 0 0;
#X connect 11 0 0 0;
#X connect 12 0 0 0;
#X connect 13 0 0 0;
#X restore 107 523 pd presetDispenser;
#X obj 107 491 r \$0-preset;
#X obj 549 48 inlet;
#X obj 549 79 s \$0-transpose;
#X obj 905 354 line~;
#X msg 905 333 \$1 \$2;
#X obj 915 261 r \$0-attackf;
#X obj 975 281 r \$0-releasef;
#X obj 978 25 r \$0-spreadf;
#X obj 892 298 pack;
#X obj 937 298 pack;
#X obj 890 237 f \$1;
#X obj 935 237 f \$1;
#X msg 857 333 \$1 50;
#X obj 642 462 vcf~;
#X msg 661 410 \$1 100;
#X obj 661 432 line;
#X obj 661 386 r \$0-resonancef;
#X obj 564 367 lop~ 18000;
#N canvas 72 50 934 710 oscillator 0;
#X msg 435 43 \$1 50;
#X obj 270 10 inlet;
#X obj 270 63 unpack;
#X obj 435 136 +;
#X obj 435 65 line;
#X obj 435 20 r \$0-detune;
#X obj 288 140 r \$0-transpose;
#X obj 270 162 +;
#X obj 445 89 r \$0-shift;
#X obj 445 113 t b f;
#X obj 435 189 +;
#X obj 435 162 t b f;
#X obj 69 293 / 127;
#X obj 143 402 line~;
#X obj 253 418 *~;
#X msg 143 380 \$1 \$2;
#X obj 144 320 r \$0-attack1;
#X obj 69 315 route 0;
#X obj 122 293 r \$0-release1;
#X msg 69 339 0;
#X obj 69 363 pack f f;
#X obj 143 352 pack f f;
#X obj 622 293 / 127;
#X obj 696 402 line~;
#X msg 696 380 \$1 \$2;
#X obj 622 315 route 0;
#X msg 622 339 0;
#X obj 622 363 pack f f;
#X obj 696 352 pack f f;
#X obj 675 293 r \$0-release2;
#X obj 697 320 r \$0-attack2;
#X obj 434 418 *~;
#X obj 295 649 outlet~;
#X obj 350 364 r \$0-blend;
#X obj 416 445 *~;
#X obj 350 408 line~;
#X msg 350 386 \$1 100;
#X obj 576 126 pack;
#X msg 576 162 set \$2-wave\$1;
#X obj 627 60 loadbang;
#X obj 627 85 f \$0;
#X obj 762 134 pack;
#X msg 762 170 set \$2-wave\$1;
#X obj 813 68 loadbang;
#X obj 813 93 f \$0;
#X obj 557 72 r \$0-wf1;
#X obj 727 74 r \$0-wf2;
#X obj 557 93 i;
#X obj 738 100 i;
#X obj 271 336 tabosc4~;
#X obj 435 386 tabosc4~;
#X obj 270 197 mtof~;
#X obj 435 213 mtof~;
#X obj 299 487 +~;
#X msg 612 198 1048-wave0;
#X connect 0 0 4 0;
#X connect 1 0 2 0;
#X connect 2 0 7 0;
#X connect 2 1 12 0;
#X connect 2 1 22 0;
#X connect 3 0 11 0;
#X connect 4 0 3 0;
#X connect 5 0 0 0;
#X connect 6 0 7 1;
#X connect 7 0 10 0;
#X connect 7 0 51 0;
#X connect 8 0 9 0;
#X connect 9 0 3 0;
#X connect 9 1 3 1;
#X connect 10 0 52 0;
#X connect 11 0 10 0;
#X connect 11 1 10 1;
#X connect 12 0 17 0;
#X connect 13 0 14 0;
#X connect 14 0 53 0;
#X connect 15 0 13 0;
#X connect 16 0 21 1;
#X connect 17 0 19 0;
#X connect 17 1 21 0;
#X connect 18 0 20 1;
#X connect 19 0 20 0;
#X connect 20 0 15 0;
#X connect 21 0 15 0;
#X connect 22 0 25 0;
#X connect 23 0 31 1;
#X connect 24 0 23 0;
#X connect 25 0 26 0;
#X connect 25 1 28 0;
#X connect 26 0 27 0;
#X connect 27 0 24 0;
#X connect 28 0 24 0;
#X connect 29 0 27 1;
#X connect 30 0 28 1;
#X connect 31 0 34 1;
#X connect 33 0 36 0;
#X connect 34 0 53 1;
#X connect 35 0 34 0;
#X connect 36 0 35 0;
#X connect 37 0 38 0;
#X connect 38 0 49 0;
#X connect 38 0 54 0;
#X connect 39 0 40 0;
#X connect 40 0 37 1;
#X connect 41 0 42 0;
#X connect 42 0 50 0;
#X connect 43 0 44 0;
#X connect 44 0 41 1;
#X connect 45 0 47 0;
#X connect 46 0 48 0;
#X connect 47 0 37 0;
#X connect 48 0 41 0;
#X connect 49 0 14 1;
#X connect 50 0 31 0;
#X connect 51 0 49 0;
#X connect 52 0 50 0;
#X connect 53 0 32 0;
#X restore 508 291 pd oscillator;
#N canvas 72 50 934 710 oscillator 0;
#X msg 435 43 \$1 50;
#X obj 270 10 inlet;
#X obj 270 63 unpack;
#X obj 435 136 +;
#X obj 435 65 line;
#X obj 435 20 r \$0-detune;
#X obj 288 140 r \$0-transpose;
#X obj 270 162 +;
#X obj 445 89 r \$0-shift;
#X obj 445 113 t b f;
#X obj 435 189 +;
#X obj 435 162 t b f;
#X obj 69 293 / 127;
#X obj 143 402 line~;
#X obj 253 418 *~;
#X msg 143 380 \$1 \$2;
#X obj 144 320 r \$0-attack1;
#X obj 69 315 route 0;
#X obj 122 293 r \$0-release1;
#X msg 69 339 0;
#X obj 69 363 pack f f;
#X obj 143 352 pack f f;
#X obj 622 293 / 127;
#X obj 696 402 line~;
#X msg 696 380 \$1 \$2;
#X obj 622 315 route 0;
#X msg 622 339 0;
#X obj 622 363 pack f f;
#X obj 696 352 pack f f;
#X obj 675 293 r \$0-release2;
#X obj 697 320 r \$0-attack2;
#X obj 434 418 *~;
#X obj 295 649 outlet~;
#X obj 350 364 r \$0-blend;
#X obj 416 445 *~;
#X obj 350 408 line~;
#X msg 350 386 \$1 100;
#X obj 576 126 pack;
#X msg 576 162 set \$2-wave\$1;
#X obj 627 60 loadbang;
#X obj 627 85 f \$0;
#X obj 762 134 pack;
#X msg 762 170 set \$2-wave\$1;
#X obj 813 68 loadbang;
#X obj 813 93 f \$0;
#X obj 557 72 r \$0-wf1;
#X obj 727 74 r \$0-wf2;
#X obj 557 93 i;
#X obj 738 100 i;
#X obj 271 336 tabosc4~;
#X obj 435 386 tabosc4~;
#X obj 270 197 mtof~;
#X obj 435 213 mtof~;
#X obj 299 487 +~;
#X msg 612 198 1048-wave0;
#X connect 0 0 4 0;
#X connect 1 0 2 0;
#X connect 2 0 7 0;
#X connect 2 1 12 0;
#X connect 2 1 22 0;
#X connect 3 0 11 0;
#X connect 4 0 3 0;
#X connect 5 0 0 0;
#X connect 6 0 7 1;
#X connect 7 0 10 0;
#X connect 7 0 51 0;
#X connect 8 0 9 0;
#X connect 9 0 3 0;
#X connect 9 1 3 1;
#X connect 10 0 52 0;
#X connect 11 0 10 0;
#X connect 11 1 10 1;
#X connect 12 0 17 0;
#X connect 13 0 14 0;
#X connect 14 0 53 0;
#X connect 15 0 13 0;
#X connect 16 0 21 1;
#X connect 17 0 19 0;
#X connect 17 1 21 0;
#X connect 18 0 20 1;
#X connect 19 0 20 0;
#X connect 20 0 15 0;
#X connect 21 0 15 0;
#X connect 22 0 25 0;
#X connect 23 0 31 1;
#X connect 24 0 23 0;
#X connect 25 0 26 0;
#X connect 25 1 28 0;
#X connect 26 0 27 0;
#X connect 27 0 24 0;
#X connect 28 0 24 0;
#X connect 29 0 27 1;
#X connect 30 0 28 1;
#X connect 31 0 34 1;
#X connect 33 0 36 0;
#X connect 34 0 53 1;
#X connect 35 0 34 0;
#X connect 36 0 35 0;
#X connect 37 0 38 0;
#X connect 38 0 49 0;
#X connect 38 0 54 0;
#X connect 39 0 40 0;
#X connect 40 0 37 1;
#X connect 41 0 42 0;
#X connect 42 0 50 0;
#X connect 43 0 44 0;
#X connect 44 0 41 1;
#X connect 45 0 47 0;
#X connect 46 0 48 0;
#X connect 47 0 37 0;
#X connect 48 0 41 0;
#X connect 49 0 14 1;
#X connect 50 0 31 0;
#X connect 51 0 49 0;
#X connect 52 0 50 0;
#X connect 53 0 32 0;
#X restore 611 291 pd oscillator;
#N canvas 72 50 934 710 oscillator 0;
#X msg 435 43 \$1 50;
#X obj 270 10 inlet;
#X obj 270 63 unpack;
#X obj 435 136 +;
#X obj 435 65 line;
#X obj 435 20 r \$0-detune;
#X obj 288 140 r \$0-transpose;
#X obj 270 162 +;
#X obj 445 89 r \$0-shift;
#X obj 445 113 t b f;
#X obj 435 189 +;
#X obj 435 162 t b f;
#X obj 69 293 / 127;
#X obj 143 402 line~;
#X obj 253 418 *~;
#X msg 143 380 \$1 \$2;
#X obj 144 320 r \$0-attack1;
#X obj 69 315 route 0;
#X obj 122 293 r \$0-release1;
#X msg 69 339 0;
#X obj 69 363 pack f f;
#X obj 143 352 pack f f;
#X obj 622 293 / 127;
#X obj 696 402 line~;
#X msg 696 380 \$1 \$2;
#X obj 622 315 route 0;
#X msg 622 339 0;
#X obj 622 363 pack f f;
#X obj 696 352 pack f f;
#X obj 675 293 r \$0-release2;
#X obj 697 320 r \$0-attack2;
#X obj 434 418 *~;
#X obj 295 649 outlet~;
#X obj 350 364 r \$0-blend;
#X obj 416 445 *~;
#X obj 350 408 line~;
#X msg 350 386 \$1 100;
#X obj 576 126 pack;
#X msg 576 162 set \$2-wave\$1;
#X obj 627 60 loadbang;
#X obj 627 85 f \$0;
#X obj 762 134 pack;
#X msg 762 170 set \$2-wave\$1;
#X obj 813 68 loadbang;
#X obj 813 93 f \$0;
#X obj 557 72 r \$0-wf1;
#X obj 727 74 r \$0-wf2;
#X obj 557 93 i;
#X obj 738 100 i;
#X obj 271 336 tabosc4~;
#X obj 435 386 tabosc4~;
#X obj 270 197 mtof~;
#X obj 435 213 mtof~;
#X obj 299 487 +~;
#X msg 612 198 1048-wave0;
#X connect 0 0 4 0;
#X connect 1 0 2 0;
#X connect 2 0 7 0;
#X connect 2 1 12 0;
#X connect 2 1 22 0;
#X connect 3 0 11 0;
#X connect 4 0 3 0;
#X connect 5 0 0 0;
#X connect 6 0 7 1;
#X connect 7 0 10 0;
#X connect 7 0 51 0;
#X connect 8 0 9 0;
#X connect 9 0 3 0;
#X connect 9 1 3 1;
#X connect 10 0 52 0;
#X connect 11 0 10 0;
#X connect 11 1 10 1;
#X connect 12 0 17 0;
#X connect 13 0 14 0;
#X connect 14 0 53 0;
#X connect 15 0 13 0;
#X connect 16 0 21 1;
#X connect 17 0 19 0;
#X connect 17 1 21 0;
#X connect 18 0 20 1;
#X connect 19 0 20 0;
#X connect 20 0 15 0;
#X connect 21 0 15 0;
#X connect 22 0 25 0;
#X connect 23 0 31 1;
#X connect 24 0 23 0;
#X connect 25 0 26 0;
#X connect 25 1 28 0;
#X connect 26 0 27 0;
#X connect 27 0 24 0;
#X connect 28 0 24 0;
#X connect 29 0 27 1;
#X connect 30 0 28 1;
#X connect 31 0 34 1;
#X connect 33 0 36 0;
#X connect 34 0 53 1;
#X connect 35 0 34 0;
#X connect 36 0 35 0;
#X connect 37 0 38 0;
#X connect 38 0 49 0;
#X connect 38 0 54 0;
#X connect 39 0 40 0;
#X connect 40 0 37 1;
#X connect 41 0 42 0;
#X connect 42 0 50 0;
#X connect 43 0 44 0;
#X connect 44 0 41 1;
#X connect 45 0 47 0;
#X connect 46 0 48 0;
#X connect 47 0 37 0;
#X connect 48 0 41 0;
#X connect 49 0 14 1;
#X connect 50 0 31 0;
#X connect 51 0 49 0;
#X connect 52 0 50 0;
#X connect 53 0 32 0;
#X restore 715 291 pd oscillator;
#X obj 640 162 > 0;
#X obj 833 41 r \$0-frequencyf;
#X obj 940 130 t b f;
#X obj 977 70 t b f;
#X obj 940 101 expr $f2*(18000-$f1);
#X obj 934 205 clip 100 18000;
#X floatatom 1008 237 5 0 0 0 - - - 0;
#X obj 935 152 +;
#X obj 742 194 sel 1 0;
#X floatatom 1004 138 10 0 0 0 - - - 0;
#X obj 640 142 spigot;
#X obj 708 142 spigot;
#X floatatom 1060 230 5 0 0 0 - - - 0;
#X obj 695 117 == 1;
#X obj 749 119 == 0;
#X obj 708 165 == 0;
#X obj 691 81 r \$0-directionf;
#N canvas -2125 -223 593 584 waveform 0;
#N canvas 0 50 450 250 (subpatch) 0;
#X array \$0-wave0 515 float 0;
#X coords 0 1 514 -1 100 70 1 0 0;
#X restore 14 18 graph;
#X msg 173 479 normalize 1;
#X obj 239 423 t a a;
#N canvas 0 50 450 250 (subpatch) 0;
#X array \$0-wave1 515 float 0;
#X coords 0 1 514 -1 100 70 1 0 0;
#X restore 120 18 graph;
#X msg 288 477 normalize 1;
#X obj 354 422 t a a;
#N canvas 0 50 450 250 (subpatch) 0;
#X array \$0-wave2 515 float 0;
#X coords 0 1 514 -1 100 70 1 0 0;
#X restore 231 18 graph;
#X msg 393 475 normalize 1;
#X obj 459 420 t a a;
#X obj 365 123 loadbang;
#X msg 172 183 sinesum 515 1 0 -0.111111 0 0.04 0 -0.020408 0 0.012346 0 -0.008264;
#X msg 171 228 sinesum 515 1 -0.5 0.333333 -0.25 0.2 -0.166667 0.142857 -0.125 0.111111 -0.1 0.090909;
#X msg 170 286 sinesum 515 1 0 0.333333 0 0.2 0 0.142857 0 0.111111 0 0.090909;
#X obj 239 526 s \$0-wave0;
#X obj 354 524 s \$0-wave1;
#X obj 459 522 s \$0-wave2;
#X connect 1 0 13 0;
#X connect 2 0 1 0;
#X connect 2 1 13 0;
#X connect 4 0 14 0;
#X connect 5 0 4 0;
#X connect 5 1 14 0;
#X connect 7 0 15 0;
#X connect 8 0 7 0;
#X connect 8 1 15 0;
#X connect 9 0 10 0;
#X connect 9 0 11 0;
#X connect 9 0 12 0;
#X connect 10 0 2 0;
#X connect 11 0 5 0;
#X connect 12 0 8 0;
#X restore 107 325 pd waveform;
#X obj 645 552 lop~ 18000;
#X obj 645 571 lop~ 15000;
#X obj 645 590 lop~ 15000;
#X obj 645 530 hip~ 20;
#X msg 750 459 \$1 100;
#X obj 750 481 line;
#X obj 750 435 r \$0-master;
#X obj 290 105 tgl 10 0 \$0-switch \$0-bar S 3 6 0 9 #fcfcfc #000000 #000000 0 1;
#X obj 290 167 tgl 10 0 r\\\ \$0-directionf r\\\ \$0-directionf_r empty 0 -8 0 10 #fcfcfc #000000 #000000 0 1;
#X obj 151 121 vradio 8 1 0 3 \$0-wf1 \$0-wf1_r empty 0 -8 0 10 #404040 #ffffff #000000 0;
#X obj 156 152 vradio 8 1 0 3 \$0-wf2 \$0-wf2_r empty 0 -8 0 10 #404040 #ffffff #000000 0;
#X obj 358 74 change;
#X msg 358 96 128 0;
#X connect 0 0 46 0;
#X connect 1 0 8 0;
#X connect 2 0 0 0;
#X connect 2 1 47 0;
#X connect 2 2 48 0;
#X connect 2 3 49 0;
#X connect 3 0 71 0;
#X connect 7 0 6 0;
#X connect 7 0 79 0;
#X connect 8 0 9 0;
#X connect 8 1 9 1;
#X connect 8 2 9 2;
#X connect 8 2 60 0;
#X connect 8 2 61 0;
#X connect 9 0 2 0;
#X connect 25 0 27 0;
#X connect 28 0 26 0;
#X connect 29 0 28 0;
#X connect 30 0 31 0;
#X connect 32 0 42 1;
#X connect 33 0 32 0;
#X connect 34 0 37 1;
#X connect 35 0 38 1;
#X connect 36 0 53 0;
#X connect 37 0 33 0;
#X connect 38 0 33 0;
#X connect 39 0 37 0;
#X connect 40 0 38 0;
#X connect 41 0 32 0;
#X connect 42 0 3 0;
#X connect 42 1 3 0;
#X connect 43 0 44 0;
#X connect 44 0 42 2;
#X connect 45 0 43 0;
#X connect 46 0 42 0;
#X connect 47 0 46 0;
#X connect 48 0 46 0;
#X connect 49 0 46 0;
#X connect 50 0 58 0;
#X connect 51 0 41 0;
#X connect 51 0 54 0;
#X connect 51 0 57 0;
#X connect 51 0 39 1;
#X connect 51 0 62 0;
#X connect 52 0 57 0;
#X connect 52 1 57 1;
#X connect 53 0 54 0;
#X connect 53 1 54 1;
#X connect 54 0 52 0;
#X connect 54 0 59 0;
#X connect 55 0 40 1;
#X connect 55 0 56 0;
#X connect 57 0 55 0;
#X connect 58 0 39 0;
#X connect 58 1 40 0;
#X connect 60 0 50 0;
#X connect 61 0 65 0;
#X connect 63 0 60 1;
#X connect 64 0 61 1;
#X connect 65 0 58 0;
#X connect 66 0 63 0;
#X connect 66 0 64 0;
#X connect 68 0 69 0;
#X connect 69 0 70 0;
#X connect 70 0 10 0;
#X connect 71 0 68 0;
#X connect 72 0 73 0;
#X connect 73 0 3 1;
#X connect 74 0 72 0;
#X connect 79 0 80 0;
#X connect 80 0 0 0;
#X connect 80 0 47 0;
#X connect 80 0 48 0;
#X connect 80 0 49 0;
#X coords 0 -1 1 1 204 80 2 100 100;
