#N canvas -1144 -681 1135 1388 10;
#N canvas 105 196 450 315 osc 0;
#X obj 10 12 block~ 64 1 8;
#X obj 166 11 inlet;
#X obj 129 59 route 1 2 3 4 5 6 7 8;
#X obj 153 180 lop~ 18000;
#X obj 153 202 lop~ 18000;
#X obj 153 224 lop~ 18000;
#X obj 153 246 lop~ 18000;
#X obj 153 278 outlet~;
#N canvas 87 50 450 394 osc 0;
#X obj 50 13 inlet;
#X obj 134 342 outlet~;
#N canvas 160 218 434 300 mainosc 0;
#X obj 114 242 outlet~;
#X obj 114 27 inlet~;
#N canvas 0 50 450 300 osc 0;
#X obj 327 37 switch~;
#X obj 327 11 inlet;
#X obj 105 45 inlet~;
#X obj 105 227 outlet~;
#X obj 105 138 osc~;
#X obj 266 167 expr (2*$f1/(1-$f1));
#X obj 105 191 expr~ ((1+$f3)*$v1/(1+$f3*$v2));
#X obj 212 167 abs~;
#X obj 266 141 r \$0-modifier;
#X connect 1 0 0 0;
#X connect 2 0 4 0;
#X connect 4 0 6 0;
#X connect 4 0 7 0;
#X connect 5 0 6 2;
#X connect 6 0 3 0;
#X connect 7 0 6 1;
#X connect 8 0 5 0;
#X restore 31 127 pd osc;
#N canvas 0 50 450 300 tri 0;
#X obj 327 37 switch~;
#X obj 327 11 inlet;
#X obj 105 45 inlet~;
#X obj 105 227 outlet~;
#X obj 107 125 phasor~;
#X obj 107 149 expr~ 2*abs($v1-$f2);
#X obj 244 127 r \$0-modifier;
#X connect 1 0 0 0;
#X connect 2 0 4 0;
#X connect 4 0 5 0;
#X connect 5 0 3 0;
#X connect 6 0 5 1;
#X restore 114 126 pd tri;
#N canvas 0 50 450 300 saw 0;
#X obj 327 37 switch~;
#X obj 327 11 inlet;
#X obj 105 45 inlet~;
#X obj 105 227 outlet~;
#X obj 107 125 phasor~;
#X connect 1 0 0 0;
#X connect 2 0 4 0;
#X connect 4 0 3 0;
#X restore 193 127 pd saw;
#N canvas 0 50 450 300 sqr 0;
#X obj 327 37 switch~;
#X obj 327 11 inlet;
#X obj 105 45 inlet~;
#X obj 105 227 outlet~;
#X obj 106 129 phasor~;
#X obj 208 129 r \$0-modifier;
#X obj 106 159 expr~ $v1 > $f2;
#X connect 1 0 0 0;
#X connect 2 0 4 0;
#X connect 4 0 6 0;
#X connect 5 0 6 1;
#X connect 6 0 3 0;
#X restore 267 128 pd sqr;
#X obj 295 51 r \$0-waveform;
#X obj 70 104 == 0;
#X obj 153 103 == 1;
#X obj 232 102 == 2;
#X obj 306 104 == 3;
#X connect 1 0 2 0;
#X connect 1 0 3 0;
#X connect 1 0 4 0;
#X connect 1 0 5 0;
#X connect 2 0 0 0;
#X connect 3 0 0 0;
#X connect 4 0 0 0;
#X connect 5 0 0 0;
#X connect 6 0 7 0;
#X connect 6 0 8 0;
#X connect 6 0 9 0;
#X connect 6 0 10 0;
#X connect 7 0 2 1;
#X connect 8 0 3 1;
#X connect 9 0 4 1;
#X connect 10 0 5 1;
#X restore 134 277 pd mainosc;
#N canvas 0 50 450 300 modulator2 0;
#N canvas 0 50 450 300 osc 0;
#X obj 327 37 switch~;
#X obj 327 11 inlet;
#X obj 105 45 inlet~;
#X obj 105 227 outlet~;
#X obj 104 123 osc~;
#X obj 268 164 expr (2*$f1/(1-$f1));
#X obj 104 187 expr~ ((1+$f3)*$v1/(1+$f3*$v2));
#X obj 211 165 abs~;
#X obj 268 137 r \$0-modifier2;
#X connect 1 0 0 0;
#X connect 2 0 4 0;
#X connect 4 0 6 0;
#X connect 4 0 7 0;
#X connect 5 0 6 2;
#X connect 6 0 3 0;
#X connect 7 0 6 1;
#X connect 8 0 5 0;
#X restore 121 140 pd osc;
#N canvas 0 50 450 300 tri 0;
#X obj 327 37 switch~;
#X obj 327 11 inlet;
#X obj 105 45 inlet~;
#X obj 105 227 outlet~;
#X obj 107 125 phasor~;
#X obj 107 149 expr~ 2*abs($v1-$f2);
#X obj 244 127 r \$0-modifier2;
#X connect 1 0 0 0;
#X connect 2 0 4 0;
#X connect 4 0 5 0;
#X connect 5 0 3 0;
#X connect 6 0 5 1;
#X restore 204 139 pd tri;
#X obj 286 61 inlet;
#X obj 168 35 inlet~;
#X obj 150 280 outlet~;
#X obj 160 117 == 0;
#X obj 243 117 == 1;
#X obj 161 211 *~;
#X obj 270 183 r \$0-amp2;
#X msg 269 210 \$1 50;
#X obj 268 236 line~;
#X connect 0 0 7 0;
#X connect 1 0 7 0;
#X connect 2 0 5 0;
#X connect 2 0 6 0;
#X connect 3 0 0 0;
#X connect 3 0 1 0;
#X connect 5 0 0 1;
#X connect 6 0 1 1;
#X connect 7 0 4 0;
#X connect 8 0 9 0;
#X connect 9 0 10 0;
#X connect 10 0 7 1;
#X restore 151 228 pd modulator2;
#N canvas 413 230 450 300 modulator1 0;
#N canvas 156 156 450 300 osc 0;
#X obj 327 37 switch~;
#X obj 327 11 inlet;
#X obj 105 45 inlet~;
#X obj 105 227 outlet~;
#X obj 104 123 osc~;
#X obj 268 164 expr (2*$f1/(1-$f1));
#X obj 104 187 expr~ ((1+$f3)*$v1/(1+$f3*$v2));
#X obj 211 165 abs~;
#X obj 268 137 r \$0-modifier1;
#X connect 1 0 0 0;
#X connect 2 0 4 0;
#X connect 4 0 6 0;
#X connect 4 0 7 0;
#X connect 5 0 6 2;
#X connect 6 0 3 0;
#X connect 7 0 6 1;
#X connect 8 0 5 0;
#X restore 121 140 pd osc;
#N canvas 0 50 450 300 tri 0;
#X obj 327 37 switch~;
#X obj 327 11 inlet;
#X obj 105 45 inlet~;
#X obj 105 227 outlet~;
#X obj 107 125 phasor~;
#X obj 107 149 expr~ 2*abs($v1-$f2);
#X obj 244 127 r \$0-modifier1;
#X connect 1 0 0 0;
#X connect 2 0 4 0;
#X connect 4 0 5 0;
#X connect 5 0 3 0;
#X connect 6 0 5 1;
#X restore 204 139 pd tri;
#X obj 308 60 inlet;
#X obj 164 23 inlet~;
#X obj 155 261 outlet~;
#X obj 212 200 r \$0-amp1;
#X obj 160 117 == 0;
#X obj 243 117 == 1;
#X obj 154 222 *~;
#X connect 0 0 8 0;
#X connect 1 0 8 0;
#X connect 2 0 6 0;
#X connect 2 0 7 0;
#X connect 3 0 0 0;
#X connect 3 0 1 0;
#X connect 5 0 8 1;
#X connect 6 0 0 1;
#X connect 7 0 1 1;
#X connect 8 0 4 0;
#X restore 150 149 pd modulator1;
#X obj 133 251 +~;
#X obj 151 197 +~;
#X obj 303 86 r \$0-freq2;
#X obj 188 21 r \$0-freq1;
#X obj 266 175 line~;
#X msg 266 148 \$1 50;
#X obj 151 113 line~;
#X msg 151 92 \$1 50;
#X obj 238 65 r \$0-waveform1;
#X obj 239 205 r \$0-waveform2;
#X obj 134 312 *~;
#X msg 267 300 \$1 50;
#X obj 267 321 line~;
#X obj 267 276 / 127;
#X obj 51 34 unpack;
#N canvas 226 169 316 398 harmonik 0;
#X obj 142 14 inlet;
#X obj 135 73 i;
#X obj 141 144 >= 0;
#X obj 102 169 spigot;
#X obj 179 171 spigot;
#X obj 218 146 < 0;
#X obj 142 102 t f f;
#X obj 102 220 t b f;
#X obj 37 21 inlet;
#X obj 135 43 spigot;
#X obj 227 14 inlet;
#X obj 169 74 spigot;
#X obj 208 50 == 0;
#X obj 103 336 outlet;
#X obj 103 251 *;
#X obj 179 194 expr -1/$f1;
#X connect 0 0 9 0;
#X connect 0 0 11 0;
#X connect 1 0 6 0;
#X connect 2 0 3 1;
#X connect 3 0 7 0;
#X connect 4 0 15 0;
#X connect 5 0 4 1;
#X connect 6 0 3 0;
#X connect 6 0 4 0;
#X connect 6 1 5 0;
#X connect 6 1 2 0;
#X connect 7 0 14 0;
#X connect 7 1 14 1;
#X connect 8 0 14 0;
#X connect 9 0 1 0;
#X connect 10 0 12 0;
#X connect 10 0 9 1;
#X connect 11 0 6 0;
#X connect 12 0 11 1;
#X connect 14 0 13 0;
#X connect 15 0 7 0;
#X restore 151 67 pd harmonik;
#X obj 225 42 r \$0-harm1;
#N canvas 165 152 316 407 harmonik 0;
#X obj 142 14 inlet;
#X obj 135 73 i;
#X obj 141 144 >= 0;
#X obj 102 169 spigot;
#X obj 179 171 spigot;
#X obj 218 146 < 0;
#X obj 142 102 t f f;
#X obj 102 220 t b f;
#X obj 37 21 inlet;
#X obj 135 43 spigot;
#X obj 227 14 inlet;
#X obj 169 74 spigot;
#X obj 208 50 == 0;
#X obj 103 336 outlet;
#X obj 103 251 *;
#X obj 179 194 expr -1/$f1;
#X connect 0 0 9 0;
#X connect 0 0 11 0;
#X connect 1 0 6 0;
#X connect 2 0 3 1;
#X connect 3 0 7 0;
#X connect 4 0 15 0;
#X connect 5 0 4 1;
#X connect 6 0 3 0;
#X connect 6 0 4 0;
#X connect 6 1 5 0;
#X connect 6 1 2 0;
#X connect 7 0 14 0;
#X connect 7 1 14 1;
#X connect 8 0 14 0;
#X connect 9 0 1 0;
#X connect 10 0 12 0;
#X connect 10 0 9 1;
#X connect 11 0 6 0;
#X connect 12 0 11 1;
#X connect 14 0 13 0;
#X connect 15 0 7 0;
#X restore 266 126 pd harmonik;
#X obj 340 106 r \$0-harm2;
#X obj 134 36 mtof;
#X obj 53 163 sig~;
#X connect 0 0 19 0;
#X connect 2 0 15 0;
#X connect 3 0 5 1;
#X connect 4 0 6 0;
#X connect 5 0 2 0;
#X connect 6 0 3 0;
#X connect 7 0 22 1;
#X connect 8 0 20 1;
#X connect 9 0 6 1;
#X connect 10 0 9 0;
#X connect 11 0 4 0;
#X connect 12 0 11 0;
#X connect 13 0 4 1;
#X connect 14 0 3 1;
#X connect 15 0 1 0;
#X connect 16 0 17 0;
#X connect 17 0 15 1;
#X connect 18 0 16 0;
#X connect 19 0 24 0;
#X connect 19 1 18 0;
#X connect 20 0 12 0;
#X connect 21 0 20 2;
#X connect 22 0 10 0;
#X connect 23 0 22 2;
#X connect 24 0 20 0;
#X connect 24 0 22 0;
#X connect 24 0 25 0;
#X connect 25 0 5 0;
#X restore 12 119 pd osc;
#N canvas 87 50 450 394 osc 0;
#X obj 50 13 inlet;
#X obj 134 342 outlet~;
#N canvas 160 218 434 300 mainosc 0;
#X obj 114 242 outlet~;
#X obj 114 27 inlet~;
#N canvas 0 50 450 300 osc 0;
#X obj 327 37 switch~;
#X obj 327 11 inlet;
#X obj 105 45 inlet~;
#X obj 105 227 outlet~;
#X obj 105 138 osc~;
#X obj 266 167 expr (2*$f1/(1-$f1));
#X obj 105 191 expr~ ((1+$f3)*$v1/(1+$f3*$v2));
#X obj 212 167 abs~;
#X obj 266 141 r \$0-modifier;
#X connect 1 0 0 0;
#X connect 2 0 4 0;
#X connect 4 0 6 0;
#X connect 4 0 7 0;
#X connect 5 0 6 2;
#X connect 6 0 3 0;
#X connect 7 0 6 1;
#X connect 8 0 5 0;
#X restore 31 127 pd osc;
#N canvas 0 50 450 300 tri 0;
#X obj 327 37 switch~;
#X obj 327 11 inlet;
#X obj 105 45 inlet~;
#X obj 105 227 outlet~;
#X obj 107 125 phasor~;
#X obj 107 149 expr~ 2*abs($v1-$f2);
#X obj 244 127 r \$0-modifier;
#X connect 1 0 0 0;
#X connect 2 0 4 0;
#X connect 4 0 5 0;
#X connect 5 0 3 0;
#X connect 6 0 5 1;
#X restore 114 126 pd tri;
#N canvas 0 50 450 300 saw 0;
#X obj 327 37 switch~;
#X obj 327 11 inlet;
#X obj 105 45 inlet~;
#X obj 105 227 outlet~;
#X obj 107 125 phasor~;
#X connect 1 0 0 0;
#X connect 2 0 4 0;
#X connect 4 0 3 0;
#X restore 193 127 pd saw;
#N canvas 0 50 450 300 sqr 0;
#X obj 327 37 switch~;
#X obj 327 11 inlet;
#X obj 105 45 inlet~;
#X obj 105 227 outlet~;
#X obj 106 129 phasor~;
#X obj 208 129 r \$0-modifier;
#X obj 106 159 expr~ $v1 > $f2;
#X connect 1 0 0 0;
#X connect 2 0 4 0;
#X connect 4 0 6 0;
#X connect 5 0 6 1;
#X connect 6 0 3 0;
#X restore 267 128 pd sqr;
#X obj 295 51 r \$0-waveform;
#X obj 70 104 == 0;
#X obj 153 103 == 1;
#X obj 232 102 == 2;
#X obj 306 104 == 3;
#X connect 1 0 2 0;
#X connect 1 0 3 0;
#X connect 1 0 4 0;
#X connect 1 0 5 0;
#X connect 2 0 0 0;
#X connect 3 0 0 0;
#X connect 4 0 0 0;
#X connect 5 0 0 0;
#X connect 6 0 7 0;
#X connect 6 0 8 0;
#X connect 6 0 9 0;
#X connect 6 0 10 0;
#X connect 7 0 2 1;
#X connect 8 0 3 1;
#X connect 9 0 4 1;
#X connect 10 0 5 1;
#X restore 134 277 pd mainosc;
#N canvas 0 50 450 300 modulator2 0;
#N canvas 0 50 450 300 osc 0;
#X obj 327 37 switch~;
#X obj 327 11 inlet;
#X obj 105 45 inlet~;
#X obj 105 227 outlet~;
#X obj 104 123 osc~;
#X obj 268 164 expr (2*$f1/(1-$f1));
#X obj 104 187 expr~ ((1+$f3)*$v1/(1+$f3*$v2));
#X obj 211 165 abs~;
#X obj 268 137 r \$0-modifier2;
#X connect 1 0 0 0;
#X connect 2 0 4 0;
#X connect 4 0 6 0;
#X connect 4 0 7 0;
#X connect 5 0 6 2;
#X connect 6 0 3 0;
#X connect 7 0 6 1;
#X connect 8 0 5 0;
#X restore 121 140 pd osc;
#N canvas 0 50 450 300 tri 0;
#X obj 327 37 switch~;
#X obj 327 11 inlet;
#X obj 105 45 inlet~;
#X obj 105 227 outlet~;
#X obj 107 125 phasor~;
#X obj 107 149 expr~ 2*abs($v1-$f2);
#X obj 244 127 r \$0-modifier2;
#X connect 1 0 0 0;
#X connect 2 0 4 0;
#X connect 4 0 5 0;
#X connect 5 0 3 0;
#X connect 6 0 5 1;
#X restore 204 139 pd tri;
#X obj 286 61 inlet;
#X obj 168 35 inlet~;
#X obj 150 280 outlet~;
#X obj 160 117 == 0;
#X obj 243 117 == 1;
#X obj 161 211 *~;
#X obj 270 183 r \$0-amp2;
#X msg 269 210 \$1 50;
#X obj 268 236 line~;
#X connect 0 0 7 0;
#X connect 1 0 7 0;
#X connect 2 0 5 0;
#X connect 2 0 6 0;
#X connect 3 0 0 0;
#X connect 3 0 1 0;
#X connect 5 0 0 1;
#X connect 6 0 1 1;
#X connect 7 0 4 0;
#X connect 8 0 9 0;
#X connect 9 0 10 0;
#X connect 10 0 7 1;
#X restore 151 228 pd modulator2;
#N canvas 445 239 450 300 modulator1 0;
#N canvas 0 50 450 300 osc 0;
#X obj 327 37 switch~;
#X obj 327 11 inlet;
#X obj 105 45 inlet~;
#X obj 105 227 outlet~;
#X obj 104 123 osc~;
#X obj 268 164 expr (2*$f1/(1-$f1));
#X obj 104 187 expr~ ((1+$f3)*$v1/(1+$f3*$v2));
#X obj 211 165 abs~;
#X obj 268 137 r \$0-modifier1;
#X connect 1 0 0 0;
#X connect 2 0 4 0;
#X connect 4 0 6 0;
#X connect 4 0 7 0;
#X connect 5 0 6 2;
#X connect 6 0 3 0;
#X connect 7 0 6 1;
#X connect 8 0 5 0;
#X restore 121 140 pd osc;
#N canvas 0 50 450 300 tri 0;
#X obj 327 37 switch~;
#X obj 327 11 inlet;
#X obj 105 45 inlet~;
#X obj 105 227 outlet~;
#X obj 107 125 phasor~;
#X obj 107 149 expr~ 2*abs($v1-$f2);
#X obj 244 127 r \$0-modifier1;
#X connect 1 0 0 0;
#X connect 2 0 4 0;
#X connect 4 0 5 0;
#X connect 5 0 3 0;
#X connect 6 0 5 1;
#X restore 204 139 pd tri;
#X obj 308 60 inlet;
#X obj 164 23 inlet~;
#X obj 155 261 outlet~;
#X obj 212 200 r \$0-amp1;
#X obj 160 117 == 0;
#X obj 243 117 == 1;
#X obj 154 222 *~;
#X connect 0 0 8 0;
#X connect 1 0 8 0;
#X connect 2 0 6 0;
#X connect 2 0 7 0;
#X connect 3 0 0 0;
#X connect 3 0 1 0;
#X connect 5 0 8 1;
#X connect 6 0 0 1;
#X connect 7 0 1 1;
#X connect 8 0 4 0;
#X restore 150 149 pd modulator1;
#X obj 133 251 +~;
#X obj 151 197 +~;
#X obj 303 86 r \$0-freq2;
#X obj 188 21 r \$0-freq1;
#X obj 266 175 line~;
#X msg 266 148 \$1 50;
#X obj 151 113 line~;
#X msg 151 92 \$1 50;
#X obj 238 65 r \$0-waveform1;
#X obj 239 205 r \$0-waveform2;
#X obj 134 312 *~;
#X msg 267 300 \$1 50;
#X obj 267 321 line~;
#X obj 267 276 / 127;
#X obj 51 34 unpack;
#N canvas 226 169 316 398 harmonik 0;
#X obj 142 14 inlet;
#X obj 135 73 i;
#X obj 141 144 >= 0;
#X obj 102 169 spigot;
#X obj 179 171 spigot;
#X obj 218 146 < 0;
#X obj 142 102 t f f;
#X obj 102 220 t b f;
#X obj 37 21 inlet;
#X obj 135 43 spigot;
#X obj 227 14 inlet;
#X obj 169 74 spigot;
#X obj 208 50 == 0;
#X obj 103 336 outlet;
#X obj 103 251 *;
#X obj 179 194 expr -1/$f1;
#X connect 0 0 9 0;
#X connect 0 0 11 0;
#X connect 1 0 6 0;
#X connect 2 0 3 1;
#X connect 3 0 7 0;
#X connect 4 0 15 0;
#X connect 5 0 4 1;
#X connect 6 0 3 0;
#X connect 6 0 4 0;
#X connect 6 1 5 0;
#X connect 6 1 2 0;
#X connect 7 0 14 0;
#X connect 7 1 14 1;
#X connect 8 0 14 0;
#X connect 9 0 1 0;
#X connect 10 0 12 0;
#X connect 10 0 9 1;
#X connect 11 0 6 0;
#X connect 12 0 11 1;
#X connect 14 0 13 0;
#X connect 15 0 7 0;
#X restore 151 67 pd harmonik;
#X obj 225 42 r \$0-harm1;
#N canvas 165 152 316 407 harmonik 0;
#X obj 142 14 inlet;
#X obj 135 73 i;
#X obj 141 144 >= 0;
#X obj 102 169 spigot;
#X obj 179 171 spigot;
#X obj 218 146 < 0;
#X obj 142 102 t f f;
#X obj 102 220 t b f;
#X obj 37 21 inlet;
#X obj 135 43 spigot;
#X obj 227 14 inlet;
#X obj 169 74 spigot;
#X obj 208 50 == 0;
#X obj 103 336 outlet;
#X obj 103 251 *;
#X obj 179 194 expr -1/$f1;
#X connect 0 0 9 0;
#X connect 0 0 11 0;
#X connect 1 0 6 0;
#X connect 2 0 3 1;
#X connect 3 0 7 0;
#X connect 4 0 15 0;
#X connect 5 0 4 1;
#X connect 6 0 3 0;
#X connect 6 0 4 0;
#X connect 6 1 5 0;
#X connect 6 1 2 0;
#X connect 7 0 14 0;
#X connect 7 1 14 1;
#X connect 8 0 14 0;
#X connect 9 0 1 0;
#X connect 10 0 12 0;
#X connect 10 0 9 1;
#X connect 11 0 6 0;
#X connect 12 0 11 1;
#X connect 14 0 13 0;
#X connect 15 0 7 0;
#X restore 266 126 pd harmonik;
#X obj 340 106 r \$0-harm2;
#X obj 134 36 mtof;
#X obj 53 163 sig~;
#X connect 0 0 19 0;
#X connect 2 0 15 0;
#X connect 3 0 5 1;
#X connect 4 0 6 0;
#X connect 5 0 2 0;
#X connect 6 0 3 0;
#X connect 7 0 22 1;
#X connect 8 0 20 1;
#X connect 9 0 6 1;
#X connect 10 0 9 0;
#X connect 11 0 4 0;
#X connect 12 0 11 0;
#X connect 13 0 4 1;
#X connect 14 0 3 1;
#X connect 15 0 1 0;
#X connect 16 0 17 0;
#X connect 17 0 15 1;
#X connect 18 0 16 0;
#X connect 19 0 24 0;
#X connect 19 1 18 0;
#X connect 20 0 12 0;
#X connect 21 0 20 2;
#X connect 22 0 10 0;
#X connect 23 0 22 2;
#X connect 24 0 20 0;
#X connect 24 0 25 0;
#X connect 24 0 22 0;
#X connect 25 0 5 0;
#X restore 62 119 pd osc;
#N canvas 87 50 450 394 osc 0;
#X obj 50 13 inlet;
#X obj 134 342 outlet~;
#N canvas 160 218 434 300 mainosc 0;
#X obj 114 242 outlet~;
#X obj 114 27 inlet~;
#N canvas 156 156 450 300 osc 0;
#X obj 327 37 switch~;
#X obj 327 11 inlet;
#X obj 105 45 inlet~;
#X obj 105 227 outlet~;
#X obj 105 138 osc~;
#X obj 266 167 expr (2*$f1/(1-$f1));
#X obj 105 191 expr~ ((1+$f3)*$v1/(1+$f3*$v2));
#X obj 212 167 abs~;
#X obj 266 141 r \$0-modifier;
#X connect 1 0 0 0;
#X connect 2 0 4 0;
#X connect 4 0 6 0;
#X connect 4 0 7 0;
#X connect 5 0 6 2;
#X connect 6 0 3 0;
#X connect 7 0 6 1;
#X connect 8 0 5 0;
#X restore 31 127 pd osc;
#N canvas 26 26 450 300 tri 0;
#X obj 327 37 switch~;
#X obj 327 11 inlet;
#X obj 105 45 inlet~;
#X obj 105 227 outlet~;
#X obj 107 125 phasor~;
#X obj 107 149 expr~ 2*abs($v1-$f2);
#X obj 244 127 r \$0-modifier;
#X connect 1 0 0 0;
#X connect 2 0 4 0;
#X connect 4 0 5 0;
#X connect 5 0 3 0;
#X connect 6 0 5 1;
#X restore 114 126 pd tri;
#N canvas 26 26 450 300 saw 0;
#X obj 327 37 switch~;
#X obj 327 11 inlet;
#X obj 105 45 inlet~;
#X obj 105 227 outlet~;
#X obj 107 125 phasor~;
#X connect 1 0 0 0;
#X connect 2 0 4 0;
#X connect 4 0 3 0;
#X restore 193 127 pd saw;
#N canvas 182 182 450 300 sqr 0;
#X obj 327 37 switch~;
#X obj 327 11 inlet;
#X obj 105 45 inlet~;
#X obj 105 227 outlet~;
#X obj 106 129 phasor~;
#X obj 208 129 r \$0-modifier;
#X obj 106 159 expr~ $v1 > $f2;
#X connect 1 0 0 0;
#X connect 2 0 4 0;
#X connect 4 0 6 0;
#X connect 5 0 6 1;
#X connect 6 0 3 0;
#X restore 267 128 pd sqr;
#X obj 295 51 r \$0-waveform;
#X obj 70 104 == 0;
#X obj 153 103 == 1;
#X obj 232 102 == 2;
#X obj 306 104 == 3;
#X connect 1 0 2 0;
#X connect 1 0 3 0;
#X connect 1 0 4 0;
#X connect 1 0 5 0;
#X connect 2 0 0 0;
#X connect 3 0 0 0;
#X connect 4 0 0 0;
#X connect 5 0 0 0;
#X connect 6 0 7 0;
#X connect 6 0 8 0;
#X connect 6 0 9 0;
#X connect 6 0 10 0;
#X connect 7 0 2 1;
#X connect 8 0 3 1;
#X connect 9 0 4 1;
#X connect 10 0 5 1;
#X restore 134 277 pd mainosc;
#N canvas 52 52 450 300 modulator2 0;
#N canvas 0 50 450 300 osc 0;
#X obj 327 37 switch~;
#X obj 327 11 inlet;
#X obj 105 45 inlet~;
#X obj 105 227 outlet~;
#X obj 104 123 osc~;
#X obj 268 164 expr (2*$f1/(1-$f1));
#X obj 104 187 expr~ ((1+$f3)*$v1/(1+$f3*$v2));
#X obj 211 165 abs~;
#X obj 268 137 r \$0-modifier2;
#X connect 1 0 0 0;
#X connect 2 0 4 0;
#X connect 4 0 6 0;
#X connect 4 0 7 0;
#X connect 5 0 6 2;
#X connect 6 0 3 0;
#X connect 7 0 6 1;
#X connect 8 0 5 0;
#X restore 121 140 pd osc;
#N canvas 0 50 450 300 tri 0;
#X obj 327 37 switch~;
#X obj 327 11 inlet;
#X obj 105 45 inlet~;
#X obj 105 227 outlet~;
#X obj 107 125 phasor~;
#X obj 107 149 expr~ 2*abs($v1-$f2);
#X obj 244 127 r \$0-modifier2;
#X connect 1 0 0 0;
#X connect 2 0 4 0;
#X connect 4 0 5 0;
#X connect 5 0 3 0;
#X connect 6 0 5 1;
#X restore 204 139 pd tri;
#X obj 286 61 inlet;
#X obj 168 35 inlet~;
#X obj 150 280 outlet~;
#X obj 160 117 == 0;
#X obj 243 117 == 1;
#X obj 161 211 *~;
#X obj 270 183 r \$0-amp2;
#X msg 269 210 \$1 50;
#X obj 268 236 line~;
#X connect 0 0 7 0;
#X connect 1 0 7 0;
#X connect 2 0 5 0;
#X connect 2 0 6 0;
#X connect 3 0 0 0;
#X connect 3 0 1 0;
#X connect 5 0 0 1;
#X connect 6 0 1 1;
#X connect 7 0 4 0;
#X connect 8 0 9 0;
#X connect 9 0 10 0;
#X connect 10 0 7 1;
#X restore 151 228 pd modulator2;
#N canvas 445 239 450 300 modulator1 0;
#N canvas 0 50 450 300 osc 0;
#X obj 327 37 switch~;
#X obj 327 11 inlet;
#X obj 105 45 inlet~;
#X obj 105 227 outlet~;
#X obj 104 123 osc~;
#X obj 268 164 expr (2*$f1/(1-$f1));
#X obj 104 187 expr~ ((1+$f3)*$v1/(1+$f3*$v2));
#X obj 211 165 abs~;
#X obj 268 137 r \$0-modifier1;
#X connect 1 0 0 0;
#X connect 2 0 4 0;
#X connect 4 0 6 0;
#X connect 4 0 7 0;
#X connect 5 0 6 2;
#X connect 6 0 3 0;
#X connect 7 0 6 1;
#X connect 8 0 5 0;
#X restore 121 140 pd osc;
#N canvas 0 50 450 300 tri 0;
#X obj 327 37 switch~;
#X obj 327 11 inlet;
#X obj 105 45 inlet~;
#X obj 105 227 outlet~;
#X obj 107 125 phasor~;
#X obj 107 149 expr~ 2*abs($v1-$f2);
#X obj 244 127 r \$0-modifier1;
#X connect 1 0 0 0;
#X connect 2 0 4 0;
#X connect 4 0 5 0;
#X connect 5 0 3 0;
#X connect 6 0 5 1;
#X restore 204 139 pd tri;
#X obj 308 60 inlet;
#X obj 164 23 inlet~;
#X obj 155 261 outlet~;
#X obj 212 200 r \$0-amp1;
#X obj 160 117 == 0;
#X obj 243 117 == 1;
#X obj 154 222 *~;
#X connect 0 0 8 0;
#X connect 1 0 8 0;
#X connect 2 0 6 0;
#X connect 2 0 7 0;
#X connect 3 0 0 0;
#X connect 3 0 1 0;
#X connect 5 0 8 1;
#X connect 6 0 0 1;
#X connect 7 0 1 1;
#X connect 8 0 4 0;
#X restore 150 149 pd modulator1;
#X obj 133 251 +~;
#X obj 151 197 +~;
#X obj 303 86 r \$0-freq2;
#X obj 188 21 r \$0-freq1;
#X obj 266 175 line~;
#X msg 266 148 \$1 50;
#X obj 151 113 line~;
#X msg 151 92 \$1 50;
#X obj 238 65 r \$0-waveform1;
#X obj 239 205 r \$0-waveform2;
#X obj 134 312 *~;
#X msg 267 300 \$1 50;
#X obj 267 321 line~;
#X obj 267 276 / 127;
#X obj 51 34 unpack;
#N canvas 226 169 316 398 harmonik 0;
#X obj 142 14 inlet;
#X obj 135 73 i;
#X obj 141 144 >= 0;
#X obj 102 169 spigot;
#X obj 179 171 spigot;
#X obj 218 146 < 0;
#X obj 142 102 t f f;
#X obj 102 220 t b f;
#X obj 37 21 inlet;
#X obj 135 43 spigot;
#X obj 227 14 inlet;
#X obj 169 74 spigot;
#X obj 208 50 == 0;
#X obj 103 336 outlet;
#X obj 103 251 *;
#X obj 179 194 expr -1/$f1;
#X connect 0 0 9 0;
#X connect 0 0 11 0;
#X connect 1 0 6 0;
#X connect 2 0 3 1;
#X connect 3 0 7 0;
#X connect 4 0 15 0;
#X connect 5 0 4 1;
#X connect 6 0 3 0;
#X connect 6 0 4 0;
#X connect 6 1 5 0;
#X connect 6 1 2 0;
#X connect 7 0 14 0;
#X connect 7 1 14 1;
#X connect 8 0 14 0;
#X connect 9 0 1 0;
#X connect 10 0 12 0;
#X connect 10 0 9 1;
#X connect 11 0 6 0;
#X connect 12 0 11 1;
#X connect 14 0 13 0;
#X connect 15 0 7 0;
#X restore 151 67 pd harmonik;
#X obj 225 42 r \$0-harm1;
#N canvas 165 152 316 407 harmonik 0;
#X obj 142 14 inlet;
#X obj 135 73 i;
#X obj 141 144 >= 0;
#X obj 102 169 spigot;
#X obj 179 171 spigot;
#X obj 218 146 < 0;
#X obj 142 102 t f f;
#X obj 102 220 t b f;
#X obj 37 21 inlet;
#X obj 135 43 spigot;
#X obj 227 14 inlet;
#X obj 169 74 spigot;
#X obj 208 50 == 0;
#X obj 103 336 outlet;
#X obj 103 251 *;
#X obj 179 194 expr -1/$f1;
#X connect 0 0 9 0;
#X connect 0 0 11 0;
#X connect 1 0 6 0;
#X connect 2 0 3 1;
#X connect 3 0 7 0;
#X connect 4 0 15 0;
#X connect 5 0 4 1;
#X connect 6 0 3 0;
#X connect 6 0 4 0;
#X connect 6 1 5 0;
#X connect 6 1 2 0;
#X connect 7 0 14 0;
#X connect 7 1 14 1;
#X connect 8 0 14 0;
#X connect 9 0 1 0;
#X connect 10 0 12 0;
#X connect 10 0 9 1;
#X connect 11 0 6 0;
#X connect 12 0 11 1;
#X connect 14 0 13 0;
#X connect 15 0 7 0;
#X restore 266 126 pd harmonik;
#X obj 340 106 r \$0-harm2;
#X obj 134 36 mtof;
#X obj 53 163 sig~;
#X connect 0 0 19 0;
#X connect 2 0 15 0;
#X connect 3 0 5 1;
#X connect 4 0 6 0;
#X connect 5 0 2 0;
#X connect 6 0 3 0;
#X connect 7 0 22 1;
#X connect 8 0 20 1;
#X connect 9 0 6 1;
#X connect 10 0 9 0;
#X connect 11 0 4 0;
#X connect 12 0 11 0;
#X connect 13 0 4 1;
#X connect 14 0 3 1;
#X connect 15 0 1 0;
#X connect 16 0 17 0;
#X connect 17 0 15 1;
#X connect 18 0 16 0;
#X connect 19 0 24 0;
#X connect 19 1 18 0;
#X connect 20 0 12 0;
#X connect 21 0 20 2;
#X connect 22 0 10 0;
#X connect 23 0 22 2;
#X connect 24 0 20 0;
#X connect 24 0 25 0;
#X connect 24 0 22 0;
#X connect 25 0 5 0;
#X restore 112 119 pd osc;
#N canvas 87 50 450 394 osc 0;
#X obj 50 13 inlet;
#X obj 134 342 outlet~;
#N canvas 160 218 434 300 mainosc 0;
#X obj 114 242 outlet~;
#X obj 114 27 inlet~;
#N canvas 0 50 450 300 osc 0;
#X obj 327 37 switch~;
#X obj 327 11 inlet;
#X obj 105 45 inlet~;
#X obj 105 227 outlet~;
#X obj 105 138 osc~;
#X obj 266 167 expr (2*$f1/(1-$f1));
#X obj 105 191 expr~ ((1+$f3)*$v1/(1+$f3*$v2));
#X obj 212 167 abs~;
#X obj 266 141 r \$0-modifier;
#X connect 1 0 0 0;
#X connect 2 0 4 0;
#X connect 4 0 6 0;
#X connect 4 0 7 0;
#X connect 5 0 6 2;
#X connect 6 0 3 0;
#X connect 7 0 6 1;
#X connect 8 0 5 0;
#X restore 31 127 pd osc;
#N canvas 0 50 450 300 tri 0;
#X obj 327 37 switch~;
#X obj 327 11 inlet;
#X obj 105 45 inlet~;
#X obj 105 227 outlet~;
#X obj 107 125 phasor~;
#X obj 107 149 expr~ 2*abs($v1-$f2);
#X obj 244 127 r \$0-modifier;
#X connect 1 0 0 0;
#X connect 2 0 4 0;
#X connect 4 0 5 0;
#X connect 5 0 3 0;
#X connect 6 0 5 1;
#X restore 114 126 pd tri;
#N canvas 0 50 450 300 saw 0;
#X obj 327 37 switch~;
#X obj 327 11 inlet;
#X obj 105 45 inlet~;
#X obj 105 227 outlet~;
#X obj 107 125 phasor~;
#X connect 1 0 0 0;
#X connect 2 0 4 0;
#X connect 4 0 3 0;
#X restore 193 127 pd saw;
#N canvas 0 50 450 300 sqr 0;
#X obj 327 37 switch~;
#X obj 327 11 inlet;
#X obj 105 45 inlet~;
#X obj 105 227 outlet~;
#X obj 106 129 phasor~;
#X obj 208 129 r \$0-modifier;
#X obj 106 159 expr~ $v1 > $f2;
#X connect 1 0 0 0;
#X connect 2 0 4 0;
#X connect 4 0 6 0;
#X connect 5 0 6 1;
#X connect 6 0 3 0;
#X restore 267 128 pd sqr;
#X obj 295 51 r \$0-waveform;
#X obj 70 104 == 0;
#X obj 153 103 == 1;
#X obj 232 102 == 2;
#X obj 306 104 == 3;
#X connect 1 0 2 0;
#X connect 1 0 3 0;
#X connect 1 0 4 0;
#X connect 1 0 5 0;
#X connect 2 0 0 0;
#X connect 3 0 0 0;
#X connect 4 0 0 0;
#X connect 5 0 0 0;
#X connect 6 0 7 0;
#X connect 6 0 8 0;
#X connect 6 0 9 0;
#X connect 6 0 10 0;
#X connect 7 0 2 1;
#X connect 8 0 3 1;
#X connect 9 0 4 1;
#X connect 10 0 5 1;
#X restore 134 277 pd mainosc;
#N canvas 0 50 450 300 modulator2 0;
#N canvas 0 50 450 300 osc 0;
#X obj 327 37 switch~;
#X obj 327 11 inlet;
#X obj 105 45 inlet~;
#X obj 105 227 outlet~;
#X obj 104 123 osc~;
#X obj 268 164 expr (2*$f1/(1-$f1));
#X obj 104 187 expr~ ((1+$f3)*$v1/(1+$f3*$v2));
#X obj 211 165 abs~;
#X obj 268 137 r \$0-modifier2;
#X connect 1 0 0 0;
#X connect 2 0 4 0;
#X connect 4 0 6 0;
#X connect 4 0 7 0;
#X connect 5 0 6 2;
#X connect 6 0 3 0;
#X connect 7 0 6 1;
#X connect 8 0 5 0;
#X restore 121 140 pd osc;
#N canvas 0 50 450 300 tri 0;
#X obj 327 37 switch~;
#X obj 327 11 inlet;
#X obj 105 45 inlet~;
#X obj 105 227 outlet~;
#X obj 107 125 phasor~;
#X obj 107 149 expr~ 2*abs($v1-$f2);
#X obj 244 127 r \$0-modifier2;
#X connect 1 0 0 0;
#X connect 2 0 4 0;
#X connect 4 0 5 0;
#X connect 5 0 3 0;
#X connect 6 0 5 1;
#X restore 204 139 pd tri;
#X obj 286 61 inlet;
#X obj 168 35 inlet~;
#X obj 150 280 outlet~;
#X obj 160 117 == 0;
#X obj 243 117 == 1;
#X obj 161 211 *~;
#X obj 270 183 r \$0-amp2;
#X msg 269 210 \$1 50;
#X obj 268 236 line~;
#X connect 0 0 7 0;
#X connect 1 0 7 0;
#X connect 2 0 5 0;
#X connect 2 0 6 0;
#X connect 3 0 0 0;
#X connect 3 0 1 0;
#X connect 5 0 0 1;
#X connect 6 0 1 1;
#X connect 7 0 4 0;
#X connect 8 0 9 0;
#X connect 9 0 10 0;
#X connect 10 0 7 1;
#X restore 151 228 pd modulator2;
#N canvas 445 239 450 300 modulator1 0;
#N canvas 0 50 450 300 osc 0;
#X obj 327 37 switch~;
#X obj 327 11 inlet;
#X obj 105 45 inlet~;
#X obj 105 227 outlet~;
#X obj 104 123 osc~;
#X obj 268 164 expr (2*$f1/(1-$f1));
#X obj 104 187 expr~ ((1+$f3)*$v1/(1+$f3*$v2));
#X obj 211 165 abs~;
#X obj 268 137 r \$0-modifier1;
#X connect 1 0 0 0;
#X connect 2 0 4 0;
#X connect 4 0 6 0;
#X connect 4 0 7 0;
#X connect 5 0 6 2;
#X connect 6 0 3 0;
#X connect 7 0 6 1;
#X connect 8 0 5 0;
#X restore 121 140 pd osc;
#N canvas 0 50 450 300 tri 0;
#X obj 327 37 switch~;
#X obj 327 11 inlet;
#X obj 105 45 inlet~;
#X obj 105 227 outlet~;
#X obj 107 125 phasor~;
#X obj 107 149 expr~ 2*abs($v1-$f2);
#X obj 244 127 r \$0-modifier1;
#X connect 1 0 0 0;
#X connect 2 0 4 0;
#X connect 4 0 5 0;
#X connect 5 0 3 0;
#X connect 6 0 5 1;
#X restore 204 139 pd tri;
#X obj 308 60 inlet;
#X obj 164 23 inlet~;
#X obj 155 261 outlet~;
#X obj 212 200 r \$0-amp1;
#X obj 160 117 == 0;
#X obj 243 117 == 1;
#X obj 154 222 *~;
#X connect 0 0 8 0;
#X connect 1 0 8 0;
#X connect 2 0 6 0;
#X connect 2 0 7 0;
#X connect 3 0 0 0;
#X connect 3 0 1 0;
#X connect 5 0 8 1;
#X connect 6 0 0 1;
#X connect 7 0 1 1;
#X connect 8 0 4 0;
#X restore 150 149 pd modulator1;
#X obj 133 251 +~;
#X obj 151 197 +~;
#X obj 303 86 r \$0-freq2;
#X obj 188 21 r \$0-freq1;
#X obj 266 175 line~;
#X msg 266 148 \$1 50;
#X obj 151 113 line~;
#X msg 151 92 \$1 50;
#X obj 238 65 r \$0-waveform1;
#X obj 239 205 r \$0-waveform2;
#X obj 134 312 *~;
#X msg 267 300 \$1 50;
#X obj 267 321 line~;
#X obj 267 276 / 127;
#X obj 51 34 unpack;
#N canvas 226 169 316 398 harmonik 0;
#X obj 142 14 inlet;
#X obj 135 73 i;
#X obj 141 144 >= 0;
#X obj 102 169 spigot;
#X obj 179 171 spigot;
#X obj 218 146 < 0;
#X obj 142 102 t f f;
#X obj 102 220 t b f;
#X obj 37 21 inlet;
#X obj 135 43 spigot;
#X obj 227 14 inlet;
#X obj 169 74 spigot;
#X obj 208 50 == 0;
#X obj 103 336 outlet;
#X obj 103 251 *;
#X obj 179 194 expr -1/$f1;
#X connect 0 0 9 0;
#X connect 0 0 11 0;
#X connect 1 0 6 0;
#X connect 2 0 3 1;
#X connect 3 0 7 0;
#X connect 4 0 15 0;
#X connect 5 0 4 1;
#X connect 6 0 3 0;
#X connect 6 0 4 0;
#X connect 6 1 5 0;
#X connect 6 1 2 0;
#X connect 7 0 14 0;
#X connect 7 1 14 1;
#X connect 8 0 14 0;
#X connect 9 0 1 0;
#X connect 10 0 12 0;
#X connect 10 0 9 1;
#X connect 11 0 6 0;
#X connect 12 0 11 1;
#X connect 14 0 13 0;
#X connect 15 0 7 0;
#X restore 151 67 pd harmonik;
#X obj 225 42 r \$0-harm1;
#N canvas 165 152 316 407 harmonik 0;
#X obj 142 14 inlet;
#X obj 135 73 i;
#X obj 141 144 >= 0;
#X obj 102 169 spigot;
#X obj 179 171 spigot;
#X obj 218 146 < 0;
#X obj 142 102 t f f;
#X obj 102 220 t b f;
#X obj 37 21 inlet;
#X obj 135 43 spigot;
#X obj 227 14 inlet;
#X obj 169 74 spigot;
#X obj 208 50 == 0;
#X obj 103 336 outlet;
#X obj 103 251 *;
#X obj 179 194 expr -1/$f1;
#X connect 0 0 9 0;
#X connect 0 0 11 0;
#X connect 1 0 6 0;
#X connect 2 0 3 1;
#X connect 3 0 7 0;
#X connect 4 0 15 0;
#X connect 5 0 4 1;
#X connect 6 0 3 0;
#X connect 6 0 4 0;
#X connect 6 1 5 0;
#X connect 6 1 2 0;
#X connect 7 0 14 0;
#X connect 7 1 14 1;
#X connect 8 0 14 0;
#X connect 9 0 1 0;
#X connect 10 0 12 0;
#X connect 10 0 9 1;
#X connect 11 0 6 0;
#X connect 12 0 11 1;
#X connect 14 0 13 0;
#X connect 15 0 7 0;
#X restore 266 126 pd harmonik;
#X obj 340 106 r \$0-harm2;
#X obj 134 36 mtof;
#X obj 53 163 sig~;
#X connect 0 0 19 0;
#X connect 2 0 15 0;
#X connect 3 0 5 1;
#X connect 4 0 6 0;
#X connect 5 0 2 0;
#X connect 6 0 3 0;
#X connect 7 0 22 1;
#X connect 8 0 20 1;
#X connect 9 0 6 1;
#X connect 10 0 9 0;
#X connect 11 0 4 0;
#X connect 12 0 11 0;
#X connect 13 0 4 1;
#X connect 14 0 3 1;
#X connect 15 0 1 0;
#X connect 16 0 17 0;
#X connect 17 0 15 1;
#X connect 18 0 16 0;
#X connect 19 0 24 0;
#X connect 19 1 18 0;
#X connect 20 0 12 0;
#X connect 21 0 20 2;
#X connect 22 0 10 0;
#X connect 23 0 22 2;
#X connect 24 0 20 0;
#X connect 24 0 25 0;
#X connect 24 0 22 0;
#X connect 25 0 5 0;
#X restore 162 119 pd osc;
#N canvas 87 50 450 394 osc 0;
#X obj 50 13 inlet;
#X obj 134 342 outlet~;
#N canvas 160 218 434 300 mainosc 0;
#X obj 114 242 outlet~;
#X obj 114 27 inlet~;
#N canvas 0 50 450 300 osc 0;
#X obj 327 37 switch~;
#X obj 327 11 inlet;
#X obj 105 45 inlet~;
#X obj 105 227 outlet~;
#X obj 105 138 osc~;
#X obj 266 167 expr (2*$f1/(1-$f1));
#X obj 105 191 expr~ ((1+$f3)*$v1/(1+$f3*$v2));
#X obj 212 167 abs~;
#X obj 266 141 r \$0-modifier;
#X connect 1 0 0 0;
#X connect 2 0 4 0;
#X connect 4 0 6 0;
#X connect 4 0 7 0;
#X connect 5 0 6 2;
#X connect 6 0 3 0;
#X connect 7 0 6 1;
#X connect 8 0 5 0;
#X restore 31 127 pd osc;
#N canvas 0 50 450 300 tri 0;
#X obj 327 37 switch~;
#X obj 327 11 inlet;
#X obj 105 45 inlet~;
#X obj 105 227 outlet~;
#X obj 107 125 phasor~;
#X obj 107 149 expr~ 2*abs($v1-$f2);
#X obj 244 127 r \$0-modifier;
#X connect 1 0 0 0;
#X connect 2 0 4 0;
#X connect 4 0 5 0;
#X connect 5 0 3 0;
#X connect 6 0 5 1;
#X restore 114 126 pd tri;
#N canvas 0 50 450 300 saw 0;
#X obj 327 37 switch~;
#X obj 327 11 inlet;
#X obj 105 45 inlet~;
#X obj 105 227 outlet~;
#X obj 107 125 phasor~;
#X connect 1 0 0 0;
#X connect 2 0 4 0;
#X connect 4 0 3 0;
#X restore 193 127 pd saw;
#N canvas 0 50 450 300 sqr 0;
#X obj 327 37 switch~;
#X obj 327 11 inlet;
#X obj 105 45 inlet~;
#X obj 105 227 outlet~;
#X obj 106 129 phasor~;
#X obj 208 129 r \$0-modifier;
#X obj 106 159 expr~ $v1 > $f2;
#X connect 1 0 0 0;
#X connect 2 0 4 0;
#X connect 4 0 6 0;
#X connect 5 0 6 1;
#X connect 6 0 3 0;
#X restore 267 128 pd sqr;
#X obj 295 51 r \$0-waveform;
#X obj 70 104 == 0;
#X obj 153 103 == 1;
#X obj 232 102 == 2;
#X obj 306 104 == 3;
#X connect 1 0 2 0;
#X connect 1 0 3 0;
#X connect 1 0 4 0;
#X connect 1 0 5 0;
#X connect 2 0 0 0;
#X connect 3 0 0 0;
#X connect 4 0 0 0;
#X connect 5 0 0 0;
#X connect 6 0 7 0;
#X connect 6 0 8 0;
#X connect 6 0 9 0;
#X connect 6 0 10 0;
#X connect 7 0 2 1;
#X connect 8 0 3 1;
#X connect 9 0 4 1;
#X connect 10 0 5 1;
#X restore 134 277 pd mainosc;
#N canvas 0 50 450 300 modulator2 0;
#N canvas 0 50 450 300 osc 0;
#X obj 327 37 switch~;
#X obj 327 11 inlet;
#X obj 105 45 inlet~;
#X obj 105 227 outlet~;
#X obj 104 123 osc~;
#X obj 268 164 expr (2*$f1/(1-$f1));
#X obj 104 187 expr~ ((1+$f3)*$v1/(1+$f3*$v2));
#X obj 211 165 abs~;
#X obj 268 137 r \$0-modifier2;
#X connect 1 0 0 0;
#X connect 2 0 4 0;
#X connect 4 0 6 0;
#X connect 4 0 7 0;
#X connect 5 0 6 2;
#X connect 6 0 3 0;
#X connect 7 0 6 1;
#X connect 8 0 5 0;
#X restore 121 140 pd osc;
#N canvas 0 50 450 300 tri 0;
#X obj 327 37 switch~;
#X obj 327 11 inlet;
#X obj 105 45 inlet~;
#X obj 105 227 outlet~;
#X obj 107 125 phasor~;
#X obj 107 149 expr~ 2*abs($v1-$f2);
#X obj 244 127 r \$0-modifier2;
#X connect 1 0 0 0;
#X connect 2 0 4 0;
#X connect 4 0 5 0;
#X connect 5 0 3 0;
#X connect 6 0 5 1;
#X restore 204 139 pd tri;
#X obj 286 61 inlet;
#X obj 168 35 inlet~;
#X obj 150 280 outlet~;
#X obj 160 117 == 0;
#X obj 243 117 == 1;
#X obj 161 211 *~;
#X obj 270 183 r \$0-amp2;
#X msg 269 210 \$1 50;
#X obj 268 236 line~;
#X connect 0 0 7 0;
#X connect 1 0 7 0;
#X connect 2 0 5 0;
#X connect 2 0 6 0;
#X connect 3 0 0 0;
#X connect 3 0 1 0;
#X connect 5 0 0 1;
#X connect 6 0 1 1;
#X connect 7 0 4 0;
#X connect 8 0 9 0;
#X connect 9 0 10 0;
#X connect 10 0 7 1;
#X restore 151 228 pd modulator2;
#N canvas 445 239 450 300 modulator1 0;
#N canvas 0 50 450 300 osc 0;
#X obj 327 37 switch~;
#X obj 327 11 inlet;
#X obj 105 45 inlet~;
#X obj 105 227 outlet~;
#X obj 104 123 osc~;
#X obj 268 164 expr (2*$f1/(1-$f1));
#X obj 104 187 expr~ ((1+$f3)*$v1/(1+$f3*$v2));
#X obj 211 165 abs~;
#X obj 268 137 r \$0-modifier1;
#X connect 1 0 0 0;
#X connect 2 0 4 0;
#X connect 4 0 6 0;
#X connect 4 0 7 0;
#X connect 5 0 6 2;
#X connect 6 0 3 0;
#X connect 7 0 6 1;
#X connect 8 0 5 0;
#X restore 121 140 pd osc;
#N canvas 0 50 450 300 tri 0;
#X obj 327 37 switch~;
#X obj 327 11 inlet;
#X obj 105 45 inlet~;
#X obj 105 227 outlet~;
#X obj 107 125 phasor~;
#X obj 107 149 expr~ 2*abs($v1-$f2);
#X obj 244 127 r \$0-modifier1;
#X connect 1 0 0 0;
#X connect 2 0 4 0;
#X connect 4 0 5 0;
#X connect 5 0 3 0;
#X connect 6 0 5 1;
#X restore 204 139 pd tri;
#X obj 308 60 inlet;
#X obj 164 23 inlet~;
#X obj 155 261 outlet~;
#X obj 212 200 r \$0-amp1;
#X obj 160 117 == 0;
#X obj 243 117 == 1;
#X obj 154 222 *~;
#X connect 0 0 8 0;
#X connect 1 0 8 0;
#X connect 2 0 6 0;
#X connect 2 0 7 0;
#X connect 3 0 0 0;
#X connect 3 0 1 0;
#X connect 5 0 8 1;
#X connect 6 0 0 1;
#X connect 7 0 1 1;
#X connect 8 0 4 0;
#X restore 150 149 pd modulator1;
#X obj 133 251 +~;
#X obj 151 197 +~;
#X obj 303 86 r \$0-freq2;
#X obj 188 21 r \$0-freq1;
#X obj 266 175 line~;
#X msg 266 148 \$1 50;
#X obj 151 113 line~;
#X msg 151 92 \$1 50;
#X obj 238 65 r \$0-waveform1;
#X obj 239 205 r \$0-waveform2;
#X obj 134 312 *~;
#X msg 267 300 \$1 50;
#X obj 267 321 line~;
#X obj 267 276 / 127;
#X obj 51 34 unpack;
#N canvas 226 169 316 398 harmonik 0;
#X obj 142 14 inlet;
#X obj 135 73 i;
#X obj 141 144 >= 0;
#X obj 102 169 spigot;
#X obj 179 171 spigot;
#X obj 218 146 < 0;
#X obj 142 102 t f f;
#X obj 102 220 t b f;
#X obj 37 21 inlet;
#X obj 135 43 spigot;
#X obj 227 14 inlet;
#X obj 169 74 spigot;
#X obj 208 50 == 0;
#X obj 103 336 outlet;
#X obj 103 251 *;
#X obj 179 194 expr -1/$f1;
#X connect 0 0 9 0;
#X connect 0 0 11 0;
#X connect 1 0 6 0;
#X connect 2 0 3 1;
#X connect 3 0 7 0;
#X connect 4 0 15 0;
#X connect 5 0 4 1;
#X connect 6 0 3 0;
#X connect 6 0 4 0;
#X connect 6 1 5 0;
#X connect 6 1 2 0;
#X connect 7 0 14 0;
#X connect 7 1 14 1;
#X connect 8 0 14 0;
#X connect 9 0 1 0;
#X connect 10 0 12 0;
#X connect 10 0 9 1;
#X connect 11 0 6 0;
#X connect 12 0 11 1;
#X connect 14 0 13 0;
#X connect 15 0 7 0;
#X restore 151 67 pd harmonik;
#X obj 225 42 r \$0-harm1;
#N canvas 165 152 316 407 harmonik 0;
#X obj 142 14 inlet;
#X obj 135 73 i;
#X obj 141 144 >= 0;
#X obj 102 169 spigot;
#X obj 179 171 spigot;
#X obj 218 146 < 0;
#X obj 142 102 t f f;
#X obj 102 220 t b f;
#X obj 37 21 inlet;
#X obj 135 43 spigot;
#X obj 227 14 inlet;
#X obj 169 74 spigot;
#X obj 208 50 == 0;
#X obj 103 336 outlet;
#X obj 103 251 *;
#X obj 179 194 expr -1/$f1;
#X connect 0 0 9 0;
#X connect 0 0 11 0;
#X connect 1 0 6 0;
#X connect 2 0 3 1;
#X connect 3 0 7 0;
#X connect 4 0 15 0;
#X connect 5 0 4 1;
#X connect 6 0 3 0;
#X connect 6 0 4 0;
#X connect 6 1 5 0;
#X connect 6 1 2 0;
#X connect 7 0 14 0;
#X connect 7 1 14 1;
#X connect 8 0 14 0;
#X connect 9 0 1 0;
#X connect 10 0 12 0;
#X connect 10 0 9 1;
#X connect 11 0 6 0;
#X connect 12 0 11 1;
#X connect 14 0 13 0;
#X connect 15 0 7 0;
#X restore 266 126 pd harmonik;
#X obj 340 106 r \$0-harm2;
#X obj 134 36 mtof;
#X obj 53 163 sig~;
#X connect 0 0 19 0;
#X connect 2 0 15 0;
#X connect 3 0 5 1;
#X connect 4 0 6 0;
#X connect 5 0 2 0;
#X connect 6 0 3 0;
#X connect 7 0 22 1;
#X connect 8 0 20 1;
#X connect 9 0 6 1;
#X connect 10 0 9 0;
#X connect 11 0 4 0;
#X connect 12 0 11 0;
#X connect 13 0 4 1;
#X connect 14 0 3 1;
#X connect 15 0 1 0;
#X connect 16 0 17 0;
#X connect 17 0 15 1;
#X connect 18 0 16 0;
#X connect 19 0 24 0;
#X connect 19 1 18 0;
#X connect 20 0 12 0;
#X connect 21 0 20 2;
#X connect 22 0 10 0;
#X connect 23 0 22 2;
#X connect 24 0 20 0;
#X connect 24 0 25 0;
#X connect 24 0 22 0;
#X connect 25 0 5 0;
#X restore 212 119 pd osc;
#N canvas 87 50 450 394 osc 0;
#X obj 50 13 inlet;
#X obj 134 342 outlet~;
#N canvas 160 218 434 300 mainosc 0;
#X obj 114 242 outlet~;
#X obj 114 27 inlet~;
#N canvas 0 50 450 300 osc 0;
#X obj 327 37 switch~;
#X obj 327 11 inlet;
#X obj 105 45 inlet~;
#X obj 105 227 outlet~;
#X obj 105 138 osc~;
#X obj 266 167 expr (2*$f1/(1-$f1));
#X obj 105 191 expr~ ((1+$f3)*$v1/(1+$f3*$v2));
#X obj 212 167 abs~;
#X obj 266 141 r \$0-modifier;
#X connect 1 0 0 0;
#X connect 2 0 4 0;
#X connect 4 0 6 0;
#X connect 4 0 7 0;
#X connect 5 0 6 2;
#X connect 6 0 3 0;
#X connect 7 0 6 1;
#X connect 8 0 5 0;
#X restore 31 127 pd osc;
#N canvas 0 50 450 300 tri 0;
#X obj 327 37 switch~;
#X obj 327 11 inlet;
#X obj 105 45 inlet~;
#X obj 105 227 outlet~;
#X obj 107 125 phasor~;
#X obj 107 149 expr~ 2*abs($v1-$f2);
#X obj 244 127 r \$0-modifier;
#X connect 1 0 0 0;
#X connect 2 0 4 0;
#X connect 4 0 5 0;
#X connect 5 0 3 0;
#X connect 6 0 5 1;
#X restore 114 126 pd tri;
#N canvas 0 50 450 300 saw 0;
#X obj 327 37 switch~;
#X obj 327 11 inlet;
#X obj 105 45 inlet~;
#X obj 105 227 outlet~;
#X obj 107 125 phasor~;
#X connect 1 0 0 0;
#X connect 2 0 4 0;
#X connect 4 0 3 0;
#X restore 193 127 pd saw;
#N canvas 0 50 450 300 sqr 0;
#X obj 327 37 switch~;
#X obj 327 11 inlet;
#X obj 105 45 inlet~;
#X obj 105 227 outlet~;
#X obj 106 129 phasor~;
#X obj 208 129 r \$0-modifier;
#X obj 106 159 expr~ $v1 > $f2;
#X connect 1 0 0 0;
#X connect 2 0 4 0;
#X connect 4 0 6 0;
#X connect 5 0 6 1;
#X connect 6 0 3 0;
#X restore 267 128 pd sqr;
#X obj 295 51 r \$0-waveform;
#X obj 70 104 == 0;
#X obj 153 103 == 1;
#X obj 232 102 == 2;
#X obj 306 104 == 3;
#X connect 1 0 2 0;
#X connect 1 0 3 0;
#X connect 1 0 4 0;
#X connect 1 0 5 0;
#X connect 2 0 0 0;
#X connect 3 0 0 0;
#X connect 4 0 0 0;
#X connect 5 0 0 0;
#X connect 6 0 7 0;
#X connect 6 0 8 0;
#X connect 6 0 9 0;
#X connect 6 0 10 0;
#X connect 7 0 2 1;
#X connect 8 0 3 1;
#X connect 9 0 4 1;
#X connect 10 0 5 1;
#X restore 134 277 pd mainosc;
#N canvas 0 50 450 300 modulator2 0;
#N canvas 0 50 450 300 osc 0;
#X obj 327 37 switch~;
#X obj 327 11 inlet;
#X obj 105 45 inlet~;
#X obj 105 227 outlet~;
#X obj 104 123 osc~;
#X obj 268 164 expr (2*$f1/(1-$f1));
#X obj 104 187 expr~ ((1+$f3)*$v1/(1+$f3*$v2));
#X obj 211 165 abs~;
#X obj 268 137 r \$0-modifier2;
#X connect 1 0 0 0;
#X connect 2 0 4 0;
#X connect 4 0 6 0;
#X connect 4 0 7 0;
#X connect 5 0 6 2;
#X connect 6 0 3 0;
#X connect 7 0 6 1;
#X connect 8 0 5 0;
#X restore 121 140 pd osc;
#N canvas 0 50 450 300 tri 0;
#X obj 327 37 switch~;
#X obj 327 11 inlet;
#X obj 105 45 inlet~;
#X obj 105 227 outlet~;
#X obj 107 125 phasor~;
#X obj 107 149 expr~ 2*abs($v1-$f2);
#X obj 244 127 r \$0-modifier2;
#X connect 1 0 0 0;
#X connect 2 0 4 0;
#X connect 4 0 5 0;
#X connect 5 0 3 0;
#X connect 6 0 5 1;
#X restore 204 139 pd tri;
#X obj 286 61 inlet;
#X obj 168 35 inlet~;
#X obj 150 280 outlet~;
#X obj 160 117 == 0;
#X obj 243 117 == 1;
#X obj 161 211 *~;
#X obj 270 183 r \$0-amp2;
#X msg 269 210 \$1 50;
#X obj 268 236 line~;
#X connect 0 0 7 0;
#X connect 1 0 7 0;
#X connect 2 0 5 0;
#X connect 2 0 6 0;
#X connect 3 0 0 0;
#X connect 3 0 1 0;
#X connect 5 0 0 1;
#X connect 6 0 1 1;
#X connect 7 0 4 0;
#X connect 8 0 9 0;
#X connect 9 0 10 0;
#X connect 10 0 7 1;
#X restore 151 228 pd modulator2;
#N canvas 445 239 450 300 modulator1 0;
#N canvas 0 50 450 300 osc 0;
#X obj 327 37 switch~;
#X obj 327 11 inlet;
#X obj 105 45 inlet~;
#X obj 105 227 outlet~;
#X obj 104 123 osc~;
#X obj 268 164 expr (2*$f1/(1-$f1));
#X obj 104 187 expr~ ((1+$f3)*$v1/(1+$f3*$v2));
#X obj 211 165 abs~;
#X obj 268 137 r \$0-modifier1;
#X connect 1 0 0 0;
#X connect 2 0 4 0;
#X connect 4 0 6 0;
#X connect 4 0 7 0;
#X connect 5 0 6 2;
#X connect 6 0 3 0;
#X connect 7 0 6 1;
#X connect 8 0 5 0;
#X restore 121 140 pd osc;
#N canvas 0 50 450 300 tri 0;
#X obj 327 37 switch~;
#X obj 327 11 inlet;
#X obj 105 45 inlet~;
#X obj 105 227 outlet~;
#X obj 107 125 phasor~;
#X obj 107 149 expr~ 2*abs($v1-$f2);
#X obj 244 127 r \$0-modifier1;
#X connect 1 0 0 0;
#X connect 2 0 4 0;
#X connect 4 0 5 0;
#X connect 5 0 3 0;
#X connect 6 0 5 1;
#X restore 204 139 pd tri;
#X obj 308 60 inlet;
#X obj 164 23 inlet~;
#X obj 155 261 outlet~;
#X obj 212 200 r \$0-amp1;
#X obj 160 117 == 0;
#X obj 243 117 == 1;
#X obj 154 222 *~;
#X connect 0 0 8 0;
#X connect 1 0 8 0;
#X connect 2 0 6 0;
#X connect 2 0 7 0;
#X connect 3 0 0 0;
#X connect 3 0 1 0;
#X connect 5 0 8 1;
#X connect 6 0 0 1;
#X connect 7 0 1 1;
#X connect 8 0 4 0;
#X restore 150 149 pd modulator1;
#X obj 133 251 +~;
#X obj 151 197 +~;
#X obj 303 86 r \$0-freq2;
#X obj 188 21 r \$0-freq1;
#X obj 266 175 line~;
#X msg 266 148 \$1 50;
#X obj 151 113 line~;
#X msg 151 92 \$1 50;
#X obj 238 65 r \$0-waveform1;
#X obj 239 205 r \$0-waveform2;
#X obj 134 312 *~;
#X msg 267 300 \$1 50;
#X obj 267 321 line~;
#X obj 267 276 / 127;
#X obj 51 34 unpack;
#N canvas 226 169 316 398 harmonik 0;
#X obj 142 14 inlet;
#X obj 135 73 i;
#X obj 141 144 >= 0;
#X obj 102 169 spigot;
#X obj 179 171 spigot;
#X obj 218 146 < 0;
#X obj 142 102 t f f;
#X obj 102 220 t b f;
#X obj 37 21 inlet;
#X obj 135 43 spigot;
#X obj 227 14 inlet;
#X obj 169 74 spigot;
#X obj 208 50 == 0;
#X obj 103 336 outlet;
#X obj 103 251 *;
#X obj 179 194 expr -1/$f1;
#X connect 0 0 9 0;
#X connect 0 0 11 0;
#X connect 1 0 6 0;
#X connect 2 0 3 1;
#X connect 3 0 7 0;
#X connect 4 0 15 0;
#X connect 5 0 4 1;
#X connect 6 0 3 0;
#X connect 6 0 4 0;
#X connect 6 1 5 0;
#X connect 6 1 2 0;
#X connect 7 0 14 0;
#X connect 7 1 14 1;
#X connect 8 0 14 0;
#X connect 9 0 1 0;
#X connect 10 0 12 0;
#X connect 10 0 9 1;
#X connect 11 0 6 0;
#X connect 12 0 11 1;
#X connect 14 0 13 0;
#X connect 15 0 7 0;
#X restore 151 67 pd harmonik;
#X obj 225 42 r \$0-harm1;
#N canvas 165 152 316 407 harmonik 0;
#X obj 142 14 inlet;
#X obj 135 73 i;
#X obj 141 144 >= 0;
#X obj 102 169 spigot;
#X obj 179 171 spigot;
#X obj 218 146 < 0;
#X obj 142 102 t f f;
#X obj 102 220 t b f;
#X obj 37 21 inlet;
#X obj 135 43 spigot;
#X obj 227 14 inlet;
#X obj 169 74 spigot;
#X obj 208 50 == 0;
#X obj 103 336 outlet;
#X obj 103 251 *;
#X obj 179 194 expr -1/$f1;
#X connect 0 0 9 0;
#X connect 0 0 11 0;
#X connect 1 0 6 0;
#X connect 2 0 3 1;
#X connect 3 0 7 0;
#X connect 4 0 15 0;
#X connect 5 0 4 1;
#X connect 6 0 3 0;
#X connect 6 0 4 0;
#X connect 6 1 5 0;
#X connect 6 1 2 0;
#X connect 7 0 14 0;
#X connect 7 1 14 1;
#X connect 8 0 14 0;
#X connect 9 0 1 0;
#X connect 10 0 12 0;
#X connect 10 0 9 1;
#X connect 11 0 6 0;
#X connect 12 0 11 1;
#X connect 14 0 13 0;
#X connect 15 0 7 0;
#X restore 266 126 pd harmonik;
#X obj 340 106 r \$0-harm2;
#X obj 134 36 mtof;
#X obj 53 163 sig~;
#X connect 0 0 19 0;
#X connect 2 0 15 0;
#X connect 3 0 5 1;
#X connect 4 0 6 0;
#X connect 5 0 2 0;
#X connect 6 0 3 0;
#X connect 7 0 22 1;
#X connect 8 0 20 1;
#X connect 9 0 6 1;
#X connect 10 0 9 0;
#X connect 11 0 4 0;
#X connect 12 0 11 0;
#X connect 13 0 4 1;
#X connect 14 0 3 1;
#X connect 15 0 1 0;
#X connect 16 0 17 0;
#X connect 17 0 15 1;
#X connect 18 0 16 0;
#X connect 19 0 24 0;
#X connect 19 1 18 0;
#X connect 20 0 12 0;
#X connect 21 0 20 2;
#X connect 22 0 10 0;
#X connect 23 0 22 2;
#X connect 24 0 20 0;
#X connect 24 0 25 0;
#X connect 24 0 22 0;
#X connect 25 0 5 0;
#X restore 262 119 pd osc;
#N canvas 87 50 450 394 osc 0;
#X obj 50 13 inlet;
#X obj 134 342 outlet~;
#N canvas 160 218 434 300 mainosc 0;
#X obj 114 242 outlet~;
#X obj 114 27 inlet~;
#N canvas 0 50 450 300 osc 0;
#X obj 327 37 switch~;
#X obj 327 11 inlet;
#X obj 105 45 inlet~;
#X obj 105 227 outlet~;
#X obj 105 138 osc~;
#X obj 266 167 expr (2*$f1/(1-$f1));
#X obj 105 191 expr~ ((1+$f3)*$v1/(1+$f3*$v2));
#X obj 212 167 abs~;
#X obj 266 141 r \$0-modifier;
#X connect 1 0 0 0;
#X connect 2 0 4 0;
#X connect 4 0 6 0;
#X connect 4 0 7 0;
#X connect 5 0 6 2;
#X connect 6 0 3 0;
#X connect 7 0 6 1;
#X connect 8 0 5 0;
#X restore 31 127 pd osc;
#N canvas 0 50 450 300 tri 0;
#X obj 327 37 switch~;
#X obj 327 11 inlet;
#X obj 105 45 inlet~;
#X obj 105 227 outlet~;
#X obj 107 125 phasor~;
#X obj 107 149 expr~ 2*abs($v1-$f2);
#X obj 244 127 r \$0-modifier;
#X connect 1 0 0 0;
#X connect 2 0 4 0;
#X connect 4 0 5 0;
#X connect 5 0 3 0;
#X connect 6 0 5 1;
#X restore 114 126 pd tri;
#N canvas 0 50 450 300 saw 0;
#X obj 327 37 switch~;
#X obj 327 11 inlet;
#X obj 105 45 inlet~;
#X obj 105 227 outlet~;
#X obj 107 125 phasor~;
#X connect 1 0 0 0;
#X connect 2 0 4 0;
#X connect 4 0 3 0;
#X restore 193 127 pd saw;
#N canvas 0 50 450 300 sqr 0;
#X obj 327 37 switch~;
#X obj 327 11 inlet;
#X obj 105 45 inlet~;
#X obj 105 227 outlet~;
#X obj 106 129 phasor~;
#X obj 208 129 r \$0-modifier;
#X obj 106 159 expr~ $v1 > $f2;
#X connect 1 0 0 0;
#X connect 2 0 4 0;
#X connect 4 0 6 0;
#X connect 5 0 6 1;
#X connect 6 0 3 0;
#X restore 267 128 pd sqr;
#X obj 295 51 r \$0-waveform;
#X obj 70 104 == 0;
#X obj 153 103 == 1;
#X obj 232 102 == 2;
#X obj 306 104 == 3;
#X connect 1 0 2 0;
#X connect 1 0 3 0;
#X connect 1 0 4 0;
#X connect 1 0 5 0;
#X connect 2 0 0 0;
#X connect 3 0 0 0;
#X connect 4 0 0 0;
#X connect 5 0 0 0;
#X connect 6 0 7 0;
#X connect 6 0 8 0;
#X connect 6 0 9 0;
#X connect 6 0 10 0;
#X connect 7 0 2 1;
#X connect 8 0 3 1;
#X connect 9 0 4 1;
#X connect 10 0 5 1;
#X restore 134 277 pd mainosc;
#N canvas 0 50 450 300 modulator2 0;
#N canvas 0 50 450 300 osc 0;
#X obj 327 37 switch~;
#X obj 327 11 inlet;
#X obj 105 45 inlet~;
#X obj 105 227 outlet~;
#X obj 104 123 osc~;
#X obj 268 164 expr (2*$f1/(1-$f1));
#X obj 104 187 expr~ ((1+$f3)*$v1/(1+$f3*$v2));
#X obj 211 165 abs~;
#X obj 268 137 r \$0-modifier2;
#X connect 1 0 0 0;
#X connect 2 0 4 0;
#X connect 4 0 6 0;
#X connect 4 0 7 0;
#X connect 5 0 6 2;
#X connect 6 0 3 0;
#X connect 7 0 6 1;
#X connect 8 0 5 0;
#X restore 121 140 pd osc;
#N canvas 0 50 450 300 tri 0;
#X obj 327 37 switch~;
#X obj 327 11 inlet;
#X obj 105 45 inlet~;
#X obj 105 227 outlet~;
#X obj 107 125 phasor~;
#X obj 107 149 expr~ 2*abs($v1-$f2);
#X obj 244 127 r \$0-modifier2;
#X connect 1 0 0 0;
#X connect 2 0 4 0;
#X connect 4 0 5 0;
#X connect 5 0 3 0;
#X connect 6 0 5 1;
#X restore 204 139 pd tri;
#X obj 286 61 inlet;
#X obj 168 35 inlet~;
#X obj 150 280 outlet~;
#X obj 160 117 == 0;
#X obj 243 117 == 1;
#X obj 161 211 *~;
#X obj 270 183 r \$0-amp2;
#X msg 269 210 \$1 50;
#X obj 268 236 line~;
#X connect 0 0 7 0;
#X connect 1 0 7 0;
#X connect 2 0 5 0;
#X connect 2 0 6 0;
#X connect 3 0 0 0;
#X connect 3 0 1 0;
#X connect 5 0 0 1;
#X connect 6 0 1 1;
#X connect 7 0 4 0;
#X connect 8 0 9 0;
#X connect 9 0 10 0;
#X connect 10 0 7 1;
#X restore 151 228 pd modulator2;
#N canvas 445 239 450 300 modulator1 0;
#N canvas 0 50 450 300 osc 0;
#X obj 327 37 switch~;
#X obj 327 11 inlet;
#X obj 105 45 inlet~;
#X obj 105 227 outlet~;
#X obj 104 123 osc~;
#X obj 268 164 expr (2*$f1/(1-$f1));
#X obj 104 187 expr~ ((1+$f3)*$v1/(1+$f3*$v2));
#X obj 211 165 abs~;
#X obj 268 137 r \$0-modifier1;
#X connect 1 0 0 0;
#X connect 2 0 4 0;
#X connect 4 0 6 0;
#X connect 4 0 7 0;
#X connect 5 0 6 2;
#X connect 6 0 3 0;
#X connect 7 0 6 1;
#X connect 8 0 5 0;
#X restore 121 140 pd osc;
#N canvas 0 50 450 300 tri 0;
#X obj 327 37 switch~;
#X obj 327 11 inlet;
#X obj 105 45 inlet~;
#X obj 105 227 outlet~;
#X obj 107 125 phasor~;
#X obj 107 149 expr~ 2*abs($v1-$f2);
#X obj 244 127 r \$0-modifier1;
#X connect 1 0 0 0;
#X connect 2 0 4 0;
#X connect 4 0 5 0;
#X connect 5 0 3 0;
#X connect 6 0 5 1;
#X restore 204 139 pd tri;
#X obj 308 60 inlet;
#X obj 164 23 inlet~;
#X obj 155 261 outlet~;
#X obj 212 200 r \$0-amp1;
#X obj 160 117 == 0;
#X obj 243 117 == 1;
#X obj 154 222 *~;
#X connect 0 0 8 0;
#X connect 1 0 8 0;
#X connect 2 0 6 0;
#X connect 2 0 7 0;
#X connect 3 0 0 0;
#X connect 3 0 1 0;
#X connect 5 0 8 1;
#X connect 6 0 0 1;
#X connect 7 0 1 1;
#X connect 8 0 4 0;
#X restore 150 149 pd modulator1;
#X obj 133 251 +~;
#X obj 151 197 +~;
#X obj 303 86 r \$0-freq2;
#X obj 188 21 r \$0-freq1;
#X obj 266 175 line~;
#X msg 266 148 \$1 50;
#X obj 151 113 line~;
#X msg 151 92 \$1 50;
#X obj 238 65 r \$0-waveform1;
#X obj 239 205 r \$0-waveform2;
#X obj 134 312 *~;
#X msg 267 300 \$1 50;
#X obj 267 321 line~;
#X obj 267 276 / 127;
#X obj 51 34 unpack;
#N canvas 226 169 316 398 harmonik 0;
#X obj 142 14 inlet;
#X obj 135 73 i;
#X obj 141 144 >= 0;
#X obj 102 169 spigot;
#X obj 179 171 spigot;
#X obj 218 146 < 0;
#X obj 142 102 t f f;
#X obj 102 220 t b f;
#X obj 37 21 inlet;
#X obj 135 43 spigot;
#X obj 227 14 inlet;
#X obj 169 74 spigot;
#X obj 208 50 == 0;
#X obj 103 336 outlet;
#X obj 103 251 *;
#X obj 179 194 expr -1/$f1;
#X connect 0 0 9 0;
#X connect 0 0 11 0;
#X connect 1 0 6 0;
#X connect 2 0 3 1;
#X connect 3 0 7 0;
#X connect 4 0 15 0;
#X connect 5 0 4 1;
#X connect 6 0 3 0;
#X connect 6 0 4 0;
#X connect 6 1 5 0;
#X connect 6 1 2 0;
#X connect 7 0 14 0;
#X connect 7 1 14 1;
#X connect 8 0 14 0;
#X connect 9 0 1 0;
#X connect 10 0 12 0;
#X connect 10 0 9 1;
#X connect 11 0 6 0;
#X connect 12 0 11 1;
#X connect 14 0 13 0;
#X connect 15 0 7 0;
#X restore 151 67 pd harmonik;
#X obj 225 42 r \$0-harm1;
#N canvas 165 152 316 407 harmonik 0;
#X obj 142 14 inlet;
#X obj 135 73 i;
#X obj 141 144 >= 0;
#X obj 102 169 spigot;
#X obj 179 171 spigot;
#X obj 218 146 < 0;
#X obj 142 102 t f f;
#X obj 102 220 t b f;
#X obj 37 21 inlet;
#X obj 135 43 spigot;
#X obj 227 14 inlet;
#X obj 169 74 spigot;
#X obj 208 50 == 0;
#X obj 103 336 outlet;
#X obj 103 251 *;
#X obj 179 194 expr -1/$f1;
#X connect 0 0 9 0;
#X connect 0 0 11 0;
#X connect 1 0 6 0;
#X connect 2 0 3 1;
#X connect 3 0 7 0;
#X connect 4 0 15 0;
#X connect 5 0 4 1;
#X connect 6 0 3 0;
#X connect 6 0 4 0;
#X connect 6 1 5 0;
#X connect 6 1 2 0;
#X connect 7 0 14 0;
#X connect 7 1 14 1;
#X connect 8 0 14 0;
#X connect 9 0 1 0;
#X connect 10 0 12 0;
#X connect 10 0 9 1;
#X connect 11 0 6 0;
#X connect 12 0 11 1;
#X connect 14 0 13 0;
#X connect 15 0 7 0;
#X restore 266 126 pd harmonik;
#X obj 340 106 r \$0-harm2;
#X obj 134 36 mtof;
#X obj 53 163 sig~;
#X connect 0 0 19 0;
#X connect 2 0 15 0;
#X connect 3 0 5 1;
#X connect 4 0 6 0;
#X connect 5 0 2 0;
#X connect 6 0 3 0;
#X connect 7 0 22 1;
#X connect 8 0 20 1;
#X connect 9 0 6 1;
#X connect 10 0 9 0;
#X connect 11 0 4 0;
#X connect 12 0 11 0;
#X connect 13 0 4 1;
#X connect 14 0 3 1;
#X connect 15 0 1 0;
#X connect 16 0 17 0;
#X connect 17 0 15 1;
#X connect 18 0 16 0;
#X connect 19 0 24 0;
#X connect 19 1 18 0;
#X connect 20 0 12 0;
#X connect 21 0 20 2;
#X connect 22 0 10 0;
#X connect 23 0 22 2;
#X connect 24 0 20 0;
#X connect 24 0 25 0;
#X connect 24 0 22 0;
#X connect 25 0 5 0;
#X restore 312 119 pd osc;
#N canvas 87 50 450 394 osc 0;
#X obj 50 13 inlet;
#X obj 134 342 outlet~;
#N canvas 160 218 434 300 mainosc 0;
#X obj 114 242 outlet~;
#X obj 114 27 inlet~;
#N canvas 0 50 450 300 osc 0;
#X obj 327 37 switch~;
#X obj 327 11 inlet;
#X obj 105 45 inlet~;
#X obj 105 227 outlet~;
#X obj 105 138 osc~;
#X obj 266 167 expr (2*$f1/(1-$f1));
#X obj 105 191 expr~ ((1+$f3)*$v1/(1+$f3*$v2));
#X obj 212 167 abs~;
#X obj 266 141 r \$0-modifier;
#X connect 1 0 0 0;
#X connect 2 0 4 0;
#X connect 4 0 6 0;
#X connect 4 0 7 0;
#X connect 5 0 6 2;
#X connect 6 0 3 0;
#X connect 7 0 6 1;
#X connect 8 0 5 0;
#X restore 31 127 pd osc;
#N canvas 0 50 450 300 tri 0;
#X obj 327 37 switch~;
#X obj 327 11 inlet;
#X obj 105 45 inlet~;
#X obj 105 227 outlet~;
#X obj 107 125 phasor~;
#X obj 107 149 expr~ 2*abs($v1-$f2);
#X obj 244 127 r \$0-modifier;
#X connect 1 0 0 0;
#X connect 2 0 4 0;
#X connect 4 0 5 0;
#X connect 5 0 3 0;
#X connect 6 0 5 1;
#X restore 114 126 pd tri;
#N canvas 0 50 450 300 saw 0;
#X obj 327 37 switch~;
#X obj 327 11 inlet;
#X obj 105 45 inlet~;
#X obj 105 227 outlet~;
#X obj 107 125 phasor~;
#X connect 1 0 0 0;
#X connect 2 0 4 0;
#X connect 4 0 3 0;
#X restore 193 127 pd saw;
#N canvas 0 50 450 300 sqr 0;
#X obj 327 37 switch~;
#X obj 327 11 inlet;
#X obj 105 45 inlet~;
#X obj 105 227 outlet~;
#X obj 106 129 phasor~;
#X obj 208 129 r \$0-modifier;
#X obj 106 159 expr~ $v1 > $f2;
#X connect 1 0 0 0;
#X connect 2 0 4 0;
#X connect 4 0 6 0;
#X connect 5 0 6 1;
#X connect 6 0 3 0;
#X restore 267 128 pd sqr;
#X obj 295 51 r \$0-waveform;
#X obj 70 104 == 0;
#X obj 153 103 == 1;
#X obj 232 102 == 2;
#X obj 306 104 == 3;
#X connect 1 0 2 0;
#X connect 1 0 3 0;
#X connect 1 0 4 0;
#X connect 1 0 5 0;
#X connect 2 0 0 0;
#X connect 3 0 0 0;
#X connect 4 0 0 0;
#X connect 5 0 0 0;
#X connect 6 0 7 0;
#X connect 6 0 8 0;
#X connect 6 0 9 0;
#X connect 6 0 10 0;
#X connect 7 0 2 1;
#X connect 8 0 3 1;
#X connect 9 0 4 1;
#X connect 10 0 5 1;
#X restore 134 277 pd mainosc;
#N canvas 0 50 450 300 modulator2 0;
#N canvas 0 50 450 300 osc 0;
#X obj 327 37 switch~;
#X obj 327 11 inlet;
#X obj 105 45 inlet~;
#X obj 105 227 outlet~;
#X obj 104 123 osc~;
#X obj 268 164 expr (2*$f1/(1-$f1));
#X obj 104 187 expr~ ((1+$f3)*$v1/(1+$f3*$v2));
#X obj 211 165 abs~;
#X obj 268 137 r \$0-modifier2;
#X connect 1 0 0 0;
#X connect 2 0 4 0;
#X connect 4 0 6 0;
#X connect 4 0 7 0;
#X connect 5 0 6 2;
#X connect 6 0 3 0;
#X connect 7 0 6 1;
#X connect 8 0 5 0;
#X restore 121 140 pd osc;
#N canvas 0 50 450 300 tri 0;
#X obj 327 37 switch~;
#X obj 327 11 inlet;
#X obj 105 45 inlet~;
#X obj 105 227 outlet~;
#X obj 107 125 phasor~;
#X obj 107 149 expr~ 2*abs($v1-$f2);
#X obj 244 127 r \$0-modifier2;
#X connect 1 0 0 0;
#X connect 2 0 4 0;
#X connect 4 0 5 0;
#X connect 5 0 3 0;
#X connect 6 0 5 1;
#X restore 204 139 pd tri;
#X obj 286 61 inlet;
#X obj 168 35 inlet~;
#X obj 150 280 outlet~;
#X obj 160 117 == 0;
#X obj 243 117 == 1;
#X obj 161 211 *~;
#X obj 270 183 r \$0-amp2;
#X msg 269 210 \$1 50;
#X obj 268 236 line~;
#X connect 0 0 7 0;
#X connect 1 0 7 0;
#X connect 2 0 5 0;
#X connect 2 0 6 0;
#X connect 3 0 0 0;
#X connect 3 0 1 0;
#X connect 5 0 0 1;
#X connect 6 0 1 1;
#X connect 7 0 4 0;
#X connect 8 0 9 0;
#X connect 9 0 10 0;
#X connect 10 0 7 1;
#X restore 151 228 pd modulator2;
#N canvas 445 239 450 300 modulator1 0;
#N canvas 0 50 450 300 osc 0;
#X obj 327 37 switch~;
#X obj 327 11 inlet;
#X obj 105 45 inlet~;
#X obj 105 227 outlet~;
#X obj 104 123 osc~;
#X obj 268 164 expr (2*$f1/(1-$f1));
#X obj 104 187 expr~ ((1+$f3)*$v1/(1+$f3*$v2));
#X obj 211 165 abs~;
#X obj 268 137 r \$0-modifier1;
#X connect 1 0 0 0;
#X connect 2 0 4 0;
#X connect 4 0 6 0;
#X connect 4 0 7 0;
#X connect 5 0 6 2;
#X connect 6 0 3 0;
#X connect 7 0 6 1;
#X connect 8 0 5 0;
#X restore 121 140 pd osc;
#N canvas 0 50 450 300 tri 0;
#X obj 327 37 switch~;
#X obj 327 11 inlet;
#X obj 105 45 inlet~;
#X obj 105 227 outlet~;
#X obj 107 125 phasor~;
#X obj 107 149 expr~ 2*abs($v1-$f2);
#X obj 244 127 r \$0-modifier1;
#X connect 1 0 0 0;
#X connect 2 0 4 0;
#X connect 4 0 5 0;
#X connect 5 0 3 0;
#X connect 6 0 5 1;
#X restore 204 139 pd tri;
#X obj 308 60 inlet;
#X obj 164 23 inlet~;
#X obj 155 261 outlet~;
#X obj 212 200 r \$0-amp1;
#X obj 160 117 == 0;
#X obj 243 117 == 1;
#X obj 154 222 *~;
#X connect 0 0 8 0;
#X connect 1 0 8 0;
#X connect 2 0 6 0;
#X connect 2 0 7 0;
#X connect 3 0 0 0;
#X connect 3 0 1 0;
#X connect 5 0 8 1;
#X connect 6 0 0 1;
#X connect 7 0 1 1;
#X connect 8 0 4 0;
#X restore 150 149 pd modulator1;
#X obj 133 251 +~;
#X obj 151 197 +~;
#X obj 303 86 r \$0-freq2;
#X obj 188 21 r \$0-freq1;
#X obj 266 175 line~;
#X msg 266 148 \$1 50;
#X obj 151 113 line~;
#X msg 151 92 \$1 50;
#X obj 238 65 r \$0-waveform1;
#X obj 239 205 r \$0-waveform2;
#X obj 134 312 *~;
#X msg 267 300 \$1 50;
#X obj 267 321 line~;
#X obj 267 276 / 127;
#X obj 51 34 unpack;
#N canvas 226 169 316 398 harmonik 0;
#X obj 142 14 inlet;
#X obj 135 73 i;
#X obj 141 144 >= 0;
#X obj 102 169 spigot;
#X obj 179 171 spigot;
#X obj 218 146 < 0;
#X obj 142 102 t f f;
#X obj 102 220 t b f;
#X obj 37 21 inlet;
#X obj 135 43 spigot;
#X obj 227 14 inlet;
#X obj 169 74 spigot;
#X obj 208 50 == 0;
#X obj 103 336 outlet;
#X obj 103 251 *;
#X obj 179 194 expr -1/$f1;
#X connect 0 0 9 0;
#X connect 0 0 11 0;
#X connect 1 0 6 0;
#X connect 2 0 3 1;
#X connect 3 0 7 0;
#X connect 4 0 15 0;
#X connect 5 0 4 1;
#X connect 6 0 3 0;
#X connect 6 0 4 0;
#X connect 6 1 5 0;
#X connect 6 1 2 0;
#X connect 7 0 14 0;
#X connect 7 1 14 1;
#X connect 8 0 14 0;
#X connect 9 0 1 0;
#X connect 10 0 12 0;
#X connect 10 0 9 1;
#X connect 11 0 6 0;
#X connect 12 0 11 1;
#X connect 14 0 13 0;
#X connect 15 0 7 0;
#X restore 151 67 pd harmonik;
#X obj 225 42 r \$0-harm1;
#N canvas 165 152 316 407 harmonik 0;
#X obj 142 14 inlet;
#X obj 135 73 i;
#X obj 141 144 >= 0;
#X obj 102 169 spigot;
#X obj 179 171 spigot;
#X obj 218 146 < 0;
#X obj 142 102 t f f;
#X obj 102 220 t b f;
#X obj 37 21 inlet;
#X obj 135 43 spigot;
#X obj 227 14 inlet;
#X obj 169 74 spigot;
#X obj 208 50 == 0;
#X obj 103 336 outlet;
#X obj 103 251 *;
#X obj 179 194 expr -1/$f1;
#X connect 0 0 9 0;
#X connect 0 0 11 0;
#X connect 1 0 6 0;
#X connect 2 0 3 1;
#X connect 3 0 7 0;
#X connect 4 0 15 0;
#X connect 5 0 4 1;
#X connect 6 0 3 0;
#X connect 6 0 4 0;
#X connect 6 1 5 0;
#X connect 6 1 2 0;
#X connect 7 0 14 0;
#X connect 7 1 14 1;
#X connect 8 0 14 0;
#X connect 9 0 1 0;
#X connect 10 0 12 0;
#X connect 10 0 9 1;
#X connect 11 0 6 0;
#X connect 12 0 11 1;
#X connect 14 0 13 0;
#X connect 15 0 7 0;
#X restore 266 126 pd harmonik;
#X obj 340 106 r \$0-harm2;
#X obj 134 36 mtof;
#X obj 53 163 sig~;
#X connect 0 0 19 0;
#X connect 2 0 15 0;
#X connect 3 0 5 1;
#X connect 4 0 6 0;
#X connect 5 0 2 0;
#X connect 6 0 3 0;
#X connect 7 0 22 1;
#X connect 8 0 20 1;
#X connect 9 0 6 1;
#X connect 10 0 9 0;
#X connect 11 0 4 0;
#X connect 12 0 11 0;
#X connect 13 0 4 1;
#X connect 14 0 3 1;
#X connect 15 0 1 0;
#X connect 16 0 17 0;
#X connect 17 0 15 1;
#X connect 18 0 16 0;
#X connect 19 0 24 0;
#X connect 19 1 18 0;
#X connect 20 0 12 0;
#X connect 21 0 20 2;
#X connect 22 0 10 0;
#X connect 23 0 22 2;
#X connect 24 0 20 0;
#X connect 24 0 25 0;
#X connect 24 0 22 0;
#X connect 25 0 5 0;
#X restore 362 119 pd osc;
#X connect 1 0 2 0;
#X connect 2 0 8 0;
#X connect 2 1 9 0;
#X connect 2 2 10 0;
#X connect 2 3 11 0;
#X connect 2 4 12 0;
#X connect 2 5 13 0;
#X connect 2 6 14 0;
#X connect 2 7 15 0;
#X connect 3 0 4 0;
#X connect 4 0 5 0;
#X connect 5 0 6 0;
#X connect 6 0 7 0;
#X connect 8 0 3 0;
#X connect 9 0 3 0;
#X connect 10 0 3 0;
#X connect 11 0 3 0;
#X connect 12 0 3 0;
#X connect 13 0 3 0;
#X connect 14 0 3 0;
#X connect 15 0 3 0;
#X restore 273 287 pd osc;
#X obj 280 213 poly 8 1;
#X obj 287 186 unpack;
#X obj 287 150 inlet;
#X obj 273 244 pack f f f;
#X obj 272 405 outlet~;
#X obj 272 357 *~;
#X msg 394 322 \$1 50;
#X obj 394 346 line~;
#X obj 394 297 r \$0-master;
#X obj 101 101 cnv 15 125 122 empty empty sakkara~ 5 9 0 12 #c0043c #fcc4c4 0;
#X obj 107 120 hsl 76 12 0 1000 0 0 \$0-amp1 \$0-amp1_r A\ M\ P 2 7 0 9 #c6ffc7 #c0043c #606060 0 1;
#X obj 107 136 hsl 61 12 -10 10 0 0 \$0-freq1 \$0-freq1_r F\ R\ E\ Q 2 7 0 9 #c6ffc7 #c0043c #606060 0 1;
#X obj 104 152 tgl 12 0 \$0-harm1 \$0-harm1_r empty 17 7 0 10 #c6ffc7 #c0043c #000000 0 1;
#X obj 161 152 hradio 12 1 0 2 \$0-waveform1 \$0-waveform1_r empty 0 -8 0 10 #c6ffc7 #c0043c #000000 0;
#X obj 107 176 hsl 76 12 0 1000 0 0 \$0-amp2 \$0-amp2_r A\ M\ P 2 7 0 9 #e3c6ff #c0043c #606060 0 1;
#X obj 107 192 hsl 61 12 -10 10 0 0 \$0-freq2 \$0-freq2_r F\ R\ E\ Q 2 7 0 9 #e3c6ff #c0043c #606060 0 1;
#X obj 104 208 tgl 12 0 \$0-harm2 \$0-harm2_r empty 17 7 0 10 #e3c6ff #c0043c #000000 0 1;
#X obj 161 208 hradio 12 1 0 2 \$0-waveform2 \$0-waveform2_r empty 0 -8 0 10 #e3c6ff #c0043c #606060 0;
#X obj 122 152 hsl 34 12 0.01 0.99 0 0 \$0-modifier1 \$0-modifier1_r M\ O\ D 2 7 0 9 #c6ffc7 #c0043c #606060 0 1;
#X obj 122 208 hsl 34 12 0.01 0.99 0 0 \$0-modifier2 \$0-modifier2_r M\ O\ D 2 7 0 9 #e3c6ff #c0043c #606060 0 1;
#X obj 196 122 vsl 12 44 0.01 0.99 0 0 \$0-modifier \$0-modifier_r S 3 5 0 10 #fcc4c4 #c0043c #606060 0 1;
#X obj 196 172 vradio 12 1 0 4 \$0-waveform \$0-waveform_r empty 0 -8 0 10 #fcc4c4 #c0043c #000000 0;
#X obj 211 122 vsl 12 95 0.01 1 1 0 \$0-master \$0-master_r M 3 5 0 10 #fcc4c4 #c0043c #606060 0 1;
#X obj 173 136 bng 12 250 50 0 \$0-freq1_reset \$0-bar empty 17 7 0 10 #c6ffc7 #c0043c #000000;
#X obj 173 192 bng 12 250 50 0 \$0-freq2_reset \$0-bar empty 17 7 0 10 #e3c6ff #c0043c #000000;
#X obj 236 57 switch~;
#X obj 211 104 tgl 12 0 \$0-switch \$0-bar empty 17 7 0 10 #fcc4c4 #c0043c #000000 0 1;
#X msg 361 48 0;
#X obj 22 11 loadbang;
#X obj 190 104 nbx 1 12 1 9 0 0 \$0-preset \$0-preset_r empty 0 -8 0 10 #fcc4c4 #606060 #606060 0 256;
#X msg 23 44 1;
#X obj 24 74 s \$0-preset_r;
#N canvas 305 50 1027 700 makePreset 0;
#X obj 44 678 outlet message;
#X msg 44 93 preset.name;
#X obj 44 67 metro 5000;
#X obj 44 40 loadbang;
#X obj 44 611 pack s f f f f f f f f f f f f f, f 33;
#X obj 67 139 r \$0-amp1;
#X obj 81 162 r \$0-freq1;
#X obj 100 190 r \$0-harm1;
#X obj 118 219 r \$0-modifier1;
#X obj 138 246 r \$0-waveform1;
#X obj 157 271 r \$0-amp2;
#X obj 172 296 r \$0-freq2;
#X obj 188 320 r \$0-harm2;
#X obj 201 346 r \$0-modifier2;
#X obj 218 368 r \$0-waveform2;
#X obj 231 394 r \$0-modifier;
#X obj 249 428 r \$0-waveform;
#X obj 264 454 r \$0-master;
#X msg 44 644 set \$1 \$2 \$3 \$4 \$5 \$6 \$7 \$8 \$9 \$10 \$11 \$12 \$13 \$14;
#X connect 1 0 4 0;
#X connect 2 0 1 0;
#X connect 3 0 2 0;
#X connect 4 0 18 0;
#X connect 5 0 4 1;
#X connect 6 0 4 2;
#X connect 7 0 4 3;
#X connect 8 0 4 4;
#X connect 9 0 4 5;
#X connect 10 0 4 6;
#X connect 11 0 4 7;
#X connect 12 0 4 8;
#X connect 13 0 4 9;
#X connect 14 0 4 10;
#X connect 15 0 4 11;
#X connect 16 0 4 12;
#X connect 17 0 4 13;
#X connect 18 0 0 0;
#X restore 30 411 pd makePreset;
#N canvas 429 50 696 606 loadPreset 0;
#X obj 53 39 inlet message;
#X obj 66 463 s \$0-amp1_r;
#X obj 86 442 s \$0-freq1_r;
#X obj 103 423 s \$0-harm1_r;
#X obj 125 399 s \$0-modifier1_r;
#X obj 142 378 s \$0-waveform1_r;
#X obj 160 356 s \$0-amp2_r;
#X obj 178 334 s \$0-freq2_r;
#X obj 195 311 s \$0-harm2_r;
#X obj 210 289 s \$0-modifier2_r;
#X obj 231 266 s \$0-waveform2_r;
#X obj 245 246 s \$0-modifier_r;
#X obj 266 216 s \$0-waveform_r;
#X obj 288 195 s \$0-master_r;
#X obj 53 62 unpack s f f f f f f f f f f f f f;
#X connect 0 0 14 0;
#X connect 14 1 1 0;
#X connect 14 2 2 0;
#X connect 14 3 3 0;
#X connect 14 4 4 0;
#X connect 14 5 5 0;
#X connect 14 6 6 0;
#X connect 14 7 7 0;
#X connect 14 8 8 0;
#X connect 14 9 9 0;
#X connect 14 10 10 0;
#X connect 14 11 11 0;
#X connect 14 12 12 0;
#X connect 14 13 13 0;
#X restore 30 387 pd loadPreset;
#X msg 30 435 preset.name 306.667 0 0 0 0 0 0 0 0 0 0 0 0.293823;
#N canvas 569 19 679 710 presetDispenser 0;
#X obj 230 647 outlet;
#X msg 186 333;
#X msg 276 260;
#X msg 1058 350 ETHER 1 0.508022 500 0 1 1 1 0 1 0 0 1 1 0.741011 0.279741 0.01 0.01 1 15000 4054.78 4054.78 79.3701 22.1831 18.9155 0.684615 0.769231 0.615385 1.03704 0.666667 0 0.275723 0.657692 0.1 0.466835 0.636199 0.695027 1 1 1 1 1 2;
#X msg 155 354;
#X msg 216 311;
#X msg 246 285;
#X msg 97 402;
#X msg 126 376;
#X msg 300 236;
#X obj 136 28 inlet;
#X obj 136 57 sel 1 2 3 4 5 6 7 8 9;
#X msg 66 426 INIT 0 0 0 0 0 0 0 0 0 0 0 0 0;
#X connect 1 0 0 0;
#X connect 2 0 0 0;
#X connect 4 0 0 0;
#X connect 5 0 0 0;
#X connect 6 0 0 0;
#X connect 7 0 0 0;
#X connect 8 0 0 0;
#X connect 9 0 0 0;
#X connect 10 0 11 0;
#X connect 11 0 12 0;
#X connect 11 1 7 0;
#X connect 11 2 8 0;
#X connect 11 3 4 0;
#X connect 11 4 1 0;
#X connect 11 5 5 0;
#X connect 11 6 6 0;
#X connect 11 7 2 0;
#X connect 11 8 9 0;
#X connect 12 0 0 0;
#X restore 30 355 pd presetDispenser;
#X obj 30 323 r \$0-preset;
#X obj 114 495 r \$0-foo;
#X obj 115 536 s \$0-bar;
#X obj 361 24 r \$0-freq1_reset;
#X msg 388 135 0;
#X obj 388 111 r \$0-freq2_reset;
#X obj 236 26 r \$0-switch;
#X obj 104 169 cnv 3 86 3 empty empty empty 20 12 0 10 #ffffff #404040 0;
#X obj 189 120 cnv 3 3 100 empty empty empty 20 12 0 10 #ffffff #404040 0;
#X obj 361 74 s \$0-freq1_r;
#X obj 388 161 s \$0-freq2_r;
#X connect 0 0 6 0;
#X connect 1 0 4 0;
#X connect 1 1 4 1;
#X connect 1 2 4 2;
#X connect 2 0 1 0;
#X connect 2 1 1 1;
#X connect 3 0 2 0;
#X connect 4 0 0 0;
#X connect 6 0 5 0;
#X connect 7 0 8 0;
#X connect 8 0 6 1;
#X connect 9 0 7 0;
#X connect 28 0 46 0;
#X connect 29 0 31 0;
#X connect 31 0 32 0;
#X connect 33 0 35 0;
#X connect 36 0 34 0;
#X connect 37 0 36 0;
#X connect 40 0 28 0;
#X connect 41 0 47 0;
#X connect 42 0 41 0;
#X connect 43 0 26 0;
#X coords 0 -1 1 1 127 124 2 100 100;
