#N canvas -3380 -582 1231 687 10;
#X obj 444 43 inlet~;
#X obj 502 492 crossfade~;
#X obj 443 567 outlet~;
#X obj 569 429 r \$0-mix;
#X msg 569 450 \$1 50;
#X obj 569 471 line;
#X obj 503 170 *~;
#X obj 444 170 *~;
#X obj 513 82 == 0;
#X obj 566 58 r \$0-byp;
#X msg 566 103 \$1 50;
#X obj 566 124 line~;
#X msg 513 104 \$1 50;
#X obj 513 125 line~;
#N canvas 639 53 597 635 makePreset 0;
#X obj 34 559 outlet message;
#X msg 52 93 preset.name;
#X obj 52 67 metro 5000;
#X obj 52 40 loadbang;
#X obj 34 492 pack s f f f f f f f f f f f f f f f f f f f f f f;
#X obj 69 119 r \$0-lowg;
#X obj 87 142 r \$0-lowtype;
#X obj 100 164 r \$0-lowfreq;
#X obj 119 185 r \$0-lowbw;
#X obj 137 206 r \$0-lowenf;
#X obj 155 227 r \$0-highg;
#X obj 175 250 r \$0-hightype;
#X obj 194 272 r \$0-highfreq;
#X obj 207 295 r \$0-highbw;
#X obj 229 315 r \$0-highenf;
#X obj 243 338 r \$0-freq;
#X obj 299 212 r \$0-enf;
#X obj 318 233 r \$0-hish;
#X obj 336 254 r \$0-losh;
#X obj 354 275 r \$0-treble;
#X obj 374 298 r \$0-bass;
#X obj 393 320 r \$0-mix;
#X obj 406 343 r \$0-blend;
#X obj 428 363 r \$0-crossover;
#X obj 442 386 r \$0-level;
#X obj 455 407 r \$0-lowoffset;
#X obj 469 430 r \$0-highoffset;
#X msg 34 525 set \$1 \$2 \$3 \$4 \$5 \$6 \$7 \$8 \$9 \$10 \$11 \$12 \$13 \$14 \$15 \$16 \$17 \$18 \$19 \$20 \$21 \$22 \$23;
#X connect 1 0 4 0;
#X connect 2 0 1 0;
#X connect 3 0 2 0;
#X connect 4 0 27 0;
#X connect 5 0 4 1;
#X connect 6 0 4 2;
#X connect 7 0 4 3;
#X connect 8 0 4 4;
#X connect 9 0 4 5;
#X connect 10 0 4 6;
#X connect 11 0 4 7;
#X connect 12 0 4 8;
#X connect 13 0 4 9;
#X connect 14 0 4 10;
#X connect 15 0 4 11;
#X connect 16 0 4 12;
#X connect 17 0 4 13;
#X connect 18 0 4 14;
#X connect 19 0 4 15;
#X connect 20 0 4 16;
#X connect 21 0 4 17;
#X connect 22 0 4 18;
#X connect 23 0 4 19;
#X connect 24 0 4 20;
#X connect 25 0 4 21;
#X connect 26 0 4 22;
#X connect 27 0 0 0;
#X restore 796 322 pd makePreset;
#N canvas 410 139 697 431 loadPreset 0;
#X obj 53 39 inlet message;
#X obj 65 392 s \$0-lowgR;
#X obj 85 371 s \$0-lowtypeR;
#X obj 102 352 s \$0-lowfreqR;
#X obj 124 328 s \$0-lowbwR;
#X obj 141 307 s \$0-lowenfR;
#X obj 158 285 s \$0-highgR;
#X obj 181 262 s \$0-hightypeR;
#X obj 202 240 s \$0-highfreqR;
#X obj 219 219 s \$0-highbwR;
#X obj 236 197 s \$0-highenfR;
#X obj 255 174 s \$0-freqR;
#X obj 327 302 s \$0-enfR;
#X obj 347 281 s \$0-hishR;
#X obj 364 262 s \$0-loshR;
#X obj 386 238 s \$0-trebleR;
#X obj 403 217 s \$0-bassR;
#X obj 420 195 s \$0-mixR;
#X obj 443 172 s \$0-blendR;
#X obj 464 150 s \$0-crossoverR;
#X obj 478 127 s \$0-levelR;
#X obj 52 62 unpack s f f f f f f f f f f f f f f f f f f f f f f;
#X obj 498 102 s \$0-lowoffsetR;
#X obj 517 82 s \$0-highoffsetR;
#X msg 15 178 label \$1;
#X obj 15 247 s \$0-presetR;
#X connect 0 0 21 0;
#X connect 21 0 24 0;
#X connect 21 1 1 0;
#X connect 21 2 2 0;
#X connect 21 3 3 0;
#X connect 21 4 4 0;
#X connect 21 5 5 0;
#X connect 21 6 6 0;
#X connect 21 7 7 0;
#X connect 21 8 8 0;
#X connect 21 9 9 0;
#X connect 21 10 10 0;
#X connect 21 11 11 0;
#X connect 21 12 12 0;
#X connect 21 13 13 0;
#X connect 21 14 14 0;
#X connect 21 15 15 0;
#X connect 21 16 16 0;
#X connect 21 17 17 0;
#X connect 21 18 18 0;
#X connect 21 19 19 0;
#X connect 21 20 20 0;
#X connect 21 21 22 0;
#X connect 21 22 23 0;
#X connect 24 0 25 0;
#X restore 796 298 pd loadPreset;
#N canvas -1851 -229 913 705 presetDispenser 1;
#X obj 230 647 outlet;
#X msg 315 245;
#X obj 136 28 inlet;
#X msg 45 585 INIT 0 0 500 1 0.01 6 2 2000 1 0.01 1000 3 -0.01 -1 5000 100 0.5 0.5 1000 0.5 0 0, f 84;
#X msg 82 548 COOKEDWAH 55.4286 2 103.364 0.560606 24 58.8413 2 916.551 0.829293 11.3939 1040.28 -7.33333 1.45455 -17.6364 6458.04 165.527 1 0.737374 443.062 0.25644 -0.117647 0.411765, f 93;
#X msg 114 509 SCOOPCENTAUR 13.1111 0 499.946 0.999909 0.00969697 40.126 2 2000.1 0.999909 0.00969697 750.286 -16.7273 -0.00909091 -1 7599.9 173.8 0.79798 0.323232 657.933 0.571231 0 0.470588, f 91;
#X msg 147 471 AC30 32.9048 0 499.946 0.999909 0.00969697 52.4117 3 1188.84 0.481727 -24 750.286 -6.72727 6 -1 10000 500 1 0.323232 657.933 0.62676 -0.352941 0.470588, f 90;
#X msg 176 433 METAL 23.3492 3 121.006 0.483838 24 58.1587 3 100 1.13636 -11.8788 546.936 -17.6364 -10.6667 -24 10000 140.691 1 0.787879 100 0.382735 -0.117647 0.411765, f 90;
#X msg 204 396 HARDROCK 58.8413 1 1297.51 2 13.8182 30.1746 3 100 1.13636 -11.8788 1589.61 0.242424 -0.363636 -17.3333 6734.15 182.487 1 0 5000 0.382735 0.352941 0.411765, f 90;
#X msg 229 359 BREAKUPCLEAN 22.8571 0 500 0.999909 0.00969697 40.9206 2 1999.86 0.999909 0.00969697 615.773 2.66667 -2.48485 -19.4545 10000 34.76 0.621212 0.484848 961.232 0.5 0 0.294118, f 87;
#X msg 266 324 VINTCRUNCH 26.6667 0 499.946 0.999909 0.00969697 37.4603 2 2000.1 1.15556 -0.242424 368.403 -1.87879 0.848485 -6.42424 5722.37 20 1 0.878788 1357.21 0.571231 -0.411765 0.470588, f 91;
#X obj 136 54 sel 0 1 2 3 4 5 6 7 8 9 10 11 12 13;
#X msg 363 169;
#X msg 337 204;
#X msg 408 96;
#X msg 382 132;
#X msg 290 286 RESOCRUNCH 80 0 500 1 0.01 28.2828 0 2180.63 1.23232 17.697 3644.85 1.75758 0.242424 -15.5152 5336.7 131.833 1 0.606061 2180.63 0.205651 0.353535 -0.313131, f 91;
#X connect 1 0 0 0;
#X connect 2 0 11 0;
#X connect 3 0 0 0;
#X connect 4 0 0 0;
#X connect 5 0 0 0;
#X connect 6 0 0 0;
#X connect 7 0 0 0;
#X connect 8 0 0 0;
#X connect 9 0 0 0;
#X connect 10 0 0 0;
#X connect 11 0 3 0;
#X connect 11 1 4 0;
#X connect 11 2 5 0;
#X connect 11 3 6 0;
#X connect 11 4 7 0;
#X connect 11 5 8 0;
#X connect 11 6 9 0;
#X connect 11 7 10 0;
#X connect 11 8 16 0;
#X connect 11 9 1 0;
#X connect 11 10 13 0;
#X connect 11 11 12 0;
#X connect 11 12 15 0;
#X connect 11 13 14 0;
#X connect 12 0 0 0;
#X connect 13 0 0 0;
#X connect 14 0 0 0;
#X connect 15 0 0 0;
#X connect 16 0 0 0;
#X restore 796 266 pd presetDispenser;
#X obj 796 234 r \$0-preset;
#X obj 796 102 loadbang;
#X obj 796 195 s \$0-presetR;
#X msg 796 140 0;
#X obj 808 170 s \$0-bypR;
#N canvas -1591 -551 450 474 DISTORTION 0;
#X obj 90 17 inlet~;
#X obj 231 426 outlet~;
#X obj 90 90 lop~;
#X obj 90 110 lop~;
#X obj 178 26 r \$0-crossover;
#X obj 265 88 hip~;
#X obj 265 108 hip~;
#X obj 90 219 *~;
#X msg 108 178 \$1 50;
#X obj 108 199 line~;
#X obj 108 136 r \$0-lowg;
#X obj 264 219 *~;
#X msg 282 178 \$1 50;
#X obj 282 199 line~;
#X obj 282 134 r \$0-highg;
#N canvas 305 267 481 376 distlow 0;
#X obj 128 14 inlet~;
#X obj 84 352 outlet~;
#X obj 84 330 bq_lowpass~ 18000;
#X obj 7 246 r \$0-lowtype;
#X obj 103 263 == 0;
#X obj 85 283 *~;
#X obj 145 283 *~;
#X obj 205 283 *~;
#X obj 265 283 *~;
#X obj 325 283 *~;
#X obj 163 263 == 1;
#X obj 223 263 == 2;
#X obj 283 263 == 3;
#X obj 343 263 == 4;
#X obj 85 118 expr~ atan($v1);
#X msg 221 38 \$1 50;
#X obj 221 59 line~;
#X obj 203 79 +~;
#X obj 145 142 expr~ tanh($v1);
#X obj 324 189 clip~ -1 1;
#X obj 221 17 r \$0-lowoffset;
#X obj 352 19 r \$0-byp;
#X obj 352 49 switch~ 64 1 2;
#X obj 266 222 expr~ 1.333*($v1-pow($v1 \, 3)/3);
#X obj 206 166 expr~ 2*$v1/(1+abs($v1));
#X connect 0 0 17 0;
#X connect 2 0 1 0;
#X connect 3 0 4 0;
#X connect 3 0 10 0;
#X connect 3 0 11 0;
#X connect 3 0 12 0;
#X connect 3 0 13 0;
#X connect 4 0 5 1;
#X connect 5 0 2 0;
#X connect 6 0 2 0;
#X connect 7 0 2 0;
#X connect 8 0 2 0;
#X connect 9 0 2 0;
#X connect 10 0 6 1;
#X connect 11 0 7 1;
#X connect 12 0 8 1;
#X connect 13 0 9 1;
#X connect 14 0 5 0;
#X connect 15 0 16 0;
#X connect 16 0 17 1;
#X connect 17 0 14 0;
#X connect 17 0 18 0;
#X connect 17 0 19 0;
#X connect 17 0 24 0;
#X connect 18 0 6 0;
#X connect 19 0 9 0;
#X connect 19 0 23 0;
#X connect 20 0 15 0;
#X connect 21 0 22 0;
#X connect 23 0 8 0;
#X connect 24 0 7 0;
#X restore 90 308 pd distlow;
#N canvas 305 267 481 376 disthigh 0;
#X obj 128 14 inlet~;
#X obj 84 352 outlet~;
#X obj 84 330 bq_lowpass~ 18000;
#X obj 103 263 == 0;
#X obj 85 283 *~;
#X obj 145 283 *~;
#X obj 205 283 *~;
#X obj 265 283 *~;
#X obj 325 283 *~;
#X obj 163 263 == 1;
#X obj 223 263 == 2;
#X obj 283 263 == 3;
#X obj 343 263 == 4;
#X obj 85 118 expr~ atan($v1);
#X msg 221 38 \$1 50;
#X obj 221 59 line~;
#X obj 203 79 +~;
#X obj 145 142 expr~ tanh($v1);
#X obj 325 189 clip~ -1 1;
#X obj 352 19 r \$0-byp;
#X obj 352 49 switch~ 64 1 2;
#X obj 7 246 r \$0-hightype;
#X obj 221 17 r \$0-highoffset;
#X obj 266 222 expr~ 1.333*($v1-pow($v1 \, 3)/3);
#X obj 204 166 expr~ 2*$v1/(1+abs($v1));
#X connect 0 0 16 0;
#X connect 2 0 1 0;
#X connect 3 0 4 1;
#X connect 4 0 2 0;
#X connect 5 0 2 0;
#X connect 6 0 2 0;
#X connect 7 0 2 0;
#X connect 8 0 2 0;
#X connect 9 0 5 1;
#X connect 10 0 6 1;
#X connect 11 0 7 1;
#X connect 12 0 8 1;
#X connect 13 0 4 0;
#X connect 14 0 15 0;
#X connect 15 0 16 1;
#X connect 16 0 13 0;
#X connect 16 0 17 0;
#X connect 16 0 18 0;
#X connect 16 0 24 0;
#X connect 17 0 5 0;
#X connect 18 0 8 0;
#X connect 18 0 23 0;
#X connect 19 0 20 0;
#X connect 21 0 3 0;
#X connect 21 0 9 0;
#X connect 21 0 10 0;
#X connect 21 0 11 0;
#X connect 21 0 12 0;
#X connect 22 0 14 0;
#X connect 23 0 7 0;
#X connect 24 0 6 0;
#X restore 264 308 pd disthigh;
#X obj 90 283 bq_peak~;
#X obj 117 219 r \$0-lowfreq;
#X obj 144 238 r \$0-lowbw;
#X obj 171 257 r \$0-lowenf;
#X obj 264 283 bq_peak~;
#X obj 291 219 r \$0-highfreq;
#X obj 318 238 r \$0-highbw;
#X obj 345 257 r \$0-highenf;
#X obj 230 397 crossfade~;
#X msg 297 354 \$1 50;
#X obj 297 375 line;
#X obj 297 333 r \$0-blend;
#X obj 108 157 expr pow(10 \, $f1/20);
#X obj 282 155 expr pow(10 \, $f1/20);
#X connect 0 0 2 0;
#X connect 0 0 5 0;
#X connect 2 0 3 0;
#X connect 3 0 7 0;
#X connect 4 0 2 1;
#X connect 4 0 3 1;
#X connect 4 0 5 1;
#X connect 4 0 6 1;
#X connect 5 0 6 0;
#X connect 6 0 11 0;
#X connect 7 0 17 0;
#X connect 8 0 9 0;
#X connect 9 0 7 1;
#X connect 10 0 29 0;
#X connect 11 0 21 0;
#X connect 12 0 13 0;
#X connect 13 0 11 1;
#X connect 14 0 30 0;
#X connect 15 0 25 0;
#X connect 16 0 25 1;
#X connect 17 0 15 0;
#X connect 18 0 17 1;
#X connect 19 0 17 2;
#X connect 20 0 17 3;
#X connect 21 0 16 0;
#X connect 22 0 21 1;
#X connect 23 0 21 2;
#X connect 24 0 21 3;
#X connect 25 0 1 0;
#X connect 26 0 27 0;
#X connect 27 0 25 2;
#X connect 28 0 26 0;
#X connect 29 0 8 0;
#X connect 30 0 12 0;
#X restore 535 248 pd DISTORTION;
#X obj 534 216 bq_highshelving~ 2000;
#X obj 659 169 r \$0-losh;
#X obj 659 193 r \$0-hish;
#X obj 535 293 hip~;
#X obj 535 317 lop~;
#X msg 639 495 \$1 50;
#X obj 639 516 line~;
#X obj 639 474 r \$0-level;
#X obj 502 532 *~;
#X obj 575 276 r \$0-bass;
#X obj 575 300 r \$0-treble;
#X obj 616 376 r \$0-enf;
#X obj 534 192 bq_lowshelving~ 100;
#X obj 535 402 bq_peak~;
#X obj 562 349 r \$0-freq;
#X obj 502 461 *~ 10;
#X msg 796 346 preset.name 80 0 500 1 0.01 28.2828 0 2180.63 1.23232 17.697 3644.85 1.75758 0.242424 -15.5152 5336.7 131.833 1 0.606061 2180.63 0.205651 0.353535 -0.313131;
#X obj 101 101 cnv 16 312 268 empty empty SculptDrive 10 15 0 14 #ffffff #000000 0;
#X obj 393 111 tgl 10 0 \$0-byp \$0-bypR Enable -40 5 0 10 #fcfcfc #000000 #000000 0 1;
#X obj 110 138 hradio 10 1 0 14 \$0-preset \$0-presetR INIT 2 -7 0 10 #fcfcfc #000000 #000000 0;
#X obj 113 255 hsl 100 10 50 5000 1 0 \$0-lowfreq \$0-lowfreqR Freq 105 5 0 10 #fcfcfc #000000 #000000 0 1;
#X obj 263 348 hsl 100 10 -24 6 0 0 \$0-enf \$0-enfR Reso 105 5 0 10 #fcfcfc #000000 #000000 0 1;
#X obj 113 265 hsl 100 10 0.1 2 0 0 \$0-lowbw \$0-lowbwR BW 105 5 0 10 #fcfcfc #000000 #000000 0 1;
#X obj 113 275 hsl 100 10 -24 24 0 0 \$0-lowenf \$0-lowenfR Reso 105 5 0 10 #fcfcfc #000000 #000000 0 1;
#X obj 113 178 hsl 100 10 -24 6 0 0 \$0-losh \$0-loshR Lows 105 5 0 10 #fcfcfc #000000 #000000 0 1;
#X obj 113 235 hsl 100 10 -1 1 0 0 \$0-lowoffset \$0-lowoffsetR Bias 105 5 0 10 #fcfcfc #000000 #000000 0 1;
#X obj 263 178 hsl 100 10 -24 6 0 0 \$0-hish \$0-hishR Highs 105 5 0 10 #fcfcfc #000000 #000000 0 1;
#X obj 113 348 hsl 100 10 1000 10000 1 0 \$0-treble \$0-trebleR Treble 105 5 0 10 #fcfcfc #000000 #000000 0 1;
#X obj 113 225 hsl 100 10 0 80 0 0 \$0-lowg \$0-lowgR Gain 105 5 0 10 #fcfcfc #000000 #000000 0 1;
#X obj 263 338 hsl 100 10 100 5000 1 0 \$0-freq \$0-freqR Freq 105 5 0 10 #fcfcfc #000000 #000000 0 1;
#X obj 113 298 hsl 100 10 0 1 0 0 \$0-blend \$0-blendR Blend 105 5 0 10 #fcfcfc #000000 #000000 0 1;
#X obj 165 215 hradio 10 1 0 5 \$0-lowtype \$0-lowtypeR Shape 53 5 0 10 #fcfcfc #000000 #000000 0;
#X obj 101 198 cnv 10 1 1 empty empty ==\ Drive\ Low\ =======\ Drive\ High\ ======= 0 5 0 14 #fcfcfc #000000 0;
#X obj 101 320 cnv 10 1 1 empty empty ==\ Post\ Filters\ ======================= 0 5 0 14 #fcfcfc #000000 0;
#X obj 263 128 hsl 100 10 0.01 1 1 0 \$0-level \$0-levelR Level 105 5 0 10 #fcfcfc #000000 #000000 0 1;
#X obj 263 255 hsl 100 10 100 5000 1 0 \$0-highfreq \$0-highfreqR Freq 105 5 0 10 #fcfcfc #000000 #000000 0 1;
#X obj 263 265 hsl 100 10 0.1 2 0 0 \$0-highbw \$0-highbwR BW 105 5 0 10 #fcfcfc #000000 #000000 0 1;
#X obj 263 275 hsl 100 10 -24 24 0 0 \$0-highenf \$0-highenfR Reso 105 5 0 10 #fcfcfc #000000 #000000 0 1;
#X obj 263 235 hsl 100 10 -1 1 0 0 \$0-highoffset \$0-highoffsetR Bias 105 5 0 10 #fcfcfc #000000 #000000 0 1;
#X obj 263 225 hsl 100 10 0 80 0 0 \$0-highg \$0-highgR Gain 105 5 0 10 #fcfcfc #000000 #000000 0 1;
#X obj 315 215 hradio 10 1 0 5 \$0-hightype \$0-hightypeR Shape 53 5 0 10 #fcfcfc #000000 #000000 0;
#X obj 113 338 hsl 100 10 500 20 1 0 \$0-bass \$0-bassR Bass 105 5 0 10 #fcfcfc #000000 #000000 0 1;
#X obj 101 160 cnv 10 1 1 empty empty ==\ Pre\ Filters\ ======================== 0 5 0 14 #fcfcfc #000000 0;
#X obj 263 138 hsl 100 10 0 1 0 0 \$0-mix \$0-mixR Mix 105 5 0 10 #fcfcfc #000000 #000000 0 1;
#X obj 263 298 hsl 100 10 100 5000 1 0 \$0-crossover \$0-crossoverR Cross 105 5 0 10 #fcfcfc #000000 #000000 0 1;
#X connect 0 0 6 0;
#X connect 0 0 7 0;
#X connect 1 0 31 0;
#X connect 3 0 4 0;
#X connect 4 0 5 0;
#X connect 5 0 1 2;
#X connect 6 0 35 0;
#X connect 6 0 38 0;
#X connect 7 0 2 0;
#X connect 8 0 12 0;
#X connect 9 0 10 0;
#X connect 9 0 8 0;
#X connect 10 0 11 0;
#X connect 11 0 6 1;
#X connect 12 0 13 0;
#X connect 13 0 7 1;
#X connect 14 0 39 0;
#X connect 16 0 15 0;
#X connect 17 0 16 0;
#X connect 18 0 20 0;
#X connect 20 0 19 0;
#X connect 20 0 21 0;
#X connect 22 0 26 0;
#X connect 23 0 22 0;
#X connect 24 0 35 2;
#X connect 25 0 23 2;
#X connect 26 0 27 0;
#X connect 27 0 36 0;
#X connect 28 0 29 0;
#X connect 29 0 31 1;
#X connect 30 0 28 0;
#X connect 31 0 2 0;
#X connect 32 0 26 1;
#X connect 33 0 27 1;
#X connect 34 0 36 3;
#X connect 35 0 23 0;
#X connect 36 0 1 1;
#X connect 37 0 36 1;
#X connect 38 0 1 0;
#X coords 0 -1 1 1 314 270 2 100 100;
