#N canvas 137 50 1117 681 10;
#X obj 582 499 i;
#X obj 610 499 + 1;
#X floatatom 583 541 5 0 0 0 - - -;
#X msg 615 414 0, f 2;
#X obj 774 610 tabwrite plot-\$0;
#X obj 583 562 t f f;
#X obj 661 378 sel 1023;
#X obj 583 586 / 1023;
#X obj 583 609 s \$0-normindex;
#X obj 692 609 s \$0-index;
#X obj 883 581 r \$0-index;
#X obj 178 279 r \$0-normindex;
#X obj 507 241 loadbang;
#X obj 289 645 s \$0-module;
#X obj 753 328 r \$0-module;
#X obj 377 592 tabwrite~ window-\$0;
#X obj 330 547 bang;
#X obj 289 620 array max window-\$0;
#X obj 330 573 t b b;
#X msg 582 415 1, f 2;
#X msg 535 438 0, f 2;
#X obj 548 385 t b b;
#X obj 753 386 expr 20*log10($f1);
#X obj 56 570 outlet~;
#X obj 322 444 inlet~;
#X obj 377 481 osc~;
#X obj 101 101 cnv 15 358 122 empty empty FrequencyResponse~ 52 11
1 12 -261682 -1 0;
#X obj 409 103 nbx 5 12 0.1 20 0 0 \$0-speed \$0-foo Time 0 17 1 10
-4160 -4034 -1 5 256;
#X obj 409 131 nbx 5 12 0 100 0 0 \$0-y_max \$0-foo Y-max 0 17 1 10
-4160 -4034 -1 12 256;
#X obj 409 154 nbx 5 12 -99 0 0 0 \$0-y_min \$0-foo Y-min 0 17 1 10
-4160 -4034 -1 -24 256;
#X obj 409 177 nbx 5 12 10 30000 0 0 \$0-x_max \$0-foo X-max 0 17 1
10 -4160 -4034 -1 20000 256;
#X obj 409 200 nbx 5 12 1 20000 0 0 \$0-x_min \$0-foo X-min 0 17 1
10 -4160 -4034 -1 20 256;
#X obj 497 6 loadbang;
#X msg 406 37 5;
#X obj 613 278 r \$0-speed;
#X obj 814 416 r \$0-y_max;
#X obj 305 103 hradio 12 1 0 4 \$0-block \$0-foo Block 0 17 1 10 -4160
-4034 -1 0;
#X obj 886 61 r \$0-block;
#X obj 549 363 r \$0-run;
#X msg 816 188 resize \$1;
#X obj 582 454 metro;
#X obj 886 89 sel 0 1 2 3;
#X obj 746 303 array size plot-\$0;
#X obj 710 250 r \$0-size;
#X obj 710 303 - 1;
#X obj 357 103 nbx 5 12 100 99999 0 0 \$0-size \$0-foo Size 0 17 1
10 -4160 -4034 -1 1000 256;
#X obj 279 103 bng 20 250 50 0 \$0-run \$0-foo ! 9 10 1 10 -4160 -4034
-4034;
#X obj 774 577 clip -1 1;
#X obj 1000 389 r \$0-y_min;
#X obj 731 450 +;
#X obj 762 473 t b f;
#X obj 753 425 t b f;
#X obj 967 411 t b f;
#X obj 753 356 max 1e-008;
#X obj 814 440 expr 2/(abs($f1)+abs($f2));
#X obj 753 504 *;
#X obj 839 464 expr -($f1+$f2)/2;
#X obj 93 332 s \$0-place;
#X obj 839 533 s \$0-zero;
#X obj 839 514 *;
#X obj 839 490 t b f;
#X obj 107 212 hsl 295 8 0 1 0 0 \$0-bar \$0-place empty -2 -8 0 10
-4160 -4034 -1 19500 1;
#X obj 104 128 vsl 300 85 -1 1 0 0 \$0-bar \$0-zero empty 0 -9 0 10
-203904 -204786 -1 5600 1;
#N canvas 197 95 687 431 (subpatch) 0;
#X array plot-\$0 1000 float 4;
#X coords 0 1 999 -1 300 90 2 0 0;
#X restore 104 126 graph;
#N canvas 468 198 450 300 logsweep 0;
#X obj 184 203 pow;
#X obj 184 177 t b f;
#X obj 226 64 r \$0-x_min;
#X obj 110 69 r \$0-x_max;
#X obj 157 156 /;
#X obj 232 235 *;
#X obj 226 116 t b f;
#X obj 196 18 inlet;
#X obj 232 263 outlet;
#X connect 0 0 5 0;
#X connect 1 0 0 0;
#X connect 1 1 0 1;
#X connect 2 0 6 0;
#X connect 3 0 4 0;
#X connect 4 0 0 0;
#X connect 5 0 8 0;
#X connect 6 0 4 0;
#X connect 6 1 4 1;
#X connect 6 1 5 1;
#X connect 7 0 1 0;
#X restore 384 355 pd logsweep;
#N canvas 468 182 450 316 linsweep 0;
#X obj 254 47 r \$0-x_min;
#X obj 175 46 r \$0-x_max;
#X obj 114 47 inlet;
#X obj 227 247 outlet;
#X obj 228 139 -;
#X obj 228 112 t b f;
#X obj 210 183 *;
#X obj 210 160 t b f;
#X obj 227 219 +;
#X connect 0 0 5 0;
#X connect 1 0 4 0;
#X connect 2 0 6 0;
#X connect 4 0 7 0;
#X connect 5 0 4 0;
#X connect 5 0 8 0;
#X connect 5 1 4 1;
#X connect 5 1 8 1;
#X connect 6 0 8 0;
#X connect 7 0 6 0;
#X connect 7 1 6 1;
#X connect 8 0 3 0;
#X restore 292 356 pd linsweep;
#X obj 315 389 spigot;
#X obj 384 388 spigot;
#X obj 345 115 tgl 8 0 \$0-sweep \$0-foo empty 17 7 1 10 -4160 -4034
-1 0 1;
#X obj 395 271 r \$0-sweep;
#X obj 412 313 == 0;
#X msg 264 32 0;
#X obj 375 445 line~;
#X obj 375 420 pack;
#X obj 377 561 abs~;
#X obj 974 204 block~;
#X obj 710 272 i;
#N canvas 468 198 450 300 logsweep 0;
#X obj 184 203 pow;
#X obj 184 177 t b f;
#X obj 226 64 r \$0-x_min;
#X obj 110 69 r \$0-x_max;
#X obj 157 156 /;
#X obj 232 235 *;
#X obj 226 116 t b f;
#X obj 196 18 inlet;
#X obj 232 263 outlet;
#X connect 0 0 5 0;
#X connect 1 0 0 0;
#X connect 1 1 0 1;
#X connect 2 0 6 0;
#X connect 3 0 4 0;
#X connect 4 0 0 0;
#X connect 5 0 8 0;
#X connect 6 0 4 0;
#X connect 6 1 4 1;
#X connect 6 1 5 1;
#X connect 7 0 1 0;
#X restore 203 479 pd logsweep;
#N canvas 468 182 450 316 linsweep 0;
#X obj 254 47 r \$0-x_min;
#X obj 175 46 r \$0-x_max;
#X obj 114 47 inlet;
#X obj 227 247 outlet;
#X obj 228 139 -;
#X obj 228 112 t b f;
#X obj 210 183 *;
#X obj 210 160 t b f;
#X obj 227 219 +;
#X connect 0 0 5 0;
#X connect 1 0 4 0;
#X connect 2 0 6 0;
#X connect 4 0 7 0;
#X connect 5 0 4 0;
#X connect 5 0 8 0;
#X connect 5 1 4 1;
#X connect 5 1 8 1;
#X connect 6 0 8 0;
#X connect 7 0 6 0;
#X connect 7 1 6 1;
#X connect 8 0 3 0;
#X restore 111 480 pd linsweep;
#X obj 135 522 spigot;
#X obj 203 512 spigot;
#X obj 214 395 r \$0-sweep;
#X obj 231 437 == 0;
#X obj 170 600 outlet;
#X msg 974 180 set \$1 1 1;
#X obj 816 224 array define window-\$0 2048;
#X obj 696 23 r \$0-size;
#X obj 696 45 i;
#X obj 640 85 t b f;
#X msg 313 34 1000;
#X obj 696 68 / 64;
#X obj 621 111 f \$0;
#X msg 572 197 \; plot-\$1 yticks 0 0.1 5;
#X obj 621 137 pack f f;
#X msg 621 159 \; plot-\$1 xticks 0 \$2 8;
#X msg 566 59 20;
#X msg 523 52 20000;
#X msg 217 32 0;
#X obj 22 443 tabread plot-\$0;
#X obj 170 575 pack;
#X obj 192 551 t b f;
#X obj 26 403 i;
#X obj 28 314 *;
#N canvas 607 233 597 300 linear 0;
#X obj 78 47 inlet;
#X obj 227 247 outlet;
#X obj 211 112 t b f;
#X obj 210 183 *;
#X obj 210 160 t b f;
#X obj 78 115 / 2;
#X obj 78 95 + 1;
#X obj 211 139 -;
#X obj 227 219 +;
#X obj 142 46 r \$0-y_max;
#X obj 225 46 r \$0-y_min;
#X connect 0 0 6 0;
#X connect 2 0 7 0;
#X connect 2 0 8 0;
#X connect 2 1 7 1;
#X connect 2 1 8 1;
#X connect 3 0 8 0;
#X connect 4 0 3 0;
#X connect 4 1 3 1;
#X connect 5 0 3 0;
#X connect 6 0 5 0;
#X connect 7 0 4 0;
#X connect 8 0 1 0;
#X connect 9 0 7 0;
#X connect 10 0 2 0;
#X restore 22 502 pd linear;
#X obj 64 284 r \$0-size;
#X text 978 570 Michele Abruzzese;
#X text 1006 591 @michezio;
#X text 1002 611 2017.07.25;
#X obj 104 114 cnv 10 45 10 empty empty empty 54 11 1 12 -261682 -1
0;
#X msg 853 119 512;
#X msg 897 118 1024;
#X msg 958 120 2048;
#X msg 1007 121 4096;
#X msg 444 41 12;
#X msg 484 47 -24;
#X obj 104 104 bng 8 250 50 0 \$0-stop \$0-foo empty 17 7 0 10 -258113
-4034 -1;
#X obj 629 341 r \$0-stop;
#X connect 0 0 1 0;
#X connect 0 0 2 0;
#X connect 0 0 6 0;
#X connect 1 0 0 1;
#X connect 2 0 5 0;
#X connect 3 0 8 0;
#X connect 3 0 40 0;
#X connect 5 0 7 0;
#X connect 5 1 9 0;
#X connect 6 0 3 0;
#X connect 7 0 8 0;
#X connect 10 0 4 1;
#X connect 11 0 16 0;
#X connect 11 0 57 0;
#X connect 11 0 64 0;
#X connect 11 0 65 0;
#X connect 12 0 3 0;
#X connect 14 0 53 0;
#X connect 16 0 18 0;
#X connect 17 0 13 0;
#X connect 18 0 17 0;
#X connect 18 1 15 0;
#X connect 19 0 40 0;
#X connect 20 0 0 0;
#X connect 20 0 25 1;
#X connect 21 0 19 0;
#X connect 21 1 20 0;
#X connect 22 0 49 0;
#X connect 24 0 74 0;
#X connect 25 0 23 0;
#X connect 32 0 33 0;
#X connect 32 0 114 0;
#X connect 32 0 113 0;
#X connect 32 0 95 0;
#X connect 32 0 96 0;
#X connect 32 0 97 0;
#X connect 32 0 89 0;
#X connect 32 0 71 0;
#X connect 33 0 27 0;
#X connect 34 0 40 1;
#X connect 34 0 73 1;
#X connect 35 0 54 0;
#X connect 35 0 56 0;
#X connect 37 0 41 0;
#X connect 38 0 21 0;
#X connect 39 0 85 0;
#X connect 40 0 0 0;
#X connect 41 0 109 0;
#X connect 41 1 110 0;
#X connect 41 2 111 0;
#X connect 41 3 112 0;
#X connect 43 0 76 0;
#X connect 44 0 6 1;
#X connect 44 0 7 1;
#X connect 47 0 4 0;
#X connect 48 0 52 0;
#X connect 49 0 55 0;
#X connect 50 0 55 0;
#X connect 50 1 55 1;
#X connect 51 0 49 0;
#X connect 51 1 49 1;
#X connect 52 0 54 0;
#X connect 52 0 56 0;
#X connect 52 1 54 1;
#X connect 52 1 56 1;
#X connect 53 0 22 0;
#X connect 54 0 50 0;
#X connect 54 0 59 0;
#X connect 55 0 47 0;
#X connect 56 0 51 0;
#X connect 56 0 60 0;
#X connect 59 0 58 0;
#X connect 60 0 59 0;
#X connect 60 1 59 1;
#X connect 61 0 78 0;
#X connect 61 0 77 0;
#X connect 61 0 102 0;
#X connect 64 0 67 0;
#X connect 65 0 66 0;
#X connect 66 0 73 0;
#X connect 67 0 73 0;
#X connect 69 0 66 1;
#X connect 69 0 70 0;
#X connect 70 0 67 1;
#X connect 71 0 68 0;
#X connect 72 0 25 0;
#X connect 73 0 72 0;
#X connect 74 0 15 0;
#X connect 76 0 44 0;
#X connect 76 0 42 0;
#X connect 77 0 80 0;
#X connect 78 0 79 0;
#X connect 79 0 99 0;
#X connect 80 0 99 0;
#X connect 81 0 79 1;
#X connect 81 0 82 0;
#X connect 82 0 80 1;
#X connect 84 0 75 0;
#X connect 86 0 87 0;
#X connect 87 0 90 0;
#X connect 88 0 91 0;
#X connect 88 1 93 1;
#X connect 89 0 45 0;
#X connect 90 0 88 0;
#X connect 91 0 92 0;
#X connect 91 0 93 0;
#X connect 93 0 94 0;
#X connect 95 0 31 0;
#X connect 96 0 30 0;
#X connect 97 0 36 0;
#X connect 98 0 103 0;
#X connect 99 0 83 0;
#X connect 100 0 99 0;
#X connect 100 1 99 1;
#X connect 101 0 98 0;
#X connect 102 0 101 0;
#X connect 103 0 100 0;
#X connect 104 0 102 1;
#X connect 109 0 39 0;
#X connect 109 0 84 0;
#X connect 110 0 39 0;
#X connect 110 0 84 0;
#X connect 111 0 39 0;
#X connect 111 0 84 0;
#X connect 112 0 39 0;
#X connect 112 0 84 0;
#X connect 113 0 28 0;
#X connect 114 0 29 0;
#X connect 116 0 3 0;
#X coords 0 -1 1 1 360 124 1 100 100;
