#N canvas 202 458 600 397 12;
#X obj 453 183 t b f;
#X obj 387 216 +;
#X obj 387 241 t b f;
#X obj 387 272 +;
#X obj 310 160 * -65536;
#X obj 387 161 * -256;
#X obj 453 161 * -1;
#X obj 387 303 - 1;
#X obj 387 339 outlet;
#X obj 310 134 i;
#X obj 387 134 i;
#X obj 453 134 i;
#X obj 396 17 inlet;
#X obj 396 42 * 2.55;
#X obj 310 111 +;
#X obj 310 81 t b f;
#X obj 387 109 +;
#X obj 387 79 t b f;
#X obj 453 108 +;
#X obj 453 78 t b f;
#X obj 207 172 t b f;
#X obj 141 205 +;
#X obj 141 230 t b f;
#X obj 141 261 +;
#X obj 64 149 * -65536;
#X obj 141 150 * -256;
#X obj 207 150 * -1;
#X obj 141 292 - 1;
#X obj 141 339 outlet;
#X obj 64 123 i;
#X obj 141 123 i;
#X obj 207 123 i;
#X text 139 364 color;
#X text 382 371 chased;
#X obj 29 16 inlet;
#X text 75 16 red;
#X obj 115 15 inlet;
#X text 162 14 green;
#X obj 219 16 inlet;
#X text 267 16 blue;
#X text 451 16 chaser [%];
#X connect 0 0 1 0;
#X connect 0 1 1 1;
#X connect 1 0 2 0;
#X connect 2 0 3 0;
#X connect 2 1 3 1;
#X connect 3 0 7 0;
#X connect 4 0 3 0;
#X connect 5 0 1 0;
#X connect 6 0 0 0;
#X connect 7 0 8 0;
#X connect 9 0 4 0;
#X connect 10 0 5 0;
#X connect 11 0 6 0;
#X connect 12 0 13 0;
#X connect 13 0 15 0;
#X connect 13 0 17 0;
#X connect 13 0 19 0;
#X connect 14 0 9 0;
#X connect 15 0 14 0;
#X connect 15 1 14 1;
#X connect 16 0 10 0;
#X connect 17 0 16 0;
#X connect 17 1 16 1;
#X connect 18 0 11 0;
#X connect 19 0 18 0;
#X connect 19 1 18 1;
#X connect 20 0 21 0;
#X connect 20 1 21 1;
#X connect 21 0 22 0;
#X connect 22 0 23 0;
#X connect 22 1 23 1;
#X connect 23 0 27 0;
#X connect 24 0 23 0;
#X connect 25 0 21 0;
#X connect 26 0 20 0;
#X connect 27 0 28 0;
#X connect 29 0 24 0;
#X connect 30 0 25 0;
#X connect 31 0 26 0;
#X connect 34 0 14 0;
#X connect 34 0 29 0;
#X connect 36 0 16 0;
#X connect 36 0 30 0;
#X connect 38 0 18 0;
#X connect 38 0 31 0;
#X coords 0 397 1 396 80 49 0;
