#N canvas 323 135 874 710 10;
#X obj 611 301 whitekey 108;
#X obj 121 301 layout_octave;
#X obj 100 27 inlet;
#X obj 100 55 list append 1;
#X obj 210 27 inlet;
#X obj 210 55 list append 2;
#X obj 320 27 inlet;
#X obj 430 27 inlet;
#X obj 320 55 list append 3;
#X obj 430 55 list append 4;
#X obj 276 182 route 0 1 2 3 4 5 6 7 8;
#N canvas 0 50 450 300 repack 0;
#X obj 143 107 div 12;
#X obj 192 107 mod 12;
#X obj 190 77 unpack f f f f;
#X obj 143 129 - 1;
#X obj 245 107 > 0;
#X obj 192 128 + 1;
#X obj 177 207 pack f f f f;
#X msg 144 154 set \$1;
#X msg 191 154 set \$1;
#X msg 244 154 set \$1;
#X msg 294 154 set \$1;
#X msg 145 180 3;
#X msg 192 180 8;
#X msg 245 180 0;
#X msg 295 180 1;
#X obj 54 127 t b b b b;
#X obj 190 36 inlet;
#X obj 177 253 outlet;
#X connect 0 0 3 0;
#X connect 1 0 5 0;
#X connect 2 0 15 0;
#X connect 2 1 0 0;
#X connect 2 1 1 0;
#X connect 2 2 4 0;
#X connect 2 3 10 0;
#X connect 3 0 7 0;
#X connect 4 0 9 0;
#X connect 5 0 8 0;
#X connect 6 0 17 0;
#X connect 7 0 11 0;
#X connect 8 0 12 0;
#X connect 9 0 13 0;
#X connect 10 0 14 0;
#X connect 11 0 6 0;
#X connect 12 0 6 1;
#X connect 13 0 6 2;
#X connect 14 0 6 3;
#X connect 15 0 11 0;
#X connect 15 1 12 0;
#X connect 15 2 13 0;
#X connect 15 3 14 0;
#X connect 16 0 2 0;
#X restore 281 133 pd repack;
#X obj 80 245 route 10 11 12;
#X obj 191 301 layout_octave;
#X obj 261 301 layout_octave;
#X obj 331 301 layout_octave;
#X obj 401 301 layout_octave;
#X obj 471 301 layout_octave;
#X obj 541 301 layout_octave;
#X obj 560 256 route 1;
#N canvas 0 50 450 300 first 0;
#X obj 100 100 whitekey 21;
#X obj 110 100 whitekey 22;
#X obj 73 51 inlet;
#X obj 186 54 inlet;
#X connect 2 0 0 0;
#X connect 3 0 1 0;
#X coords 0 -1 1 1 20 25 2 100 100;
#X restore 101 301 pd first;
#X obj 108 301 blackkey 22;
#X connect 2 0 3 0;
#X connect 3 0 11 0;
#X connect 4 0 5 0;
#X connect 5 0 11 0;
#X connect 6 0 8 0;
#X connect 7 0 9 0;
#X connect 8 0 11 0;
#X connect 9 0 11 0;
#X connect 10 0 12 0;
#X connect 10 1 1 0;
#X connect 10 2 13 0;
#X connect 10 3 14 0;
#X connect 10 4 15 0;
#X connect 10 5 16 0;
#X connect 10 6 17 0;
#X connect 10 7 18 0;
#X connect 10 8 19 0;
#X connect 11 0 10 0;
#X connect 12 0 20 0;
#X connect 12 1 21 0;
#X connect 12 2 20 1;
#X connect 19 0 0 0;
#X coords 0 -1 1 1 522 27 2 100 300;
