#N canvas 277 93 636 426 10;
#X obj 100 27 inlet;
#X obj 100 55 list append 1;
#X obj 210 27 inlet;
#X obj 210 55 list append 2;
#X obj 320 27 inlet;
#X obj 430 27 inlet;
#X obj 320 55 list append 3;
#X obj 430 55 list append 4;
#X obj 276 182 route 0 1 2 3 4 5 6 7 8;
#N canvas 0 50 450 300 repack 0;
#X obj 143 107 div 12;
#X obj 192 107 mod 12;
#X obj 143 129 - 1;
#X obj 245 107 > 0;
#X obj 192 128 + 1;
#X obj 177 207 pack f f f f;
#X msg 144 154 set \$1;
#X msg 191 154 set \$1;
#X msg 244 154 set \$1;
#X msg 294 154 set \$1;
#X msg 145 180 5;
#X msg 192 180 12;
#X msg 245 180 0;
#X msg 295 180 2;
#X obj 54 127 t b b b b;
#X obj 190 36 inlet;
#X obj 177 253 outlet;
#X obj 190 77 unpack f f f;
#X connect 0 0 2 0;
#X connect 1 0 4 0;
#X connect 2 0 6 0;
#X connect 3 0 8 0;
#X connect 4 0 7 0;
#X connect 5 0 16 0;
#X connect 6 0 10 0;
#X connect 7 0 11 0;
#X connect 8 0 12 0;
#X connect 9 0 13 0;
#X connect 10 0 5 0;
#X connect 11 0 5 1;
#X connect 12 0 5 2;
#X connect 13 0 5 3;
#X connect 14 0 10 0;
#X connect 14 1 11 0;
#X connect 14 2 12 0;
#X connect 14 3 13 0;
#X connect 15 0 17 0;
#X connect 17 0 1 0;
#X connect 17 0 0 0;
#X connect 17 0 14 0;
#X connect 17 1 3 0;
#X connect 17 2 9 0;
#X restore 281 133 pd repack;
#X obj 80 245 route 10 11 12;
#X obj 475 253 route 1;
#N canvas 0 50 450 300 first 0;
#X obj 73 51 inlet;
#X obj 186 54 inlet;
#X obj 100 100 white;
#X obj 108 100 white;
#X connect 0 0 2 0;
#X connect 1 0 3 0;
#X coords 0 -1 1 1 16 25 2 100 100;
#X restore 101 301 pd first;
#N canvas 64 166 450 300 octave 0;
#N canvas 0 50 450 300 white 0;
#X obj 61 26 inlet;
#X obj 101 26 inlet;
#X obj 141 26 inlet;
#X obj 181 26 inlet;
#X obj 221 26 inlet;
#X obj 261 26 inlet;
#X obj 301 26 inlet;
#X obj 100 100 white;
#X obj 108 100 white;
#X obj 116 100 white;
#X obj 124 100 white;
#X obj 132 100 white;
#X obj 140 100 white;
#X obj 148 100 white;
#X connect 0 0 7 0;
#X connect 1 0 8 0;
#X connect 2 0 9 0;
#X connect 3 0 10 0;
#X connect 4 0 11 0;
#X connect 5 0 12 0;
#X connect 6 0 13 0;
#X coords 0 -1 1 1 56 25 2 100 100;
#X restore 100 100 pd white;
#X obj 67 19 inlet;
#X obj 67 52 route 1 2 3 4 5 6 7 8 9 10 11 12;
#X obj 129 100 black;
#X obj 113 100 black;
#X obj 137 100 black;
#X obj 145 100 black;
#X obj 105 100 black;
#X connect 1 0 2 0;
#X connect 2 0 0 0;
#X connect 2 1 7 0;
#X connect 2 2 0 1;
#X connect 2 3 4 0;
#X connect 2 4 0 2;
#X connect 2 5 0 3;
#X connect 2 6 3 0;
#X connect 2 7 0 4;
#X connect 2 8 5 0;
#X connect 2 9 0 5;
#X connect 2 10 6 0;
#X connect 2 11 0 6;
#X coords 0 -1 1 1 56 25 2 100 100;
#X restore 117 301 pd octave;
#N canvas 64 166 450 300 octave 0;
#N canvas 0 50 450 300 white 0;
#X obj 61 26 inlet;
#X obj 101 26 inlet;
#X obj 141 26 inlet;
#X obj 181 26 inlet;
#X obj 221 26 inlet;
#X obj 261 26 inlet;
#X obj 301 26 inlet;
#X obj 100 100 white;
#X obj 108 100 white;
#X obj 116 100 white;
#X obj 124 100 white;
#X obj 132 100 white;
#X obj 140 100 white;
#X obj 148 100 white;
#X connect 0 0 7 0;
#X connect 1 0 8 0;
#X connect 2 0 9 0;
#X connect 3 0 10 0;
#X connect 4 0 11 0;
#X connect 5 0 12 0;
#X connect 6 0 13 0;
#X coords 0 -1 1 1 56 25 2 100 100;
#X restore 100 100 pd white;
#X obj 67 19 inlet;
#X obj 67 52 route 1 2 3 4 5 6 7 8 9 10 11 12;
#X obj 129 100 black;
#X obj 113 100 black;
#X obj 137 100 black;
#X obj 145 100 black;
#X obj 105 100 black;
#X connect 1 0 2 0;
#X connect 2 0 0 0;
#X connect 2 1 7 0;
#X connect 2 2 0 1;
#X connect 2 3 4 0;
#X connect 2 4 0 2;
#X connect 2 5 0 3;
#X connect 2 6 3 0;
#X connect 2 7 0 4;
#X connect 2 8 5 0;
#X connect 2 9 0 5;
#X connect 2 10 6 0;
#X connect 2 11 0 6;
#X coords 0 -1 1 1 56 25 2 100 100;
#X restore 173 301 pd octave;
#N canvas 64 166 450 300 octave 0;
#N canvas 0 50 450 300 white 0;
#X obj 61 26 inlet;
#X obj 101 26 inlet;
#X obj 141 26 inlet;
#X obj 181 26 inlet;
#X obj 221 26 inlet;
#X obj 261 26 inlet;
#X obj 301 26 inlet;
#X obj 100 100 white;
#X obj 108 100 white;
#X obj 116 100 white;
#X obj 124 100 white;
#X obj 132 100 white;
#X obj 140 100 white;
#X obj 148 100 white;
#X connect 0 0 7 0;
#X connect 1 0 8 0;
#X connect 2 0 9 0;
#X connect 3 0 10 0;
#X connect 4 0 11 0;
#X connect 5 0 12 0;
#X connect 6 0 13 0;
#X coords 0 -1 1 1 56 25 2 100 100;
#X restore 100 100 pd white;
#X obj 67 19 inlet;
#X obj 67 52 route 1 2 3 4 5 6 7 8 9 10 11 12;
#X obj 129 100 black;
#X obj 113 100 black;
#X obj 137 100 black;
#X obj 145 100 black;
#X obj 105 100 black;
#X connect 1 0 2 0;
#X connect 2 0 0 0;
#X connect 2 1 7 0;
#X connect 2 2 0 1;
#X connect 2 3 4 0;
#X connect 2 4 0 2;
#X connect 2 5 0 3;
#X connect 2 6 3 0;
#X connect 2 7 0 4;
#X connect 2 8 5 0;
#X connect 2 9 0 5;
#X connect 2 10 6 0;
#X connect 2 11 0 6;
#X coords 0 -1 1 1 56 25 2 100 100;
#X restore 229 301 pd octave;
#N canvas 64 166 450 300 octave 0;
#N canvas 0 50 450 300 white 0;
#X obj 61 26 inlet;
#X obj 101 26 inlet;
#X obj 141 26 inlet;
#X obj 181 26 inlet;
#X obj 221 26 inlet;
#X obj 261 26 inlet;
#X obj 301 26 inlet;
#X obj 100 100 white;
#X obj 108 100 white;
#X obj 116 100 white;
#X obj 124 100 white;
#X obj 132 100 white;
#X obj 140 100 white;
#X obj 148 100 white;
#X connect 0 0 7 0;
#X connect 1 0 8 0;
#X connect 2 0 9 0;
#X connect 3 0 10 0;
#X connect 4 0 11 0;
#X connect 5 0 12 0;
#X connect 6 0 13 0;
#X coords 0 -1 1 1 56 25 2 100 100;
#X restore 100 100 pd white;
#X obj 67 19 inlet;
#X obj 67 52 route 1 2 3 4 5 6 7 8 9 10 11 12;
#X obj 129 100 black;
#X obj 113 100 black;
#X obj 137 100 black;
#X obj 145 100 black;
#X obj 105 100 black;
#X connect 1 0 2 0;
#X connect 2 0 0 0;
#X connect 2 1 7 0;
#X connect 2 2 0 1;
#X connect 2 3 4 0;
#X connect 2 4 0 2;
#X connect 2 5 0 3;
#X connect 2 6 3 0;
#X connect 2 7 0 4;
#X connect 2 8 5 0;
#X connect 2 9 0 5;
#X connect 2 10 6 0;
#X connect 2 11 0 6;
#X coords 0 -1 1 1 56 25 2 100 100;
#X restore 285 301 pd octave;
#N canvas 64 166 450 300 octave 0;
#N canvas 0 50 450 300 white 0;
#X obj 61 26 inlet;
#X obj 101 26 inlet;
#X obj 141 26 inlet;
#X obj 181 26 inlet;
#X obj 221 26 inlet;
#X obj 261 26 inlet;
#X obj 301 26 inlet;
#X obj 100 100 white;
#X obj 108 100 white;
#X obj 116 100 white;
#X obj 124 100 white;
#X obj 132 100 white;
#X obj 140 100 white;
#X obj 148 100 white;
#X connect 0 0 7 0;
#X connect 1 0 8 0;
#X connect 2 0 9 0;
#X connect 3 0 10 0;
#X connect 4 0 11 0;
#X connect 5 0 12 0;
#X connect 6 0 13 0;
#X coords 0 -1 1 1 56 25 2 100 100;
#X restore 100 100 pd white;
#X obj 67 19 inlet;
#X obj 67 52 route 1 2 3 4 5 6 7 8 9 10 11 12;
#X obj 129 100 black;
#X obj 113 100 black;
#X obj 137 100 black;
#X obj 145 100 black;
#X obj 105 100 black;
#X connect 1 0 2 0;
#X connect 2 0 0 0;
#X connect 2 1 7 0;
#X connect 2 2 0 1;
#X connect 2 3 4 0;
#X connect 2 4 0 2;
#X connect 2 5 0 3;
#X connect 2 6 3 0;
#X connect 2 7 0 4;
#X connect 2 8 5 0;
#X connect 2 9 0 5;
#X connect 2 10 6 0;
#X connect 2 11 0 6;
#X coords 0 -1 1 1 56 25 2 100 100;
#X restore 341 301 pd octave;
#N canvas 64 166 450 300 octave 0;
#N canvas 0 50 450 300 white 0;
#X obj 61 26 inlet;
#X obj 101 26 inlet;
#X obj 141 26 inlet;
#X obj 181 26 inlet;
#X obj 221 26 inlet;
#X obj 261 26 inlet;
#X obj 301 26 inlet;
#X obj 100 100 white;
#X obj 108 100 white;
#X obj 116 100 white;
#X obj 124 100 white;
#X obj 132 100 white;
#X obj 140 100 white;
#X obj 148 100 white;
#X connect 0 0 7 0;
#X connect 1 0 8 0;
#X connect 2 0 9 0;
#X connect 3 0 10 0;
#X connect 4 0 11 0;
#X connect 5 0 12 0;
#X connect 6 0 13 0;
#X coords 0 -1 1 1 56 25 2 100 100;
#X restore 100 100 pd white;
#X obj 67 19 inlet;
#X obj 67 52 route 1 2 3 4 5 6 7 8 9 10 11 12;
#X obj 129 100 black;
#X obj 113 100 black;
#X obj 137 100 black;
#X obj 145 100 black;
#X obj 105 100 black;
#X connect 1 0 2 0;
#X connect 2 0 0 0;
#X connect 2 1 7 0;
#X connect 2 2 0 1;
#X connect 2 3 4 0;
#X connect 2 4 0 2;
#X connect 2 5 0 3;
#X connect 2 6 3 0;
#X connect 2 7 0 4;
#X connect 2 8 5 0;
#X connect 2 9 0 5;
#X connect 2 10 6 0;
#X connect 2 11 0 6;
#X coords 0 -1 1 1 56 25 2 100 100;
#X restore 397 301 pd octave;
#N canvas 64 166 450 300 octave 0;
#N canvas 0 50 450 300 white 0;
#X obj 61 26 inlet;
#X obj 101 26 inlet;
#X obj 141 26 inlet;
#X obj 181 26 inlet;
#X obj 221 26 inlet;
#X obj 261 26 inlet;
#X obj 301 26 inlet;
#X obj 100 100 white;
#X obj 108 100 white;
#X obj 116 100 white;
#X obj 124 100 white;
#X obj 132 100 white;
#X obj 140 100 white;
#X obj 148 100 white;
#X connect 0 0 7 0;
#X connect 1 0 8 0;
#X connect 2 0 9 0;
#X connect 3 0 10 0;
#X connect 4 0 11 0;
#X connect 5 0 12 0;
#X connect 6 0 13 0;
#X coords 0 -1 1 1 56 25 2 100 100;
#X restore 100 100 pd white;
#X obj 67 19 inlet;
#X obj 67 52 route 1 2 3 4 5 6 7 8 9 10 11 12;
#X obj 129 100 black;
#X obj 113 100 black;
#X obj 137 100 black;
#X obj 145 100 black;
#X obj 105 100 black;
#X connect 1 0 2 0;
#X connect 2 0 0 0;
#X connect 2 1 7 0;
#X connect 2 2 0 1;
#X connect 2 3 4 0;
#X connect 2 4 0 2;
#X connect 2 5 0 3;
#X connect 2 6 3 0;
#X connect 2 7 0 4;
#X connect 2 8 5 0;
#X connect 2 9 0 5;
#X connect 2 10 6 0;
#X connect 2 11 0 6;
#X coords 0 -1 1 1 56 25 2 100 100;
#X restore 453 301 pd octave;
#X obj 509 301 white;
#X obj 106 301 black;
#X obj 101 301 cnv 1 416 1 empty empty empty 20 12 0 14 -33289 -66577
0;
#X text 228 366 Michele Abruzzese (@shindeibrauns) 2017.01.30;
#X connect 0 0 1 0;
#X connect 1 0 9 0;
#X connect 2 0 3 0;
#X connect 3 0 9 0;
#X connect 4 0 6 0;
#X connect 5 0 7 0;
#X connect 6 0 9 0;
#X connect 7 0 9 0;
#X connect 8 0 10 0;
#X connect 8 1 13 0;
#X connect 8 2 14 0;
#X connect 8 3 15 0;
#X connect 8 4 16 0;
#X connect 8 5 17 0;
#X connect 8 6 18 0;
#X connect 8 7 19 0;
#X connect 8 8 11 0;
#X connect 9 0 8 0;
#X connect 10 0 12 0;
#X connect 10 1 21 0;
#X connect 10 2 12 1;
#X connect 11 0 20 0;
#X coords 0 -1 1 1 418 27 2 100 300;
