#N canvas 575 136 617 749 10;
#X obj 106 85 inlet~;
#X obj 108 663 outlet~;
#X obj 227 82 inlet;
#X obj 333 82 inlet;
#X text 274 81 fc;
#X text 384 83 Q;
#N canvas 270 362 450 300 OMEGA 0;
#X obj 128 43 inlet;
#X obj 276 260 outlet;
#X obj 198 96 samplerate~;
#X obj 198 70 loadbang;
#X obj 198 118 t b f;
#X obj 198 170 * 2;
#X obj 198 191 * 3.14159;
#X obj 198 148 / 48000;
#X obj 152 261 outlet;
#X obj 282 232 sin;
#X obj 144 233 cos;
#X connect 0 0 7 0;
#X connect 2 0 4 0;
#X connect 3 0 2 0;
#X connect 4 0 7 0;
#X connect 4 1 7 1;
#X connect 5 0 6 0;
#X connect 6 0 9 0;
#X connect 6 0 10 0;
#X connect 7 0 5 0;
#X connect 9 0 1 0;
#X connect 10 0 8 0;
#X restore 227 163 pd OMEGA;
#N canvas 240 316 450 300 ALPHA 0;
#X obj 128 43 inlet;
#X obj 211 233 outlet;
#X obj 257 94 * 2;
#X obj 278 41 inlet;
#X obj 211 152 /;
#X obj 227 126 t b f;
#X connect 0 0 4 0;
#X connect 2 0 5 0;
#X connect 3 0 2 0;
#X connect 4 0 1 0;
#X connect 5 0 4 0;
#X connect 5 1 4 1;
#X restore 341 248 pd ALPHA;
#X obj 406 272 + 1;
#X obj 341 289 + 1;
#X obj 341 270 * -1;
#X obj 124 248 * -2;
#X obj 134 316 /;
#X obj 144 292 t b f;
#X obj 195 360 /;
#X obj 207 336 t b f;
#X obj 195 417 t b f;
#X obj 394 190 f \$2;
#X obj 424 64 loadbang;
#X obj 235 118 f \$1;
#X obj 235 138 expr if($f1 <= 0 \, 1000 \, $f1);
#X obj 424 88 t b b;
#X obj 108 636 biquad~ 0 0 1 0 0;
#X obj 264 485 t b f;
#X obj 133 342 * -1;
#X obj 195 390 * -1;
#X obj 125 585 pack f f f f f;
#X msg 122 612 \$1 \$2 \$3 \$4 \$5;
#X obj 264 439 /;
#X obj 304 411 t b f;
#X obj 264 461 * 0.5;
#X obj 213 480 t b f;
#X obj 264 398 + 1;
#X obj 221 461 * -1;
#X obj 394 212 expr if($f1 <= 0 \, 1/sqrt(2) \, $f1);
#X obj 124 227 r \$0-cosw;
#X obj 144 273 r \$0-1+alpha;
#X obj 195 296 r \$0-1-alpha;
#X obj 197 197 s \$0-cosw;
#X obj 207 317 r \$0-1+alpha;
#X obj 264 349 r \$0-cosw;
#X obj 304 392 r \$0-1+alpha;
#X obj 341 308 s \$0-1-alpha;
#X obj 436 308 s \$0-1+alpha;
#X msg 263 627 set \$1 \$2 \$3 \$4 \$5;
#X obj 263 662 outlet;
#X connect 0 0 22 0;
#X connect 2 0 20 0;
#X connect 3 0 34 0;
#X connect 6 0 38 0;
#X connect 6 1 7 0;
#X connect 7 0 8 0;
#X connect 7 0 10 0;
#X connect 8 0 43 0;
#X connect 9 0 42 0;
#X connect 10 0 9 0;
#X connect 11 0 12 0;
#X connect 12 0 24 0;
#X connect 13 0 12 0;
#X connect 13 1 12 1;
#X connect 14 0 25 0;
#X connect 15 0 14 0;
#X connect 15 1 14 1;
#X connect 16 0 26 0;
#X connect 16 1 26 1;
#X connect 17 0 34 0;
#X connect 18 0 21 0;
#X connect 19 0 20 0;
#X connect 20 0 6 0;
#X connect 21 0 19 0;
#X connect 21 1 17 0;
#X connect 22 0 1 0;
#X connect 23 0 26 0;
#X connect 23 1 26 2;
#X connect 23 1 26 4;
#X connect 24 0 26 0;
#X connect 25 0 16 0;
#X connect 26 0 27 0;
#X connect 26 0 44 0;
#X connect 27 0 22 0;
#X connect 28 0 30 0;
#X connect 28 0 33 0;
#X connect 29 0 28 0;
#X connect 29 1 28 1;
#X connect 30 0 23 0;
#X connect 31 0 26 0;
#X connect 31 1 26 3;
#X connect 32 0 28 0;
#X connect 33 0 31 0;
#X connect 34 0 7 1;
#X connect 35 0 11 0;
#X connect 36 0 13 0;
#X connect 37 0 14 0;
#X connect 39 0 15 0;
#X connect 40 0 32 0;
#X connect 41 0 29 0;
#X connect 44 0 45 0;
