#N canvas 482 50 740 700 10;
#X obj 106 85 inlet~;
#X obj 113 496 outlet~;
#X obj 227 82 inlet;
#X obj 458 80 inlet;
#X text 236 62 fc;
#N canvas 411 454 450 300 OMEGA 0;
#X obj 128 43 inlet;
#X obj 265 254 outlet;
#X obj 198 96 samplerate~;
#X obj 198 70 loadbang;
#X obj 198 118 t b f;
#X obj 198 170 * 2;
#X obj 198 191 * 3.14159;
#X obj 198 148 / 48000;
#X obj 271 226 sin;
#X obj 123 252 outlet;
#X obj 129 224 cos;
#X connect 0 0 7 0;
#X connect 2 0 4 0;
#X connect 3 0 2 0;
#X connect 4 0 7 0;
#X connect 4 1 7 1;
#X connect 5 0 6 0;
#X connect 6 0 8 0;
#X connect 6 0 10 0;
#X connect 7 0 5 0;
#X connect 8 0 1 0;
#X connect 10 0 9 0;
#X restore 227 166 pd OMEGA;
#X obj 522 65 loadbang;
#X obj 235 118 f \$1;
#X obj 227 141 expr if($f1 <= 0 \, 1000 \, $f1);
#X obj 113 469 biquad~ 0 0 1 0 0;
#X msg 127 445 \$1 \$2 \$3 \$4 \$5;
#X obj 361 81 inlet;
#X text 362 59 dBgain;
#X obj 145 408 pack f f f f f;
#X obj 519 94 del;
#N canvas 0 50 450 300 A 0;
#X obj 175 104 / 40;
#X obj 175 125 swap 10;
#X obj 175 147 pow;
#X obj 174 63 inlet;
#X obj 174 189 outlet;
#X connect 0 0 1 0;
#X connect 1 0 2 0;
#X connect 1 1 2 1;
#X connect 2 0 4 0;
#X connect 3 0 0 0;
#X restore 494 162 pd A;
#X text 469 60 S;
#X obj 364 211 expr if($f1 <= 0 \, 0.5 \, $f1);
#N canvas 699 440 450 300 2sqrtAa 0;
#X obj 76 26 inlet;
#X obj 155 275 outlet;
#X text 119 26 S;
#X obj 292 29 inlet;
#X obj 76 98 /;
#X obj 76 76 swap 1;
#X obj 76 122 - 1;
#X obj 155 165 *;
#X obj 215 100 t b f;
#X obj 155 218 sqrt;
#X text 335 29 sinw;
#X obj 215 29 r \$0-A;
#X obj 215 55 pow 2;
#X obj 215 78 + 1;
#X obj 191 175 * 2;
#X obj 155 199 +;
#X obj 155 256 *;
#X text 207 273 2sqrtAa;
#X obj 292 206 t b f;
#X connect 0 0 5 0;
#X connect 3 0 18 0;
#X connect 4 0 6 0;
#X connect 5 0 4 0;
#X connect 5 1 4 1;
#X connect 6 0 7 0;
#X connect 7 0 15 0;
#X connect 8 0 7 0;
#X connect 8 1 7 1;
#X connect 9 0 16 0;
#X connect 11 0 12 0;
#X connect 11 0 14 0;
#X connect 12 0 13 0;
#X connect 13 0 8 0;
#X connect 14 0 15 1;
#X connect 15 0 9 0;
#X connect 16 0 1 0;
#X connect 18 0 16 0;
#X connect 18 1 16 1;
#X restore 364 249 pd 2sqrtAa;
#X obj 494 189 s \$0-A;
#X obj 364 274 s \$0-slope;
#X obj 227 198 s \$0-cosw;
#N canvas 705 514 450 300 norm 0;
#X obj 83 49 r \$0-A;
#X obj 151 49 r \$0-cosw;
#X obj 244 49 r \$0-slope;
#X obj 83 116 + 1;
#X obj 83 163 -;
#X obj 118 116 - 1;
#X obj 118 143 *;
#X obj 151 116 t b f;
#X obj 83 86 t f f;
#X obj 172 203 +;
#X obj 172 179 t b f;
#X obj 172 232 s \$0-norm;
#X connect 0 0 8 0;
#X connect 1 0 7 0;
#X connect 2 0 10 0;
#X connect 3 0 4 0;
#X connect 4 0 9 0;
#X connect 5 0 6 0;
#X connect 6 0 4 1;
#X connect 7 0 6 0;
#X connect 7 1 6 1;
#X connect 8 0 3 0;
#X connect 8 1 5 0;
#X connect 9 0 11 0;
#X connect 10 0 9 0;
#X connect 10 1 9 1;
#X restore 150 182 pd norm;
#N canvas 762 538 292 341 fb1 0;
#X obj 50 43 r \$0-A;
#X obj 111 43 r \$0-cosw;
#X obj 192 146 r \$0-norm;
#X obj 50 117 - 1;
#X obj 82 117 + 1;
#X obj 82 168 *;
#X obj 111 137 t b f;
#X obj 50 197 -;
#X obj 50 81 t f f;
#X obj 82 258 /;
#X obj 82 237 t b f;
#X obj 82 294 outlet;
#X obj 50 219 * -2;
#X connect 0 0 8 0;
#X connect 1 0 6 0;
#X connect 2 0 10 0;
#X connect 3 0 7 0;
#X connect 4 0 5 0;
#X connect 5 0 7 1;
#X connect 6 0 5 0;
#X connect 6 1 5 1;
#X connect 7 0 12 0;
#X connect 8 0 3 0;
#X connect 8 1 4 0;
#X connect 9 0 11 0;
#X connect 10 0 9 0;
#X connect 10 1 9 1;
#X connect 12 0 9 0;
#X restore 151 225 pd fb1;
#N canvas 849 504 292 341 ff1 0;
#X obj 50 43 r \$0-A;
#X obj 111 43 r \$0-cosw;
#X obj 192 146 r \$0-norm;
#X obj 50 117 - 1;
#X obj 82 117 + 1;
#X obj 82 168 *;
#X obj 111 137 t b f;
#X obj 50 81 t f f;
#X obj 101 265 /;
#X obj 101 244 t b f;
#X obj 101 301 outlet;
#X obj 50 197 +;
#X obj 50 244 *;
#X obj 50 219 * -2;
#X connect 0 0 7 0;
#X connect 1 0 6 0;
#X connect 2 0 9 0;
#X connect 3 0 11 0;
#X connect 4 0 5 0;
#X connect 5 0 11 1;
#X connect 6 0 5 0;
#X connect 6 1 5 1;
#X connect 7 0 3 0;
#X connect 7 1 4 0;
#X connect 7 1 12 1;
#X connect 8 0 10 0;
#X connect 9 0 8 0;
#X connect 9 1 8 1;
#X connect 11 0 13 0;
#X connect 12 0 8 0;
#X connect 13 0 12 0;
#X restore 255 285 pd ff1;
#N canvas 762 538 292 341 fb2 0;
#X obj 49 14 r \$0-A;
#X obj 110 14 r \$0-cosw;
#X obj 112 215 r \$0-norm;
#X obj 81 139 *;
#X obj 110 108 t b f;
#X obj 49 168 -;
#X obj 49 52 t f f;
#X obj 101 268 /;
#X obj 101 247 t b f;
#X obj 101 297 outlet;
#X obj 49 88 + 1;
#X obj 81 88 - 1;
#X obj 63 212 -;
#X obj 83 168 r \$0-slope;
#X obj 83 187 t b f;
#X obj 63 231 * -1;
#X connect 0 0 6 0;
#X connect 1 0 4 0;
#X connect 2 0 8 0;
#X connect 3 0 5 1;
#X connect 4 0 3 0;
#X connect 4 1 3 1;
#X connect 5 0 12 0;
#X connect 6 0 10 0;
#X connect 6 1 11 0;
#X connect 7 0 9 0;
#X connect 8 0 7 0;
#X connect 8 1 7 1;
#X connect 10 0 5 0;
#X connect 11 0 3 0;
#X connect 12 0 15 0;
#X connect 13 0 14 0;
#X connect 14 0 12 0;
#X connect 14 1 12 1;
#X connect 15 0 7 0;
#X restore 196 242 pd fb2;
#N canvas 762 538 292 341 ff0 0;
#X obj 49 14 r \$0-A;
#X obj 110 14 r \$0-cosw;
#X obj 112 215 r \$0-norm;
#X obj 81 139 *;
#X obj 110 108 t b f;
#X obj 49 52 t f f;
#X obj 101 268 /;
#X obj 101 247 t b f;
#X obj 101 297 outlet;
#X obj 49 88 + 1;
#X obj 81 88 - 1;
#X obj 83 168 r \$0-slope;
#X obj 83 187 t b f;
#X obj 63 231 *;
#X obj 49 168 +;
#X obj 63 212 +;
#X connect 0 0 5 0;
#X connect 1 0 4 0;
#X connect 2 0 7 0;
#X connect 3 0 14 1;
#X connect 4 0 3 0;
#X connect 4 1 3 1;
#X connect 5 0 9 0;
#X connect 5 1 10 0;
#X connect 5 1 13 1;
#X connect 6 0 8 0;
#X connect 7 0 6 0;
#X connect 7 1 6 1;
#X connect 9 0 14 0;
#X connect 10 0 3 0;
#X connect 11 0 12 0;
#X connect 12 0 15 0;
#X connect 12 1 15 1;
#X connect 13 0 6 0;
#X connect 14 0 15 0;
#X connect 15 0 13 0;
#X restore 234 263 pd ff0;
#N canvas 839 534 292 341 ff2 0;
#X obj 49 14 r \$0-A;
#X obj 110 14 r \$0-cosw;
#X obj 112 215 r \$0-norm;
#X obj 81 139 *;
#X obj 110 108 t b f;
#X obj 49 52 t f f;
#X obj 101 268 /;
#X obj 101 247 t b f;
#X obj 101 297 outlet;
#X obj 49 88 + 1;
#X obj 81 88 - 1;
#X obj 83 168 r \$0-slope;
#X obj 83 187 t b f;
#X obj 63 231 *;
#X obj 49 168 +;
#X obj 63 212 -;
#X connect 0 0 5 0;
#X connect 1 0 4 0;
#X connect 2 0 7 0;
#X connect 3 0 14 1;
#X connect 4 0 3 0;
#X connect 4 1 3 1;
#X connect 5 0 9 0;
#X connect 5 1 10 0;
#X connect 5 1 13 1;
#X connect 6 0 8 0;
#X connect 7 0 6 0;
#X connect 7 1 6 1;
#X connect 9 0 14 0;
#X connect 10 0 3 0;
#X connect 11 0 12 0;
#X connect 12 0 15 0;
#X connect 12 1 15 1;
#X connect 13 0 6 0;
#X connect 14 0 15 0;
#X connect 15 0 13 0;
#X restore 275 304 pd ff2;
#X obj 519 119 f \$2;
#X obj 364 167 f \$3;
#X obj 364 230 clip 0.0001 0.9999;
#X msg 269 462 set \$1 \$2 \$3 \$4 \$5;
#X obj 269 497 outlet;
#X connect 0 0 9 0;
#X connect 2 0 8 0;
#X connect 3 0 17 0;
#X connect 5 0 21 0;
#X connect 5 1 18 1;
#X connect 6 0 7 0;
#X connect 6 0 14 0;
#X connect 6 0 29 0;
#X connect 7 0 8 0;
#X connect 8 0 5 0;
#X connect 9 0 1 0;
#X connect 10 0 9 0;
#X connect 11 0 15 0;
#X connect 13 0 10 0;
#X connect 13 0 31 0;
#X connect 14 0 28 0;
#X connect 15 0 19 0;
#X connect 17 0 30 0;
#X connect 18 0 20 0;
#X connect 23 0 13 0;
#X connect 24 0 13 3;
#X connect 25 0 13 1;
#X connect 26 0 13 2;
#X connect 27 0 13 4;
#X connect 28 0 15 0;
#X connect 29 0 17 0;
#X connect 30 0 18 0;
#X connect 31 0 32 0;
