#N canvas 220 129 740 749 10;
#X obj 106 85 inlet~;
#X obj 108 663 outlet~;
#X obj 227 82 inlet;
#X obj 333 82 inlet;
#X text 236 62 fc;
#N canvas 411 454 450 300 OMEGA 0;
#X obj 128 43 inlet;
#X obj 191 251 outlet;
#X obj 198 96 samplerate~;
#X obj 198 70 loadbang;
#X obj 198 118 t b f;
#X obj 198 170 * 2;
#X obj 198 191 * 3.14159;
#X obj 198 148 / 48000;
#X obj 197 223 sin;
#X obj 123 252 outlet;
#X obj 129 224 cos;
#X obj 283 247 outlet;
#X connect 0 0 7 0;
#X connect 2 0 4 0;
#X connect 3 0 2 0;
#X connect 4 0 7 0;
#X connect 4 1 7 1;
#X connect 5 0 6 0;
#X connect 6 0 8 0;
#X connect 6 0 10 0;
#X connect 6 0 11 0;
#X connect 7 0 5 0;
#X connect 8 0 1 0;
#X connect 10 0 9 0;
#X restore 227 163 pd OMEGA;
#N canvas 240 316 450 300 ALPHA 0;
#X obj 128 43 inlet;
#X obj 131 246 outlet;
#X obj 257 94 * 2;
#X obj 278 41 inlet;
#X obj 227 126 t b f;
#X obj 145 170 t b f;
#X obj 300 182 t b f;
#X obj 286 246 outlet;
#X obj 355 44 inlet;
#X obj 211 152 /;
#X obj 286 206 /;
#X obj 131 194 *;
#X connect 0 0 9 0;
#X connect 2 0 4 0;
#X connect 3 0 2 0;
#X connect 4 0 9 0;
#X connect 4 1 9 1;
#X connect 5 0 11 0;
#X connect 5 1 11 1;
#X connect 6 0 10 0;
#X connect 6 1 10 1;
#X connect 8 0 5 0;
#X connect 8 0 6 0;
#X connect 9 0 10 0;
#X connect 9 0 11 0;
#X connect 10 0 7 0;
#X connect 11 0 1 0;
#X restore 341 270 pd ALPHA;
#X obj 439 322 + 1;
#X obj 124 248 * -2;
#X obj 134 316 /;
#X obj 144 292 t b f;
#X obj 207 393 /;
#X obj 238 370 t b f;
#X obj 207 450 t b f;
#X obj 367 205 f \$2;
#X obj 509 68 loadbang;
#X obj 235 118 f \$1;
#X obj 227 141 expr if($f1 <= 0 \, 1000 \, $f1);
#X obj 108 636 biquad~ 0 0 1 0 0;
#X obj 133 342 * -1;
#X obj 207 423 * -1;
#X msg 122 612 \$1 \$2 \$3 \$4 \$5;
#X obj 408 83 inlet;
#X text 409 61 dBgain;
#X obj 207 331 * -1;
#X obj 207 349 + 1;
#X obj 232 587 pack f f f f f;
#X obj 407 444 /;
#X obj 438 421 t b f;
#X obj 407 501 t b f;
#X obj 407 382 * -1;
#X obj 407 400 + 1;
#X obj 287 455 /;
#X obj 318 432 t b f;
#X obj 287 512 t b f;
#X obj 287 411 + 1;
#X obj 541 116 f \$3;
#X obj 317 299 s \$0-alpha*A;
#X obj 435 298 s \$0-alpha/A;
#X obj 439 344 s \$0-1+alpha/A;
#X obj 407 363 r \$0-alpha*A;
#X obj 438 402 r \$0-1+alpha/A;
#X obj 318 413 r \$0-1+alpha/A;
#X obj 287 388 r \$0-alpha*A;
#X obj 238 351 r \$0-1+alpha/A;
#X obj 207 312 r \$0-alpha/A;
#X obj 144 273 r \$0-1+alpha/A;
#X obj 494 160 / 40;
#X obj 494 181 swap 10;
#X obj 494 203 pow;
#X obj 519 94 del;
#X obj 494 140 expr if($f1 == 0 \, 6 \, $f1);
#X obj 367 227 expr if($f1 <= 0 \, 1 \, $f1);
#N canvas 0 50 450 300 BW2Q 0;
#X obj 95 41 inlet;
#X obj 245 364 outlet;
#X text 149 41 Bandwidth;
#X text 303 364 Q;
#X obj 244 46 inlet;
#X obj 277 181 sin;
#X obj 245 202 /;
#X obj 245 263 * 0.34657;
#X obj 245 241 *;
#X obj 245 161 t f f;
#X obj 245 221 t b f;
#X obj 245 283 expr 2*sinh($f1);
#X obj 245 302 swap 1;
#X obj 245 322 /;
#X text 286 46 w;
#X connect 0 0 8 0;
#X connect 4 0 9 0;
#X connect 5 0 6 1;
#X connect 6 0 10 0;
#X connect 7 0 11 0;
#X connect 8 0 7 0;
#X connect 9 0 6 0;
#X connect 9 1 5 0;
#X connect 10 0 8 0;
#X connect 10 1 8 1;
#X connect 11 0 12 0;
#X connect 12 0 13 0;
#X connect 12 1 13 1;
#X connect 13 0 1 0;
#X restore 366 249 pd BW2Q;
#X text 344 62 BW;
#X msg 263 627 set \$1 \$2 \$3 \$4 \$5;
#X obj 263 662 outlet;
#X connect 0 0 18 0;
#X connect 2 0 17 0;
#X connect 3 0 52 0;
#X connect 5 0 8 0;
#X connect 5 1 6 0;
#X connect 5 2 53 1;
#X connect 6 0 37 0;
#X connect 6 1 7 0;
#X connect 6 1 38 0;
#X connect 7 0 39 0;
#X connect 8 0 9 0;
#X connect 9 0 19 0;
#X connect 9 0 26 3;
#X connect 10 0 9 0;
#X connect 10 1 9 1;
#X connect 11 0 20 0;
#X connect 12 0 11 0;
#X connect 12 1 11 1;
#X connect 13 0 26 0;
#X connect 13 1 26 1;
#X connect 14 0 52 0;
#X connect 15 0 14 0;
#X connect 15 0 16 0;
#X connect 15 0 50 0;
#X connect 16 0 17 0;
#X connect 17 0 5 0;
#X connect 18 0 1 0;
#X connect 19 0 26 0;
#X connect 20 0 13 0;
#X connect 21 0 18 0;
#X connect 22 0 47 0;
#X connect 24 0 25 0;
#X connect 25 0 11 0;
#X connect 26 0 21 0;
#X connect 26 0 55 0;
#X connect 27 0 29 0;
#X connect 28 0 27 0;
#X connect 28 1 27 1;
#X connect 29 0 26 0;
#X connect 29 1 26 4;
#X connect 30 0 31 0;
#X connect 31 0 27 0;
#X connect 32 0 34 0;
#X connect 33 0 32 0;
#X connect 33 1 32 1;
#X connect 34 0 26 0;
#X connect 34 1 26 2;
#X connect 35 0 32 0;
#X connect 36 0 51 0;
#X connect 40 0 30 0;
#X connect 41 0 28 0;
#X connect 42 0 33 0;
#X connect 43 0 35 0;
#X connect 44 0 12 0;
#X connect 45 0 24 0;
#X connect 46 0 10 0;
#X connect 47 0 48 0;
#X connect 48 0 49 0;
#X connect 48 1 49 1;
#X connect 49 0 6 2;
#X connect 50 0 36 0;
#X connect 51 0 47 0;
#X connect 52 0 53 0;
#X connect 53 0 6 1;
#X connect 55 0 56 0;
