#N canvas 571 114 638 440 10;
#X obj 101 101 cnv 3 4 13 empty \$0-black empty 20 12 0 14 -66577 -66577
0;
#X obj 247 59 inlet;
#X obj 256 115 > 0;
#X msg 235 392 \; \$2-black color \$1;
#X obj 256 89 unpack;
#X obj 534 229 f \$0;
#X obj 236 347 pack f f;
#X obj 534 171 loadbang;
#X obj 225 181 sel 0;
#X msg 262 250 13;
#X msg 295 250 16;
#X msg 331 250 18;
#X msg 362 250 15;
#X obj 281 157 *;
#X msg 229 250 2;
#X obj 282 184 sel 1 2 3 4;
#X text 304 443 Michele Abruzzese (@shindeibrauns) 2017.01.30;
#X connect 1 0 4 0;
#X connect 2 0 8 0;
#X connect 2 0 13 0;
#X connect 4 0 2 0;
#X connect 4 1 13 1;
#X connect 5 0 6 1;
#X connect 6 0 3 0;
#X connect 7 0 5 0;
#X connect 8 0 14 0;
#X connect 9 0 6 0;
#X connect 10 0 6 0;
#X connect 11 0 6 0;
#X connect 12 0 6 0;
#X connect 13 0 15 0;
#X connect 14 0 6 0;
#X connect 15 0 9 0;
#X connect 15 1 10 0;
#X connect 15 2 11 0;
#X connect 15 3 12 0;
#X coords 0 -1 1 1 6 15 2 100 100;
