#N canvas 633 0 638 440 10;
#X obj 100 107 tgl 8 0 empty empty empty 17 7 0 10 -262144 -1 -1 0
1;
#X obj 79 261 outlet;
#X obj 101 101 cnv 6 6 13 empty \$0-black empty 20 12 0 14 -66577 -66577
0;
#X obj 90 13 inlet;
#X obj 99 69 > 0;
#X msg 235 392 \; \$2-black color \$1;
#X obj 99 43 unpack;
#X obj 534 229 f \$0;
#X obj 236 347 pack f f;
#X obj 534 171 loadbang;
#X obj 223 127 sel 0;
#X msg 262 250 13;
#X msg 295 250 16;
#X msg 331 250 18;
#X msg 362 250 15;
#X obj 191 78 *;
#X obj 240 19 loadbang;
#X msg 229 42 5;
#X obj 280 112 sel 1 2 3 4 5;
#X msg 422 249 1;
#X msg 229 250 2;
#X connect 0 0 1 0;
#X connect 0 0 15 0;
#X connect 0 0 10 0;
#X connect 3 0 6 0;
#X connect 4 0 0 0;
#X connect 6 0 4 0;
#X connect 6 1 15 1;
#X connect 7 0 8 1;
#X connect 8 0 5 0;
#X connect 9 0 7 0;
#X connect 10 0 20 0;
#X connect 11 0 8 0;
#X connect 12 0 8 0;
#X connect 13 0 8 0;
#X connect 14 0 8 0;
#X connect 15 0 18 0;
#X connect 16 0 17 0;
#X connect 17 0 15 1;
#X connect 18 0 11 0;
#X connect 18 1 12 0;
#X connect 18 2 13 0;
#X connect 18 3 14 0;
#X connect 18 4 19 0;
#X connect 19 0 8 0;
#X connect 20 0 8 0;
#X coords 0 -1 1 1 8 15 2 100 100;
