#N canvas 94 50 1244 443 10;
#X obj 444 43 inlet~;
#X obj 503 294 crossfade~;
#X obj 445 387 outlet~;
#X obj 570 231 r \$0-mix;
#X msg 570 252 \$1 50;
#X obj 570 273 line;
#X obj 101 101 cnv 15 148 98 empty empty Black:Sheep 3 7 1 9 -1 -162280
0;
#X obj 221 158 mknob 18 100 0 1 0 0 \$0-mix \$0-mixR MIX 3 24 1 7 7.01809e+007
0 7.01806e+007 3400 1;
#X obj 167 105 hradio 8 1 0 8 \$0-preset \$0-presetR empty 0 -8 0 10
-66577 -162280 -1 6;
#N canvas 100 62 450 300 byp 0;
#X obj 244 107 sel 0 1;
#X msg 244 152 color \$1 \$2 \$3;
#X obj 243 86 r \$0-byp;
#X obj 244 174 s \$0-bypR;
#X obj 100 100 tgl 12 0 \$0-byp \$0-bypR B 3 6 1 10 -258699 -258699
-262144 1 1;
#X obj 100 67 inlet;
#X obj 99 150 outlet;
#X msg 244 129 2 2 1;
#X msg 308 129 13 13 0;
#X connect 0 0 7 0;
#X connect 0 1 8 0;
#X connect 1 0 3 0;
#X connect 2 0 0 0;
#X connect 4 0 6 0;
#X connect 5 0 4 0;
#X connect 7 0 1 0;
#X connect 8 0 1 0;
#X coords 0 -1 1 1 12 12 2 100 100;
#X restore 235 103 pd byp;
#N canvas 519 169 538 468 DELAY1 0;
#X obj 109 21 inlet~;
#X obj 98 114 delwrite~ \$0-delay1 600;
#N canvas 496 50 492 710 FEEDBACK 0;
#X obj 144 664 outlet~;
#X obj 263 234 vcf~;
#X obj 274 51 r \$0-midfreq1;
#X obj 274 93 line~;
#X msg 274 72 \$1 50;
#X msg 319 194 \$1 50;
#X obj 319 173 r \$0-qfactor1;
#X obj 319 217 line;
#X obj 146 433 hip~;
#X msg 183 395 \$1 50;
#X obj 183 416 line;
#X obj 183 374 r \$0-hipass1;
#X obj 264 323 *~;
#X obj 310 294 line~;
#X msg 310 273 \$1 50;
#X obj 310 252 r \$0-midgain1;
#X obj 147 339 +~;
#X msg 251 474 \$1 50;
#X obj 251 495 line;
#X obj 145 512 lop~;
#X obj 251 453 r \$0-lopass1;
#X obj 274 159 +~;
#X obj 301 129 *~;
#X obj 107 15 inlet~;
#X obj 327 107 r~ \$0-lfo_freq1;
#X obj 146 472 clip~ -1 0.95;
#X obj 50 16 inlet~;
#X obj 147 101 *~;
#X msg 165 47 \$1 50;
#X obj 165 26 r \$0-feedback1;
#X obj 165 68 line~;
#X connect 1 0 12 0;
#X connect 1 1 12 0;
#X connect 2 0 4 0;
#X connect 3 0 21 0;
#X connect 3 0 22 0;
#X connect 4 0 3 0;
#X connect 5 0 7 0;
#X connect 6 0 5 0;
#X connect 7 0 1 2;
#X connect 8 0 25 0;
#X connect 9 0 10 0;
#X connect 10 0 8 1;
#X connect 11 0 9 0;
#X connect 12 0 16 1;
#X connect 13 0 12 1;
#X connect 14 0 13 0;
#X connect 15 0 14 0;
#X connect 16 0 8 0;
#X connect 17 0 18 0;
#X connect 18 0 19 1;
#X connect 19 0 0 0;
#X connect 20 0 17 0;
#X connect 21 0 1 1;
#X connect 22 0 21 1;
#X connect 23 0 27 0;
#X connect 24 0 22 1;
#X connect 25 0 19 0;
#X connect 26 0 1 0;
#X connect 26 0 16 0;
#X connect 27 0 1 0;
#X connect 27 0 16 0;
#X connect 28 0 30 0;
#X connect 29 0 28 0;
#X connect 30 0 27 1;
#X restore 181 65 pd FEEDBACK;
#X obj 99 280 delread4~ \$0-delay1;
#X obj 98 195 line~;
#X msg 98 173 \$1 50;
#X obj 98 150 r \$0-time1;
#X obj 99 251 +~;
#X obj 99 424 outlet~;
#X obj 125 349 s~ \$0-feed_sig1;
#X obj 357 178 osc~;
#X obj 358 97 r \$0-speed1;
#X obj 358 140 line~;
#X msg 358 118 \$1 50;
#X obj 356 258 *~;
#X obj 408 242 line~;
#X msg 408 220 \$1 50;
#X obj 408 199 r \$0-depth1;
#X obj 274 365 *~;
#X obj 292 336 == 0;
#X obj 407 360 *~;
#X obj 425 303 r \$0-mod1;
#X obj 407 387 s~ \$0-lfo_freq1;
#X obj 274 388 s~ \$0-lfo_time1;
#X obj 255 36 r~ \$0-feed_sig1;
#X obj 155 222 r~ \$0-lfo_time1;
#X obj 274 309 *~ 5;
#X connect 0 0 2 0;
#X connect 2 0 1 0;
#X connect 3 0 9 0;
#X connect 3 0 8 0;
#X connect 4 0 7 0;
#X connect 5 0 4 0;
#X connect 6 0 5 0;
#X connect 7 0 3 0;
#X connect 10 0 14 0;
#X connect 11 0 13 0;
#X connect 12 0 10 0;
#X connect 13 0 12 0;
#X connect 14 0 20 0;
#X connect 14 0 26 0;
#X connect 15 0 14 1;
#X connect 16 0 15 0;
#X connect 17 0 16 0;
#X connect 18 0 23 0;
#X connect 19 0 18 1;
#X connect 20 0 22 0;
#X connect 21 0 19 0;
#X connect 21 0 20 1;
#X connect 24 0 2 1;
#X connect 25 0 7 1;
#X connect 26 0 18 0;
#X restore 537 207 pd DELAY1;
#X obj 217 123 mknob 18 100 0 1 0 0 \$0-feedback1 \$0-feedback1R FBK
3 24 1 7 7.01809e+007 0 7.01806e+007 8100 1;
#X obj 193 123 mknob 18 100 30 600 0 0 \$0-time1 \$0-time1R DLY 3 24
1 7 7.01809e+007 0 7.01806e+007 400 1;
#X obj 116 123 mknob 18 100 1 100 0 0 \$0-qfactor1 \$0-qfactor1R MQF
3 24 1 7 7.01809e+007 0 7.01806e+007 7400 1;
#X obj 138 123 mknob 18 100 -1 1 0 0 \$0-midgain1 \$0-midgain1R MGN
3 24 1 7 7.01809e+007 0 7.01806e+007 8700 1;
#X obj 160 123 mknob 18 100 100 5000 1 0 \$0-midfreq1 \$0-midfreq1R
MFR 3 24 1 7 7.01809e+007 0 7.01806e+007 3100 1;
#X obj 109 158 mknob 18 100 10 500 0 0 \$0-hipass1 \$0-hipass1R HPF
3 24 1 7 7.01809e+007 0 7.01806e+007 7100 1;
#X obj 177 158 mknob 18 100 0.1 2 0 0 \$0-speed1 \$0-speed1R SPD 3
24 1 7 7.01809e+007 0 7.01806e+007 4000 1;
#X obj 130 158 mknob 18 100 4000 200 1 0 \$0-lopass1 \$0-lopass1R LPF
3 24 1 7 7.01809e+007 0 7.01806e+007 4200 1;
#X obj 156 158 mknob 18 100 0 1 0 0 \$0-depth1 \$0-depth1R DPT 3 24
1 7 7.01809e+007 0 7.01806e+007 3100 1;
#N canvas 135 88 450 300 tgl 0;
#X obj 100 100 tgl 12 0 \$0-mod1 \$0-mod1R M 2 6 1 10 -166441 -166441
-66577 1 1;
#X obj 163 136 sel 0 1;
#X msg 163 181 color \$1 \$2 \$3;
#X msg 163 157 2 2 1;
#X msg 216 157 1 1 2;
#X obj 94 66 inlet;
#X obj 85 154 outlet;
#X obj 162 203 s \$0-mod1R;
#X obj 163 115 r \$0-mod1;
#X connect 0 0 6 0;
#X connect 1 0 3 0;
#X connect 1 1 4 0;
#X connect 2 0 7 0;
#X connect 3 0 2 0;
#X connect 4 0 2 0;
#X connect 5 0 0 0;
#X connect 8 0 1 0;
#X coords 0 -1 1 1 12 12 2 100 100;
#X restore 198 161 pd tgl;
#X obj 503 170 *~;
#X obj 444 170 *~;
#X obj 513 82 == 0;
#X obj 566 58 r \$0-byp;
#X msg 566 103 \$1 50;
#X obj 566 124 line~;
#X msg 513 104 \$1 50;
#X obj 513 125 line~;
#X obj 104 192 hvumeter2;
#X obj 522 327 env~;
#X obj 522 352 - 99;
#N canvas 639 53 453 635 makePreset 0;
#X obj 34 559 outlet message;
#X msg 52 93 preset.name;
#X obj 52 67 metro 5000;
#X obj 52 40 loadbang;
#X obj 34 492 pack s f f f f f f f f f f f;
#X msg 34 525 set \$1 \$2 \$3 \$4 \$5 \$6 \$7 \$8 \$9 \$10 \$11 \$12
;
#X obj 69 119 r \$0-qfactor1;
#X obj 87 142 r \$0-midgain1;
#X obj 104 174 r \$0-midfreq1;
#X obj 124 200 r \$0-time1;
#X obj 143 228 r \$0-feedback1;
#X obj 163 254 r \$0-hipass1;
#X obj 185 290 r \$0-lopass1;
#X obj 210 318 r \$0-depth1;
#X obj 229 346 r \$0-speed1;
#X obj 249 372 r \$0-mod1;
#X obj 263 401 r \$0-mix;
#X connect 1 0 4 0;
#X connect 2 0 1 0;
#X connect 3 0 2 0;
#X connect 4 0 5 0;
#X connect 5 0 0 0;
#X connect 6 0 4 1;
#X connect 7 0 4 2;
#X connect 8 0 4 3;
#X connect 9 0 4 4;
#X connect 10 0 4 5;
#X connect 11 0 4 6;
#X connect 12 0 4 7;
#X connect 13 0 4 8;
#X connect 14 0 4 9;
#X connect 15 0 4 10;
#X connect 16 0 4 11;
#X restore 796 322 pd makePreset;
#N canvas 429 50 406 431 loadPreset 0;
#X obj 53 39 inlet message;
#X obj 65 328 s \$0-qfactor1R;
#X obj 85 307 s \$0-midgain1R;
#X obj 102 288 s \$0-midfreq1R;
#X obj 124 264 s \$0-time1R;
#X obj 141 243 s \$0-feedback1R;
#X obj 181 198 s \$0-lopass1R;
#X obj 158 221 s \$0-hipass1R;
#X obj 52 62 unpack s f f f f f f f f f f f;
#X obj 202 163 s \$0-depth1R;
#X obj 219 142 s \$0-speed1R;
#X obj 236 120 s \$0-mod1R;
#X obj 259 97 s \$0-mixR;
#X connect 0 0 8 0;
#X connect 8 1 1 0;
#X connect 8 2 2 0;
#X connect 8 3 3 0;
#X connect 8 4 4 0;
#X connect 8 5 5 0;
#X connect 8 6 7 0;
#X connect 8 7 6 0;
#X connect 8 8 9 0;
#X connect 8 9 10 0;
#X connect 8 10 11 0;
#X connect 8 11 12 0;
#X restore 796 298 pd loadPreset;
#X msg 796 346 preset.name 75 0.757576 340.409 53.0303 0.818182 361.414
1122.3 0.313131 0.867677 1 0.343434;
#N canvas 519 50 618 705 presetDispenser 0;
#X obj 230 647 outlet;
#X msg 286 185;
#X msg 256 210;
#X msg 341 130;
#X msg 310 161;
#X obj 136 57 sel 0 1 2 3 4 5 6 7 8 9;
#X obj 136 28 inlet;
#X msg 29 458 INIT 35 0 200 300 0.2 10 4000 0.3 0.2 0 0.5;
#X msg 80 416 WARM-WABBLER 31 -0.717172 505.375 444.545 0.969697 188.182
2250.96 1 0.483838 1 0.646465;
#X msg 159 331 CHORUSY 35 0.0808081 1332.76 495.73 0.765657 198.081
4000 0.0878788 1.62019 0 0.611111;
#X msg 189 287 OLD-VYNIL 100 0.232323 477.044 64.5455 0.717172 10 4000
0.191919 1.62019 0 0.656566;
#X msg 126 376 WHISTLE 43 0.737374 2764.08 191.212 0.767677 237.677
3335.87 0.262626 0.1 1 0.454545;
#X msg 226 236 OLD-REVERB 75 0.757576 340.409 53.0303 0.818182 361.414
1122.3 0.313131 0.867677 0 0.343434;
#X connect 1 0 0 0;
#X connect 2 0 0 0;
#X connect 3 0 0 0;
#X connect 4 0 0 0;
#X connect 5 0 7 0;
#X connect 5 1 8 0;
#X connect 5 2 11 0;
#X connect 5 3 9 0;
#X connect 5 4 10 0;
#X connect 5 5 12 0;
#X connect 5 6 2 0;
#X connect 5 7 1 0;
#X connect 5 8 4 0;
#X connect 5 9 3 0;
#X connect 6 0 5 0;
#X connect 7 0 0 0;
#X connect 8 0 0 0;
#X connect 9 0 0 0;
#X connect 10 0 0 0;
#X connect 11 0 0 0;
#X connect 12 0 0 0;
#X restore 796 266 pd presetDispenser;
#X obj 796 234 r \$0-preset;
#X obj 796 102 loadbang;
#X obj 796 195 s \$0-presetR;
#X msg 796 140 0;
#X obj 808 170 s \$0-bypR;
#X obj 659 382 outlet~;
#X obj 662 44 inlet~;
#X connect 0 0 21 0;
#X connect 0 0 22 0;
#X connect 1 0 2 0;
#X connect 3 0 4 0;
#X connect 4 0 5 0;
#X connect 5 0 1 2;
#X connect 10 0 1 1;
#X connect 10 0 41 0;
#X connect 10 0 30 0;
#X connect 21 0 10 0;
#X connect 21 0 1 0;
#X connect 22 0 2 0;
#X connect 23 0 27 0;
#X connect 24 0 25 0;
#X connect 24 0 23 0;
#X connect 25 0 26 0;
#X connect 26 0 21 1;
#X connect 27 0 28 0;
#X connect 28 0 22 1;
#X connect 30 0 31 0;
#X connect 31 0 29 0;
#X connect 32 0 34 0;
#X connect 35 0 33 0;
#X connect 36 0 35 0;
#X connect 37 0 39 0;
#X connect 39 0 38 0;
#X connect 39 0 40 0;
#X connect 42 0 10 0;
#X coords 0 -1 1 1 150 100 2 100 100;
