#N canvas 766 181 450 408 10;
#X obj 95 41 inlet;
#X obj 95 226 outlet;
#X text 149 41 Bandwidth;
#X text 153 226 Q;
#X obj 95 125 * 0.34657;
#X obj 95 145 expr 2*sinh($f1);
#X obj 95 164 swap 1;
#X obj 95 184 /;
#X obj 95 92 max 0.001;
#X connect 0 0 8 0;
#X connect 4 0 5 0;
#X connect 5 0 6 0;
#X connect 6 0 7 0;
#X connect 6 1 7 1;
#X connect 7 0 1 0;
#X connect 8 0 4 0;
