#N canvas 411 155 614 664 10;
#X floatatom 124 201 2 0 99 0 - - -, f 2;
#X obj 158 250 div 10;
#X floatatom 112 201 2 0 99 0 - - -, f 2;
#X obj 108 250 div 10;
#X floatatom 100 201 2 0 99 0 - - -, f 2;
#X obj 59 250 div 10;
#X obj 108 303 * 10;
#X obj 59 303 * 100;
#X obj 108 357 +;
#X obj 108 324 t b f;
#X obj 158 356 t b f;
#X obj 108 392 +;
#X obj 134 143 mod 100;
#X obj 183 143 mod 10;
#X obj 78 143 div 10;
#X obj 183 163 * 10;
#X obj 222 316 makefilename %d;
#X msg 222 341 label \$1;
#X obj 222 365 s \$0-uni;
#X obj 209 387 makefilename %d;
#X msg 209 412 label \$1;
#X obj 197 460 makefilename %d;
#X msg 197 485 label \$1;
#X obj 197 509 s \$0-cen;
#X obj 209 436 s \$0-dec;
#X obj 84 20 inlet;
#X obj 108 459 outlet;
#X obj 90 73 clip 0 999;
#X obj 100 200 cnv 5 38 16 empty \$0-bkgnd empty 20 12 0 14 -66577
-66577 0;
#X obj 84 42 route color;
#X obj 296 197 unpack f f f;
#X msg 264 249 color \$1;
#X obj 264 281 s \$0-bkgnd;
#X obj 354 250 pack f f;
#X obj 355 339 s \$0-uni;
#X obj 366 318 s \$0-dec;
#X obj 108 429 change;
#X obj 191 10 loadbang;
#X msg 169 101 0;
#X obj 378 299 s \$0-cen;
#X msg 355 278 color \$1 0 \$2;
#X obj 264 167 expr if($f1==0 \, 2 \, $f1);
#X obj 353 138 expr if($f1==0 \, 1 \, $f1);
#X obj 399 113 expr if($f1==0 \, 0 \, $f1);
#X obj 264 144 f \$1;
#X obj 353 118 f \$2;
#X obj 399 91 f \$3;
#X obj 364 61 t b b;
#X obj 102 202 cnv 10 10 12 empty \$0-cen 6 2 6 0 12 -166441 -262144
0;
#X obj 114 202 cnv 10 10 12 empty \$0-dec 3 2 6 0 12 -166441 -262144
0;
#X obj 126 202 cnv 10 10 12 empty \$0-uni 4 2 6 0 12 -166441 -262144
0;
#X connect 0 0 1 0;
#X connect 1 0 10 0;
#X connect 1 0 16 0;
#X connect 2 0 3 0;
#X connect 3 0 6 0;
#X connect 3 0 19 0;
#X connect 4 0 5 0;
#X connect 5 0 7 0;
#X connect 5 0 21 0;
#X connect 6 0 9 0;
#X connect 7 0 8 0;
#X connect 8 0 11 0;
#X connect 9 0 8 0;
#X connect 9 1 8 1;
#X connect 10 0 11 0;
#X connect 10 1 11 1;
#X connect 11 0 36 0;
#X connect 12 0 2 0;
#X connect 13 0 15 0;
#X connect 14 0 4 0;
#X connect 15 0 0 0;
#X connect 16 0 17 0;
#X connect 17 0 18 0;
#X connect 19 0 20 0;
#X connect 20 0 24 0;
#X connect 21 0 22 0;
#X connect 22 0 23 0;
#X connect 25 0 29 0;
#X connect 27 0 14 0;
#X connect 27 0 12 0;
#X connect 27 0 13 0;
#X connect 29 0 30 0;
#X connect 29 1 27 0;
#X connect 30 0 31 0;
#X connect 30 1 33 0;
#X connect 30 2 33 1;
#X connect 31 0 32 0;
#X connect 33 0 40 0;
#X connect 36 0 26 0;
#X connect 37 0 38 0;
#X connect 37 0 44 0;
#X connect 37 0 47 0;
#X connect 38 0 4 0;
#X connect 38 0 2 0;
#X connect 38 0 0 0;
#X connect 40 0 34 0;
#X connect 40 0 35 0;
#X connect 40 0 39 0;
#X connect 41 0 31 0;
#X connect 42 0 33 0;
#X connect 43 0 33 1;
#X connect 44 0 41 0;
#X connect 45 0 42 0;
#X connect 46 0 43 0;
#X connect 47 0 45 0;
#X connect 47 1 46 0;
#X coords 0 -1 1 1 38 16 2 100 200;
