#N canvas 580 107 636 710 10;
#X obj 405 42 loadbang;
#X obj 100 100 tgl 10 0 \$0-ctglS \$0-ctglR H 3 5 1 7 -262144 -262144
-1 0 1;
#X obj 74 40 inlet;
#X obj 77 212 outlet;
#X obj 224 120 sel 0 1;
#X obj 289 102 f \$1;
#X obj 346 101 f \$2;
#X msg 229 250 0 0;
#X msg 262 250 0 0;
#X obj 192 38 loadbang;
#X msg 192 64 0;
#X obj 229 312 s \$0-ctglR;
#X msg 229 280 color \$1 \$1 \$2;
#X obj 406 101 symbol \$3;
#X obj 298 161 pack;
#X msg 289 206 set \$1 \$2;
#X msg 367 206 set \$2 \$1;
#X msg 362 294 label \$1;
#X connect 0 0 6 0;
#X connect 0 0 5 0;
#X connect 0 0 13 0;
#X connect 1 0 3 0;
#X connect 1 0 4 0;
#X connect 2 0 1 0;
#X connect 4 0 7 0;
#X connect 4 1 8 0;
#X connect 5 0 14 0;
#X connect 6 0 14 1;
#X connect 7 0 12 0;
#X connect 8 0 12 0;
#X connect 9 0 10 0;
#X connect 10 0 1 0;
#X connect 12 0 11 0;
#X connect 13 0 17 0;
#X connect 14 0 15 0;
#X connect 14 0 16 0;
#X connect 15 0 7 0;
#X connect 16 0 8 0;
#X connect 17 0 11 0;
#X coords 0 -1 1 1 10 10 2 100 100;
