#N canvas 0 50 957 776 12;
#X obj 528 471 *~;
#X obj 528 497 +~;
#X obj 528 445 osc~;
#X obj 365 467 *~;
#X obj 365 493 +~;
#X obj 365 441 osc~;
#X obj 424 492 * 2;
#X obj 587 496 * 2;
#X msg 331 335 0.666 4000;
#X msg 330 363 5.666 4000;
#X msg 555 365 6.666 2000;
#X msg 555 337 0.833 2000;
#X obj 170 15 inlet depth;
#X obj 585 18 inlet speed;
#X obj 438 640 crossfade~;
#X obj 438 694 outlet~ AudioOUT;
#X obj 672 19 inlet;
#X obj 672 46 switch~;
#X obj 364 19 inlet balance;
#X obj 472 17 inlet crossover;
#X obj 365 519 vd~ \$0-a;
#X obj 489 539 *~ 1;
#X obj 574 537 *~ -1;
#X obj 574 578 vd~ \$0-b;
#X obj 489 579 vd~ \$0-b;
#X obj 217 183 delwrite~ \$0-a 50;
#X obj 445 182 delwrite~ \$0-b 50;
#X obj 269 17 inlet rate;
#X obj 610 245 spigot;
#X obj 460 291 sel 0 1;
#X obj 654 201 == 2;
#X obj 696 284 * 1.2;
#X msg 434 353 \$1 2000;
#X msg 658 359 \$1 1000;
#X obj 364 400 line~;
#X obj 534 407 line~;
#X obj 614 171 t b f;
#X obj 217 151 lop~;
#X obj 445 152 hip~;
#X obj 54 15 inlet~ AudioIN;
#X connect 0 0 1 0;
#X connect 1 0 21 0;
#X connect 1 0 22 0;
#X connect 2 0 0 0;
#X connect 3 0 4 0;
#X connect 4 0 20 0;
#X connect 5 0 3 0;
#X connect 6 0 4 1;
#X connect 7 0 1 1;
#X connect 8 0 34 0;
#X connect 9 0 34 0;
#X connect 10 0 35 0;
#X connect 11 0 35 0;
#X connect 12 0 3 1;
#X connect 12 0 6 0;
#X connect 12 0 0 1;
#X connect 12 0 7 0;
#X connect 13 0 29 0;
#X connect 13 0 36 0;
#X connect 14 0 15 0;
#X connect 16 0 17 0;
#X connect 18 0 14 2;
#X connect 19 0 37 1;
#X connect 19 0 38 1;
#X connect 20 0 14 0;
#X connect 21 0 24 0;
#X connect 22 0 23 0;
#X connect 23 0 14 1;
#X connect 24 0 14 1;
#X connect 27 0 28 0;
#X connect 28 0 32 0;
#X connect 28 0 31 0;
#X connect 29 0 8 0;
#X connect 29 0 11 0;
#X connect 29 1 10 0;
#X connect 29 1 9 0;
#X connect 30 0 28 1;
#X connect 31 0 33 0;
#X connect 32 0 34 0;
#X connect 33 0 35 0;
#X connect 34 0 5 0;
#X connect 35 0 2 0;
#X connect 36 0 28 0;
#X connect 36 1 30 0;
#X connect 37 0 25 0;
#X connect 38 0 26 0;
#X connect 39 0 37 0;
#X connect 39 0 38 0;
