#N canvas 0 50 954 796 12;
#X obj 218 338 == 0;
#X obj 548 322 *~ -1;
#X obj 548 346 +~ 1;
#X obj 338 344 == 1;
#X obj 481 346 == 2;
#X obj 593 348 == 3;
#X obj 674 342 == 4;
#X obj 509 56 inlet wave;
#X obj 149 607 *~;
#X obj 220 563 expr 1-$f1;
#X obj 208 523 *~ 0;
#X obj 173 581 +~;
#X obj 443 416 -~ 0.5;
#X obj 252 58 inlet freq;
#X obj 200 303 osc~;
#X obj 103 698 outlet~;
#X obj 153 66 inlet~;
#X obj 656 57 inlet switch;
#X obj 707 102 switch~;
#X obj 200 370 *~;
#X obj 318 369 *~;
#X obj 455 366 *~;
#X obj 548 370 *~;
#X obj 657 366 *~;
#X obj 360 58 inlet depth;
#X obj 489 440 *~ 2;
#X obj 490 470 lop~ 50;
#X obj 374 489 *~;
#X obj 367 463 != 0;
#X obj 647 316 expr~ if($v1>0.5 \, 1 \, 0);
#X obj 483 245 phasor~;
#X obj 318 321 expr~ 2*abs($v1-0.5);
#X connect 0 0 19 1;
#X connect 1 0 2 0;
#X connect 2 0 22 0;
#X connect 3 0 20 1;
#X connect 4 0 21 1;
#X connect 5 0 22 1;
#X connect 6 0 23 1;
#X connect 7 0 0 0;
#X connect 7 0 3 0;
#X connect 7 0 4 0;
#X connect 7 0 5 0;
#X connect 7 0 6 0;
#X connect 7 0 28 0;
#X connect 8 0 15 0;
#X connect 9 0 11 1;
#X connect 10 0 11 0;
#X connect 11 0 8 1;
#X connect 12 0 25 0;
#X connect 13 0 14 0;
#X connect 13 0 30 0;
#X connect 14 0 19 0;
#X connect 16 0 8 0;
#X connect 17 0 18 0;
#X connect 19 0 10 0;
#X connect 20 0 12 0;
#X connect 21 0 12 0;
#X connect 22 0 12 0;
#X connect 23 0 12 0;
#X connect 24 0 10 1;
#X connect 24 0 9 0;
#X connect 25 0 26 0;
#X connect 26 0 27 0;
#X connect 27 0 10 0;
#X connect 28 0 27 1;
#X connect 29 0 23 0;
#X connect 30 0 1 0;
#X connect 30 0 21 0;
#X connect 30 0 29 0;
#X connect 30 0 31 0;
#X connect 31 0 20 0;
