#N canvas 68 50 1212 869 10;
#X obj 539 246 sel 0 1;
#X msg 539 267 2;
#X msg 539 288 color \$1;
#X obj 539 309 s \$0-sk1;
#X obj 609 246 sel 0 1;
#X msg 609 267 2;
#X msg 609 288 color \$1;
#X obj 609 309 s \$0-sk2;
#X obj 680 246 sel 0 1;
#X msg 680 267 2;
#X msg 680 288 color \$1;
#X obj 680 309 s \$0-sk3;
#X obj 747 246 sel 0 1;
#X msg 747 267 2;
#X msg 747 288 color \$1;
#X obj 747 309 s \$0-sk4;
#X obj 536 389 sel 0 1;
#X msg 536 410 2;
#X msg 536 431 color \$1;
#X obj 607 389 sel 0 1;
#X msg 607 410 2;
#X msg 607 431 color \$1;
#X obj 679 389 sel 0 1;
#X msg 679 410 2;
#X msg 679 431 color \$1;
#X obj 544 549 sel 0 1;
#X msg 544 570 2;
#X msg 544 591 color \$1;
#X obj 616 548 sel 0 1;
#X msg 616 569 2;
#X msg 616 590 color \$1;
#X obj 688 547 sel 0 1;
#X msg 688 568 2;
#X msg 688 589 color \$1;
#X obj 816 246 sel 0 1;
#X msg 816 267 2;
#X msg 816 288 color \$1;
#X obj 886 246 sel 0 1;
#X msg 886 267 2;
#X msg 886 288 color \$1;
#X obj 957 246 sel 0 1;
#X msg 957 267 2;
#X msg 957 288 color \$1;
#X obj 1024 246 sel 0 1;
#X msg 1024 267 2;
#X msg 1024 288 color \$1;
#X obj 746 389 sel 0 1;
#X msg 746 410 2;
#X msg 746 431 color \$1;
#X obj 817 389 sel 0 1;
#X msg 817 410 2;
#X msg 817 431 color \$1;
#X obj 889 389 sel 0 1;
#X msg 889 410 2;
#X msg 889 431 color \$1;
#X obj 765 548 sel 0 1;
#X msg 765 569 2;
#X msg 765 590 color \$1;
#X obj 837 547 sel 0 1;
#X msg 837 568 2;
#X msg 837 589 color \$1;
#X obj 909 546 sel 0 1;
#X msg 909 567 2;
#X msg 909 588 color \$1;
#X obj 816 309 s \$0-sk5;
#X obj 886 309 s \$0-sk6;
#X obj 957 309 s \$0-sk7;
#X obj 1024 309 s \$0-sk8;
#X obj 536 452 s \$0-sk9;
#X obj 607 452 s \$0-sk10;
#X obj 679 452 s \$0-sk11;
#X obj 746 452 s \$0-sk12;
#X obj 817 452 s \$0-sk13;
#X obj 889 452 s \$0-sk14;
#X obj 544 612 s \$0-sk15;
#X obj 616 611 s \$0-sk16;
#X obj 688 610 s \$0-sk17;
#X obj 765 611 s \$0-sk18;
#X obj 837 610 s \$0-sk19;
#X obj 909 609 s \$0-sk20;
#X obj 538 223 change;
#X obj 608 224 change;
#X obj 680 224 change;
#X obj 750 225 change;
#X obj 816 224 change;
#X obj 886 225 change;
#X obj 958 225 change;
#X obj 1028 226 change;
#X obj 538 364 change;
#X obj 608 365 change;
#X obj 674 364 change;
#X obj 744 365 change;
#X obj 816 365 change;
#X obj 886 366 change;
#X obj 544 522 change;
#X obj 616 523 change;
#X obj 688 522 change;
#X obj 765 523 change;
#X obj 837 523 change;
#X obj 909 522 change;
#X obj 538 202 == 1;
#X obj 608 202 == 2;
#X obj 679 202 == 3;
#X obj 746 202 == 4;
#X obj 815 202 == 5;
#X obj 885 202 == 6;
#X obj 956 202 == 7;
#X obj 1023 202 == 8;
#X obj 537 340 == 9;
#X obj 608 340 == 10;
#X obj 680 340 == 11;
#X obj 747 340 == 12;
#X obj 818 340 == 13;
#X obj 890 340 == 14;
#X obj 544 494 == 15;
#X obj 616 493 == 16;
#X obj 688 492 == 17;
#X obj 765 493 == 18;
#X obj 837 492 == 19;
#X obj 909 491 == 20;
#X msg 458 288 color \$1;
#X obj 457 223 change;
#X obj 457 202 == 0;
#X obj 458 309 s \$0-sk0;
#X msg 384 289 color \$1;
#X obj 383 224 change;
#X obj 384 310 s \$0-sk0;
#X obj 383 203 == -1;
#X obj 384 247 sel 1;
#X obj 458 246 sel 1;
#X obj 316 204 > 0;
#X msg 317 293 color \$1;
#X obj 316 228 change;
#X obj 317 314 s \$0-sk0;
#X obj 317 251 sel 1;
#X msg 317 272 2;
#X obj 766 134 +;
#X obj 119 102 cnv 3 8 3 empty \$0-sk1 empty 20 12 0 14 -66577 -66577
0;
#X obj 131 102 cnv 3 8 3 empty \$0-sk2 empty 20 12 0 14 -66577 -66577
0;
#X obj 143 102 cnv 3 8 3 empty \$0-sk3 empty 20 12 0 14 -66577 -66577
0;
#X obj 155 102 cnv 3 8 3 empty \$0-sk4 empty 20 12 0 14 -66577 -66577
0;
#X obj 167 102 cnv 3 8 3 empty \$0-sk5 empty 20 12 0 14 -66577 -66577
0;
#X obj 179 102 cnv 3 8 3 empty \$0-sk6 empty 20 12 0 14 -66577 -66577
0;
#X obj 191 102 cnv 3 8 3 empty \$0-sk7 empty 20 12 0 14 -66577 -66577
0;
#X obj 203 102 cnv 3 8 3 empty \$0-sk8 empty 20 12 0 14 -66577 -66577
0;
#X obj 215 102 cnv 3 8 3 empty \$0-sk9 empty 20 12 0 14 -66577 -66577
0;
#X obj 227 102 cnv 3 8 3 empty \$0-sk10 empty 20 12 0 14 -66577 -66577
0;
#X obj 239 102 cnv 3 8 3 empty \$0-sk11 empty 20 12 0 14 -66577 -66577
0;
#X obj 251 102 cnv 3 8 3 empty \$0-sk12 empty 20 12 0 14 -66577 -66577
0;
#X obj 263 102 cnv 3 8 3 empty \$0-sk13 empty 20 12 0 14 -66577 -66577
0;
#X obj 275 102 cnv 3 8 3 empty \$0-sk14 empty 20 12 0 14 -66577 -66577
0;
#X obj 287 102 cnv 3 8 3 empty \$0-sk15 empty 20 12 0 14 -66577 -66577
0;
#X obj 299 102 cnv 3 8 3 empty \$0-sk16 empty 20 12 0 14 -66577 -66577
0;
#X obj 311 102 cnv 3 8 3 empty \$0-sk17 empty 20 12 0 14 -66577 -66577
0;
#X obj 323 102 cnv 3 8 3 empty \$0-sk18 empty 20 12 0 14 -66577 -66577
0;
#X obj 335 102 cnv 3 8 3 empty \$0-sk19 empty 20 12 0 14 -66577 -66577
0;
#X obj 347 102 cnv 3 8 3 empty \$0-sk20 empty 20 12 0 14 -66577 -66577
0;
#X obj 102 102 cnv 3 8 3 empty \$0-sk0 empty 20 12 0 14 -143491 -66577
0;
#X obj 766 94 inlet;
#X msg 458 267 1;
#X msg 572 267 1;
#X msg 642 267 1;
#X msg 713 267 1;
#X msg 780 267 1;
#X msg 849 267 1;
#X msg 919 267 1;
#X msg 990 267 1;
#X msg 1056 267 1;
#X msg 921 410 1;
#X msg 850 410 1;
#X msg 779 410 1;
#X msg 711 410 1;
#X msg 640 410 1;
#X msg 569 410 1;
#X msg 577 570 1;
#X msg 649 569 1;
#X msg 721 568 1;
#X msg 798 569 1;
#X msg 870 568 1;
#X msg 942 567 1;
#X msg 384 268 23;
#X connect 0 0 1 0;
#X connect 0 1 160 0;
#X connect 1 0 2 0;
#X connect 2 0 3 0;
#X connect 4 0 5 0;
#X connect 4 1 161 0;
#X connect 5 0 6 0;
#X connect 6 0 7 0;
#X connect 8 0 9 0;
#X connect 8 1 162 0;
#X connect 9 0 10 0;
#X connect 10 0 11 0;
#X connect 12 0 13 0;
#X connect 12 1 163 0;
#X connect 13 0 14 0;
#X connect 14 0 15 0;
#X connect 16 0 17 0;
#X connect 16 1 173 0;
#X connect 17 0 18 0;
#X connect 18 0 68 0;
#X connect 19 0 20 0;
#X connect 19 1 172 0;
#X connect 20 0 21 0;
#X connect 21 0 69 0;
#X connect 22 0 23 0;
#X connect 22 1 171 0;
#X connect 23 0 24 0;
#X connect 24 0 70 0;
#X connect 25 0 26 0;
#X connect 25 1 174 0;
#X connect 26 0 27 0;
#X connect 27 0 74 0;
#X connect 28 0 29 0;
#X connect 28 1 175 0;
#X connect 29 0 30 0;
#X connect 30 0 75 0;
#X connect 31 0 32 0;
#X connect 31 1 176 0;
#X connect 32 0 33 0;
#X connect 33 0 76 0;
#X connect 34 0 35 0;
#X connect 34 1 164 0;
#X connect 35 0 36 0;
#X connect 36 0 64 0;
#X connect 37 0 38 0;
#X connect 37 1 165 0;
#X connect 38 0 39 0;
#X connect 39 0 65 0;
#X connect 40 0 41 0;
#X connect 40 1 166 0;
#X connect 41 0 42 0;
#X connect 42 0 66 0;
#X connect 43 0 44 0;
#X connect 43 1 167 0;
#X connect 44 0 45 0;
#X connect 45 0 67 0;
#X connect 46 0 47 0;
#X connect 46 1 170 0;
#X connect 47 0 48 0;
#X connect 48 0 71 0;
#X connect 49 0 50 0;
#X connect 49 1 169 0;
#X connect 50 0 51 0;
#X connect 51 0 72 0;
#X connect 52 0 53 0;
#X connect 52 1 168 0;
#X connect 53 0 54 0;
#X connect 54 0 73 0;
#X connect 55 0 56 0;
#X connect 55 1 177 0;
#X connect 56 0 57 0;
#X connect 57 0 77 0;
#X connect 58 0 59 0;
#X connect 58 1 178 0;
#X connect 59 0 60 0;
#X connect 60 0 78 0;
#X connect 61 0 62 0;
#X connect 61 1 179 0;
#X connect 62 0 63 0;
#X connect 63 0 79 0;
#X connect 80 0 0 0;
#X connect 81 0 4 0;
#X connect 82 0 8 0;
#X connect 83 0 12 0;
#X connect 84 0 34 0;
#X connect 85 0 37 0;
#X connect 86 0 40 0;
#X connect 87 0 43 0;
#X connect 88 0 16 0;
#X connect 89 0 19 0;
#X connect 90 0 22 0;
#X connect 91 0 46 0;
#X connect 92 0 49 0;
#X connect 93 0 52 0;
#X connect 94 0 25 0;
#X connect 95 0 28 0;
#X connect 96 0 31 0;
#X connect 97 0 55 0;
#X connect 98 0 58 0;
#X connect 99 0 61 0;
#X connect 100 0 80 0;
#X connect 101 0 81 0;
#X connect 102 0 82 0;
#X connect 103 0 83 0;
#X connect 104 0 84 0;
#X connect 105 0 85 0;
#X connect 106 0 86 0;
#X connect 107 0 87 0;
#X connect 108 0 88 0;
#X connect 109 0 89 0;
#X connect 110 0 90 0;
#X connect 111 0 91 0;
#X connect 112 0 92 0;
#X connect 113 0 93 0;
#X connect 114 0 94 0;
#X connect 115 0 95 0;
#X connect 116 0 96 0;
#X connect 117 0 97 0;
#X connect 118 0 98 0;
#X connect 119 0 99 0;
#X connect 120 0 123 0;
#X connect 121 0 129 0;
#X connect 122 0 121 0;
#X connect 124 0 126 0;
#X connect 125 0 128 0;
#X connect 127 0 125 0;
#X connect 128 0 180 0;
#X connect 129 0 159 0;
#X connect 130 0 132 0;
#X connect 131 0 133 0;
#X connect 132 0 134 0;
#X connect 134 0 135 0;
#X connect 135 0 131 0;
#X connect 136 0 100 0;
#X connect 136 0 101 0;
#X connect 136 0 102 0;
#X connect 136 0 103 0;
#X connect 136 0 104 0;
#X connect 136 0 105 0;
#X connect 136 0 106 0;
#X connect 136 0 107 0;
#X connect 136 0 108 0;
#X connect 136 0 109 0;
#X connect 136 0 110 0;
#X connect 136 0 111 0;
#X connect 136 0 112 0;
#X connect 136 0 113 0;
#X connect 136 0 114 0;
#X connect 136 0 115 0;
#X connect 136 0 116 0;
#X connect 136 0 117 0;
#X connect 136 0 118 0;
#X connect 136 0 119 0;
#X connect 136 0 122 0;
#X connect 136 0 127 0;
#X connect 136 0 130 0;
#X connect 158 0 136 0;
#X connect 159 0 120 0;
#X connect 160 0 2 0;
#X connect 161 0 6 0;
#X connect 162 0 10 0;
#X connect 163 0 14 0;
#X connect 164 0 36 0;
#X connect 165 0 39 0;
#X connect 166 0 42 0;
#X connect 167 0 45 0;
#X connect 168 0 54 0;
#X connect 169 0 51 0;
#X connect 170 0 48 0;
#X connect 171 0 24 0;
#X connect 172 0 21 0;
#X connect 173 0 18 0;
#X connect 174 0 27 0;
#X connect 175 0 30 0;
#X connect 176 0 33 0;
#X connect 177 0 57 0;
#X connect 178 0 60 0;
#X connect 179 0 63 0;
#X connect 180 0 124 0;
#X coords 0 -1 1 1 258 7 2 100 100;
