#N canvas 211 115 915 747 10;
#X obj 450 11 inlet;
#X obj 450 86 unpack f f f f f f;
#X obj 101 101 cnv 15 258 37 empty empty empty 20 12 0 14 -33289 -66577
0;
#X obj 251 282 moses 0;
#X obj 324 282 moses 0;
#X obj 397 282 moses 0;
#X obj 470 282 moses 0;
#X obj 543 282 moses 0;
#X obj 616 282 moses 0;
#X obj 297 312 + 0;
#X obj 370 312 + 0;
#X obj 443 312 + 0;
#X obj 516 312 + 0;
#X obj 589 312 + 0;
#X obj 662 312 + 0;
#X obj 616 86 unpack f f f f f f;
#X obj 499 526 outlet;
#X obj 32 188 loadbang;
#X obj 32 288 f \$1;
#X obj 32 316 expr if($f1==0 \, 64 \, $f1);
#X obj 54 227 f \$2;
#X obj 54 255 expr if($f1==0 \, 500 \, $f1);
#X obj 297 394 pack f f;
#X obj 297 369 makenote;
#X obj 370 394 pack f f;
#X obj 370 369 makenote;
#X obj 443 394 pack f f;
#X obj 443 369 makenote;
#X obj 516 394 pack f f;
#X obj 516 369 makenote;
#X obj 589 394 pack f f;
#X obj 589 369 makenote;
#X obj 662 394 pack f f;
#X obj 662 369 makenote;
#X obj 751 86 unpack f f f f f f;
#X obj 764 255 unpack f f f f f f;
#X obj 450 36 route fin tuning velocity duration mvel mdur;
#X msg 751 64 \$1 \$1 \$1 \$1 \$1 \$1;
#X msg 764 232 \$1 \$1 \$1 \$1 \$1 \$1;
#X obj 408 62 bang;
#X obj 297 331 + 40;
#X obj 662 331 + 64;
#X obj 370 331 + 45;
#X obj 589 331 + 59;
#X obj 443 331 + 50;
#X obj 516 331 + 55;
#X obj 101 119 guitarstring;
#X obj 101 125 guitarstring;
#X obj 101 101 guitarstring;
#X obj 101 107 guitarstring;
#X obj 101 113 guitarstring;
#X obj 101 131 guitarstring;
#X connect 0 0 36 0;
#X connect 1 0 3 0;
#X connect 1 0 51 0;
#X connect 1 1 4 0;
#X connect 1 1 47 0;
#X connect 1 2 5 0;
#X connect 1 2 46 0;
#X connect 1 3 6 0;
#X connect 1 3 50 0;
#X connect 1 4 7 0;
#X connect 1 4 49 0;
#X connect 1 5 8 0;
#X connect 1 5 48 0;
#X connect 3 1 9 0;
#X connect 4 1 10 0;
#X connect 5 1 11 0;
#X connect 6 1 12 0;
#X connect 7 1 13 0;
#X connect 8 1 14 0;
#X connect 9 0 40 0;
#X connect 10 0 42 0;
#X connect 11 0 44 0;
#X connect 12 0 45 0;
#X connect 13 0 43 0;
#X connect 14 0 41 0;
#X connect 15 0 9 1;
#X connect 15 1 10 1;
#X connect 15 2 11 1;
#X connect 15 3 12 1;
#X connect 15 4 13 1;
#X connect 15 5 14 1;
#X connect 17 0 18 0;
#X connect 17 0 20 0;
#X connect 18 0 19 0;
#X connect 19 0 23 1;
#X connect 19 0 25 1;
#X connect 19 0 27 1;
#X connect 19 0 29 1;
#X connect 19 0 31 1;
#X connect 19 0 33 1;
#X connect 20 0 21 0;
#X connect 21 0 23 2;
#X connect 21 0 25 2;
#X connect 21 0 27 2;
#X connect 21 0 29 2;
#X connect 21 0 31 2;
#X connect 21 0 33 2;
#X connect 22 0 16 0;
#X connect 23 0 22 0;
#X connect 23 1 22 1;
#X connect 24 0 16 0;
#X connect 25 0 24 0;
#X connect 25 1 24 1;
#X connect 26 0 16 0;
#X connect 27 0 26 0;
#X connect 27 1 26 1;
#X connect 28 0 16 0;
#X connect 29 0 28 0;
#X connect 29 1 28 1;
#X connect 30 0 16 0;
#X connect 31 0 30 0;
#X connect 31 1 30 1;
#X connect 32 0 16 0;
#X connect 33 0 32 0;
#X connect 33 1 32 1;
#X connect 34 0 23 1;
#X connect 34 1 25 1;
#X connect 34 2 27 1;
#X connect 34 3 29 1;
#X connect 34 4 31 1;
#X connect 34 5 33 1;
#X connect 35 0 23 2;
#X connect 35 1 25 2;
#X connect 35 2 27 2;
#X connect 35 3 29 2;
#X connect 35 4 31 2;
#X connect 35 5 33 2;
#X connect 36 0 1 0;
#X connect 36 1 15 0;
#X connect 36 2 34 0;
#X connect 36 3 35 0;
#X connect 36 4 37 0;
#X connect 36 5 38 0;
#X connect 36 6 39 0;
#X connect 37 0 34 0;
#X connect 38 0 35 0;
#X connect 39 0 3 0;
#X connect 39 0 4 0;
#X connect 39 0 5 0;
#X connect 39 0 6 0;
#X connect 39 0 7 0;
#X connect 39 0 8 0;
#X connect 40 0 23 0;
#X connect 41 0 33 0;
#X connect 42 0 25 0;
#X connect 43 0 31 0;
#X connect 44 0 27 0;
#X connect 45 0 29 0;
#X coords 0 -1 1 1 260 39 1 100 100;
