#N canvas 60 5 1240 692 10;
#N canvas 573 57 635 710 INPUT 0;
#X obj 189 30 adc~ 1;
#X obj 107 122 vsl 20 40 0.01 1 1 0 empty empty empty 0 -9 0 10 -4032
-1 -1 0 1;
#X floatatom 107 190 3 0 0 2 - - -;
#X obj 137 122 vu 15 80 empty empty -1 -8 0 10 -66577 -1 1 0;
#X obj 302 154 * 1;
#X obj 302 108 expr pow(10 \, $f1/20);
#X obj 107 167 tgl 20 0 empty empty empty 17 7 0 10 -4034 -1 -1 1 1
;
#X obj 352 28 sel 0 1;
#X msg 421 161 0, f 2;
#X obj 302 131 t b f;
#X obj 224 215 env~;
#X obj 302 85 min 40;
#X obj 224 242 - 99;
#X obj 295 270 s~ INPUT;
#X obj 65 54 loadbang;
#X obj 117 7 inlet~ externalinput;
#X obj 379 265 outlet~ TEST;
#X obj 459 211 line~;
#X msg 459 184 \$1 50;
#X obj 277 187 *~;
#X connect 0 0 19 0;
#X connect 1 0 4 0;
#X connect 2 0 11 0;
#X connect 4 0 18 0;
#X connect 5 0 9 0;
#X connect 6 0 7 0;
#X connect 7 0 8 0;
#X connect 7 1 1 0;
#X connect 8 0 18 0;
#X connect 9 0 4 0;
#X connect 9 1 4 1;
#X connect 10 0 12 0;
#X connect 11 0 5 0;
#X connect 12 0 3 0;
#X connect 14 0 6 0;
#X connect 15 0 19 0;
#X connect 17 0 19 1;
#X connect 18 0 17 0;
#X connect 19 0 10 0;
#X connect 19 0 13 0;
#X connect 19 0 16 0;
#X coords 0 -1 1 1 84 110 1 100 100;
#X restore 21 24 pd INPUT;
#N canvas 286 125 638 440 ROUTE 0;
#N canvas 562 354 450 300 INPUT 0;
#X obj 155 116 r~ INPUT;
#X obj 155 178 outlet~;
#X connect 0 0 1 0;
#X restore 85 21 pd INPUT;
#N canvas 203 236 450 300 OUTPUT 0;
#X obj 149 120 inlet~;
#X obj 149 178 s~ OUTPUT;
#X connect 0 0 1 0;
#X restore 101 382 pd OUTPUT;
#N canvas 132 144 450 300 DELAY 0;
#X obj 173 80 inlet~;
#X obj 172 248 outlet~;
#X obj 193 133 s~ DELAY-IN;
#X obj 190 190 r~ DELAY-OUT;
#X connect 0 0 2 0;
#X connect 3 0 1 0;
#X restore 119 276 pd DELAY;
#N canvas 132 144 450 300 AMPLIFIER 0;
#X obj 173 80 inlet~;
#X obj 193 133 s~ AMPLIFIER-IN;
#X obj 192 188 r~ AMPLIFIER-OUT;
#X obj 172 248 outlet~;
#X connect 0 0 1 0;
#X connect 2 0 3 0;
#X restore 119 140 pd AMPLIFIER;
#N canvas 132 144 450 300 TREMOLO 0;
#X obj 173 80 inlet~;
#X obj 172 248 outlet~;
#X obj 194 133 s~ TREMOLO-IN;
#X obj 190 190 r~ TREMOLO-OUT;
#X connect 0 0 2 0;
#X connect 3 0 1 0;
#X restore 126 170 pd TREMOLO;
#N canvas 132 144 450 300 CHORUS 0;
#X obj 173 80 inlet~;
#X obj 172 248 outlet~;
#X obj 194 133 s~ CHORUS-IN;
#X obj 190 190 r~ CHORUS-OUT;
#X connect 0 0 2 0;
#X connect 3 0 1 0;
#X restore 119 203 pd CHORUS;
#N canvas 132 144 450 300 PHASER 0;
#X obj 173 80 inlet~;
#X obj 172 248 outlet~;
#X obj 193 133 s~ PHASER-IN;
#X obj 192 188 r~ PHASER-OUT;
#X connect 0 0 2 0;
#X connect 3 0 1 0;
#X restore 98 77 pd PHASER;
#N canvas 132 144 450 300 FLANGER 0;
#X obj 173 80 inlet~;
#X obj 172 248 outlet~;
#X obj 193 133 s~ FLANGER-IN;
#X obj 192 188 r~ FLANGER-OUT;
#X connect 0 0 2 0;
#X connect 3 0 1 0;
#X restore 120 233 pd FLANGER;
#N canvas 132 144 450 300 VIBE 0;
#X obj 173 80 inlet~;
#X obj 172 248 outlet~;
#X obj 193 133 s~ VIBE-IN;
#X obj 192 188 r~ VIBE-OUT;
#X connect 0 0 2 0;
#X connect 3 0 1 0;
#X restore 119 255 pd VIBE;
#N canvas 629 305 450 300 EXTERNAL 0;
#X obj 113 30 inlet~;
#X obj 112 198 outlet~;
#X obj 131 83 s~ EXTERNAL-IN;
#X obj 132 138 r~ EXTERNAL-OUT;
#X connect 0 0 2 0;
#X connect 3 0 1 0;
#X restore 119 334 pd EXTERNAL;
#N canvas 629 305 450 300 PRE 0;
#X obj 113 30 inlet~;
#X obj 112 198 outlet~;
#X obj 131 83 s~ PRE-IN;
#X obj 132 138 r~ PRE-OUT;
#X connect 0 0 2 0;
#X connect 3 0 1 0;
#X restore 105 105 pd PRE;
#X connect 0 0 6 0;
#X connect 2 0 9 0;
#X connect 3 0 4 0;
#X connect 4 0 5 0;
#X connect 5 0 7 0;
#X connect 6 0 10 0;
#X connect 7 0 8 0;
#X connect 8 0 2 0;
#X connect 9 0 1 0;
#X connect 10 0 3 0;
#X restore 31 302 pd ROUTE;
#N canvas 680 140 561 364 OUTPUT 0;
#X obj 107 122 vsl 20 40 0.01 1 1 0 empty empty empty 0 -9 0 10 -4032
-1 -1 0 1;
#X floatatom 107 190 3 0 0 2 - - -;
#X obj 137 122 vu 15 80 empty empty -1 -8 0 10 -66577 -1 1 0;
#X obj 302 154 * 1;
#X obj 302 108 expr pow(10 \, $f1/20);
#X obj 107 167 tgl 20 0 empty empty empty 17 7 0 10 -4034 -1 -1 1 1
;
#X obj 352 28 sel 0 1;
#X msg 375 140 0, f 2;
#X obj 302 131 t b f;
#X obj 224 215 env~;
#X obj 302 85 min 40;
#X obj 224 242 - 99;
#X obj 65 54 loadbang;
#X obj 294 285 dac~;
#X obj 189 30 r~ OUTPUT;
#X obj 344 286 outlet~ TEST;
#X obj 156 6 inlet~ externalinput;
#X obj 459 211 line~;
#X msg 459 184 \$1 50;
#X obj 277 187 *~;
#X connect 0 0 3 0;
#X connect 1 0 10 0;
#X connect 3 0 18 0;
#X connect 4 0 8 0;
#X connect 5 0 6 0;
#X connect 6 0 7 0;
#X connect 6 1 0 0;
#X connect 7 0 18 0;
#X connect 8 0 3 0;
#X connect 8 1 3 1;
#X connect 9 0 11 0;
#X connect 10 0 4 0;
#X connect 11 0 2 0;
#X connect 12 0 5 0;
#X connect 14 0 19 0;
#X connect 16 0 19 0;
#X connect 17 0 19 1;
#X connect 18 0 17 0;
#X connect 19 0 9 0;
#X connect 19 0 13 0;
#X connect 19 0 13 1;
#X connect 19 0 15 0;
#X coords 0 -1 1 1 84 110 1 100 100;
#X restore 20 159 pd OUTPUT;
#N canvas 575 50 635 710 AMPLIFIER 0;
#X obj 115 664 s~ AMPLIFIER-OUT;
#X obj 114 312 r~ AMPLIFIER-IN;
#X obj 176 8 loadbang;
#X msg 112 47 0.707;
#X obj 140 430 *~ 1;
#X obj 111 124 vsl 20 70 0.99 0.1 0 0 empty empty HEAD -1 80 0 10 -262144
-1 -1 2194 1;
#X obj 138 124 vsl 20 70 0 80 0 0 empty empty GAIN -2 80 0 10 -262144
-1 -1 1725 1;
#X obj 142 507 lop~ 7000;
#X obj 142 533 lop~ 7000;
#X obj 165 124 vsl 20 70 500 1 0 0 empty empty LOW 1 80 0 10 -262144
-1 -1 6222 1;
#X obj 192 124 vsl 20 70 1000 13000 1 0 empty empty HIGH -2 80 0 10
-262144 -1 -1 5235 1;
#X obj 142 559 hip~ 50;
#X msg 194 76 7000;
#X msg 167 55 50;
#X msg 139 75 20;
#X obj 161 408 expr pow(10 \, $f1/20);
#X obj 219 178 tgl 20 0 empty empty ON 3 26 0 10 -262144 -1 -1 0 1
;
#X obj 219 124 vsl 20 40 0.01 1 1 0 empty empty VOL 1 50 0 10 -262144
-1 -1 3313 1;
#X obj 143 598 *~ 1;
#X msg 241 51 0.5;
#X obj 192 338 lop~ 10000;
#X obj 140 386 hip~ 100;
#X obj 241 522 * 1.5;
#N canvas 162 185 450 300 bypass 0;
#X obj 125 75 inlet~;
#X obj 198 71 inlet~;
#X obj 283 71 inlet;
#X obj 142 161 *~;
#X obj 226 164 *~;
#X obj 202 245 outlet~;
#X obj 179 126 == 0;
#X obj 268 131 == 1;
#X connect 0 0 3 0;
#X connect 1 0 4 0;
#X connect 2 0 6 0;
#X connect 2 0 7 0;
#X connect 3 0 5 0;
#X connect 4 0 5 0;
#X connect 6 0 3 1;
#X connect 7 0 4 1;
#X restore 114 634 pd bypass;
#X msg 48 435 0;
#X obj 263 665 outlet~ TEST;
#N canvas 472 232 450 390 dist 0;
#X obj 240 59 expr (2*$f1/(1-$f1));
#X obj 57 82 expr~ ((1+$f3)*$v1/(1+$f3*$v2));
#X obj 148 60 abs~;
#X obj 58 10 inlet~;
#X obj 240 10 inlet;
#X obj 58 170 outlet~;
#X obj 58 37 +~ 0.02;
#X connect 0 0 1 2;
#X connect 1 0 5 0;
#X connect 2 0 1 1;
#X connect 3 0 6 0;
#X connect 4 0 0 0;
#X connect 6 0 1 0;
#X connect 6 0 2 0;
#X restore 141 466 pd dist;
#X obj 192 362 lop~ 8000;
#X connect 1 0 20 0;
#X connect 1 0 23 0;
#X connect 2 0 3 0;
#X connect 2 0 12 0;
#X connect 2 0 13 0;
#X connect 2 0 14 0;
#X connect 2 0 19 0;
#X connect 2 0 24 0;
#X connect 3 0 5 0;
#X connect 4 0 26 0;
#X connect 5 0 26 1;
#X connect 6 0 15 0;
#X connect 7 0 8 0;
#X connect 8 0 11 0;
#X connect 9 0 11 1;
#X connect 9 0 21 1;
#X connect 10 0 7 1;
#X connect 10 0 22 0;
#X connect 11 0 18 0;
#X connect 12 0 10 0;
#X connect 13 0 9 0;
#X connect 14 0 6 0;
#X connect 15 0 4 1;
#X connect 16 0 23 2;
#X connect 17 0 18 1;
#X connect 18 0 23 1;
#X connect 19 0 17 0;
#X connect 20 0 27 0;
#X connect 21 0 4 0;
#X connect 22 0 8 1;
#X connect 23 0 0 0;
#X connect 23 0 25 0;
#X connect 24 0 23 2;
#X connect 26 0 7 0;
#X connect 27 0 21 0;
#X coords 0 -1 1 1 150 115 1 100 100;
#X restore 119 24 pd AMPLIFIER;
#N canvas 319 88 873 590 TREMOLO 0;
#X obj 311 215 r~ TREMOLO-IN;
#X obj 311 455 s~ TREMOLO-OUT;
#N canvas 162 185 450 300 bypass 0;
#X obj 125 75 inlet~;
#X obj 213 79 inlet~;
#X obj 308 80 inlet;
#X obj 142 161 *~;
#X obj 226 164 *~;
#X obj 202 245 outlet~;
#X obj 179 126 == 0;
#X obj 268 131 == 1;
#X connect 0 0 3 0;
#X connect 1 0 4 0;
#X connect 2 0 6 0;
#X connect 2 0 7 0;
#X connect 3 0 5 0;
#X connect 4 0 5 0;
#X connect 6 0 3 1;
#X connect 7 0 4 1;
#X restore 311 408 pd bypass;
#X obj 187 123 vsl 20 70 0 0.5 0 0 empty empty DEPTH -4 80 0 10 -262144
-1 -1 4140 1;
#X obj 156 121 bng 20 250 50 0 empty empty empty 17 7 0 10 -262144
-1 -1;
#X obj 111 193 tgl 15 0 empty empty ON 17 7 0 10 -262144 -1 -1 0 1
;
#N canvas 158 50 973 698 tremolo 0;
#X obj 218 338 == 0;
#X obj 548 322 *~ -1;
#X obj 548 346 +~ 1;
#X obj 338 344 == 1;
#X obj 481 346 == 2;
#X obj 593 348 == 3;
#X obj 674 342 == 4;
#X obj 509 56 inlet wave;
#X obj 149 607 *~;
#X obj 220 563 expr 1-$f1;
#X obj 208 523 *~ 0;
#X obj 173 581 +~;
#X obj 443 416 -~ 0.5;
#X obj 252 58 inlet freq;
#X obj 200 303 osc~;
#X obj 103 698 outlet~;
#X obj 153 66 inlet~;
#X obj 656 57 inlet switch;
#X obj 707 102 switch~;
#X obj 200 370 *~;
#X obj 318 369 *~;
#X obj 455 366 *~;
#X obj 548 370 *~;
#X obj 657 366 *~;
#X obj 360 58 inlet depth;
#X obj 489 440 *~ 2;
#X obj 490 470 lop~ 50;
#X obj 374 489 *~;
#X obj 367 463 != 0;
#X obj 647 316 expr~ if($v1>0.5 \, 1 \, 0);
#X obj 483 245 phasor~;
#X obj 318 321 expr~ 2*abs($v1-0.5);
#X connect 0 0 19 1;
#X connect 1 0 2 0;
#X connect 2 0 22 0;
#X connect 3 0 20 1;
#X connect 4 0 21 1;
#X connect 5 0 22 1;
#X connect 6 0 23 1;
#X connect 7 0 0 0;
#X connect 7 0 3 0;
#X connect 7 0 4 0;
#X connect 7 0 5 0;
#X connect 7 0 6 0;
#X connect 7 0 28 0;
#X connect 8 0 15 0;
#X connect 9 0 11 1;
#X connect 10 0 11 0;
#X connect 11 0 8 1;
#X connect 12 0 25 0;
#X connect 13 0 14 0;
#X connect 13 0 30 0;
#X connect 14 0 19 0;
#X connect 16 0 8 0;
#X connect 17 0 18 0;
#X connect 19 0 10 0;
#X connect 20 0 12 0;
#X connect 21 0 12 0;
#X connect 22 0 12 0;
#X connect 23 0 12 0;
#X connect 24 0 10 1;
#X connect 24 0 9 0;
#X connect 25 0 26 0;
#X connect 26 0 27 0;
#X connect 27 0 10 0;
#X connect 28 0 27 1;
#X connect 29 0 23 0;
#X connect 30 0 1 0;
#X connect 30 0 21 0;
#X connect 30 0 29 0;
#X connect 30 0 31 0;
#X connect 31 0 20 0;
#X restore 379 366 pd tremolo;
#X obj 156 143 vsl 20 50 0.1 15 1 0 empty empty RATE -1 60 0 10 -262144
-1 -1 2252 1;
#X obj 136 121 vradio 14 1 0 5 empty empty empty 0 -8 0 10 -262144
-1 -1 1;
#X text 106 119 osc;
#X text 106 133 tri;
#X text 106 147 saw;
#X text 106 174 sqr;
#X text 106 161 inv;
#X obj 225 39 == 0;
#X msg 230 73 0;
#X obj 110 45 loadbang;
#X msg 116 71 1;
#X msg 158 72 0.3;
#X obj 218 123 vsl 20 70 0.5 2 1 0 empty empty LEVEL -2 80 0 10 -262144
-1 -1 3450 1;
#X obj 376 325 *~ 1;
#X msg 80 287 0;
#X obj 455 454 outlet~ TEST;
#X obj 314 157 metro;
#X obj 316 127 expr 1000/$f1;
#X connect 0 0 2 0;
#X connect 0 0 20 0;
#X connect 2 0 1 0;
#X connect 2 0 22 0;
#X connect 3 0 6 2;
#X connect 5 0 6 4;
#X connect 5 0 2 2;
#X connect 5 0 14 0;
#X connect 5 0 23 0;
#X connect 6 0 2 1;
#X connect 7 0 6 1;
#X connect 7 0 24 0;
#X connect 8 0 6 3;
#X connect 14 0 15 0;
#X connect 16 0 17 0;
#X connect 16 0 18 0;
#X connect 16 0 21 0;
#X connect 17 0 8 0;
#X connect 17 0 7 0;
#X connect 17 0 19 0;
#X connect 18 0 3 0;
#X connect 19 0 20 1;
#X connect 20 0 6 0;
#X connect 21 0 2 2;
#X connect 23 0 4 0;
#X connect 24 0 23 1;
#X coords 0 -1 1 1 150 115 1 100 100;
#X restore 118 144 pd TREMOLO;
#N canvas 117 50 984 700 DELAY 0;
#X obj 142 286 r~ DELAY-IN;
#X obj 143 656 s~ DELAY-OUT;
#X obj 192 535 delread4~ delay;
#X obj 197 125 vsl 20 70 30 2000 0 0 empty empty DELAY -5 80 0 10 -262144
-1 -1 1296 1;
#X obj 191 504 line~;
#X msg 191 481 \$1 700;
#X obj 241 345 *~;
#X obj 168 125 vsl 20 70 0.01 1 0 0 empty empty RPT 1 80 0 10 -262144
-1 -1 3415 1;
#X obj 186 390 lop~ 5000;
#X obj 239 575 *~;
#X obj 108 125 vsl 20 70 0 1 0 0 empty empty LEVEL -4 80 0 10 -262144
-1 -1 3450 1;
#X obj 138 125 vsl 20 70 500 7000 1 0 empty empty HIGS -1 80 0 10 -262144
-1 -1 6020 1;
#N canvas 477 391 450 300 tap 0;
#X obj 269 212 i;
#X obj 295 212 + 1;
#X obj 269 149 metro 1;
#X msg 239 195 0;
#X msg 269 126 0;
#X obj 189 187 +;
#X msg 180 154 0;
#X obj 301 178 t b b;
#X msg 220 154 0;
#X obj 285 21 inlet;
#X obj 177 263 outlet;
#X obj 183 229 moses 2;
#X obj 155 84 delay 3000;
#X connect 0 0 1 0;
#X connect 0 0 5 1;
#X connect 1 0 0 1;
#X connect 2 0 0 0;
#X connect 3 0 0 0;
#X connect 4 0 2 0;
#X connect 5 0 11 0;
#X connect 6 0 5 0;
#X connect 7 0 3 0;
#X connect 7 1 6 0;
#X connect 8 0 5 1;
#X connect 9 0 2 0;
#X connect 9 0 7 0;
#X connect 9 0 12 0;
#X connect 11 1 10 0;
#X connect 12 0 4 0;
#X connect 12 0 8 0;
#X connect 12 0 3 0;
#X restore 279 122 pd tap;
#X obj 223 123 bng 20 250 50 0 empty empty TAP 0 25 0 10 -262144 -1
-1;
#X obj 281 176 metro;
#X obj 173 15 loadbang;
#X obj 223 155 bng 20 250 50 0 empty empty empty 17 7 0 10 -262144
-1 -1;
#X obj 223 188 tgl 20 0 empty empty ON 0 -5 0 10 -262144 -1 -1 0 1
;
#X msg 112 67 0.5;
#X msg 150 68 5000;
#X msg 192 69 0.5;
#X msg 230 67 400;
#X obj 187 421 delwrite~ delay 2000;
#X obj 171 335 *~;
#X msg 301 290 0;
#X obj 142 606 +~;
#X obj 233 657 outlet~ TEST;
#X connect 0 0 23 0;
#X connect 0 0 25 0;
#X connect 2 0 9 0;
#X connect 2 0 6 0;
#X connect 3 0 5 0;
#X connect 3 0 14 1;
#X connect 4 0 2 0;
#X connect 5 0 4 0;
#X connect 6 0 8 0;
#X connect 7 0 6 1;
#X connect 8 0 22 0;
#X connect 9 0 25 0;
#X connect 10 0 9 1;
#X connect 11 0 8 1;
#X connect 12 0 3 0;
#X connect 13 0 12 0;
#X connect 14 0 16 0;
#X connect 15 0 18 0;
#X connect 15 0 19 0;
#X connect 15 0 20 0;
#X connect 15 0 21 0;
#X connect 15 0 24 0;
#X connect 17 0 14 0;
#X connect 17 0 23 1;
#X connect 18 0 10 0;
#X connect 19 0 11 0;
#X connect 20 0 7 0;
#X connect 21 0 3 0;
#X connect 23 0 8 0;
#X connect 24 0 23 1;
#X connect 25 0 1 0;
#X connect 25 0 26 0;
#X coords 0 -1 1 1 150 115 1 100 100;
#X restore 271 144 pd DELAY;
#N canvas 75 50 1085 700 CHORUS 0;
#X obj 397 282 r~ CHORUS-IN;
#X obj 397 595 s~ CHORUS-OUT;
#X obj 136 125 vsl 20 70 0.1 10 1 0 empty empty RATE -2 80 0 10 -262144
-1 -1 2411 1;
#N canvas 401 361 467 321 chorus 0;
#X obj 53 155 * 2;
#X obj 67 7 inlet rate;
#X obj 142 7 inlet depth;
#X obj 396 8 inlet;
#X obj 396 30 switch~;
#X obj 17 7 inlet~;
#X obj 22 292 outlet~;
#X obj 21 131 osc~;
#X obj 21 155 *~;
#X obj 21 176 +~;
#X obj 20 232 lop~ 7000;
#X obj 224 7 inlet tone;
#X obj 152 48 *~;
#X obj 17 77 delwrite~ chorus1 50;
#X obj 20 198 delread4~ chorus1;
#X obj 184 153 * 2;
#X obj 156 130 osc~;
#X obj 156 153 *~;
#X obj 156 175 +~;
#X obj 155 232 lop~ 7000;
#X obj 151 78 delwrite~ chorus2 50;
#X obj 155 198 delread4~ chorus2;
#X obj 312 153 * 2;
#X obj 284 130 osc~;
#X obj 284 153 *~;
#X obj 284 175 +~;
#X obj 283 232 lop~ 7000;
#X obj 280 78 delwrite~ chorus3 50;
#X obj 283 198 delread4~ chorus3;
#X obj 310 8 inlet sel;
#X obj 330 127 * 1.1;
#X obj 202 127 * 0.9;
#X obj 310 31 == 1;
#X obj 199 268 *~;
#X obj 349 265 metro;
#X obj 349 287 outlet bang;
#X floatatom 406 268 5 0 0 0 - - -;
#X obj 376 244 expr 1000/$f1;
#X obj 156 108 * 1.13;
#X obj 284 108 * 0.91;
#X connect 0 0 9 1;
#X connect 1 0 7 0;
#X connect 1 0 37 0;
#X connect 1 0 38 0;
#X connect 1 0 39 0;
#X connect 2 0 0 0;
#X connect 2 0 8 1;
#X connect 2 0 31 0;
#X connect 2 0 30 0;
#X connect 3 0 4 0;
#X connect 3 0 34 0;
#X connect 5 0 12 0;
#X connect 5 0 13 0;
#X connect 7 0 8 0;
#X connect 8 0 9 0;
#X connect 9 0 14 0;
#X connect 10 0 6 0;
#X connect 11 0 10 1;
#X connect 11 0 19 1;
#X connect 11 0 26 1;
#X connect 12 0 20 0;
#X connect 12 0 27 0;
#X connect 14 0 10 0;
#X connect 15 0 18 1;
#X connect 16 0 17 0;
#X connect 17 0 18 0;
#X connect 18 0 21 0;
#X connect 19 0 33 0;
#X connect 21 0 19 0;
#X connect 22 0 25 1;
#X connect 23 0 24 0;
#X connect 24 0 25 0;
#X connect 25 0 28 0;
#X connect 26 0 33 0;
#X connect 28 0 26 0;
#X connect 29 0 32 0;
#X connect 30 0 24 1;
#X connect 30 0 22 0;
#X connect 31 0 17 1;
#X connect 31 0 15 0;
#X connect 32 0 12 1;
#X connect 32 0 33 1;
#X connect 33 0 6 0;
#X connect 34 0 35 0;
#X connect 37 0 34 1;
#X connect 37 0 36 0;
#X connect 38 0 16 0;
#X connect 39 0 23 0;
#X restore 457 400 pd chorus;
#X obj 166 125 vsl 20 70 0 2 0 0 empty empty DEPTH -5 80 0 10 -262144
-1 -1 3450 1;
#X obj 196 125 vsl 20 70 0.01 1 1 0 empty empty LEVEL -4 80 0 10 -262144
-1 -1 6900 1;
#X obj 108 125 vsl 20 70 500 15000 1 0 empty empty TONE -2 80 0 10
-262144 -1 -1 5354 1;
#X obj 515 594 outlet~ TEST;
#X obj 222 123 tgl 20 0 empty empty 1/3 0 25 0 10 -262144 -1 -1 0 1
;
#X obj 222 177 tgl 20 0 empty empty ON 0 25 0 10 -262144 -1 -1 0 1
;
#X msg 227 62 0;
#X obj 171 22 loadbang;
#X msg 99 66 7000;
#X msg 139 63 0.5;
#X msg 172 63 1;
#X obj 222 154 bng 20 250 50 0 empty empty empty 17 7 0 10 -262144
-1 -1;
#X obj 444 463 *~;
#X connect 0 0 3 0;
#X connect 0 0 1 0;
#X connect 0 0 7 0;
#X connect 2 0 3 1;
#X connect 3 0 16 0;
#X connect 3 1 15 0;
#X connect 4 0 3 2;
#X connect 5 0 16 1;
#X connect 6 0 3 3;
#X connect 8 0 3 4;
#X connect 9 0 3 5;
#X connect 10 0 8 0;
#X connect 11 0 10 0;
#X connect 11 0 12 0;
#X connect 11 0 13 0;
#X connect 11 0 14 0;
#X connect 12 0 6 0;
#X connect 13 0 2 0;
#X connect 14 0 4 0;
#X connect 14 0 5 0;
#X connect 16 0 1 0;
#X connect 16 0 7 0;
#X coords 0 -1 1 1 150 115 1 100 100;
#X restore 425 144 pd CHORUS;
#N canvas 516 195 712 606 PHASER 0;
#X obj 98 250 r~ PHASER-IN;
#X obj 97 497 s~ PHASER-OUT;
#N canvas 593 86 627 508 phaser 0;
#X obj 242 65 phasor~ 0.3;
#X obj 335 103 expr~ 1 - 0.03 - 0.6*abs($v1-0.5)*abs($v1-0.5);
#X obj 242 28 inlet rate;
#X obj 145 35 inlet~;
#N canvas 531 241 450 300 2stage 0;
#X obj 132 86 rpole~;
#X obj 132 61 rzero_rev~;
#X obj 132 135 rpole~;
#X obj 132 110 rzero_rev~;
#X obj 131 28 inlet~;
#X obj 131 172 outlet~;
#X obj 293 26 inlet~ pz;
#X connect 0 0 3 0;
#X connect 1 0 0 0;
#X connect 2 0 5 0;
#X connect 3 0 2 0;
#X connect 4 0 1 0;
#X connect 6 0 1 1;
#X connect 6 0 0 1;
#X connect 6 0 3 1;
#X connect 6 0 2 1;
#X restore 145 90 pd 2stage;
#X obj 343 26 inlet stage;
#X obj 144 361 *~;
#X obj 279 462 outlet~;
#X obj 159 338 == 0;
#N canvas 531 241 450 300 2stage 0;
#X obj 132 86 rpole~;
#X obj 132 61 rzero_rev~;
#X obj 132 135 rpole~;
#X obj 132 110 rzero_rev~;
#X obj 131 28 inlet~;
#X obj 131 172 outlet~;
#X obj 293 26 inlet~ pz;
#X connect 0 0 3 0;
#X connect 1 0 0 0;
#X connect 2 0 5 0;
#X connect 3 0 2 0;
#X connect 4 0 1 0;
#X connect 6 0 1 1;
#X connect 6 0 0 1;
#X connect 6 0 3 1;
#X connect 6 0 2 1;
#X restore 181 118 pd 2stage;
#X obj 181 361 *~;
#X obj 218 361 *~;
#X obj 255 361 *~;
#N canvas 531 241 450 300 2stage 0;
#X obj 132 86 rpole~;
#X obj 132 61 rzero_rev~;
#X obj 132 135 rpole~;
#X obj 132 110 rzero_rev~;
#X obj 131 28 inlet~;
#X obj 131 172 outlet~;
#X obj 293 26 inlet~ pz;
#X connect 0 0 3 0;
#X connect 1 0 0 0;
#X connect 2 0 5 0;
#X connect 3 0 2 0;
#X connect 4 0 1 0;
#X connect 6 0 1 1;
#X connect 6 0 0 1;
#X connect 6 0 3 1;
#X connect 6 0 2 1;
#X restore 218 148 pd 2stage;
#N canvas 531 241 450 300 2stage 0;
#X obj 132 86 rpole~;
#X obj 132 61 rzero_rev~;
#X obj 132 135 rpole~;
#X obj 132 110 rzero_rev~;
#X obj 131 28 inlet~;
#X obj 131 172 outlet~;
#X obj 293 26 inlet~ pz;
#X connect 0 0 3 0;
#X connect 1 0 0 0;
#X connect 2 0 5 0;
#X connect 3 0 2 0;
#X connect 4 0 1 0;
#X connect 6 0 1 1;
#X connect 6 0 0 1;
#X connect 6 0 3 1;
#X connect 6 0 2 1;
#X restore 255 176 pd 2stage;
#N canvas 531 241 450 300 2stage 0;
#X obj 132 86 rpole~;
#X obj 132 61 rzero_rev~;
#X obj 132 135 rpole~;
#X obj 132 110 rzero_rev~;
#X obj 131 28 inlet~;
#X obj 131 172 outlet~;
#X obj 293 26 inlet~ pz;
#X connect 0 0 3 0;
#X connect 1 0 0 0;
#X connect 2 0 5 0;
#X connect 3 0 2 0;
#X connect 4 0 1 0;
#X connect 6 0 1 1;
#X connect 6 0 0 1;
#X connect 6 0 3 1;
#X connect 6 0 2 1;
#X restore 292 204 pd 2stage;
#N canvas 531 241 450 300 2stage 0;
#X obj 132 86 rpole~;
#X obj 132 61 rzero_rev~;
#X obj 132 135 rpole~;
#X obj 132 110 rzero_rev~;
#X obj 131 28 inlet~;
#X obj 131 172 outlet~;
#X obj 293 26 inlet~ pz;
#X connect 0 0 3 0;
#X connect 1 0 0 0;
#X connect 2 0 5 0;
#X connect 3 0 2 0;
#X connect 4 0 1 0;
#X connect 6 0 1 1;
#X connect 6 0 0 1;
#X connect 6 0 3 1;
#X connect 6 0 2 1;
#X restore 329 232 pd 2stage;
#N canvas 531 241 450 300 2stage 0;
#X obj 132 86 rpole~;
#X obj 132 61 rzero_rev~;
#X obj 132 135 rpole~;
#X obj 132 110 rzero_rev~;
#X obj 131 28 inlet~;
#X obj 131 172 outlet~;
#X obj 293 26 inlet~ pz;
#X connect 0 0 3 0;
#X connect 1 0 0 0;
#X connect 2 0 5 0;
#X connect 3 0 2 0;
#X connect 4 0 1 0;
#X connect 6 0 1 1;
#X connect 6 0 0 1;
#X connect 6 0 3 1;
#X connect 6 0 2 1;
#X restore 366 260 pd 2stage;
#N canvas 531 241 450 300 2stage 0;
#X obj 132 86 rpole~;
#X obj 132 61 rzero_rev~;
#X obj 132 135 rpole~;
#X obj 132 110 rzero_rev~;
#X obj 131 28 inlet~;
#X obj 131 172 outlet~;
#X obj 293 26 inlet~ pz;
#X connect 0 0 3 0;
#X connect 1 0 0 0;
#X connect 2 0 5 0;
#X connect 3 0 2 0;
#X connect 4 0 1 0;
#X connect 6 0 1 1;
#X connect 6 0 0 1;
#X connect 6 0 3 1;
#X connect 6 0 2 1;
#X restore 403 288 pd 2stage;
#X obj 292 361 *~;
#X obj 329 361 *~;
#X obj 366 361 *~;
#X obj 403 361 *~;
#X obj 196 338 == 1;
#X obj 233 338 == 2;
#X obj 270 338 == 3;
#X obj 307 338 == 4;
#X obj 344 338 == 5;
#X obj 381 338 == 6;
#X obj 418 338 == 7;
#X obj 279 420 *~;
#X obj 564 54 switch~;
#X obj 564 32 inlet;
#X obj 417 26 inlet dense;
#X connect 0 0 1 0;
#X connect 1 0 4 1;
#X connect 1 0 9 1;
#X connect 1 0 13 1;
#X connect 1 0 14 1;
#X connect 1 0 15 1;
#X connect 1 0 16 1;
#X connect 1 0 17 1;
#X connect 1 0 18 1;
#X connect 2 0 0 0;
#X connect 3 0 4 0;
#X connect 4 0 6 0;
#X connect 4 0 9 0;
#X connect 5 0 8 0;
#X connect 5 0 23 0;
#X connect 5 0 24 0;
#X connect 5 0 25 0;
#X connect 5 0 26 0;
#X connect 5 0 27 0;
#X connect 5 0 28 0;
#X connect 5 0 29 0;
#X connect 6 0 30 0;
#X connect 8 0 6 1;
#X connect 9 0 10 0;
#X connect 9 0 13 0;
#X connect 10 0 30 0;
#X connect 11 0 30 0;
#X connect 12 0 30 0;
#X connect 13 0 14 0;
#X connect 13 0 11 0;
#X connect 14 0 15 0;
#X connect 14 0 12 0;
#X connect 15 0 16 0;
#X connect 15 0 19 0;
#X connect 16 0 17 0;
#X connect 16 0 20 0;
#X connect 17 0 18 0;
#X connect 17 0 21 0;
#X connect 18 0 22 0;
#X connect 19 0 30 0;
#X connect 20 0 30 0;
#X connect 21 0 30 0;
#X connect 22 0 30 0;
#X connect 23 0 10 1;
#X connect 24 0 11 1;
#X connect 25 0 12 1;
#X connect 26 0 19 1;
#X connect 27 0 20 1;
#X connect 28 0 21 1;
#X connect 29 0 22 1;
#X connect 30 0 7 0;
#X connect 32 0 31 0;
#X connect 33 0 30 1;
#X restore 173 348 pd phaser;
#X obj 143 124 vsl 20 70 0 1 0 0 empty empty DEPTH -4 80 0 10 -262144
-1 -1 3450 1;
#X obj 111 124 vsl 20 70 0.1 5 1 0 empty empty RATE -1 80 0 10 -262144
-1 -1 4061 1;
#X obj 178 122 vradio 10 1 0 8 empty empty empty 0 85 0 10 -262144
-1 -1 2;
#X text 190 118 2x;
#X text 190 128 4x;
#X text 190 139 6x;
#X text 190 149 8x;
#X text 190 159 10x;
#X text 190 169 12x;
#X text 190 179 14x;
#X text 190 189 16x;
#X obj 219 177 tgl 20 0 empty empty ON 0 25 0 10 -262144 -1 -1 0 1
;
#X obj 219 122 bng 20 250 50 0 empty empty empty 17 7 0 10 -262144
-1 -1;
#X obj 274 167 metro;
#X obj 300 140 expr 1000/$f1;
#X obj 167 448 outlet~ TEST;
#X obj 150 41 loadbang;
#X msg 106 65 1;
#X msg 147 71 0.5;
#X msg 186 66 2;
#X connect 0 0 2 0;
#X connect 0 0 1 0;
#X connect 0 0 18 0;
#X connect 2 0 1 0;
#X connect 2 0 18 0;
#X connect 3 0 2 3;
#X connect 4 0 2 1;
#X connect 4 0 17 0;
#X connect 5 0 2 2;
#X connect 14 0 2 4;
#X connect 14 0 16 0;
#X connect 16 0 15 0;
#X connect 17 0 16 1;
#X connect 19 0 20 0;
#X connect 19 0 21 0;
#X connect 19 0 22 0;
#X connect 20 0 4 0;
#X connect 21 0 3 0;
#X connect 22 0 5 0;
#X coords 0 -1 1 1 150 115 1 100 100;
#X restore 118 264 pd PHASER;
#N canvas 144 50 971 700 FLANGER 0;
#X obj 399 203 r~ FLANGER-IN;
#X obj 399 541 s~ FLANGER-OUT;
#N canvas 420 367 450 300 flanger 0;
#X obj 25 9 inlet~;
#X obj 386 7 inlet;
#X obj 386 33 switch~;
#X obj 26 46 delwrite~ flanger 100;
#X obj 121 214 delread4~ flanger;
#X obj 153 171 * 2;
#X obj 121 147 osc~;
#X obj 121 171 *~;
#X obj 121 192 +~;
#X obj 112 9 inlet rate;
#X obj 211 8 inlet depth;
#X obj 122 261 outlet~;
#X obj 78 119 *~;
#X obj 292 7 inlet regen;
#X obj 93 88 clip -0.99 0.99;
#X obj 17 100 hip~ 5;
#X connect 0 0 3 0;
#X connect 1 0 2 0;
#X connect 4 0 11 0;
#X connect 4 0 12 0;
#X connect 5 0 8 1;
#X connect 6 0 7 0;
#X connect 7 0 8 0;
#X connect 8 0 4 0;
#X connect 9 0 6 0;
#X connect 10 0 7 1;
#X connect 10 0 5 0;
#X connect 12 0 15 0;
#X connect 13 0 14 0;
#X connect 14 0 12 1;
#X connect 15 0 3 0;
#X restore 469 393 pd flanger;
#X obj 111 125 vsl 20 70 0.05 5 1 0 empty empty RATE -2 80 0 10 -262144
-1 -1 4489 1;
#X obj 145 125 vsl 20 70 0 2 0 0 empty empty DEPTH -4 80 0 10 -262144
-1 -1 3450 1;
#X obj 180 125 vsl 20 70 0 1 0 0 empty empty REGEN -4 80 0 10 -262144
-1 -1 690 1;
#X msg 511 290 1;
#X obj 511 347 *;
#X obj 511 317 t b f, f 6;
#X obj 525 255 sel 0 1;
#X msg 543 290 -1;
#X obj 219 188 tgl 20 0 empty empty ON 0 -5 0 10 -262144 -1 -1 0 1
;
#X obj 219 157 tgl 20 0 empty empty +/- 0 -5 0 10 -262144 -1 -1 0 1
;
#X obj 219 123 bng 20 250 50 0 empty empty empty 17 7 0 10 -262144
-1 -1;
#X obj 547 156 metro;
#X obj 574 129 expr 1000/$f1;
#X obj 126 32 loadbang;
#X msg 90 63 1;
#X msg 136 68 1;
#X msg 182 66 0.1;
#X msg 239 70 0;
#X obj 575 518 outlet~ TEST;
#X connect 0 0 1 0;
#X connect 0 0 2 0;
#X connect 0 0 21 0;
#X connect 2 0 1 0;
#X connect 2 0 21 0;
#X connect 3 0 2 1;
#X connect 3 0 15 0;
#X connect 4 0 2 2;
#X connect 5 0 7 0;
#X connect 6 0 8 0;
#X connect 7 0 2 3;
#X connect 8 0 7 0;
#X connect 8 1 7 1;
#X connect 9 0 6 0;
#X connect 9 1 10 0;
#X connect 10 0 8 0;
#X connect 11 0 2 4;
#X connect 11 0 14 0;
#X connect 12 0 9 0;
#X connect 14 0 13 0;
#X connect 15 0 14 1;
#X connect 16 0 17 0;
#X connect 16 0 18 0;
#X connect 16 0 19 0;
#X connect 16 0 20 0;
#X connect 17 0 3 0;
#X connect 18 0 4 0;
#X connect 19 0 5 0;
#X connect 20 0 12 0;
#X coords 0 -1 1 1 150 115 1 100 100;
#X restore 272 264 pd FLANGER;
#N canvas 394 65 749 610 VIBE 0;
#X obj 374 289 r~ VIBE-IN;
#X obj 378 513 s~ VIBE-OUT;
#N canvas 162 185 450 300 bypass 0;
#X obj 125 75 inlet~;
#X obj 198 71 inlet~;
#X obj 283 71 inlet;
#X obj 142 161 *~;
#X obj 226 164 *~;
#X obj 202 245 outlet~;
#X obj 179 126 == 0;
#X obj 268 131 == 1;
#X connect 0 0 3 0;
#X connect 1 0 4 0;
#X connect 2 0 6 0;
#X connect 2 0 7 0;
#X connect 3 0 5 0;
#X connect 4 0 5 0;
#X connect 6 0 3 1;
#X connect 7 0 4 1;
#X restore 377 444 pd bypass;
#X obj 222 183 tgl 15 0 empty empty ON 0 20 0 10 -262144 -1 -1 0 1
;
#N canvas 44 50 1302 726 vibeleslie 0;
#X obj 528 471 *~;
#X obj 528 497 +~;
#X obj 528 445 osc~;
#X obj 365 467 *~;
#X obj 365 493 +~;
#X obj 365 441 osc~;
#X obj 424 492 * 2;
#X obj 587 496 * 2;
#X msg 331 335 0.666 4000;
#X msg 330 363 5.666 4000;
#X msg 555 365 6.666 2000;
#X msg 555 337 0.833 2000;
#X obj 170 15 inlet depth;
#X obj 585 18 inlet speed;
#X obj 438 694 outlet~ AudioOUT;
#X obj 672 19 inlet;
#X obj 672 46 switch~;
#X obj 364 19 inlet balance;
#X obj 472 17 inlet crossover;
#X obj 365 519 vd~ \$0-a;
#X obj 489 539 *~ 1;
#X obj 574 537 *~ -1;
#X obj 574 578 vd~ \$0-b;
#X obj 489 579 vd~ \$0-b;
#X obj 217 183 delwrite~ \$0-a 50;
#X obj 445 182 delwrite~ \$0-b 50;
#X obj 269 17 inlet rate;
#X obj 610 245 spigot;
#X obj 460 291 sel 0 1;
#X obj 654 201 == 2;
#X obj 696 284 * 1.2;
#X msg 434 353 \$1 2000;
#X msg 658 359 \$1 1000;
#X obj 364 400 line~;
#X obj 534 407 line~;
#X obj 614 171 t b f;
#X obj 217 151 lop~;
#X obj 445 152 hip~;
#X obj 54 15 inlet~ AudioIN;
#N canvas 408 260 450 388 crossfade 0;
#X obj 43 58 inlet~;
#X obj 254 68 inlet;
#X obj 43 342 outlet~;
#X obj 59 204 expr cos($f1 * 3.14159 / 2);
#X obj 254 204 expr sin($f1 * 3.14159 / 2);
#X obj 254 144 clip 0 1;
#N canvas 298 74 450 377 pan_core 0;
#X obj 21 106 inlet~;
#X obj 226 126 inlet;
#X obj 72 237 *~;
#X obj 136 281 outlet~;
#X obj 202 236 *~;
#X obj 218 212 line~;
#X obj 88 212 line~;
#X obj 96 127 inlet;
#X obj 179 104 inlet~;
#X obj 88 173 pack f 5;
#X obj 218 173 pack f 5;
#X text 215 291 Hans-Christoph Steiner \, 2004;
#X text 215 277 Adapted from [pan_core~];
#X connect 0 0 2 0;
#X connect 1 0 10 0;
#X connect 2 0 3 0;
#X connect 4 0 3 0;
#X connect 5 0 4 1;
#X connect 6 0 2 1;
#X connect 7 0 9 0;
#X connect 8 0 4 0;
#X connect 9 0 6 0;
#X connect 10 0 5 0;
#X restore 49 276 pd pan_core;
#X obj 138 56 inlet~;
#X connect 0 0 6 0;
#X connect 1 0 5 0;
#X connect 3 0 6 1;
#X connect 4 0 6 3;
#X connect 5 0 3 0;
#X connect 5 0 4 0;
#X connect 6 0 2 0;
#X connect 7 0 6 2;
#X restore 438 640 pd crossfade;
#X connect 0 0 1 0;
#X connect 1 0 20 0;
#X connect 1 0 21 0;
#X connect 2 0 0 0;
#X connect 3 0 4 0;
#X connect 4 0 19 0;
#X connect 5 0 3 0;
#X connect 6 0 4 1;
#X connect 7 0 1 1;
#X connect 8 0 33 0;
#X connect 9 0 33 0;
#X connect 10 0 34 0;
#X connect 11 0 34 0;
#X connect 12 0 3 1;
#X connect 12 0 6 0;
#X connect 12 0 0 1;
#X connect 12 0 7 0;
#X connect 13 0 28 0;
#X connect 13 0 35 0;
#X connect 15 0 16 0;
#X connect 17 0 39 2;
#X connect 18 0 36 1;
#X connect 18 0 37 1;
#X connect 19 0 39 0;
#X connect 20 0 23 0;
#X connect 21 0 22 0;
#X connect 22 0 39 1;
#X connect 23 0 39 1;
#X connect 26 0 27 0;
#X connect 27 0 31 0;
#X connect 27 0 30 0;
#X connect 28 0 8 0;
#X connect 28 0 11 0;
#X connect 28 1 10 0;
#X connect 28 1 9 0;
#X connect 29 0 27 1;
#X connect 30 0 32 0;
#X connect 31 0 33 0;
#X connect 32 0 34 0;
#X connect 33 0 5 0;
#X connect 34 0 2 0;
#X connect 35 0 27 0;
#X connect 35 1 29 0;
#X connect 36 0 24 0;
#X connect 37 0 25 0;
#X connect 38 0 36 0;
#X connect 38 0 37 0;
#X connect 39 0 14 0;
#X restore 413 369 pd vibeleslie;
#X obj 194 125 vsl 20 70 0.1 10 1 0 empty empty RATE -2 80 0 10 -262144
-1 -1 3450 1;
#X obj 110 125 vsl 20 70 0 2 0 0 empty empty DEPTH -5 80 0 10 -262144
-1 -1 3450 1;
#X obj 138 125 vsl 20 70 0.01 1 1 0 empty empty BAL 1 80 0 10 -262144
-1 -1 6900 1;
#X obj 166 125 vsl 20 70 100 10000 1 0 empty empty X 6 80 0 10 -262144
-1 -1 3116 1;
#X obj 222 123 vradio 20 1 0 3 empty empty empty 0 -8 0 10 -262144
-1 -1 0;
#X obj 177 21 loadbang;
#X msg 209 58 0;
#X msg 91 56 1;
#X msg 131 62 800;
#X msg 173 66 1;
#X obj 527 491 outlet~ TEST;
#X connect 0 0 2 0;
#X connect 0 0 4 0;
#X connect 2 0 1 0;
#X connect 2 0 15 0;
#X connect 3 0 2 2;
#X connect 3 0 4 6;
#X connect 4 0 2 1;
#X connect 5 0 4 2;
#X connect 6 0 4 1;
#X connect 7 0 4 3;
#X connect 8 0 4 4;
#X connect 9 0 4 5;
#X connect 10 0 11 0;
#X connect 10 0 13 0;
#X connect 10 0 12 0;
#X connect 10 0 14 0;
#X connect 11 0 2 2;
#X connect 11 0 9 0;
#X connect 12 0 6 0;
#X connect 12 0 7 0;
#X connect 13 0 8 0;
#X connect 14 0 5 0;
#X coords 0 -1 1 1 150 115 1 100 100;
#X restore 425 264 pd VIBE;
#X obj 760 26 r~ EXTERNAL-IN;
#X obj 760 621 s~ EXTERNAL-OUT;
#X obj 1146 29 r~ PRE-IN;
#X obj 1147 87 s~ PRE-OUT;
#N canvas 947 827 613 300 speaker_eminence 0;
#X obj 61 44 biquad~ 1.98149 -0.981658 0.990787 -1.98157 0.990787;
#X obj 61 102 biquad~ 1.93495 -0.950012 1.01031 -1.93495 0.939702;
#X obj 61 131 biquad~ 1.90876 -0.941271 0.982326 -1.90876 0.958945
;
#X obj 61 160 biquad~ 1.79472 -0.871805 1.04989 -1.79472 0.821919;
#X obj 61 73 biquad~ 1.96017 -0.962224 0.994484 -1.96017 0.967741;
#X obj 61 189 biquad~ 1.55303 -0.739928 0.380181 -0.42721 0.233932
;
#X obj 61 218 biquad~ 0.234501 0.0939595 0.167885 0.335769 0.167885
;
#X obj 61 6 inlet~;
#X obj 62 272 outlet~;
#X text 376 100 peak @ 950 Hz +3dB 0.7 BW;
#X text 381 132 peak @ 1400 Hz -8dB 0.3 BW;
#X text 378 160 peak @ 2200 Hz +5dB 0.9 BW;
#X text 382 72 peak @ 350 Hz -3dB 1 BW;
#X text 383 190 hish @ 4700 Hz -10dB 3 Slope;
#X text 387 219 lpf @ 10000 Hz 0.4 Q;
#X text 382 44 hpf @ 100 Hz 1/sqrt(2) Q;
#X connect 0 0 4 0;
#X connect 1 0 2 0;
#X connect 2 0 3 0;
#X connect 3 0 5 0;
#X connect 4 0 1 0;
#X connect 5 0 6 0;
#X connect 6 0 8 0;
#X connect 7 0 0 0;
#X restore 760 595 pd speaker_eminence;
#X connect 10 0 14 0;
#X connect 12 0 13 0;
#X connect 14 0 11 0;
