#N canvas 174 50 889 723 10;
#X obj 100 100 cnv 5 113 6 empty empty empty 20 12 0 14 -1 -66577 0
;
#X obj 102 102 cnv 2 5 2 empty \$0-sk1 empty 20 12 0 14 -66577 -66577
0;
#X obj 107 102 cnv 2 5 2 empty \$0-sk2 empty 20 12 0 14 -66577 -66577
0;
#X obj 113 102 cnv 2 5 2 empty \$0-sk3 empty 20 12 0 14 -66577 -66577
0;
#X obj 118 102 cnv 2 5 2 empty \$0-sk4 empty 20 12 0 14 -66577 -66577
0;
#X obj 124 102 cnv 2 5 2 empty \$0-sk5 empty 20 12 0 14 -66577 -66577
0;
#X obj 129 102 cnv 2 5 2 empty \$0-sk6 empty 20 12 0 14 -66577 -66577
0;
#X obj 135 102 cnv 2 5 2 empty \$0-sk7 empty 20 12 0 14 -66577 -66577
0;
#X obj 140 102 cnv 2 5 2 empty \$0-sk8 empty 20 12 0 14 -66577 -66577
0;
#X obj 146 102 cnv 2 5 2 empty \$0-sk9 empty 20 12 0 14 -66577 -66577
0;
#X obj 151 102 cnv 2 5 2 empty \$0-sk10 empty 20 12 0 14 -66577 -66577
0;
#X obj 157 102 cnv 2 5 2 empty \$0-sk11 empty 20 12 0 14 -66577 -66577
0;
#X obj 162 102 cnv 2 5 2 empty \$0-sk12 empty 20 12 0 14 -66577 -66577
0;
#X obj 168 102 cnv 2 5 2 empty \$0-sk13 empty 20 12 0 14 -66577 -66577
0;
#X obj 173 102 cnv 2 5 2 empty \$0-sk14 empty 20 12 0 14 -66577 -66577
0;
#X obj 179 102 cnv 2 5 2 empty \$0-sk15 empty 20 12 0 14 -66577 -66577
0;
#X obj 184 102 cnv 2 5 2 empty \$0-sk16 empty 20 12 0 14 -66577 -66577
0;
#X obj 190 102 cnv 2 5 2 empty \$0-sk17 empty 20 12 0 14 -66577 -66577
0;
#X obj 195 102 cnv 2 5 2 empty \$0-sk18 empty 20 12 0 14 -66577 -66577
0;
#X obj 201 102 cnv 2 5 2 empty \$0-sk19 empty 20 12 0 14 -66577 -66577
0;
#X obj 206 102 cnv 2 5 2 empty \$0-sk20 empty 20 12 0 14 -66577 -66577
0;
#X obj 189 248 sel 0 1;
#X msg 189 269 2;
#X msg 222 269 16;
#X msg 189 290 color \$1;
#X obj 189 311 s \$0-sk1;
#X obj 259 248 sel 0 1;
#X msg 259 269 2;
#X msg 292 269 16;
#X msg 259 290 color \$1;
#X obj 259 311 s \$0-sk2;
#X obj 330 248 sel 0 1;
#X msg 330 269 2;
#X msg 363 269 16;
#X msg 330 290 color \$1;
#X obj 330 311 s \$0-sk3;
#X obj 397 248 sel 0 1;
#X msg 397 269 2;
#X msg 430 269 16;
#X msg 397 290 color \$1;
#X obj 397 311 s \$0-sk4;
#X obj 256 393 sel 0 1;
#X msg 256 414 2;
#X msg 256 435 color \$1;
#X obj 257 344 > -12;
#X msg 289 414 15;
#X obj 327 393 sel 0 1;
#X msg 327 414 2;
#X msg 327 435 color \$1;
#X msg 360 414 15;
#X obj 399 393 sel 0 1;
#X msg 399 414 2;
#X msg 399 435 color \$1;
#X obj 264 553 sel 0 1;
#X msg 264 574 2;
#X msg 264 595 color \$1;
#X obj 264 498 > 0;
#X msg 297 574 13;
#X obj 336 552 sel 0 1;
#X msg 336 573 2;
#X msg 336 594 color \$1;
#X msg 369 573 13;
#X obj 408 551 sel 0 1;
#X msg 408 572 2;
#X msg 408 593 color \$1;
#X msg 441 572 13;
#X obj 416 136 inlet;
#X obj 466 248 sel 0 1;
#X msg 466 269 2;
#X msg 499 269 16;
#X msg 466 290 color \$1;
#X obj 536 248 sel 0 1;
#X msg 536 269 2;
#X msg 569 269 16;
#X msg 536 290 color \$1;
#X obj 607 248 sel 0 1;
#X msg 607 269 2;
#X msg 640 269 16;
#X msg 607 290 color \$1;
#X obj 674 248 sel 0 1;
#X msg 674 269 2;
#X msg 706 269 16;
#X msg 674 290 color \$1;
#X obj 466 393 sel 0 1;
#X msg 466 414 2;
#X msg 466 435 color \$1;
#X msg 499 414 15;
#X obj 537 393 sel 0 1;
#X msg 537 414 2;
#X msg 537 435 color \$1;
#X obj 609 393 sel 0 1;
#X msg 609 414 2;
#X msg 609 435 color \$1;
#X msg 641 414 14;
#X obj 485 552 sel 0 1;
#X msg 485 573 2;
#X msg 485 594 color \$1;
#X msg 518 573 13;
#X obj 557 551 sel 0 1;
#X msg 557 572 2;
#X msg 557 593 color \$1;
#X msg 590 572 13;
#X obj 629 550 sel 0 1;
#X msg 629 571 2;
#X msg 629 592 color \$1;
#X msg 662 571 13;
#X msg 431 414 15;
#X msg 570 414 14;
#X obj 188 204 > -80;
#X obj 258 204 > -65;
#X obj 329 204 > -50;
#X obj 396 204 > -40;
#X obj 606 204 > -20;
#X obj 673 204 > -16;
#X obj 328 344 > -9;
#X obj 400 344 > -6;
#X obj 467 344 > -4;
#X obj 538 344 > -2;
#X obj 610 344 > -1;
#X obj 336 497 > 1;
#X obj 408 496 > 2;
#X obj 485 497 > 4;
#X obj 557 496 > 6;
#X obj 629 495 > 9;
#X obj 466 311 s \$0-sk5;
#X obj 536 311 s \$0-sk6;
#X obj 607 311 s \$0-sk7;
#X obj 674 311 s \$0-sk8;
#X obj 256 456 s \$0-sk9;
#X obj 327 456 s \$0-sk10;
#X obj 399 456 s \$0-sk11;
#X obj 466 456 s \$0-sk12;
#X obj 537 456 s \$0-sk13;
#X obj 609 456 s \$0-sk14;
#X obj 264 616 s \$0-sk15;
#X obj 336 615 s \$0-sk16;
#X obj 408 614 s \$0-sk17;
#X obj 485 615 s \$0-sk18;
#X obj 557 614 s \$0-sk19;
#X obj 629 613 s \$0-sk20;
#X obj 465 204 > -30;
#X obj 535 204 > -25;
#X obj 188 225 change;
#X obj 258 226 change;
#X obj 330 226 change;
#X obj 400 227 change;
#X obj 466 226 change;
#X obj 536 227 change;
#X obj 608 227 change;
#X obj 678 228 change;
#X obj 258 368 change;
#X obj 328 369 change;
#X obj 394 368 change;
#X obj 464 369 change;
#X obj 536 369 change;
#X obj 606 370 change;
#X obj 264 526 change;
#X obj 336 527 change;
#X obj 408 526 change;
#X obj 485 527 change;
#X obj 557 527 change;
#X obj 629 526 change;
#X connect 21 0 22 0;
#X connect 21 1 23 0;
#X connect 22 0 24 0;
#X connect 23 0 24 0;
#X connect 24 0 25 0;
#X connect 26 0 27 0;
#X connect 26 1 28 0;
#X connect 27 0 29 0;
#X connect 28 0 29 0;
#X connect 29 0 30 0;
#X connect 31 0 32 0;
#X connect 31 1 33 0;
#X connect 32 0 34 0;
#X connect 33 0 34 0;
#X connect 34 0 35 0;
#X connect 36 0 37 0;
#X connect 36 1 38 0;
#X connect 37 0 39 0;
#X connect 38 0 39 0;
#X connect 39 0 40 0;
#X connect 41 0 42 0;
#X connect 41 1 45 0;
#X connect 42 0 43 0;
#X connect 43 0 128 0;
#X connect 44 0 150 0;
#X connect 45 0 43 0;
#X connect 46 0 47 0;
#X connect 46 1 49 0;
#X connect 47 0 48 0;
#X connect 48 0 129 0;
#X connect 49 0 48 0;
#X connect 50 0 51 0;
#X connect 50 1 106 0;
#X connect 51 0 52 0;
#X connect 52 0 130 0;
#X connect 53 0 54 0;
#X connect 53 1 57 0;
#X connect 54 0 55 0;
#X connect 55 0 134 0;
#X connect 56 0 156 0;
#X connect 57 0 55 0;
#X connect 58 0 59 0;
#X connect 58 1 61 0;
#X connect 59 0 60 0;
#X connect 60 0 135 0;
#X connect 61 0 60 0;
#X connect 62 0 63 0;
#X connect 62 1 65 0;
#X connect 63 0 64 0;
#X connect 64 0 136 0;
#X connect 65 0 64 0;
#X connect 66 0 44 0;
#X connect 66 0 56 0;
#X connect 66 0 108 0;
#X connect 66 0 109 0;
#X connect 66 0 110 0;
#X connect 66 0 111 0;
#X connect 66 0 114 0;
#X connect 66 0 115 0;
#X connect 66 0 120 0;
#X connect 66 0 121 0;
#X connect 66 0 122 0;
#X connect 66 0 123 0;
#X connect 66 0 112 0;
#X connect 66 0 113 0;
#X connect 66 0 116 0;
#X connect 66 0 117 0;
#X connect 66 0 118 0;
#X connect 66 0 140 0;
#X connect 66 0 141 0;
#X connect 66 0 119 0;
#X connect 67 0 68 0;
#X connect 67 1 69 0;
#X connect 68 0 70 0;
#X connect 69 0 70 0;
#X connect 70 0 124 0;
#X connect 71 0 72 0;
#X connect 71 1 73 0;
#X connect 72 0 74 0;
#X connect 73 0 74 0;
#X connect 74 0 125 0;
#X connect 75 0 76 0;
#X connect 75 1 77 0;
#X connect 76 0 78 0;
#X connect 77 0 78 0;
#X connect 78 0 126 0;
#X connect 79 0 80 0;
#X connect 79 1 81 0;
#X connect 80 0 82 0;
#X connect 81 0 82 0;
#X connect 82 0 127 0;
#X connect 83 0 84 0;
#X connect 83 1 86 0;
#X connect 84 0 85 0;
#X connect 85 0 131 0;
#X connect 86 0 85 0;
#X connect 87 0 88 0;
#X connect 87 1 107 0;
#X connect 88 0 89 0;
#X connect 89 0 132 0;
#X connect 90 0 91 0;
#X connect 90 1 93 0;
#X connect 91 0 92 0;
#X connect 92 0 133 0;
#X connect 93 0 92 0;
#X connect 94 0 95 0;
#X connect 94 1 97 0;
#X connect 95 0 96 0;
#X connect 96 0 137 0;
#X connect 97 0 96 0;
#X connect 98 0 99 0;
#X connect 98 1 101 0;
#X connect 99 0 100 0;
#X connect 100 0 138 0;
#X connect 101 0 100 0;
#X connect 102 0 103 0;
#X connect 102 1 105 0;
#X connect 103 0 104 0;
#X connect 104 0 139 0;
#X connect 105 0 104 0;
#X connect 106 0 52 0;
#X connect 107 0 89 0;
#X connect 108 0 142 0;
#X connect 109 0 143 0;
#X connect 110 0 144 0;
#X connect 111 0 145 0;
#X connect 112 0 148 0;
#X connect 113 0 149 0;
#X connect 114 0 151 0;
#X connect 115 0 152 0;
#X connect 116 0 153 0;
#X connect 117 0 154 0;
#X connect 118 0 155 0;
#X connect 119 0 157 0;
#X connect 120 0 158 0;
#X connect 121 0 159 0;
#X connect 122 0 160 0;
#X connect 123 0 161 0;
#X connect 140 0 146 0;
#X connect 141 0 147 0;
#X connect 142 0 21 0;
#X connect 143 0 26 0;
#X connect 144 0 31 0;
#X connect 145 0 36 0;
#X connect 146 0 67 0;
#X connect 147 0 71 0;
#X connect 148 0 75 0;
#X connect 149 0 79 0;
#X connect 150 0 41 0;
#X connect 151 0 46 0;
#X connect 152 0 50 0;
#X connect 153 0 83 0;
#X connect 154 0 87 0;
#X connect 155 0 90 0;
#X connect 156 0 53 0;
#X connect 157 0 58 0;
#X connect 158 0 62 0;
#X connect 159 0 94 0;
#X connect 160 0 98 0;
#X connect 161 0 102 0;
#X coords 0 -1 1 1 113 6 2 100 100;
