#N canvas 222 188 450 300 10;
#X obj 125 75 inlet~;
#X obj 200 76 inlet~;
#X obj 282 76 inlet;
#X obj 202 245 outlet~;
#X obj 171 132 == 0;
#X obj 268 131 == 1;
#X obj 142 161 *~ 1;
#X obj 226 170 *~ 0;
#X connect 0 0 6 0;
#X connect 1 0 7 0;
#X connect 2 0 4 0;
#X connect 2 0 5 0;
#X connect 4 0 6 1;
#X connect 5 0 7 1;
#X connect 6 0 3 0;
#X connect 7 0 3 0;
