#N canvas 332 50 874 710 10;
#X obj 534 86 loadbang;
#X obj 631 195 s \$0-color;
#N canvas 487 265 450 300 Whites 0;
#N canvas 107 140 604 520 white_key 0;
#X obj 420 200 f \$0;
#X obj 236 347 pack f f;
#X obj 101 111 tgl 8 0 empty empty empty 17 7 0 10 -262144 -1 -1 0
1;
#X obj 74 40 inlet;
#X obj 77 212 outlet;
#X obj 101 101 cnv 8 8 18 empty \$0-tgl2 empty 20 12 0 14 -262144 -66577
0;
#X obj 224 120 sel 0 1;
#X obj 420 142 loadbang;
#X msg 229 250 0;
#X msg 236 391 \; \$2-tgl2 color \$1;
#X msg 325 157 set \$1;
#X obj 325 117 r \$0-color;
#X msg 265 250 1;
#X connect 0 0 1 1;
#X connect 1 0 9 0;
#X connect 2 0 4 0;
#X connect 2 0 6 0;
#X connect 3 0 2 0;
#X connect 6 0 8 0;
#X connect 6 1 12 0;
#X connect 7 0 0 0;
#X connect 8 0 1 0;
#X connect 10 0 12 0;
#X connect 11 0 10 0;
#X connect 12 0 1 0;
#X coords 0 -1 1 1 10 20 2 100 100;
#X restore 111 101 pd white_key;
#N canvas 107 140 604 520 white_key 0;
#X obj 420 200 f \$0;
#X obj 236 347 pack f f;
#X obj 101 111 tgl 8 0 empty empty empty 17 7 0 10 -262144 -1 -1 0
1;
#X obj 74 40 inlet;
#X obj 77 212 outlet;
#X obj 101 101 cnv 8 8 18 empty \$0-tgl1 empty 20 12 0 14 -262144 -66577
0;
#X obj 224 120 sel 0 1;
#X obj 420 142 loadbang;
#X msg 236 391 \; \$2-tgl1 color \$1;
#X msg 229 250 0;
#X msg 325 157 set \$1;
#X obj 325 117 r \$0-color;
#X msg 262 250 1;
#X connect 0 0 1 1;
#X connect 1 0 8 0;
#X connect 2 0 4 0;
#X connect 2 0 6 0;
#X connect 3 0 2 0;
#X connect 6 0 9 0;
#X connect 6 1 12 0;
#X connect 7 0 0 0;
#X connect 9 0 1 0;
#X connect 10 0 12 0;
#X connect 11 0 10 0;
#X connect 12 0 1 0;
#X coords 0 -1 1 1 10 20 2 100 100;
#X restore 101 101 pd white_key;
#N canvas 414 81 604 520 white_key 0;
#X obj 420 200 f \$0;
#X obj 236 347 pack f f;
#X obj 101 111 tgl 8 0 empty empty empty 17 7 0 10 -262144 -1 -1 0
1;
#X obj 74 40 inlet;
#X obj 77 212 outlet;
#X obj 101 101 cnv 8 8 18 empty \$0-tgl4 empty 20 12 0 14 -262144 -66577
0;
#X obj 224 120 sel 0 1;
#X obj 420 142 loadbang;
#X msg 229 250 0;
#X msg 236 391 \; \$2-tgl4 color \$1;
#X msg 325 157 set \$1;
#X obj 325 117 r \$0-color;
#X msg 265 250 1;
#X connect 0 0 1 1;
#X connect 1 0 9 0;
#X connect 2 0 4 0;
#X connect 2 0 6 0;
#X connect 3 0 2 0;
#X connect 6 0 8 0;
#X connect 6 1 12 0;
#X connect 7 0 0 0;
#X connect 8 0 1 0;
#X connect 10 0 12 0;
#X connect 11 0 10 0;
#X connect 12 0 1 0;
#X coords 0 -1 1 1 10 20 2 100 100;
#X restore 131 101 pd white_key;
#N canvas 542 106 604 520 white_key 0;
#X obj 420 200 f \$0;
#X obj 236 347 pack f f;
#X obj 101 111 tgl 8 0 empty empty empty 17 7 0 10 -262144 -1 -1 0
1;
#X obj 74 40 inlet;
#X obj 77 212 outlet;
#X obj 101 101 cnv 8 8 18 empty \$0-tgl3 empty 20 12 0 14 -262144 -66577
0;
#X obj 224 120 sel 0 1;
#X obj 420 142 loadbang;
#X msg 236 391 \; \$2-tgl3 color \$1;
#X msg 229 250 0;
#X msg 325 157 set \$1;
#X obj 325 117 r \$0-color;
#X msg 262 250 1;
#X connect 0 0 1 1;
#X connect 1 0 8 0;
#X connect 2 0 4 0;
#X connect 2 0 6 0;
#X connect 3 0 2 0;
#X connect 6 0 9 0;
#X connect 6 1 12 0;
#X connect 7 0 0 0;
#X connect 9 0 1 0;
#X connect 10 0 12 0;
#X connect 11 0 10 0;
#X connect 12 0 1 0;
#X coords 0 -1 1 1 10 20 2 100 100;
#X restore 121 101 pd white_key;
#N canvas 107 140 604 520 white_key 0;
#X obj 420 200 f \$0;
#X obj 236 347 pack f f;
#X obj 101 111 tgl 8 0 empty empty empty 17 7 0 10 -262144 -1 -1 0
1;
#X obj 74 40 inlet;
#X obj 77 212 outlet;
#X obj 101 101 cnv 8 8 18 empty \$0-tgl6 empty 20 12 0 14 -262144 -66577
0;
#X obj 224 120 sel 0 1;
#X obj 420 142 loadbang;
#X msg 229 250 0;
#X msg 325 157 set \$1;
#X obj 325 117 r \$0-color;
#X msg 236 391 \; \$2-tgl6 color \$1;
#X msg 265 250 1;
#X connect 0 0 1 1;
#X connect 1 0 11 0;
#X connect 2 0 4 0;
#X connect 2 0 6 0;
#X connect 3 0 2 0;
#X connect 6 0 8 0;
#X connect 6 1 12 0;
#X connect 7 0 0 0;
#X connect 8 0 1 0;
#X connect 9 0 12 0;
#X connect 10 0 9 0;
#X connect 12 0 1 0;
#X coords 0 -1 1 1 10 20 2 100 100;
#X restore 151 101 pd white_key;
#N canvas 107 140 604 520 white_key 0;
#X obj 420 200 f \$0;
#X obj 236 347 pack f f;
#X obj 101 111 tgl 8 0 empty empty empty 17 7 0 10 -262144 -1 -1 0
1;
#X obj 74 40 inlet;
#X obj 77 212 outlet;
#X obj 101 101 cnv 8 8 18 empty \$0-tgl5 empty 20 12 0 14 -262144 -66577
0;
#X obj 224 120 sel 0 1;
#X obj 420 142 loadbang;
#X msg 229 250 0;
#X msg 325 157 set \$1;
#X obj 325 117 r \$0-color;
#X msg 236 391 \; \$2-tgl5 color \$1;
#X msg 262 250 1;
#X connect 0 0 1 1;
#X connect 1 0 11 0;
#X connect 2 0 4 0;
#X connect 2 0 6 0;
#X connect 3 0 2 0;
#X connect 6 0 8 0;
#X connect 6 1 12 0;
#X connect 7 0 0 0;
#X connect 8 0 1 0;
#X connect 9 0 12 0;
#X connect 10 0 9 0;
#X connect 12 0 1 0;
#X coords 0 -1 1 1 10 20 2 100 100;
#X restore 141 101 pd white_key;
#N canvas 542 106 604 520 white_key 0;
#X obj 420 200 f \$0;
#X obj 236 347 pack f f;
#X obj 101 111 tgl 8 0 empty empty empty 17 7 0 10 -262144 -1 -1 0
1;
#X obj 74 40 inlet;
#X obj 77 212 outlet;
#X obj 101 101 cnv 8 8 18 empty \$0-tgl7 empty 20 12 0 14 -262144 -66577
0;
#X obj 224 120 sel 0 1;
#X obj 420 142 loadbang;
#X msg 229 250 0;
#X msg 325 157 set \$1;
#X obj 325 117 r \$0-color;
#X msg 236 391 \; \$2-tgl7 color \$1;
#X msg 262 250 1;
#X connect 0 0 1 1;
#X connect 1 0 11 0;
#X connect 2 0 4 0;
#X connect 2 0 6 0;
#X connect 3 0 2 0;
#X connect 6 0 8 0;
#X connect 6 1 12 0;
#X connect 7 0 0 0;
#X connect 8 0 1 0;
#X connect 9 0 12 0;
#X connect 10 0 9 0;
#X connect 12 0 1 0;
#X coords 0 -1 1 1 10 20 2 100 100;
#X restore 161 101 pd white_key;
#X obj 32 20 inlet;
#X obj 37 237 outlet;
#X obj 94 237 outlet;
#X obj 154 239 outlet;
#X obj 214 238 outlet;
#X obj 267 237 outlet;
#X obj 323 235 outlet;
#X obj 378 233 outlet;
#X obj 80 19 inlet;
#X obj 127 21 inlet;
#X obj 175 20 inlet;
#X obj 224 22 inlet;
#X obj 272 21 inlet;
#X obj 319 23 inlet;
#X connect 0 0 9 0;
#X connect 1 0 8 0;
#X connect 2 0 11 0;
#X connect 3 0 10 0;
#X connect 4 0 13 0;
#X connect 5 0 12 0;
#X connect 6 0 14 0;
#X connect 7 0 1 0;
#X connect 15 0 0 0;
#X connect 16 0 3 0;
#X connect 17 0 2 0;
#X connect 18 0 5 0;
#X connect 19 0 4 0;
#X connect 20 0 6 0;
#X coords 0 -1 1 1 72 22 1 100 100;
#X restore 250 200 pd Whites;
#N canvas 107 140 604 520 black_key 0;
#X obj 420 200 f \$0;
#X obj 236 347 pack f f;
#X obj 100 101 tgl 9 0 empty empty empty 17 7 0 10 -262144 -1 -1 0
1;
#X obj 74 40 inlet;
#X obj 77 212 outlet;
#X obj 101 101 cnv 7 7 8 empty \$0-1 empty 20 12 0 14 -66577 -66577
0;
#X obj 224 120 sel 0 1;
#X obj 420 142 loadbang;
#X msg 325 157 set \$1;
#X obj 325 117 r \$0-color;
#X msg 237 392 \; \$2-1 color \$1;
#X msg 220 249 2;
#X msg 262 250 1;
#X connect 0 0 1 1;
#X connect 1 0 10 0;
#X connect 2 0 4 0;
#X connect 2 0 6 0;
#X connect 3 0 2 0;
#X connect 6 0 11 0;
#X connect 6 1 12 0;
#X connect 7 0 0 0;
#X connect 8 0 12 0;
#X connect 9 0 8 0;
#X connect 11 0 1 0;
#X connect 12 0 1 0;
#X coords 0 -1 1 1 9 10 2 100 100;
#X restore 256 201 pd black_key;
#N canvas 542 106 604 520 black_key 0;
#X obj 420 200 f \$0;
#X obj 236 347 pack f f;
#X obj 100 101 tgl 9 0 empty empty empty 17 7 0 10 -262144 -1 -1 0
1;
#X obj 74 40 inlet;
#X obj 77 212 outlet;
#X obj 101 101 cnv 7 7 8 empty \$0-2 empty 20 12 0 14 -66577 -66577
0;
#X obj 224 120 sel 0 1;
#X obj 420 142 loadbang;
#X msg 325 157 set \$1;
#X obj 325 117 r \$0-color;
#X msg 236 391 \; \$2-2 color \$1;
#X msg 229 250 2;
#X msg 262 250 1;
#X connect 0 0 1 1;
#X connect 1 0 10 0;
#X connect 2 0 4 0;
#X connect 2 0 6 0;
#X connect 3 0 2 0;
#X connect 6 0 11 0;
#X connect 6 1 12 0;
#X connect 7 0 0 0;
#X connect 8 0 12 0;
#X connect 9 0 8 0;
#X connect 11 0 1 0;
#X connect 12 0 1 0;
#X coords 0 -1 1 1 9 10 2 100 100;
#X restore 267 201 pd black_key;
#N canvas 107 140 604 520 black_key 0;
#X obj 420 200 f \$0;
#X obj 236 347 pack f f;
#X obj 100 101 tgl 9 0 empty empty empty 17 7 0 10 -262144 -1 -1 0
1;
#X obj 74 40 inlet;
#X obj 77 212 outlet;
#X obj 101 101 cnv 7 7 8 empty \$0-3 empty 20 12 0 14 -66577 -66577
0;
#X obj 224 120 sel 0 1;
#X obj 420 142 loadbang;
#X msg 325 157 set \$1;
#X obj 325 117 r \$0-color;
#X msg 237 392 \; \$2-3 color \$1;
#X msg 229 250 2;
#X msg 262 250 1;
#X connect 0 0 1 1;
#X connect 1 0 10 0;
#X connect 2 0 4 0;
#X connect 2 0 6 0;
#X connect 3 0 2 0;
#X connect 6 0 11 0;
#X connect 6 1 12 0;
#X connect 7 0 0 0;
#X connect 8 0 12 0;
#X connect 9 0 8 0;
#X connect 11 0 1 0;
#X connect 12 0 1 0;
#X coords 0 -1 1 1 9 10 2 100 100;
#X restore 286 201 pd black_key;
#N canvas 542 106 604 520 black_key 0;
#X obj 420 200 f \$0;
#X obj 236 347 pack f f;
#X obj 100 101 tgl 9 0 empty empty empty 17 7 0 10 -262144 -1 -1 0
1;
#X obj 74 40 inlet;
#X obj 77 212 outlet;
#X obj 101 101 cnv 7 7 8 empty \$0-4 empty 20 12 0 14 -66577 -66577
0;
#X obj 224 120 sel 0 1;
#X obj 420 142 loadbang;
#X msg 325 157 set \$1;
#X obj 325 117 r \$0-color;
#X msg 236 391 \; \$2-4 color \$1;
#X msg 229 250 2;
#X msg 263 249 1;
#X connect 0 0 1 1;
#X connect 1 0 10 0;
#X connect 2 0 4 0;
#X connect 2 0 6 0;
#X connect 3 0 2 0;
#X connect 6 0 11 0;
#X connect 6 1 12 0;
#X connect 7 0 0 0;
#X connect 8 0 12 0;
#X connect 9 0 8 0;
#X connect 11 0 1 0;
#X connect 12 0 1 0;
#X coords 0 -1 1 1 9 10 2 100 100;
#X restore 297 201 pd black_key;
#N canvas 107 140 604 520 black_key 0;
#X obj 420 200 f \$0;
#X obj 236 347 pack f f;
#X obj 100 101 tgl 9 0 empty empty empty 17 7 0 10 -262144 -1 -1 0
1;
#X obj 74 40 inlet;
#X obj 77 212 outlet;
#X obj 101 101 cnv 7 7 8 empty \$0-5 empty 20 12 0 14 -66577 -66577
0;
#X obj 224 120 sel 0 1;
#X obj 420 142 loadbang;
#X msg 325 157 set \$1;
#X obj 325 117 r \$0-color;
#X msg 237 392 \; \$2-5 color \$1;
#X msg 229 250 2;
#X msg 262 250 1;
#X connect 0 0 1 1;
#X connect 1 0 10 0;
#X connect 2 0 4 0;
#X connect 2 0 6 0;
#X connect 3 0 2 0;
#X connect 6 0 11 0;
#X connect 6 1 12 0;
#X connect 7 0 0 0;
#X connect 8 0 12 0;
#X connect 9 0 8 0;
#X connect 11 0 1 0;
#X connect 12 0 1 0;
#X coords 0 -1 1 1 9 10 2 100 100;
#X restore 308 201 pd black_key;
#X obj 78 13 inlet;
#X obj 631 170 expr if($f1==0||$f1==2 \, 1 \, $f1);
#X obj 452 677 outlet list;
#X obj 95 289 pack;
#X obj 425 214 +;
#X obj 261 563 bag;
#X obj 130 306 pack;
#X obj 155 286 + 1;
#X obj 165 323 pack;
#X obj 190 303 + 1;
#X obj 200 340 pack;
#X obj 225 320 + 1;
#X obj 235 357 pack;
#X obj 260 337 + 1;
#X obj 270 374 pack;
#X obj 295 354 + 1;
#X obj 305 391 pack;
#X obj 330 371 + 1;
#X obj 340 408 pack;
#X obj 365 388 + 1;
#X obj 375 425 pack;
#X obj 400 405 + 1;
#X obj 120 269 + 0;
#X obj 410 442 pack;
#X obj 435 422 + 1;
#X obj 445 459 pack;
#X obj 470 439 + 1;
#X obj 480 476 pack;
#X obj 505 456 + 1;
#X msg 14 263 flush;
#X msg 480 498 \$2 \$1, f 2;
#X msg 445 481 \$2 \$1, f 2;
#X msg 410 464 \$2 \$1, f 2;
#X msg 375 447 \$2 \$1, f 2;
#X msg 340 430 \$2 \$1, f 2;
#X msg 305 413 \$2 \$1, f 2;
#X msg 270 396 \$2 \$1, f 2;
#X msg 235 379 \$2 \$1, f 2;
#X msg 200 362 \$2 \$1, f 2;
#X msg 165 345 \$2 \$1, f 2;
#X msg 130 328 \$2 \$1, f 2;
#X msg 95 311 \$2 \$1, f 2;
#X obj 116 216 bng 15 250 50 0 empty empty empty 17 7 0 10 -262144
-1 -1;
#X msg 115 167 clear;
#X obj 66 193 t b b;
#X obj 165 86 list split 1;
#X obj 200 153 unpack f f f f f f f f f f f f;
#X msg 372 122 0 0 0 0 0 0 0 0 0 0 0 0;
#X obj 269 677 outlet;
#X obj 269 643 pack f f;
#N canvas 451 50 636 710 chorder 0;
#X obj 61 12 inlet;
#X obj 422 637 outlet;
#X msg 34 334 \$1 1 0 0 0 1 0 0 1 0 0 0 0;
#X msg 47 308 \$1 1 0 0 1 0 0 0 1 0 0 0 0;
#X msg 75 284 \$1 1 0 0 1 0 0 1 0 0 0 0 0;
#X msg 110 257 \$1 1 0 0 0 1 0 0 0 1 0 0 0;
#X msg 153 231 \$1 1 0 0 0 1 0 0 1 0 0 0 1;
#X msg 187 205 \$1 1 0 0 1 0 0 0 1 0 0 1 0;
#X msg 220 181 \$1 1 0 0 0 1 0 0 1 0 0 1 0;
#X msg 252 158 \$1 1 0 0 1 0 0 1 0 0 1 0 0;
#X msg 278 131 \$1 1 0 0 0 1 0 0 0 0 0 0 0;
#X obj 61 31 route maj min dim aug maj7 min7 dom7 dim7 maj3 min3 pow
tri;
#X msg 307 106 \$1 1 0 0 1 0 0 0 0 0 0 0 0;
#X msg 352 82 \$1 1 0 0 0 0 0 0 1 0 0 0 0;
#X msg 395 59 \$1 1 0 0 0 0 0 1 0 0 0 0 0;
#X obj 119 372 route majfl5 minsh5 sus2 sus4 sus24 minmaj7 sus7 min7fl5
aug7 maj6 min6;
#X msg 62 659 \$1 1 0 0 0 1 0 1 0 0 0 0 0;
#X msg 89 635 \$1 1 0 0 1 0 0 0 0 1 0 0 0;
#X msg 113 610 \$1 1 0 1 0 0 0 0 1 0 0 0 0;
#X msg 136 584 \$1 1 0 0 0 0 1 0 1 0 0 0 0;
#X msg 165 557 \$1 1 0 1 0 0 1 0 1 0 0 0 0;
#X msg 197 531 \$1 1 0 0 1 0 0 0 1 0 0 0 1;
#X msg 236 510 \$1 1 0 0 0 0 1 0 1 0 0 1 0;
#X msg 270 489 \$1 1 0 0 1 0 0 1 0 0 0 1 0;
#X msg 307 470 \$1 1 0 0 0 1 0 0 0 1 0 1 0;
#X msg 347 448 \$1 1 0 0 0 1 0 0 1 0 1 0 0;
#X msg 410 430 \$1 1 0 0 1 0 0 0 1 0 1 0 0;
#X obj 552 237 route maj7fl5 maj7sh5 min7sh5 dom7fl5;
#X msg 559 339 \$1 1 0 0 0 1 0 1 0 0 0 0 1;
#X msg 596 320 \$1 1 0 0 0 1 0 0 0 1 0 0 1;
#X msg 636 298 \$1 1 0 0 1 0 0 0 0 1 0 1 0;
#X msg 699 279 \$1 1 0 0 0 1 0 1 0 0 0 1 0;
#X connect 0 0 11 0;
#X connect 2 0 1 0;
#X connect 3 0 1 0;
#X connect 4 0 1 0;
#X connect 5 0 1 0;
#X connect 6 0 1 0;
#X connect 7 0 1 0;
#X connect 8 0 1 0;
#X connect 9 0 1 0;
#X connect 10 0 1 0;
#X connect 11 0 2 0;
#X connect 11 1 3 0;
#X connect 11 2 4 0;
#X connect 11 3 5 0;
#X connect 11 4 6 0;
#X connect 11 5 7 0;
#X connect 11 6 8 0;
#X connect 11 7 9 0;
#X connect 11 8 10 0;
#X connect 11 9 12 0;
#X connect 11 10 13 0;
#X connect 11 11 14 0;
#X connect 11 12 15 0;
#X connect 12 0 1 0;
#X connect 13 0 1 0;
#X connect 14 0 1 0;
#X connect 15 0 16 0;
#X connect 15 1 17 0;
#X connect 15 2 18 0;
#X connect 15 3 19 0;
#X connect 15 4 20 0;
#X connect 15 5 21 0;
#X connect 15 6 22 0;
#X connect 15 7 23 0;
#X connect 15 8 24 0;
#X connect 15 9 25 0;
#X connect 15 10 26 0;
#X connect 15 11 27 0;
#X connect 16 0 1 0;
#X connect 17 0 1 0;
#X connect 18 0 1 0;
#X connect 19 0 1 0;
#X connect 20 0 1 0;
#X connect 21 0 1 0;
#X connect 22 0 1 0;
#X connect 23 0 1 0;
#X connect 24 0 1 0;
#X connect 25 0 1 0;
#X connect 26 0 1 0;
#X connect 27 0 28 0;
#X connect 27 1 29 0;
#X connect 27 2 30 0;
#X connect 27 3 31 0;
#X connect 27 4 1 0;
#X connect 28 0 1 0;
#X connect 29 0 1 0;
#X connect 30 0 1 0;
#X connect 31 0 1 0;
#X restore 194 62 pd chorder;
#X obj 443 161 f \$3;
#X obj 631 142 f \$4;
#X obj 565 324 loadbang;
#X obj 567 358 f \$1;
#X obj 568 386 expr if($f1==0 \, 64 \, $f1);
#X obj 646 429 f \$2;
#X obj 647 457 expr if($f1==0 \, 500 \, $f1);
#X obj 260 596 makenote;
#X text 384 37 arguments: velocity - duration - base - color;
#X obj 255 118 route 0;
#X obj 71 35 route color velocity duration traspose;
#X connect 0 0 55 0;
#X connect 0 0 59 0;
#X connect 0 0 60 0;
#X connect 2 0 11 0;
#X connect 2 1 16 0;
#X connect 2 2 20 0;
#X connect 2 3 22 0;
#X connect 2 4 26 0;
#X connect 2 5 31 0;
#X connect 2 6 35 0;
#X connect 3 0 14 0;
#X connect 4 0 18 0;
#X connect 5 0 24 0;
#X connect 6 0 28 0;
#X connect 7 0 33 0;
#X connect 8 0 69 0;
#X connect 9 0 1 0;
#X connect 11 0 49 0;
#X connect 12 0 30 0;
#X connect 12 0 51 0;
#X connect 13 0 10 0;
#X connect 13 0 66 0;
#X connect 14 0 48 0;
#X connect 15 0 14 1;
#X connect 15 0 17 0;
#X connect 16 0 47 0;
#X connect 17 0 16 1;
#X connect 17 0 19 0;
#X connect 18 0 46 0;
#X connect 19 0 18 1;
#X connect 19 0 21 0;
#X connect 20 0 45 0;
#X connect 21 0 20 1;
#X connect 21 0 23 0;
#X connect 22 0 44 0;
#X connect 23 0 22 1;
#X connect 23 0 25 0;
#X connect 24 0 43 0;
#X connect 25 0 24 1;
#X connect 25 0 27 0;
#X connect 26 0 42 0;
#X connect 27 0 26 1;
#X connect 27 0 29 0;
#X connect 28 0 41 0;
#X connect 29 0 28 1;
#X connect 29 0 32 0;
#X connect 30 0 11 1;
#X connect 30 0 15 0;
#X connect 31 0 40 0;
#X connect 32 0 31 1;
#X connect 32 0 34 0;
#X connect 33 0 39 0;
#X connect 34 0 33 1;
#X connect 34 0 36 0;
#X connect 35 0 38 0;
#X connect 36 0 35 1;
#X connect 37 0 13 0;
#X connect 38 0 13 0;
#X connect 39 0 13 0;
#X connect 40 0 13 0;
#X connect 41 0 13 0;
#X connect 42 0 13 0;
#X connect 43 0 13 0;
#X connect 44 0 13 0;
#X connect 45 0 13 0;
#X connect 46 0 13 0;
#X connect 47 0 13 0;
#X connect 48 0 13 0;
#X connect 49 0 13 0;
#X connect 50 0 11 0;
#X connect 50 0 14 0;
#X connect 50 0 16 0;
#X connect 50 0 18 0;
#X connect 50 0 20 0;
#X connect 50 0 22 0;
#X connect 50 0 24 0;
#X connect 50 0 26 0;
#X connect 50 0 28 0;
#X connect 50 0 31 0;
#X connect 50 0 33 0;
#X connect 50 0 35 0;
#X connect 51 0 13 0;
#X connect 51 0 52 0;
#X connect 52 0 37 0;
#X connect 52 1 50 0;
#X connect 53 0 68 0;
#X connect 53 1 54 0;
#X connect 54 0 2 0;
#X connect 54 1 3 0;
#X connect 54 2 2 1;
#X connect 54 3 4 0;
#X connect 54 4 2 2;
#X connect 54 5 2 3;
#X connect 54 6 5 0;
#X connect 54 7 2 4;
#X connect 54 8 6 0;
#X connect 54 9 2 5;
#X connect 54 10 7 0;
#X connect 54 11 2 6;
#X connect 55 0 54 0;
#X connect 57 0 56 0;
#X connect 58 0 53 0;
#X connect 59 0 12 1;
#X connect 60 0 9 0;
#X connect 61 0 62 0;
#X connect 61 0 64 0;
#X connect 62 0 63 0;
#X connect 63 0 66 1;
#X connect 64 0 65 0;
#X connect 65 0 66 2;
#X connect 66 0 57 0;
#X connect 66 1 57 1;
#X connect 68 1 12 0;
#X connect 69 0 9 0;
#X connect 69 1 66 1;
#X connect 69 2 66 2;
#X connect 69 3 12 1;
#X connect 69 4 58 0;
#X coords 0 -1 1 1 72 22 2 250 200;
