#N canvas 49 50 1304 730 10;
#X obj 460 83 loadbang;
#X obj 65 104 s \$0-color;
#X obj 167 7 inlet;
#X obj 65 79 expr if($f1==0||$f1==2 \, 1 \, $f1);
#X obj 634 671 outlet list;
#X obj 95 289 pack;
#X obj 215 213 +;
#X obj 507 587 bag;
#X obj 130 306 pack;
#X obj 155 286 + 1;
#X obj 165 323 pack;
#X obj 190 303 + 1;
#X obj 200 340 pack;
#X obj 225 320 + 1;
#X obj 235 357 pack;
#X obj 260 337 + 1;
#X obj 270 374 pack;
#X obj 295 354 + 1;
#X obj 305 391 pack;
#X obj 330 371 + 1;
#X obj 340 408 pack;
#X obj 365 388 + 1;
#X obj 375 425 pack;
#X obj 400 405 + 1;
#X obj 120 269 + 0;
#X obj 410 442 pack;
#X obj 435 422 + 1;
#X obj 445 459 pack;
#X obj 470 439 + 1;
#X obj 480 476 pack;
#X obj 505 456 + 1;
#X msg 14 263 flush;
#X msg 480 498 \$2 \$1, f 2;
#X msg 445 481 \$2 \$1, f 2;
#X msg 410 464 \$2 \$1, f 2;
#X msg 375 447 \$2 \$1, f 2;
#X msg 340 430 \$2 \$1, f 2;
#X msg 305 413 \$2 \$1, f 2;
#X msg 270 396 \$2 \$1, f 2;
#X msg 235 379 \$2 \$1, f 2;
#X msg 200 362 \$2 \$1, f 2;
#X msg 165 345 \$2 \$1, f 2;
#X msg 130 328 \$2 \$1, f 2;
#X msg 95 311 \$2 \$1, f 2;
#X obj 61 258 bng 15 250 50 0 empty empty empty 17 7 0 10 -262144 -1
-1;
#X msg 115 167 clear;
#X obj 21 215 t b b;
#X obj 347 101 list split 1;
#X obj 506 682 outlet;
#X obj 506 648 pack f f;
#N canvas 587 354 450 300 Whites 0;
#N canvas 107 140 604 520 white_key 0;
#X obj 420 200 f \$0;
#X obj 236 347 pack f f;
#X obj 101 111 tgl 8 0 empty empty empty 17 7 0 10 -262144 -1 -1 0
1;
#X obj 74 40 inlet;
#X obj 77 212 outlet;
#X obj 101 101 cnv 8 8 18 empty \$0-tgl2 empty 20 12 0 14 -262144 -66577
0;
#X obj 224 120 sel 0 1;
#X obj 420 142 loadbang;
#X msg 229 250 0;
#X msg 236 391 \; \$2-tgl2 color \$1;
#X msg 325 157 set \$1;
#X obj 325 117 r \$0-color;
#X msg 265 250 1;
#X connect 0 0 1 1;
#X connect 1 0 9 0;
#X connect 2 0 4 0;
#X connect 2 0 6 0;
#X connect 3 0 2 0;
#X connect 6 0 8 0;
#X connect 6 1 12 0;
#X connect 7 0 0 0;
#X connect 8 0 1 0;
#X connect 10 0 12 0;
#X connect 11 0 10 0;
#X connect 12 0 1 0;
#X coords 0 -1 1 1 10 20 2 100 100;
#X restore 111 101 pd white_key;
#N canvas 107 140 604 520 white_key 0;
#X obj 420 200 f \$0;
#X obj 236 347 pack f f;
#X obj 101 111 tgl 8 0 empty empty empty 17 7 0 10 -262144 -1 -1 1
1;
#X obj 74 40 inlet;
#X obj 77 212 outlet;
#X obj 101 101 cnv 8 8 18 empty \$0-tgl1 empty 20 12 0 14 -166441 -66577
0;
#X obj 224 120 sel 0 1;
#X obj 420 142 loadbang;
#X msg 236 391 \; \$2-tgl1 color \$1;
#X msg 229 250 0;
#X msg 325 157 set \$1;
#X obj 325 117 r \$0-color;
#X msg 262 250 1;
#X connect 0 0 1 1;
#X connect 1 0 8 0;
#X connect 2 0 4 0;
#X connect 2 0 6 0;
#X connect 3 0 2 0;
#X connect 6 0 9 0;
#X connect 6 1 12 0;
#X connect 7 0 0 0;
#X connect 9 0 1 0;
#X connect 10 0 12 0;
#X connect 11 0 10 0;
#X connect 12 0 1 0;
#X coords 0 -1 1 1 10 20 2 100 100;
#X restore 101 101 pd white_key;
#N canvas 414 81 604 520 white_key 0;
#X obj 420 200 f \$0;
#X obj 236 347 pack f f;
#X obj 101 111 tgl 8 0 empty empty empty 17 7 0 10 -262144 -1 -1 0
1;
#X obj 74 40 inlet;
#X obj 77 212 outlet;
#X obj 101 101 cnv 8 8 18 empty \$0-tgl4 empty 20 12 0 14 -262144 -66577
0;
#X obj 224 120 sel 0 1;
#X obj 420 142 loadbang;
#X msg 229 250 0;
#X msg 236 391 \; \$2-tgl4 color \$1;
#X msg 325 157 set \$1;
#X obj 325 117 r \$0-color;
#X msg 265 250 1;
#X connect 0 0 1 1;
#X connect 1 0 9 0;
#X connect 2 0 4 0;
#X connect 2 0 6 0;
#X connect 3 0 2 0;
#X connect 6 0 8 0;
#X connect 6 1 12 0;
#X connect 7 0 0 0;
#X connect 8 0 1 0;
#X connect 10 0 12 0;
#X connect 11 0 10 0;
#X connect 12 0 1 0;
#X coords 0 -1 1 1 10 20 2 100 100;
#X restore 131 101 pd white_key;
#N canvas 542 106 604 520 white_key 0;
#X obj 420 200 f \$0;
#X obj 236 347 pack f f;
#X obj 101 111 tgl 8 0 empty empty empty 17 7 0 10 -262144 -1 -1 0
1;
#X obj 74 40 inlet;
#X obj 77 212 outlet;
#X obj 101 101 cnv 8 8 18 empty \$0-tgl3 empty 20 12 0 14 -262144 -66577
0;
#X obj 224 120 sel 0 1;
#X obj 420 142 loadbang;
#X msg 236 391 \; \$2-tgl3 color \$1;
#X msg 229 250 0;
#X msg 325 157 set \$1;
#X obj 325 117 r \$0-color;
#X msg 262 250 1;
#X connect 0 0 1 1;
#X connect 1 0 8 0;
#X connect 2 0 4 0;
#X connect 2 0 6 0;
#X connect 3 0 2 0;
#X connect 6 0 9 0;
#X connect 6 1 12 0;
#X connect 7 0 0 0;
#X connect 9 0 1 0;
#X connect 10 0 12 0;
#X connect 11 0 10 0;
#X connect 12 0 1 0;
#X coords 0 -1 1 1 10 20 2 100 100;
#X restore 121 101 pd white_key;
#N canvas 107 140 604 520 white_key 0;
#X obj 420 200 f \$0;
#X obj 236 347 pack f f;
#X obj 101 111 tgl 8 0 empty empty empty 17 7 0 10 -262144 -1 -1 0
1;
#X obj 74 40 inlet;
#X obj 77 212 outlet;
#X obj 101 101 cnv 8 8 18 empty \$0-tgl6 empty 20 12 0 14 -262144 -66577
0;
#X obj 224 120 sel 0 1;
#X obj 420 142 loadbang;
#X msg 229 250 0;
#X msg 325 157 set \$1;
#X obj 325 117 r \$0-color;
#X msg 236 391 \; \$2-tgl6 color \$1;
#X msg 265 250 1;
#X connect 0 0 1 1;
#X connect 1 0 11 0;
#X connect 2 0 4 0;
#X connect 2 0 6 0;
#X connect 3 0 2 0;
#X connect 6 0 8 0;
#X connect 6 1 12 0;
#X connect 7 0 0 0;
#X connect 8 0 1 0;
#X connect 9 0 12 0;
#X connect 10 0 9 0;
#X connect 12 0 1 0;
#X coords 0 -1 1 1 10 20 2 100 100;
#X restore 151 101 pd white_key;
#N canvas 107 140 604 520 white_key 0;
#X obj 420 200 f \$0;
#X obj 236 347 pack f f;
#X obj 101 111 tgl 8 0 empty empty empty 17 7 0 10 -262144 -1 -1 0
1;
#X obj 74 40 inlet;
#X obj 77 212 outlet;
#X obj 101 101 cnv 8 8 18 empty \$0-tgl5 empty 20 12 0 14 -262144 -66577
0;
#X obj 224 120 sel 0 1;
#X obj 420 142 loadbang;
#X msg 229 250 0;
#X msg 325 157 set \$1;
#X obj 325 117 r \$0-color;
#X msg 236 391 \; \$2-tgl5 color \$1;
#X msg 262 250 1;
#X connect 0 0 1 1;
#X connect 1 0 11 0;
#X connect 2 0 4 0;
#X connect 2 0 6 0;
#X connect 3 0 2 0;
#X connect 6 0 8 0;
#X connect 6 1 12 0;
#X connect 7 0 0 0;
#X connect 8 0 1 0;
#X connect 9 0 12 0;
#X connect 10 0 9 0;
#X connect 12 0 1 0;
#X coords 0 -1 1 1 10 20 2 100 100;
#X restore 141 101 pd white_key;
#N canvas 414 81 604 520 white_key 0;
#X obj 420 200 f \$0;
#X obj 236 347 pack f f;
#X obj 101 111 tgl 8 0 empty empty empty 17 7 0 10 -262144 -1 -1 0
1;
#X obj 74 40 inlet;
#X obj 77 212 outlet;
#X obj 101 101 cnv 8 8 18 empty \$0-tgl8 empty 20 12 0 14 -262144 -66577
0;
#X obj 224 120 sel 0 1;
#X obj 420 142 loadbang;
#X msg 229 250 0;
#X msg 325 157 set \$1;
#X obj 325 117 r \$0-color;
#X msg 236 391 \; \$2-tgl8 color \$1;
#X msg 265 250 1;
#X connect 0 0 1 1;
#X connect 1 0 11 0;
#X connect 2 0 4 0;
#X connect 2 0 6 0;
#X connect 3 0 2 0;
#X connect 6 0 8 0;
#X connect 6 1 12 0;
#X connect 7 0 0 0;
#X connect 8 0 1 0;
#X connect 9 0 12 0;
#X connect 10 0 9 0;
#X connect 12 0 1 0;
#X coords 0 -1 1 1 10 20 2 100 100;
#X restore 171 101 pd white_key;
#N canvas 542 106 604 520 white_key 0;
#X obj 420 200 f \$0;
#X obj 236 347 pack f f;
#X obj 101 111 tgl 8 0 empty empty empty 17 7 0 10 -262144 -1 -1 0
1;
#X obj 74 40 inlet;
#X obj 77 212 outlet;
#X obj 101 101 cnv 8 8 18 empty \$0-tgl7 empty 20 12 0 14 -262144 -66577
0;
#X obj 224 120 sel 0 1;
#X obj 420 142 loadbang;
#X msg 229 250 0;
#X msg 325 157 set \$1;
#X obj 325 117 r \$0-color;
#X msg 236 391 \; \$2-tgl7 color \$1;
#X msg 262 250 1;
#X connect 0 0 1 1;
#X connect 1 0 11 0;
#X connect 2 0 4 0;
#X connect 2 0 6 0;
#X connect 3 0 2 0;
#X connect 6 0 8 0;
#X connect 6 1 12 0;
#X connect 7 0 0 0;
#X connect 8 0 1 0;
#X connect 9 0 12 0;
#X connect 10 0 9 0;
#X connect 12 0 1 0;
#X coords 0 -1 1 1 10 20 2 100 100;
#X restore 161 101 pd white_key;
#N canvas 107 140 604 520 white_key 0;
#X obj 420 200 f \$0;
#X obj 236 347 pack f f;
#X obj 101 111 tgl 8 0 empty empty empty 17 7 0 10 -262144 -1 -1 0
1;
#X obj 74 40 inlet;
#X obj 77 212 outlet;
#X obj 101 101 cnv 8 8 18 empty \$0-tgl10 empty 20 12 0 14 -262144
-66577 0;
#X obj 224 120 sel 0 1;
#X obj 420 142 loadbang;
#X msg 229 250 0;
#X msg 325 157 set \$1;
#X obj 325 117 r \$0-color;
#X msg 240 394 \; \$2-tgl10 color \$1;
#X msg 266 250 1;
#X connect 0 0 1 1;
#X connect 1 0 11 0;
#X connect 2 0 4 0;
#X connect 2 0 6 0;
#X connect 3 0 2 0;
#X connect 6 0 8 0;
#X connect 6 1 12 0;
#X connect 7 0 0 0;
#X connect 8 0 1 0;
#X connect 9 0 12 0;
#X connect 10 0 9 0;
#X connect 12 0 1 0;
#X coords 0 -1 1 1 10 20 2 100 100;
#X restore 191 101 pd white_key;
#N canvas 107 140 604 520 white_key 0;
#X obj 420 200 f \$0;
#X obj 236 347 pack f f;
#X obj 101 111 tgl 8 0 empty empty empty 17 7 0 10 -262144 -1 -1 0
1;
#X obj 74 40 inlet;
#X obj 77 212 outlet;
#X obj 101 101 cnv 8 8 18 empty \$0-tgl9 empty 20 12 0 14 -262144 -66577
0;
#X obj 224 120 sel 0 1;
#X obj 420 142 loadbang;
#X msg 229 250 0;
#X msg 325 157 set \$1;
#X obj 325 117 r \$0-color;
#X msg 236 391 \; \$2-tgl9 color \$1;
#X msg 262 250 1;
#X connect 0 0 1 1;
#X connect 1 0 11 0;
#X connect 2 0 4 0;
#X connect 2 0 6 0;
#X connect 3 0 2 0;
#X connect 6 0 8 0;
#X connect 6 1 12 0;
#X connect 7 0 0 0;
#X connect 8 0 1 0;
#X connect 9 0 12 0;
#X connect 10 0 9 0;
#X connect 12 0 1 0;
#X coords 0 -1 1 1 10 20 2 100 100;
#X restore 181 101 pd white_key;
#N canvas 414 81 604 520 white_key 0;
#X obj 420 200 f \$0;
#X obj 236 347 pack f f;
#X obj 101 111 tgl 8 0 empty empty empty 17 7 0 10 -262144 -1 -1 0
1;
#X obj 74 40 inlet;
#X obj 77 212 outlet;
#X obj 101 101 cnv 8 8 18 empty \$0-tgl12 empty 20 12 0 14 -262144
-66577 0;
#X obj 224 120 sel 0 1;
#X obj 420 142 loadbang;
#X msg 229 250 0;
#X msg 325 157 set \$1;
#X obj 325 117 r \$0-color;
#X msg 236 391 \; \$2-tgl12 color \$1;
#X msg 265 250 1;
#X connect 0 0 1 1;
#X connect 1 0 11 0;
#X connect 2 0 4 0;
#X connect 2 0 6 0;
#X connect 3 0 2 0;
#X connect 6 0 8 0;
#X connect 6 1 12 0;
#X connect 7 0 0 0;
#X connect 8 0 1 0;
#X connect 9 0 12 0;
#X connect 10 0 9 0;
#X connect 12 0 1 0;
#X coords 0 -1 1 1 10 20 2 100 100;
#X restore 211 101 pd white_key;
#N canvas 542 106 604 520 white_key 0;
#X obj 420 200 f \$0;
#X obj 236 347 pack f f;
#X obj 101 111 tgl 8 0 empty empty empty 17 7 0 10 -262144 -1 -1 0
1;
#X obj 74 40 inlet;
#X obj 77 212 outlet;
#X obj 101 101 cnv 8 8 18 empty \$0-tgl11 empty 20 12 0 14 -262144
-66577 0;
#X obj 224 120 sel 0 1;
#X obj 420 142 loadbang;
#X msg 229 250 0;
#X msg 325 157 set \$1;
#X obj 325 117 r \$0-color;
#X msg 236 391 \; \$2-tgl11 color \$1;
#X msg 262 250 1;
#X connect 0 0 1 1;
#X connect 1 0 11 0;
#X connect 2 0 4 0;
#X connect 2 0 6 0;
#X connect 3 0 2 0;
#X connect 6 0 8 0;
#X connect 6 1 12 0;
#X connect 7 0 0 0;
#X connect 8 0 1 0;
#X connect 9 0 12 0;
#X connect 10 0 9 0;
#X connect 12 0 1 0;
#X coords 0 -1 1 1 10 20 2 100 100;
#X restore 201 101 pd white_key;
#N canvas 107 140 604 520 white_key 0;
#X obj 236 347 pack f f;
#X obj 101 111 tgl 8 0 empty empty empty 17 7 0 10 -262144 -1 -1 0
1;
#X obj 74 40 inlet;
#X obj 77 212 outlet;
#X obj 101 101 cnv 8 8 18 empty \$0-tgl14 empty 20 12 0 14 -262144
-66577 0;
#X obj 224 120 sel 0 1;
#X msg 229 250 0;
#X msg 325 157 set \$1;
#X obj 325 117 r \$0-color;
#X msg 236 391 \; \$2-tgl14 color \$1;
#X obj 420 200 f \$0;
#X obj 420 142 loadbang;
#X msg 265 250 1;
#X connect 0 0 9 0;
#X connect 1 0 3 0;
#X connect 1 0 5 0;
#X connect 2 0 1 0;
#X connect 5 0 6 0;
#X connect 5 1 12 0;
#X connect 6 0 0 0;
#X connect 7 0 12 0;
#X connect 8 0 7 0;
#X connect 10 0 0 1;
#X connect 11 0 10 0;
#X connect 12 0 0 0;
#X coords 0 -1 1 1 10 20 2 100 100;
#X restore 231 101 pd white_key;
#N canvas 107 140 604 520 white_key 0;
#X obj 420 200 f \$0;
#X obj 236 347 pack f f;
#X obj 101 111 tgl 8 0 empty empty empty 17 7 0 10 -262144 -1 -1 0
1;
#X obj 74 40 inlet;
#X obj 77 212 outlet;
#X obj 101 101 cnv 8 8 18 empty \$0-tgl13 empty 20 12 0 14 -262144
-66577 0;
#X obj 224 120 sel 0 1;
#X obj 420 142 loadbang;
#X msg 229 250 0;
#X msg 325 157 set \$1;
#X obj 325 117 r \$0-color;
#X msg 236 391 \; \$2-tgl13 color \$1;
#X msg 262 250 1;
#X connect 0 0 1 1;
#X connect 1 0 11 0;
#X connect 2 0 4 0;
#X connect 2 0 6 0;
#X connect 3 0 2 0;
#X connect 6 0 8 0;
#X connect 6 1 12 0;
#X connect 7 0 0 0;
#X connect 8 0 1 0;
#X connect 9 0 12 0;
#X connect 10 0 9 0;
#X connect 12 0 1 0;
#X coords 0 -1 1 1 10 20 2 100 100;
#X restore 221 101 pd white_key;
#X obj 25 19 inlet;
#X obj 24 179 outlet;
#X obj 50 179 outlet;
#X obj 76 179 outlet;
#X obj 106 179 outlet;
#X obj 132 179 outlet;
#X obj 161 179 outlet;
#X obj 188 179 outlet;
#X obj 221 179 outlet;
#X obj 249 179 outlet;
#X obj 273 179 outlet;
#X obj 294 179 outlet;
#X obj 325 179 outlet;
#X obj 350 179 outlet;
#X obj 383 179 outlet;
#X obj 53 19 inlet;
#X obj 84 19 inlet;
#X obj 109 19 inlet;
#X obj 132 19 inlet;
#X obj 155 19 inlet;
#X obj 183 19 inlet;
#X obj 206 19 inlet;
#X obj 235 19 inlet;
#X obj 258 19 inlet;
#X obj 299 19 inlet;
#X obj 319 19 inlet;
#X obj 353 19 inlet;
#X obj 373 19 inlet;
#X connect 0 0 16 0;
#X connect 1 0 15 0;
#X connect 2 0 18 0;
#X connect 3 0 17 0;
#X connect 4 0 20 0;
#X connect 5 0 19 0;
#X connect 6 0 22 0;
#X connect 7 0 21 0;
#X connect 8 0 24 0;
#X connect 9 0 23 0;
#X connect 10 0 26 0;
#X connect 11 0 25 0;
#X connect 12 0 28 0;
#X connect 13 0 27 0;
#X connect 14 0 1 0;
#X connect 29 0 0 0;
#X connect 30 0 3 0;
#X connect 31 0 2 0;
#X connect 32 0 5 0;
#X connect 33 0 4 0;
#X connect 34 0 7 0;
#X connect 35 0 6 0;
#X connect 36 0 9 0;
#X connect 37 0 8 0;
#X connect 38 0 11 0;
#X connect 39 0 10 0;
#X connect 40 0 13 0;
#X connect 41 0 12 0;
#X coords 0 -1 1 1 142 22 1 100 100;
#X restore 450 200 pd Whites;
#N canvas 107 140 604 520 black_key 0;
#X obj 420 200 f \$0;
#X obj 236 347 pack f f;
#X obj 100 101 tgl 9 0 empty empty empty 17 7 0 10 -262144 -1 -1 0
1;
#X obj 74 40 inlet;
#X obj 77 212 outlet;
#X obj 101 101 cnv 7 7 8 empty \$0-1 empty 20 12 0 14 -66577 -66577
0;
#X obj 224 120 sel 0 1;
#X obj 420 142 loadbang;
#X msg 325 157 set \$1;
#X obj 325 117 r \$0-color;
#X msg 237 392 \; \$2-1 color \$1;
#X msg 220 249 2;
#X msg 262 250 1;
#X connect 0 0 1 1;
#X connect 1 0 10 0;
#X connect 2 0 4 0;
#X connect 2 0 6 0;
#X connect 3 0 2 0;
#X connect 6 0 11 0;
#X connect 6 1 12 0;
#X connect 7 0 0 0;
#X connect 8 0 12 0;
#X connect 9 0 8 0;
#X connect 11 0 1 0;
#X connect 12 0 1 0;
#X coords 0 -1 1 1 9 10 2 100 100;
#X restore 456 201 pd black_key;
#N canvas 542 106 604 520 black_key 0;
#X obj 420 200 f \$0;
#X obj 236 347 pack f f;
#X obj 100 101 tgl 9 0 empty empty empty 17 7 0 10 -262144 -1 -1 1
1;
#X obj 74 40 inlet;
#X obj 77 212 outlet;
#X obj 101 101 cnv 7 7 8 empty \$0-2 empty 20 12 0 14 -166441 -66577
0;
#X obj 224 120 sel 0 1;
#X obj 420 142 loadbang;
#X msg 325 157 set \$1;
#X obj 325 117 r \$0-color;
#X msg 236 391 \; \$2-2 color \$1;
#X msg 229 250 2;
#X msg 262 250 1;
#X connect 0 0 1 1;
#X connect 1 0 10 0;
#X connect 2 0 4 0;
#X connect 2 0 6 0;
#X connect 3 0 2 0;
#X connect 6 0 11 0;
#X connect 6 1 12 0;
#X connect 7 0 0 0;
#X connect 8 0 12 0;
#X connect 9 0 8 0;
#X connect 11 0 1 0;
#X connect 12 0 1 0;
#X coords 0 -1 1 1 9 10 2 100 100;
#X restore 467 201 pd black_key;
#N canvas 107 140 604 520 black_key 0;
#X obj 420 200 f \$0;
#X obj 236 347 pack f f;
#X obj 100 101 tgl 9 0 empty empty empty 17 7 0 10 -262144 -1 -1 0
1;
#X obj 74 40 inlet;
#X obj 77 212 outlet;
#X obj 101 101 cnv 7 7 8 empty \$0-3 empty 20 12 0 14 -66577 -66577
0;
#X obj 224 120 sel 0 1;
#X obj 420 142 loadbang;
#X msg 325 157 set \$1;
#X obj 325 117 r \$0-color;
#X msg 237 392 \; \$2-3 color \$1;
#X msg 229 250 2;
#X msg 262 250 1;
#X connect 0 0 1 1;
#X connect 1 0 10 0;
#X connect 2 0 4 0;
#X connect 2 0 6 0;
#X connect 3 0 2 0;
#X connect 6 0 11 0;
#X connect 6 1 12 0;
#X connect 7 0 0 0;
#X connect 8 0 12 0;
#X connect 9 0 8 0;
#X connect 11 0 1 0;
#X connect 12 0 1 0;
#X coords 0 -1 1 1 9 10 2 100 100;
#X restore 486 201 pd black_key;
#N canvas 542 106 604 520 black_key 0;
#X obj 420 200 f \$0;
#X obj 236 347 pack f f;
#X obj 100 101 tgl 9 0 empty empty empty 17 7 0 10 -262144 -1 -1 0
1;
#X obj 74 40 inlet;
#X obj 77 212 outlet;
#X obj 101 101 cnv 7 7 8 empty \$0-4 empty 20 12 0 14 -66577 -66577
0;
#X obj 224 120 sel 0 1;
#X obj 420 142 loadbang;
#X msg 325 157 set \$1;
#X obj 325 117 r \$0-color;
#X msg 236 391 \; \$2-4 color \$1;
#X msg 229 250 2;
#X msg 263 249 1;
#X connect 0 0 1 1;
#X connect 1 0 10 0;
#X connect 2 0 4 0;
#X connect 2 0 6 0;
#X connect 3 0 2 0;
#X connect 6 0 11 0;
#X connect 6 1 12 0;
#X connect 7 0 0 0;
#X connect 8 0 12 0;
#X connect 9 0 8 0;
#X connect 11 0 1 0;
#X connect 12 0 1 0;
#X coords 0 -1 1 1 9 10 2 100 100;
#X restore 497 201 pd black_key;
#N canvas 107 140 604 520 black_key 0;
#X obj 420 200 f \$0;
#X obj 236 347 pack f f;
#X obj 100 101 tgl 9 0 empty empty empty 17 7 0 10 -262144 -1 -1 0
1;
#X obj 74 40 inlet;
#X obj 77 212 outlet;
#X obj 101 101 cnv 7 7 8 empty \$0-5 empty 20 12 0 14 -66577 -66577
0;
#X obj 224 120 sel 0 1;
#X obj 420 142 loadbang;
#X msg 325 157 set \$1;
#X obj 325 117 r \$0-color;
#X msg 237 392 \; \$2-5 color \$1;
#X msg 229 250 2;
#X msg 262 250 1;
#X connect 0 0 1 1;
#X connect 1 0 10 0;
#X connect 2 0 4 0;
#X connect 2 0 6 0;
#X connect 3 0 2 0;
#X connect 6 0 11 0;
#X connect 6 1 12 0;
#X connect 7 0 0 0;
#X connect 8 0 12 0;
#X connect 9 0 8 0;
#X connect 11 0 1 0;
#X connect 12 0 1 0;
#X coords 0 -1 1 1 9 10 2 100 100;
#X restore 508 201 pd black_key;
#N canvas 542 106 604 520 black_key 0;
#X obj 420 200 f \$0;
#X obj 236 347 pack f f;
#X obj 100 101 tgl 9 0 empty empty empty 17 7 0 10 -262144 -1 -1 0
1;
#X obj 74 40 inlet;
#X obj 77 212 outlet;
#X obj 101 101 cnv 7 7 8 empty \$0-6 empty 20 12 0 14 -66577 -66577
0;
#X obj 224 120 sel 0 1;
#X obj 420 142 loadbang;
#X msg 325 157 set \$1;
#X obj 325 117 r \$0-color;
#X msg 236 391 \; \$2-6 color \$1;
#X msg 229 250 2;
#X msg 262 250 1;
#X connect 0 0 1 1;
#X connect 1 0 10 0;
#X connect 2 0 4 0;
#X connect 2 0 6 0;
#X connect 3 0 2 0;
#X connect 6 0 11 0;
#X connect 6 1 12 0;
#X connect 7 0 0 0;
#X connect 8 0 12 0;
#X connect 9 0 8 0;
#X connect 11 0 1 0;
#X connect 12 0 1 0;
#X coords 0 -1 1 1 9 10 2 100 100;
#X restore 526 201 pd black_key;
#N canvas 107 140 604 520 black_key 0;
#X obj 420 200 f \$0;
#X obj 236 347 pack f f;
#X obj 100 101 tgl 9 0 empty empty empty 17 7 0 10 -262144 -1 -1 0
1;
#X obj 74 40 inlet;
#X obj 77 212 outlet;
#X obj 101 101 cnv 7 7 8 empty \$0-7 empty 20 12 0 14 -66577 -66577
0;
#X obj 224 120 sel 0 1;
#X obj 420 142 loadbang;
#X msg 325 157 set \$1;
#X obj 325 117 r \$0-color;
#X msg 237 392 \; \$2-7 color \$1;
#X msg 229 250 2;
#X msg 262 250 1;
#X connect 0 0 1 1;
#X connect 1 0 10 0;
#X connect 2 0 4 0;
#X connect 2 0 6 0;
#X connect 3 0 2 0;
#X connect 6 0 11 0;
#X connect 6 1 12 0;
#X connect 7 0 0 0;
#X connect 8 0 12 0;
#X connect 9 0 8 0;
#X connect 11 0 1 0;
#X connect 12 0 1 0;
#X coords 0 -1 1 1 9 10 2 100 100;
#X restore 537 201 pd black_key;
#N canvas 542 106 604 520 black_key 0;
#X obj 420 200 f \$0;
#X obj 236 347 pack f f;
#X obj 100 101 tgl 9 0 empty empty empty 17 7 0 10 -262144 -1 -1 0
1;
#X obj 74 40 inlet;
#X obj 77 212 outlet;
#X obj 101 101 cnv 7 7 8 empty \$0-8 empty 20 12 0 14 -66577 -66577
0;
#X obj 224 120 sel 0 1;
#X obj 420 142 loadbang;
#X msg 325 157 set \$1;
#X obj 325 117 r \$0-color;
#X msg 236 391 \; \$2-8 color \$1;
#X msg 229 250 2;
#X msg 262 250 1;
#X connect 0 0 1 1;
#X connect 1 0 10 0;
#X connect 2 0 4 0;
#X connect 2 0 6 0;
#X connect 3 0 2 0;
#X connect 6 0 11 0;
#X connect 6 1 12 0;
#X connect 7 0 0 0;
#X connect 8 0 12 0;
#X connect 9 0 8 0;
#X connect 11 0 1 0;
#X connect 12 0 1 0;
#X coords 0 -1 1 1 9 10 2 100 100;
#X restore 556 201 pd black_key;
#N canvas 107 140 604 520 black_key 0;
#X obj 420 200 f \$0;
#X obj 236 347 pack f f;
#X obj 100 101 tgl 9 0 empty empty empty 17 7 0 10 -262144 -1 -1 0
1;
#X obj 74 40 inlet;
#X obj 77 212 outlet;
#X obj 101 101 cnv 7 7 8 empty \$0-9 empty 20 12 0 14 -66577 -66577
0;
#X obj 224 120 sel 0 1;
#X obj 420 142 loadbang;
#X msg 325 157 set \$1;
#X obj 325 117 r \$0-color;
#X msg 237 392 \; \$2-9 color \$1;
#X msg 229 250 2;
#X msg 262 250 1;
#X connect 0 0 1 1;
#X connect 1 0 10 0;
#X connect 2 0 4 0;
#X connect 2 0 6 0;
#X connect 3 0 2 0;
#X connect 6 0 11 0;
#X connect 6 1 12 0;
#X connect 7 0 0 0;
#X connect 8 0 12 0;
#X connect 9 0 8 0;
#X connect 11 0 1 0;
#X connect 12 0 1 0;
#X coords 0 -1 1 1 9 10 2 100 100;
#X restore 567 201 pd black_key;
#N canvas 542 106 604 520 black_key 0;
#X obj 420 200 f \$0;
#X obj 236 347 pack f f;
#X obj 100 101 tgl 9 0 empty empty empty 17 7 0 10 -262144 -1 -1 0
1;
#X obj 74 40 inlet;
#X obj 77 212 outlet;
#X obj 101 101 cnv 7 7 8 empty \$0-10 empty 20 12 0 14 -66577 -66577
0;
#X obj 224 120 sel 0 1;
#X obj 420 142 loadbang;
#X msg 325 157 set \$1;
#X obj 325 117 r \$0-color;
#X msg 236 391 \; \$2-10 color \$1;
#X msg 229 250 2;
#X msg 262 250 1;
#X connect 0 0 1 1;
#X connect 1 0 10 0;
#X connect 2 0 4 0;
#X connect 2 0 6 0;
#X connect 3 0 2 0;
#X connect 6 0 11 0;
#X connect 6 1 12 0;
#X connect 7 0 0 0;
#X connect 8 0 12 0;
#X connect 9 0 8 0;
#X connect 11 0 1 0;
#X connect 12 0 1 0;
#X coords 0 -1 1 1 9 10 2 100 100;
#X restore 578 201 pd black_key;
#X obj 65 29 loadbang;
#X obj 233 138 loadbang;
#X obj 500 340 pack;
#X obj 535 357 pack;
#X obj 560 337 + 1;
#X obj 570 374 pack;
#X obj 595 354 + 1;
#X obj 605 391 pack;
#X obj 630 371 + 1;
#X obj 640 408 pack;
#X obj 665 388 + 1;
#X obj 675 425 pack;
#X obj 700 405 + 1;
#X obj 710 442 pack;
#X obj 735 422 + 1;
#X obj 745 459 pack;
#X obj 770 439 + 1;
#X obj 780 476 pack;
#X obj 805 456 + 1;
#X obj 815 493 pack;
#X obj 840 473 + 1;
#X obj 850 510 pack;
#X obj 875 490 + 1;
#X obj 885 527 pack;
#X obj 910 507 + 1;
#X msg 885 549 \$2 \$1, f 2;
#X msg 850 532 \$2 \$1, f 2;
#X msg 815 515 \$2 \$1, f 2;
#X msg 780 498 \$2 \$1, f 2;
#X msg 745 481 \$2 \$1, f 2;
#X msg 710 464 \$2 \$1, f 2;
#X msg 675 447 \$2 \$1, f 2;
#X msg 640 430 \$2 \$1, f 2;
#X msg 605 413 \$2 \$1, f 2;
#X msg 570 396 \$2 \$1, f 2;
#X msg 535 379 \$2 \$1, f 2;
#X msg 500 362 \$2 \$1, f 2;
#X obj 466 309 bng 15 250 50 0 empty empty empty 17 7 0 10 -262144
-1 -1;
#X obj 525 320 + 1;
#X obj 460 129 unpack f f f f f f f f f f f f f f f f f f f f f f f
f;
#X msg 460 106 0 0 0 0 0 0 0 0 0 0 0 0 0 0 0 0 0 0 0 0 0 0 0 0;
#N canvas 317 122 568 395 chorder 0;
#N canvas 211 50 589 710 extended_chords 0;
#X obj 8 32 route dom9 min9 maj9 minmaj9 majadd9 minadd9 maj9sh11 dom9fl5
dom9sh5, f 71;
#X msg 8 67 \$1 1 0 0 0 1 0 0 1 0 0 1 0 0 0 1 0 0 0 0 0 0 0 0 0;
#X msg 18 87 \$1 1 0 0 1 0 0 0 1 0 0 1 0 0 0 1 0 0 0 0 0 0 0 0 0;
#X msg 30 107 \$1 1 0 0 0 1 0 0 1 0 0 0 1 0 0 1 0 0 0 0 0 0 0 0 0;
#X msg 40 127 \$1 1 0 0 1 0 0 0 1 0 0 0 1 0 0 1 0 0 0 0 0 0 0 0 0;
#X msg 57 147 \$1 1 0 0 0 1 0 0 1 0 0 0 0 0 0 1 0 0 0 0 0 0 0 0 0;
#X msg 67 167 \$1 1 0 0 1 0 0 0 1 0 0 0 0 0 0 1 0 0 0 0 0 0 0 0 0;
#X msg 79 187 \$1 1 0 0 0 1 0 0 1 0 0 0 1 0 0 1 0 0 0 1 0 0 0 0 0;
#X msg 89 207 \$1 1 0 0 0 1 0 1 0 0 0 1 0 0 0 1 0 0 0 0 0 0 0 0 0;
#X msg 100 227 \$1 1 0 0 0 1 0 0 0 1 0 1 0 0 0 1 0 0 0 0 0 0 0 0 0
;
#X obj 7 269 route dom11 min11 maj11 maj11fl9 dom13 min13 maj13 dom13fl9
maj13sh11 dom13sh11, f 80;
#X msg 7 303 \$1 1 0 0 0 1 0 0 1 0 0 1 0 0 0 1 0 0 1 0 0 0 0 0 0;
#X msg 17 323 \$1 1 0 0 1 0 0 0 1 0 0 1 0 0 0 1 0 0 1 0 0 0 0 0 0;
#X msg 29 343 \$1 1 0 0 0 1 0 0 1 0 0 0 1 0 0 1 0 0 1 0 0 0 0 0 0;
#X msg 39 363 \$1 1 0 0 0 0 0 0 1 0 0 1 0 0 1 0 0 0 1 0 0 0 0 0 0;
#X msg 56 383 \$1 1 0 0 0 1 0 0 1 0 0 1 0 0 0 1 0 0 1 0 0 0 1 0 0;
#X msg 66 403 \$1 1 0 0 1 0 0 0 1 0 0 1 0 0 0 1 0 0 1 0 0 0 1 0 0;
#X msg 78 423 \$1 1 0 0 0 1 0 0 1 0 0 0 1 0 0 1 0 0 0 0 0 0 1 0 0;
#X msg 88 443 \$1 1 0 0 0 1 0 0 1 0 0 1 0 0 1 0 0 0 0 0 0 0 1 0 0;
#X msg 99 463 \$1 1 0 0 0 1 0 0 1 0 0 0 1 0 0 1 0 0 0 1 0 0 1 0 0;
#X msg 109 483 \$1 1 0 0 0 1 0 0 1 0 0 1 0 0 0 1 0 0 0 1 0 0 1 0 0
;
#X obj 31 524 route dom7fl9 dom7sh9 dom7fl59 dom7fl5sh9 dom7sh5fl9
dom7sh59, f 62;
#X msg 31 562 \$1 1 0 0 0 1 0 0 1 0 0 1 0 0 1 0 0 0 0 0 0 0 0 0 0;
#X msg 41 582 \$1 1 0 0 0 1 0 0 1 0 0 1 0 0 0 0 1 0 0 0 0 0 0 0 0;
#X msg 53 602 \$1 1 0 0 0 1 0 1 0 0 0 1 0 0 1 0 0 0 0 0 0 0 0 0 0;
#X msg 63 622 \$1 1 0 0 0 1 0 1 0 0 0 1 0 0 0 0 1 0 0 0 0 0 0 0 0;
#X msg 74 642 \$1 1 0 0 0 1 0 0 0 1 0 1 0 0 1 0 0 0 0 0 0 0 0 0 0;
#X msg 84 662 \$1 1 0 0 0 1 0 0 0 1 0 1 0 0 0 0 1 0 0 0 0 0 0 0 0;
#X obj 27 685 outlet;
#X obj 8 8 inlet;
#X obj 498 677 outlet;
#X connect 0 0 1 0;
#X connect 0 1 2 0;
#X connect 0 2 3 0;
#X connect 0 3 4 0;
#X connect 0 4 5 0;
#X connect 0 5 6 0;
#X connect 0 6 7 0;
#X connect 0 7 8 0;
#X connect 0 8 9 0;
#X connect 0 9 10 0;
#X connect 1 0 28 0;
#X connect 2 0 28 0;
#X connect 3 0 28 0;
#X connect 4 0 28 0;
#X connect 5 0 28 0;
#X connect 6 0 28 0;
#X connect 7 0 28 0;
#X connect 8 0 28 0;
#X connect 9 0 28 0;
#X connect 10 0 11 0;
#X connect 10 1 12 0;
#X connect 10 2 13 0;
#X connect 10 3 14 0;
#X connect 10 4 15 0;
#X connect 10 5 16 0;
#X connect 10 6 17 0;
#X connect 10 7 18 0;
#X connect 10 8 19 0;
#X connect 10 9 20 0;
#X connect 10 10 21 0;
#X connect 11 0 28 0;
#X connect 12 0 28 0;
#X connect 13 0 28 0;
#X connect 14 0 28 0;
#X connect 15 0 28 0;
#X connect 16 0 28 0;
#X connect 17 0 28 0;
#X connect 18 0 28 0;
#X connect 19 0 28 0;
#X connect 20 0 28 0;
#X connect 21 0 22 0;
#X connect 21 1 23 0;
#X connect 21 2 24 0;
#X connect 21 3 25 0;
#X connect 21 4 26 0;
#X connect 21 5 27 0;
#X connect 21 6 30 0;
#X connect 22 0 28 0;
#X connect 23 0 28 0;
#X connect 24 0 28 0;
#X connect 25 0 28 0;
#X connect 26 0 28 0;
#X connect 27 0 28 0;
#X connect 29 0 0 0;
#X restore 229 181 pd extended_chords;
#N canvas 169 111 958 558 two_octave_chords 0;
#X obj 20 6 inlet;
#X obj 463 679 outlet;
#X msg 34 334 \$1 1 0 0 0 1 0 0 1 0 0 0 0 1 0 0 0 1 0 0 1 0 0 0 0;
#X msg 47 308 \$1 1 0 0 1 0 0 0 1 0 0 0 0 1 0 0 1 0 0 0 1 0 0 0 0;
#X msg 75 284 \$1 1 0 0 1 0 0 1 0 0 0 0 0 1 0 0 1 0 0 1 0 0 0 0 0;
#X msg 110 257 \$1 1 0 0 0 1 0 0 0 1 0 0 0 1 0 0 0 1 0 0 0 1 0 0 0
;
#X msg 153 231 \$1 1 0 0 0 1 0 0 1 0 0 0 1 1 0 0 0 1 0 0 1 0 0 0 1
;
#X msg 187 205 \$1 1 0 0 1 0 0 0 1 0 0 1 0 1 0 0 1 0 0 0 1 0 0 1 0
;
#X msg 220 181 \$1 1 0 0 0 1 0 0 1 0 0 1 0 1 0 0 0 1 0 0 1 0 0 1 0
;
#X msg 252 158 \$1 1 0 0 1 0 0 1 0 0 1 0 0 1 0 0 1 0 0 1 0 0 1 0 0
;
#X msg 278 131 \$1 1 0 0 0 1 0 0 0 0 0 0 0 1 0 0 0 1 0 0 0 0 0 0 0
;
#X msg 307 106 \$1 1 0 0 1 0 0 0 0 0 0 0 0 1 0 0 1 0 0 0 0 0 0 0 0
;
#X msg 352 82 \$1 1 0 0 0 0 0 0 1 0 0 0 0 1 0 0 0 0 0 0 1 0 0 0 0;
#X msg 395 59 \$1 1 0 0 0 0 0 1 0 0 0 0 0 1 0 0 0 0 0 1 0 0 0 0 0;
#X msg 62 659 \$1 1 0 0 0 1 0 1 0 0 0 0 0 1 0 0 0 1 0 1 0 0 0 0 0;
#X msg 89 635 \$1 1 0 0 1 0 0 0 0 1 0 0 0 1 0 0 1 0 0 0 0 1 0 0 0;
#X msg 113 610 \$1 1 0 1 0 0 0 0 1 0 0 0 0 1 0 1 0 0 0 0 1 0 0 0 0
;
#X msg 136 584 \$1 1 0 0 0 0 1 0 1 0 0 0 0 1 0 0 0 0 1 0 1 0 0 0 0
;
#X msg 165 557 \$1 1 0 1 0 0 1 0 1 0 0 0 0 1 0 1 0 0 1 0 1 0 0 0 0
;
#X msg 196 531 \$1 1 0 0 1 0 0 0 1 0 0 0 1 1 0 0 1 0 0 0 1 0 0 0 1
;
#X msg 236 510 \$1 1 0 0 0 0 1 0 1 0 0 1 0 1 0 0 0 0 1 0 1 0 0 1 0
;
#X msg 270 489 \$1 1 0 0 1 0 0 1 0 0 0 1 0 1 0 0 1 0 0 1 0 0 0 1 0
;
#X msg 307 469 \$1 1 0 0 0 1 0 0 0 1 0 1 0 1 0 0 0 1 0 0 0 1 0 1 0
;
#X msg 347 448 \$1 1 0 0 0 1 0 0 1 0 1 0 0 1 0 0 0 1 0 0 1 0 1 0 0
;
#X msg 410 430 \$1 1 0 0 1 0 0 0 1 0 1 0 0 1 0 0 1 0 0 0 1 0 1 0 0
;
#X obj 574 683 outlet;
#X msg 699 279 \$1 1 0 0 0 1 0 1 0 0 0 1 0 1 0 0 0 1 0 1 0 0 0 1 0
;
#X msg 636 298 \$1 1 0 0 1 0 0 0 0 1 0 1 0 1 0 0 1 0 0 0 0 1 0 1 0
;
#X msg 596 320 \$1 1 0 0 0 1 0 0 0 1 0 0 1 1 0 0 0 1 0 0 0 1 0 0 1
;
#X msg 559 339 \$1 1 0 0 0 1 0 1 0 0 0 0 1 1 0 0 0 1 0 1 0 0 0 0 1
;
#X obj 19 31 route 2maj 2min 2dim 2aug 2maj7 2min7 2dom7 2dim7 2maj3
2min3 2pow 2tri, f 72;
#X obj 552 237 route 2maj7fl5 2maj7sh5 2min7sh5 2dom7fl5;
#X obj 36 387 route 2majfl5 2minsh5 2sus2 2sus4 2sus24 2minmaj7 2sus7
2min7fl5 2aug7 2maj6 2min6, f 84;
#X connect 0 0 30 0;
#X connect 2 0 1 0;
#X connect 3 0 1 0;
#X connect 4 0 1 0;
#X connect 5 0 1 0;
#X connect 6 0 1 0;
#X connect 7 0 1 0;
#X connect 8 0 1 0;
#X connect 9 0 1 0;
#X connect 10 0 1 0;
#X connect 11 0 1 0;
#X connect 12 0 1 0;
#X connect 13 0 1 0;
#X connect 14 0 1 0;
#X connect 15 0 1 0;
#X connect 16 0 1 0;
#X connect 17 0 1 0;
#X connect 18 0 1 0;
#X connect 19 0 1 0;
#X connect 20 0 1 0;
#X connect 21 0 1 0;
#X connect 22 0 1 0;
#X connect 23 0 1 0;
#X connect 24 0 1 0;
#X connect 26 0 1 0;
#X connect 27 0 1 0;
#X connect 28 0 1 0;
#X connect 29 0 1 0;
#X connect 30 0 2 0;
#X connect 30 1 3 0;
#X connect 30 2 4 0;
#X connect 30 3 5 0;
#X connect 30 4 6 0;
#X connect 30 5 7 0;
#X connect 30 6 8 0;
#X connect 30 7 9 0;
#X connect 30 8 10 0;
#X connect 30 9 11 0;
#X connect 30 10 12 0;
#X connect 30 11 13 0;
#X connect 30 12 32 0;
#X connect 31 0 29 0;
#X connect 31 1 28 0;
#X connect 31 2 27 0;
#X connect 31 3 26 0;
#X connect 31 4 25 0;
#X connect 32 0 14 0;
#X connect 32 1 15 0;
#X connect 32 2 16 0;
#X connect 32 3 17 0;
#X connect 32 4 18 0;
#X connect 32 5 19 0;
#X connect 32 6 20 0;
#X connect 32 7 21 0;
#X connect 32 8 22 0;
#X connect 32 9 23 0;
#X connect 32 10 24 0;
#X connect 32 11 31 0;
#X restore 163 134 pd two_octave_chords;
#N canvas 282 50 1063 710 single_octave_chords 0;
#X obj 61 12 inlet;
#X obj 492 656 outlet;
#X obj 61 31 route maj min dim aug maj7 min7 dom7 dim7 maj3 min3 pow
tri;
#X obj 119 372 route majfl5 minsh5 sus2 sus4 sus24 minmaj7 sus7 min7fl5
aug7 maj6 min6;
#X obj 578 658 outlet;
#X obj 552 237 route maj7fl5 maj7sh5 min7sh5 dom7fl5;
#X msg 395 59 \$1 1 0 0 0 0 0 1 0 0 0 0 0 0 0 0 0 0 0 0 0 0 0 0 0;
#X msg 352 82 \$1 1 0 0 0 0 0 0 1 0 0 0 0 0 0 0 0 0 0 0 0 0 0 0 0;
#X msg 307 106 \$1 1 0 0 1 0 0 0 0 0 0 0 0 0 0 0 0 0 0 0 0 0 0 0 0
;
#X msg 278 131 \$1 1 0 0 0 1 0 0 0 0 0 0 0 0 0 0 0 0 0 0 0 0 0 0 0
;
#X msg 252 158 \$1 1 0 0 1 0 0 1 0 0 1 0 0 0 0 0 0 0 0 0 0 0 0 0 0
;
#X msg 220 181 \$1 1 0 0 0 1 0 0 1 0 0 1 0 0 0 0 0 0 0 0 0 0 0 0 0
;
#X msg 187 205 \$1 1 0 0 1 0 0 0 1 0 0 1 0 0 0 0 0 0 0 0 0 0 0 0 0
;
#X msg 153 231 \$1 1 0 0 0 1 0 0 1 0 0 0 1 0 0 0 0 0 0 0 0 0 0 0 0
;
#X msg 110 257 \$1 1 0 0 0 1 0 0 0 1 0 0 0 0 0 0 0 0 0 0 0 0 0 0 0
;
#X msg 75 284 \$1 1 0 0 1 0 0 1 0 0 0 0 0 0 0 0 0 0 0 0 0 0 0 0 0;
#X msg 47 308 \$1 1 0 0 1 0 0 0 1 0 0 0 0 0 0 0 0 0 0 0 0 0 0 0 0;
#X msg 34 334 \$1 1 0 0 0 1 0 0 1 0 0 0 0 0 0 0 0 0 0 0 0 0 0 0 0;
#X msg 410 430 \$1 1 0 0 1 0 0 0 1 0 1 0 0 0 0 0 0 0 0 0 0 0 0 0 0
;
#X msg 347 448 \$1 1 0 0 0 1 0 0 1 0 1 0 0 0 0 0 0 0 0 0 0 0 0 0 0
;
#X msg 307 470 \$1 1 0 0 0 1 0 0 0 1 0 1 0 0 0 0 0 0 0 0 0 0 0 0 0
;
#X msg 270 489 \$1 1 0 0 1 0 0 1 0 0 0 1 0 0 0 0 0 0 0 0 0 0 0 0 0
;
#X msg 236 510 \$1 1 0 0 0 0 1 0 1 0 0 1 0 0 0 0 0 0 0 0 0 0 0 0 0
;
#X msg 197 531 \$1 1 0 0 1 0 0 0 1 0 0 0 1 0 0 0 0 0 0 0 0 0 0 0 0
;
#X msg 165 557 \$1 1 0 1 0 0 1 0 1 0 0 0 0 0 0 0 0 0 0 0 0 0 0 0 0
;
#X msg 136 584 \$1 1 0 0 0 0 1 0 1 0 0 0 0 0 0 0 0 0 0 0 0 0 0 0 0
;
#X msg 113 610 \$1 1 0 1 0 0 0 0 1 0 0 0 0 0 0 0 0 0 0 0 0 0 0 0 0
;
#X msg 89 635 \$1 1 0 0 1 0 0 0 0 1 0 0 0 0 0 0 0 0 0 0 0 0 0 0 0;
#X msg 62 659 \$1 1 0 0 0 1 0 1 0 0 0 0 0 0 0 0 0 0 0 0 0 0 0 0 0;
#X msg 699 279 \$1 1 0 0 0 1 0 1 0 0 0 1 0 0 0 0 0 0 0 0 0 0 0 0 0
;
#X msg 636 298 \$1 1 0 0 1 0 0 0 0 1 0 1 0 0 0 0 0 0 0 0 0 0 0 0 0
;
#X msg 596 320 \$1 1 0 0 0 1 0 0 0 1 0 0 1 0 0 0 0 0 0 0 0 0 0 0 0
;
#X msg 559 339 \$1 1 0 0 0 1 0 1 0 0 0 0 1 0 0 0 0 0 0 0 0 0 0 0 0
;
#X connect 0 0 2 0;
#X connect 2 0 17 0;
#X connect 2 1 16 0;
#X connect 2 2 15 0;
#X connect 2 3 14 0;
#X connect 2 4 13 0;
#X connect 2 5 12 0;
#X connect 2 6 11 0;
#X connect 2 7 10 0;
#X connect 2 8 9 0;
#X connect 2 9 8 0;
#X connect 2 10 7 0;
#X connect 2 11 6 0;
#X connect 2 12 3 0;
#X connect 3 0 28 0;
#X connect 3 1 27 0;
#X connect 3 2 26 0;
#X connect 3 3 25 0;
#X connect 3 4 24 0;
#X connect 3 5 23 0;
#X connect 3 6 22 0;
#X connect 3 7 21 0;
#X connect 3 8 20 0;
#X connect 3 9 19 0;
#X connect 3 10 18 0;
#X connect 3 11 5 0;
#X connect 5 0 32 0;
#X connect 5 1 31 0;
#X connect 5 2 30 0;
#X connect 5 3 29 0;
#X connect 5 4 4 0;
#X connect 6 0 1 0;
#X connect 7 0 1 0;
#X connect 8 0 1 0;
#X connect 9 0 1 0;
#X connect 10 0 1 0;
#X connect 11 0 1 0;
#X connect 12 0 1 0;
#X connect 13 0 1 0;
#X connect 14 0 1 0;
#X connect 15 0 1 0;
#X connect 16 0 1 0;
#X connect 17 0 1 0;
#X connect 18 0 1 0;
#X connect 19 0 1 0;
#X connect 20 0 1 0;
#X connect 21 0 1 0;
#X connect 22 0 1 0;
#X connect 23 0 1 0;
#X connect 24 0 1 0;
#X connect 25 0 1 0;
#X connect 26 0 1 0;
#X connect 27 0 1 0;
#X connect 28 0 1 0;
#X connect 29 0 1 0;
#X connect 30 0 1 0;
#X connect 31 0 1 0;
#X connect 32 0 1 0;
#X restore 73 83 pd single_octave_chords;
#X obj 73 35 inlet;
#X obj 231 284 outlet;
#N canvas 193 110 450 300 extra_chords 0;
#X obj 87 13 inlet;
#X obj 139 251 outlet;
#X obj 89 68 route maj10 min10 octava;
#X msg 89 110 \$1 1 0 0 0 0 0 0 0 0 0 0 0 0 0 0 0 1 0 0 0 0 0 0 0;
#X msg 86 144 \$1 1 0 0 0 0 0 0 0 0 0 0 0 0 0 0 1 0 0 0 0 0 0 0 0;
#X msg 83 176 \$1 1 0 0 0 0 0 0 0 0 0 0 0 1 0 0 0 0 0 0 0 0 0 0 0;
#X connect 0 0 2 0;
#X connect 2 0 3 0;
#X connect 2 1 4 0;
#X connect 2 2 5 0;
#X connect 2 3 1 0;
#X connect 3 0 1 0;
#X connect 4 0 1 0;
#X connect 5 0 1 0;
#X restore 279 235 pd extra_chords;
#X connect 0 0 4 0;
#X connect 0 1 5 0;
#X connect 1 0 4 0;
#X connect 1 1 0 0;
#X connect 2 0 4 0;
#X connect 2 1 1 0;
#X connect 3 0 2 0;
#X connect 5 0 4 0;
#X restore 347 78 pd chorder;
#X obj 912 310 loadbang;
#X obj 914 344 f \$1;
#X obj 915 372 expr if($f1==0 \, 64 \, $f1);
#X obj 506 620 makenote;
#X obj 993 415 f \$2;
#X obj 994 443 expr if($f1==0 \, 500 \, $f1);
#X obj 65 51 f \$4;
#X obj 233 160 f \$3;
#X text 891 63 arguments: velocity - duration - base - color;
#X obj 347 128 route 0;
#X obj 167 35 route color velocity duration transpose;
#X connect 0 0 101 0;
#X connect 2 0 113 0;
#X connect 3 0 1 0;
#X connect 5 0 43 0;
#X connect 6 0 24 0;
#X connect 6 0 45 0;
#X connect 7 0 4 0;
#X connect 7 0 106 0;
#X connect 8 0 42 0;
#X connect 9 0 8 1;
#X connect 9 0 11 0;
#X connect 10 0 41 0;
#X connect 11 0 10 1;
#X connect 11 0 13 0;
#X connect 12 0 40 0;
#X connect 13 0 12 1;
#X connect 13 0 15 0;
#X connect 14 0 39 0;
#X connect 15 0 14 1;
#X connect 15 0 17 0;
#X connect 16 0 38 0;
#X connect 17 0 16 1;
#X connect 17 0 19 0;
#X connect 18 0 37 0;
#X connect 19 0 18 1;
#X connect 19 0 21 0;
#X connect 20 0 36 0;
#X connect 21 0 20 1;
#X connect 21 0 23 0;
#X connect 22 0 35 0;
#X connect 23 0 22 1;
#X connect 23 0 26 0;
#X connect 24 0 5 1;
#X connect 24 0 9 0;
#X connect 25 0 34 0;
#X connect 26 0 25 1;
#X connect 26 0 28 0;
#X connect 27 0 33 0;
#X connect 28 0 27 1;
#X connect 28 0 30 0;
#X connect 29 0 32 0;
#X connect 30 0 29 1;
#X connect 30 0 99 0;
#X connect 31 0 7 0;
#X connect 32 0 7 0;
#X connect 33 0 7 0;
#X connect 34 0 7 0;
#X connect 35 0 7 0;
#X connect 36 0 7 0;
#X connect 37 0 7 0;
#X connect 38 0 7 0;
#X connect 39 0 7 0;
#X connect 40 0 7 0;
#X connect 41 0 7 0;
#X connect 42 0 7 0;
#X connect 43 0 7 0;
#X connect 44 0 5 0;
#X connect 44 0 8 0;
#X connect 44 0 10 0;
#X connect 44 0 12 0;
#X connect 44 0 14 0;
#X connect 44 0 16 0;
#X connect 44 0 18 0;
#X connect 44 0 20 0;
#X connect 44 0 22 0;
#X connect 44 0 25 0;
#X connect 44 0 27 0;
#X connect 44 0 29 0;
#X connect 45 0 7 0;
#X connect 45 0 46 0;
#X connect 46 0 31 0;
#X connect 46 1 44 0;
#X connect 46 1 98 0;
#X connect 47 0 112 0;
#X connect 47 1 100 0;
#X connect 49 0 48 0;
#X connect 50 0 5 0;
#X connect 50 1 10 0;
#X connect 50 2 14 0;
#X connect 50 3 16 0;
#X connect 50 4 20 0;
#X connect 50 5 25 0;
#X connect 50 6 29 0;
#X connect 50 7 63 0;
#X connect 50 8 66 0;
#X connect 50 9 70 0;
#X connect 50 10 72 0;
#X connect 50 11 76 0;
#X connect 50 12 80 0;
#X connect 50 13 84 0;
#X connect 51 0 8 0;
#X connect 52 0 12 0;
#X connect 53 0 18 0;
#X connect 54 0 22 0;
#X connect 55 0 27 0;
#X connect 56 0 64 0;
#X connect 57 0 68 0;
#X connect 58 0 74 0;
#X connect 59 0 78 0;
#X connect 60 0 82 0;
#X connect 61 0 109 0;
#X connect 62 0 110 0;
#X connect 63 0 97 0;
#X connect 64 0 96 0;
#X connect 65 0 64 1;
#X connect 65 0 67 0;
#X connect 66 0 95 0;
#X connect 67 0 66 1;
#X connect 67 0 69 0;
#X connect 68 0 94 0;
#X connect 69 0 68 1;
#X connect 69 0 71 0;
#X connect 70 0 93 0;
#X connect 71 0 70 1;
#X connect 71 0 73 0;
#X connect 72 0 92 0;
#X connect 73 0 72 1;
#X connect 73 0 75 0;
#X connect 74 0 91 0;
#X connect 75 0 74 1;
#X connect 75 0 77 0;
#X connect 76 0 90 0;
#X connect 77 0 76 1;
#X connect 77 0 79 0;
#X connect 78 0 89 0;
#X connect 79 0 78 1;
#X connect 79 0 81 0;
#X connect 80 0 88 0;
#X connect 81 0 80 1;
#X connect 81 0 83 0;
#X connect 82 0 87 0;
#X connect 83 0 82 1;
#X connect 83 0 85 0;
#X connect 84 0 86 0;
#X connect 85 0 84 1;
#X connect 86 0 7 0;
#X connect 87 0 7 0;
#X connect 88 0 7 0;
#X connect 89 0 7 0;
#X connect 90 0 7 0;
#X connect 91 0 7 0;
#X connect 92 0 7 0;
#X connect 93 0 7 0;
#X connect 94 0 7 0;
#X connect 95 0 7 0;
#X connect 96 0 7 0;
#X connect 97 0 7 0;
#X connect 98 0 63 0;
#X connect 98 0 64 0;
#X connect 98 0 66 0;
#X connect 98 0 68 0;
#X connect 98 0 70 0;
#X connect 98 0 72 0;
#X connect 98 0 74 0;
#X connect 98 0 76 0;
#X connect 98 0 78 0;
#X connect 98 0 80 0;
#X connect 98 0 82 0;
#X connect 98 0 84 0;
#X connect 99 0 63 1;
#X connect 99 0 65 0;
#X connect 100 0 50 0;
#X connect 100 1 51 0;
#X connect 100 2 50 1;
#X connect 100 3 52 0;
#X connect 100 4 50 2;
#X connect 100 5 50 3;
#X connect 100 6 53 0;
#X connect 100 7 50 4;
#X connect 100 8 54 0;
#X connect 100 9 50 5;
#X connect 100 10 55 0;
#X connect 100 11 50 6;
#X connect 100 12 50 7;
#X connect 100 13 56 0;
#X connect 100 14 50 8;
#X connect 100 15 57 0;
#X connect 100 16 50 9;
#X connect 100 17 50 10;
#X connect 100 18 58 0;
#X connect 100 19 50 11;
#X connect 100 20 59 0;
#X connect 100 21 50 12;
#X connect 100 22 60 0;
#X connect 100 23 50 13;
#X connect 101 0 100 0;
#X connect 102 0 47 0;
#X connect 103 0 104 0;
#X connect 103 0 107 0;
#X connect 104 0 105 0;
#X connect 105 0 106 1;
#X connect 106 0 49 0;
#X connect 106 1 49 1;
#X connect 107 0 108 0;
#X connect 108 0 106 2;
#X connect 109 0 3 0;
#X connect 110 0 6 1;
#X connect 112 1 6 0;
#X connect 113 0 3 0;
#X connect 113 1 106 1;
#X connect 113 2 106 2;
#X connect 113 3 6 1;
#X connect 113 4 102 0;
#X coords 0 -1 1 1 142 22 2 450 200;
