#N canvas 0 50 450 300 10;
#N canvas 0 50 450 300 white 0;
#X obj 100 100 whitekey 1;
#X obj 110 100 whitekey 3;
#X obj 120 100 whitekey 5;
#X obj 130 100 whitekey 6;
#X obj 140 100 whitekey 8;
#X obj 150 100 whitekey 10;
#X obj 160 100 whitekey 12;
#X obj 61 26 inlet;
#X obj 101 26 inlet;
#X obj 141 26 inlet;
#X obj 181 26 inlet;
#X obj 221 26 inlet;
#X obj 261 26 inlet;
#X obj 301 26 inlet;
#X obj 62 210 outlet;
#X obj 112 210 outlet;
#X obj 162 210 outlet;
#X obj 212 210 outlet;
#X obj 262 210 outlet;
#X obj 312 210 outlet;
#X obj 362 210 outlet;
#X connect 0 0 14 0;
#X connect 1 0 15 0;
#X connect 2 0 16 0;
#X connect 3 0 17 0;
#X connect 4 0 18 0;
#X connect 5 0 19 0;
#X connect 6 0 20 0;
#X connect 7 0 0 0;
#X connect 8 0 1 0;
#X connect 9 0 2 0;
#X connect 10 0 3 0;
#X connect 11 0 4 0;
#X connect 12 0 5 0;
#X connect 13 0 6 0;
#X coords 0 -1 1 1 70 25 2 100 100;
#X restore 100 100 pd white;
#X obj 105 100 blackkey 2;
#X obj 116 100 blackkey 4;
#X obj 135 100 blackkey 7;
#X obj 146 100 blackkey 9;
#X obj 157 100 blackkey 11;
#X obj 74 231 pack f f f f f f f f f f f f;
#X obj 67 19 inlet;
#X obj 74 268 outlet;
#X obj 67 52 route 1 2 3 4 5 6 7 8 9 10 11 12;
#X connect 0 0 6 0;
#X connect 0 1 6 2;
#X connect 0 2 6 4;
#X connect 0 3 6 5;
#X connect 0 4 6 7;
#X connect 0 5 6 9;
#X connect 0 6 6 11;
#X connect 1 0 6 1;
#X connect 2 0 6 3;
#X connect 3 0 6 6;
#X connect 4 0 6 8;
#X connect 5 0 6 10;
#X connect 6 0 8 0;
#X connect 7 0 9 0;
#X connect 9 0 0 0;
#X connect 9 1 1 0;
#X connect 9 2 0 1;
#X connect 9 3 2 0;
#X connect 9 4 0 2;
#X connect 9 5 0 3;
#X connect 9 6 3 0;
#X connect 9 7 0 4;
#X connect 9 8 4 0;
#X connect 9 9 0 5;
#X connect 9 10 5 0;
#X connect 9 11 0 6;
#X coords 0 -1 1 1 70 25 2 100 100;
