#N canvas 673 169 450 300 10;
#X obj 291 144 * 1;
#X obj 291 98 expr pow(10 \, $f1/20);
#X obj 341 18 sel 0 1;
#X msg 376 139 0, f 2;
#X obj 291 121 t b f;
#X obj 213 205 env~;
#X obj 291 75 min 40;
#X obj 191 268 - 99;
#X obj 54 44 loadbang;
#X obj 178 20 inlet~ audioIN;
#X obj 284 260 outlet~ AudioOUT;
#X msg 312 165 \$1 50;
#X obj 312 190 line~;
#X obj 266 177 *~;
#X obj 101 101 cnv 15 48 83 empty empty empty 20 12 0 14 -33289 -66577
0;
#X obj 42 227 r \$0-foo;
#X obj 42 261 s \$0-bar;
#N canvas 159 139 650 379 tgl 0;
#X obj 326 250 f \$0;
#X obj 405 42 loadbang;
#X obj 236 347 pack f f;
#X msg 236 391 \; \$2-tgl color \$1;
#X obj 105 101 tgl 14 0 empty empty empty 17 7 0 10 -262144 -1 -1 0
1;
#X obj 74 40 inlet;
#X obj 77 212 outlet;
#X obj 101 101 cnv 10 23 14 empty \$0-tgl empty 20 12 0 14 -33289 -66577
0;
#X obj 224 120 sel 0 1;
#X msg 229 250 12;
#X msg 262 250 16;
#X connect 0 0 2 1;
#X connect 1 0 0 0;
#X connect 1 0 9 0;
#X connect 1 0 10 0;
#X connect 2 0 3 0;
#X connect 4 0 6 0;
#X connect 4 0 8 0;
#X connect 5 0 4 0;
#X connect 8 0 9 0;
#X connect 8 1 10 0;
#X connect 9 0 2 0;
#X connect 10 0 2 0;
#X coords 0 -1 1 1 25 16 2 100 100;
#X restore 101 154 pd tgl;
#X obj 101 103 vsl 25 48 0.01 1 1 0 \$0-foo \$0-bar empty 0 -9 0 10
-33289 -257985 -1 0 1;
#X obj 101 171 nbx 3 14 -40 40 0 1 \$0-foo \$0-bar empty 0 -8 0 8 -33289
-257985 -1 0 256;
#X obj 128 103 vu 20 80 \$0-bar empty -1 -8 0 10 -33289 -1 0 0;
#X connect 0 0 11 0;
#X connect 1 0 4 0;
#X connect 2 0 3 0;
#X connect 2 1 18 0;
#X connect 3 0 11 0;
#X connect 4 0 0 0;
#X connect 4 1 0 1;
#X connect 5 0 7 0;
#X connect 6 0 1 0;
#X connect 7 0 20 0;
#X connect 8 0 17 0;
#X connect 9 0 13 0;
#X connect 11 0 12 0;
#X connect 12 0 13 1;
#X connect 13 0 5 0;
#X connect 13 0 10 0;
#X connect 17 0 2 0;
#X connect 18 0 0 0;
#X connect 19 0 6 0;
#X coords 0 -1 1 1 50 86 2 100 100;
