#N canvas 548 173 655 398 10;
#X obj 78 47 inlet;
#X obj 227 247 outlet;
#X obj 211 112 t b f;
#X obj 210 183 *;
#X obj 210 160 t b f;
#X obj 161 47 inlet;
#X obj 207 47 inlet;
#X obj 293 47 inlet;
#X obj 340 47 inlet;
#X obj 331 130 t b f;
#X obj 379 99 t b f;
#X obj 360 205 /;
#X obj 360 183 t b f;
#X obj 379 153 expr if($f1 == 0 \, 0.001 \, $f1);
#X obj 211 139 - \$1;
#X obj 227 219 + \$1;
#X obj 120 19 loadbang;
#X obj 124 47 f \$2;
#X obj 379 125 - \$3;
#X obj 331 156 - \$3;
#X obj 325 98 f \$4;
#X connect 0 0 19 0;
#X connect 2 0 14 0;
#X connect 2 0 15 0;
#X connect 2 1 14 1;
#X connect 2 1 15 1;
#X connect 3 0 15 0;
#X connect 4 0 3 0;
#X connect 4 1 3 1;
#X connect 5 0 2 0;
#X connect 6 0 14 0;
#X connect 7 0 9 0;
#X connect 7 0 10 0;
#X connect 8 0 18 0;
#X connect 9 0 19 0;
#X connect 9 1 19 1;
#X connect 10 0 18 0;
#X connect 10 1 18 1;
#X connect 11 0 3 0;
#X connect 12 0 11 0;
#X connect 12 1 11 1;
#X connect 13 0 12 0;
#X connect 14 0 4 0;
#X connect 15 0 1 0;
#X connect 16 0 17 0;
#X connect 16 0 20 0;
#X connect 17 0 14 0;
#X connect 18 0 13 0;
#X connect 19 0 11 0;
#X connect 20 0 18 0;
