#N canvas 66 0 1304 692 10;
#N canvas 224 233 450 250 (subpatch) 0;
#X array \$0-loop1 882000 float 2;
#X coords 0 1 882000 -1 200 30 1 0 0;
#X restore 1032 40 graph;
#N canvas 0 50 450 250 (subpatch) 0;
#X array \$0-loop2 882000 float 2;
#X coords 0 1 882000 -1 200 30 1 0 0;
#X restore 1032 93 graph;
#N canvas 0 50 450 250 (subpatch) 0;
#X array \$0-loop3 882000 float 2;
#X coords 0 1 882000 -1 200 30 1 0 0;
#X restore 1032 145 graph;
#N canvas 0 50 450 250 (subpatch) 0;
#X array \$0-loop4 882000 float 2;
#X coords 0 1 882000 -1 200 30 1 0 0;
#X restore 1032 198 graph;
#N canvas 0 50 450 250 (subpatch) 0;
#X array \$0-loop5 882000 float 2;
#X coords 0 1 882000 -1 200 30 1 0 0;
#X restore 1032 250 graph;
#X obj 705 394 snapshot~;
#X obj 705 371 metro 50;
#X obj 705 416 s \$0-sliderPosition;
#X msg 791 298 0;
#X obj 848 203 metro 1;
#X obj 830 228 i;
#X obj 864 228 + 1;
#X obj 790 276 metro, f 6;
#X obj 848 182 == 1;
#X obj 806 182 sel 1;
#X msg 806 203 0;
#X obj 705 348 loadbang;
#X obj 689 472 s~ \$0-clk;
#N canvas 369 194 890 417 loadbang 0;
#X obj 116 38 loadbang;
#X msg 56 98 1;
#X obj 56 124 s \$0-vol1_R;
#X obj 56 145 s \$0-vol2_R;
#X obj 56 166 s \$0-vol3_R;
#X obj 56 187 s \$0-vol4_R;
#X obj 56 208 s \$0-vol5_R;
#X obj 320 25 r \$0-foo;
#X obj 320 46 s \$0-bar;
#X msg 194 101 0;
#X msg 404 144 \; \$1-loop1 const 0;
#X obj 404 99 r \$0-erase1;
#X obj 404 122 f \$0;
#X obj 538 124 f \$0;
#X obj 538 101 r \$0-erase2;
#X msg 538 146 \; \$1-loop2 const 0;
#X obj 405 228 f \$0;
#X obj 405 205 r \$0-erase3;
#X msg 405 250 \; \$1-loop3 const 0;
#X obj 555 229 f \$0;
#X obj 555 206 r \$0-erase4;
#X msg 555 251 \; \$1-loop4 const 0;
#X obj 693 166 f \$0;
#X obj 693 143 r \$0-erase5;
#X msg 693 188 \; \$1-loop5 const 0;
#X obj 174 168 s \$0-radioReturn;
#X obj 181 197 s \$0-overdubReturn;
#X connect 0 0 1 0;
#X connect 0 0 9 0;
#X connect 1 0 2 0;
#X connect 1 0 3 0;
#X connect 1 0 4 0;
#X connect 1 0 5 0;
#X connect 1 0 6 0;
#X connect 9 0 25 0;
#X connect 9 0 26 0;
#X connect 11 0 12 0;
#X connect 12 0 10 0;
#X connect 13 0 15 0;
#X connect 14 0 13 0;
#X connect 16 0 18 0;
#X connect 17 0 16 0;
#X connect 19 0 21 0;
#X connect 20 0 19 0;
#X connect 22 0 24 0;
#X connect 23 0 22 0;
#X restore 1033 304 pd loadbang;
#N canvas 262 251 789 300 audio_reader 0;
#X obj 28 60 tabread4~ \$0-loop1;
#X obj 28 169 *~ 1;
#X obj 53 83 r \$0-vol1;
#X msg 63 147 0, f 1;
#X obj 63 126 sel 0 1;
#X obj 86 147 bng 15 250 50 0 empty empty empty 17 7 0 10 -262144 -1
-1;
#X obj 86 165 s \$0-vol1_R;
#X obj 63 106 r \$0-active1;
#X obj 28 38 r~ \$0-clk;
#X obj 179 169 *~ 1;
#X msg 214 147 0, f 1;
#X obj 214 126 sel 0 1;
#X obj 237 147 bng 15 250 50 0 empty empty empty 17 7 0 10 -262144
-1 -1;
#X obj 179 38 r~ \$0-clk;
#X obj 179 60 tabread4~ \$0-loop2;
#X obj 204 83 r \$0-vol2;
#X obj 214 106 r \$0-active2;
#X obj 237 165 s \$0-vol2_R;
#X obj 28 197 throw~ \$0-out;
#X obj 179 197 throw~ \$0-out;
#X obj 325 169 *~ 1;
#X msg 360 147 0, f 1;
#X obj 360 126 sel 0 1;
#X obj 383 147 bng 15 250 50 0 empty empty empty 17 7 0 10 -262144
-1 -1;
#X obj 325 38 r~ \$0-clk;
#X obj 325 197 throw~ \$0-out;
#X obj 325 60 tabread4~ \$0-loop3;
#X obj 350 83 r \$0-vol3;
#X obj 360 106 r \$0-active3;
#X obj 383 165 s \$0-vol3_R;
#X obj 476 169 *~ 1;
#X msg 511 147 0, f 1;
#X obj 511 126 sel 0 1;
#X obj 534 147 bng 15 250 50 0 empty empty empty 17 7 0 10 -262144
-1 -1;
#X obj 476 38 r~ \$0-clk;
#X obj 476 197 throw~ \$0-out;
#X obj 622 169 *~ 1;
#X msg 657 147 0, f 1;
#X obj 657 126 sel 0 1;
#X obj 680 147 bng 15 250 50 0 empty empty empty 17 7 0 10 -262144
-1 -1;
#X obj 622 38 r~ \$0-clk;
#X obj 622 197 throw~ \$0-out;
#X obj 476 60 tabread4~ \$0-loop4;
#X obj 501 83 r \$0-vol4;
#X obj 511 106 r \$0-active4;
#X obj 534 165 s \$0-vol4_R;
#X obj 622 60 tabread4~ \$0-loop5;
#X obj 647 83 r \$0-vol5;
#X obj 657 106 r \$0-active5;
#X obj 680 165 s \$0-vol5_R;
#X connect 0 0 1 0;
#X connect 1 0 18 0;
#X connect 2 0 1 1;
#X connect 3 0 1 1;
#X connect 4 0 3 0;
#X connect 4 1 5 0;
#X connect 5 0 6 0;
#X connect 7 0 4 0;
#X connect 8 0 0 0;
#X connect 9 0 19 0;
#X connect 10 0 9 1;
#X connect 11 0 10 0;
#X connect 11 1 12 0;
#X connect 12 0 17 0;
#X connect 13 0 14 0;
#X connect 14 0 9 0;
#X connect 15 0 9 1;
#X connect 16 0 11 0;
#X connect 20 0 25 0;
#X connect 21 0 20 1;
#X connect 22 0 21 0;
#X connect 22 1 23 0;
#X connect 23 0 29 0;
#X connect 24 0 26 0;
#X connect 26 0 20 0;
#X connect 27 0 20 1;
#X connect 28 0 22 0;
#X connect 30 0 35 0;
#X connect 31 0 30 1;
#X connect 32 0 31 0;
#X connect 32 1 33 0;
#X connect 33 0 45 0;
#X connect 34 0 42 0;
#X connect 36 0 41 0;
#X connect 37 0 36 1;
#X connect 38 0 37 0;
#X connect 38 1 39 0;
#X connect 39 0 49 0;
#X connect 40 0 46 0;
#X connect 42 0 30 0;
#X connect 43 0 30 1;
#X connect 44 0 32 0;
#X connect 46 0 36 0;
#X connect 47 0 36 1;
#X connect 48 0 38 0;
#X restore 1033 331 pd audio_reader;
#X obj 689 238 r \$0-redSend;
#X obj 101 101 cnv 15 154 98 empty empty empty 20 12 0 14 -191407 -66577
0;
#X obj 223 108 tgl 25 0 \$0-greenSend \$0-greenReturn empty 17 7 0
10 -4034 -1 -1 0 1;
#X obj 223 148 tgl 25 0 \$0-redSend \$0-redReturn empty 17 7 0 10 -258113
-262144 -1 0 1;
#X obj 108 110 vsl 10 50 0 2 0 0 \$0-vol1 \$0-vol1_R 1 3 45 0 10 -128992
-257985 -228856 2450 1;
#X obj 108 166 tgl 10 0 \$0-active1 \$0-bar empty 17 7 0 10 -128992
-257985 -1 0 1;
#X obj 125 110 vsl 10 50 0 2 0 0 \$0-vol2 \$0-vol2_R 2 3 45 0 10 -128992
-257985 -228856 2450 1;
#X obj 125 166 tgl 10 0 \$0-active2 \$0-bar empty 17 7 0 10 -128992
-257985 -1 0 1;
#X obj 142 110 vsl 10 50 0 2 0 0 \$0-vol3 \$0-vol3_R 3 3 45 0 10 -128992
-257985 -228856 2450 1;
#X obj 142 166 tgl 10 0 \$0-active3 \$0-bar empty 17 7 0 10 -128992
-257985 -1 0 1;
#X obj 159 110 vsl 10 50 0 2 0 0 \$0-vol4 \$0-vol4_R 4 3 45 0 10 -128992
-257985 -228856 2450 1;
#X obj 159 166 tgl 10 0 \$0-active4 \$0-bar empty 17 7 0 10 -128992
-257985 -1 0 1;
#X obj 177 110 vsl 10 50 0 2 0 0 \$0-vol5 \$0-vol5_R 5 3 45 0 10 -128992
-257985 -228856 2450 1;
#X obj 177 166 tgl 10 0 \$0-active5 \$0-bar empty 17 7 0 10 -128992
-257985 -1 0 1;
#X obj 193 108 vradio 13 1 0 5 \$0-radioSend \$0-radioReturn empty
0 -8 0 10 -128992 -257985 -1 0;
#X obj 209 111 bng 8 250 50 0 \$0-erase1 \$0-bar empty 17 7 0 10 -260097
-258113 -1;
#X obj 209 124 bng 8 250 50 0 \$0-erase2 \$0-bar empty 17 7 0 10 -260097
-258113 -1;
#X obj 209 137 bng 8 250 50 0 \$0-erase3 \$0-bar empty 17 7 0 10 -260097
-258113 -1;
#X obj 209 150 bng 8 250 50 0 \$0-erase4 \$0-bar empty 17 7 0 10 -260097
-258113 -1;
#X obj 209 163 bng 8 250 50 0 \$0-erase5 \$0-bar empty 17 7 0 10 -260097
-258113 -1;
#X obj 238 133 tgl 10 0 \$0-overdub \$0-overdubReturn D 2 5 0 10 -257985
-1 -260097 0 1;
#X obj 111 184 hsl 135 8 0 20000 0 0 \$0-foo \$0-limit empty -2 -8
0 10 -128992 -258113 -1 0 1;
#X obj 841 276 s \$0-limit;
#X obj 111 179 hsl 135 8 0 1 0 0 \$0-foo \$0-sliderPosition empty -2
-8 0 10 -128992 -257985 -1 0 1;
#X obj 52 206 catch~ \$0-out;
#X obj 36 280 outlet~ audioOut;
#X obj 38 35 inlet~ audioIn;
#X obj 223 138 tgl 10 0 \$0-skip \$0-skipReturn S 2 5 0 10 -257985
-1 -260097 0 1;
#X floatatom 879 253 5 0 0 0 - - -, f 5;
#X obj 842 302 s \$0-metro;
#X obj 689 445 *~ 882000;
#N canvas 333 103 1000 498 audio_recorder 0;
#X obj 224 328 tabwrite~ \$0-loop2;
#X obj 80 328 tabwrite~ \$0-loop1;
#X obj 366 328 tabwrite~ \$0-loop3;
#X obj 504 328 tabwrite~ \$0-loop4;
#X obj 641 328 tabwrite~ \$0-loop5;
#X obj 82 25 inlet~ audioIn;
#X obj 571 19 inlet radio;
#X msg 281 74 stop;
#X obj 90 305 spigot;
#X obj 129 280 &&;
#X obj 147 249 t b f;
#X obj 216 19 inlet bang;
#X obj 223 299 spigot;
#X obj 262 274 &&;
#X obj 280 243 t b f;
#X obj 367 303 spigot;
#X obj 406 278 &&;
#X obj 424 247 t b f;
#X obj 506 305 spigot;
#X obj 545 280 &&;
#X obj 563 249 t b f;
#X obj 642 304 spigot;
#X obj 681 279 &&;
#X obj 699 248 t b f;
#X obj 699 223 == 4;
#X obj 563 224 == 3;
#X obj 424 222 == 2;
#X obj 280 218 == 1;
#X obj 147 224 == 0;
#X obj 237 45 t b b;
#X obj 455 15 inlet enable;
#X msg 236 75 bang;
#X connect 5 0 1 0;
#X connect 5 0 0 0;
#X connect 5 0 2 0;
#X connect 5 0 3 0;
#X connect 5 0 4 0;
#X connect 6 0 24 0;
#X connect 6 0 25 0;
#X connect 6 0 26 0;
#X connect 6 0 27 0;
#X connect 6 0 28 0;
#X connect 7 0 1 0;
#X connect 7 0 0 0;
#X connect 7 0 2 0;
#X connect 7 0 3 0;
#X connect 7 0 4 0;
#X connect 8 0 1 0;
#X connect 9 0 8 1;
#X connect 10 0 9 0;
#X connect 10 1 9 1;
#X connect 11 0 29 0;
#X connect 12 0 0 0;
#X connect 13 0 12 1;
#X connect 14 0 13 0;
#X connect 14 1 13 1;
#X connect 15 0 2 0;
#X connect 16 0 15 1;
#X connect 17 0 16 0;
#X connect 17 1 16 1;
#X connect 18 0 3 0;
#X connect 19 0 18 1;
#X connect 20 0 19 0;
#X connect 20 1 19 1;
#X connect 21 0 4 0;
#X connect 22 0 21 1;
#X connect 23 0 22 0;
#X connect 23 1 22 1;
#X connect 24 0 23 0;
#X connect 25 0 20 0;
#X connect 26 0 17 0;
#X connect 27 0 14 0;
#X connect 28 0 10 0;
#X connect 29 0 31 0;
#X connect 29 1 7 0;
#X connect 30 0 9 0;
#X connect 30 0 13 0;
#X connect 30 0 16 0;
#X connect 30 0 19 0;
#X connect 30 0 22 0;
#X connect 31 0 8 0;
#X connect 31 0 12 0;
#X connect 31 0 15 0;
#X connect 31 0 18 0;
#X connect 31 0 21 0;
#X restore 156 533 pd audio_recorder;
#X obj 272 499 r \$0-radioSend;
#X obj 214 279 r \$0-metro;
#X obj 309 394 r \$0-greenSend;
#X obj 322 249 r \$0-overdub;
#X obj 348 300 == 0;
#X obj 309 326 spigot;
#X msg 309 347 0;
#X obj 309 368 s \$0-greenReturn;
#X obj 689 320 phasor~, f 15;
#X obj 689 298 * 0.05;
#X obj 830 251 max 1;
#X obj 837 115 r \$0-skip;
#X msg 759 202 1;
#X obj 623 214 s \$0-redReturn;
#X obj 760 261 bng 15 250 50 0 empty empty empty 17 7 0 10 -262144
-1 -1;
#X obj 44 61 s~ \$0-in;
#X obj 155 469 r~ \$0-in;
#X obj 53 232 hip~ 5;
#X obj 53 253 lop~ 18000;
#X obj 1076 535 outlet clk;
#X obj 529 413 sel 1;
#X obj 609 473 del;
#X obj 515 568 outlet start;
#X obj 625 566 outlet stop;
#X obj 789 248 == 0;
#X obj 459 492 f \$0;
#X msg 412 543 set \$1;
#X msg 412 569;
#X connect 5 0 7 0;
#X connect 6 0 5 0;
#X connect 8 0 60 1;
#X connect 9 0 10 0;
#X connect 10 0 11 0;
#X connect 10 0 62 0;
#X connect 11 0 10 1;
#X connect 12 0 8 0;
#X connect 12 0 49 0;
#X connect 12 0 71 0;
#X connect 13 0 9 0;
#X connect 14 0 15 0;
#X connect 14 0 64 0;
#X connect 15 0 10 0;
#X connect 16 0 6 0;
#X connect 20 0 61 0;
#X connect 20 0 8 0;
#X connect 20 0 66 0;
#X connect 20 0 72 0;
#X connect 44 0 69 0;
#X connect 46 0 45 0;
#X connect 46 0 67 0;
#X connect 48 0 73 1;
#X connect 50 0 17 0;
#X connect 52 0 51 3;
#X connect 53 0 51 1;
#X connect 53 0 57 0;
#X connect 54 0 51 2;
#X connect 55 0 56 0;
#X connect 56 0 57 1;
#X connect 57 0 58 0;
#X connect 58 0 59 0;
#X connect 60 0 5 0;
#X connect 60 0 50 0;
#X connect 61 0 60 0;
#X connect 62 0 12 1;
#X connect 62 0 42 0;
#X connect 62 0 48 0;
#X connect 63 0 13 0;
#X connect 63 0 14 0;
#X connect 63 0 76 0;
#X connect 64 0 65 0;
#X connect 66 0 12 0;
#X connect 68 0 51 0;
#X connect 69 0 70 0;
#X connect 70 0 45 0;
#X connect 72 0 73 0;
#X connect 72 0 74 0;
#X connect 72 0 77 0;
#X connect 73 0 75 0;
#X connect 76 0 12 0;
#X connect 77 0 78 0;
#X connect 77 0 74 0;
#X connect 78 0 79 0;
#X coords 0 -1 1 1 156 100 1 100 100;
