#N canvas 54 50 1304 726 10;
#N canvas 224 233 450 250 (subpatch) 0;
#X array \$0-loop1 882000 float 2;
#X coords 0 1 882000 -1 200 30 1 0 0;
#X restore 1032 40 graph;
#N canvas 0 50 450 250 (subpatch) 0;
#X array \$0-loop2 882000 float 2;
#X coords 0 1 882000 -1 200 30 1 0 0;
#X restore 1032 93 graph;
#N canvas 0 50 450 250 (subpatch) 0;
#X array \$0-loop3 882000 float 2;
#X coords 0 1 882000 -1 200 30 1 0 0;
#X restore 1032 145 graph;
#N canvas 0 50 450 250 (subpatch) 0;
#X array \$0-loop4 882000 float 2;
#X coords 0 1 882000 -1 200 30 1 0 0;
#X restore 1032 198 graph;
#N canvas 0 50 450 250 (subpatch) 0;
#X array \$0-loop5 882000 float 2;
#X coords 0 1 882000 -1 200 30 1 0 0;
#X restore 1032 250 graph;
#X obj 705 384 snapshot~;
#X obj 705 361 metro 50;
#X obj 705 406 s \$0-sliderPosition;
#X msg 791 288 0;
#X obj 274 670 tabwrite~ \$0-loop1;
#X msg 370 635 stop;
#X obj 848 203 metro 1;
#X obj 830 228 i;
#X obj 864 228 + 1;
#X obj 791 250 metro, f 6;
#X obj 848 182 == 1;
#X obj 791 228 == 0;
#X obj 806 182 sel 1;
#X msg 806 203 0;
#X obj 705 338 loadbang;
#X obj 830 64 sel 1;
#X msg 830 85 1;
#X obj 101 59 s~ audioIn;
#X obj 107 453 r~ audioIn;
#X obj 689 462 s~ \$0-clk;
#N canvas 130 122 890 417 loadbang 0;
#X obj 116 38 loadbang;
#X msg 56 98 1;
#X obj 56 124 s \$0-vol1_R;
#X obj 56 145 s \$0-vol2_R;
#X obj 56 166 s \$0-vol3_R;
#X obj 56 187 s \$0-vol4_R;
#X obj 56 208 s \$0-vol5_R;
#X obj 320 25 r \$0-foo;
#X obj 320 46 s \$0-bar;
#X msg 176 83 0;
#X obj 176 107 s \$0-overdubReturn;
#X msg 404 144 \; \$1-loop1 const 0;
#X obj 404 99 r \$0-erase1;
#X obj 404 122 f \$0;
#X obj 538 124 f \$0;
#X obj 538 101 r \$0-erase2;
#X msg 538 146 \; \$1-loop2 const 0;
#X obj 405 228 f \$0;
#X obj 405 205 r \$0-erase3;
#X msg 405 250 \; \$1-loop3 const 0;
#X obj 555 229 f \$0;
#X obj 555 206 r \$0-erase4;
#X msg 555 251 \; \$1-loop4 const 0;
#X obj 693 166 f \$0;
#X obj 693 143 r \$0-erase5;
#X msg 693 188 \; \$1-loop5 const 0;
#X obj 175 133 s \$0-redReturn;
#X obj 174 168 s \$0-radioReturn;
#X obj 175 197 s \$0-skipReturn;
#X connect 0 0 1 0;
#X connect 0 0 9 0;
#X connect 1 0 2 0;
#X connect 1 0 3 0;
#X connect 1 0 4 0;
#X connect 1 0 5 0;
#X connect 1 0 6 0;
#X connect 9 0 10 0;
#X connect 9 0 26 0;
#X connect 9 0 27 0;
#X connect 9 0 28 0;
#X connect 12 0 13 0;
#X connect 13 0 11 0;
#X connect 14 0 16 0;
#X connect 15 0 14 0;
#X connect 17 0 19 0;
#X connect 18 0 17 0;
#X connect 20 0 22 0;
#X connect 21 0 20 0;
#X connect 23 0 25 0;
#X connect 24 0 23 0;
#X restore 1033 304 pd loadbang;
#N canvas 262 251 789 300 audio_reader 0;
#X obj 28 60 tabread4~ \$0-loop1;
#X obj 28 169 *~ 1;
#X obj 53 83 r \$0-vol1;
#X msg 63 147 0, f 1;
#X obj 63 126 sel 0 1;
#X obj 86 147 bng 15 250 50 0 empty empty empty 17 7 0 10 -262144 -1
-1;
#X obj 86 165 s \$0-vol1_R;
#X obj 63 106 r \$0-active1;
#X obj 28 38 r~ \$0-clk;
#X obj 179 169 *~ 1;
#X msg 214 147 0, f 1;
#X obj 214 126 sel 0 1;
#X obj 237 147 bng 15 250 50 0 empty empty empty 17 7 0 10 -262144
-1 -1;
#X obj 179 38 r~ \$0-clk;
#X obj 179 60 tabread4~ \$0-loop2;
#X obj 204 83 r \$0-vol2;
#X obj 214 106 r \$0-active2;
#X obj 237 165 s \$0-vol2_R;
#X obj 28 197 throw~ \$0-out;
#X obj 179 197 throw~ \$0-out;
#X obj 325 169 *~ 1;
#X msg 360 147 0, f 1;
#X obj 360 126 sel 0 1;
#X obj 383 147 bng 15 250 50 0 empty empty empty 17 7 0 10 -262144
-1 -1;
#X obj 325 38 r~ \$0-clk;
#X obj 325 197 throw~ \$0-out;
#X obj 325 60 tabread4~ \$0-loop3;
#X obj 350 83 r \$0-vol3;
#X obj 360 106 r \$0-active3;
#X obj 383 165 s \$0-vol3_R;
#X obj 476 169 *~ 1;
#X msg 511 147 0, f 1;
#X obj 511 126 sel 0 1;
#X obj 534 147 bng 15 250 50 0 empty empty empty 17 7 0 10 -262144
-1 -1;
#X obj 476 38 r~ \$0-clk;
#X obj 476 197 throw~ \$0-out;
#X obj 622 169 *~ 1;
#X msg 657 147 0, f 1;
#X obj 657 126 sel 0 1;
#X obj 680 147 bng 15 250 50 0 empty empty empty 17 7 0 10 -262144
-1 -1;
#X obj 622 38 r~ \$0-clk;
#X obj 622 197 throw~ \$0-out;
#X obj 476 60 tabread4~ \$0-loop4;
#X obj 501 83 r \$0-vol4;
#X obj 511 106 r \$0-active4;
#X obj 534 165 s \$0-vol4_R;
#X obj 622 60 tabread4~ \$0-loop5;
#X obj 647 83 r \$0-vol5;
#X obj 657 106 r \$0-active5;
#X obj 680 165 s \$0-vol5_R;
#X connect 0 0 1 0;
#X connect 1 0 18 0;
#X connect 2 0 1 1;
#X connect 3 0 1 1;
#X connect 4 0 3 0;
#X connect 4 1 5 0;
#X connect 5 0 6 0;
#X connect 7 0 4 0;
#X connect 8 0 0 0;
#X connect 9 0 19 0;
#X connect 10 0 9 1;
#X connect 11 0 10 0;
#X connect 11 1 12 0;
#X connect 12 0 17 0;
#X connect 13 0 14 0;
#X connect 14 0 9 0;
#X connect 15 0 9 1;
#X connect 16 0 11 0;
#X connect 20 0 25 0;
#X connect 21 0 20 1;
#X connect 22 0 21 0;
#X connect 22 1 23 0;
#X connect 23 0 29 0;
#X connect 24 0 26 0;
#X connect 26 0 20 0;
#X connect 27 0 20 1;
#X connect 28 0 22 0;
#X connect 30 0 35 0;
#X connect 31 0 30 1;
#X connect 32 0 31 0;
#X connect 32 1 33 0;
#X connect 33 0 45 0;
#X connect 34 0 42 0;
#X connect 36 0 41 0;
#X connect 37 0 36 1;
#X connect 38 0 37 0;
#X connect 38 1 39 0;
#X connect 39 0 49 0;
#X connect 40 0 46 0;
#X connect 42 0 30 0;
#X connect 43 0 30 1;
#X connect 44 0 32 0;
#X connect 46 0 36 0;
#X connect 47 0 36 1;
#X connect 48 0 38 0;
#X restore 1033 331 pd audio_reader;
#X obj 791 41 r \$0-greenSend;
#X obj 689 250 r \$0-redSend;
#X obj 830 106 s \$0-redReturn;
#X obj 101 101 cnv 15 154 98 empty empty empty 20 12 0 14 -191407 -66577
0;
#X obj 223 108 tgl 25 0 \$0-greenSend \$0-bar empty 17 7 0 10 -4034
-1 -1 0 1;
#X obj 223 148 tgl 25 0 \$0-redSend \$0-redReturn empty 17 7 0 10 -258113
-262144 -1 1 1;
#X obj 108 110 vsl 10 50 0 2 0 0 \$0-vol1 \$0-vol1_R 1 3 45 0 10 -128992
-257985 -228856 2450 1;
#X obj 108 166 tgl 10 0 \$0-active1 \$0-bar empty 17 7 0 10 -128992
-257985 -1 1 1;
#X obj 125 110 vsl 10 50 0 2 0 0 \$0-vol2 \$0-vol2_R 2 3 45 0 10 -128992
-257985 -228856 2450 1;
#X obj 125 166 tgl 10 0 \$0-active2 \$0-bar empty 17 7 0 10 -128992
-257985 -1 1 1;
#X obj 142 110 vsl 10 50 0 2 0 0 \$0-vol3 \$0-vol3_R 3 3 45 0 10 -128992
-257985 -228856 2450 1;
#X obj 142 166 tgl 10 0 \$0-active3 \$0-bar empty 17 7 0 10 -128992
-257985 -1 1 1;
#X obj 159 110 vsl 10 50 0 2 0 0 \$0-vol4 \$0-vol4_R 4 3 45 0 10 -128992
-257985 -228856 2450 1;
#X obj 159 166 tgl 10 0 \$0-active4 \$0-bar empty 17 7 0 10 -128992
-257985 -1 1 1;
#X obj 177 110 vsl 10 50 0 2 0 0 \$0-vol5 \$0-vol5_R 5 3 45 0 10 -128992
-257985 -228856 2450 1;
#X obj 177 166 tgl 10 0 \$0-active5 \$0-bar empty 17 7 0 10 -128992
-257985 -1 1 1;
#X obj 193 108 vradio 13 1 0 5 \$0-radioSend \$0-radioReturn empty
0 -8 0 10 -128992 -257985 -1 1;
#X obj 791 148 spigot;
#X obj 209 111 bng 8 250 50 0 \$0-erase1 \$0-bar empty 17 7 0 10 -260097
-258113 -1;
#X obj 209 124 bng 8 250 50 0 \$0-erase2 \$0-bar empty 17 7 0 10 -260097
-258113 -1;
#X obj 209 137 bng 8 250 50 0 \$0-erase3 \$0-bar empty 17 7 0 10 -260097
-258113 -1;
#X obj 209 150 bng 8 250 50 0 \$0-erase4 \$0-bar empty 17 7 0 10 -260097
-258113 -1;
#X obj 209 163 bng 8 250 50 0 \$0-erase5 \$0-bar empty 17 7 0 10 -260097
-258113 -1;
#X obj 238 133 tgl 10 0 \$0-overdub \$0-overdubReturn D 2 5 0 10 -257985
-1 -260097 0 1;
#X obj 858 128 r \$0-overdub;
#X obj 111 184 hsl 135 8 0 20000 0 0 \$0-foo \$0-limit empty -2 -8
0 10 -128992 -258113 -1 2129 1;
#X obj 842 250 s \$0-limit;
#X obj 111 179 hsl 135 8 0 1 0 0 \$0-foo \$0-sliderPosition empty -2
-8 0 10 -128992 -257985 -1 1500 1;
#X obj 98 221 catch~ \$0-out;
#X obj 99 246 outlet~ audioOut;
#X obj 101 36 inlet~ audioIn;
#X obj 523 39 r \$0-radioSend;
#X obj 223 133 tgl 10 0 \$0-skip \$0-skipReturn S 2 5 0 10 -257985
-1 -260097 0 1;
#X obj 653 39 r \$0-skip;
#X obj 523 145 i;
#X obj 557 145 + 1;
#X floatatom 552 241 5 0 0 0 - - -, f 5;
#X obj 573 114 spigot;
#X obj 653 97 == 1;
#X obj 536 215 s \$0-radioReturn;
#X obj 523 239 + 1;
#X obj 523 114 spigot;
#X obj 562 68 == 0;
#X obj 536 194 spigot;
#X obj 555 509 r \$0-greenSend;
#X obj 292 460 pack;
#X obj 317 441 f \$0;
#X obj 317 419 loadbang;
#X msg 292 483 set \$2-loop\$1;
#X obj 382 421 bng 15 250 50 0 empty empty empty 17 7 0 10 -262144
-1 -1;
#X floatatom 896 229 5 0 0 0 - - -, f 5;
#X obj 858 151 == 0;
#X obj 515 607 spigot;
#X obj 599 534 r \$0-overdub;
#X msg 294 623 bang;
#X obj 523 260 s \$0-loopNum;
#X obj 292 384 r \$0-loopNum;
#X obj 843 276 s \$0-metro;
#X obj 515 475 r \$0-metro;
#X obj 573 92 r \$0-metro;
#X obj 641 183 r \$0-overdub;
#X obj 688 217 bng 15 250 50 0 empty empty empty 17 7 0 10 -262144
-1 -1;
#X obj 337 593 t b b;
#X obj 523 167 mod 5;
#X obj 575 585 &&;
#X obj 591 560 t b f;
#X obj 379 546 sel 1 0;
#X obj 689 435 *~ 882000;
#X obj 689 310 phasor~ 0.05, f 15;
#X obj 689 288 * 0.05;
#X connect 5 0 7 0;
#X connect 6 0 5 0;
#X connect 8 0 95 1;
#X connect 10 0 9 0;
#X connect 11 0 12 0;
#X connect 12 0 13 0;
#X connect 12 0 14 1;
#X connect 12 0 53 0;
#X connect 12 0 77 0;
#X connect 13 0 12 1;
#X connect 14 0 8 0;
#X connect 14 0 84 0;
#X connect 15 0 11 0;
#X connect 16 0 14 0;
#X connect 17 0 18 0;
#X connect 18 0 12 0;
#X connect 19 0 6 0;
#X connect 20 0 21 0;
#X connect 21 0 29 0;
#X connect 23 0 9 0;
#X connect 27 0 20 0;
#X connect 27 0 44 0;
#X connect 28 0 8 0;
#X connect 28 0 96 0;
#X connect 28 0 14 0;
#X connect 44 0 17 0;
#X connect 44 0 15 0;
#X connect 44 0 16 0;
#X connect 51 0 78 0;
#X connect 55 0 56 0;
#X connect 57 0 22 0;
#X connect 57 0 56 0;
#X connect 58 0 68 0;
#X connect 60 0 65 0;
#X connect 60 0 69 0;
#X connect 61 0 62 0;
#X connect 61 0 90 0;
#X connect 62 0 61 1;
#X connect 64 0 61 0;
#X connect 65 0 64 1;
#X connect 65 0 70 1;
#X connect 67 0 63 0;
#X connect 67 0 82 0;
#X connect 68 0 61 0;
#X connect 69 0 68 1;
#X connect 70 0 66 0;
#X connect 71 0 91 0;
#X connect 71 0 93 0;
#X connect 72 0 75 0;
#X connect 73 0 72 1;
#X connect 74 0 73 0;
#X connect 75 0 9 0;
#X connect 76 0 73 0;
#X connect 78 0 44 1;
#X connect 79 0 89 0;
#X connect 80 0 92 0;
#X connect 81 0 9 0;
#X connect 83 0 72 0;
#X connect 85 0 79 0;
#X connect 86 0 64 0;
#X connect 87 0 88 0;
#X connect 88 0 66 0;
#X connect 89 0 81 0;
#X connect 89 1 10 0;
#X connect 90 0 67 0;
#X connect 90 0 70 0;
#X connect 91 0 79 1;
#X connect 92 0 91 0;
#X connect 92 1 91 1;
#X connect 93 0 89 0;
#X connect 93 1 10 0;
#X connect 94 0 24 0;
#X connect 95 0 5 0;
#X connect 95 0 94 0;
#X connect 96 0 95 0;
#X coords 0 -1 1 1 156 100 1 100 100;
