#N canvas 169 127 899 742 10;
#X obj 101 102 cnv 15 48 146 empty empty empty 20 12 0 14 -233017 -66577
0;
#X obj 190 85 inlet~;
#X obj 189 352 outlet~;
#X obj 209 203 wrap~;
#X obj 190 222 -~;
#X obj 190 146 *~ 127;
#X obj 204 257 /~ 127;
#X obj 103 120 nbx 4 14 0 1e+037 0 0 \$0-quant1 \$0-bar empty 0 -8
0 10 -99865 -262144 -1 2 256;
#X obj 118 179 tgl 15 0 \$0-norm1 \$0-bar empty 17 7 0 10 -99865 -262144
-1 1 1;
#X obj 101 102 cnv 10 48 10 empty empty IN1_IN2_IN3 3 6 0 5 -233017
-66577 0;
#X obj 101 238 cnv 10 48 10 empty empty OT1_OT2_OT3 3 6 0 5 -233017
-66577 0;
#X obj 103 137 nbx 4 14 0 1e+037 0 0 \$0-quant2 \$0-bar empty 0 -8
0 10 -99865 -262144 -1 127 256;
#X obj 103 154 nbx 4 14 0 1e+037 0 0 \$0-quant3 \$0-bar empty 0 -8
0 10 -99865 -262144 -1 127 256;
#X obj 118 197 tgl 15 0 \$0-norm2 \$0-bar empty 17 7 0 10 -99865 -262144
-1 1 1;
#X obj 118 215 tgl 15 0 \$0-norm3 \$0-bar empty 17 7 0 10 -99865 -262144
-1 1 1;
#X obj 189 318 *~;
#X obj 226 318 *~;
#X obj 207 288 == 0;
#X obj 353 82 inlet~;
#X obj 352 349 outlet~;
#X obj 372 200 wrap~;
#X obj 353 219 -~;
#X obj 353 143 *~ 127;
#X obj 367 254 /~ 127;
#X obj 352 315 *~;
#X obj 389 315 *~;
#X obj 370 285 == 0;
#X obj 518 79 inlet~;
#X obj 517 346 outlet~;
#X obj 537 197 wrap~;
#X obj 518 216 -~;
#X obj 518 140 *~ 127;
#X obj 532 251 /~ 127;
#X obj 517 312 *~;
#X obj 554 312 *~;
#X obj 535 282 == 0;
#X obj 256 118 r \$0-quant1;
#X obj 264 243 r \$0-norm1;
#X obj 419 115 r \$0-quant2;
#X obj 427 240 r \$0-norm2;
#X obj 584 112 r \$0-quant3;
#X obj 592 237 r \$0-norm3;
#X obj 51 32 loadbang;
#X msg 99 53 127;
#X msg 51 120 1;
#X obj 189 175 +~ 0.5;
#X obj 352 172 +~ 0.5;
#X obj 517 169 +~ 0.5;
#X connect 1 0 5 0;
#X connect 3 0 4 1;
#X connect 4 0 6 0;
#X connect 4 0 15 0;
#X connect 5 0 45 0;
#X connect 6 0 16 0;
#X connect 15 0 2 0;
#X connect 16 0 2 0;
#X connect 17 0 15 1;
#X connect 18 0 22 0;
#X connect 20 0 21 1;
#X connect 21 0 23 0;
#X connect 21 0 24 0;
#X connect 22 0 46 0;
#X connect 23 0 25 0;
#X connect 24 0 19 0;
#X connect 25 0 19 0;
#X connect 26 0 24 1;
#X connect 27 0 31 0;
#X connect 29 0 30 1;
#X connect 30 0 32 0;
#X connect 30 0 33 0;
#X connect 31 0 47 0;
#X connect 32 0 34 0;
#X connect 33 0 28 0;
#X connect 34 0 28 0;
#X connect 35 0 33 1;
#X connect 36 0 5 1;
#X connect 36 0 6 1;
#X connect 37 0 16 1;
#X connect 37 0 17 0;
#X connect 38 0 22 1;
#X connect 38 0 23 1;
#X connect 39 0 25 1;
#X connect 39 0 26 0;
#X connect 40 0 31 1;
#X connect 40 0 32 1;
#X connect 41 0 34 1;
#X connect 41 0 35 0;
#X connect 42 0 43 0;
#X connect 42 0 44 0;
#X connect 43 0 7 0;
#X connect 43 0 11 0;
#X connect 43 0 12 0;
#X connect 44 0 8 0;
#X connect 44 0 13 0;
#X connect 44 0 14 0;
#X connect 45 0 3 0;
#X connect 45 0 4 0;
#X connect 46 0 20 0;
#X connect 46 0 21 0;
#X connect 47 0 29 0;
#X connect 47 0 30 0;
#X coords 0 -1 1 1 50 150 2 100 100;
