#N canvas 396 71 860 710 10;
#X obj 430 67 oscparse;
#X obj 111 36 loadbang;
#X obj 111 59 f \$1;
#X msg 111 107 listen \$1;
#X obj 111 83 expr if($f1==0 \, 8000 \, $f1);
#X obj 430 45 netreceive -u -b;
#X obj 569 125 outlet raw;
#X obj 20 73 sel 0;
#X obj 20 178 print;
#N canvas 126 50 1139 700 linker 0;
#X obj 644 137 route fader1 fader2 fader3 fader4 fader5;
#X obj 363 134 route push1 push2 push3 push4;
#X obj 363 219 s \$1.2.push1;
#X obj 399 202 s \$1.2.push2;
#X obj 436 185 s \$1.2.push3;
#X obj 473 168 s \$1.2.push4;
#X obj 363 244 route push5 push6 push7 push8;
#X obj 363 329 s \$1.2.push5;
#X obj 399 312 s \$1.2.push6;
#X obj 436 295 s \$1.2.push7;
#X obj 473 278 s \$1.2.push8;
#X obj 363 354 route push9 push10 push11 push12;
#X obj 363 439 s \$1.2.push9;
#X obj 404 422 s \$1.2.push10;
#X obj 445 405 s \$1.2.push11;
#X obj 486 388 s \$1.2.push12;
#X obj 462 40 inlet;
#X obj 462 79 route 1 2 3;
#X obj 118 135 route push1 push2 push3 push4;
#X obj 118 245 route push5 push6 push7 push8;
#X obj 118 355 route push9 push10 push11 push12;
#X obj 228 169 s \$1.1.push4;
#X obj 191 186 s \$1.1.push3;
#X obj 154 203 s \$1.1.push2;
#X obj 118 220 s \$1.1.push1;
#X obj 228 279 s \$1.1.push8;
#X obj 191 296 s \$1.1.push7;
#X obj 154 313 s \$1.1.push6;
#X obj 118 330 s \$1.1.push5;
#X obj 241 389 s \$1.1.push12;
#X obj 200 406 s \$1.1.push11;
#X obj 159 423 s \$1.1.push10;
#X obj 118 440 s \$1.1.push9;
#X obj 644 247 s \$1.3.fader1;
#X obj 691 230 s \$1.3.fader2;
#X obj 738 213 s \$1.3.fader3;
#X obj 786 196 s \$1.3.fader4;
#X obj 833 179 s \$1.3.fader5;
#X obj 642 362 s \$1.3.toggle1;
#X obj 696 345 s \$1.3.toggle2;
#X obj 751 328 s \$1.3.toggle3;
#X obj 642 282 route toggle1 toggle2 toggle3;
#X obj 641 399 route push1 push2 push3 push4;
#X obj 641 484 s \$1.3.push1;
#X obj 677 467 s \$1.3.push2;
#X obj 714 450 s \$1.3.push3;
#X obj 751 433 s \$1.3.push4;
#X obj 859 433 route rotary1;
#X obj 859 461 s \$1.3.rotary1;
#X connect 0 0 33 0;
#X connect 0 1 34 0;
#X connect 0 2 35 0;
#X connect 0 3 36 0;
#X connect 0 4 37 0;
#X connect 0 5 41 0;
#X connect 1 0 2 0;
#X connect 1 1 3 0;
#X connect 1 2 4 0;
#X connect 1 3 5 0;
#X connect 1 4 6 0;
#X connect 6 0 7 0;
#X connect 6 1 8 0;
#X connect 6 2 9 0;
#X connect 6 3 10 0;
#X connect 6 4 11 0;
#X connect 11 0 12 0;
#X connect 11 1 13 0;
#X connect 11 2 14 0;
#X connect 11 3 15 0;
#X connect 16 0 17 0;
#X connect 17 0 18 0;
#X connect 17 1 1 0;
#X connect 17 2 0 0;
#X connect 18 0 24 0;
#X connect 18 1 23 0;
#X connect 18 2 22 0;
#X connect 18 3 21 0;
#X connect 18 4 19 0;
#X connect 19 0 28 0;
#X connect 19 1 27 0;
#X connect 19 2 26 0;
#X connect 19 3 25 0;
#X connect 19 4 20 0;
#X connect 20 0 32 0;
#X connect 20 1 31 0;
#X connect 20 2 30 0;
#X connect 20 3 29 0;
#X connect 41 0 38 0;
#X connect 41 1 39 0;
#X connect 41 2 40 0;
#X connect 41 3 42 0;
#X connect 42 0 43 0;
#X connect 42 1 44 0;
#X connect 42 2 45 0;
#X connect 42 3 46 0;
#X connect 42 4 47 0;
#X connect 47 0 48 0;
#X restore 473 370 pd linker;
#X obj 541 230 list fromsymbol;
#X obj 541 253 - 48;
#X obj 471 181 unpack s s f;
#X obj 473 294 pack f s f;
#X obj 468 249 f \$1;
#X obj 468 228 del 1;
#X obj 155 379 outlet;
#N canvas 359 148 675 519 packer 0;
#X obj 208 103 r \$1.1.push4;
#X obj 171 86 r \$1.1.push3;
#X obj 134 69 r \$1.1.push2;
#X obj 97 52 r \$1.1.push1;
#X obj 208 213 r \$1.1.push8;
#X obj 171 196 r \$1.1.push7;
#X obj 134 179 r \$1.1.push6;
#X obj 97 162 r \$1.1.push5;
#X obj 221 323 r \$1.1.push12;
#X obj 180 306 r \$1.1.push11;
#X obj 139 289 r \$1.1.push10;
#X obj 98 272 r \$1.1.push9;
#X obj 453 102 r \$1.2.push4;
#X obj 416 85 r \$1.2.push3;
#X obj 379 68 r \$1.2.push2;
#X obj 342 51 r \$1.2.push1;
#X obj 453 212 r \$1.2.push8;
#X obj 416 195 r \$1.2.push7;
#X obj 379 178 r \$1.2.push6;
#X obj 342 161 r \$1.2.push5;
#X obj 466 322 r \$1.2.push12;
#X obj 425 305 r \$1.2.push11;
#X obj 384 288 r \$1.2.push10;
#X obj 343 271 r \$1.2.push9;
#X msg 97 124 1 \$1;
#X msg 134 124 2 \$1;
#X msg 171 124 3 \$1;
#X msg 208 124 4 \$1;
#X msg 97 239 5 \$1;
#X msg 134 239 6 \$1;
#X msg 171 239 7 \$1;
#X msg 208 239 8 \$1;
#X msg 98 354 9 \$1;
#X msg 139 354 10 \$1;
#X msg 180 354 11 \$1;
#X msg 221 354 12 \$1;
#X msg 342 125 13 \$1;
#X msg 379 125 14 \$1;
#X msg 416 125 15 \$1;
#X msg 453 125 16 \$1;
#X msg 342 240 17 \$1;
#X msg 379 240 18 \$1;
#X msg 416 240 19 \$1;
#X msg 453 240 20 \$1;
#X msg 343 355 21 \$1;
#X msg 384 355 22 \$1;
#X msg 425 355 23 \$1;
#X msg 466 355 24 \$1;
#X obj 290 465 outlet;
#X connect 0 0 27 0;
#X connect 1 0 26 0;
#X connect 2 0 25 0;
#X connect 3 0 24 0;
#X connect 4 0 31 0;
#X connect 5 0 30 0;
#X connect 6 0 29 0;
#X connect 7 0 28 0;
#X connect 8 0 35 0;
#X connect 9 0 34 0;
#X connect 10 0 33 0;
#X connect 11 0 32 0;
#X connect 12 0 39 0;
#X connect 13 0 38 0;
#X connect 14 0 37 0;
#X connect 15 0 36 0;
#X connect 16 0 43 0;
#X connect 17 0 42 0;
#X connect 18 0 41 0;
#X connect 19 0 40 0;
#X connect 20 0 47 0;
#X connect 21 0 46 0;
#X connect 22 0 45 0;
#X connect 23 0 44 0;
#X connect 24 0 48 0;
#X connect 25 0 48 0;
#X connect 26 0 48 0;
#X connect 27 0 48 0;
#X connect 28 0 48 0;
#X connect 29 0 48 0;
#X connect 30 0 48 0;
#X connect 31 0 48 0;
#X connect 32 0 48 0;
#X connect 33 0 48 0;
#X connect 34 0 48 0;
#X connect 35 0 48 0;
#X connect 36 0 48 0;
#X connect 37 0 48 0;
#X connect 38 0 48 0;
#X connect 39 0 48 0;
#X connect 40 0 48 0;
#X connect 41 0 48 0;
#X connect 42 0 48 0;
#X connect 43 0 48 0;
#X connect 44 0 48 0;
#X connect 45 0 48 0;
#X connect 46 0 48 0;
#X connect 47 0 48 0;
#X restore 155 338 pd packer;
#X msg 21 142 WARNING: argument (UDP PORT) missing: set to 8000 but
OSC s/r link won't work (you can use 0 as code for receivers);
#X msg 473 320 set \$3 \$2 \$1;
#X obj 473 346 route set;
#X connect 0 0 6 0;
#X connect 0 0 12 0;
#X connect 1 0 2 0;
#X connect 2 0 4 0;
#X connect 2 0 7 0;
#X connect 3 0 5 0;
#X connect 4 0 3 0;
#X connect 5 0 0 0;
#X connect 7 0 18 0;
#X connect 10 0 11 0;
#X connect 11 0 13 2;
#X connect 12 0 10 0;
#X connect 12 1 13 1;
#X connect 12 2 15 0;
#X connect 12 2 14 1;
#X connect 13 0 19 0;
#X connect 14 0 13 0;
#X connect 15 0 14 0;
#X connect 17 0 16 0;
#X connect 18 0 8 0;
#X connect 19 0 20 0;
#X connect 20 0 9 0;
