#N canvas 465 50 860 710 10;
#X obj 430 67 oscparse;
#X obj 230 226 list fromsymbol;
#X obj 230 249 - 48;
#X obj 111 36 loadbang;
#X obj 111 59 f \$1;
#X msg 111 107 listen \$1;
#X obj 111 83 expr if($f1==0 \, 8000 \, $f1);
#X obj 430 45 netreceive -u -b;
#X obj 383 375 outlet raw;
#X obj 60 348 route set;
#X obj 60 376 outlet;
#X obj 241 381 outlet;
#X obj 133 175 unpack s s f;
#X obj 135 274 pack f s f;
#X obj 133 249 f \$1;
#X msg 135 297 set \$3 \$2 \$1;
#X obj 133 228 del 1;
#X connect 0 0 8 0;
#X connect 0 0 12 0;
#X connect 1 0 2 0;
#X connect 2 0 13 2;
#X connect 3 0 4 0;
#X connect 4 0 6 0;
#X connect 5 0 7 0;
#X connect 6 0 5 0;
#X connect 7 0 0 0;
#X connect 9 0 10 0;
#X connect 12 0 1 0;
#X connect 12 1 13 1;
#X connect 12 2 16 0;
#X connect 12 2 14 1;
#X connect 13 0 15 0;
#X connect 14 0 13 0;
#X connect 15 0 11 0;
#X connect 15 0 9 0;
#X connect 16 0 14 0;
