#N canvas -8 -8 1366 726 12;
#N canvas 0 50 450 250 (subpatch) 0;
#X array OUTPUT_PLOT 2048 float 0;
#X coords 0 0.5 2047 -0.5 400 100 1 0 0;
#X restore 873 84 graph;
#N canvas 0 50 450 250 (subpatch) 0;
#X array INPUT_PLOT 2048 float 0;
#X coords 0 0.5 2047 -0.5 400 100 1 0 0;
#X restore 873 207 graph;
#N canvas 0 50 450 250 (subpatch) 0;
#X array DIFFERENCE_PLOT 2048 float 0;
#X coords 0 0.5 2047 -0.5 400 100 1 0 0;
#X restore 873 330 graph;
#X obj 873 24 tgl 30 0 TIMER_SWITCH empty PLOT 35 15 0 20 -4034 -1
-1 1 1;
#X obj 536 187 r~ INPUT_SIGNAL;
#N canvas 692 154 442 413 VU_METERS 0;
#X obj 34 72 env~;
#X obj 208 82 env~;
#X obj 114 168 vu 15 120 empty OUT -1 -8 0 10 -66577 -1 1 0;
#X obj 161 168 vu 15 120 empty IN -1 -8 0 10 -66577 -1 0 0;
#X obj 34 104 - 100;
#X obj 208 114 - 100;
#X obj 112 137 nbx 5 14 -100 100 0 0 empty empty SHIFT 0 -8 0 10 -262144
-1 -1 0 256;
#X obj 34 137 +;
#X obj 208 148 +;
#X obj 35 39 r~ OUTPUT_SIGNAL;
#X obj 208 40 r~ INPUT_SIGNAL;
#X connect 0 0 4 0;
#X connect 1 0 5 0;
#X connect 4 0 7 0;
#X connect 5 0 8 0;
#X connect 6 0 7 1;
#X connect 6 0 8 1;
#X connect 7 0 2 0;
#X connect 8 0 3 0;
#X connect 9 0 0 0;
#X connect 10 0 1 0;
#X coords 0 -1 1 1 90 200 1 100 100;
#X restore 52 340 pd VU_METERS;
#X obj 292 645 throw~ OUTPUT_BUS;
#N canvas 735 158 402 502 LINK_MANAGEMENT 0;
#X obj 188 45 r TIMER;
#X obj 40 134 r TIMER;
#X obj 210 162 r TIMER;
#X obj 22 179 tabwrite~ OUTPUT_PLOT;
#X obj 173 77 tabwrite~ INPUT_PLOT;
#X obj 192 190 tabwrite~ DIFFERENCE_PLOT;
#X obj 192 138 -~;
#X obj 29 405 dac~ 1;
#X obj 30 323 adc~ 1;
#X obj 29 261 metro 100;
#X obj 29 287 s TIMER;
#X obj 29 235 r TIMER_SWITCH;
#X obj 22 25 r~ OUTPUT_SIGNAL;
#X obj 174 21 r~ INPUT_SIGNAL;
#X obj 30 351 s~ INPUT_SIGNAL;
#X obj 30 377 r~ OUTPUT_SIGNAL;
#X obj 22 106 delread~ LAG;
#X obj 22 80 r LAG_COMPENSATION;
#X obj 22 53 delwrite~ LAG 100;
#X obj 245 395 s~ OUTPUT_SIGNAL;
#X obj 245 368 catch~ OUTPUT_BUS;
#X connect 0 0 4 0;
#X connect 1 0 3 0;
#X connect 2 0 5 0;
#X connect 6 0 5 0;
#X connect 8 0 14 0;
#X connect 9 0 10 0;
#X connect 11 0 9 0;
#X connect 12 0 18 0;
#X connect 13 0 4 0;
#X connect 13 0 6 1;
#X connect 15 0 7 0;
#X connect 16 0 3 0;
#X connect 16 0 6 0;
#X connect 17 0 16 0;
#X connect 20 0 19 0;
#X restore 61 86 pd LINK_MANAGEMENT;
#N canvas 689 90 325 431 LAG_TEST 0;
#X obj 59 108 hsl 128 15 1 200 0 0 LAG_COMPENSATION empty LAG_COMPENSATION
-2 -8 0 10 -159808 -262144 -1 2715 1;
#X obj 58 76 tgl 15 0 empty empty RUN 17 7 0 10 -159808 -1 -1 0 1;
#X obj 160 231 mod 2;
#X obj 128 289 *~;
#X obj 160 180 metro 10;
#X obj 160 206 i;
#X obj 191 206 + 1;
#X obj 160 257 * 0.08;
#X obj 53 212 osc~ 200;
#X obj 140 128 change;
#X obj 190 108 nbx 5 15 1 200 0 1 empty empty empty 0 -8 0 10 -159808
-262144 -1 43.5421 256;
#X obj 158 87 nbx 3 15 1 100 0 1 empty empty STUT 0 -8 0 10 -262144
-1 -1 10 256;
#X obj 199 87 nbx 4 15 30 2000 1 1 empty empty FREQ 0 -8 0 10 -262144
-1 -1 200 256;
#X obj 128 329 *~;
#X obj 128 364 throw~ OUTPUT_BUS;
#X connect 0 0 10 0;
#X connect 1 0 4 0;
#X connect 1 0 13 1;
#X connect 2 0 7 0;
#X connect 3 0 13 0;
#X connect 4 0 5 0;
#X connect 5 0 6 0;
#X connect 5 0 2 0;
#X connect 6 0 5 1;
#X connect 7 0 3 1;
#X connect 8 0 3 0;
#X connect 9 0 0 0;
#X connect 10 0 9 0;
#X connect 11 0 4 1;
#X connect 12 0 8 0;
#X connect 13 0 14 0;
#X coords 0 -1 1 1 200 80 1 50 50;
#X restore 52 244 pd LAG_TEST;
#X obj 301 90 recorder~;
#X obj 542 386 recorder~ 10;
#X obj 1012 487 recorder~ 10;
#X obj 520 266 bng 15 250 50 0 empty empty empty 17 7 0 10 -262144
-1 -1;
#X msg 519 323 play;
#X msg 598 319 rec;
#X obj 309 383 recorder~ 10;
#X obj 584 545 recorder~ 10;
#X connect 10 0 6 0;
#X connect 12 0 13 0;
#X connect 12 0 14 0;
#X connect 15 0 6 0;
#X connect 16 0 6 0;
