#N canvas 56 -8 1302 726 10;
#X obj 44 14 inlet bang;
#X obj 44 678 outlet message;
#X msg 44 36 preset.name;
#X obj 59 55 r \$0-DRY;
#X obj 74 74 r \$0-WET;
#X obj 89 93 r \$0-DLY;
#X obj 105 112 r \$0-11;
#X obj 120 131 r \$0-12;
#X obj 135 150 r \$0-13;
#X obj 151 169 r \$0-21;
#X obj 166 188 r \$0-22;
#X obj 181 207 r \$0-23;
#X obj 197 226 r \$0-31;
#X obj 212 245 r \$0-32;
#X obj 227 264 r \$0-33;
#X obj 242 283 r \$0-D1;
#X obj 258 302 r \$0-D2;
#X obj 273 321 r \$0-D3;
#X obj 288 340 r \$0-V1;
#X obj 304 359 r \$0-V2;
#X obj 319 378 r \$0-V3;
#X obj 334 397 r \$0-H1;
#X obj 350 416 r \$0-H2;
#X obj 365 435 r \$0-H3;
#X obj 380 454 r \$0-L1;
#X obj 395 473 r \$0-L2;
#X obj 411 492 r \$0-L3;
#X obj 426 511 r \$0-F1;
#X obj 441 530 r \$0-F2;
#X obj 457 549 r \$0-F3;
#X obj 455 228 r \$0-M1;
#X obj 470 247 r \$0-M2;
#X obj 488 270 r \$0-M3;
#X obj 503 289 r \$0-S1;
#X obj 523 313 r \$0-S2;
#X obj 538 332 r \$0-S3;
#X obj 556 355 r \$0-R1;
#X obj 571 374 r \$0-R2;
#X obj 582 395 r \$0-R3;
#X obj 44 611 pack s f f f f f f f f f f f f f f f f f f f f f f f
f f f f f f f f f f f f f f f f f f f f f, f 94;
#X obj 596 421 r \$0-SW1;
#X obj 616 445 r \$0-SW2;
#X obj 631 464 r \$0-SW3;
#X obj 649 487 r \$0-RP1;
#X obj 664 506 r \$0-RP2;
#X obj 675 527 r \$0-RP3;
#X obj 685 546 r \$0-SW;
#X obj 699 566 r \$0-BYP;
#X msg 44 644 set \$1 \$2 \$3 \$4 \$5 \$6 \$7 \$8 \$9 \$10 \$11 \$12
\$13 \$14 \$15 \$16 \$17 \$18 \$19 \$20 \$21 \$22 \$23 \$24 \$25 \$26
\$27 \$28 \$29 \$30 \$31 \$32 \$33 \$34 \$35 \$36 \$37 \$38 \$39 \$40
\$41 \$42 \$43 \$44 \$45, f 114;
#X connect 0 0 2 0;
#X connect 2 0 39 0;
#X connect 3 0 39 1;
#X connect 4 0 39 2;
#X connect 5 0 39 3;
#X connect 6 0 39 4;
#X connect 7 0 39 5;
#X connect 8 0 39 6;
#X connect 9 0 39 7;
#X connect 10 0 39 8;
#X connect 11 0 39 9;
#X connect 12 0 39 10;
#X connect 13 0 39 11;
#X connect 14 0 39 12;
#X connect 15 0 39 13;
#X connect 16 0 39 14;
#X connect 17 0 39 15;
#X connect 18 0 39 16;
#X connect 19 0 39 17;
#X connect 20 0 39 18;
#X connect 21 0 39 19;
#X connect 22 0 39 20;
#X connect 23 0 39 21;
#X connect 24 0 39 22;
#X connect 25 0 39 23;
#X connect 26 0 39 24;
#X connect 27 0 39 25;
#X connect 28 0 39 26;
#X connect 29 0 39 27;
#X connect 30 0 39 28;
#X connect 31 0 39 29;
#X connect 32 0 39 30;
#X connect 33 0 39 31;
#X connect 34 0 39 32;
#X connect 35 0 39 33;
#X connect 36 0 39 34;
#X connect 37 0 39 35;
#X connect 38 0 39 36;
#X connect 39 0 48 0;
#X connect 40 0 39 37;
#X connect 41 0 39 38;
#X connect 42 0 39 39;
#X connect 43 0 39 40;
#X connect 44 0 39 41;
#X connect 45 0 39 42;
#X connect 46 0 39 43;
#X connect 47 0 39 44;
#X connect 48 0 1 0;
