#N canvas 400 198 572 300 10;
#X obj 131 35 inlet~;
#X obj 287 42 inlet~;
#X obj 26 214 outlet~;
#X obj 139 214 outlet~;
#X obj 368 218 outlet~;
#X obj 368 175 *~ -1;
#X obj 238 213 outlet~;
#X text 31 239 RE(x1);
#X text 246 238 RE(x2);
#X text 143 240 IM(x1);
#X text 371 241 IM(x2);
#X obj 35 33 inlet~;
#X text 182 34 b;
#X text 340 41 c;
#X text 87 30 a;
#X obj 149 74 expr~ $v2*$v2-4*$v1*$v3;
#X obj 36 58 f \$1;
#X obj 36 80 sig~;
#X obj 26 4 loadbang;
#X obj 24 113 expr~ if($v1 >= 0 \, sqrt($v1)/2 \, 0);
#X obj 25 155 expr~ (-$v1+$v2)/($v3*2);
#X obj 146 176 expr~ (-$v1-$v2)/($v3*2);
#X obj 286 139 expr~ if($v1 < 0 \, sqrt(abs($v1))/($v2*2) \, 0);
#X connect 0 0 15 1;
#X connect 0 0 20 0;
#X connect 0 0 21 0;
#X connect 1 0 15 2;
#X connect 5 0 4 0;
#X connect 11 0 15 0;
#X connect 11 0 20 2;
#X connect 11 0 21 2;
#X connect 11 0 22 1;
#X connect 15 0 19 0;
#X connect 15 0 22 0;
#X connect 16 0 17 0;
#X connect 17 0 15 0;
#X connect 17 0 20 2;
#X connect 17 0 21 2;
#X connect 17 0 22 1;
#X connect 18 0 16 0;
#X connect 19 0 20 1;
#X connect 19 0 21 1;
#X connect 20 0 2 0;
#X connect 21 0 6 0;
#X connect 22 0 3 0;
#X connect 22 0 5 0;
