#N canvas 433 196 450 300 10;
#X obj 188 22 inlet;
#X obj 125 238 outlet;
#X obj 288 234 outlet;
#X obj 201 109 random 100;
#X obj 328 56 inlet;
#X obj 358 122 clip 0 100;
#X obj 239 68 value x;
#X obj 134 208 value x;
#X obj 259 203 value x;
#X obj 160 171 bang;
#X obj 250 170 bang;
#X obj 195 48 t b a;
#X obj 304 157 expr if(\$1==0 \, 50 \, \$1);
#X obj 201 140 moses;
#X obj 297 112 loadbang;
#X connect 0 0 11 0;
#X connect 3 0 13 0;
#X connect 4 0 5 0;
#X connect 5 0 13 1;
#X connect 7 0 1 0;
#X connect 8 0 2 0;
#X connect 9 0 7 0;
#X connect 10 0 8 0;
#X connect 11 0 3 0;
#X connect 11 1 6 0;
#X connect 12 0 13 1;
#X connect 13 0 9 0;
#X connect 13 1 10 0;
#X connect 14 0 12 0;
