#N canvas 478 58 695 563 10;
#X obj 58 114 vsl 15 100 0 100 0 1 \$0-sl1 \$0-sl1r 100 0 -9 0 10 -262144
-1 -1 9900 1;
#X obj 81 114 vsl 15 100 0 100 0 1 \$0-sl2 \$0-sl2r 0 0 -9 0 10 -262144
-1 -1 0 1;
#X obj 104 114 vsl 15 100 0 100 0 1 \$0-sl3 \$0-sl3r 0 0 -9 0 10 -262144
-1 -1 0 1;
#X obj 127 114 vsl 15 100 0 100 0 1 \$0-sl4 \$0-sl4r 0 0 -9 0 10 -262144
-1 -1 0 1;
#N canvas 645 121 450 300 label 0;
#X obj 31 31 r \$0-sl1n;
#X obj 31 52 makefilename %d;
#X msg 31 73 label \$1;
#X obj 31 94 s \$0-sl1r;
#X obj 131 52 makefilename %d;
#X msg 131 73 label \$1;
#X obj 231 52 makefilename %d;
#X msg 231 73 label \$1;
#X obj 331 52 makefilename %d;
#X msg 331 73 label \$1;
#X obj 131 31 r \$0-sl2n;
#X obj 131 94 s \$0-sl2r;
#X obj 231 31 r \$0-sl3n;
#X obj 231 94 s \$0-sl3r;
#X obj 331 31 r \$0-sl4n;
#X obj 331 94 s \$0-sl4r;
#X connect 0 0 1 0;
#X connect 1 0 2 0;
#X connect 2 0 3 0;
#X connect 4 0 5 0;
#X connect 5 0 11 0;
#X connect 6 0 7 0;
#X connect 7 0 13 0;
#X connect 8 0 9 0;
#X connect 9 0 15 0;
#X connect 10 0 4 0;
#X connect 12 0 6 0;
#X connect 14 0 8 0;
#X restore 48 276 pd label;
#N canvas 551 115 376 452 normalizer 0;
#X obj 55 49 r \$0-sl1;
#X obj 123 49 r \$0-sl2;
#X obj 191 49 r \$0-sl3;
#X obj 259 49 r \$0-sl4;
#X obj 72 134 +;
#X obj 72 110 t b f;
#X obj 208 134 +;
#X obj 208 110 t b f;
#X obj 140 182 +;
#X obj 140 158 t b f;
#X obj 140 265 t b f;
#X obj 140 205 max 1;
#X obj 55 370 s \$0-sl1n;
#X obj 123 370 s \$0-sl2n;
#X obj 191 370 s \$0-sl3n;
#X obj 259 370 s \$0-sl4n;
#X obj 140 225 swap 100;
#X obj 140 245 /;
#X obj 55 322 *;
#X obj 123 322 *;
#X obj 191 322 *;
#X obj 259 322 *;
#X connect 0 0 4 0;
#X connect 0 0 18 0;
#X connect 1 0 5 0;
#X connect 1 0 19 0;
#X connect 2 0 6 0;
#X connect 2 0 20 0;
#X connect 3 0 7 0;
#X connect 3 0 21 0;
#X connect 4 0 8 0;
#X connect 5 0 4 0;
#X connect 5 1 4 1;
#X connect 6 0 9 0;
#X connect 7 0 6 0;
#X connect 7 1 6 1;
#X connect 8 0 11 0;
#X connect 9 0 8 0;
#X connect 9 1 8 1;
#X connect 10 0 18 0;
#X connect 10 0 19 0;
#X connect 10 0 20 0;
#X connect 10 0 21 0;
#X connect 10 1 18 1;
#X connect 10 1 19 1;
#X connect 10 1 20 1;
#X connect 10 1 21 1;
#X connect 11 0 16 0;
#X connect 16 0 17 0;
#X connect 16 1 17 1;
#X connect 17 0 10 0;
#X connect 18 0 12 0;
#X connect 19 0 13 0;
#X connect 20 0 14 0;
#X connect 21 0 15 0;
#X restore 48 258 pd normalizer;
#X obj 253 342 r \$0-sl1n;
#X obj 341 342 r \$0-sl2n;
#X obj 429 342 r \$0-sl3n;
#X obj 517 342 r \$0-sl4n;
#X obj 166 343 random 100;
#X obj 166 405 sel 1 2 3 4;
#X obj 166 366 expr if($f1 < $f2 \, 1 \, if($f1-$f2 < $f3 \, 2 \, if($f1-$f2-$f3
< $f4 \, 3 \, if($f1-$f2-$f3-$f4 < $f5 \, 4 \, 0))));
#X obj 166 317 metro;
#X obj 58 82 nbx 5 14 1 1e+037 0 1 \$0-bpm \$0-bpmr BPM 0 -8 0 10 -262144
-1 -1 60 256;
#X obj 119 73 tgl 23 0 \$0-toggle \$0-toggler empty 17 7 0 10 -262144
-1 -1 0 1;
#X obj 166 265 r \$0-toggle;
#X obj 262 265 swap 60000;
#X obj 262 290 /;
#X obj 262 218 r \$0-bpm;
#X obj 262 243 max 1;
#X obj 166 489 outlet;
#X obj 214 489 outlet;
#X obj 262 489 outlet;
#X obj 310 489 outlet;
#X obj 174 79 inlet;
#X obj 174 166 s \$0-bpmr;
#X obj 206 208 max 1;
#X obj 475 226 unpack f f f f;
#X obj 425 291 s \$0-sl1r;
#X obj 485 291 s \$0-sl2r;
#X obj 545 291 s \$0-sl3r;
#X obj 605 291 s \$0-sl4r;
#X obj 174 112 route bpm ms stat play stop;
#X msg 269 141 1;
#X msg 301 141 0;
#X obj 273 174 s \$0-toggler;
#X obj 61 217 bng 9 100 50 0 \$0-foo \$0-bar empty 17 7 0 10 -262144
-1 -1;
#X obj 84 217 bng 9 100 50 0 \$0-foo \$0-bar empty 17 7 0 10 -262144
-1 -1;
#X obj 107 217 bng 9 100 50 0 \$0-foo \$0-bar empty 17 7 0 10 -262144
-1 -1;
#X obj 130 217 bng 9 100 50 0 \$0-foo \$0-bar empty 17 7 0 10 -262144
-1 -1;
#X obj 174 207 bang;
#X connect 6 0 12 1;
#X connect 7 0 12 2;
#X connect 8 0 12 3;
#X connect 9 0 12 4;
#X connect 10 0 12 0;
#X connect 11 0 21 0;
#X connect 11 0 37 0;
#X connect 11 1 22 0;
#X connect 11 1 38 0;
#X connect 11 2 23 0;
#X connect 11 2 39 0;
#X connect 11 3 24 0;
#X connect 11 3 40 0;
#X connect 12 0 11 0;
#X connect 13 0 10 0;
#X connect 16 0 13 0;
#X connect 17 0 18 0;
#X connect 17 1 18 1;
#X connect 18 0 13 1;
#X connect 19 0 20 0;
#X connect 20 0 17 0;
#X connect 25 0 33 0;
#X connect 27 0 13 1;
#X connect 28 0 29 0;
#X connect 28 1 30 0;
#X connect 28 2 31 0;
#X connect 28 3 32 0;
#X connect 33 0 26 0;
#X connect 33 1 27 0;
#X connect 33 2 28 0;
#X connect 33 3 34 0;
#X connect 33 4 35 0;
#X connect 33 5 41 0;
#X connect 34 0 36 0;
#X connect 35 0 36 0;
#X connect 41 0 10 0;
#X coords 0 -1 1 1 100 180 1 50 50;
