#N canvas 340 213 544 393 10;
#X obj 262 14 inlet~;
#X obj 31 190 line~;
#X obj 339 50 loadbang;
#X obj 144 154 t b b;
#X msg 171 178 0;
#X obj 32 266 outlet~;
#X obj 343 132 * 44100;
#X obj 31 133 value \$0-length;
#X obj 401 114 value \$0-length;
#X obj 352 153 value \$0-size;
#X obj 78 207 value \$0-size;
#X obj 32 212 *~;
#X obj 339 80 expr if (\$1 == 0 \, 5 \, \$1);
#X msg 31 169 1 \$1;
#X obj 31 151 * 1000;
#X obj 298 234 inlet;
#X msg 141 315 label \$1;
#X obj 141 339 s \$0-title;
#X obj 51 51 cnv 10 198 68 empty \$0-title recorder~ 4 6 0 10 -262144
-1 0;
#X obj 31 234 tabread4~ \$0-;
#X obj 214 202 tabwrite~ \$0-;
#X obj 164 55 bng 15 250 50 0 empty empty REC 17 7 0 10 -258113 -1
-1;
#X obj 204 55 bng 15 250 50 0 empty empty PLAY 17 7 0 10 -4034 -1 -1
;
#N canvas 0 50 450 250 (subpatch) 0;
#X array \$0- 220500 float 0;
#X coords 0 1 220499 -1 190 40 2 0 0;
#X restore 55 75 graph;
#X obj 141 293 symbol;
#X obj 343 174 array size \$0-;
#X obj 238 311 * 44100;
#X obj 247 332 value \$0-size;
#X obj 238 353 array size \$0-;
#X obj 255 292 value \$0-length;
#X obj 298 255 route title length rec play stop;
#X obj 384 283 bang;
#X obj 422 282 bang;
#X obj 467 290 bang;
#X connect 0 0 20 0;
#X connect 1 0 11 0;
#X connect 2 0 12 0;
#X connect 3 0 7 0;
#X connect 3 0 10 0;
#X connect 3 1 4 0;
#X connect 4 0 1 0;
#X connect 6 0 9 0;
#X connect 6 0 25 0;
#X connect 7 0 14 0;
#X connect 10 0 11 1;
#X connect 11 0 19 0;
#X connect 12 0 8 0;
#X connect 12 0 6 0;
#X connect 13 0 1 0;
#X connect 14 0 13 0;
#X connect 15 0 30 0;
#X connect 16 0 17 0;
#X connect 19 0 5 0;
#X connect 21 0 20 0;
#X connect 22 0 3 0;
#X connect 24 0 16 0;
#X connect 26 0 27 0;
#X connect 26 0 28 0;
#X connect 30 0 24 0;
#X connect 30 1 26 0;
#X connect 30 1 29 0;
#X connect 30 2 31 0;
#X connect 30 3 32 0;
#X connect 30 4 33 0;
#X connect 31 0 21 0;
#X connect 32 0 22 0;
#X connect 33 0 4 0;
#X coords 0 -1 1 1 200 70 2 50 50;
