#N canvas 336 224 450 349 10;
#X obj 152 152 biquad_peak~ 400 0.5 -3;
#X obj 153 106 biquad_losh~ 100 -8;
#X obj 152 82 biquad_hpf~ 30 1;
#X obj 153 61 biquad_hpf~ 30 1;
#X obj 151 183 biquad_peak~ 1500 0.5 -12;
#X obj 149 294 biquad_peak~ 18000 0.4 20;
#X obj 159 24 inlet~;
#X obj 150 321 outlet~;
#X obj 151 241 biquad_peak~ 2800 0.15 -10;
#X obj 151 264 biquad_hish~ 10000 -30 1.2;
#X obj 153 127 biquad_losh~ 100 -8;
#X obj 151 212 biquad_peak~ 3100 1.8 9;
#X connect 0 0 4 0;
#X connect 1 0 10 0;
#X connect 2 0 1 0;
#X connect 3 0 2 0;
#X connect 4 0 11 0;
#X connect 5 0 7 0;
#X connect 6 0 3 0;
#X connect 8 0 9 0;
#X connect 9 0 5 0;
#X connect 10 0 0 0;
#X connect 11 0 8 0;
