#N canvas 40 53 911 622 10;
#X obj 93 521 r \$0-foo;
#X obj 92 566 s \$0-bar;
#X obj 614 73 inlet~;
#X obj 704 541 outlet~;
#X obj 703 228 *~;
#N canvas 440 172 633 254 PRESET 0;
#N canvas 303 50 1027 700 makePreset 0;
#X obj 44 14 inlet bang;
#X obj 44 678 outlet message;
#X msg 44 36 preset.name;
#X obj 89 93 r \$0-DLY;
#X obj 105 112 r \$0-11;
#X obj 120 131 r \$0-12;
#X obj 135 150 r \$0-13;
#X obj 151 169 r \$0-21;
#X obj 166 188 r \$0-22;
#X obj 181 207 r \$0-23;
#X obj 197 226 r \$0-31;
#X obj 212 245 r \$0-32;
#X obj 227 264 r \$0-33;
#X obj 242 283 r \$0-D1;
#X obj 258 302 r \$0-D2;
#X obj 273 321 r \$0-D3;
#X obj 288 340 r \$0-V1;
#X obj 304 359 r \$0-V2;
#X obj 319 378 r \$0-V3;
#X obj 334 397 r \$0-H1;
#X obj 350 416 r \$0-H2;
#X obj 365 435 r \$0-H3;
#X obj 380 454 r \$0-L1;
#X obj 395 473 r \$0-L2;
#X obj 411 492 r \$0-L3;
#X obj 426 511 r \$0-F1;
#X obj 441 530 r \$0-F2;
#X obj 457 549 r \$0-F3;
#X obj 455 228 r \$0-M1;
#X obj 470 247 r \$0-M2;
#X obj 488 270 r \$0-M3;
#X obj 503 289 r \$0-S1;
#X obj 523 313 r \$0-S2;
#X obj 538 332 r \$0-S3;
#X obj 556 355 r \$0-R1;
#X obj 571 374 r \$0-R2;
#X obj 582 395 r \$0-R3;
#X obj 596 421 r \$0-SW1;
#X obj 616 445 r \$0-SW2;
#X obj 631 464 r \$0-SW3;
#X obj 649 487 r \$0-RP1;
#X obj 664 506 r \$0-RP2;
#X obj 675 527 r \$0-RP3;
#X msg 44 644 set \$1 \$2 \$3 \$4 \$5 \$6 \$7 \$8 \$9 \$10 \$11 \$12
\$13 \$14 \$15 \$16 \$17 \$18 \$19 \$20 \$21 \$22 \$23 \$24 \$25 \$26
\$27 \$28 \$29 \$30 \$31 \$32 \$33 \$34 \$35 \$36 \$37 \$38 \$39 \$40
\$41 \$42 \$43, f 114;
#X obj 74 74 r \$0-MIX;
#X obj 44 611 pack s 0 f f f f f f f f f f f f f f f f f f f f f f
f f f f f f f f f f f f f f f f f f f, f 94;
#X connect 0 0 2 0;
#X connect 2 0 45 0;
#X connect 3 0 45 3;
#X connect 4 0 45 4;
#X connect 5 0 45 5;
#X connect 6 0 45 6;
#X connect 7 0 45 7;
#X connect 8 0 45 8;
#X connect 9 0 45 9;
#X connect 10 0 45 10;
#X connect 11 0 45 11;
#X connect 12 0 45 12;
#X connect 13 0 45 13;
#X connect 14 0 45 14;
#X connect 15 0 45 15;
#X connect 16 0 45 16;
#X connect 17 0 45 17;
#X connect 18 0 45 18;
#X connect 19 0 45 19;
#X connect 20 0 45 20;
#X connect 21 0 45 21;
#X connect 22 0 45 22;
#X connect 23 0 45 23;
#X connect 24 0 45 24;
#X connect 25 0 45 25;
#X connect 26 0 45 26;
#X connect 27 0 45 27;
#X connect 28 0 45 28;
#X connect 29 0 45 29;
#X connect 30 0 45 30;
#X connect 31 0 45 31;
#X connect 32 0 45 32;
#X connect 33 0 45 33;
#X connect 34 0 45 34;
#X connect 35 0 45 35;
#X connect 36 0 45 36;
#X connect 37 0 45 37;
#X connect 38 0 45 38;
#X connect 39 0 45 39;
#X connect 40 0 45 40;
#X connect 41 0 45 41;
#X connect 42 0 45 42;
#X connect 43 0 1 0;
#X connect 44 0 45 2;
#X connect 45 0 43 0;
#X restore 161 72 pd makePreset;
#X msg 161 167 preset.name 0 0.5 193.989 0 0 0 0 0 0 0 0 0 0 0 0 0
0 0 0 0 0 0 0 0 0 0 0 0 0 0 0 0 0 0 0 0 0 0 0 0 0 0;
#N canvas 528 50 679 710 presetDispenser 0;
#X obj 136 57 sel 0 1 2 3 4 5 6 7;
#X obj 138 677 outlet;
#X obj 136 28 r \$0-presnum;
#X msg 201 372;
#X msg 249 601;
#X msg 184 299;
#X msg 217 446;
#X msg 233 523;
#X msg 136 90 INITIAL 0 0.5 194.004 1 0 0 0 0 0 0 0 0 1 1 1 1 1 1 15000
15000 15000 10 10 10 0.307692 0 0 0 0 0 0.1 0.1 0.1 0.3 0.3 0.3 1 0
0 2 2 2;
#X msg 152 152 ETHER 0 0.3 500 0 1 1 1 0 1 0 0 1 1 0.741011 0.279741
0.01 0.01 1 15000 4054.78 4054.78 79.3701 22.1831 18.9155 0.684615
0.769231 0.615385 1.03704 0.666667 0 0.275723 0.657692 0.1 0.466835
0.636199 0.695027 1 1 1 1 1 2;
#X msg 168 222 TAPPER 0 0.7 500 1 1 1 1 0 1 0 0 1 0.994 0.741011 0.279741
0.251189 0.01 0.251189 15000 4054.78 4054.78 79.3701 458.041 738.784
0.684615 0.769231 0.615385 1.03704 0.666667 0 0.275723 0.657692 0.1
0.3 0.636199 0.695027 1 1 1 1 1 2;
#X connect 0 0 8 0;
#X connect 0 1 9 0;
#X connect 0 2 10 0;
#X connect 0 3 5 0;
#X connect 0 4 3 0;
#X connect 0 5 6 0;
#X connect 0 6 7 0;
#X connect 0 7 4 0;
#X connect 2 0 0 0;
#X connect 3 0 1 0;
#X connect 4 0 1 0;
#X connect 5 0 1 0;
#X connect 6 0 1 0;
#X connect 7 0 1 0;
#X connect 8 0 1 0;
#X connect 9 0 1 0;
#X connect 10 0 1 0;
#X restore 476 43 pd presetDispenser;
#N canvas 72 50 1211 700 loadPreset 0;
#X obj 45 42 inlet message;
#X msg 45 636 label \$1;
#X obj 90 555 s \$0-dlyp;
#X obj 105 536 s \$0-11p;
#X obj 121 517 s \$0-12p;
#X obj 136 498 s \$0-13p;
#X obj 151 479 s \$0-21p;
#X obj 166 460 s \$0-22p;
#X obj 181 441 s \$0-23p;
#X obj 197 422 s \$0-31p;
#X obj 212 403 s \$0-32p;
#X obj 227 384 s \$0-33p;
#X obj 242 365 s \$0-d1p;
#X obj 257 346 s \$0-d2p;
#X obj 273 327 s \$0-d3p;
#X obj 288 308 s \$0-v1p;
#X obj 303 289 s \$0-v2p;
#X obj 318 270 s \$0-v3p;
#X obj 333 251 s \$0-h1p;
#X obj 349 232 s \$0-h2p;
#X obj 364 213 s \$0-h3p;
#X obj 379 194 s \$0-l1p;
#X obj 394 175 s \$0-l2p;
#X obj 409 156 s \$0-l3p;
#X obj 425 137 s \$0-f1p;
#X obj 440 118 s \$0-f2p;
#X obj 455 99 s \$0-f3p;
#X obj 470 394 s \$0-m1p;
#X obj 485 374 s \$0-m2p;
#X obj 501 354 s \$0-m3p;
#X obj 516 334 s \$0-s1p;
#X obj 531 315 s \$0-s2p;
#X obj 546 296 s \$0-s3p;
#X obj 561 276 s \$0-r1p;
#X obj 577 257 s \$0-r2p;
#X obj 592 238 s \$0-r3p;
#X obj 607 219 s \$0-sw1p;
#X obj 622 200 s \$0-sw2p;
#X obj 637 181 s \$0-sw3p;
#X obj 653 162 s \$0-rp1p;
#X obj 668 143 s \$0-rp2p;
#X obj 683 124 s \$0-rp3p;
#X obj 45 678 s \$0-presname;
#X obj 75 574 s \$0-mixp;
#X obj 45 65 unpack s f f f f f f f f f f f f f f f f f f f f f f f
f f f f f f f f f f f f f f f f f f f, f 96;
#X connect 0 0 44 0;
#X connect 1 0 42 0;
#X connect 44 0 1 0;
#X connect 44 2 43 0;
#X connect 44 3 2 0;
#X connect 44 4 3 0;
#X connect 44 5 4 0;
#X connect 44 6 5 0;
#X connect 44 7 6 0;
#X connect 44 8 7 0;
#X connect 44 9 8 0;
#X connect 44 10 9 0;
#X connect 44 11 10 0;
#X connect 44 12 11 0;
#X connect 44 13 12 0;
#X connect 44 14 13 0;
#X connect 44 15 14 0;
#X connect 44 16 15 0;
#X connect 44 17 16 0;
#X connect 44 18 17 0;
#X connect 44 19 18 0;
#X connect 44 20 19 0;
#X connect 44 21 20 0;
#X connect 44 22 21 0;
#X connect 44 23 22 0;
#X connect 44 24 23 0;
#X connect 44 25 24 0;
#X connect 44 26 25 0;
#X connect 44 27 26 0;
#X connect 44 28 27 0;
#X connect 44 29 28 0;
#X connect 44 30 29 0;
#X connect 44 31 30 0;
#X connect 44 32 31 0;
#X connect 44 33 32 0;
#X connect 44 34 33 0;
#X connect 44 35 34 0;
#X connect 44 36 35 0;
#X connect 44 37 36 0;
#X connect 44 38 37 0;
#X connect 44 39 38 0;
#X connect 44 40 39 0;
#X connect 44 41 40 0;
#X connect 44 42 41 0;
#X restore 477 100 pd loadPreset;
#X obj 39 17 loadbang;
#X msg 39 61 0;
#X obj 292 20 inlet;
#X obj 292 46 route preset;
#X obj 161 48 metro 5000;
#X obj 398 69 list prepend PROTO 0;
#X obj 39 118 s \$0-bypR;
#X obj 40 155 s \$0-dspR;
#X obj 39 85 s \$0-presnumR;
#X obj 293 75 s \$0-presnumR;
#X connect 0 0 1 0;
#X connect 2 0 3 0;
#X connect 4 0 5 0;
#X connect 4 0 8 0;
#X connect 5 0 10 0;
#X connect 5 0 11 0;
#X connect 5 0 12 0;
#X connect 6 0 7 0;
#X connect 7 0 13 0;
#X connect 7 1 9 0;
#X connect 8 0 0 0;
#X connect 9 0 3 0;
#X restore 807 108 pd PRESET;
#X obj 807 73 inlet;
#X obj 101 101 cnv 15 298 98 empty empty empty 3 7 1 9 -1 -162280 0
;
#X obj 284 105 hradio 8 1 0 8 \$0-presnum \$0-presnumR empty 0 -8 0
10 -66577 -162280 -1 0;
#X obj 369 158 mknob 25 100 100 2500 1 0 \$0-DLY \$0-dlyp DELAY 1 32
1 7 -66577 -162280 -162280 2038 1;
#X obj 369 121 mknob 25 100 0 1 0 0 \$0-MIX \$0-mixp MIX 7 32 1 7 -66577
-162280 -162280 4950 1;
#X obj 639 255 *~;
#X obj 657 232 == 0;
#X obj 721 200 r \$0-byp;
#N canvas 100 62 450 300 byp 0;
#X obj 244 107 sel 0 1;
#X msg 244 152 color \$1 \$2 \$3;
#X obj 243 86 r \$0-byp;
#X obj 244 174 s \$0-bypR;
#X obj 100 100 tgl 12 0 \$0-byp \$0-bypR B 3 6 1 10 -66577 -66577 -166441
0 1;
#X obj 100 67 inlet;
#X obj 99 150 outlet;
#X msg 244 129 2 2 1;
#X msg 308 129 13 13 0;
#X connect 0 0 7 0;
#X connect 0 1 8 0;
#X connect 1 0 3 0;
#X connect 2 0 0 0;
#X connect 4 0 6 0;
#X connect 5 0 4 0;
#X connect 7 0 1 0;
#X connect 8 0 1 0;
#X coords 0 -1 1 1 12 12 2 100 100;
#X restore 385 103 pd byp;
#N canvas 123 84 450 300 dsp 0;
#X obj 197 120 sel 0 1;
#X msg 197 165 color \$1 \$2 \$3;
#X msg 257 142 15 15 2;
#X msg 197 142 2 2 1;
#X obj 197 100 r \$0-dsp;
#X obj 197 187 s \$0-dspR;
#X obj 100 100 tgl 12 0 \$0-dsp \$0-dspR D 3 6 1 10 -66577 -66577 -166441
0 1;
#X obj 86 51 inlet;
#X obj 80 154 outlet;
#X connect 0 0 3 0;
#X connect 0 1 2 0;
#X connect 1 0 5 0;
#X connect 2 0 1 0;
#X connect 3 0 1 0;
#X connect 4 0 0 0;
#X connect 6 0 8 0;
#X connect 7 0 6 0;
#X coords 0 -1 1 1 12 12 2 100 100;
#X restore 351 103 pd dsp;
#X obj 102 192 hvumeter2;
#N canvas 0 50 450 250 (subpatch) 0;
#X array \$0-tf 256 float 4;
#X coords 0 12 255 -30 260 72 1 0 0;
#X restore 104 118 graph;
#N canvas 297 196 691 392 fft-eq 0;
#X obj 445 14 r \$0-dsp;
#X obj 61 12 inlet~;
#X obj 64 336 outlet~;
#X obj 111 39 tabreceive~ \$0-hann;
#X obj 113 227 tabreceive~ \$0-hann;
#X obj 198 91 tabreceive~ \$0-tf;
#X obj 63 140 *~;
#X obj 197 115 expr~ pow(10 \, $v1/20);
#X obj 63 216 /~ 512;
#X obj 62 58 *~;
#X obj 64 246 *~;
#X obj 445 40 switch~ 512 4;
#X obj 63 92 rfft~;
#X obj 102 141 *~;
#X obj 63 189 rifft~;
#X obj 63 290 *~ 0.666666;
#X connect 0 0 11 0;
#X connect 1 0 9 0;
#X connect 3 0 9 1;
#X connect 4 0 10 1;
#X connect 5 0 7 0;
#X connect 6 0 14 0;
#X connect 7 0 6 1;
#X connect 7 0 13 1;
#X connect 8 0 10 0;
#X connect 9 0 12 0;
#X connect 10 0 15 0;
#X connect 12 0 6 0;
#X connect 12 1 13 0;
#X connect 13 0 14 1;
#X connect 14 0 8 0;
#X connect 15 0 2 0;
#X restore 721 321 pd fft-eq;
#N canvas 508 277 500 300 hann 0;
#N canvas 0 50 450 300 (subpatch) 0;
#X array \$0-hann 512 float 0;
#X coords 0 1 511 0 200 120 1;
#X restore 266 114 graph;
#X msg 144 128 0;
#X obj 38 177 osc~;
#X obj 38 129 samplerate~;
#X obj 38 200 *~ -0.5;
#X obj 38 223 +~ 0.5;
#X obj 30 248 tabwrite~ \$0-hann;
#X obj 38 153 / 512;
#X obj 30 106 bng 15 250 50 0 empty empty empty 0 -6 0 8 -262144 -1
-1;
#X obj 30 11 loadbang;
#X connect 1 0 2 1;
#X connect 2 0 4 0;
#X connect 3 0 7 0;
#X connect 4 0 5 0;
#X connect 5 0 6 0;
#X connect 7 0 2 0;
#X connect 8 0 3 0;
#X connect 8 0 1 0;
#X connect 8 0 6 0;
#X connect 9 0 8 0;
#X restore 765 283 pd hann;
#X obj 104 118 cnv 15 260 72 empty empty empty 20 12 0 14 -99865 -66577
0;
#X obj 104 138 cnv 2 260 2 empty empty empty 20 12 0 14 -162280 -66577
0;
#X obj 154 102 cnv 15 50 15 empty empty Spectral:EQ 3 7 1 9 -1 -162280
0;
#X obj 434 362 f \$0;
#X obj 438 320 bng 15 250 50 0 empty empty empty 17 7 0 10 -262144
-1 -1;
#X msg 434 389 \; \$1-tf const 0;
#X text 95 333 make a way to design a log spectrum;
#X connect 2 0 4 0;
#X connect 2 0 11 0;
#X connect 4 0 18 0;
#X connect 6 0 5 0;
#X connect 11 0 3 0;
#X connect 12 0 11 1;
#X connect 13 0 4 1;
#X connect 13 0 12 0;
#X connect 18 0 3 0;
#X connect 23 0 25 0;
#X connect 24 0 23 0;
#X coords 0 -1 1 1 300 100 2 100 100;
