#N canvas 772 67 492 559 10;
#N canvas 541 72 634 536 (subpatch) 0;
#X obj 111 335 makefilename %d;
#X msg 111 360 label \$1;
#X obj 101 201 bng 10 250 50 0 empty empty empty 17 7 0 10 -262144
-1 -1;
#X obj 95 235 i;
#X obj 126 235 + 1;
#X obj 95 277 mod 3;
#X obj 97 305 + 1;
#X obj 101 201 cnv 10 10 10 empty \$0-cnv 1 3 5 1 10 -66577 -162280
0;
#X obj 24 386 s \$0-mono;
#X obj 45 150 r \$0-monoR;
#X obj 111 384 s \$0-cnv;
#X connect 0 0 1 0;
#X connect 1 0 10 0;
#X connect 2 0 3 0;
#X connect 3 0 4 0;
#X connect 3 0 5 0;
#X connect 4 0 3 1;
#X connect 5 0 6 0;
#X connect 5 0 8 0;
#X connect 6 0 0 0;
#X connect 9 0 3 0;
#X coords 0 -1 1 1 12 12 2 100 200;
#X restore 77 49 pd;
#X obj 76 77 mknob 18 100 0.01 1 1 0 \$0-mix \$0-mixR Label 3 24 1
7 -66577 -162280 -191407 0 1;
#X obj 55 144 hradio 8 1 0 8 \$0-preset \$0-presetR empty 0 -8 0 10
-66577 -162280 -1 0;
#X obj 169 26 cnv 15 148 48 empty empty Label 3 7 1 9 -1 -162280 0
;
#X obj 170 241 cnv 15 298 98 empty empty Label 3 7 1 9 -1 -162280 0
;
#X obj 170 136 cnv 15 148 98 empty empty Label 3 7 1 9 -1 -162280 0
;
#X obj 79 230 cnv 10 10 10 empty empty ROUTE 0 5 1 7 -1 -162280 0;
#X obj 169 81 cnv 15 298 48 empty empty Label 3 7 1 9 -1 -162280 0
;
#X text 4 46 monoradio;
#X text 19 78 knob;
#X text 2 139 preset;
#X text 15 206 toggle*;
#X text 14 164 bypass*;
#X text 35 182 dsp*;
#N canvas 135 88 450 300 tgl 0;
#X obj 100 100 tgl 12 0 \$0-tgl \$0-tglR 1 3 6 1 10 -166441 -166441
-66577 0 1;
#X obj 163 136 sel 0 1;
#X msg 163 181 color \$1 \$2 \$3;
#X msg 163 157 2 2 1;
#X msg 216 157 1 1 2;
#X obj 163 115 r \$0-tgl;
#X obj 162 203 s \$0-tglR;
#X obj 94 66 inlet;
#X obj 85 154 outlet;
#X connect 0 0 8 0;
#X connect 1 0 3 0;
#X connect 1 1 4 0;
#X connect 2 0 6 0;
#X connect 3 0 2 0;
#X connect 4 0 2 0;
#X connect 5 0 1 0;
#X connect 7 0 0 0;
#X coords 0 -1 1 1 12 12 2 100 100;
#X restore 77 208 pd tgl;
#N canvas 100 62 450 300 byp 0;
#X obj 244 107 sel 0 1;
#X msg 244 152 color \$1 \$2 \$3;
#X obj 243 86 r \$0-byp;
#X obj 244 174 s \$0-bypR;
#X obj 100 100 tgl 12 0 \$0-byp \$0-bypR B 3 6 1 10 -258699 -258699
-262144 0 1;
#X obj 100 67 inlet;
#X obj 99 150 outlet;
#X msg 244 129 2 2 1;
#X msg 308 129 13 13 0;
#X connect 0 0 7 0;
#X connect 0 1 8 0;
#X connect 1 0 3 0;
#X connect 2 0 0 0;
#X connect 4 0 6 0;
#X connect 5 0 4 0;
#X connect 7 0 1 0;
#X connect 8 0 1 0;
#X coords 0 -1 1 1 12 12 2 100 100;
#X restore 77 167 pd byp;
#N canvas 123 84 450 300 dsp 0;
#X obj 197 120 sel 0 1;
#X msg 197 165 color \$1 \$2 \$3;
#X msg 257 142 15 15 2;
#X msg 197 142 2 2 1;
#X obj 197 100 r \$0-dsp;
#X obj 197 187 s \$0-dspR;
#X obj 100 100 tgl 12 0 \$0-dsp \$0-dspR D 3 6 1 10 -66577 -66577 -166441
0 1;
#X obj 86 51 inlet;
#X obj 80 154 outlet;
#X connect 0 0 3 0;
#X connect 0 1 2 0;
#X connect 1 0 5 0;
#X connect 2 0 1 0;
#X connect 3 0 1 0;
#X connect 4 0 0 0;
#X connect 6 0 8 0;
#X connect 7 0 6 0;
#X coords 0 -1 1 1 12 12 2 100 100;
#X restore 77 186 pd dsp;
#N canvas 114 138 450 300 tap 0;
#X obj 100 100 bng 12 250 50 0 \$0-tap \$0-tapR empty 17 7 1 10 -99865
-162280 -1;
#X obj 73 56 inlet;
#X obj 75 162 outlet;
#X msg 253 116 2;
#X msg 215 142 color \$1;
#X msg 215 116 21;
#X obj 253 92 del 80;
#X obj 215 26 inlet;
#X obj 215 164 s \$0-tapR;
#X obj 253 49 r \$0-tapfb;
#X connect 0 0 2 0;
#X connect 1 0 0 0;
#X connect 3 0 4 0;
#X connect 4 0 8 0;
#X connect 5 0 4 0;
#X connect 6 0 3 0;
#X connect 7 0 5 0;
#X connect 7 0 6 0;
#X connect 9 0 6 0;
#X connect 9 0 5 0;
#X coords 0 -1 1 1 12 12 2 100 100;
#X restore 77 25 pd tap;
#X text 16 24 tapbang;
#X text 14 230 label;
#X obj 76 109 mknob 18 100 0.01 1 1 0 \$0-mix \$0-mixR Label 3 24 1
7 -162280 -66577 -191407 0 1;
#X text 6 111 knob inv;
#X obj 18 270 vvumeter;
#X obj 19 365 hvumeter;
#X obj 19 373 hvumeter2;
#X obj 27 270 vvumeter2;
#X obj 104 71 mknob 25 100 0 1 0 0 \$0-MIX \$0-mixp MIX 7 32 1 7 -66577
-162280 -162280 0 1;
#X obj 36 284 vvumeters;
#X obj 45 299 vvumeters2;
#X obj 19 381 hvumeters;
#X obj 19 392 hvumeters2;
