#N canvas 0 50 450 300 12;
#X obj 269 212 i;
#X obj 295 212 + 1;
#X obj 269 149 metro 1;
#X msg 239 195 0;
#X msg 269 126 0;
#X obj 189 187 +;
#X msg 180 154 0;
#X obj 301 178 t b b;
#X msg 220 154 0;
#X obj 285 21 inlet;
#X obj 177 263 outlet;
#X obj 183 229 moses 2;
#X obj 155 84 delay 3000;
#X connect 0 0 1 0;
#X connect 0 0 5 1;
#X connect 1 0 0 1;
#X connect 2 0 0 0;
#X connect 3 0 0 0;
#X connect 4 0 2 0;
#X connect 5 0 11 0;
#X connect 6 0 5 0;
#X connect 7 0 3 0;
#X connect 7 1 6 0;
#X connect 8 0 5 1;
#X connect 9 0 2 0;
#X connect 9 0 7 0;
#X connect 9 0 12 0;
#X connect 11 1 10 0;
#X connect 12 0 4 0;
#X connect 12 0 8 0;
#X connect 12 0 3 0;
