#N canvas 511 0 1302 715 10;
#X obj 169 673 outlet~;
#X obj 82 256 phasor~;
#X obj 337 161 i;
#X obj 377 161 + 1;
#X obj 337 206 mod;
#X obj 337 132 metro 1;
#X obj 380 236 i;
#X obj 434 148 i;
#X obj 380 212 *;
#X floatatom 372 275 5 0 0 0 - - -, f 5;
#X obj 337 236 <;
#X obj 338 380 line~;
#X obj 338 355 pack;
#X obj 429 303 *;
#X obj 405 187 t b f;
#X obj 207 538 *~;
#X obj 424 261 t b f;
#X obj 29 257 osc~;
#X obj 214 508 == 0;
#X obj 177 538 *~;
#X obj 208 571 *~;
#X obj 256 507 == 1;
#X obj 100 100 cnv 15 150 100 empty empty empty 20 12 0 14 -33289 -66577
0;
#X obj 180 179 tgl 15 0 empty empty empty 17 7 0 10 -99865 -4034 -262144
0 1;
#X obj 226 121 vsl 15 70 1 2000 0 0 empty empty |->| -4 -9 0 10 -99865
-4034 -262144 3448 1;
#X obj 203 121 vsl 15 70 0 1 0 0 empty empty |^_| -4 -9 0 10 -99865
-4034 -262144 3450 1;
#X obj 180 121 vsl 15 50 0 1 0 0 empty empty |//| -4 -9 0 10 -99865
-4034 -262144 1470 1;
#X obj 157 121 vsl 15 70 0.01 1 1 0 empty empty |<<| -4 -9 0 10 -99865
-4034 -262144 0 1;
#X obj 134 121 vsl 15 70 30 15000 1 0 empty empty |~~| -4 -9 0 10 -99865
-4034 -262144 2982 1;
#N canvas 457 224 752 427 os_filter~ 0;
#X obj 50 231 *~ 0.125;
#X obj 50 254 rzero~ -1;
#X obj 50 277 rzero~ -1;
#X obj 50 300 rzero~ -1;
#X obj 52 354 outlet~;
#X obj 49 128 rpole~ 0.87467;
#X obj 49 105 *~ 0.12532;
#X obj 49 151 *~ 0.01668;
#X obj 49 174 cpole~ 0.9293 0.10812;
#X obj 49 200 cpole~ 0.9293 -0.10812;
#X obj 51 64 inlet~;
#X connect 0 0 1 0;
#X connect 1 0 2 0;
#X connect 2 0 3 0;
#X connect 3 0 4 0;
#X connect 5 0 7 0;
#X connect 6 0 5 0;
#X connect 7 0 8 0;
#X connect 8 0 9 0;
#X connect 8 1 9 1;
#X connect 9 0 0 0;
#X connect 10 0 6 0;
#X restore 209 596 pd os_filter~;
#X obj 109 108 vradio 17 1 0 5 empty empty empty 0 -8 0 10 -99865 -4034
-262144 0;
#X obj 154 482 +~;
#X obj 56 435 *~;
#X obj 74 412 == 0;
#X obj 96 435 *~;
#X obj 136 435 *~;
#X obj 175 436 *~;
#X obj 215 436 *~;
#X obj 114 412 == 1;
#X obj 154 412 == 2;
#X obj 193 413 == 3;
#X obj 233 413 == 4;
#X obj 84 325 expr~ $v1*2-1;
#X obj 120 287 expr~ 4*abs($v1-0.5)-1;
#X obj 124 364 *~ -1;
#X obj 203 335 expr~ if($v1>0.5 \, 1 \, -1);
#X obj 135 23 loadbang;
#X msg 135 52 440;
#X msg 210 54 0.5;
#X msg 250 53 1000;
#X msg 320 61 0;
#X msg 177 56 0.3;
#X obj 334 533 line~;
#X msg 334 510 \$1 100;
#X obj 41 228 line~;
#X msg 41 206 \$1 100;
#X obj 571 48 != 0.01;
#X obj 580 107 switch~ 64 1 16;
#X connect 1 0 42 0;
#X connect 1 0 43 0;
#X connect 1 0 45 0;
#X connect 2 0 3 0;
#X connect 2 0 4 0;
#X connect 3 0 2 1;
#X connect 4 0 10 0;
#X connect 5 0 2 0;
#X connect 6 0 10 1;
#X connect 6 0 16 0;
#X connect 7 0 4 1;
#X connect 7 0 14 0;
#X connect 8 0 6 0;
#X connect 10 0 9 0;
#X connect 10 0 12 0;
#X connect 11 0 15 1;
#X connect 12 0 11 0;
#X connect 13 0 12 1;
#X connect 14 0 8 0;
#X connect 14 1 8 1;
#X connect 15 0 20 0;
#X connect 16 0 13 0;
#X connect 16 1 13 1;
#X connect 17 0 32 0;
#X connect 18 0 19 1;
#X connect 19 0 20 0;
#X connect 20 0 29 0;
#X connect 21 0 15 1;
#X connect 21 0 12 0;
#X connect 23 0 5 0;
#X connect 23 0 21 0;
#X connect 23 0 18 0;
#X connect 24 0 7 0;
#X connect 25 0 8 0;
#X connect 26 0 13 0;
#X connect 27 0 53 0;
#X connect 27 0 56 0;
#X connect 28 0 55 0;
#X connect 29 0 0 0;
#X connect 30 0 33 0;
#X connect 30 0 38 0;
#X connect 30 0 39 0;
#X connect 30 0 40 0;
#X connect 30 0 41 0;
#X connect 31 0 15 0;
#X connect 31 0 19 0;
#X connect 32 0 31 0;
#X connect 33 0 32 1;
#X connect 34 0 31 0;
#X connect 35 0 31 0;
#X connect 36 0 31 0;
#X connect 37 0 31 0;
#X connect 38 0 34 1;
#X connect 39 0 35 1;
#X connect 40 0 36 1;
#X connect 41 0 37 1;
#X connect 42 0 34 0;
#X connect 42 0 44 0;
#X connect 43 0 36 0;
#X connect 44 0 35 0;
#X connect 45 0 37 0;
#X connect 46 0 47 0;
#X connect 46 0 51 0;
#X connect 46 0 48 0;
#X connect 46 0 49 0;
#X connect 46 0 50 0;
#X connect 47 0 28 0;
#X connect 48 0 25 0;
#X connect 49 0 24 0;
#X connect 50 0 23 0;
#X connect 50 0 30 0;
#X connect 51 0 26 0;
#X connect 52 0 20 1;
#X connect 53 0 52 0;
#X connect 54 0 17 0;
#X connect 54 0 1 0;
#X connect 55 0 54 0;
#X connect 56 0 57 0;
#X coords 0 -1 1 1 150 100 1 100 100;
