#N canvas 409 305 450 343 10;
#X obj 100 100 tgl 12 0 \$0-sk1 \$0-sk1R empty 17 7 0 10 -66577 -66577
-66577 0 1;
#X obj 112 100 tgl 12 0 \$0-sk2 \$0-sk2R empty 17 7 0 10 -128992 -128992
-128992 1 1;
#X obj 124 100 tgl 12 0 \$0-sk3 \$0-sk3R empty 17 7 0 10 -66577 -66577
-66577 0 1;
#X obj 136 100 tgl 12 0 \$0-sk4 \$0-sk4R empty 17 7 0 10 -66577 -66577
-66577 0 1;
#X obj 38 55 sel 0 1 2 3 4 5 6 7 8 9 10 11 12 13 14 15;
#X obj 53 141 i;
#X obj 65 161 i;
#X obj 77 181 i;
#X obj 89 201 i;
#X obj 149 100 tgl 12 0 \$0-sk5 \$0-sk5R empty 17 7 0 10 -128992 -128992
-128992 1 1;
#X obj 161 100 tgl 12 0 \$0-sk6 \$0-sk6R empty 17 7 0 10 -66577 -66577
-66577 0 1;
#X obj 173 100 tgl 12 0 \$0-sk7 \$0-sk7R empty 17 7 0 10 -66577 -66577
-66577 0 1;
#X obj 185 100 tgl 12 0 \$0-sk8 \$0-sk8R empty 17 7 0 10 -66577 -66577
-66577 0 1;
#X obj 103 141 i;
#X obj 115 161 i;
#X obj 127 181 i;
#X obj 139 201 i;
#X obj 198 100 tgl 12 0 \$0-sk9 \$0-sk9R empty 17 7 0 10 -128992 -128992
-128992 1 1;
#X obj 210 100 tgl 12 0 \$0-sk10 \$0-sk10R empty 17 7 0 10 -66577 -66577
-66577 0 1;
#X obj 222 100 tgl 12 0 \$0-sk11 \$0-sk11R empty 17 7 0 10 -66577 -66577
-66577 0 1;
#X obj 234 100 tgl 12 0 \$0-sk12 \$0-sk12R empty 17 7 0 10 -66577 -66577
-66577 0 1;
#X obj 153 141 i;
#X obj 165 161 i;
#X obj 177 181 i;
#X obj 189 201 i;
#X obj 247 100 tgl 12 0 \$0-sk13 \$0-sk13R empty 17 7 0 10 -66577 -66577
-66577 0 1;
#X obj 259 100 tgl 12 0 \$0-sk14 \$0-sk14R empty 17 7 0 10 -66577 -66577
-66577 0 1;
#X obj 271 100 tgl 12 0 \$0-sk15 \$0-sk15R empty 17 7 0 10 -66577 -66577
-66577 0 1;
#X obj 283 100 tgl 12 0 \$0-sk16 \$0-sk16R empty 17 7 0 10 -66577 -66577
-66577 0 1;
#X obj 203 141 i;
#X obj 215 161 i;
#X obj 227 181 i;
#X obj 239 201 i;
#X obj 142 251 sel 1;
#X obj 38 32 inlet;
#X obj 142 275 outlet;
#N canvas 196 204 1037 696 toggles 0;
#X obj 25 122 r \$0-sk1;
#X obj 25 140 sel 0 1;
#X obj 25 273 s \$0-sk1R;
#X msg 88 234 2 2 2;
#X obj 191 13 inlet;
#X msg 25 253 color \$1 \$2 \$3;
#X msg 25 177 set \$1 \$2 \$3;
#X msg 25 159 2 2 2;
#X obj 88 215 del 100;
#X obj 88 122 bang;
#X obj 55 320 sel 0 1;
#X msg 118 414 11 11 11;
#X msg 55 433 color \$1 \$2 \$3;
#X msg 55 357 set \$1 \$2 \$3;
#X msg 55 339 2 2 2;
#X obj 118 395 del 100;
#X obj 118 302 bang;
#X obj 85 500 sel 0 1;
#X msg 148 594 2 2 2;
#X msg 85 613 color \$1 \$2 \$3;
#X msg 85 537 set \$1 \$2 \$3;
#X msg 85 519 2 2 2;
#X obj 148 575 del 100;
#X obj 148 482 bang;
#X obj 175 140 sel 0 1;
#X msg 238 234 2 2 2;
#X msg 175 253 color \$1 \$2 \$3;
#X msg 175 177 set \$1 \$2 \$3;
#X msg 175 159 2 2 2;
#X obj 238 215 del 100;
#X obj 238 122 bang;
#X obj 205 320 sel 0 1;
#X msg 268 414 11 11 11;
#X msg 205 433 color \$1 \$2 \$3;
#X msg 205 357 set \$1 \$2 \$3;
#X msg 205 339 2 2 2;
#X obj 268 395 del 100;
#X obj 268 302 bang;
#X obj 235 500 sel 0 1;
#X msg 298 594 2 2 2;
#X msg 235 613 color \$1 \$2 \$3;
#X msg 235 537 set \$1 \$2 \$3;
#X msg 235 519 2 2 2;
#X obj 298 575 del 100;
#X obj 298 482 bang;
#X obj 335 140 sel 0 1;
#X msg 398 234 2 2 2;
#X msg 335 253 color \$1 \$2 \$3;
#X msg 335 177 set \$1 \$2 \$3;
#X msg 335 159 2 2 2;
#X obj 398 215 del 100;
#X obj 398 122 bang;
#X obj 365 320 sel 0 1;
#X msg 428 414 2 2 2;
#X msg 365 433 color \$1 \$2 \$3;
#X msg 365 357 set \$1 \$2 \$3;
#X msg 365 339 2 2 2;
#X obj 428 395 del 100;
#X obj 428 302 bang;
#X obj 395 500 sel 0 1;
#X msg 458 594 11 11 11;
#X msg 395 613 color \$1 \$2 \$3;
#X msg 395 537 set \$1 \$2 \$3;
#X msg 395 519 2 2 2;
#X obj 458 575 del 100;
#X obj 458 482 bang;
#X obj 485 140 sel 0 1;
#X msg 548 234 2 2 2;
#X msg 485 253 color \$1 \$2 \$3;
#X msg 485 177 set \$1 \$2 \$3;
#X msg 485 159 2 2 2;
#X obj 548 215 del 100;
#X obj 556 122 bang;
#X obj 515 320 sel 0 1;
#X msg 578 414 2 2 2;
#X msg 515 433 color \$1 \$2 \$3;
#X msg 515 357 set \$1 \$2 \$3;
#X msg 515 339 2 2 2;
#X obj 578 395 del 100;
#X obj 586 302 bang;
#X obj 545 500 sel 0 1;
#X msg 608 594 2 2 2;
#X msg 545 613 color \$1 \$2 \$3;
#X msg 545 537 set \$1 \$2 \$3;
#X msg 545 519 2 2 2;
#X obj 608 575 del 100;
#X obj 616 482 bang;
#X obj 655 140 sel 0 1;
#X msg 718 234 2 2 2;
#X msg 655 253 color \$1 \$2 \$3;
#X msg 655 177 set \$1 \$2 \$3;
#X msg 655 159 2 2 2;
#X obj 718 215 del 100;
#X obj 726 122 bang;
#X obj 685 320 sel 0 1;
#X msg 748 414 2 2 2;
#X msg 685 433 color \$1 \$2 \$3;
#X msg 685 357 set \$1 \$2 \$3;
#X msg 685 339 2 2 2;
#X obj 748 395 del 100;
#X obj 757 302 bang;
#X obj 715 500 sel 0 1;
#X msg 778 594 2 2 2;
#X msg 715 613 color \$1 \$2 \$3;
#X msg 715 537 set \$1 \$2 \$3;
#X msg 715 519 2 2 2;
#X obj 778 575 del 100;
#X obj 785 482 bang;
#X obj 805 140 sel 0 1;
#X msg 868 234 2 2 2;
#X msg 805 253 color \$1 \$2 \$3;
#X msg 805 177 set \$1 \$2 \$3;
#X msg 805 159 2 2 2;
#X obj 868 215 del 100;
#X obj 875 121 bang;
#X obj 55 302 r \$0-sk2;
#X obj 55 453 s \$0-sk2R;
#X obj 85 482 r \$0-sk3;
#X obj 85 633 s \$0-sk3R;
#X obj 175 122 r \$0-sk4;
#X obj 175 273 s \$0-sk4R;
#X obj 205 302 r \$0-sk5;
#X obj 205 452 s \$0-sk5R;
#X obj 235 482 r \$0-sk6;
#X obj 235 633 s \$0-sk6R;
#X obj 335 122 r \$0-sk7;
#X obj 335 273 s \$0-sk7R;
#X obj 365 302 r \$0-sk8;
#X obj 365 453 s \$0-sk8R;
#X obj 395 482 r \$0-sk9;
#X obj 395 633 s \$0-sk9R;
#X obj 485 122 r \$0-sk10;
#X obj 485 273 s \$0-sk10R;
#X obj 515 302 r \$0-sk11;
#X obj 515 453 s \$0-sk11R;
#X obj 545 482 r \$0-sk12;
#X obj 545 633 s \$0-sk12R;
#X obj 655 122 r \$0-sk13;
#X obj 655 273 s \$0-sk13R;
#X obj 685 302 r \$0-sk14;
#X obj 685 453 s \$0-sk14R;
#X obj 715 482 r \$0-sk15;
#X obj 715 633 s \$0-sk15R;
#X obj 805 122 r \$0-sk16;
#X obj 805 273 s \$0-sk16R;
#X obj 191 36 sel 0 1 2 3 4 5 6 7 8 9 10 11 12 13 14 15;
#X msg 69 159 11 11 11;
#X msg 219 159 11 11 11;
#X msg 379 159 11 11 11;
#X msg 529 159 11 11 11;
#X msg 699 159 11 11 11;
#X msg 849 159 11 11 11;
#X msg 99 339 11 11 11;
#X msg 249 339 11 11 11;
#X msg 409 339 11 11 11;
#X msg 559 339 11 11 11;
#X msg 729 339 11 11 11;
#X msg 129 519 11 11 11;
#X msg 279 519 11 11 11;
#X msg 439 519 11 11 11;
#X msg 589 519 11 11 11;
#X msg 759 519 11 11 11;
#X msg 88 197 1 1 1;
#X msg 238 197 1 1 1;
#X msg 398 197 1 1 1;
#X msg 548 197 1 1 1;
#X msg 718 197 1 1 1;
#X msg 868 197 1 1 1;
#X msg 118 377 1 1 1;
#X msg 268 377 1 1 1;
#X msg 428 377 1 1 1;
#X msg 578 377 1 1 1;
#X msg 748 377 1 1 1;
#X msg 148 557 1 1 1;
#X msg 298 557 1 1 1;
#X msg 458 557 1 1 1;
#X msg 608 557 1 1 1;
#X msg 778 557 1 1 1;
#X obj 678 35 inlet;
#X connect 0 0 1 0;
#X connect 1 0 7 0;
#X connect 1 1 146 0;
#X connect 3 0 5 0;
#X connect 4 0 145 0;
#X connect 5 0 2 0;
#X connect 6 0 3 0;
#X connect 7 0 5 0;
#X connect 7 0 6 0;
#X connect 8 0 3 0;
#X connect 9 0 162 0;
#X connect 9 0 8 0;
#X connect 10 0 14 0;
#X connect 10 1 152 0;
#X connect 11 0 12 0;
#X connect 12 0 116 0;
#X connect 13 0 11 0;
#X connect 14 0 12 0;
#X connect 14 0 13 0;
#X connect 15 0 11 0;
#X connect 16 0 168 0;
#X connect 16 0 15 0;
#X connect 17 0 21 0;
#X connect 17 1 157 0;
#X connect 18 0 19 0;
#X connect 19 0 118 0;
#X connect 20 0 18 0;
#X connect 21 0 19 0;
#X connect 21 0 20 0;
#X connect 22 0 18 0;
#X connect 23 0 173 0;
#X connect 23 0 22 0;
#X connect 24 0 28 0;
#X connect 24 1 147 0;
#X connect 25 0 26 0;
#X connect 26 0 120 0;
#X connect 27 0 25 0;
#X connect 28 0 26 0;
#X connect 28 0 27 0;
#X connect 29 0 25 0;
#X connect 30 0 163 0;
#X connect 30 0 29 0;
#X connect 31 0 35 0;
#X connect 31 1 153 0;
#X connect 32 0 33 0;
#X connect 33 0 122 0;
#X connect 34 0 32 0;
#X connect 35 0 33 0;
#X connect 35 0 34 0;
#X connect 36 0 32 0;
#X connect 37 0 169 0;
#X connect 37 0 36 0;
#X connect 38 0 42 0;
#X connect 38 1 158 0;
#X connect 39 0 40 0;
#X connect 40 0 124 0;
#X connect 41 0 39 0;
#X connect 42 0 40 0;
#X connect 42 0 41 0;
#X connect 43 0 39 0;
#X connect 44 0 174 0;
#X connect 44 0 43 0;
#X connect 45 0 49 0;
#X connect 45 1 148 0;
#X connect 46 0 47 0;
#X connect 47 0 126 0;
#X connect 48 0 46 0;
#X connect 49 0 47 0;
#X connect 49 0 48 0;
#X connect 50 0 46 0;
#X connect 51 0 164 0;
#X connect 51 0 50 0;
#X connect 52 0 56 0;
#X connect 52 1 154 0;
#X connect 53 0 54 0;
#X connect 54 0 128 0;
#X connect 55 0 53 0;
#X connect 56 0 54 0;
#X connect 56 0 55 0;
#X connect 57 0 53 0;
#X connect 58 0 170 0;
#X connect 58 0 57 0;
#X connect 59 0 63 0;
#X connect 59 1 159 0;
#X connect 60 0 61 0;
#X connect 61 0 130 0;
#X connect 62 0 60 0;
#X connect 63 0 61 0;
#X connect 63 0 62 0;
#X connect 64 0 60 0;
#X connect 65 0 175 0;
#X connect 65 0 64 0;
#X connect 66 0 70 0;
#X connect 66 1 149 0;
#X connect 67 0 68 0;
#X connect 68 0 132 0;
#X connect 69 0 67 0;
#X connect 70 0 68 0;
#X connect 70 0 69 0;
#X connect 71 0 67 0;
#X connect 72 0 165 0;
#X connect 72 0 71 0;
#X connect 73 0 77 0;
#X connect 73 1 155 0;
#X connect 74 0 75 0;
#X connect 75 0 134 0;
#X connect 76 0 74 0;
#X connect 77 0 75 0;
#X connect 77 0 76 0;
#X connect 78 0 74 0;
#X connect 79 0 171 0;
#X connect 79 0 78 0;
#X connect 80 0 84 0;
#X connect 80 1 160 0;
#X connect 81 0 82 0;
#X connect 82 0 136 0;
#X connect 83 0 81 0;
#X connect 84 0 82 0;
#X connect 84 0 83 0;
#X connect 85 0 81 0;
#X connect 86 0 176 0;
#X connect 86 0 85 0;
#X connect 87 0 91 0;
#X connect 87 1 150 0;
#X connect 88 0 89 0;
#X connect 89 0 138 0;
#X connect 90 0 88 0;
#X connect 91 0 89 0;
#X connect 91 0 90 0;
#X connect 92 0 88 0;
#X connect 93 0 166 0;
#X connect 93 0 92 0;
#X connect 94 0 98 0;
#X connect 94 1 156 0;
#X connect 95 0 96 0;
#X connect 96 0 140 0;
#X connect 97 0 95 0;
#X connect 98 0 96 0;
#X connect 98 0 97 0;
#X connect 99 0 95 0;
#X connect 100 0 172 0;
#X connect 100 0 99 0;
#X connect 101 0 105 0;
#X connect 101 1 161 0;
#X connect 102 0 103 0;
#X connect 103 0 142 0;
#X connect 104 0 102 0;
#X connect 105 0 103 0;
#X connect 105 0 104 0;
#X connect 106 0 102 0;
#X connect 107 0 177 0;
#X connect 107 0 106 0;
#X connect 108 0 112 0;
#X connect 108 1 151 0;
#X connect 109 0 110 0;
#X connect 110 0 144 0;
#X connect 111 0 109 0;
#X connect 112 0 110 0;
#X connect 112 0 111 0;
#X connect 113 0 109 0;
#X connect 114 0 167 0;
#X connect 114 0 113 0;
#X connect 115 0 10 0;
#X connect 117 0 17 0;
#X connect 119 0 24 0;
#X connect 121 0 31 0;
#X connect 123 0 38 0;
#X connect 125 0 45 0;
#X connect 127 0 52 0;
#X connect 129 0 59 0;
#X connect 131 0 66 0;
#X connect 133 0 73 0;
#X connect 135 0 80 0;
#X connect 137 0 87 0;
#X connect 139 0 94 0;
#X connect 141 0 101 0;
#X connect 143 0 108 0;
#X connect 145 0 9 0;
#X connect 145 1 16 0;
#X connect 145 2 23 0;
#X connect 145 3 30 0;
#X connect 145 4 37 0;
#X connect 145 5 44 0;
#X connect 145 6 51 0;
#X connect 145 7 58 0;
#X connect 145 8 65 0;
#X connect 145 9 72 0;
#X connect 145 10 79 0;
#X connect 145 11 86 0;
#X connect 145 12 93 0;
#X connect 145 13 100 0;
#X connect 145 14 107 0;
#X connect 145 15 114 0;
#X connect 146 0 6 0;
#X connect 146 0 5 0;
#X connect 147 0 27 0;
#X connect 147 0 26 0;
#X connect 148 0 48 0;
#X connect 148 0 47 0;
#X connect 149 0 69 0;
#X connect 149 0 68 0;
#X connect 150 0 90 0;
#X connect 150 0 89 0;
#X connect 151 0 111 0;
#X connect 151 0 110 0;
#X connect 152 0 13 0;
#X connect 152 0 12 0;
#X connect 153 0 34 0;
#X connect 153 0 33 0;
#X connect 154 0 55 0;
#X connect 154 0 54 0;
#X connect 155 0 76 0;
#X connect 155 0 75 0;
#X connect 156 0 97 0;
#X connect 156 0 96 0;
#X connect 157 0 20 0;
#X connect 157 0 19 0;
#X connect 158 0 41 0;
#X connect 158 0 40 0;
#X connect 159 0 62 0;
#X connect 159 0 61 0;
#X connect 160 0 83 0;
#X connect 160 0 82 0;
#X connect 161 0 104 0;
#X connect 161 0 103 0;
#X connect 162 0 5 0;
#X connect 163 0 26 0;
#X connect 164 0 47 0;
#X connect 165 0 68 0;
#X connect 166 0 89 0;
#X connect 167 0 110 0;
#X connect 168 0 12 0;
#X connect 169 0 33 0;
#X connect 170 0 54 0;
#X connect 171 0 75 0;
#X connect 172 0 96 0;
#X connect 173 0 19 0;
#X connect 174 0 40 0;
#X connect 175 0 61 0;
#X connect 176 0 82 0;
#X connect 177 0 103 0;
#X connect 178 0 8 1;
#X connect 178 0 29 1;
#X connect 178 0 50 1;
#X connect 178 0 71 1;
#X connect 178 0 92 1;
#X connect 178 0 113 1;
#X connect 178 0 15 1;
#X connect 178 0 36 1;
#X connect 178 0 57 1;
#X connect 178 0 78 1;
#X connect 178 0 99 1;
#X connect 178 0 22 1;
#X connect 178 0 43 1;
#X connect 178 0 64 1;
#X connect 178 0 85 1;
#X connect 178 0 106 1;
#X restore 308 246 pd toggles;
#X msg 202 29 0;
#X obj 202 9 loadbang;
#X obj 360 33 inlet;
#X connect 0 0 5 1;
#X connect 1 0 6 1;
#X connect 2 0 7 1;
#X connect 3 0 8 1;
#X connect 4 0 5 0;
#X connect 4 1 6 0;
#X connect 4 2 7 0;
#X connect 4 3 8 0;
#X connect 4 4 13 0;
#X connect 4 5 14 0;
#X connect 4 6 15 0;
#X connect 4 7 16 0;
#X connect 4 8 21 0;
#X connect 4 9 22 0;
#X connect 4 10 23 0;
#X connect 4 11 24 0;
#X connect 4 12 29 0;
#X connect 4 13 30 0;
#X connect 4 14 31 0;
#X connect 4 15 32 0;
#X connect 5 0 33 0;
#X connect 6 0 33 0;
#X connect 7 0 33 0;
#X connect 8 0 33 0;
#X connect 9 0 13 1;
#X connect 10 0 14 1;
#X connect 11 0 15 1;
#X connect 12 0 16 1;
#X connect 13 0 33 0;
#X connect 14 0 33 0;
#X connect 15 0 33 0;
#X connect 16 0 33 0;
#X connect 17 0 21 1;
#X connect 18 0 22 1;
#X connect 19 0 23 1;
#X connect 20 0 24 1;
#X connect 21 0 33 0;
#X connect 22 0 33 0;
#X connect 23 0 33 0;
#X connect 24 0 33 0;
#X connect 25 0 29 1;
#X connect 26 0 30 1;
#X connect 27 0 31 1;
#X connect 28 0 32 1;
#X connect 29 0 33 0;
#X connect 30 0 33 0;
#X connect 31 0 33 0;
#X connect 32 0 33 0;
#X connect 33 0 35 0;
#X connect 34 0 4 0;
#X connect 34 0 36 0;
#X connect 37 0 0 0;
#X connect 37 0 1 0;
#X connect 37 0 2 0;
#X connect 37 0 3 0;
#X connect 37 0 9 0;
#X connect 37 0 10 0;
#X connect 37 0 11 0;
#X connect 37 0 12 0;
#X connect 37 0 17 0;
#X connect 37 0 18 0;
#X connect 37 0 19 0;
#X connect 37 0 20 0;
#X connect 37 0 25 0;
#X connect 37 0 26 0;
#X connect 37 0 27 0;
#X connect 37 0 28 0;
#X connect 38 0 37 0;
#X connect 39 0 36 1;
#X coords 0 -1 1 1 195 12 2 100 100;
