#N canvas 18 43 1216 671 12;
#X obj 466 24 inlet~;
#X obj 101 101 cnv 15 148 48 empty empty Torpedo 3 7 1 9 -1 -162280
0;
#N canvas 266 125 407 510 makePreset 0;
#X obj 37 432 outlet message;
#X msg 52 93 preset.name;
#X obj 52 67 metro 5000;
#X obj 52 40 loadbang;
#X obj 69 119 r \$0-depth;
#X obj 87 142 r \$0-width;
#X obj 104 174 r \$0-scoop;
#X obj 124 200 r \$0-reso;
#X obj 143 228 r \$0-enph;
#X obj 37 365 pack s f f f f f;
#X msg 37 398 set \$1 \$2 \$3 \$4 \$5 \$6;
#X connect 1 0 9 0;
#X connect 2 0 1 0;
#X connect 3 0 2 0;
#X connect 4 0 9 1;
#X connect 5 0 9 2;
#X connect 6 0 9 3;
#X connect 7 0 9 4;
#X connect 8 0 9 5;
#X connect 9 0 10 0;
#X connect 10 0 0 0;
#X restore 63 465 pd makePreset;
#N canvas 429 50 334 366 loadPreset 0;
#X obj 53 39 inlet message;
#X obj 89 284 s \$0-depthR;
#X obj 122 255 s \$0-widthR;
#X obj 139 236 s \$0-scoopR;
#X obj 161 212 s \$0-resoR;
#X obj 178 191 s \$0-enphR;
#X obj 53 62 unpack s f f f f f;
#X connect 0 0 6 0;
#X connect 6 1 1 0;
#X connect 6 2 2 0;
#X connect 6 3 3 0;
#X connect 6 4 4 0;
#X connect 6 5 5 0;
#X restore 63 441 pd loadPreset;
#X msg 63 489 preset.name 0.949495 1.57576 -4.36364 1512.43 6.28263
;
#N canvas 467 50 528 710 presetDispenser 0;
#X obj 230 647 outlet;
#X msg 186 333;
#X msg 276 260;
#X msg 216 311;
#X msg 246 285;
#X msg 331 205;
#X msg 300 236;
#X obj 136 57 sel 0 1 2 3 4 5 6 7 8 9;
#X obj 136 28 inlet;
#X msg 740 604 preset.name 0.70702 1 -2 1292.24 5.9998;
#X msg 97 402 EMINENCE 0.70702 1 -2 1292.24 5.9998;
#X msg 63 434 INIT 0.707 1 -2 1500 6;
#X msg 126 376 JENSEN 0.949495 1.57576 -4.36364 1512.43 4.16141;
#X msg 155 354 GREENBACK 0.712121 0.666667 -1.15152 2015.04 12;
#X connect 1 0 0 0;
#X connect 2 0 0 0;
#X connect 3 0 0 0;
#X connect 4 0 0 0;
#X connect 5 0 0 0;
#X connect 6 0 0 0;
#X connect 7 0 11 0;
#X connect 7 1 10 0;
#X connect 7 2 12 0;
#X connect 7 3 13 0;
#X connect 7 4 1 0;
#X connect 7 5 3 0;
#X connect 7 6 4 0;
#X connect 7 7 2 0;
#X connect 7 8 6 0;
#X connect 7 9 5 0;
#X connect 8 0 7 0;
#X connect 10 0 0 0;
#X connect 11 0 0 0;
#X connect 12 0 0 0;
#X connect 13 0 0 0;
#X restore 63 409 pd presetDispenser;
#X obj 63 377 r \$0-preset;
#X obj 511 624 outlet~;
#X obj 63 254 loadbang;
#X obj 63 338 s \$0-presetR;
#X msg 63 283 0;
#X obj 460 583 *~;
#X obj 481 559 == 0;
#X obj 541 578 *~;
#X obj 540 530 r \$0-byp;
#X obj 75 313 s \$0-bypR;
#X obj 235 103 tgl 12 0 \$0-byp \$0-bypR B 3 6 1 10 -258699 -258699
-262144 1 1;
#X obj 235 228 sel 0 1;
#X obj 235 188 r \$0-byp;
#X obj 225 332 s \$0-bypR;
#X obj 166 105 hradio 8 1 0 8 \$0-preset \$0-presetR empty 0 -8 0 10
-66577 -162280 -1 2;
#X msg 225 265 color 2 2 1;
#X msg 267 298 color 13 13 0;
#X obj 107 118 mknob 18 100 0.5 1 0 0 \$0-depth \$0-depthR DEPTH -1
24 1 7 -66577 -162280 -191407 8900 1;
#X obj 138 118 mknob 18 100 0.5 2 0 0 \$0-width \$0-widthR WIDTH -1
24 1 7 -66577 -162280 -191407 7100 1;
#X obj 167 118 mknob 18 100 0 -6 0 0 \$0-scoop \$0-scoopR SCOOP -1
24 1 7 -66577 -162280 -191407 7200 1;
#X obj 196 118 mknob 18 100 1000 2500 1 0 \$0-reso \$0-resoR RESO 0
24 1 7 -66577 -162280 -191407 4470 1;
#X obj 224 118 mknob 18 100 -2 12 0 0 \$0-enph \$0-enphR ENPH 0 24
1 7 -66577 -162280 -191407 5857 1;
#X obj 718 288 * -1.5;
#X obj 549 59 r \$0-depth;
#X msg 549 87 \$1 50;
#X obj 549 112 line;
#X msg 619 113 \$1 50;
#X obj 619 138 line;
#X obj 619 88 r \$0-width;
#X msg 739 87 \$1 50;
#X obj 739 112 line;
#X obj 739 62 r \$0-scoop;
#X msg 462 244 \$1 50;
#X obj 462 269 line;
#X obj 462 219 r \$0-reso;
#X msg 871 78 \$1 50;
#X obj 871 103 line;
#X obj 871 53 r \$0-enph;
#X obj 759 265 max 0;
#X obj 615 337 * 2;
#X obj 612 386 * 4;
#X obj 552 242 biquad_peak~ 400;
#X obj 553 311 biquad_peak~ 1500 0.2;
#X obj 552 364 biquad_peak~ 3700 1.5;
#X obj 551 413 biquad_hish~ 6000 -10;
#X obj 551 438 biquad_hish~ 6000 -10;
#X obj 552 193 biquad_hpf~ 100 0.707;
#X msg 756 193 1.98614 -0.986309 0.993112 -1.98622 0.993112;
#X msg 709 242 1.923 -0.92564 0.985317 -1.923 0.940323;
#X msg 760 312 1.91567 -0.953839 0.984719 -1.91567 0.96912;
#X msg 758 364 1.60419 -0.738716 1.13864 -1.60419 0.600071;
#X msg 760 414 1.16987 -0.424847 0.430591 -0.28277 0.107159;
#X msg 755 443 1.16987 -0.424847 0.430591 -0.28277 0.107159;
#X msg 722 479 -0.462936 -0.209715 0.418163 0.836326 0.418163;
#X obj 553 477 biquad_lpf~ 15000;
#X connect 0 0 11 0;
#X connect 0 0 52 0;
#X connect 2 0 4 0;
#X connect 5 0 3 0;
#X connect 6 0 5 0;
#X connect 8 0 10 0;
#X connect 10 0 9 0;
#X connect 10 0 15 0;
#X connect 11 0 7 0;
#X connect 12 0 11 1;
#X connect 13 0 7 0;
#X connect 14 0 12 0;
#X connect 14 0 13 1;
#X connect 17 0 21 0;
#X connect 17 1 22 0;
#X connect 18 0 17 0;
#X connect 21 0 19 0;
#X connect 22 0 19 0;
#X connect 28 0 48 3;
#X connect 29 0 30 0;
#X connect 30 0 31 0;
#X connect 31 0 52 2;
#X connect 32 0 33 0;
#X connect 33 0 47 2;
#X connect 34 0 32 0;
#X connect 35 0 36 0;
#X connect 36 0 47 3;
#X connect 37 0 35 0;
#X connect 38 0 39 0;
#X connect 39 0 45 0;
#X connect 39 0 46 0;
#X connect 39 0 48 1;
#X connect 40 0 38 0;
#X connect 41 0 42 0;
#X connect 42 0 44 0;
#X connect 42 0 49 3;
#X connect 43 0 41 0;
#X connect 44 0 28 0;
#X connect 45 0 49 1;
#X connect 46 0 50 1;
#X connect 46 0 51 1;
#X connect 47 0 48 0;
#X connect 47 1 54 0;
#X connect 48 0 49 0;
#X connect 48 1 55 0;
#X connect 49 0 50 0;
#X connect 49 1 56 0;
#X connect 50 0 51 0;
#X connect 50 1 57 0;
#X connect 51 0 60 0;
#X connect 51 1 58 0;
#X connect 52 0 47 0;
#X connect 52 1 53 0;
#X connect 60 0 13 0;
#X connect 60 1 59 0;
#X coords 0 -1 1 1 150 50 2 100 100;
