#N canvas 466 113 532 542 10;
#X obj 178 72 inlet~;
#X obj 244 72 inlet~;
#X obj 375 70 inlet~;
#X obj 436 70 inlet~;
#X obj 312 70 inlet~;
#X obj 81 70 inlet~;
#X obj 156 251 cpole~;
#X obj 197 296 cpole~;
#X obj 331 336 czero~;
#X obj 371 378 czero~;
#X obj 269 474 outlet~;
#X text 178 50 a1;
#X text 245 50 a2;
#X text 319 49 b0;
#X text 383 49 b1;
#X text 446 48 b2;
#X obj 348 474 outlet~;
#X obj 350 259 quadroots~;
#X obj 182 175 quadroots~ 1;
#X connect 0 0 18 1;
#X connect 1 0 18 2;
#X connect 2 0 17 1;
#X connect 3 0 17 2;
#X connect 4 0 17 0;
#X connect 5 0 6 0;
#X connect 6 0 7 0;
#X connect 6 1 7 1;
#X connect 7 0 8 0;
#X connect 7 1 8 1;
#X connect 8 0 9 0;
#X connect 8 1 9 1;
#X connect 9 0 10 0;
#X connect 9 1 16 0;
#X connect 17 0 8 2;
#X connect 17 1 8 3;
#X connect 17 2 9 2;
#X connect 17 3 9 3;
#X connect 18 0 6 2;
#X connect 18 1 6 3;
#X connect 18 2 7 2;
#X connect 18 3 7 3;
