#N canvas 385 168 450 300 10;
#X obj 66 27 inlet~ audioIN;
#X obj 140 254 vd~ \$0-del;
#X obj 179 28 inlet delay;
#X obj 66 323 outlet~ audioOUT;
#X obj 70 107 -~;
#X obj 66 272 +~;
#X obj 69 161 *~ 0.7;
#X obj 86 80 *~ 0.7;
#X obj 85 134 delwrite~ \$0-del 200;
#X obj 366 51 switch~;
#X obj 366 27 inlet;
#X obj 284 149 f \$1;
#X obj 297 107 loadbang;
#X msg 331 150 1;
#X msg 140 209 \$1 200;
#X obj 140 230 line~;
#X obj 144 186 clip 0 200;
#X connect 0 0 4 0;
#X connect 1 0 5 1;
#X connect 1 0 7 0;
#X connect 2 0 16 0;
#X connect 4 0 6 0;
#X connect 4 0 8 0;
#X connect 5 0 3 0;
#X connect 6 0 5 0;
#X connect 7 0 4 1;
#X connect 10 0 9 0;
#X connect 11 0 16 0;
#X connect 12 0 11 0;
#X connect 12 0 13 0;
#X connect 13 0 9 0;
#X connect 14 0 15 0;
#X connect 15 0 1 0;
#X connect 16 0 14 0;
