#N canvas 79 122 1302 726 10;
#X obj 99 58 inlet~ audioIN;
#X obj 214 58 inlet delay;
#X obj 95 471 outlet~ audioOUT;
#X obj 100 213 -~;
#X obj 155 338 clip 0 200;
#X obj 245 417 clip -1 1;
#X obj 407 57 inlet damp;
#X obj 303 58 inlet feedback;
#X obj 222 240 clip 1 15000;
#X obj 486 82 switch~;
#X obj 486 58 inlet;
#X obj 154 434 *~;
#X obj 155 409 vd~ \$0-del;
#X obj 117 302 delwrite~ \$0-del 200;
#X obj 116 257 lop~;
#X obj 554 278 f \$1;
#X obj 557 226 loadbang;
#X obj 619 282 f \$2;
#X obj 695 284 f \$3;
#X msg 723 227 1;
#X obj 155 387 line~;
#X msg 155 362 \$1 200;
#X connect 0 0 3 0;
#X connect 1 0 4 0;
#X connect 3 0 2 0;
#X connect 3 0 14 0;
#X connect 4 0 21 0;
#X connect 5 0 11 1;
#X connect 6 0 8 0;
#X connect 7 0 5 0;
#X connect 8 0 14 1;
#X connect 10 0 9 0;
#X connect 11 0 3 1;
#X connect 12 0 11 0;
#X connect 14 0 13 0;
#X connect 15 0 4 0;
#X connect 16 0 15 0;
#X connect 16 0 17 0;
#X connect 16 0 18 0;
#X connect 16 0 19 0;
#X connect 17 0 5 0;
#X connect 18 0 8 0;
#X connect 19 0 9 0;
#X connect 20 0 12 0;
#X connect 21 0 20 0;
