#N canvas 340 95 714 491 10;
#X obj 473 309 f \$0;
#X obj 236 347 pack f f;
#X obj 101 101 cnv 6 6 23 empty \$0-white empty 20 12 0 14 -262144
-66577 0;
#X obj 473 251 loadbang;
#X msg 229 250 0;
#X msg 235 391 \; \$2-white color \$1;
#X obj 249 27 inlet;
#X obj 258 83 > 0;
#X obj 252 55 unpack;
#X obj 229 184 sel 0;
#X msg 262 250 13;
#X msg 295 250 16;
#X msg 331 250 18;
#X msg 362 250 15;
#X obj 284 165 *;
#X obj 283 187 sel 1 2 3 4;
#X text 335 518 Michele Abruzzese (@shindeibrauns) 2017.01.30;
#X connect 0 0 1 1;
#X connect 1 0 5 0;
#X connect 3 0 0 0;
#X connect 4 0 1 0;
#X connect 6 0 8 0;
#X connect 7 0 14 0;
#X connect 7 0 9 0;
#X connect 8 0 7 0;
#X connect 8 1 14 1;
#X connect 9 0 4 0;
#X connect 10 0 1 0;
#X connect 11 0 1 0;
#X connect 12 0 1 0;
#X connect 13 0 1 0;
#X connect 14 0 15 0;
#X connect 15 0 10 0;
#X connect 15 1 11 0;
#X connect 15 2 12 0;
#X connect 15 3 13 0;
#X coords 0 -1 1 1 8 25 2 100 100;
