#N canvas 0 50 714 491 10;
#X obj 420 200 f \$0;
#X obj 236 347 pack f f;
#X obj 100 115 tgl 10 0 empty empty empty 17 7 0 10 -262144 -1 -1 0
1;
#X obj 79 261 outlet;
#X obj 101 101 cnv 8 8 23 empty \$0-white empty 20 12 0 14 -262144
-66577 0;
#X obj 224 120 sel 0 1;
#X obj 420 142 loadbang;
#X msg 229 250 0;
#X msg 325 157 set \$1;
#X obj 325 117 r \$0-color;
#X msg 262 250 1;
#X msg 235 391 \; \$2-white color \$1;
#X obj 99 47 route \$1;
#X obj 90 13 inlet;
#X obj 99 69 > 0;
#X connect 0 0 1 1;
#X connect 1 0 11 0;
#X connect 2 0 3 0;
#X connect 2 0 5 0;
#X connect 5 0 7 0;
#X connect 5 1 10 0;
#X connect 6 0 0 0;
#X connect 7 0 1 0;
#X connect 8 0 10 0;
#X connect 9 0 8 0;
#X connect 10 0 1 0;
#X connect 12 0 14 0;
#X connect 13 0 12 0;
#X connect 14 0 2 0;
#X coords 0 -1 1 1 10 25 2 100 100;
