#N canvas 340 95 714 491 10;
#X obj 534 229 f \$0;
#X obj 236 347 pack f f;
#X obj 100 115 tgl 10 0 empty empty empty 17 7 0 10 -262144 -1 -1 0
1;
#X obj 79 261 outlet;
#X obj 101 101 cnv 8 8 23 empty \$0-white empty 20 12 0 14 -262144
-66577 0;
#X obj 534 171 loadbang;
#X msg 229 250 0;
#X msg 235 391 \; \$2-white color \$1;
#X obj 90 13 inlet;
#X obj 99 69 > 0;
#X obj 93 41 unpack;
#X obj 223 127 sel 0;
#X msg 262 250 13;
#X msg 295 250 16;
#X msg 331 250 18;
#X msg 362 250 15;
#X obj 191 78 *;
#X obj 240 19 loadbang;
#X msg 229 42 5;
#X obj 280 112 sel 1 2 3 4 5;
#X msg 422 249 1;
#X connect 0 0 1 1;
#X connect 1 0 7 0;
#X connect 2 0 3 0;
#X connect 2 0 11 0;
#X connect 2 0 16 0;
#X connect 5 0 0 0;
#X connect 6 0 1 0;
#X connect 8 0 10 0;
#X connect 9 0 2 0;
#X connect 10 0 9 0;
#X connect 10 1 16 1;
#X connect 11 0 6 0;
#X connect 12 0 1 0;
#X connect 13 0 1 0;
#X connect 14 0 1 0;
#X connect 15 0 1 0;
#X connect 16 0 19 0;
#X connect 17 0 18 0;
#X connect 18 0 16 1;
#X connect 19 0 12 0;
#X connect 19 1 13 0;
#X connect 19 2 14 0;
#X connect 19 3 15 0;
#X connect 19 4 20 0;
#X connect 20 0 1 0;
#X coords 0 -1 1 1 10 25 2 100 100;
