#N canvas 600 124 617 749 10;
#X obj 106 85 inlet~;
#X obj 108 663 outlet~;
#X obj 227 82 inlet;
#X obj 333 82 inlet;
#X text 274 81 fc;
#N canvas 270 362 450 300 OMEGA 0;
#X obj 128 43 inlet;
#X obj 191 251 outlet;
#X obj 198 96 samplerate~;
#X obj 198 70 loadbang;
#X obj 198 118 t b f;
#X obj 198 170 * 2;
#X obj 198 191 * 3.14159;
#X obj 198 148 / 48000;
#X obj 197 223 sin;
#X obj 123 252 outlet;
#X obj 129 224 cos;
#X obj 251 251 outlet;
#X connect 0 0 7 0;
#X connect 2 0 4 0;
#X connect 3 0 2 0;
#X connect 4 0 7 0;
#X connect 4 1 7 1;
#X connect 5 0 6 0;
#X connect 6 0 8 0;
#X connect 6 0 10 0;
#X connect 6 0 11 0;
#X connect 7 0 5 0;
#X connect 8 0 1 0;
#X connect 10 0 9 0;
#X restore 227 163 pd OMEGA;
#N canvas 240 316 450 300 ALPHA 0;
#X obj 128 43 inlet;
#X obj 211 233 outlet;
#X obj 257 94 * 2;
#X obj 278 41 inlet;
#X obj 211 152 /;
#X obj 227 126 t b f;
#X connect 0 0 4 0;
#X connect 2 0 5 0;
#X connect 3 0 2 0;
#X connect 4 0 1 0;
#X connect 5 0 4 0;
#X connect 5 1 4 1;
#X restore 341 268 pd ALPHA;
#X obj 406 292 + 1;
#X obj 341 309 + 1;
#X obj 341 290 * -1;
#X obj 124 248 * -2;
#X obj 134 316 /;
#X obj 144 292 t b f;
#X obj 195 360 /;
#X obj 207 336 t b f;
#X obj 195 417 t b f;
#X obj 394 190 f \$2;
#X obj 424 64 loadbang;
#X obj 235 118 f \$1;
#X obj 235 138 expr if($f1 <= 0 \, 1000 \, $f1);
#X obj 424 88 t b b;
#X obj 108 636 biquad~ 0 0 1 0 0;
#X obj 241 469 t b f;
#X obj 133 342 * -1;
#X obj 195 390 * -1;
#X msg 122 612 \$1 \$2 \$3 \$4 \$5;
#X obj 267 422 /;
#X obj 307 394 t b f;
#X obj 125 585 pack f f f 0 f;
#X obj 290 469 t b f;
#X obj 144 273 r \$0-1+alpha;
#X obj 195 296 r \$0-1-alpha;
#X obj 207 317 r \$0-1+alpha;
#X obj 307 375 r \$0-1+alpha;
#X obj 341 328 s \$0-1-alpha;
#X obj 432 328 s \$0-1+alpha;
#X obj 290 445 * -1;
#X obj 394 212 expr if($f1 <= 0 \, 1/sqrt(2) \, $f1);
#N canvas 0 50 450 300 BW2Q 0;
#X obj 95 41 inlet;
#X obj 245 364 outlet;
#X text 149 41 Bandwidth;
#X text 303 364 Q;
#X obj 244 46 inlet;
#X obj 277 181 sin;
#X obj 245 202 /;
#X obj 245 263 * 0.34657;
#X obj 245 241 *;
#X obj 245 161 t f f;
#X obj 245 221 t b f;
#X obj 245 283 expr 2*sinh($f1);
#X obj 245 302 swap 1;
#X obj 245 322 /;
#X text 286 46 w;
#X connect 0 0 8 0;
#X connect 4 0 9 0;
#X connect 5 0 6 1;
#X connect 6 0 10 0;
#X connect 7 0 11 0;
#X connect 8 0 7 0;
#X connect 9 0 6 0;
#X connect 9 1 5 0;
#X connect 10 0 8 0;
#X connect 10 1 8 1;
#X connect 11 0 12 0;
#X connect 12 0 13 0;
#X connect 12 1 13 1;
#X connect 13 0 1 0;
#X restore 394 238 pd BW2Q;
#X text 384 83 BW;
#X msg 263 627 set \$1 \$2 \$3 \$4 \$5;
#X obj 263 662 outlet;
#X connect 0 0 21 0;
#X connect 2 0 19 0;
#X connect 3 0 37 0;
#X connect 5 0 10 0;
#X connect 5 1 6 0;
#X connect 5 2 38 1;
#X connect 6 0 7 0;
#X connect 6 0 9 0;
#X connect 6 0 26 0;
#X connect 7 0 35 0;
#X connect 8 0 34 0;
#X connect 9 0 8 0;
#X connect 10 0 11 0;
#X connect 11 0 23 0;
#X connect 12 0 11 0;
#X connect 12 1 11 1;
#X connect 13 0 24 0;
#X connect 14 0 13 0;
#X connect 14 1 13 1;
#X connect 15 0 28 0;
#X connect 15 1 28 1;
#X connect 16 0 37 0;
#X connect 17 0 20 0;
#X connect 18 0 19 0;
#X connect 19 0 5 0;
#X connect 20 0 18 0;
#X connect 20 1 16 0;
#X connect 21 0 1 0;
#X connect 22 0 28 0;
#X connect 22 1 28 2;
#X connect 23 0 28 0;
#X connect 24 0 15 0;
#X connect 25 0 21 0;
#X connect 26 0 36 0;
#X connect 26 0 22 0;
#X connect 27 0 26 0;
#X connect 27 1 26 1;
#X connect 28 0 25 0;
#X connect 28 0 40 0;
#X connect 29 0 28 0;
#X connect 29 1 28 4;
#X connect 30 0 12 0;
#X connect 31 0 13 0;
#X connect 32 0 14 0;
#X connect 33 0 27 0;
#X connect 36 0 29 0;
#X connect 37 0 38 0;
#X connect 38 0 6 1;
#X connect 40 0 41 0;
