#N canvas 266 331 600 397 12;
#X obj 257 23 inlet;
#X obj 305 23 inlet;
#X obj 355 22 inlet;
#X text 256 2 red;
#X text 304 1 green;
#X text 359 1 blue;
#X obj 379 106 t b f;
#X obj 313 139 +;
#X obj 313 164 t b f;
#X obj 313 195 +;
#X obj 236 83 * -65536;
#X obj 313 84 * -256;
#X obj 379 84 * -1;
#X obj 313 226 - 1;
#X obj 313 348 outlet;
#X obj 236 57 i;
#X obj 313 57 i;
#X obj 379 57 i;
#X connect 0 0 15 0;
#X connect 1 0 16 0;
#X connect 2 0 17 0;
#X connect 6 0 7 0;
#X connect 6 1 7 1;
#X connect 7 0 8 0;
#X connect 8 0 9 0;
#X connect 8 1 9 1;
#X connect 9 0 13 0;
#X connect 10 0 9 0;
#X connect 11 0 7 0;
#X connect 12 0 6 0;
#X connect 13 0 14 0;
#X connect 15 0 10 0;
#X connect 16 0 11 0;
#X connect 17 0 12 0;
#X coords 0 397 1 396 80 49 0;
