#N canvas -1822 -48 450 300 12;
#X obj 274 119 f \$0;
#X obj 245 149 pack;
#X obj 274 93 loadbang;
#X msg 245 183 \; \$2-show color \$1;
#X obj 101 101 cnv 15 43 43 empty empty empty 20 12 0 14 #000000 #404040 0;
#X obj 104 104 cnv 15 37 37 empty \$0-show empty 20 12 0 14 #ffffff #404040 0;
#X obj 157 43 inlet;
#X obj 157 233 outlet;
#X text 222 42 Pd color value;
#X connect 0 0 1 1;
#X connect 1 0 3 0;
#X connect 2 0 0 0;
#X connect 6 0 1 0;
#X connect 6 0 7 0;
#X coords 0 -1 1 1 45 45 2 100 100;
