#N canvas 0 0 1349 706 10;
#N canvas 0 0 450 300 easeIn 0;
#X obj 198 172 *~;
#X obj 213 146 line~;
#X obj 116 52 inlet~;
#X obj 242 52 inlet;
#X obj 198 215 outlet~;
#X msg 213 120 \$1 50;
#X connect 0 0 4 0;
#X connect 1 0 0 1;
#X connect 2 0 0 0;
#X connect 3 0 5 0;
#X connect 5 0 1 0;
#X restore 443 229 pd easeIn;
#N canvas 0 0 450 300 easeIn 0;
#X obj 198 172 *~;
#X obj 213 146 line~;
#X obj 116 52 inlet~;
#X obj 242 52 inlet;
#X obj 198 215 outlet~;
#X msg 213 120 \$1 50;
#X connect 0 0 4 0;
#X connect 1 0 0 1;
#X connect 2 0 0 0;
#X connect 3 0 5 0;
#X connect 5 0 1 0;
#X restore 417 531 pd easeIn;
#X obj 104 139 vsl 13 70 0.001 1 1 0 \$0-v1 \$0-foo empty 0 -9 0 10
-262144 -1 -1 0 1;
#X obj 590 635 outlet~ AUDIO_OUT;
#X obj 518 82 inlet~ AUDIO_IN;
#X obj 104 104 nbx 4 15 100 9999 0 0 \$0-time \$0-foo empty 0 -8 0
12 -262144 -1 -1 9999 256 0;
#X obj 233 392 send \$0-foo;
#X obj 117 139 vsl 13 70 0.001 1 1 0 \$0-v2 \$0-foo empty 0 -9 0 10
-262144 -1 -1 0 1;
#X obj 130 139 vsl 13 70 0.001 1 1 0 \$0-v3 \$0-foo empty 0 -9 0 10
-262144 -1 -1 0 1;
#X obj 143 139 vsl 13 70 0.001 1 1 0 \$0-v4 \$0-foo empty 0 -9 0 10
-262144 -1 -1 0 1;
#X obj 420 349 r \$0-time;
#X msg 416 374 \$1 100;
#X obj 468 511 r \$0-v1;
#N canvas 0 0 450 300 easeIn 0;
#X obj 198 172 *~;
#X obj 213 146 line~;
#X obj 116 52 inlet~;
#X obj 242 52 inlet;
#X obj 198 215 outlet~;
#X msg 213 120 \$1 50;
#X connect 0 0 4 0;
#X connect 1 0 0 1;
#X connect 2 0 0 0;
#X connect 3 0 5 0;
#X connect 5 0 1 0;
#X restore 545 531 pd easeIn;
#N canvas 0 0 450 300 easeIn 0;
#X obj 198 172 *~;
#X obj 213 146 line~;
#X obj 116 52 inlet~;
#X obj 242 52 inlet;
#X obj 198 215 outlet~;
#X msg 213 120 \$1 50;
#X connect 0 0 4 0;
#X connect 1 0 0 1;
#X connect 2 0 0 0;
#X connect 3 0 5 0;
#X connect 5 0 1 0;
#X restore 670 531 pd easeIn;
#N canvas 0 0 450 300 easeIn 0;
#X obj 198 172 *~;
#X obj 213 146 line~;
#X obj 116 52 inlet~;
#X obj 242 52 inlet;
#X obj 198 215 outlet~;
#X msg 213 120 \$1 50;
#X connect 0 0 4 0;
#X connect 1 0 0 1;
#X connect 2 0 0 0;
#X connect 3 0 5 0;
#X connect 5 0 1 0;
#X restore 795 531 pd easeIn;
#N canvas 0 0 450 300 easeIn 0;
#X obj 198 172 *~;
#X obj 213 146 line~;
#X obj 116 52 inlet~;
#X obj 242 52 inlet;
#X obj 198 215 outlet~;
#X msg 213 120 \$1 50;
#X connect 0 0 4 0;
#X connect 1 0 0 1;
#X connect 2 0 0 0;
#X connect 3 0 5 0;
#X connect 5 0 1 0;
#X restore 606 229 pd easeIn;
#N canvas 0 0 450 300 easeIn 0;
#X obj 198 172 *~;
#X obj 213 146 line~;
#X obj 116 52 inlet~;
#X obj 242 52 inlet;
#X obj 198 215 outlet~;
#X msg 213 120 \$1 50;
#X connect 0 0 4 0;
#X connect 1 0 0 1;
#X connect 2 0 0 0;
#X connect 3 0 5 0;
#X connect 5 0 1 0;
#X restore 769 229 pd easeIn;
#N canvas 0 0 450 300 easeIn 0;
#X obj 198 172 *~;
#X obj 213 146 line~;
#X obj 116 52 inlet~;
#X obj 242 52 inlet;
#X obj 198 215 outlet~;
#X msg 213 120 \$1 50;
#X connect 0 0 4 0;
#X connect 1 0 0 1;
#X connect 2 0 0 0;
#X connect 3 0 5 0;
#X connect 5 0 1 0;
#X restore 932 229 pd easeIn;
#X obj 443 271 delwrite~ \$0-line_1 10000;
#X obj 606 271 delwrite~ \$0-line_2 10000;
#X obj 769 271 delwrite~ \$0-line_3 10000;
#X obj 932 271 delwrite~ \$0-line_4 10000;
#X obj 596 511 r \$0-v2;
#X obj 721 511 r \$0-v3;
#X obj 846 511 r \$0-v4;
#X obj 233 356 loadbang;
#X obj 518 226 r~ \$0-fb_1;
#X obj 675 229 r~ \$0-fb_2;
#X obj 838 229 r~ \$0-fb_3;
#X obj 1002 231 r~ \$0-fb_4;
#X obj 461 480 s~ \$0-fb_1;
#X obj 589 480 s~ \$0-fb_2;
#X obj 714 480 s~ \$0-fb_3;
#X obj 839 480 s~ \$0-fb_4;
#X obj 256 126 loadbang;
#X msg 259 159 5000;
#X obj 104 123 tgl 13 0 \$0-tg1 \$0-foo empty 17 7 0 10 -262144 -1
-1 0 1;
#X obj 117 123 tgl 13 0 \$0-tg2 \$0-foo empty 17 7 0 10 -262144 -1
-1 0 1;
#X obj 130 123 tgl 13 0 \$0-tg3 \$0-foo empty 17 7 0 10 -262144 -1
-1 0 1;
#X obj 143 123 tgl 13 0 \$0-tg4 \$0-foo empty 17 7 0 10 -262144 -1
-1 0 1;
#X obj 493 204 r \$0-tg1;
#X obj 657 204 r \$0-tg2;
#X obj 820 204 r \$0-tg3;
#X obj 983 204 r \$0-tg4;
#X obj 417 450 vd~ \$0-line_1;
#X obj 545 450 vd~ \$0-line_2;
#X obj 670 450 vd~ \$0-line_3;
#X obj 795 450 vd~ \$0-line_4;
#X obj 416 395 line~;
#X connect 0 0 19 0;
#X connect 1 0 3 0;
#X connect 4 0 0 0;
#X connect 4 0 16 0;
#X connect 4 0 17 0;
#X connect 4 0 18 0;
#X connect 10 0 11 0;
#X connect 11 0 49 0;
#X connect 12 0 1 1;
#X connect 13 0 3 0;
#X connect 14 0 3 0;
#X connect 15 0 3 0;
#X connect 16 0 20 0;
#X connect 17 0 21 0;
#X connect 18 0 22 0;
#X connect 23 0 13 1;
#X connect 24 0 14 1;
#X connect 25 0 15 1;
#X connect 26 0 6 0;
#X connect 27 0 19 0;
#X connect 28 0 20 0;
#X connect 29 0 21 0;
#X connect 30 0 22 0;
#X connect 35 0 36 0;
#X connect 36 0 5 0;
#X connect 41 0 0 1;
#X connect 42 0 16 1;
#X connect 43 0 17 1;
#X connect 44 0 18 1;
#X connect 45 0 1 0;
#X connect 45 0 31 0;
#X connect 46 0 13 0;
#X connect 46 0 32 0;
#X connect 47 0 14 0;
#X connect 47 0 33 0;
#X connect 48 0 15 0;
#X connect 48 0 34 0;
#X connect 49 0 45 0;
#X connect 49 0 46 0;
#X connect 49 0 47 0;
#X connect 49 0 48 0;
#X coords 0 -1 1 1 60 118 2 100 100;
