#N canvas 517 50 740 700 10;
#X obj 106 85 inlet~;
#X obj 105 657 outlet~;
#X obj 227 82 inlet;
#X obj 458 82 inlet;
#X text 236 62 fc;
#N canvas 407 370 450 300 OMEGA 0;
#X obj 128 43 inlet;
#X obj 198 96 samplerate~;
#X obj 198 70 loadbang;
#X obj 198 118 t b f;
#X obj 198 170 * 2;
#X obj 198 191 * 3.14159;
#X obj 198 148 / 48000;
#X obj 123 252 outlet;
#X connect 0 0 6 0;
#X connect 1 0 3 0;
#X connect 2 0 1 0;
#X connect 3 0 6 0;
#X connect 3 1 6 1;
#X connect 4 0 5 0;
#X connect 5 0 7 0;
#X connect 6 0 4 0;
#X restore 202 232 pd OMEGA;
#X obj 202 184 f \$1;
#X obj 202 207 expr if($f1 <= 0 \, 1000 \, $f1);
#X obj 105 630 biquad~ 0 0 1 0 0;
#X msg 119 606 \$1 \$2 \$3 \$4 \$5;
#X obj 361 82 inlet;
#X text 362 60 dBgain;
#X obj 119 582 pack f f f f f;
#X text 469 61 S;
#N canvas 221 356 450 300 2sqrtAa 0;
#X obj 76 26 inlet;
#X obj 155 275 outlet;
#X text 119 26 S;
#X obj 155 165 *;
#X obj 208 22 r \$0-A;
#X obj 208 100 + 1;
#X obj 189 165 * 2;
#X obj 155 199 +;
#X text 207 273 2sqrtAa;
#X obj 76 76 pow -1;
#X obj 76 122 - 1;
#X obj 208 77 *;
#X obj 208 43 t f f f;
#X obj 155 235 pow 0.5;
#X connect 0 0 9 0;
#X connect 3 0 7 0;
#X connect 4 0 12 0;
#X connect 5 0 3 1;
#X connect 6 0 7 1;
#X connect 7 0 13 0;
#X connect 9 0 10 0;
#X connect 10 0 3 0;
#X connect 11 0 5 0;
#X connect 12 0 11 0;
#X connect 12 1 11 1;
#X connect 12 2 6 0;
#X connect 13 0 1 0;
#X restore 504 276 pd 2sqrtAa;
#X obj 336 173 s \$0-A;
#X obj 504 300 s \$0-slope;
#N canvas 557 282 450 300 norm 0;
#X obj 143 45 r \$0-A;
#X obj 244 49 r \$0-slope;
#X obj 114 142 *;
#X obj 172 203 +;
#X obj 172 232 s \$0-norm;
#X obj 205 114 *;
#X obj 205 90 sin;
#X obj 59 86 cos;
#X obj 59 32 r \$0-w;
#X obj 59 59 t f f;
#X obj 162 119 + 1;
#X obj 133 118 - 1;
#X obj 111 163 swap;
#X obj 114 184 -;
#X connect 0 0 11 0;
#X connect 0 0 10 0;
#X connect 1 0 5 1;
#X connect 2 0 12 0;
#X connect 3 0 4 0;
#X connect 5 0 3 1;
#X connect 6 0 5 0;
#X connect 7 0 2 0;
#X connect 8 0 9 0;
#X connect 9 0 7 0;
#X connect 9 1 6 0;
#X connect 10 0 12 1;
#X connect 11 0 2 1;
#X connect 12 0 13 0;
#X connect 12 1 13 1;
#X connect 13 0 3 0;
#X restore 114 280 pd norm;
#N canvas 825 323 292 341 fb1 0;
#X obj 110 55 r \$0-A;
#X obj 192 146 r \$0-norm;
#X obj 100 111 - 1;
#X obj 68 111 + 1;
#X obj 50 145 *;
#X obj 82 258 /;
#X obj 82 237 t b f;
#X obj 82 294 outlet;
#X obj 50 83 cos;
#X obj 50 55 r \$0-w;
#X obj 50 219 * -2;
#X obj 50 197 -;
#X obj 48 172 swap;
#X connect 0 0 3 0;
#X connect 0 0 2 0;
#X connect 1 0 6 0;
#X connect 2 0 12 1;
#X connect 3 0 4 1;
#X connect 4 0 12 0;
#X connect 5 0 7 0;
#X connect 6 0 5 0;
#X connect 6 1 5 1;
#X connect 8 0 4 0;
#X connect 9 0 8 0;
#X connect 10 0 5 0;
#X connect 11 0 10 0;
#X connect 12 0 11 0;
#X connect 12 1 11 1;
#X restore 119 385 pd fb1;
#N canvas 804 295 292 341 ff1 0;
#X obj 199 36 r \$0-A;
#X obj 192 146 r \$0-norm;
#X obj 98 105 - 1;
#X obj 68 105 + 1;
#X obj 50 136 *;
#X obj 101 265 /;
#X obj 101 244 t b f;
#X obj 101 301 outlet;
#X obj 50 244 *;
#X obj 50 81 cos;
#X obj 50 46 r \$0-w;
#X obj 50 219 * -2;
#X obj 50 178 +;
#X connect 0 0 2 0;
#X connect 0 0 3 0;
#X connect 0 0 8 1;
#X connect 1 0 6 0;
#X connect 2 0 12 1;
#X connect 3 0 4 1;
#X connect 4 0 12 0;
#X connect 5 0 7 0;
#X connect 6 0 5 0;
#X connect 6 1 5 1;
#X connect 8 0 5 0;
#X connect 9 0 4 0;
#X connect 10 0 9 0;
#X connect 11 0 8 0;
#X connect 12 0 11 0;
#X restore 255 420 pd ff1;
#N canvas 788 351 292 341 fb2 0;
#X obj 118 19 r \$0-A;
#X obj 112 215 r \$0-norm;
#X obj 37 129 *;
#X obj 101 268 /;
#X obj 101 247 t b f;
#X obj 101 297 outlet;
#X obj 126 95 + 1;
#X obj 96 95 - 1;
#X obj 63 212 -;
#X obj 142 161 r \$0-slope;
#X obj 63 231 * -1;
#X obj 37 94 cos;
#X obj 111 161 sin;
#X obj 37 62 t f f;
#X obj 111 185 *;
#X obj 37 19 r \$0-w;
#X obj 37 181 -;
#X obj 34 157 swap;
#X connect 0 0 6 0;
#X connect 0 0 7 0;
#X connect 1 0 4 0;
#X connect 2 0 17 0;
#X connect 3 0 5 0;
#X connect 4 0 3 0;
#X connect 4 1 3 1;
#X connect 6 0 17 1;
#X connect 7 0 2 1;
#X connect 8 0 10 0;
#X connect 9 0 14 1;
#X connect 10 0 3 0;
#X connect 11 0 2 0;
#X connect 12 0 14 0;
#X connect 13 0 11 0;
#X connect 13 1 12 0;
#X connect 14 0 8 1;
#X connect 15 0 13 0;
#X connect 16 0 8 0;
#X connect 17 0 16 0;
#X connect 17 1 16 1;
#X restore 170 391 pd fb2;
#N canvas 750 281 292 341 ff0 0;
#X obj 186 18 r \$0-A;
#X obj 112 215 r \$0-norm;
#X obj 49 138 *;
#X obj 101 268 /;
#X obj 101 247 t b f;
#X obj 101 297 outlet;
#X obj 96 110 + 1;
#X obj 67 111 - 1;
#X obj 176 103 r \$0-slope;
#X obj 63 231 *;
#X obj 63 212 +;
#X obj 158 133 sin;
#X obj 158 163 *;
#X obj 49 45 t f f;
#X obj 49 17 r \$0-w;
#X obj 49 74 cos;
#X obj 49 171 +;
#X connect 0 0 6 0;
#X connect 0 0 7 0;
#X connect 0 0 9 1;
#X connect 1 0 4 0;
#X connect 2 0 16 0;
#X connect 3 0 5 0;
#X connect 4 0 3 0;
#X connect 4 1 3 1;
#X connect 6 0 16 1;
#X connect 7 0 2 1;
#X connect 8 0 12 1;
#X connect 9 0 3 0;
#X connect 10 0 9 0;
#X connect 11 0 12 0;
#X connect 12 0 10 1;
#X connect 13 0 15 0;
#X connect 13 1 11 0;
#X connect 14 0 13 0;
#X connect 15 0 2 0;
#X connect 16 0 10 0;
#X restore 221 399 pd ff0;
#X obj 336 124 f \$2;
#X obj 433 206 f \$3;
#X obj 137 432 t b f;
#X obj 178 459 t b f;
#X obj 219 485 t b f;
#X obj 260 504 t b f;
#X obj 554 99 bang;
#X obj 554 121 s \$0-bang;
#X obj 323 29 t b b b;
#X obj 323 8 r \$0-bang;
#X obj 609 98 loadbang;
#X obj 336 148 expr pow(10 \, $f1/40);
#X obj 202 255 s \$0-w;
#N canvas 794 310 292 341 ff2 0;
#X obj 186 18 r \$0-A;
#X obj 112 215 r \$0-norm;
#X obj 49 138 *;
#X obj 101 268 /;
#X obj 101 247 t b f;
#X obj 101 297 outlet;
#X obj 96 110 + 1;
#X obj 67 111 - 1;
#X obj 176 103 r \$0-slope;
#X obj 63 231 *;
#X obj 158 133 sin;
#X obj 158 163 *;
#X obj 49 45 t f f;
#X obj 49 17 r \$0-w;
#X obj 49 74 cos;
#X obj 63 212 -;
#X obj 48 167 +;
#X connect 0 0 6 0;
#X connect 0 0 7 0;
#X connect 0 0 9 1;
#X connect 1 0 4 0;
#X connect 2 0 16 0;
#X connect 3 0 5 0;
#X connect 4 0 3 0;
#X connect 4 1 3 1;
#X connect 6 0 16 1;
#X connect 7 0 2 1;
#X connect 8 0 11 1;
#X connect 9 0 3 0;
#X connect 10 0 11 0;
#X connect 11 0 15 1;
#X connect 12 0 14 0;
#X connect 12 1 10 0;
#X connect 13 0 12 0;
#X connect 14 0 2 0;
#X connect 15 0 9 0;
#X connect 16 0 15 0;
#X restore 314 430 pd ff2;
#X obj 433 251 clip 0 8;
#X obj 433 229 expr if($f1 == 0 \, 1 \, $f1);
#X msg 263 627 set \$1 \$2 \$3 \$4 \$5;
#X obj 263 662 outlet;
#X connect 0 0 8 0;
#X connect 2 0 6 1;
#X connect 2 0 28 0;
#X connect 3 0 23 1;
#X connect 3 0 28 0;
#X connect 5 0 34 0;
#X connect 6 0 7 0;
#X connect 7 0 5 0;
#X connect 8 0 1 0;
#X connect 9 0 8 0;
#X connect 10 0 22 1;
#X connect 10 0 28 0;
#X connect 12 0 9 0;
#X connect 12 0 38 0;
#X connect 14 0 16 0;
#X connect 18 0 12 0;
#X connect 19 0 26 0;
#X connect 20 0 24 0;
#X connect 21 0 25 0;
#X connect 22 0 33 0;
#X connect 23 0 37 0;
#X connect 24 0 12 0;
#X connect 24 1 12 1;
#X connect 25 0 12 0;
#X connect 25 1 12 2;
#X connect 26 0 12 0;
#X connect 26 1 12 3;
#X connect 27 0 12 0;
#X connect 27 1 12 4;
#X connect 28 0 29 0;
#X connect 30 0 6 0;
#X connect 30 1 23 0;
#X connect 30 2 22 0;
#X connect 31 0 30 0;
#X connect 32 0 29 0;
#X connect 33 0 15 0;
#X connect 35 0 27 0;
#X connect 36 0 14 0;
#X connect 37 0 36 0;
#X connect 38 0 39 0;
