#N canvas 0 50 450 444 10;
#X obj 136 70 bq_highpass~ 35 1;
#X obj 137 48 bq_highpass~ 25 2.1;
#X obj 136 132 bq_peak~ 130 1 6;
#X obj 137 112 bq_lowshelving~ 100 -25;
#X obj 133 313 bq_highshelving~ 6000 -20 2;
#X obj 134 249 bq_peak~ 2300 0.5 8;
#X obj 135 205 bq_peak~ 1700 2 -7;
#X obj 136 178 bq_peak~ 500 2 1;
#X obj 136 156 bq_peak~ 250 2 -3;
#X obj 133 361 bq_highshelving~ 12000 5 7;
#X obj 135 268 bq_peak~ 4500 0.2 -5;
#X obj 133 335 bq_peak~ 5000 0.2 6;
#X obj 134 227 bq_peak~ 1500 0.1 4;
#X obj 137 89 bq_peak~ 50 1 3;
#X obj 134 290 bq_peak~ 8000 0.3 7;
#X obj 137 15 inlet~;
#X obj 134 400 outlet~;
#X connect 0 0 13 0;
#X connect 1 0 0 0;
#X connect 2 0 8 0;
#X connect 3 0 2 0;
#X connect 4 0 11 0;
#X connect 5 0 10 0;
#X connect 6 0 12 0;
#X connect 7 0 6 0;
#X connect 8 0 7 0;
#X connect 9 0 16 0;
#X connect 10 0 14 0;
#X connect 11 0 9 0;
#X connect 12 0 5 0;
#X connect 13 0 3 0;
#X connect 14 0 4 0;
#X connect 15 0 1 0;
