#N canvas 149 181 450 421 10;
#X obj 157 151 bq_peak~ 1800 0.8 -6;
#X obj 157 61 bq_lowshelving~ 110 -8;
#X obj 158 91 bq_peak~ 400 1.5 -6;
#X obj 158 37 bq_highpass~ 110 1.5;
#X obj 163 276 bq_peak~ 9000 0.1 -25;
#X obj 159 231 bq_peak~ 5500 0.3 -6;
#X obj 163 254 bq_peak~ 6800 0.2 9;
#X obj 157 122 bq_peak~ 800 2 2;
#X obj 159 209 bq_peak~ 2800 0.7 7;
#X obj 157 180 bq_peak~ 2000 0.1 5;
#X obj 161 7 inlet~;
#X obj 157 389 outlet~;
#X obj 161 325 bq_highshelving~ 5000 -5 6;
#X obj 163 300 bq_highshelving~ 15000 10 2;
#X obj 160 353 bq_lowpass~ 10000 0.5;
#X connect 0 0 9 0;
#X connect 1 0 2 0;
#X connect 2 0 7 0;
#X connect 3 0 1 0;
#X connect 4 0 13 0;
#X connect 5 0 6 0;
#X connect 6 0 4 0;
#X connect 7 0 0 0;
#X connect 8 0 5 0;
#X connect 9 0 8 0;
#X connect 10 0 3 0;
#X connect 12 0 14 0;
#X connect 13 0 12 0;
#X connect 14 0 11 0;
