#N canvas 318 247 450 300 10;
#X obj 146 17 inlet~;
#X obj 146 257 outlet~;
#X obj 146 41 bq_highpass~ 100;
#X obj 146 70 bq_peak~ 950 0.7 3;
#X obj 146 157 bq_peak~ 350 1 -3;
#X obj 146 226 bq_lowpass~ 10000 0.4;
#X obj 146 99 bq_peak~ 1400 0.3 -8;
#X obj 146 128 bq_peak~ 2200 0.9 5;
#X obj 146 197 bq_highshelving~ 4700 -10 3;
#X connect 0 0 2 0;
#X connect 2 0 3 0;
#X connect 3 0 6 0;
#X connect 4 0 8 0;
#X connect 5 0 1 0;
#X connect 6 0 7 0;
#X connect 7 0 4 0;
#X connect 8 0 5 0;
