#N canvas 283 3 753 705 10;
#X obj 101 103 vsl 8 50 0 1 0 0 \$0-foo \$0-bar empty 0 -9 0 10 -262144
-1 -1 0 1;
#X obj 111 103 vsl 8 50 0 1 0 0 \$0-foo \$0-bar empty 0 -9 0 10 -262144
-1 -1 0 1;
#X obj 121 103 vsl 8 50 0 1 0 0 \$0-foo \$0-bar empty 0 -9 0 10 -262144
-1 -1 0 1;
#X obj 131 103 vsl 8 50 0 1 0 0 \$0-foo \$0-bar empty 0 -9 0 10 -262144
-1 -1 0 1;
#X obj 141 103 vsl 8 50 0 1 0 0 \$0-foo \$0-bar empty 0 -9 0 10 -262144
-1 -1 0 1;
#X obj 151 103 vsl 8 50 0 1 0 0 \$0-foo \$0-bar empty 0 -9 0 10 -262144
-1 -1 0 1;
#X obj 161 103 vsl 8 50 0 1 0 0 \$0-foo \$0-bar empty 0 -9 0 10 -262144
-1 -1 0 1;
#X obj 171 103 vsl 8 50 0 1 0 0 \$0-foo \$0-bar empty 0 -9 0 10 -262144
-1 -1 0 1;
#X obj 181 103 vsl 8 50 0 1 0 0 \$0-foo \$0-bar empty 0 -9 0 10 -262144
-1 -1 0 1;
#X obj 191 103 vsl 8 50 0 1 0 0 \$0-foo \$0-bar empty 0 -9 0 10 -262144
-1 -1 0 1;
#X obj 54 17 inlet;
#X msg 1 197 0;
#X obj 58 626 route 0;
#X obj 58 654 outlet;
#X obj 201 103 vsl 8 50 0 1 0 0 \$0-foo \$0-bar empty 0 -9 0 10 -262144
-1 -1 0 1;
#X obj 211 103 vsl 8 50 0 1 0 0 \$0-foo \$0-bar empty 0 -9 0 10 -262144
-1 -1 0 1;
#X obj 221 103 vsl 8 50 0 1 0 0 \$0-foo \$0-bar empty 0 -9 0 10 -262144
-1 -1 0 1;
#X obj 231 103 vsl 8 50 0 1 0 0 \$0-foo \$0-bar empty 0 -9 0 10 -262144
-1 -1 0 1;
#X obj 241 103 vsl 8 50 0 1 0 0 \$0-foo \$0-bar empty 0 -9 0 10 -262144
-1 -1 0 1;
#X obj 251 103 vsl 8 50 0 1 0 0 \$0-foo \$0-bar empty 0 -9 0 10 -262144
-1 -1 0 1;
#X obj 261 103 vsl 8 50 0 1 0 0 \$0-foo \$0-bar empty 0 -9 0 10 -262144
-1 -1 0 1;
#X obj 271 103 vsl 8 50 0 1 0 0 \$0-foo \$0-bar empty 0 -9 0 10 -262144
-1 -1 0 1;
#X obj 281 103 vsl 8 50 0 1 0 0 \$0-foo \$0-bar empty 0 -9 0 10 -262144
-1 -1 0 1;
#X obj 291 103 vsl 8 50 0 1 0 0 \$0-foo \$0-bar empty 0 -9 0 10 -262144
-1 -1 0 1;
#X msg 408 189 0;
#X obj 58 595 pack f f f f f f f f f f f f f f f f f f f f f;
#X obj 54 41 unpack f f f f f f f f f f f f f f f f f f f f;
#X obj 62 179 expr (\$2-\$1)*$f1+\$1;
#X obj 80 198 expr (\$2-\$1)*$f1+\$1;
#X obj 98 217 expr (\$2-\$1)*$f1+\$1;
#X obj 116 236 expr (\$2-\$1)*$f1+\$1;
#X obj 134 255 expr (\$2-\$1)*$f1+\$1;
#X obj 152 274 expr (\$2-\$1)*$f1+\$1;
#X obj 170 293 expr (\$2-\$1)*$f1+\$1;
#X obj 188 312 expr (\$2-\$1)*$f1+\$1;
#X obj 206 331 expr (\$2-\$1)*$f1+\$1;
#X obj 224 350 expr (\$2-\$1)*$f1+\$1;
#X obj 243 369 expr (\$2-\$1)*$f1+\$1;
#X obj 261 388 expr (\$2-\$1)*$f1+\$1;
#X obj 279 407 expr (\$2-\$1)*$f1+\$1;
#X obj 297 426 expr (\$2-\$1)*$f1+\$1;
#X obj 315 445 expr (\$2-\$1)*$f1+\$1;
#X obj 333 464 expr (\$2-\$1)*$f1+\$1;
#X obj 351 483 expr (\$2-\$1)*$f1+\$1;
#X obj 369 502 expr (\$2-\$1)*$f1+\$1;
#X obj 387 521 expr (\$2-\$1)*$f1+\$1;
#X obj 405 540 expr (\$2-\$1)*$f1+\$1;
#X connect 0 0 11 0;
#X connect 0 0 27 0;
#X connect 1 0 11 0;
#X connect 1 0 28 0;
#X connect 2 0 11 0;
#X connect 2 0 29 0;
#X connect 3 0 11 0;
#X connect 3 0 30 0;
#X connect 4 0 11 0;
#X connect 4 0 31 0;
#X connect 5 0 11 0;
#X connect 5 0 32 0;
#X connect 6 0 11 0;
#X connect 6 0 33 0;
#X connect 7 0 11 0;
#X connect 7 0 34 0;
#X connect 8 0 11 0;
#X connect 8 0 35 0;
#X connect 9 0 11 0;
#X connect 9 0 36 0;
#X connect 10 0 26 0;
#X connect 11 0 25 0;
#X connect 12 0 13 0;
#X connect 14 0 24 0;
#X connect 14 0 37 0;
#X connect 15 0 24 0;
#X connect 15 0 38 0;
#X connect 16 0 24 0;
#X connect 16 0 39 0;
#X connect 17 0 24 0;
#X connect 17 0 40 0;
#X connect 18 0 24 0;
#X connect 18 0 41 0;
#X connect 19 0 24 0;
#X connect 19 0 42 0;
#X connect 20 0 24 0;
#X connect 20 0 43 0;
#X connect 21 0 24 0;
#X connect 21 0 44 0;
#X connect 22 0 24 0;
#X connect 22 0 45 0;
#X connect 23 0 24 0;
#X connect 23 0 46 0;
#X connect 24 0 25 0;
#X connect 25 0 12 0;
#X connect 26 0 0 0;
#X connect 26 1 1 0;
#X connect 26 2 2 0;
#X connect 26 3 3 0;
#X connect 26 4 4 0;
#X connect 26 5 5 0;
#X connect 26 6 6 0;
#X connect 26 7 7 0;
#X connect 26 8 8 0;
#X connect 26 9 9 0;
#X connect 26 10 14 0;
#X connect 26 11 15 0;
#X connect 26 12 16 0;
#X connect 26 13 17 0;
#X connect 26 14 18 0;
#X connect 26 15 19 0;
#X connect 26 16 20 0;
#X connect 26 17 21 0;
#X connect 26 18 22 0;
#X connect 26 19 23 0;
#X connect 27 0 25 1;
#X connect 28 0 25 2;
#X connect 29 0 25 3;
#X connect 30 0 25 4;
#X connect 31 0 25 5;
#X connect 32 0 25 6;
#X connect 33 0 25 7;
#X connect 34 0 25 8;
#X connect 35 0 25 9;
#X connect 36 0 25 10;
#X connect 37 0 25 11;
#X connect 38 0 25 12;
#X connect 39 0 25 13;
#X connect 40 0 25 14;
#X connect 41 0 25 15;
#X connect 42 0 25 16;
#X connect 43 0 25 17;
#X connect 44 0 25 18;
#X connect 45 0 25 19;
#X connect 46 0 25 20;
#X coords 0 -1 1 1 200 57 2 100 100;
