#N canvas 118 0 813 549 10;
#X obj 400 11 loadbang;
#X obj 54 5 inlet;
#X obj 373 504 outlet list;
#X obj 95 289 pack;
#X obj 433 181 +;
#X obj 262 409 bag;
#X obj 145 289 pack;
#X obj 170 264 + 1;
#X obj 198 289 pack;
#X obj 223 264 + 1;
#X obj 251 289 pack;
#X obj 276 264 + 1;
#X obj 301 289 pack;
#X obj 326 264 + 1;
#X obj 353 289 pack;
#X obj 378 264 + 1;
#X obj 406 289 pack;
#X obj 431 264 + 1;
#X obj 457 289 pack;
#X obj 482 264 + 1;
#X obj 506 289 pack;
#X obj 531 264 + 1;
#X obj 120 264 + 0;
#X obj 554 289 pack;
#X obj 579 264 + 1;
#X obj 607 289 pack;
#X obj 632 264 + 1;
#X obj 658 289 pack;
#X obj 683 264 + 1;
#X msg 14 263 flush;
#X msg 658 311 \$2 \$1, f 2;
#X msg 607 311 \$2 \$1, f 2;
#X msg 554 311 \$2 \$1, f 2;
#X msg 506 311 \$2 \$1, f 2;
#X msg 457 311 \$2 \$1, f 2;
#X msg 406 311 \$2 \$1, f 2;
#X msg 353 311 \$2 \$1, f 2;
#X msg 301 311 \$2 \$1, f 2;
#X msg 251 311 \$2 \$1, f 2;
#X msg 198 311 \$2 \$1, f 2;
#X msg 145 311 \$2 \$1, f 2;
#X msg 95 311 \$2 \$1, f 2;
#X obj 61 274 bng 15 250 50 0 empty empty empty 17 7 0 10 -262144 -1
-1;
#X msg 115 167 clear;
#X obj 66 193 t b b;
#X obj 354 90 list split 1;
#X obj 198 166 unpack f f f f f f f f f f f f;
#X msg 198 144 0 0 0 0 0 0 0 0 0 0 0 0;
#X obj 261 499 outlet;
#X obj 261 467 pack f f;
#N canvas 374 0 919 710 chorder 0;
#X obj 61 12 inlet;
#X obj 422 637 outlet;
#X msg 34 334 \$1 1 0 0 0 1 0 0 1 0 0 0 0;
#X msg 47 308 \$1 1 0 0 1 0 0 0 1 0 0 0 0;
#X msg 75 284 \$1 1 0 0 1 0 0 1 0 0 0 0 0;
#X msg 110 257 \$1 1 0 0 0 1 0 0 0 1 0 0 0;
#X msg 153 231 \$1 1 0 0 0 1 0 0 1 0 0 0 1;
#X msg 187 205 \$1 1 0 0 1 0 0 0 1 0 0 1 0;
#X msg 220 181 \$1 1 0 0 0 1 0 0 1 0 0 1 0;
#X msg 252 158 \$1 1 0 0 1 0 0 1 0 0 1 0 0;
#X msg 278 131 \$1 1 0 0 0 1 0 0 0 0 0 0 0;
#X obj 61 31 route maj min dim aug maj7 min7 dom7 dim7 maj3 min3 pow
tri;
#X msg 307 106 \$1 1 0 0 1 0 0 0 0 0 0 0 0;
#X msg 352 82 \$1 1 0 0 0 0 0 0 1 0 0 0 0;
#X msg 395 59 \$1 1 0 0 0 0 0 1 0 0 0 0 0;
#X obj 119 372 route majfl5 minsh5 sus2 sus4 sus24 minmaj7 sus7 min7fl5
aug7 maj6 min6;
#X msg 62 659 \$1 1 0 0 0 1 0 1 0 0 0 0 0;
#X msg 89 635 \$1 1 0 0 1 0 0 0 0 1 0 0 0;
#X msg 113 610 \$1 1 0 1 0 0 0 0 1 0 0 0 0;
#X msg 136 584 \$1 1 0 0 0 0 1 0 1 0 0 0 0;
#X msg 165 557 \$1 1 0 1 0 0 1 0 1 0 0 0 0;
#X msg 197 531 \$1 1 0 0 1 0 0 0 1 0 0 0 1;
#X msg 236 510 \$1 1 0 0 0 0 1 0 1 0 0 1 0;
#X msg 270 489 \$1 1 0 0 1 0 0 1 0 0 0 1 0;
#X msg 307 470 \$1 1 0 0 0 1 0 0 0 1 0 1 0;
#X msg 347 448 \$1 1 0 0 0 1 0 0 1 0 1 0 0;
#X msg 410 430 \$1 1 0 0 1 0 0 0 1 0 1 0 0;
#X obj 552 237 route maj7fl5 maj7sh5 min7sh5 dom7fl5;
#X msg 559 339 \$1 1 0 0 0 1 0 1 0 0 0 0 1;
#X msg 596 320 \$1 1 0 0 0 1 0 0 0 1 0 0 1;
#X msg 636 298 \$1 1 0 0 1 0 0 0 0 1 0 1 0;
#X msg 699 279 \$1 1 0 0 0 1 0 1 0 0 0 1 0;
#X connect 0 0 11 0;
#X connect 2 0 1 0;
#X connect 3 0 1 0;
#X connect 4 0 1 0;
#X connect 5 0 1 0;
#X connect 6 0 1 0;
#X connect 7 0 1 0;
#X connect 8 0 1 0;
#X connect 9 0 1 0;
#X connect 10 0 1 0;
#X connect 11 0 2 0;
#X connect 11 1 3 0;
#X connect 11 2 4 0;
#X connect 11 3 5 0;
#X connect 11 4 6 0;
#X connect 11 5 7 0;
#X connect 11 6 8 0;
#X connect 11 7 9 0;
#X connect 11 8 10 0;
#X connect 11 9 12 0;
#X connect 11 10 13 0;
#X connect 11 11 14 0;
#X connect 11 12 15 0;
#X connect 12 0 1 0;
#X connect 13 0 1 0;
#X connect 14 0 1 0;
#X connect 15 0 16 0;
#X connect 15 1 17 0;
#X connect 15 2 18 0;
#X connect 15 3 19 0;
#X connect 15 4 20 0;
#X connect 15 5 21 0;
#X connect 15 6 22 0;
#X connect 15 7 23 0;
#X connect 15 8 24 0;
#X connect 15 9 25 0;
#X connect 15 10 26 0;
#X connect 15 11 27 0;
#X connect 16 0 1 0;
#X connect 17 0 1 0;
#X connect 18 0 1 0;
#X connect 19 0 1 0;
#X connect 20 0 1 0;
#X connect 21 0 1 0;
#X connect 22 0 1 0;
#X connect 23 0 1 0;
#X connect 24 0 1 0;
#X connect 25 0 1 0;
#X connect 26 0 1 0;
#X connect 27 0 28 0;
#X connect 27 1 29 0;
#X connect 27 2 30 0;
#X connect 27 3 31 0;
#X connect 27 4 1 0;
#X connect 28 0 1 0;
#X connect 29 0 1 0;
#X connect 30 0 1 0;
#X connect 31 0 1 0;
#X restore 390 59 pd chorder;
#X obj 480 138 f \$3;
#X obj 30 363 loadbang;
#X obj 30 463 f \$1;
#X obj 30 491 expr if($f1==0 \, 64 \, $f1);
#X obj 52 402 f \$2;
#X obj 52 430 expr if($f1==0 \, 500 \, $f1);
#X obj 261 442 makenote;
#N canvas 216 75 550 381 creator 0;
#X obj 27 9 inlet;
#X obj 67 86 list split 1;
#X obj 166 87 t list;
#X obj 68 235 tgl 15 0 empty empty empty 17 7 0 10 -262144 -1 -1 0
1;
#X obj 85 235 tgl 15 0 empty empty empty 17 7 0 10 -262144 -1 -1 0
1;
#X obj 102 235 tgl 15 0 empty empty empty 17 7 0 10 -262144 -1 -1 0
1;
#X obj 119 235 tgl 15 0 empty empty empty 17 7 0 10 -262144 -1 -1 0
1;
#X obj 137 235 tgl 15 0 empty empty empty 17 7 0 10 -262144 -1 -1 0
1;
#X obj 154 235 tgl 15 0 empty empty empty 17 7 0 10 -262144 -1 -1 0
1;
#X obj 171 235 tgl 15 0 empty empty empty 17 7 0 10 -262144 -1 -1 0
1;
#X obj 188 235 tgl 15 0 empty empty empty 17 7 0 10 -262144 -1 -1 0
1;
#X obj 206 235 tgl 15 0 empty empty empty 17 7 0 10 -262144 -1 -1 0
1;
#X obj 223 235 tgl 15 0 empty empty empty 17 7 0 10 -262144 -1 -1 0
1;
#X obj 240 235 tgl 15 0 empty empty empty 17 7 0 10 -262144 -1 -1 0
1;
#X obj 257 235 tgl 15 0 empty empty empty 17 7 0 10 -262144 -1 -1 0
1;
#X obj 51 268 pack f f f f f f f f f f f f f;
#X obj 27 33 list split 1;
#X obj 22 187 f;
#X obj 22 158 bang;
#X msg 205 111 0 0 0 0 0 0 0 0 0 0 0 0;
#X obj 209 135 unpack f f f f f f f f f f f f;
#X obj 51 315 outlet;
#X msg 137 9 60 1 5 8 11;
#X obj 148 112 del 1;
#X obj 68 180 sel T 1p 2m 2M 3m 3M 4p 5f 5p 5s 6m 6M 7f 7m 7M;
#X obj 347 200 sel 1 4 5;
#X connect 0 0 16 0;
#X connect 1 0 24 0;
#X connect 1 1 2 0;
#X connect 1 2 23 0;
#X connect 2 0 1 0;
#X connect 3 0 15 1;
#X connect 4 0 15 2;
#X connect 5 0 15 3;
#X connect 6 0 15 4;
#X connect 7 0 15 5;
#X connect 8 0 15 6;
#X connect 9 0 15 7;
#X connect 10 0 15 8;
#X connect 11 0 15 9;
#X connect 12 0 15 10;
#X connect 13 0 15 11;
#X connect 14 0 15 12;
#X connect 15 0 21 0;
#X connect 15 0 19 0;
#X connect 16 0 17 1;
#X connect 16 1 1 0;
#X connect 17 0 15 0;
#X connect 18 0 17 0;
#X connect 19 0 20 0;
#X connect 20 0 3 0;
#X connect 20 1 4 0;
#X connect 20 2 5 0;
#X connect 20 3 6 0;
#X connect 20 4 7 0;
#X connect 20 5 8 0;
#X connect 20 6 9 0;
#X connect 20 7 10 0;
#X connect 20 8 11 0;
#X connect 20 9 12 0;
#X connect 20 10 13 0;
#X connect 20 11 14 0;
#X connect 22 0 16 0;
#X connect 23 0 18 0;
#X connect 24 0 3 0;
#X connect 24 1 3 0;
#X connect 24 2 4 0;
#X connect 24 3 5 0;
#X connect 24 4 6 0;
#X connect 24 5 7 0;
#X connect 24 6 8 0;
#X connect 24 7 9 0;
#X connect 24 8 10 0;
#X connect 24 9 11 0;
#X connect 24 10 11 0;
#X connect 24 11 12 0;
#X connect 24 12 12 0;
#X connect 24 13 13 0;
#X connect 24 14 14 0;
#X connect 24 15 25 0;
#X connect 25 0 3 0;
#X connect 25 1 8 0;
#X connect 25 2 10 0;
#X restore 308 59 pd creator;
#X obj 418 139 route -1;
#X obj 382 117 max -1;
#X text 545 467 Michele Abruzzese;
#X text 568 502 2017.08.11;
#X obj 54 29 route reset velocity v duration d transpose t build;
#X obj 54 97 bang;
#X text 472 36 arguments: velocity - duration - transpose;
#X text 571 484 @michezio;
#X connect 0 0 51 0;
#X connect 0 0 64 0;
#X connect 1 0 63 0;
#X connect 3 0 41 0;
#X connect 4 0 22 0;
#X connect 4 0 43 0;
#X connect 5 0 2 0;
#X connect 5 0 57 0;
#X connect 6 0 40 0;
#X connect 7 0 6 1;
#X connect 7 0 9 0;
#X connect 8 0 39 0;
#X connect 9 0 8 1;
#X connect 9 0 11 0;
#X connect 10 0 38 0;
#X connect 11 0 10 1;
#X connect 11 0 13 0;
#X connect 12 0 37 0;
#X connect 13 0 12 1;
#X connect 13 0 15 0;
#X connect 14 0 36 0;
#X connect 15 0 14 1;
#X connect 15 0 17 0;
#X connect 16 0 35 0;
#X connect 17 0 16 1;
#X connect 17 0 19 0;
#X connect 18 0 34 0;
#X connect 19 0 18 1;
#X connect 19 0 21 0;
#X connect 20 0 33 0;
#X connect 21 0 20 1;
#X connect 21 0 24 0;
#X connect 22 0 3 1;
#X connect 22 0 7 0;
#X connect 23 0 32 0;
#X connect 24 0 23 1;
#X connect 24 0 26 0;
#X connect 25 0 31 0;
#X connect 26 0 25 1;
#X connect 26 0 28 0;
#X connect 27 0 30 0;
#X connect 28 0 27 1;
#X connect 29 0 5 0;
#X connect 30 0 5 0;
#X connect 31 0 5 0;
#X connect 32 0 5 0;
#X connect 33 0 5 0;
#X connect 34 0 5 0;
#X connect 35 0 5 0;
#X connect 36 0 5 0;
#X connect 37 0 5 0;
#X connect 38 0 5 0;
#X connect 39 0 5 0;
#X connect 40 0 5 0;
#X connect 41 0 5 0;
#X connect 42 0 3 0;
#X connect 42 0 6 0;
#X connect 42 0 8 0;
#X connect 42 0 10 0;
#X connect 42 0 12 0;
#X connect 42 0 14 0;
#X connect 42 0 16 0;
#X connect 42 0 18 0;
#X connect 42 0 20 0;
#X connect 42 0 23 0;
#X connect 42 0 25 0;
#X connect 42 0 27 0;
#X connect 43 0 5 0;
#X connect 43 0 44 0;
#X connect 44 0 29 0;
#X connect 44 1 42 0;
#X connect 45 0 60 0;
#X connect 45 1 46 0;
#X connect 46 0 3 0;
#X connect 46 1 6 0;
#X connect 46 2 8 0;
#X connect 46 3 10 0;
#X connect 46 4 12 0;
#X connect 46 5 14 0;
#X connect 46 6 16 0;
#X connect 46 7 18 0;
#X connect 46 8 20 0;
#X connect 46 9 23 0;
#X connect 46 10 25 0;
#X connect 46 11 27 0;
#X connect 47 0 46 0;
#X connect 49 0 48 0;
#X connect 50 0 45 0;
#X connect 51 0 4 1;
#X connect 52 0 53 0;
#X connect 52 0 55 0;
#X connect 53 0 54 0;
#X connect 54 0 57 1;
#X connect 55 0 56 0;
#X connect 56 0 57 2;
#X connect 57 0 49 0;
#X connect 57 1 49 1;
#X connect 58 0 45 0;
#X connect 59 1 4 0;
#X connect 60 0 59 0;
#X connect 63 0 64 0;
#X connect 63 1 57 1;
#X connect 63 2 57 1;
#X connect 63 3 57 2;
#X connect 63 4 57 2;
#X connect 63 5 4 1;
#X connect 63 6 4 1;
#X connect 63 7 58 0;
#X connect 63 8 50 0;
#X connect 64 0 47 0;
#X coords 0 0 1 1 72 22 0;
