#N canvas 446 284 562 428 10;
#X obj 209 61 phasor~;
#X obj 212 29 hsl 128 15 0 2 0 0 empty empty speed -2 -8 0 10 -262144
-1 -1 0 1;
#X floatatom 154 44 5 0 0 0 - - -;
#X obj 174 97 cos~;
#X obj 174 122 *~ 2;
#X obj 174 146 +~ 2;
#X obj 227 123 wrap~;
#X obj 227 97 +~ 0.5;
#X obj 227 146 cos~;
#X obj 228 170 *~ 2;
#X obj 228 194 +~ 2;
#X obj 227 247 *~ 0.8;
#X obj 292 230 hsl 128 15 -1 1 0 0 empty empty feedback -2 -8 0 10
-262144 -1 -1 0 1;
#X obj 173 247 *~ 0.8;
#X obj 299 114 hsl 128 15 1 4 0 0 empty empty depth -2 -8 0 10 -262144
-1 -1 0 1;
#X obj 14 -65 inlet~ audioIN;
#X obj 13 256 outlet~ audioOUT;
#X obj 174 -64 inlet speed;
#X obj 269 -63 inlet depth;
#X obj 354 -63 inlet feedback;
#X obj 448 -65 inlet;
#X obj 448 -43 switch~;
#X obj 24 45 delwrite~ \$0-ph1 100;
#X obj 16 75 delwrite~ \$0-ph2 100;
#X obj 150 221 vd~ \$0-ph1;
#X obj 221 220 vd~ \$0-ph2;
#X connect 0 0 3 0;
#X connect 0 0 7 0;
#X connect 1 0 2 0;
#X connect 1 0 0 0;
#X connect 3 0 4 0;
#X connect 4 0 5 0;
#X connect 5 0 24 0;
#X connect 6 0 8 0;
#X connect 7 0 6 0;
#X connect 8 0 9 0;
#X connect 9 0 10 0;
#X connect 10 0 25 0;
#X connect 11 0 23 0;
#X connect 12 0 11 1;
#X connect 12 0 13 1;
#X connect 13 0 22 0;
#X connect 14 0 4 1;
#X connect 14 0 5 1;
#X connect 14 0 9 1;
#X connect 14 0 10 1;
#X connect 15 0 22 0;
#X connect 15 0 23 0;
#X connect 17 0 0 0;
#X connect 18 0 4 1;
#X connect 18 0 5 1;
#X connect 18 0 9 1;
#X connect 18 0 10 1;
#X connect 19 0 13 1;
#X connect 19 0 11 1;
#X connect 20 0 21 0;
#X connect 24 0 13 0;
#X connect 24 0 16 0;
#X connect 25 0 11 0;
#X connect 25 0 16 0;
