#N canvas 233 354 450 300 10;
#X obj -71 110 abs~;
#X obj -37 219 *~ 2;
#X obj -102 50 inlet~ AUDIO IN;
#X obj 29 148 clip~ 0 2;
#X obj 101 148 clip~ -2 0;
#X obj 28 123 spigot~;
#X obj 90 108 tgl 15 0 empty empty empty 17 7 0 10 -262144 -1 -1 0
1;
#X obj -11 94 spigot~;
#X obj 51 79 tgl 15 0 empty empty empty 17 7 0 10 -262144 -1 -1 0 1
;
#X msg 25 202 2;
#X msg 68 202 1;
#X obj 18 48 inlet RECTIFICATION;
#X obj -48 176 *~ -1;
#X obj -87 146 spigot~;
#X obj 165 48 inlet INVERT;
#X obj -37 266 outlet~ AUDIO OUT;
#X obj -37 242 hip~ 5;
#X connect 0 0 13 0;
#X connect 1 0 16 0;
#X connect 2 0 7 0;
#X connect 3 0 1 0;
#X connect 4 0 1 0;
#X connect 5 0 3 0;
#X connect 5 1 4 0;
#X connect 6 0 5 1;
#X connect 6 0 13 1;
#X connect 7 0 0 0;
#X connect 7 1 5 0;
#X connect 8 0 7 1;
#X connect 9 0 1 1;
#X connect 10 0 1 1;
#X connect 11 0 8 0;
#X connect 12 0 1 0;
#X connect 13 0 1 0;
#X connect 13 1 12 0;
#X connect 14 0 6 0;
#X connect 16 0 15 0;
