#N canvas 73 0 1268 700 10;
#X obj 404 329 freeverb~;
#X msg 404 227 roomsize \$1;
#X msg 404 251 damping \$1;
#X msg 404 296 freeze \$1;
#X obj 532 254 hsl 80 15 0 1 0 0 empty \$0-damp empty -2 -8 0 10 -262144
-1 -1 0 1;
#X obj 532 232 hsl 80 15 0 1 0 0 empty \$0-room empty -2 -8 0 10 -262144
-1 -1 4077 1;
#X obj 506 300 tgl 15 0 empty \$0-freeze empty 17 7 0 10 -262144 -1
-1 0 1;
#X obj 330 269 tgl 15 0 empty \$0-bypassk Reverb 17 7 0 10 -261682
-1 -1 0 1;
#X obj 404 151 noise~;
#X obj 478 150 *~ 0.0001;
#X obj 87 118 tgl 20 0 \$0-bypassk empty REVERB 25 10 0 10 -261682
-1 -1 0 1;
#X obj 150 27 mknob 32 32 0 1 0 1 \$0-room empty DECAY 0 -8 0 8 -262144
-1 -1 1600 1;
#X obj 17 37 tgl 15 0 \$0-freeze empty FREEZE 17 7 0 10 -262144 -1
-1 0 1;
#X obj 149 77 mknob 32 32 0 1 0 1 \$0-damp empty DAMP 0 -8 0 8 -262144
-1 -1 0 1;
#X obj 92 46 mknob 40 40 0 1 0 1 \$0-mix empty MIX 0 -8 0 8 -262144
-1 -1 2000 1;
#X obj 368 89 inlet~ reverbIN;
#X obj 368 432 crossfade~;
#X obj 387 201 loadbang;
#X msg 387 275 wet 1;
#X obj 450 417 hsl 80 15 0 1 0 0 empty \$0-mix empty -2 -8 0 10 -262144
-1 -1 4051 1;
#X obj 497 332 mknob 32 32 100 20000 1 1 empty \$0-high HIGHs 0 -8 0
8 -262144 -1 -1 3100 1;
#X obj 541 371 mknob 32 32 2000 10 1 1 empty \$0-low LOWs 0 -8 0 8 -262144
-1 -1 3100 1;
#X floatatom 567 339 6 0 0 0 - - -;
#X floatatom 603 385 6 0 0 0 - - -;
#X obj 403 363 lop~ 20000;
#X obj 404 387 hip~ 10;
#X obj 19 72 mknob 20 20 2000 10 1 1 \$0-low empty LOW 0 -8 0 8 -262144
-1 -1 1900 1;
#X obj 49 72 mknob 20 20 100 20000 1 1 \$0-high empty HIGH 0 -8 0 8
-262144 -1 -1 1900 1;
#X obj 282 301 spigot~;
#X obj 539 533 outlet~ reverbOUT-R;
#X obj 369 533 outlet~ reverbOUT-L;
#X obj 540 488 crossfade~;
#X obj 575 419 lop~ 20000;
#X obj 576 443 hip~ 10;
#X connect 0 0 24 0;
#X connect 0 1 32 0;
#X connect 1 0 0 0;
#X connect 2 0 0 0;
#X connect 3 0 0 0;
#X connect 4 0 2 0;
#X connect 5 0 1 0;
#X connect 6 0 3 0;
#X connect 7 0 28 1;
#X connect 8 0 9 0;
#X connect 9 0 0 0;
#X connect 15 0 28 0;
#X connect 16 0 30 0;
#X connect 17 0 18 0;
#X connect 18 0 0 0;
#X connect 19 0 16 2;
#X connect 19 0 31 2;
#X connect 20 0 22 0;
#X connect 20 0 24 1;
#X connect 20 0 32 1;
#X connect 21 0 23 0;
#X connect 21 0 25 1;
#X connect 21 0 33 1;
#X connect 24 0 25 0;
#X connect 25 0 16 1;
#X connect 28 0 30 0;
#X connect 28 0 29 0;
#X connect 28 1 0 0;
#X connect 28 1 16 0;
#X connect 28 1 31 0;
#X connect 31 0 29 0;
#X connect 32 0 33 0;
#X connect 33 0 31 1;
#X coords 0 -1 1 1 200 150 1 0 0;
