#N canvas 129 37 1268 700 10;
#X obj 465 178 tgl 15 1 empty \$0-bypassk Tremolo -45 7 0 10 -260097
-1 -1 0 1;
#X obj 398 202 spigot~;
#X obj 503 191 hsl 80 15 0 0.5 0 0 empty \$0-depth depth -2 -8 0 10
-262144 -1 -1 5064 1;
#X obj 506 162 hsl 80 15 0 10 0 0 empty \$0-rate rate -2 -8 0 10 -262144
-1 -1 3444 1;
#X floatatom 596 162 5 0 0 0 - - -;
#X obj 410 250 ShinTrem;
#X obj 398 143 inlet~ tremIN;
#X obj 397 288 outlet~ tremOUT;
#X obj 89 118 tgl 20 1 \$0-bypassk empty TREMOLO 25 10 0 10 -257985
-1 -1 0 1;
#X obj 27 59 mknob 40 40 0 0.5 0 1 \$0-depth empty DEPTH 0 -8 0 8 -262144
-1 -1 2500 1;
#X obj 133 59 mknob 40 40 0 10 0 1 \$0-rate empty RATE 0 -8 0 8 -262144
-1 -1 1700 1;
#X obj 90 79 mknob 20 20 1 1500 1 1 \$0-ring empty RING -5 -8 0 8 -262144
-1 -1 0 1;
#X obj 648 152 hsl 80 15 1 1500 1 0 empty \$0-ring ring -2 -8 0 10
-262144 -1 -1 0 1;
#X obj 494 262 hradio 15 1 0 5 empty \$0-wave empty 0 -8 0 10 -262144
-1 -1 0;
#X obj 108 20 hradio 15 1 1 5 \$0-wave empty WAVEFORM 0 -8 0 10 -262144
-1 -1 0;
#X floatatom 81 45 6 0 0 0 - #0-numb -;
#X floatatom 645 172 5 0 0 0 - - -;
#X obj 624 217 * 1;
#X floatatom 624 241 5 0 0 0 - - #0-numb;
#X obj 645 192 t b f;
#X connect 0 0 1 1;
#X connect 1 0 7 0;
#X connect 1 1 5 0;
#X connect 2 0 5 2;
#X connect 3 0 4 0;
#X connect 3 0 17 0;
#X connect 5 0 7 0;
#X connect 6 0 1 0;
#X connect 12 0 16 0;
#X connect 13 0 5 3;
#X connect 16 0 19 0;
#X connect 17 0 18 0;
#X connect 17 0 5 1;
#X connect 19 0 17 0;
#X connect 19 1 17 1;
#X coords 0 -1 1 1 200 150 1 0 0;
