#N canvas 605 220 450 300 10;
#X obj 179 -1168 *~ 1;
#X obj 217 -1169 hsl 50 15 1 1000 1 0 empty empty empty -2 -8 0 10
-262144 -1 -1 1300 1;
#X obj 158 -1133 expr~ if ($v1<=1 \, $v1 \, 2-1/$v1);
#X obj 131 -1086 expr~ if ($v1>=-1 \, $v1 \, -2-1/$v1);
#X obj 66 -1220 inlet~ AudioIN;
#X obj 206 -1216 inlet Gain;
#X obj 78 -976 outlet~ AudioOUT;
#X connect 0 0 2 0;
#X connect 1 0 0 1;
#X connect 2 0 3 0;
#X connect 3 0 6 0;
#X connect 4 0 0 0;
#X connect 5 0 0 1;
