#N canvas 222 204 836 770 10;
#X obj 533 489 *~;
#X obj 533 515 +~;
#X obj 533 463 osc~;
#X obj 370 485 *~;
#X obj 370 511 +~;
#X obj 370 459 osc~;
#X floatatom 336 111 5 0 0 0 - - -;
#X obj 429 510 * 2;
#X obj 592 514 * 2;
#X obj 487 291 vradio 15 1 1 2 empty empty empty 0 -8 0 10 -262144
-1 -1 0;
#X obj 465 335 sel 0 1;
#X obj 369 418 line;
#X obj 539 425 line;
#X msg 336 353 0.666 4000;
#X msg 335 381 5.666 4000;
#X msg 560 383 6.666 2000;
#X msg 560 355 0.833 2000;
#X obj 60 33 inlet~ Audio IN;
#X obj 205 35 inlet depth;
#X obj 338 33 inlet speed;
#X obj 443 658 crossfade~;
#X obj 443 712 outlet~ AudioOUT;
#X obj 563 653 hsl 128 15 0 1 0 1 empty empty empty -2 -8 0 10 -262144
-1 -1 6684 1;
#X floatatom 562 679 5 0 0 0 - - -;
#X obj 668 37 inlet;
#X obj 668 64 switch~;
#X obj 450 37 inlet balance;
#X obj 552 38 inlet crossover;
#X obj 222 201 delwrite~ \$0-a 150;
#X obj 450 200 delwrite~ \$0-b 150;
#X obj 370 537 vd~ \$0-a;
#X obj 222 169 lop~ 800;
#X obj 450 170 hip~ 800;
#X obj 494 557 *~ 1;
#X obj 579 555 *~ -1;
#X obj 579 596 vd~ \$0-b;
#X obj 494 597 vd~ \$0-b;
#X obj 429 471 mknob 32 32 0 2 0 0 empty empty depth 0 -8 0 8 7.01811e+007
0 5.86804e+007 0 1;
#X obj 592 475 mknob 32 32 0 2 0 0 empty empty depth 0 -8 0 8 7.01811e+007
0 5.86804e+007 0 1;
#X connect 0 0 1 0;
#X connect 1 0 33 0;
#X connect 1 0 34 0;
#X connect 2 0 0 0;
#X connect 3 0 4 0;
#X connect 4 0 30 0;
#X connect 5 0 3 0;
#X connect 6 0 31 1;
#X connect 6 0 32 1;
#X connect 7 0 4 1;
#X connect 8 0 1 1;
#X connect 9 0 10 0;
#X connect 10 0 13 0;
#X connect 10 0 16 0;
#X connect 10 1 14 0;
#X connect 10 1 15 0;
#X connect 11 0 5 0;
#X connect 12 0 2 0;
#X connect 13 0 11 0;
#X connect 14 0 11 0;
#X connect 15 0 12 0;
#X connect 16 0 12 0;
#X connect 17 0 31 0;
#X connect 17 0 32 0;
#X connect 18 0 37 0;
#X connect 18 0 38 0;
#X connect 19 0 10 0;
#X connect 20 0 21 0;
#X connect 22 0 20 2;
#X connect 22 0 23 0;
#X connect 24 0 25 0;
#X connect 26 0 22 0;
#X connect 27 0 6 0;
#X connect 30 0 20 0;
#X connect 31 0 28 0;
#X connect 32 0 29 0;
#X connect 33 0 36 0;
#X connect 34 0 35 0;
#X connect 35 0 20 1;
#X connect 36 0 20 1;
#X connect 37 0 3 1;
#X connect 37 0 7 0;
#X connect 38 0 0 1;
#X connect 38 0 8 0;
