#N canvas 0 94 1280 930 10;
#X obj 226 278 *~ -1;
#X obj 383 289 *~ 2;
#X obj 290 359 +~;
#X obj 383 254 clip~ -0.5 0.5;
#X obj 419 167 hsl 128 15 1 100 1 0 empty empty empty -2 -8 0 10 -262144
-1 -1 0 1;
#X obj 169 207 hsl 128 15 0 10 0 0 empty empty empty -2 -8 0 10 -262144
-1 -1 0 1;
#X obj 181 408 clip~ -1 1;
#X obj 83 88 inlet~ AUDIO IN;
#X obj 274 91 inlet FOLDBACK;
#X obj 408 89 inlet GAIN;
#X obj 493 223 * -1;
#X obj 538 207 hsl 128 15 0 1.5 0 0 empty empty empty -2 -8 0 10 -262144
-1 -1 2600 1;
#X floatatom 521 274 5 0 0 0 - - -;
#X floatatom 473 276 6 0 0 0 - - -;
#X obj 217 503 outlet~ AUDIO OUT;
#X obj 84 236 *~ 10;
#X obj 334 196 *~ 50;
#X connect 0 0 2 0;
#X connect 1 0 2 1;
#X connect 2 0 6 0;
#X connect 3 0 1 0;
#X connect 4 0 16 1;
#X connect 5 0 15 1;
#X connect 6 0 14 0;
#X connect 7 0 15 0;
#X connect 7 0 16 0;
#X connect 8 0 15 1;
#X connect 9 0 16 1;
#X connect 10 0 13 0;
#X connect 10 0 3 1;
#X connect 11 0 10 0;
#X connect 11 0 12 0;
#X connect 11 0 3 2;
#X connect 15 0 0 0;
#X connect 16 0 3 0;
