#N canvas 0 0 1276 941 10;
#X obj 206 229 hsl 128 15 0 0.2 0 0 empty empty THRESHOLD -2 -8 0 10
-262144 -1 -1 0 1;
#X floatatom 202 261 6 0 0 0 - - -;
#X obj -52 403 hip~ 1;
#X obj -136 140 hsl 128 15 0 10 0 0 empty empty SENSE -2 -8 0 10 -262144
-1 -1 0 1;
#X obj 111 579 crossfade~;
#X obj 228 585 hsl 128 15 0 1 0 0 empty empty MIX -2 -8 0 10 -262144
-1 -1 0 1;
#X obj -50 338 spigot~;
#X obj 79 345 tgl 15 0 empty empty SUM/FOLDBACK 17 7 0 10 -262144 -1
-1 0 1;
#X obj -48 188 hip~ 1;
#X obj 53 143 mknob 32 32 10 2000 1 0 empty empty HARMONICS 0 -8 0 8
-262144 -1 -1 0 1;
#X floatatom 28 193 5 0 0 0 - - -;
#X obj -48 214 hip~ 1;
#X obj -48 240 hip~ 1;
#X obj 91 437 lop~ 20000;
#X obj 91 470 hip~ 1;
#X obj 209 394 mknob 32 32 100 20000 1 0 empty empty HIGHs 0 -8 0 8
-262144 -1 -1 0 1;
#X obj 210 453 mknob 32 32 2000 10 1 0 empty empty LOWs 0 -8 0 8 -262144
-1 -1 3100 1;
#X floatatom 249 429 6 0 0 0 - - -;
#X floatatom 249 488 6 0 0 0 - - -;
#X obj -47 269 spigot~;
#X obj 71 260 mknob 32 32 15 50 0 0 empty empty GATE 0 -8 0 8 -262144
-1 -1 0 1;
#X obj -252 204 env~;
#X floatatom -252 232 5 0 0 0 - - -;
#X obj 19 265 >= 30;
#X obj -49 310 expr~ if($v1>$f2 \, 1 \, 0);
#X obj -13 367 *~ -1;
#X obj -137 31 inlet~ AudioFX;
#X obj -261 33 inlet~ AudioCLEAN;
#X obj 382 746 outlet~ AudioMIX;
#X obj 202 30 inlet harmonics;
#X obj 416 30 inlet low;
#X obj 480 30 inlet high;
#X obj 598 32 inlet mix;
#X obj -113 750 outlet~ Squarer;
#X obj 108 748 outlet~ SquarerUnfiltered;
#X obj 19 30 inlet mode;
#X obj -176 166 *~ 3;
#X connect 0 0 1 0;
#X connect 0 0 24 1;
#X connect 2 0 13 0;
#X connect 2 0 34 0;
#X connect 3 0 36 1;
#X connect 4 0 28 0;
#X connect 5 0 4 2;
#X connect 6 0 2 0;
#X connect 6 1 25 0;
#X connect 7 0 6 1;
#X connect 8 0 11 0;
#X connect 9 0 8 1;
#X connect 9 0 10 0;
#X connect 9 0 11 1;
#X connect 9 0 12 1;
#X connect 11 0 12 0;
#X connect 12 0 19 0;
#X connect 13 0 14 0;
#X connect 14 0 4 0;
#X connect 14 0 33 0;
#X connect 15 0 13 1;
#X connect 15 0 17 0;
#X connect 16 0 14 1;
#X connect 16 0 18 0;
#X connect 19 1 24 0;
#X connect 20 0 23 1;
#X connect 21 0 22 0;
#X connect 22 0 23 0;
#X connect 23 0 19 1;
#X connect 24 0 6 0;
#X connect 25 0 2 0;
#X connect 26 0 4 1;
#X connect 27 0 36 0;
#X connect 29 0 8 1;
#X connect 29 0 11 1;
#X connect 29 0 12 1;
#X connect 30 0 14 1;
#X connect 31 0 13 1;
#X connect 32 0 4 2;
#X connect 35 0 7 0;
#X connect 36 0 8 0;
#X connect 36 0 21 0;
