#N canvas 56 0 1302 726 10;
#X obj 426 589 crossfade~;
#X obj 138 225 hsl 50 15 0 1 0 0 empty empty mix -2 -8 0 10 -262144
-1 -1 1500 1;
#X obj 457 527 *~ 0.2;
#X obj 14 225 hsl 50 15 0.01 1 1 0 empty empty level -2 -8 0 10 -262144
-1 -1 2600 1;
#X obj 556 362 spigot~;
#X obj 153 121 tgl 15 0 empty empty 4/8 17 7 0 10 -262144 -1 -1 0 1
;
#X obj 327 96 delay_ms~ 4410 50;
#X obj 521 469 hip~ 200;
#X floatatom 685 83 5 0 0 2 fb #0-fb -;
#X floatatom 373 40 5 0 0 2 diffusion #0-diff -;
#X obj 691 480 * 2.3;
#X floatatom 710 449 5 0 0 2 wash #0-wash -;
#X obj 84 157 mknob 32 32 0.7 0.999 0 0 \$0-fb empty feedback 0 -8 0
8 -262144 -1 -1 0 1;
#X obj 145 157 mknob 32 32 0 200 0 0 \$0-diff empty diffusion 0 -8 0
8 -262144 -1 -1 0 1;
#X obj 24 157 mknob 32 32 0 86 0 0 \$0-wash empty wash 0 -8 0 8 -262144
-1 -1 0 1;
#X obj 88 214 tgl 25 0 \$0-bypass empty empty 17 7 0 10 -257985 -1
-1 0 1;
#X obj 512 117 verb_comb~ 13 0.7 5000;
#X obj 522 144 verb_comb~ 17 0.7 5000;
#X obj 532 171 verb_comb~ 19 0.7 5000;
#X obj 542 198 verb_comb~ 23 0.7 5000;
#X obj 552 225 verb_comb~ 29 0.7 5000;
#X obj 562 252 verb_comb~ 31 0.7 5000;
#X obj 572 279 verb_comb~ 37 0.7 5000;
#X obj 582 306 verb_comb~ 41 0.7 5000;
#X obj 249 69 verb_allpass~ 23;
#X obj 517 438 verb_allpass~ 10;
#X obj 508 504 verb_allpass~ 23;
#X obj 368 539 spigot~;
#X obj 443 627 spigot~;
#X obj 375 360 tgl 15 0 empty \$0-bypass empty 17 7 0 10 -262144 -1
-1 0 1;
#X obj 211 34 inlet~ in;
#X obj 427 669 outlet~ out;
#X floatatom 804 109 5 0 0 2 damp #0-damp -;
#X obj 123 119 mknob 20 20 200 15000 1 0 \$0-damp empty damp 0 -8 0
8 -262144 -1 -1 200 1;
#X connect 0 0 28 0;
#X connect 1 0 0 2;
#X connect 2 0 0 1;
#X connect 3 0 2 1;
#X connect 4 1 25 0;
#X connect 5 0 4 1;
#X connect 6 0 16 0;
#X connect 6 0 17 0;
#X connect 6 0 18 0;
#X connect 6 0 19 0;
#X connect 6 0 20 0;
#X connect 6 0 21 0;
#X connect 6 0 22 0;
#X connect 6 0 23 0;
#X connect 7 0 26 0;
#X connect 8 0 16 2;
#X connect 8 0 17 2;
#X connect 8 0 18 2;
#X connect 8 0 19 2;
#X connect 8 0 20 2;
#X connect 8 0 21 2;
#X connect 8 0 22 2;
#X connect 8 0 23 2;
#X connect 9 0 24 1;
#X connect 10 0 26 1;
#X connect 11 0 10 0;
#X connect 11 0 25 1;
#X connect 16 0 25 0;
#X connect 17 0 25 0;
#X connect 18 0 25 0;
#X connect 19 0 25 0;
#X connect 20 0 4 0;
#X connect 21 0 4 0;
#X connect 22 0 4 0;
#X connect 23 0 4 0;
#X connect 24 0 6 0;
#X connect 25 0 7 0;
#X connect 26 0 2 0;
#X connect 27 0 31 0;
#X connect 27 1 0 0;
#X connect 28 1 31 0;
#X connect 29 0 27 1;
#X connect 29 0 28 1;
#X connect 29 0 25 2;
#X connect 29 0 26 2;
#X connect 29 0 23 4;
#X connect 29 0 22 4;
#X connect 29 0 21 4;
#X connect 29 0 20 4;
#X connect 29 0 19 4;
#X connect 29 0 18 4;
#X connect 29 0 17 4;
#X connect 29 0 16 4;
#X connect 29 0 24 2;
#X connect 30 0 24 0;
#X connect 30 0 27 0;
#X connect 32 0 16 3;
#X connect 32 0 17 3;
#X connect 32 0 18 3;
#X connect 32 0 19 3;
#X connect 32 0 20 3;
#X connect 32 0 21 3;
#X connect 32 0 22 3;
#X connect 32 0 23 3;
#X coords 0 -1 1 1 200 150 1 0 100;
