#N canvas 54 0 1304 726 10;
#X obj 10 42 mknob 32 32 0.02 2 1 1 \$0-volk empty VOL 0 -8 0 8 6.35764e+007
0 6.35765e+007 1200 1;
#X obj 55 42 mknob 32 32 1 100 1 1 \$0-gaink empty GAIN 0 -8 0 8 6.35764e+007
0 6.35765e+007 3100 1;
#X obj 100 42 mknob 32 32 1000 15000 1 1 \$0-tonek empty TONE 0 -8
0 8 6.35764e+007 0 6.35765e+007 3100 1;
#X obj 150 48 tgl 15 1 \$0-modek empty MODE 17 7 0 10 -262144 -1 -1
0 1;
#N canvas 566 212 1302 726 DRIVE 1;
#X obj -20 -1332 spigot~;
#X obj 65 -1331 tgl 15 1 empty \$0-bypassk empty 17 7 0 10 -262144
-1 -1 1 1;
#X obj 673 -1087 ShinFuzz;
#X obj 466 -956 hsl 128 15 0.02 2 1 0 empty \$0-volk empty -2 -8 0
10 -262144 -1 -1 4916 1;
#X obj 721 -1120 hsl 50 15 -10 10 0 0 empty empty empty -2 -8 0 10
-262144 -1 -1 4900 1;
#X obj 113 -1133 spigot~;
#X obj 842 -1133 spigot~;
#X obj 153 -1047 ShinOctave;
#X obj 276 -1133 spigot~;
#X obj 322 -1097 ShinDrive;
#X obj 919 -1151 hsl 50 15 0 20 0 0 empty empty empty -2 -8 0 10 -262144
-1 -1 4900 1;
#X obj 882 -1101 ShinFoldback;
#X obj 390 -1114 tgl 15 1 empty \$0-modek empty 17 7 0 10 -262144 -1
-1 0 1;
#X obj 385 -956 *~ 1;
#X obj 635 -1133 spigot~;
#X obj 450 -1133 spigot~;
#X obj 548 -1120 hsl 50 15 0 1 0 0 empty empty empty -2 -8 0 10 -262144
-1 -1 4900 1;
#X obj 488 -1087 ShinShaper;
#X obj 125 -894 mknob 32 32 1000 15000 1 0 empty \$0-tonek empty 0
-8 0 8 6.35764e+007 0 6.35765e+007 0 1;
#X floatatom 125 -842 5 0 0 0 - - -;
#X obj 13 -925 lop~ 10000;
#X obj 181 -1112 tgl 15 1 empty \$0-modek empty 17 7 0 10 -262144 -1
-1 0 1;
#X obj 545 -1154 / 100;
#X obj 718 -1188 / 5;
#X obj 718 -1154 - 10;
#X obj 916 -1188 / 5;
#X obj 210 -1133 tgl 15 0 empty empty empty 17 7 0 10 -262144 -1 -1
1 1;
#X obj -21 -1373 inlet~ AudioIN;
#X obj 13 -891 lop~ 15000;
#X obj 19 -1188 s~ \$0-dist;
#X obj 92 -1163 r~ \$0-dist;
#X obj 249 -1163 r~ \$0-dist;
#X obj 416 -1163 r~ \$0-dist;
#X obj 607 -1163 r~ \$0-dist;
#X obj 798 -1163 r~ \$0-dist;
#X obj 537 -1336 hradio 15 1 0 6 empty \$0-typek empty 0 -8 0 10 -262144
-1 -1 0;
#X obj 165 -1163 tgl 15 0 empty empty empty 17 7 0 10 -262144 -1 -1
1 1;
#X obj 322 -1163 tgl 15 0 empty empty empty 17 7 0 10 -262144 -1 -1
0 1;
#X obj 491 -1163 tgl 15 0 empty empty empty 17 7 0 10 -262144 -1 -1
0 1;
#X obj 677 -1163 tgl 15 0 empty empty empty 17 7 0 10 -262144 -1 -1
0 1;
#X obj 884 -1162 tgl 15 0 empty empty empty 17 7 0 10 -262144 -1 -1
0 1;
#X obj 193 -1222 == 0;
#X obj 340 -1222 == 1;
#X obj 461 -1222 == 2;
#X obj 616 -1222 == 3;
#X obj 862 -1220 == 4;
#X obj -20 -765 outlet~ AudioOUT;
#X obj 193 -1188 r \$0-gaink;
#X obj 516 -1222 r \$0-gaink;
#X obj 680 -1243 r \$0-gaink;
#X obj 742 -1218 r \$0-tweakk;
#X obj 916 -1222 r \$0-tweakk;
#X obj 951 -1131 r \$0-gaink;
#X obj 545 -1188 r \$0-tweakk;
#X obj 333 -1140 r \$0-gaink;
#X obj 203 -1159 > 10;
#X obj 18 -1272 lop~ 15000;
#X obj 18 -1240 hip~ 20;
#X obj 105 -1295 r \$0-spark;
#X obj 105 -1259 r \$0-depth;
#X obj 1080 -1108 ShinSaturator;
#X obj 1087 -1227 == 5;
#X obj 1042 -1137 spigot~;
#X obj 998 -1167 r~ \$0-dist;
#X obj 1084 -1166 tgl 15 0 empty empty empty 17 7 0 10 -262144 -1 -1
0 1;
#X obj 1155 -1153 r \$0-gaink;
#X obj 274 -1235 / 100;
#X obj 274 -1214 - 0.5;
#X obj 274 -1274 r \$0-tweakk;
#X obj 149 -1085 +~;
#X connect 0 0 46 0;
#X connect 0 1 56 0;
#X connect 1 0 0 1;
#X connect 2 0 13 0;
#X connect 3 0 13 1;
#X connect 4 0 2 2;
#X connect 5 1 69 0;
#X connect 6 1 11 0;
#X connect 7 0 13 0;
#X connect 8 1 9 0;
#X connect 9 0 13 0;
#X connect 10 0 11 1;
#X connect 11 0 13 0;
#X connect 12 0 9 2;
#X connect 13 0 20 0;
#X connect 14 1 2 0;
#X connect 15 1 17 0;
#X connect 16 0 17 2;
#X connect 17 0 13 0;
#X connect 18 0 19 0;
#X connect 18 0 28 1;
#X connect 20 0 28 0;
#X connect 21 0 7 1;
#X connect 22 0 16 0;
#X connect 23 0 24 0;
#X connect 24 0 4 0;
#X connect 25 0 10 0;
#X connect 26 0 7 2;
#X connect 27 0 0 0;
#X connect 28 0 46 0;
#X connect 30 0 5 0;
#X connect 31 0 8 0;
#X connect 32 0 15 0;
#X connect 33 0 14 0;
#X connect 34 0 6 0;
#X connect 35 0 41 0;
#X connect 35 0 42 0;
#X connect 35 0 43 0;
#X connect 35 0 44 0;
#X connect 35 0 45 0;
#X connect 35 0 61 0;
#X connect 36 0 5 1;
#X connect 37 0 8 1;
#X connect 38 0 15 1;
#X connect 39 0 14 1;
#X connect 40 0 6 1;
#X connect 41 0 36 0;
#X connect 42 0 37 0;
#X connect 43 0 38 0;
#X connect 44 0 39 0;
#X connect 45 0 40 0;
#X connect 47 0 55 0;
#X connect 48 0 17 1;
#X connect 49 0 2 1;
#X connect 50 0 23 0;
#X connect 51 0 25 0;
#X connect 52 0 11 2;
#X connect 53 0 22 0;
#X connect 54 0 9 1;
#X connect 55 0 26 0;
#X connect 56 0 57 0;
#X connect 57 0 29 0;
#X connect 58 0 56 1;
#X connect 59 0 57 1;
#X connect 60 0 13 0;
#X connect 61 0 64 0;
#X connect 62 1 60 0;
#X connect 63 0 62 0;
#X connect 64 0 62 1;
#X connect 65 0 60 1;
#X connect 66 0 67 0;
#X connect 67 0 69 1;
#X connect 68 0 66 0;
#X connect 69 0 7 0;
#X restore 268 178 pd DRIVE;
#X obj 103 10 hradio 15 1 1 6 \$0-typek empty TYPE -27 8 0 10 -262144
-1 -1 0;
#X obj 85 121 tgl 20 1 \$0-bypassk empty DRIVE 25 10 0 10 -258113 -1
-1 1 1;
#X obj 254 36 inlet~ AudioIN;
#X obj 265 251 outlet~ AudioOUT;
#X obj 36 88 mknob 20 20 0 100 0 0 \$0-tweakk \$0-res2 TWEAK 0 -8 0
8 6.35764e+007 0 6.35765e+007 1900 1;
#X obj 80 88 mknob 20 20 500 15000 1 1 \$0-spark empty SPARK 0 -8 0
8 6.35764e+007 0 6.35765e+007 800 1;
#X obj 126 88 mknob 20 20 1000 20 1 1 \$0-depth empty DEPTH 0 -8 0
8 6.35764e+007 0 6.35765e+007 1800 1;
#X obj 14 94 bng 8 250 50 0 \$0-res empty empty 17 7 0 10 -262144 -1
-1;
#X obj 411 123 r \$0-res;
#X msg 413 149 50;
#X obj 416 184 s \$0-res2;
#X obj 371 83 loadbang;
#X connect 4 0 8 0;
#X connect 7 0 4 0;
#X connect 13 0 14 0;
#X connect 14 0 15 0;
#X connect 16 0 14 0;
#X coords 0 -1 1 1 200 150 1 0 0;
