#N canvas 0 0 1276 941 10;
#X obj 451 180 hradio 15 1 1 12 empty empty Semitone 0 -8 0 10 -262144
-1 -1 0;
#X floatatom 381 251 5 0 0 0 - - -;
#X msg 443 295 1;
#X msg 463 266 1.066;
#X msg 484 294 1.125;
#X msg 527 266 1.2;
#X msg 544 294 1.25;
#X msg 593 293 1.333;
#X msg 622 266 1.414;
#X msg 660 291 1.5;
#X msg 687 265 1.6;
#X msg 705 293 1.666;
#X msg 740 263 1.8;
#X msg 768 292 1.875;
#X obj 609 489 * 1;
#X obj 875 317 hradio 15 1 1 5 empty empty Octave 0 -8 0 10 -262144
-1 -1 2;
#X msg 664 407 0.25;
#X msg 720 406 0.5;
#X msg 769 407 1;
#X msg 816 408 2;
#X msg 866 409 4;
#X floatatom 603 343 5 0 0 0 - - -;
#X obj 538 538 * 1;
#X floatatom 609 517 5 0 0 0 - - -;
#X floatatom 568 580 5 0 0 0 - - -;
#X obj 670 449 t b f;
#X obj 216 102 inlet FreqFondamental;
#X obj 384 102 inlet octave;
#X obj 875 341 - 2;
#X obj 684 365 sel -2 -1 0 1 2;
#X obj 491 101 inlet semitone;
#X obj 451 231 sel 0 1 2 3 4 5 6 7 8 9 10 11;
#X obj 516 672 outlet NewFrequency;
#X connect 0 0 31 0;
#X connect 0 0 1 0;
#X connect 2 0 21 0;
#X connect 3 0 21 0;
#X connect 4 0 21 0;
#X connect 5 0 21 0;
#X connect 6 0 21 0;
#X connect 7 0 21 0;
#X connect 8 0 21 0;
#X connect 9 0 21 0;
#X connect 10 0 21 0;
#X connect 11 0 21 0;
#X connect 12 0 21 0;
#X connect 13 0 21 0;
#X connect 14 0 23 0;
#X connect 15 0 28 0;
#X connect 16 0 25 0;
#X connect 17 0 25 0;
#X connect 18 0 25 0;
#X connect 19 0 25 0;
#X connect 20 0 25 0;
#X connect 21 0 14 0;
#X connect 22 0 24 0;
#X connect 22 0 32 0;
#X connect 23 0 22 1;
#X connect 25 0 14 0;
#X connect 25 1 14 1;
#X connect 26 0 22 0;
#X connect 27 0 15 0;
#X connect 28 0 29 0;
#X connect 29 0 16 0;
#X connect 29 1 17 0;
#X connect 29 2 18 0;
#X connect 29 3 19 0;
#X connect 29 4 20 0;
#X connect 30 0 0 0;
#X connect 31 0 2 0;
#X connect 31 1 3 0;
#X connect 31 2 4 0;
#X connect 31 3 5 0;
#X connect 31 4 6 0;
#X connect 31 5 7 0;
#X connect 31 6 8 0;
#X connect 31 7 9 0;
#X connect 31 8 10 0;
#X connect 31 9 11 0;
#X connect 31 10 12 0;
#X connect 31 11 13 0;
