#N canvas 0 0 1268 941 10;
#X obj 314 534 hip~ 1;
#X obj 314 439 u_lowpassq;
#X obj 314 504 biquad~;
#X floatatom 238 330 7 0 0 0 - - -;
#X floatatom 411 412 5 0 0 0 - - -;
#X obj 491 221 *~ 1;
#X obj 491 249 env~;
#X obj 491 277 dbtorms;
#X obj 314 412 line;
#X floatatom 368 264 5 0 0 0 - - -;
#X obj 401 504 hip~;
#X obj 453 451 +;
#X obj 453 478 * 5000;
#X floatatom 453 506 7 0 0 0 - - -;
#X obj 314 577 +~;
#X obj 575 260 tgl 15 0 empty empty empty 17 7 0 10 -262144 -1 -1 1
1;
#X obj 314 233 spigot;
#X obj 481 392 spigot;
#X obj 585 329 tgl 15 0 empty empty empty 17 7 0 10 -262144 -1 -1 1
1;
#X obj 401 535 spigot~;
#X obj 487 541 tgl 15 0 empty empty empty 17 7 0 10 -262144 -1 -1 1
1;
#X obj 315 628 clip~ -1 1;
#X floatatom 223 391 7 0 0 0 - - -;
#X obj 575 279 metro 30;
#X msg 314 385 \$1 50;
#X obj 59 68 inlet~ AudioIN;
#X obj 190 68 inlet Range;
#X obj 575 236 loadbang;
#X obj 362 68 inlet Q;
#X obj 474 70 inlet HiPass;
#X obj 314 722 outlet~ AudioOUT;
#X floatatom 347 357 5 0 0 0 - - -;
#X floatatom 502 325 5 0 0 0 - - -;
#X floatatom 533 223 5 0 0 0 - - -;
#X obj 267 357 min 3000;
#X obj 313 292 * 5000;
#X obj 313 265 + 0.0022;
#X obj 788 71 inlet;
#X obj 788 92 switch~;
#X obj 602 71 inlet Fine;
#X obj 692 72 inlet FineHi;
#X obj 528 181 mknob 32 32 1 10 1 0 empty empty Sense 0 -8 0 8 6.35764e+007
0 6.35765e+007 397 1;
#X obj 384 215 mknob 32 32 0.01 0.1 1 0 empty empty FINE 0 -8 0 8 6.35764e+007
0 6.35765e+007 326 1;
#X obj 364 308 mknob 32 32 1000 5000 1 0 empty empty MAX 0 -8 0 8 6.35764e+007
0 6.35765e+007 0 1;
#X obj 411 372 mknob 32 32 0 20 0 0 empty empty Q 0 -8 0 8 6.35764e+007
0 6.35765e+007 2305 1;
#X obj 538 450 mknob 32 32 0.01 0.1 1 0 empty empty FINE 0 -8 0 8 6.35764e+007
0 6.35765e+007 163 1;
#X connect 0 0 14 0;
#X connect 1 0 2 0;
#X connect 2 0 0 0;
#X connect 3 0 34 0;
#X connect 4 0 1 1;
#X connect 5 0 6 0;
#X connect 6 0 7 0;
#X connect 7 0 16 0;
#X connect 7 0 17 0;
#X connect 7 0 32 0;
#X connect 8 0 1 0;
#X connect 9 0 36 1;
#X connect 10 0 19 0;
#X connect 11 0 12 0;
#X connect 12 0 13 0;
#X connect 13 0 10 1;
#X connect 14 0 21 0;
#X connect 15 0 23 0;
#X connect 16 0 36 0;
#X connect 17 0 11 0;
#X connect 18 0 16 1;
#X connect 18 0 17 1;
#X connect 19 1 14 1;
#X connect 20 0 19 1;
#X connect 21 0 30 0;
#X connect 23 0 18 0;
#X connect 24 0 8 0;
#X connect 25 0 5 0;
#X connect 25 0 2 0;
#X connect 25 0 10 0;
#X connect 26 0 41 0;
#X connect 27 0 15 0;
#X connect 28 0 44 0;
#X connect 29 0 20 0;
#X connect 31 0 34 1;
#X connect 34 0 24 0;
#X connect 34 0 22 0;
#X connect 35 0 3 0;
#X connect 36 0 35 0;
#X connect 37 0 38 0;
#X connect 39 0 42 0;
#X connect 40 0 45 0;
#X connect 41 0 5 1;
#X connect 41 0 33 0;
#X connect 42 0 9 0;
#X connect 43 0 31 0;
#X connect 44 0 4 0;
#X connect 45 0 11 1;
