#N canvas 56 -8 1302 726 10;
#N canvas 860 125 469 321 early 0;
#X obj 120 200 vd~ \$0-1;
#X obj 187 200 vd~ \$0-2;
#X obj 256 200 vd~ \$0-3;
#X obj 325 200 vd~ \$0-4;
#X obj 59 12 inlet~ audioIN;
#X obj 311 5 inlet density;
#X obj 171 -3 inlet space;
#X obj 120 180 sig~;
#X obj 187 180 sig~;
#X obj 256 180 sig~;
#X obj 325 180 sig~;
#X obj 120 160 * 1;
#X obj 187 160 * 1.3;
#X obj 256 160 * 1.7;
#X obj 325 160 * 1.9;
#X obj 171 37 expr 1000*2*$f1/343;
#X obj 204 248 +~;
#X obj 205 278 outlet~ audioOUT;
#X floatatom 261 244 5 0 0 0 - - -;
#X floatatom 303 244 5 0 0 0 - - -;
#X floatatom 344 244 5 0 0 0 - - -;
#X floatatom 384 244 5 0 0 0 - - -;
#X obj 187 78 expr 1+0.3*$f1;
#X obj 256 98 expr 1+0.7*$f1;
#X obj 325 119 expr 1+0.9*$f1;
#X obj 187 140 t b f;
#X obj 256 140 t b f;
#X obj 325 140 t b f;
#X obj 5 95 delwrite~ \$0-3 1000;
#X obj 41 51 delwrite~ \$0-1 590;
#X obj 23 73 delwrite~ \$0-2 760;
#X obj -13 117 delwrite~ \$0-4 1110;
#X obj 171 17 clip 0 100;
#X obj 312 28 clip 0 1;
#X obj 404 30 switch~;
#X obj 404 6 inlet;
#X connect 0 0 16 0;
#X connect 1 0 16 0;
#X connect 2 0 16 0;
#X connect 3 0 16 0;
#X connect 4 0 28 0;
#X connect 4 0 29 0;
#X connect 4 0 30 0;
#X connect 4 0 31 0;
#X connect 5 0 33 0;
#X connect 6 0 32 0;
#X connect 7 0 0 0;
#X connect 8 0 1 0;
#X connect 9 0 2 0;
#X connect 10 0 3 0;
#X connect 11 0 7 0;
#X connect 11 0 18 0;
#X connect 12 0 8 0;
#X connect 12 0 19 0;
#X connect 13 0 9 0;
#X connect 13 0 20 0;
#X connect 14 0 10 0;
#X connect 14 0 21 0;
#X connect 15 0 11 0;
#X connect 15 0 12 0;
#X connect 15 0 13 0;
#X connect 15 0 14 0;
#X connect 16 0 17 0;
#X connect 22 0 25 0;
#X connect 23 0 26 0;
#X connect 24 0 27 0;
#X connect 25 0 12 0;
#X connect 25 1 12 1;
#X connect 26 0 13 0;
#X connect 26 1 13 1;
#X connect 27 0 14 0;
#X connect 27 1 14 1;
#X connect 32 0 15 0;
#X connect 33 0 22 0;
#X connect 33 0 23 0;
#X connect 33 0 24 0;
#X connect 35 0 34 0;
#X restore 153 118 pd early;
#X obj 84 37 inlet~ audioIN;
#N canvas 404 173 450 300 predelay 0;
#X obj 55 33 inlet~ audioIN;
#X obj 55 57 delwrite~ \$0-pre 1000;
#X obj 148 173 vd~ \$0-pre;
#X obj 148 151 sig~;
#X obj 205 31 inlet delay;
#X obj 205 64 clip 0 1000;
#X obj 105 230 outlet~ audioOUT;
#X obj 322 54 switch~;
#X obj 322 30 inlet;
#X connect 0 0 1 0;
#X connect 2 0 6 0;
#X connect 3 0 2 0;
#X connect 4 0 5 0;
#X connect 5 0 3 0;
#X connect 8 0 7 0;
#X restore 321 90 pd predelay;
#X floatatom 398 74 5 0 1000 2 predelay #0-predelay -;
#X floatatom 175 90 5 0 100 2 size #0-size -;
#X floatatom 217 102 5 0 1 2 density #0-density -;
#N canvas 636 166 603 444 comb 0;
#X obj 89 48 inlet~ audioIN;
#X obj 121 162 vd~ \$0-del;
#X obj 121 140 sig~;
#X obj 204 48 inlet delay;
#X obj 89 336 outlet~ audioOUT;
#X obj 90 203 -~;
#X obj 120 187 *~ \$4;
#X obj 107 292 delwrite~ \$0-del 200;
#X obj 121 120 clip 0 200;
#X obj 211 170 clip -1 1;
#X obj 397 47 inlet damp;
#X obj 293 48 inlet feedback;
#X obj 212 230 clip 1 15000;
#X obj 106 247 hip~;
#X obj 485 71 switch~;
#X obj 485 47 inlet;
#X connect 0 0 5 0;
#X connect 1 0 6 0;
#X connect 2 0 1 0;
#X connect 3 0 8 0;
#X connect 5 0 4 0;
#X connect 5 0 13 0;
#X connect 6 0 5 1;
#X connect 8 0 2 0;
#X connect 9 0 6 1;
#X connect 10 0 12 0;
#X connect 11 0 9 0;
#X connect 12 0 13 1;
#X connect 13 0 7 0;
#X connect 15 0 14 0;
#X restore 419 232 pd comb;
#X floatatom 432 192 5 0 200 2 delay - -;
#X floatatom 682 98 5 1 15000 2 lodamp #0-lodamp -;
#N canvas 326 125 450 300 allpass 0;
#X obj 56 17 inlet~ audioIN;
#X obj 151 100 vd~ \$0-del;
#X obj 151 78 sig~;
#X obj 169 18 inlet delay;
#X obj 56 313 outlet~ audioOUT;
#X obj 57 172 -~;
#X obj 55 269 +~;
#X obj 56 226 *~ 0.7;
#X obj 73 145 *~ 0.7;
#X obj 151 55 clip 0 100;
#X obj 72 199 delwrite~ \$0-del 200;
#X obj 353 45 switch~;
#X obj 353 21 inlet;
#X connect 0 0 5 0;
#X connect 1 0 6 1;
#X connect 1 0 8 0;
#X connect 2 0 1 0;
#X connect 3 0 9 0;
#X connect 5 0 7 0;
#X connect 5 0 10 0;
#X connect 6 0 4 0;
#X connect 7 0 6 0;
#X connect 8 0 5 1;
#X connect 9 0 2 0;
#X connect 12 0 11 0;
#X restore 268 406 pd allpass;
#X floatatom 339 406 5 0 200 2 delay - -;
#X obj 85 700 outlet~ audioOUT;
#X obj 122 622 crossfade~;
#X obj 182 596 hsl 50 15 0 1 0 0 empty \$0-mix mix -2 -8 0 10 -262144
-1 -1 0 1;
#N canvas 650 151 450 308 eq 0;
#X obj 71 30 inlet~ audioIN;
#X obj 113 98 lop~;
#X obj 114 128 hip~;
#X obj 68 196 outlet~ audioOUT;
#X obj 179 82 clip 1 15000;
#X obj 177 112 clip 1 15000;
#X obj 189 27 inlet hicut;
#X obj 297 26 inlet locut;
#X connect 0 0 1 0;
#X connect 1 0 2 0;
#X connect 2 0 3 0;
#X connect 4 0 1 1;
#X connect 5 0 2 1;
#X connect 6 0 4 0;
#X connect 7 0 5 0;
#X restore 152 245 pd eq;
#X floatatom 165 218 5 1 15000 2 high-cut - -;
#X floatatom 213 229 5 1 15000 2 low-cut - -;
#X obj 214 148 *~ 1;
#X floatatom 257 132 5 0 1 2 complex #0-complex -;
#X obj 151 340 *~ 1;
#X floatatom 188 324 5 0 1 2 early #0-early -;
#X obj 151 529 +~;
#X obj 150 565 *~ 1;
#X floatatom 184 564 5 0 1 2 level #0-level -;
#X floatatom 355 278 5 1 15000 2 xover - -;
#X obj 307 184 +~;
#N canvas 511 273 540 373 comb 0;
#X obj 89 48 inlet~ audioIN;
#X obj 121 162 vd~ \$0-del;
#X obj 121 140 sig~;
#X obj 204 48 inlet delay;
#X obj 89 336 outlet~ audioOUT;
#X obj 90 203 -~;
#X obj 120 187 *~ \$4;
#X obj 107 292 delwrite~ \$0-del 200;
#X obj 121 120 clip 0 200;
#X obj 211 170 clip -1 1;
#X obj 397 47 inlet damp;
#X obj 293 48 inlet feedback;
#X obj 212 230 clip 1 15000;
#X obj 106 247 hip~;
#X obj 476 72 switch~;
#X obj 476 48 inlet;
#X connect 0 0 5 0;
#X connect 1 0 6 0;
#X connect 2 0 1 0;
#X connect 3 0 8 0;
#X connect 5 0 4 0;
#X connect 5 0 13 0;
#X connect 6 0 5 1;
#X connect 8 0 2 0;
#X connect 9 0 6 1;
#X connect 10 0 12 0;
#X connect 11 0 9 0;
#X connect 12 0 13 1;
#X connect 13 0 7 0;
#X connect 15 0 14 0;
#X restore 551 232 pd comb;
#X floatatom 564 192 5 0 200 2 delay - -;
#X floatatom 631 98 5 -1 1 2 lofback #0-lofb -;
#N canvas 653 249 728 514 comb 0;
#X obj 89 48 inlet~ audioIN;
#X obj 121 162 vd~ \$0-del;
#X obj 121 140 sig~;
#X obj 204 48 inlet delay;
#X obj 89 336 outlet~ audioOUT;
#X obj 90 203 -~;
#X obj 120 187 *~ \$4;
#X obj 107 292 delwrite~ \$0-del 200;
#X obj 121 120 clip 0 200;
#X obj 211 170 clip -1 1;
#X obj 397 47 inlet damp;
#X obj 293 48 inlet feedback;
#X obj 212 230 clip 1 15000;
#X obj 106 247 hip~;
#X obj 490 74 switch~;
#X obj 490 50 inlet;
#X connect 0 0 5 0;
#X connect 1 0 6 0;
#X connect 2 0 1 0;
#X connect 3 0 8 0;
#X connect 5 0 4 0;
#X connect 5 0 13 0;
#X connect 6 0 5 1;
#X connect 8 0 2 0;
#X connect 9 0 6 1;
#X connect 10 0 12 0;
#X connect 11 0 9 0;
#X connect 12 0 13 1;
#X connect 13 0 7 0;
#X connect 15 0 14 0;
#X restore 690 232 pd comb;
#X floatatom 711 193 5 0 200 2 delay - -;
#N canvas 647 231 734 532 comb 0;
#X obj 89 48 inlet~ audioIN;
#X obj 121 162 vd~ \$0-del;
#X obj 121 140 sig~;
#X obj 204 48 inlet delay;
#X obj 89 336 outlet~ audioOUT;
#X obj 90 203 -~;
#X obj 120 187 *~ \$4;
#X obj 107 292 delwrite~ \$0-del 200;
#X obj 121 120 clip 0 200;
#X obj 211 170 clip -1 1;
#X obj 397 47 inlet damp;
#X obj 293 48 inlet feedback;
#X obj 212 230 clip 1 15000;
#X obj 106 247 hip~;
#X obj 490 73 switch~;
#X obj 490 49 inlet;
#X connect 0 0 5 0;
#X connect 1 0 6 0;
#X connect 2 0 1 0;
#X connect 3 0 8 0;
#X connect 5 0 4 0;
#X connect 5 0 13 0;
#X connect 6 0 5 1;
#X connect 8 0 2 0;
#X connect 9 0 6 1;
#X connect 10 0 12 0;
#X connect 11 0 9 0;
#X connect 12 0 13 1;
#X connect 13 0 7 0;
#X connect 15 0 14 0;
#X restore 831 232 pd comb;
#X floatatom 839 187 5 0 200 2 delay - -;
#N canvas 615 216 555 390 comb 0;
#X obj 89 48 inlet~ audioIN;
#X obj 121 162 vd~ \$0-del;
#X obj 121 140 sig~;
#X obj 204 48 inlet delay;
#X obj 89 336 outlet~ audioOUT;
#X obj 90 203 -~;
#X obj 120 187 *~ \$4;
#X obj 107 292 delwrite~ \$0-del 200;
#X obj 121 120 clip 0 200;
#X obj 211 170 clip -1 1;
#X obj 106 247 lop~;
#X obj 397 47 inlet damp;
#X obj 293 48 inlet feedback;
#X obj 212 230 clip 1 15000;
#X obj 491 73 switch~;
#X obj 491 49 inlet;
#X connect 0 0 5 0;
#X connect 1 0 6 0;
#X connect 2 0 1 0;
#X connect 3 0 8 0;
#X connect 5 0 4 0;
#X connect 5 0 10 0;
#X connect 6 0 5 1;
#X connect 8 0 2 0;
#X connect 9 0 6 1;
#X connect 10 0 7 0;
#X connect 11 0 13 0;
#X connect 12 0 9 0;
#X connect 13 0 10 1;
#X connect 15 0 14 0;
#X restore 472 361 pd comb;
#X floatatom 485 321 5 0 200 2 delay - -;
#X floatatom 671 269 5 -1 1 2 hifback #0-hifb -;
#X floatatom 733 267 5 1 15000 2 hidamp #0-hidamp -;
#N canvas 730 197 560 507 comb 0;
#X obj 89 48 inlet~ audioIN;
#X obj 121 162 vd~ \$0-del;
#X obj 121 140 sig~;
#X obj 204 48 inlet delay;
#X obj 89 336 outlet~ audioOUT;
#X obj 90 203 -~;
#X obj 120 187 *~ \$4;
#X obj 107 292 delwrite~ \$0-del 200;
#X obj 121 120 clip 0 200;
#X obj 211 170 clip -1 1;
#X obj 106 247 lop~;
#X obj 397 47 inlet damp;
#X obj 293 48 inlet feedback;
#X obj 212 230 clip 1 15000;
#X obj 497 74 switch~;
#X obj 497 50 inlet;
#X connect 0 0 5 0;
#X connect 1 0 6 0;
#X connect 2 0 1 0;
#X connect 3 0 8 0;
#X connect 5 0 4 0;
#X connect 5 0 10 0;
#X connect 6 0 5 1;
#X connect 8 0 2 0;
#X connect 9 0 6 1;
#X connect 10 0 7 0;
#X connect 11 0 13 0;
#X connect 12 0 9 0;
#X connect 13 0 10 1;
#X connect 15 0 14 0;
#X restore 622 361 pd comb;
#X floatatom 635 321 5 0 200 2 delay - -;
#N canvas 563 168 568 430 comb 0;
#X obj 89 48 inlet~ audioIN;
#X obj 121 162 vd~ \$0-del;
#X obj 121 140 sig~;
#X obj 204 48 inlet delay;
#X obj 89 336 outlet~ audioOUT;
#X obj 90 203 -~;
#X obj 120 187 *~ \$4;
#X obj 107 292 delwrite~ \$0-del 200;
#X obj 121 120 clip 0 200;
#X obj 211 170 clip -1 1;
#X obj 106 247 lop~;
#X obj 397 47 inlet damp;
#X obj 293 48 inlet feedback;
#X obj 212 230 clip 1 15000;
#X obj 479 70 switch~;
#X obj 479 46 inlet;
#X connect 0 0 5 0;
#X connect 1 0 6 0;
#X connect 2 0 1 0;
#X connect 3 0 8 0;
#X connect 5 0 4 0;
#X connect 5 0 10 0;
#X connect 6 0 5 1;
#X connect 8 0 2 0;
#X connect 9 0 6 1;
#X connect 10 0 7 0;
#X connect 11 0 13 0;
#X connect 12 0 9 0;
#X connect 13 0 10 1;
#X connect 15 0 14 0;
#X restore 759 361 pd comb;
#X floatatom 772 321 5 0 200 2 delay - -;
#N canvas 616 233 589 446 comb 0;
#X obj 89 48 inlet~ audioIN;
#X obj 121 162 vd~ \$0-del;
#X obj 121 140 sig~;
#X obj 204 48 inlet delay;
#X obj 89 336 outlet~ audioOUT;
#X obj 90 203 -~;
#X obj 120 187 *~ \$4;
#X obj 107 292 delwrite~ \$0-del 200;
#X obj 121 120 clip 0 200;
#X obj 211 170 clip -1 1;
#X obj 106 247 lop~;
#X obj 397 47 inlet damp;
#X obj 293 48 inlet feedback;
#X obj 212 230 clip 1 15000;
#X obj 483 71 switch~;
#X obj 483 47 inlet;
#X connect 0 0 5 0;
#X connect 1 0 6 0;
#X connect 2 0 1 0;
#X connect 3 0 8 0;
#X connect 5 0 4 0;
#X connect 5 0 10 0;
#X connect 6 0 5 1;
#X connect 8 0 2 0;
#X connect 9 0 6 1;
#X connect 10 0 7 0;
#X connect 11 0 13 0;
#X connect 12 0 9 0;
#X connect 13 0 10 1;
#X connect 15 0 14 0;
#X restore 909 361 pd comb;
#X floatatom 922 321 5 0 200 2 delay - -;
#X obj 266 248 +~;
#X obj 267 377 +~;
#N canvas 326 125 450 300 allpass 0;
#X obj 56 17 inlet~ audioIN;
#X obj 151 100 vd~ \$0-del;
#X obj 151 78 sig~;
#X obj 169 18 inlet delay;
#X obj 56 313 outlet~ audioOUT;
#X obj 57 172 -~;
#X obj 55 269 +~;
#X obj 56 226 *~ 0.7;
#X obj 73 145 *~ 0.7;
#X obj 151 55 clip 0 100;
#X obj 72 199 delwrite~ \$0-del 200;
#X obj 361 48 switch~;
#X obj 361 24 inlet;
#X connect 0 0 5 0;
#X connect 1 0 6 1;
#X connect 1 0 8 0;
#X connect 2 0 1 0;
#X connect 3 0 9 0;
#X connect 5 0 7 0;
#X connect 5 0 10 0;
#X connect 6 0 4 0;
#X connect 7 0 6 0;
#X connect 8 0 5 1;
#X connect 9 0 2 0;
#X connect 12 0 11 0;
#X restore 268 442 pd allpass;
#X floatatom 339 442 5 0 200 2 delay - -;
#N canvas 326 125 450 300 allpass 0;
#X obj 56 17 inlet~ audioIN;
#X obj 151 100 vd~ \$0-del;
#X obj 151 78 sig~;
#X obj 169 18 inlet delay;
#X obj 56 313 outlet~ audioOUT;
#X obj 57 172 -~;
#X obj 55 269 +~;
#X obj 56 226 *~ 0.7;
#X obj 73 145 *~ 0.7;
#X obj 151 55 clip 0 100;
#X obj 72 199 delwrite~ \$0-del 200;
#X obj 356 41 switch~;
#X obj 356 17 inlet;
#X connect 0 0 5 0;
#X connect 1 0 6 1;
#X connect 1 0 8 0;
#X connect 2 0 1 0;
#X connect 3 0 9 0;
#X connect 5 0 7 0;
#X connect 5 0 10 0;
#X connect 6 0 4 0;
#X connect 7 0 6 0;
#X connect 8 0 5 1;
#X connect 9 0 2 0;
#X connect 12 0 11 0;
#X restore 268 477 pd allpass;
#X floatatom 339 477 5 0 200 2 delay - -;
#N canvas 326 125 450 300 allpass 0;
#X obj 56 17 inlet~ audioIN;
#X obj 151 100 vd~ \$0-del;
#X obj 151 78 sig~;
#X obj 169 18 inlet delay;
#X obj 56 313 outlet~ audioOUT;
#X obj 57 172 -~;
#X obj 55 269 +~;
#X obj 56 226 *~ 0.7;
#X obj 73 145 *~ 0.7;
#X obj 151 55 clip 0 100;
#X obj 72 199 delwrite~ \$0-del 200;
#X obj 353 48 switch~;
#X obj 353 24 inlet;
#X connect 0 0 5 0;
#X connect 1 0 6 1;
#X connect 1 0 8 0;
#X connect 2 0 1 0;
#X connect 3 0 9 0;
#X connect 5 0 7 0;
#X connect 5 0 10 0;
#X connect 6 0 4 0;
#X connect 7 0 6 0;
#X connect 8 0 5 1;
#X connect 9 0 2 0;
#X connect 12 0 11 0;
#X restore 268 513 pd allpass;
#X floatatom 339 513 5 0 200 2 delay - -;
#X obj 372 216 lop~;
#X obj 336 345 hip~;
#X obj 812 512 mknob 32 32 0 100 0 0 \$0-size empty size 0 -8 0 8 -262144
-1 -1 0 1;
#X obj 84 595 spigot~;
#X obj 122 650 spigot~;
#X obj 123 565 tgl 15 0 empty \$0-switch empty 17 7 0 10 -262144 -1
-1 0 1;
#X obj 997 217 tgl 15 0 empty empty empty 17 7 0 10 -262144 -1 -1 0
1;
#X obj 1057 346 tgl 15 0 empty empty empty 17 7 0 10 -262144 -1 -1
0 1;
#X obj 812 608 mknob 32 32 0 1000 0 0 \$0-predelay empty predelay 0
-8 0 8 -262144 -1 -1 0 1;
#X obj 857 512 mknob 32 32 0 1 0 0 \$0-density empty density 0 -8 0
8 -262144 -1 -1 0 1;
#X obj 321 28 tgl 15 0 empty \$0-switch empty 17 7 0 10 -262144 -1
-1 0 1;
#X obj 812 560 mknob 32 32 0.01 1 1 0 \$0-complex empty complex 0 -8
0 8 -262144 -1 -1 0 1;
#X obj 857 560 mknob 32 32 0.01 1 1 0 \$0-early empty early 0 -8 0 8
-262144 -1 -1 0 1;
#X obj 857 608 mknob 32 32 0 1 0 0 \$0-xover empty xover 0 -8 0 8 -262144
-1 -1 0 1;
#X obj 901 560 mknob 32 32 100 15000 1 0 \$0-hidamp empty hidamp 0 -8
0 8 -262144 -1 -1 1700 1;
#X obj 343 200 lop~;
#X obj 308 329 hip~;
#X obj 946 560 mknob 32 32 100 15000 1 0 \$0-lodamp empty lodamp 0 -8
0 8 -262144 -1 -1 0 1;
#X obj 901 512 mknob 32 32 0 1 0 0 \$0-flutter empty flutter 0 -8 0
8 -262144 -1 -1 0 1;
#X obj 946 512 mknob 32 32 0 1 0 0 \$0-wash empty wash 0 -8 0 8 -262144
-1 -1 0 1;
#X obj 901 608 mknob 32 32 0 1 0 0 \$0-hifb empty hifback 0 -8 0 8 -262144
-1 -1 0 1;
#X obj 946 608 mknob 32 32 0 1 0 0 \$0-lofb empty lofback 0 -8 0 8 -262144
-1 -1 0 1;
#X obj 1008 596 tgl 15 0 \$0-hirev empty hirev 17 7 0 10 -262144 -1
-1 0 1;
#X obj 1008 616 tgl 15 0 \$0-lorev empty lorev 17 7 0 10 -262144 -1
-1 0 1;
#X obj 1039 463 tgl 15 0 \$0-switch empty on/off 17 7 0 10 -262144
-1 -1 0 1;
#X obj 1017 523 hsl 50 15 0 1 0 0 \$0-mix empty mix -2 -8 0 10 -262144
-1 -1 0 1;
#X obj 1017 554 hsl 50 15 0.01 1 1 0 \$0-level empty level -2 -8 0
10 -262144 -1 -1 0 1;
#X obj 997 193 &&;
#X obj 972 125 tgl 15 0 empty \$0-lorev lr 17 7 0 10 -262144 -1 -1
0 1;
#X obj 997 143 tgl 15 0 empty \$0-switch empty 17 7 0 10 -262144 -1
-1 0 1;
#X obj 997 166 t b i;
#X obj 1057 322 &&;
#X obj 1032 256 tgl 15 0 empty \$0-hirev hr 17 7 0 10 -262144 -1 -1
0 1;
#X obj 1057 272 tgl 15 0 empty \$0-switch empty 17 7 0 10 -262144 -1
-1 0 1;
#X obj 1057 295 t b i;
#X obj 419 510 * 197;
#X obj 420 472 * 137;
#X obj 424 435 * 79;
#X obj 425 397 * 31;
#X floatatom 502 458 5 0 1 2 flutter #0-flutter -;
#X obj 437 160 * 31;
#X obj 565 154 * 79;
#X obj 712 157 * 137;
#X obj 832 145 * 197;
#X floatatom 521 93 5 0 1 2 wash #0-wash -;
#X obj 485 289 * 13;
#X obj 636 291 * 57;
#X obj 775 287 * 91;
#X obj 921 287 * 137;
#X connect 0 0 17 0;
#X connect 0 0 14 0;
#X connect 1 0 2 0;
#X connect 1 0 0 0;
#X connect 1 0 54 0;
#X connect 2 0 25 1;
#X connect 3 0 2 1;
#X connect 4 0 0 1;
#X connect 5 0 0 2;
#X connect 6 0 43 0;
#X connect 7 0 6 1;
#X connect 8 0 6 3;
#X connect 8 0 26 3;
#X connect 8 0 29 3;
#X connect 8 0 31 3;
#X connect 9 0 45 0;
#X connect 10 0 9 1;
#X connect 12 0 55 0;
#X connect 13 0 12 2;
#X connect 14 0 19 0;
#X connect 15 0 14 1;
#X connect 16 0 14 2;
#X connect 17 0 25 0;
#X connect 18 0 17 1;
#X connect 19 0 21 0;
#X connect 20 0 19 1;
#X connect 21 0 22 0;
#X connect 22 0 12 1;
#X connect 23 0 22 1;
#X connect 24 0 51 1;
#X connect 24 0 66 1;
#X connect 24 0 67 1;
#X connect 24 0 52 1;
#X connect 24 0 15 0;
#X connect 24 0 16 0;
#X connect 25 0 66 0;
#X connect 25 0 67 0;
#X connect 26 0 43 0;
#X connect 27 0 26 1;
#X connect 28 0 26 2;
#X connect 28 0 6 2;
#X connect 28 0 29 2;
#X connect 28 0 31 2;
#X connect 29 0 43 0;
#X connect 30 0 29 1;
#X connect 31 0 43 0;
#X connect 32 0 31 1;
#X connect 33 0 44 1;
#X connect 34 0 33 1;
#X connect 35 0 33 2;
#X connect 35 0 37 2;
#X connect 35 0 39 2;
#X connect 35 0 41 2;
#X connect 36 0 33 3;
#X connect 36 0 37 3;
#X connect 36 0 39 3;
#X connect 36 0 41 3;
#X connect 37 0 44 1;
#X connect 38 0 37 1;
#X connect 39 0 44 1;
#X connect 40 0 39 1;
#X connect 41 0 44 1;
#X connect 42 0 41 1;
#X connect 43 0 44 0;
#X connect 44 0 9 0;
#X connect 45 0 47 0;
#X connect 46 0 45 1;
#X connect 47 0 49 0;
#X connect 48 0 47 1;
#X connect 49 0 21 1;
#X connect 50 0 49 1;
#X connect 51 0 6 0;
#X connect 51 0 26 0;
#X connect 51 0 29 0;
#X connect 51 0 31 0;
#X connect 52 0 33 0;
#X connect 52 0 37 0;
#X connect 52 0 39 0;
#X connect 52 0 41 0;
#X connect 54 0 11 0;
#X connect 54 1 12 0;
#X connect 55 1 11 0;
#X connect 56 0 54 1;
#X connect 56 0 55 1;
#X connect 57 0 6 4;
#X connect 57 0 26 4;
#X connect 57 0 29 4;
#X connect 57 0 31 4;
#X connect 58 0 33 4;
#X connect 58 0 37 4;
#X connect 58 0 39 4;
#X connect 58 0 41 4;
#X connect 61 0 2 2;
#X connect 61 0 0 3;
#X connect 66 0 51 0;
#X connect 67 0 52 0;
#X connect 78 0 57 0;
#X connect 79 0 78 0;
#X connect 80 0 81 0;
#X connect 81 0 78 0;
#X connect 81 1 78 1;
#X connect 82 0 58 0;
#X connect 83 0 82 0;
#X connect 84 0 85 0;
#X connect 85 0 82 0;
#X connect 85 1 82 1;
#X connect 86 0 50 0;
#X connect 87 0 48 0;
#X connect 88 0 46 0;
#X connect 89 0 10 0;
#X connect 90 0 89 0;
#X connect 90 0 88 0;
#X connect 90 0 87 0;
#X connect 90 0 86 0;
#X connect 91 0 7 0;
#X connect 92 0 27 0;
#X connect 93 0 30 0;
#X connect 94 0 32 0;
#X connect 95 0 91 0;
#X connect 95 0 92 0;
#X connect 95 0 93 0;
#X connect 95 0 94 0;
#X connect 95 0 96 0;
#X connect 95 0 97 0;
#X connect 95 0 98 0;
#X connect 95 0 99 0;
#X connect 96 0 34 0;
#X connect 97 0 38 0;
#X connect 98 0 40 0;
#X connect 99 0 42 0;
#X coords 0 -1 1 1 300 200 1 800 450;
