#N canvas 304 209 544 427 10;
#X obj 17 -35 inlet~ Audio IN;
#X obj 57 160 crossfade~;
#X obj 56 190 outlet~ Audio OUT;
#X floatatom 109 94 5 0 0 0 - - -;
#X obj 109 27 t b f;
#X obj 109 74 /;
#X obj 117 -35 inlet SampleDivision;
#X obj 249 -35 inlet Bit;
#X obj 314 -35 inlet Mix;
#X obj 137 145 hsl 128 15 0 1 0 0 empty empty empty -2 -8 0 10 -262144
-1 -1 0 1;
#X obj 173 191 outlet SamplePart;
#X msg 92 49 1;
#X obj 84 113 decimate~ 1 16;
#X obj 389 -34 inlet;
#X obj 389 -12 switch~;
#X connect 0 0 1 0;
#X connect 0 0 12 0;
#X connect 1 0 2 0;
#X connect 3 0 10 0;
#X connect 3 0 12 1;
#X connect 4 0 11 0;
#X connect 4 1 5 1;
#X connect 5 0 3 0;
#X connect 6 0 4 0;
#X connect 7 0 12 2;
#X connect 8 0 9 0;
#X connect 9 0 1 2;
#X connect 11 0 5 0;
#X connect 12 0 1 1;
#X connect 13 0 14 0;
