#N canvas 56 0 1302 726 10;
#N canvas 619 143 469 321 early 0;
#X obj 120 200 vd~ \$0-1;
#X obj 187 200 vd~ \$0-2;
#X obj 256 200 vd~ \$0-3;
#X obj 325 200 vd~ \$0-4;
#X obj 59 12 inlet~ audioIN;
#X obj 311 5 inlet density;
#X obj 171 -3 inlet space;
#X obj 120 180 sig~;
#X obj 187 180 sig~;
#X obj 256 180 sig~;
#X obj 325 180 sig~;
#X obj 120 160 * 1;
#X obj 187 160 * 1.3;
#X obj 325 160 * 1.9;
#X obj 171 37 expr 1000*2*$f1/343;
#X obj 204 248 +~;
#X obj 205 278 outlet~ audioOUT;
#X floatatom 261 244 5 0 0 0 - - -;
#X floatatom 303 244 5 0 0 0 - - -;
#X floatatom 344 244 5 0 0 0 - - -;
#X floatatom 384 244 5 0 0 0 - - -;
#X obj 187 78 expr 1+0.3*$f1;
#X obj 325 119 expr 1+0.9*$f1;
#X obj 187 140 t b f;
#X obj 256 140 t b f;
#X obj 325 140 t b f;
#X obj 41 51 delwrite~ \$0-1 590;
#X obj 23 73 delwrite~ \$0-2 760;
#X obj -13 117 delwrite~ \$0-4 1110;
#X obj 171 17 clip 0 100;
#X obj 312 28 clip 0 1;
#X obj 404 30 switch~;
#X obj 404 6 inlet;
#X obj 256 98 expr 1+0.6*$f1;
#X obj 256 160 * 1.6;
#X obj 5 95 delwrite~ \$0-3 940;
#X connect 0 0 15 0;
#X connect 1 0 15 0;
#X connect 2 0 15 0;
#X connect 3 0 15 0;
#X connect 4 0 26 0;
#X connect 4 0 27 0;
#X connect 4 0 28 0;
#X connect 4 0 35 0;
#X connect 5 0 30 0;
#X connect 6 0 29 0;
#X connect 7 0 0 0;
#X connect 8 0 1 0;
#X connect 9 0 2 0;
#X connect 10 0 3 0;
#X connect 11 0 7 0;
#X connect 11 0 17 0;
#X connect 12 0 8 0;
#X connect 12 0 18 0;
#X connect 13 0 10 0;
#X connect 13 0 20 0;
#X connect 14 0 11 0;
#X connect 14 0 12 0;
#X connect 14 0 13 0;
#X connect 14 0 34 0;
#X connect 15 0 16 0;
#X connect 21 0 23 0;
#X connect 22 0 25 0;
#X connect 23 0 12 0;
#X connect 23 1 12 1;
#X connect 24 0 34 0;
#X connect 24 1 34 1;
#X connect 25 0 13 0;
#X connect 25 1 13 1;
#X connect 29 0 14 0;
#X connect 30 0 21 0;
#X connect 30 0 22 0;
#X connect 30 0 33 0;
#X connect 32 0 31 0;
#X connect 33 0 24 0;
#X connect 34 0 9 0;
#X connect 34 0 19 0;
#X restore 153 118 pd early;
#X obj 84 37 inlet~ audioIN;
#N canvas 404 173 450 300 predelay 0;
#X obj 55 33 inlet~ audioIN;
#X obj 55 57 delwrite~ \$0-pre 1000;
#X obj 148 173 vd~ \$0-pre;
#X obj 148 151 sig~;
#X obj 205 31 inlet delay;
#X obj 205 64 clip 0 1000;
#X obj 105 230 outlet~ audioOUT;
#X obj 322 54 switch~;
#X obj 322 30 inlet;
#X connect 0 0 1 0;
#X connect 2 0 6 0;
#X connect 3 0 2 0;
#X connect 4 0 5 0;
#X connect 5 0 3 0;
#X connect 8 0 7 0;
#X restore 322 156 pd predelay;
#X floatatom 399 140 5 0 1000 2 predelay #0-predelay -;
#X floatatom 175 90 5 0 100 2 size #0-size -;
#X floatatom 217 102 5 0 1 2 density #0-density -;
#X floatatom 432 192 5 0 200 2 delay - -;
#X floatatom 682 98 5 1 15000 2 lodamp #0-lodamp -;
#X floatatom 360 405 5 0 200 2 delay - -;
#X obj 85 700 outlet~ audioOUT;
#X obj 122 622 crossfade~;
#X obj 182 596 hsl 50 15 0 1 0 0 empty \$0-mix mix -2 -8 0 10 -262144
-1 -1 1700 1;
#X obj 214 148 *~ 1;
#X floatatom 257 132 5 0 1 2 complex #0-complex -;
#X obj 151 340 *~ 1;
#X floatatom 188 324 5 0 1 2 early #0-early -;
#X obj 151 547 +~;
#X obj 224 556 *~ 1;
#X floatatom 258 555 5 0 1 2 level #0-level -;
#X floatatom 355 278 5 1 15000 2 xover #0-xover -;
#X obj 307 184 +~;
#X floatatom 564 192 5 0 200 2 delay - -;
#X floatatom 631 98 5 -1 1 2 lofback #0-lofb -;
#X floatatom 711 193 5 0 200 2 delay - -;
#X floatatom 839 187 5 0 200 2 delay - -;
#X floatatom 485 321 5 0 200 2 delay - -;
#X floatatom 671 269 5 -1 1 2 hifback #0-hifb -;
#X floatatom 635 321 5 0 200 2 delay - -;
#X floatatom 772 321 5 0 200 2 delay - -;
#X floatatom 922 321 5 0 200 2 delay - -;
#X obj 266 248 +~;
#X obj 267 377 +~;
#X floatatom 358 442 5 0 200 2 delay - -;
#X floatatom 358 477 5 0 200 2 delay - -;
#X floatatom 358 513 5 0 200 2 delay - -;
#X obj 372 216 lop~;
#X obj 336 345 hip~;
#X obj 812 512 mknob 32 32 0 100 0 0 \$0-size empty size 0 -8 0 8 -262144
-1 -1 1200 1;
#X obj 84 595 spigot~;
#X obj 122 650 spigot~;
#X obj 123 565 tgl 15 0 empty \$0-switch empty 17 7 0 10 -262144 -1
-1 1 1;
#X obj 997 217 tgl 15 0 empty empty empty 17 7 0 10 -262144 -1 -1 1
1;
#X obj 1057 346 tgl 15 0 empty empty empty 17 7 0 10 -262144 -1 -1
1 1;
#X obj 812 608 mknob 32 32 0 1000 0 0 \$0-predelay empty predelay 0
-8 0 8 -262144 -1 -1 300 1;
#X obj 857 512 mknob 32 32 0 1 0 0 \$0-density empty density 0 -8 0
8 -262144 -1 -1 1000 1;
#X obj 321 28 tgl 15 0 empty \$0-switch empty 17 7 0 10 -262144 -1
-1 1 1;
#X obj 812 560 mknob 32 32 0.01 1 1 0 \$0-complex empty complex 0 -8
0 8 -262144 -1 -1 2400 1;
#X obj 857 560 mknob 32 32 0.01 1 1 0 \$0-early empty early 0 -8 0 8
-262144 -1 -1 0 1;
#X obj 857 608 mknob 32 32 0 2000 0 0 \$0-xover empty xover 0 -8 0 8
-262144 -1 -1 500 1;
#X obj 901 560 mknob 32 32 100 15000 1 0 \$0-hidamp empty hidamp 0 -8
0 8 -262144 -1 -1 2000 1;
#X obj 343 200 lop~;
#X obj 308 329 hip~;
#X obj 946 560 mknob 32 32 100 15000 1 0 \$0-lodamp empty lodamp 0 -8
0 8 -262144 -1 -1 3100 1;
#X obj 901 512 mknob 32 32 0 1 0 0 \$0-flutter empty flutter 0 -8 0
8 -262144 -1 -1 3100 1;
#X obj 946 512 mknob 32 32 0 1 0 0 \$0-wash empty wash 0 -8 0 8 -262144
-1 -1 2300 1;
#X obj 901 608 mknob 32 32 0 1 0 0 \$0-hifb empty hifback 0 -8 0 8 -262144
-1 -1 2900 1;
#X obj 946 608 mknob 32 32 0 1 0 0 \$0-lofb empty lofback 0 -8 0 8 -262144
-1 -1 2900 1;
#X obj 1008 596 tgl 15 0 \$0-hirev empty hirev 17 7 0 10 -262144 -1
-1 1 1;
#X obj 1008 616 tgl 15 0 \$0-lorev empty lorev 17 7 0 10 -262144 -1
-1 1 1;
#X obj 1039 463 tgl 15 0 \$0-switch empty on/off 17 7 0 10 -262144
-1 -1 1 1;
#X obj 1017 523 hsl 50 15 0 1 0 0 \$0-mix empty mix -2 -8 0 10 -262144
-1 -1 1700 1;
#X obj 1017 554 hsl 50 15 0.01 1 1 0 \$0-level empty level -2 -8 0
10 -262144 -1 -1 2500 1;
#X obj 997 193 &&;
#X obj 972 125 tgl 15 0 empty \$0-lorev lr 17 7 0 10 -262144 -1 -1
1 1;
#X obj 997 143 tgl 15 0 empty \$0-switch empty 17 7 0 10 -262144 -1
-1 1 1;
#X obj 1057 322 &&;
#X obj 1032 256 tgl 15 0 empty \$0-hirev hr 17 7 0 10 -262144 -1 -1
1 1;
#X obj 1057 272 tgl 15 0 empty \$0-switch empty 17 7 0 10 -262144 -1
-1 1 1;
#X obj 419 510 * 197;
#X obj 420 472 * 137;
#X obj 424 435 * 79;
#X obj 425 397 * 31;
#X floatatom 502 458 5 0 1 2 flutter #0-flutter -;
#X obj 437 160 * 31;
#X obj 565 154 * 79;
#X obj 712 157 * 137;
#X obj 832 145 * 197;
#X floatatom 521 93 5 0 1 2 wash #0-wash -;
#X obj 485 289 * 13;
#X obj 636 291 * 57;
#X obj 775 287 * 91;
#X obj 472 361 verb_comb~;
#X obj 268 406 verb_allpass~;
#X obj 268 442 verb_allpass~;
#X obj 268 477 verb_allpass~;
#X obj 268 513 verb_allpass~;
#X obj 382 556 tgl 15 0 empty \$0-switch empty 17 7 0 10 -262144 -1
-1 1 1;
#X obj 419 232 verb_comb~;
#X obj 551 232 verb_comb~;
#X obj 690 232 verb_comb~;
#X obj 831 232 verb_comb~;
#X obj 622 361 verb_comb~;
#X obj 759 361 verb_comb~;
#X obj 909 361 verb_comb~;
#X floatatom 718 270 5 1 15000 2 hidamp #0-hidamp -;
#X obj 921 287 * 139;
#X obj 266 294 hip~ 200;
#X obj 997 166 t b a;
#X obj 1057 295 t b a;
#X connect 0 0 12 0;
#X connect 0 0 14 0;
#X connect 1 0 2 0;
#X connect 1 0 0 0;
#X connect 1 0 38 0;
#X connect 2 0 20 1;
#X connect 3 0 2 1;
#X connect 4 0 0 1;
#X connect 5 0 0 2;
#X connect 6 0 87 1;
#X connect 7 0 87 3;
#X connect 7 0 88 3;
#X connect 7 0 89 3;
#X connect 7 0 90 3;
#X connect 8 0 82 1;
#X connect 10 0 39 0;
#X connect 11 0 10 2;
#X connect 12 0 2 0;
#X connect 13 0 12 1;
#X connect 14 0 16 0;
#X connect 15 0 14 1;
#X connect 16 0 10 1;
#X connect 17 0 16 1;
#X connect 18 0 17 1;
#X connect 19 0 35 1;
#X connect 19 0 50 1;
#X connect 19 0 51 1;
#X connect 19 0 36 1;
#X connect 20 0 50 0;
#X connect 20 0 51 0;
#X connect 21 0 88 1;
#X connect 22 0 87 2;
#X connect 22 0 88 2;
#X connect 22 0 89 2;
#X connect 22 0 90 2;
#X connect 23 0 89 1;
#X connect 24 0 90 1;
#X connect 25 0 81 1;
#X connect 26 0 81 2;
#X connect 26 0 91 2;
#X connect 26 0 92 2;
#X connect 26 0 93 2;
#X connect 27 0 91 1;
#X connect 28 0 92 1;
#X connect 29 0 93 1;
#X connect 30 0 96 0;
#X connect 31 0 82 0;
#X connect 32 0 83 1;
#X connect 33 0 84 1;
#X connect 34 0 85 1;
#X connect 35 0 87 0;
#X connect 35 0 88 0;
#X connect 35 0 89 0;
#X connect 35 0 90 0;
#X connect 36 0 81 0;
#X connect 36 0 91 0;
#X connect 36 0 92 0;
#X connect 36 0 93 0;
#X connect 38 0 9 0;
#X connect 38 1 10 0;
#X connect 39 1 9 0;
#X connect 40 0 38 1;
#X connect 40 0 39 1;
#X connect 41 0 87 4;
#X connect 41 0 88 4;
#X connect 41 0 89 4;
#X connect 41 0 90 4;
#X connect 42 0 81 4;
#X connect 42 0 91 4;
#X connect 42 0 92 4;
#X connect 42 0 93 4;
#X connect 45 0 2 2;
#X connect 45 0 0 3;
#X connect 50 0 35 0;
#X connect 51 0 36 0;
#X connect 62 0 41 0;
#X connect 63 0 62 0;
#X connect 64 0 97 0;
#X connect 65 0 42 0;
#X connect 66 0 65 0;
#X connect 67 0 98 0;
#X connect 68 0 34 0;
#X connect 69 0 33 0;
#X connect 70 0 32 0;
#X connect 71 0 8 0;
#X connect 72 0 71 0;
#X connect 72 0 70 0;
#X connect 72 0 69 0;
#X connect 72 0 68 0;
#X connect 73 0 6 0;
#X connect 74 0 21 0;
#X connect 75 0 23 0;
#X connect 76 0 24 0;
#X connect 77 0 73 0;
#X connect 77 0 74 0;
#X connect 77 0 75 0;
#X connect 77 0 76 0;
#X connect 77 0 78 0;
#X connect 77 0 79 0;
#X connect 77 0 80 0;
#X connect 77 0 95 0;
#X connect 78 0 25 0;
#X connect 79 0 27 0;
#X connect 80 0 28 0;
#X connect 81 0 31 1;
#X connect 82 0 83 0;
#X connect 83 0 84 0;
#X connect 84 0 85 0;
#X connect 85 0 17 0;
#X connect 86 0 82 2;
#X connect 86 0 83 2;
#X connect 86 0 84 2;
#X connect 86 0 85 2;
#X connect 87 0 30 0;
#X connect 88 0 30 0;
#X connect 89 0 30 0;
#X connect 90 0 30 0;
#X connect 91 0 31 1;
#X connect 92 0 31 1;
#X connect 93 0 31 1;
#X connect 94 0 81 3;
#X connect 94 0 91 3;
#X connect 94 0 92 3;
#X connect 94 0 93 3;
#X connect 95 0 29 0;
#X connect 96 0 31 0;
#X connect 97 0 62 0;
#X connect 97 1 62 1;
#X connect 98 0 65 0;
#X connect 98 1 65 1;
#X coords 0 -1 1 1 300 200 1 800 450;
