#N canvas -1144 -681 1135 770 12;
#N canvas -841 -110 484 385 synth 0;
#X obj 235 47 inlet;
#X obj 224 127 pack f f f;
#X obj 235 75 unpack;
#X obj 251 290 lop~;
#X obj 240 347 dac~;
#X obj 101 101 cnv 15 83 48 empty empty synth 5 7 0 10 #606060 #fcfcfc 0;
#X obj 166 131 tgl 15 0 empty empty DSP 1 8 0 8 #fcfcfc #000000 #000000 0 1;
#X obj 107 131 hsl 53 15 0.01 0.3 1 1 empty empty volume -2 -8 0 10 #fcfcfc #000000 #000000 3900 1;
#X obj 149 120 hsl 30 8 1000 18000 1 1 empty empty filter -2 -8 0 10 #fcfcfc #000000 #000000 1500 1;
#X msg 362 94 \; pd dsp \$1;
#X obj 251 317 *~;
#X msg 325 293 \$1 100;
#X obj 325 316 line~;
#X obj 139 57 loadbang;
#N canvas 234 278 450 300 osc 0;
#X obj 45 42 inlet;
#X obj 47 251 outlet~;
#X obj 45 85 unpack;
#X obj 46 114 mtof;
#X obj 46 184 *~;
#X obj 131 96 / 127;
#X obj 131 160 line~;
#X msg 131 128 \$1 100;
#X obj 46 145 phasor~;
#X connect 0 0 2 0;
#X connect 2 0 3 0;
#X connect 2 1 5 0;
#X connect 3 0 8 0;
#X connect 4 0 1 0;
#X connect 5 0 7 0;
#X connect 6 0 4 1;
#X connect 7 0 6 0;
#X connect 8 0 4 0;
#X restore 73 218 pd osc;
#N canvas 234 278 450 300 osc 0;
#X obj 45 42 inlet;
#X obj 46 249 outlet~;
#X obj 45 85 unpack;
#X obj 46 143 mtof;
#X obj 46 213 *~;
#X obj 131 125 / 127;
#X obj 131 189 line~;
#X msg 131 157 \$1 100;
#X obj 46 174 phasor~;
#X connect 0 0 2 0;
#X connect 2 0 3 0;
#X connect 2 1 5 0;
#X connect 3 0 8 0;
#X connect 4 0 1 0;
#X connect 5 0 7 0;
#X connect 6 0 4 1;
#X connect 7 0 6 0;
#X connect 8 0 4 0;
#X restore 121 218 pd osc;
#N canvas 234 278 450 300 osc 0;
#X obj 45 42 inlet;
#X obj 47 251 outlet~;
#X obj 45 85 unpack;
#X obj 46 143 mtof;
#X obj 46 213 *~;
#X obj 131 125 / 127;
#X obj 131 189 line~;
#X msg 131 157 \$1 100;
#X obj 46 174 phasor~;
#X connect 0 0 2 0;
#X connect 2 0 3 0;
#X connect 2 1 5 0;
#X connect 3 0 8 0;
#X connect 4 0 1 0;
#X connect 5 0 7 0;
#X connect 6 0 4 1;
#X connect 7 0 6 0;
#X connect 8 0 4 0;
#X restore 169 218 pd osc;
#N canvas 234 278 450 300 osc 0;
#X obj 45 42 inlet;
#X obj 47 251 outlet~;
#X obj 45 85 unpack;
#X obj 46 143 mtof;
#X obj 46 213 *~;
#X obj 131 125 / 127;
#X obj 131 189 line~;
#X msg 131 157 \$1 100;
#X obj 46 174 phasor~;
#X connect 0 0 2 0;
#X connect 2 0 3 0;
#X connect 2 1 5 0;
#X connect 3 0 8 0;
#X connect 4 0 1 0;
#X connect 5 0 7 0;
#X connect 6 0 4 1;
#X connect 7 0 6 0;
#X connect 8 0 4 0;
#X restore 217 218 pd osc;
#N canvas 234 278 450 300 osc 0;
#X obj 45 42 inlet;
#X obj 47 251 outlet~;
#X obj 45 85 unpack;
#X obj 46 114 mtof;
#X obj 46 184 *~;
#X obj 131 96 / 127;
#X obj 131 160 line~;
#X msg 131 128 \$1 100;
#X obj 46 145 phasor~;
#X connect 0 0 2 0;
#X connect 2 0 3 0;
#X connect 2 1 5 0;
#X connect 3 0 8 0;
#X connect 4 0 1 0;
#X connect 5 0 7 0;
#X connect 6 0 4 1;
#X connect 7 0 6 0;
#X connect 8 0 4 0;
#X restore 265 218 pd osc;
#N canvas 234 278 450 300 osc 0;
#X obj 45 42 inlet;
#X obj 46 249 outlet~;
#X obj 45 85 unpack;
#X obj 46 143 mtof;
#X obj 46 213 *~;
#X obj 131 125 / 127;
#X obj 131 189 line~;
#X msg 131 157 \$1 100;
#X obj 46 174 phasor~;
#X connect 0 0 2 0;
#X connect 2 0 3 0;
#X connect 2 1 5 0;
#X connect 3 0 8 0;
#X connect 4 0 1 0;
#X connect 5 0 7 0;
#X connect 6 0 4 1;
#X connect 7 0 6 0;
#X connect 8 0 4 0;
#X restore 313 218 pd osc;
#N canvas 234 278 450 300 osc 0;
#X obj 45 42 inlet;
#X obj 47 251 outlet~;
#X obj 45 85 unpack;
#X obj 46 143 mtof;
#X obj 46 213 *~;
#X obj 131 125 / 127;
#X obj 131 189 line~;
#X msg 131 157 \$1 100;
#X obj 46 174 phasor~;
#X connect 0 0 2 0;
#X connect 2 0 3 0;
#X connect 2 1 5 0;
#X connect 3 0 8 0;
#X connect 4 0 1 0;
#X connect 5 0 7 0;
#X connect 6 0 4 1;
#X connect 7 0 6 0;
#X connect 8 0 4 0;
#X restore 361 218 pd osc;
#N canvas 234 278 450 300 osc 0;
#X obj 45 42 inlet;
#X obj 47 251 outlet~;
#X obj 45 85 unpack;
#X obj 46 143 mtof;
#X obj 46 213 *~;
#X obj 131 125 / 127;
#X obj 131 189 line~;
#X msg 131 157 \$1 100;
#X obj 46 174 phasor~;
#X connect 0 0 2 0;
#X connect 2 0 3 0;
#X connect 2 1 5 0;
#X connect 3 0 8 0;
#X connect 4 0 1 0;
#X connect 5 0 7 0;
#X connect 6 0 4 1;
#X connect 7 0 6 0;
#X connect 8 0 4 0;
#X restore 409 218 pd osc;
#X obj 231 102 poly 8 1;
#X obj 222 159 route 1 2 3 4 5 6 7 8;
#X obj 124 157 change;
#X msg 123 178 20000 0;
#X connect 0 0 2 0;
#X connect 1 0 23 0;
#X connect 2 0 22 0;
#X connect 2 1 22 1;
#X connect 3 0 10 0;
#X connect 6 0 9 0;
#X connect 6 0 24 0;
#X connect 7 0 11 0;
#X connect 8 0 3 1;
#X connect 10 0 4 0;
#X connect 10 0 4 1;
#X connect 11 0 12 0;
#X connect 12 0 10 1;
#X connect 13 0 6 0;
#X connect 14 0 3 0;
#X connect 15 0 3 0;
#X connect 16 0 3 0;
#X connect 17 0 3 0;
#X connect 18 0 3 0;
#X connect 19 0 3 0;
#X connect 20 0 3 0;
#X connect 21 0 3 0;
#X connect 22 0 1 0;
#X connect 22 1 1 1;
#X connect 22 2 1 2;
#X connect 23 0 14 0;
#X connect 23 1 15 0;
#X connect 23 2 16 0;
#X connect 23 3 17 0;
#X connect 23 4 18 0;
#X connect 23 5 19 0;
#X connect 23 6 20 0;
#X connect 23 7 21 0;
#X connect 24 0 25 0;
#X connect 25 0 14 0;
#X connect 25 0 15 0;
#X connect 25 0 16 0;
#X connect 25 0 17 0;
#X connect 25 0 18 0;
#X connect 25 0 19 0;
#X connect 25 0 20 0;
#X connect 25 0 21 0;
#X coords 0 -1 1 1 85 50 1 100 100;
#X restore 68 465 pd synth;
#X text 167 474 Simple synth based on sawtooth oscillators with 8 notes polyphony and a low-pass filter. Turn on DSP to hear it.;
#X text 69 564 Michele Abruzzese @michezio 2024.09.06, f 18;
#X text 66 25 KEYKEY;
#X obj 68 165 keykey;
#X obj 68 234 unpack;
#X floatatom 68 264 5 0 0 0 - - - 0;
#X floatatom 107 264 5 0 0 0 - - - 0;
#X obj 68 370 pack;
#X obj 151 325 * 127;
#X text 67 52 This object intercepts key events and generates a pair of midi note and status (0 released \, 1 pressed) that can be used as input for a synthesizer in order to use your computer keyboard as a midi keyboard. When the toggle is enabled \, keys Up-Down control the octave of the keyboard \, while keys Left-Right are used for transposition. You can disable the toggle to avoid arrow key presses to change octave and transposition while editing your patch., f 95;
#X text 215 327 Velocity must be manually set \, multiplying the status 0-1;
#X text 318 134 Key associations have been created using the italian layout of the keyboard. If you have another layout \, unfortunately you must manually change key order from inside the abstraction.;
#X text 310 208 Current associations are as follow (using +0 transposition): < = C \, a = C# \, z = D \, s = D# \, x = E \, c = F \, f = F# \, v = G etc q = C \, 2 = C# \, w = D \, 3 = D# \, etc one octave higher, f 61;
#X connect 4 0 5 0;
#X connect 5 0 6 0;
#X connect 5 1 7 0;
#X connect 6 0 8 0;
#X connect 7 0 9 0;
#X connect 8 0 0 0;
#X connect 9 0 8 1;
