#N canvas 10 3 1304 726 10;
#X obj 387 3 keyname;
#X msg 410 115 set \$1 \$2;
#X msg 387 145 0 1;
#X obj 387 49 t b b f;
#X obj 410 77 float;
#X obj 448 3 key;
#X obj 477 3 keyup;
#X obj 410 96 pack f f;
#X obj 68 182 route 60 97 122 115 120 99 102 118 103 98 104 110 109 107 44 108 46 45 224;
#X obj 516 181 route 113 50 119 51 101 114 53 116 54 121 55 117 105 57 111 48 112 232 236 43;
#N canvas 442 98 450 300 (subpatch) 0;
#X obj 88 68 change;
#X obj 88 127 pack;
#X obj 88 100 swap;
#X obj 146 83 + 1;
#X obj 88 40 inlet;
#X obj 88 159 outlet;
#X obj 37 39 inlet;
#X obj 146 159 outlet;
#X connect 0 0 2 0;
#X connect 1 0 5 0;
#X connect 2 0 1 0;
#X connect 2 1 1 1;
#X connect 3 0 2 1;
#X connect 3 0 7 0;
#X connect 4 0 0 0;
#X connect 6 0 3 0;
#X restore 50 269 pd;
#N canvas 442 98 450 300 (subpatch) 0;
#X obj 88 68 change;
#X obj 88 127 pack;
#X obj 88 100 swap;
#X obj 146 83 + 1;
#X obj 88 40 inlet;
#X obj 88 159 outlet;
#X obj 37 39 inlet;
#X obj 146 159 outlet;
#X connect 0 0 2 0;
#X connect 1 0 5 0;
#X connect 2 0 1 0;
#X connect 2 1 1 1;
#X connect 3 0 2 1;
#X connect 3 0 7 0;
#X connect 4 0 0 0;
#X connect 6 0 3 0;
#X restore 78 269 pd;
#N canvas 442 98 450 300 (subpatch) 0;
#X obj 88 68 change;
#X obj 88 127 pack;
#X obj 88 100 swap;
#X obj 146 83 + 1;
#X obj 88 40 inlet;
#X obj 88 159 outlet;
#X obj 37 39 inlet;
#X obj 146 159 outlet;
#X connect 0 0 2 0;
#X connect 1 0 5 0;
#X connect 2 0 1 0;
#X connect 2 1 1 1;
#X connect 3 0 2 1;
#X connect 3 0 7 0;
#X connect 4 0 0 0;
#X connect 6 0 3 0;
#X restore 106 269 pd;
#N canvas 442 98 450 300 (subpatch) 0;
#X obj 88 68 change;
#X obj 88 127 pack;
#X obj 88 100 swap;
#X obj 146 83 + 1;
#X obj 88 40 inlet;
#X obj 88 159 outlet;
#X obj 37 39 inlet;
#X obj 146 159 outlet;
#X connect 0 0 2 0;
#X connect 1 0 5 0;
#X connect 2 0 1 0;
#X connect 2 1 1 1;
#X connect 3 0 2 1;
#X connect 3 0 7 0;
#X connect 4 0 0 0;
#X connect 6 0 3 0;
#X restore 134 269 pd;
#N canvas 442 98 450 300 (subpatch) 0;
#X obj 88 68 change;
#X obj 88 127 pack;
#X obj 88 100 swap;
#X obj 146 83 + 1;
#X obj 88 40 inlet;
#X obj 88 159 outlet;
#X obj 37 39 inlet;
#X obj 146 159 outlet;
#X connect 0 0 2 0;
#X connect 1 0 5 0;
#X connect 2 0 1 0;
#X connect 2 1 1 1;
#X connect 3 0 2 1;
#X connect 3 0 7 0;
#X connect 4 0 0 0;
#X connect 6 0 3 0;
#X restore 162 269 pd;
#N canvas 442 98 450 300 (subpatch) 0;
#X obj 88 68 change;
#X obj 88 127 pack;
#X obj 88 100 swap;
#X obj 146 83 + 1;
#X obj 88 40 inlet;
#X obj 88 159 outlet;
#X obj 37 39 inlet;
#X obj 146 159 outlet;
#X connect 0 0 2 0;
#X connect 1 0 5 0;
#X connect 2 0 1 0;
#X connect 2 1 1 1;
#X connect 3 0 2 1;
#X connect 3 0 7 0;
#X connect 4 0 0 0;
#X connect 6 0 3 0;
#X restore 190 269 pd;
#N canvas 442 98 450 300 (subpatch) 0;
#X obj 88 68 change;
#X obj 88 127 pack;
#X obj 88 100 swap;
#X obj 146 83 + 1;
#X obj 88 40 inlet;
#X obj 88 159 outlet;
#X obj 37 39 inlet;
#X obj 146 159 outlet;
#X connect 0 0 2 0;
#X connect 1 0 5 0;
#X connect 2 0 1 0;
#X connect 2 1 1 1;
#X connect 3 0 2 1;
#X connect 3 0 7 0;
#X connect 4 0 0 0;
#X connect 6 0 3 0;
#X restore 218 269 pd;
#N canvas 442 98 450 300 (subpatch) 0;
#X obj 88 68 change;
#X obj 88 127 pack;
#X obj 88 100 swap;
#X obj 146 83 + 1;
#X obj 88 40 inlet;
#X obj 88 159 outlet;
#X obj 37 39 inlet;
#X obj 146 159 outlet;
#X connect 0 0 2 0;
#X connect 1 0 5 0;
#X connect 2 0 1 0;
#X connect 2 1 1 1;
#X connect 3 0 2 1;
#X connect 3 0 7 0;
#X connect 4 0 0 0;
#X connect 6 0 3 0;
#X restore 246 269 pd;
#N canvas 442 98 450 300 (subpatch) 0;
#X obj 88 68 change;
#X obj 88 127 pack;
#X obj 88 100 swap;
#X obj 146 83 + 1;
#X obj 88 40 inlet;
#X obj 88 159 outlet;
#X obj 37 39 inlet;
#X obj 146 159 outlet;
#X connect 0 0 2 0;
#X connect 1 0 5 0;
#X connect 2 0 1 0;
#X connect 2 1 1 1;
#X connect 3 0 2 1;
#X connect 3 0 7 0;
#X connect 4 0 0 0;
#X connect 6 0 3 0;
#X restore 274 269 pd;
#N canvas 442 98 450 300 (subpatch) 0;
#X obj 88 68 change;
#X obj 88 127 pack;
#X obj 88 100 swap;
#X obj 146 83 + 1;
#X obj 88 40 inlet;
#X obj 88 159 outlet;
#X obj 37 39 inlet;
#X obj 146 159 outlet;
#X connect 0 0 2 0;
#X connect 1 0 5 0;
#X connect 2 0 1 0;
#X connect 2 1 1 1;
#X connect 3 0 2 1;
#X connect 3 0 7 0;
#X connect 4 0 0 0;
#X connect 6 0 3 0;
#X restore 302 269 pd;
#N canvas 442 98 450 300 (subpatch) 0;
#X obj 88 68 change;
#X obj 88 127 pack;
#X obj 88 100 swap;
#X obj 146 83 + 1;
#X obj 88 40 inlet;
#X obj 88 159 outlet;
#X obj 37 39 inlet;
#X obj 146 159 outlet;
#X connect 0 0 2 0;
#X connect 1 0 5 0;
#X connect 2 0 1 0;
#X connect 2 1 1 1;
#X connect 3 0 2 1;
#X connect 3 0 7 0;
#X connect 4 0 0 0;
#X connect 6 0 3 0;
#X restore 330 269 pd;
#N canvas 442 98 450 300 (subpatch) 0;
#X obj 88 68 change;
#X obj 88 127 pack;
#X obj 88 100 swap;
#X obj 146 83 + 1;
#X obj 88 40 inlet;
#X obj 88 159 outlet;
#X obj 37 39 inlet;
#X obj 146 159 outlet;
#X connect 0 0 2 0;
#X connect 1 0 5 0;
#X connect 2 0 1 0;
#X connect 2 1 1 1;
#X connect 3 0 2 1;
#X connect 3 0 7 0;
#X connect 4 0 0 0;
#X connect 6 0 3 0;
#X restore 358 269 pd;
#N canvas 442 98 450 300 (subpatch) 0;
#X obj 88 68 change;
#X obj 88 127 pack;
#X obj 88 100 swap;
#X obj 146 83 + 1;
#X obj 88 40 inlet;
#X obj 88 159 outlet;
#X obj 37 39 inlet;
#X obj 146 159 outlet;
#X connect 0 0 2 0;
#X connect 1 0 5 0;
#X connect 2 0 1 0;
#X connect 2 1 1 1;
#X connect 3 0 2 1;
#X connect 3 0 7 0;
#X connect 4 0 0 0;
#X connect 6 0 3 0;
#X restore 386 269 pd;
#N canvas 442 98 450 300 (subpatch) 0;
#X obj 88 68 change;
#X obj 88 127 pack;
#X obj 88 100 swap;
#X obj 146 83 + 1;
#X obj 88 40 inlet;
#X obj 88 159 outlet;
#X obj 37 39 inlet;
#X obj 146 159 outlet;
#X connect 0 0 2 0;
#X connect 1 0 5 0;
#X connect 2 0 1 0;
#X connect 2 1 1 1;
#X connect 3 0 2 1;
#X connect 3 0 7 0;
#X connect 4 0 0 0;
#X connect 6 0 3 0;
#X restore 414 269 pd;
#N canvas 442 98 450 300 (subpatch) 0;
#X obj 88 68 change;
#X obj 88 127 pack;
#X obj 88 100 swap;
#X obj 146 83 + 1;
#X obj 88 40 inlet;
#X obj 88 159 outlet;
#X obj 37 39 inlet;
#X obj 146 159 outlet;
#X connect 0 0 2 0;
#X connect 1 0 5 0;
#X connect 2 0 1 0;
#X connect 2 1 1 1;
#X connect 3 0 2 1;
#X connect 3 0 7 0;
#X connect 4 0 0 0;
#X connect 6 0 3 0;
#X restore 442 269 pd;
#N canvas 442 98 450 300 (subpatch) 0;
#X obj 88 68 change;
#X obj 88 127 pack;
#X obj 88 100 swap;
#X obj 146 83 + 1;
#X obj 88 40 inlet;
#X obj 88 159 outlet;
#X obj 37 39 inlet;
#X obj 146 159 outlet;
#X connect 0 0 2 0;
#X connect 1 0 5 0;
#X connect 2 0 1 0;
#X connect 2 1 1 1;
#X connect 3 0 2 1;
#X connect 3 0 7 0;
#X connect 4 0 0 0;
#X connect 6 0 3 0;
#X restore 470 269 pd;
#N canvas 442 98 450 300 (subpatch) 0;
#X obj 88 68 change;
#X obj 88 127 pack;
#X obj 88 100 swap;
#X obj 146 83 + 1;
#X obj 88 40 inlet;
#X obj 88 159 outlet;
#X obj 37 39 inlet;
#X obj 146 159 outlet;
#X connect 0 0 2 0;
#X connect 1 0 5 0;
#X connect 2 0 1 0;
#X connect 2 1 1 1;
#X connect 3 0 2 1;
#X connect 3 0 7 0;
#X connect 4 0 0 0;
#X connect 6 0 3 0;
#X restore 498 269 pd;
#N canvas 442 98 450 300 (subpatch) 0;
#X obj 88 68 change;
#X obj 88 127 pack;
#X obj 88 100 swap;
#X obj 146 83 + 1;
#X obj 88 40 inlet;
#X obj 88 159 outlet;
#X obj 37 39 inlet;
#X obj 146 159 outlet;
#X connect 0 0 2 0;
#X connect 1 0 5 0;
#X connect 2 0 1 0;
#X connect 2 1 1 1;
#X connect 3 0 2 1;
#X connect 3 0 7 0;
#X connect 4 0 0 0;
#X connect 6 0 3 0;
#X restore 526 269 pd;
#N canvas 442 98 450 300 (subpatch) 0;
#X obj 88 68 change;
#X obj 88 127 pack;
#X obj 88 100 swap;
#X obj 146 83 + 1;
#X obj 88 40 inlet;
#X obj 88 159 outlet;
#X obj 37 39 inlet;
#X obj 146 159 outlet;
#X connect 0 0 2 0;
#X connect 1 0 5 0;
#X connect 2 0 1 0;
#X connect 2 1 1 1;
#X connect 3 0 2 1;
#X connect 3 0 7 0;
#X connect 4 0 0 0;
#X connect 6 0 3 0;
#X restore 554 269 pd;
#N canvas 442 98 450 300 (subpatch) 0;
#X obj 88 68 change;
#X obj 88 127 pack;
#X obj 88 100 swap;
#X obj 146 83 + 1;
#X obj 88 40 inlet;
#X obj 88 159 outlet;
#X obj 37 39 inlet;
#X obj 146 159 outlet;
#X connect 0 0 2 0;
#X connect 1 0 5 0;
#X connect 2 0 1 0;
#X connect 2 1 1 1;
#X connect 3 0 2 1;
#X connect 3 0 7 0;
#X connect 4 0 0 0;
#X connect 6 0 3 0;
#X restore 582 269 pd;
#N canvas 442 98 450 300 (subpatch) 0;
#X obj 88 68 change;
#X obj 88 127 pack;
#X obj 88 100 swap;
#X obj 146 83 + 1;
#X obj 88 40 inlet;
#X obj 88 159 outlet;
#X obj 37 39 inlet;
#X obj 146 159 outlet;
#X connect 0 0 2 0;
#X connect 1 0 5 0;
#X connect 2 0 1 0;
#X connect 2 1 1 1;
#X connect 3 0 2 1;
#X connect 3 0 7 0;
#X connect 4 0 0 0;
#X connect 6 0 3 0;
#X restore 610 269 pd;
#N canvas 442 98 450 300 (subpatch) 0;
#X obj 88 68 change;
#X obj 88 127 pack;
#X obj 88 100 swap;
#X obj 146 83 + 1;
#X obj 88 40 inlet;
#X obj 88 159 outlet;
#X obj 37 39 inlet;
#X obj 146 159 outlet;
#X connect 0 0 2 0;
#X connect 1 0 5 0;
#X connect 2 0 1 0;
#X connect 2 1 1 1;
#X connect 3 0 2 1;
#X connect 3 0 7 0;
#X connect 4 0 0 0;
#X connect 6 0 3 0;
#X restore 638 269 pd;
#N canvas 442 98 450 300 (subpatch) 0;
#X obj 88 68 change;
#X obj 88 127 pack;
#X obj 88 100 swap;
#X obj 146 83 + 1;
#X obj 88 40 inlet;
#X obj 88 159 outlet;
#X obj 37 39 inlet;
#X obj 146 159 outlet;
#X connect 0 0 2 0;
#X connect 1 0 5 0;
#X connect 2 0 1 0;
#X connect 2 1 1 1;
#X connect 3 0 2 1;
#X connect 3 0 7 0;
#X connect 4 0 0 0;
#X connect 6 0 3 0;
#X restore 666 269 pd;
#N canvas 442 98 450 300 (subpatch) 0;
#X obj 88 68 change;
#X obj 88 127 pack;
#X obj 88 100 swap;
#X obj 146 83 + 1;
#X obj 88 40 inlet;
#X obj 88 159 outlet;
#X obj 37 39 inlet;
#X obj 146 159 outlet;
#X connect 0 0 2 0;
#X connect 1 0 5 0;
#X connect 2 0 1 0;
#X connect 2 1 1 1;
#X connect 3 0 2 1;
#X connect 3 0 7 0;
#X connect 4 0 0 0;
#X connect 6 0 3 0;
#X restore 694 269 pd;
#N canvas 442 98 450 300 (subpatch) 0;
#X obj 88 68 change;
#X obj 88 127 pack;
#X obj 88 100 swap;
#X obj 146 83 + 1;
#X obj 88 40 inlet;
#X obj 88 159 outlet;
#X obj 37 39 inlet;
#X obj 146 159 outlet;
#X connect 0 0 2 0;
#X connect 1 0 5 0;
#X connect 2 0 1 0;
#X connect 2 1 1 1;
#X connect 3 0 2 1;
#X connect 3 0 7 0;
#X connect 4 0 0 0;
#X connect 6 0 3 0;
#X restore 722 269 pd;
#N canvas 442 98 450 300 (subpatch) 0;
#X obj 88 68 change;
#X obj 88 127 pack;
#X obj 88 100 swap;
#X obj 146 83 + 1;
#X obj 88 40 inlet;
#X obj 88 159 outlet;
#X obj 37 39 inlet;
#X obj 146 159 outlet;
#X connect 0 0 2 0;
#X connect 1 0 5 0;
#X connect 2 0 1 0;
#X connect 2 1 1 1;
#X connect 3 0 2 1;
#X connect 3 0 7 0;
#X connect 4 0 0 0;
#X connect 6 0 3 0;
#X restore 750 269 pd;
#N canvas 442 98 450 300 (subpatch) 0;
#X obj 88 68 change;
#X obj 88 127 pack;
#X obj 88 100 swap;
#X obj 146 83 + 1;
#X obj 88 40 inlet;
#X obj 88 159 outlet;
#X obj 37 39 inlet;
#X obj 146 159 outlet;
#X connect 0 0 2 0;
#X connect 1 0 5 0;
#X connect 2 0 1 0;
#X connect 2 1 1 1;
#X connect 3 0 2 1;
#X connect 3 0 7 0;
#X connect 4 0 0 0;
#X connect 6 0 3 0;
#X restore 778 269 pd;
#N canvas 442 98 450 300 (subpatch) 0;
#X obj 88 68 change;
#X obj 88 127 pack;
#X obj 88 100 swap;
#X obj 146 83 + 1;
#X obj 88 40 inlet;
#X obj 88 159 outlet;
#X obj 37 39 inlet;
#X obj 146 159 outlet;
#X connect 0 0 2 0;
#X connect 1 0 5 0;
#X connect 2 0 1 0;
#X connect 2 1 1 1;
#X connect 3 0 2 1;
#X connect 3 0 7 0;
#X connect 4 0 0 0;
#X connect 6 0 3 0;
#X restore 806 269 pd;
#N canvas 442 98 450 300 (subpatch) 0;
#X obj 88 68 change;
#X obj 88 127 pack;
#X obj 88 100 swap;
#X obj 146 83 + 1;
#X obj 88 40 inlet;
#X obj 88 159 outlet;
#X obj 37 39 inlet;
#X obj 146 159 outlet;
#X connect 0 0 2 0;
#X connect 1 0 5 0;
#X connect 2 0 1 0;
#X connect 2 1 1 1;
#X connect 3 0 2 1;
#X connect 3 0 7 0;
#X connect 4 0 0 0;
#X connect 6 0 3 0;
#X restore 834 269 pd;
#N canvas 442 98 450 300 (subpatch) 0;
#X obj 88 68 change;
#X obj 88 127 pack;
#X obj 88 100 swap;
#X obj 146 83 + 1;
#X obj 88 40 inlet;
#X obj 88 159 outlet;
#X obj 37 39 inlet;
#X obj 146 159 outlet;
#X connect 0 0 2 0;
#X connect 1 0 5 0;
#X connect 2 0 1 0;
#X connect 2 1 1 1;
#X connect 3 0 2 1;
#X connect 3 0 7 0;
#X connect 4 0 0 0;
#X connect 6 0 3 0;
#X restore 862 269 pd;
#N canvas 442 98 450 300 (subpatch) 0;
#X obj 88 68 change;
#X obj 88 127 pack;
#X obj 88 100 swap;
#X obj 146 83 + 1;
#X obj 88 40 inlet;
#X obj 88 159 outlet;
#X obj 37 39 inlet;
#X obj 146 159 outlet;
#X connect 0 0 2 0;
#X connect 1 0 5 0;
#X connect 2 0 1 0;
#X connect 2 1 1 1;
#X connect 3 0 2 1;
#X connect 3 0 7 0;
#X connect 4 0 0 0;
#X connect 6 0 3 0;
#X restore 890 269 pd;
#N canvas 442 98 450 300 (subpatch) 0;
#X obj 88 68 change;
#X obj 88 127 pack;
#X obj 88 100 swap;
#X obj 146 83 + 1;
#X obj 88 40 inlet;
#X obj 88 159 outlet;
#X obj 37 39 inlet;
#X obj 146 159 outlet;
#X connect 0 0 2 0;
#X connect 1 0 5 0;
#X connect 2 0 1 0;
#X connect 2 1 1 1;
#X connect 3 0 2 1;
#X connect 3 0 7 0;
#X connect 4 0 0 0;
#X connect 6 0 3 0;
#X restore 918 269 pd;
#X text 55 293 C-------D-------E---F-------G-------A-------B;
#X text 395 293 C-------D-------E---F-------G-------A-------B;
#X text 728 293 C-------D-------E---F-------G-------A-------B;
#N canvas 195 182 626 416 transpose 0;
#X msg 146 200 1;
#X msg 236 199 -1;
#X obj 211 259 +;
#X obj 248 259 i;
#X obj 146 224 spigot;
#X obj 236 224 spigot;
#X obj 131 79 loadbang;
#X obj 196 12 keyname;
#X obj 185 199 &&;
#X obj 275 199 &&;
#X msg 359 186 1;
#X msg 457 186 -1;
#X obj 414 253 +;
#X obj 451 253 i;
#X obj 359 209 spigot;
#X obj 457 210 spigot;
#X obj 398 186 &&;
#X obj 496 186 &&;
#X msg 299 119 0;
#X obj 416 164 < 12;
#X obj 514 164 > -12;
#X obj 290 50 sel Up Down Right Left;
#X obj 83 281 * 12;
#X obj 83 324 +;
#X obj 136 297 t b f;
#X obj 83 387 outlet;
#X obj 83 349 - 1;
#X obj 293 177 > 0;
#X obj 263 29 spigot;
#X obj 296 7 inlet;
#X msg 144 119 4;
#X obj 203 177 < 6;
#X obj 83 262 + 1;
#X obj 240 375 s \$0-oct;
#X obj 405 374 s \$0-tra;
#X obj 479 6 inlet;
#X obj 546 6 inlet;
#X text 338 9 toggle;
#X text 475 30 octave;
#X text 535 31 transpose;
#X msg 293 257 0;
#X obj 291 228 t f b;
#X msg 511 253 0;
#X obj 509 224 t f b;
#X connect 0 0 4 0;
#X connect 1 0 5 0;
#X connect 2 0 3 0;
#X connect 2 0 27 0;
#X connect 2 0 31 0;
#X connect 2 0 32 0;
#X connect 2 0 33 0;
#X connect 3 0 2 1;
#X connect 4 0 2 0;
#X connect 5 0 2 0;
#X connect 6 0 30 0;
#X connect 6 0 18 0;
#X connect 7 0 8 0;
#X connect 7 0 9 0;
#X connect 7 0 16 0;
#X connect 7 0 17 0;
#X connect 7 1 28 0;
#X connect 8 0 4 1;
#X connect 9 0 5 1;
#X connect 10 0 14 0;
#X connect 11 0 15 0;
#X connect 12 0 13 0;
#X connect 12 0 19 0;
#X connect 12 0 20 0;
#X connect 12 0 24 0;
#X connect 12 0 34 0;
#X connect 13 0 12 1;
#X connect 14 0 12 0;
#X connect 15 0 12 0;
#X connect 16 0 14 1;
#X connect 17 0 15 1;
#X connect 18 0 12 0;
#X connect 19 0 16 1;
#X connect 20 0 17 1;
#X connect 21 0 0 0;
#X connect 21 1 1 0;
#X connect 21 2 10 0;
#X connect 21 3 11 0;
#X connect 22 0 23 0;
#X connect 23 0 26 0;
#X connect 24 0 23 0;
#X connect 24 1 23 1;
#X connect 26 0 25 0;
#X connect 27 0 9 1;
#X connect 28 0 21 0;
#X connect 29 0 28 1;
#X connect 30 0 2 0;
#X connect 31 0 8 1;
#X connect 32 0 22 0;
#X connect 35 0 41 0;
#X connect 36 0 43 0;
#X connect 40 0 3 0;
#X connect 41 0 2 0;
#X connect 41 1 40 0;
#X connect 42 0 13 0;
#X connect 43 0 12 0;
#X connect 43 1 42 0;
#X restore 31 136 pd transpose;
#X obj 199 342 t list;
#X obj 534 347 t list;
#X obj 808 351 t list;
#X obj 101 51 cnv 15 98 48 empty \$0-key Control_L 5 9 0 14 #202020 #9c9c9c 0;
#X obj 104 71 tgl 25 0 \$0-toggle_s \$0-toggle_r empty 17 7 0 10 #606060 #fcfcfc #000000 0 1;
#X obj 135 78 cnv 5 15 5 empty empty Octave 0 0 0 10 #202020 #9c9c9c 0;
#X obj 135 89 cnv 5 15 5 empty empty Transp 0 0 0 10 #202020 #9c9c9c 0;
#X obj 171 73 cnv 10 15 15 empty \$0-octave 5-6 5 5 0 10 #202020 #9c9c9c 0;
#X obj 171 85 cnv 10 5 5 empty \$0-transp -2 5 5 0 10 #202020 #9c9c9c 0;
#X obj 534 613 outlet;
#X obj 794 426 r \$0-oct;
#X obj 1063 365 r \$0-tra;
#X obj 1037 426 >= 0;
#X obj 1103 426 abs;
#X obj 752 625 s \$0-octave;
#X obj 856 485 makefilename %d;
#X obj 733 485 makefilename %d;
#X obj 733 462 + 1;
#X obj 752 574 pack s s;
#X msg 752 599 label \$1-\$2;
#X obj 752 550 symbol;
#X obj 773 518 t b s;
#X msg 559 60 label \$1;
#X obj 559 88 s \$0-key;
#X obj 1103 447 makefilename %d;
#X msg 1108 534 set label +\$1;
#X msg 1049 494 set label -\$1;
#X msg 1049 517 label -2;
#X obj 1037 450 sel 0 1;
#X msg 1108 556 label +2;
#X obj 1069 590 s \$0-transp;
#X obj 1064 393 t f f;
#X obj 27 110 r \$0-toggle_s;
#X obj 16 26 loadbang;
#X msg 16 47 0;
#X obj 16 71 s \$0-toggle_r;
#X obj 747 81 i \$1;
#X obj 534 425 unpack;
#X obj 534 517 pack;
#X obj 567 485 * 127;
#X obj 677 16 loadbang;
#X obj 781 3 inlet;
#X obj 747 112 expr if($f1 > 0 && $f1 <= 127 \, $f1 \, 127);
#X obj 780 35 route velocity octave transpose toggle_arrows;
#X connect 0 0 3 0;
#X connect 0 1 68 0;
#X connect 1 0 2 0;
#X connect 2 0 8 0;
#X connect 2 0 9 0;
#X connect 3 0 2 0;
#X connect 3 1 4 0;
#X connect 3 2 7 1;
#X connect 4 0 7 0;
#X connect 5 0 4 1;
#X connect 6 0 4 1;
#X connect 7 0 1 0;
#X connect 8 0 10 1;
#X connect 8 1 11 1;
#X connect 8 2 12 1;
#X connect 8 3 13 1;
#X connect 8 4 14 1;
#X connect 8 5 15 1;
#X connect 8 6 16 1;
#X connect 8 7 17 1;
#X connect 8 8 18 1;
#X connect 8 9 19 1;
#X connect 8 10 20 1;
#X connect 8 11 21 1;
#X connect 8 12 22 1;
#X connect 8 13 23 1;
#X connect 8 14 24 1;
#X connect 8 15 25 1;
#X connect 8 16 26 1;
#X connect 8 17 27 1;
#X connect 8 18 28 1;
#X connect 9 0 22 1;
#X connect 9 1 23 1;
#X connect 9 2 24 1;
#X connect 9 3 25 1;
#X connect 9 4 26 1;
#X connect 9 5 27 1;
#X connect 9 6 28 1;
#X connect 9 7 29 1;
#X connect 9 8 30 1;
#X connect 9 9 31 1;
#X connect 9 10 32 1;
#X connect 9 11 33 1;
#X connect 9 12 34 1;
#X connect 9 13 35 1;
#X connect 9 14 36 1;
#X connect 9 15 37 1;
#X connect 9 16 38 1;
#X connect 9 17 39 1;
#X connect 9 18 40 1;
#X connect 9 19 41 1;
#X connect 10 0 46 0;
#X connect 10 1 11 0;
#X connect 11 0 46 0;
#X connect 11 1 12 0;
#X connect 12 0 46 0;
#X connect 12 1 13 0;
#X connect 13 0 46 0;
#X connect 13 1 14 0;
#X connect 14 0 46 0;
#X connect 14 1 15 0;
#X connect 15 0 46 0;
#X connect 15 1 16 0;
#X connect 16 0 46 0;
#X connect 16 1 17 0;
#X connect 17 0 46 0;
#X connect 17 1 18 0;
#X connect 18 0 46 0;
#X connect 18 1 19 0;
#X connect 19 0 46 0;
#X connect 19 1 20 0;
#X connect 20 0 46 0;
#X connect 20 1 21 0;
#X connect 21 0 46 0;
#X connect 21 1 22 0;
#X connect 22 0 47 0;
#X connect 22 1 23 0;
#X connect 23 0 47 0;
#X connect 23 1 24 0;
#X connect 24 0 47 0;
#X connect 24 1 25 0;
#X connect 25 0 47 0;
#X connect 25 1 26 0;
#X connect 26 0 47 0;
#X connect 26 1 27 0;
#X connect 27 0 47 0;
#X connect 27 1 28 0;
#X connect 28 0 47 0;
#X connect 28 1 29 0;
#X connect 29 0 47 0;
#X connect 29 1 30 0;
#X connect 30 0 47 0;
#X connect 30 1 31 0;
#X connect 31 0 47 0;
#X connect 31 1 32 0;
#X connect 32 0 47 0;
#X connect 32 1 33 0;
#X connect 33 0 47 0;
#X connect 33 1 34 0;
#X connect 34 0 48 0;
#X connect 34 1 35 0;
#X connect 35 0 48 0;
#X connect 35 1 36 0;
#X connect 36 0 48 0;
#X connect 36 1 37 0;
#X connect 37 0 48 0;
#X connect 37 1 38 0;
#X connect 38 0 48 0;
#X connect 38 1 39 0;
#X connect 39 0 48 0;
#X connect 39 1 40 0;
#X connect 40 0 48 0;
#X connect 40 1 41 0;
#X connect 41 0 48 0;
#X connect 45 0 10 0;
#X connect 46 0 83 0;
#X connect 47 0 83 0;
#X connect 48 0 83 0;
#X connect 56 0 61 0;
#X connect 56 0 63 0;
#X connect 57 0 77 0;
#X connect 58 0 74 0;
#X connect 59 0 70 0;
#X connect 61 0 66 1;
#X connect 62 0 67 0;
#X connect 63 0 62 0;
#X connect 64 0 65 0;
#X connect 65 0 60 0;
#X connect 66 0 64 0;
#X connect 67 0 66 0;
#X connect 67 1 64 1;
#X connect 68 0 69 0;
#X connect 70 0 71 0;
#X connect 70 0 72 0;
#X connect 71 0 75 0;
#X connect 72 0 73 0;
#X connect 73 0 76 0;
#X connect 74 0 73 0;
#X connect 74 1 75 0;
#X connect 75 0 76 0;
#X connect 77 0 58 0;
#X connect 77 1 59 0;
#X connect 78 0 45 0;
#X connect 79 0 80 0;
#X connect 80 0 81 0;
#X connect 82 0 88 0;
#X connect 83 0 84 0;
#X connect 83 1 85 0;
#X connect 84 0 55 0;
#X connect 85 0 84 1;
#X connect 86 0 82 0;
#X connect 87 0 89 0;
#X connect 88 0 85 1;
#X connect 89 0 82 0;
#X connect 89 1 45 1;
#X connect 89 2 45 2;
#X connect 89 3 50 0;
#X coords 0 -1 1 1 100 50 2 100 50;
