#N canvas 65 50 892 726 10;
#X obj 101 101 cnv 15 298 128 empty empty GHOST_TOWN______shindeibrauns
8 9 1 14 -33289 -66577 0;
#X obj 108 120 vsl 15 35 0.01 1 1 0 \$0-DRY \$0-dryp DRY 0 45 0 10
-66577 -257985 -262144 3400 1;
#X obj 129 120 vsl 15 35 0.01 1 1 0 \$0-WET \$0-wetp WET 0 45 0 10
-66577 -257985 -262144 3400 1;
#X obj 153 120 vsl 10 38 0.25 4 1 0 \$0-D1 \$0-d1p D 2 36 0 10 -66122
-260097 -262144 1850 1;
#X obj 178 118 hsl 40 10 500 15000 1 0 \$0-H1 \$0-h1p H -11 5 0 10
-66122 -260097 -262144 3900 1;
#X obj 178 130 hsl 40 10 5000 10 1 0 \$0-L1 \$0-l1p L -11 5 0 10 -66122
-260097 -262144 3900 1;
#X obj 167 146 tgl 15 0 \$0-11 \$0-11p 1 5 7 0 10 -66122 -260097 -262144
1 1;
#X obj 186 146 tgl 15 0 \$0-12 \$0-12p 2 5 7 0 10 -66122 -260097 -262144
0 1;
#X obj 205 146 tgl 15 0 \$0-13 \$0-13p 3 5 7 0 10 -66122 -260097 -262144
0 1;
#X obj 178 179 hsl 28 10 0 2 0 0 \$0-M1 \$0-m1p M -11 5 0 10 -66122
-260097 -262144 0 1;
#X obj 178 191 hsl 28 10 0.1 5 1 0 \$0-S1 \$0-s1p S -11 5 0 10 -66122
-260097 -262144 0 1;
#X obj 178 167 hsl 40 10 0 1 0 0 \$0-F1 \$0-f1p F -11 5 0 10 -66122
-260097 -262144 1200 1;
#X obj 178 203 hsl 28 10 0.3 0.8 1 0 \$0-R1 \$0-r1p R -11 5 0 10 -66122
-260097 -262144 0 1;
#X obj 228 120 vsl 10 38 0.25 4 1 0 \$0-D2 \$0-d2p D 2 36 0 10 -37769
-4034 -262144 1850 1;
#X obj 254 118 hsl 40 10 500 15000 1 0 \$0-H2 \$0-h2p H -11 5 0 10
-37769 -4034 -262144 3900 1;
#X obj 254 130 hsl 40 10 5000 10 1 0 \$0-L2 \$0-l2p L -11 5 0 10 -37769
-4034 -262144 3900 1;
#X obj 243 146 tgl 15 0 \$0-21 \$0-21p 1 5 7 0 10 -37769 -4034 -262144
0 1;
#X obj 262 146 tgl 15 0 \$0-22 \$0-22p 2 5 7 0 10 -37769 -4034 -262144
0 1;
#X obj 281 146 tgl 15 0 \$0-23 \$0-23p 3 5 7 0 10 -37769 -4034 -262144
0 1;
#X obj 254 179 hsl 28 10 0 2 0 0 \$0-M2 \$0-m2p M -11 5 0 10 -37769
-4034 -262144 0 1;
#X obj 254 191 hsl 28 10 0.1 5 1 0 \$0-S2 \$0-s2p S -11 5 0 10 -37769
-4034 -262144 0 1;
#X obj 254 167 hsl 40 10 0 1 0 0 \$0-F2 \$0-f2p F -11 5 0 10 -37769
-4034 -262144 0 1;
#X obj 254 203 hsl 28 10 0.3 0.8 1 0 \$0-R2 \$0-r2p R -11 5 0 10 -37769
-4034 -262144 0 1;
#X obj 304 120 vsl 10 38 0.25 4 1 0 \$0-D3 \$0-d3p D 2 36 0 10 -42068
-4032 -262144 1850 1;
#X obj 329 118 hsl 40 10 500 15000 1 0 \$0-H3 \$0-h3p H -11 5 0 10
-42068 -4032 -262144 3900 1;
#X obj 329 130 hsl 40 10 5000 10 1 0 \$0-L3 \$0-l3p L -11 5 0 10 -42068
-4032 -262144 3900 1;
#X obj 318 146 tgl 15 0 \$0-31 \$0-31p 1 5 7 0 10 -42068 -4032 -262144
0 1;
#X obj 337 146 tgl 15 0 \$0-32 \$0-32p 2 5 7 0 10 -42068 -4032 -262144
0 1;
#X obj 356 146 tgl 15 0 \$0-33 \$0-33p 3 5 7 0 10 -42068 -4032 -262144
0 1;
#X obj 329 179 hsl 28 10 0 2 0 0 \$0-M3 \$0-m3p M -11 5 0 10 -42068
-4032 -262144 0 1;
#X obj 329 191 hsl 28 10 0.1 5 1 0 \$0-S3 \$0-s3p S -11 5 0 10 -42068
-4032 -262144 0 1;
#X obj 329 167 hsl 40 10 0 1 0 0 \$0-F3 \$0-f3p F -11 5 0 10 -42068
-4032 -262144 0 1;
#X obj 329 203 hsl 28 10 0.3 0.8 1 0 \$0-R3 \$0-r3p R -11 5 0 10 -42068
-4032 -262144 0 1;
#X obj 153 215 tgl 10 0 \$0-SW1 \$0-sw1p 1 14 5 0 10 -66122 -260097
-262144 1 1;
#X obj 304 215 tgl 10 0 \$0-SW3 \$0-sw3p 3 14 5 0 10 -42068 -4032 -262144
0 1;
#X obj 229 215 tgl 10 0 \$0-SW2 \$0-sw2p 2 14 5 0 10 -37769 -4034 -262144
0 1;
#X obj 175 215 bng 10 250 50 0 \$0-TS1 \$0-bar TAP 14 5 0 10 -66122
-260097 -262144;
#X obj 251 215 bng 10 250 50 0 \$0-TS2 \$0-bar TAP 14 5 0 10 -37769
-4034 -262144;
#X obj 286 215 bng 10 250 50 0 \$0-foo \$0-TR2 empty 17 7 0 10 -37769
-4034 -1;
#X obj 210 215 bng 10 250 50 0 \$0-foo \$0-TR1 empty 17 7 0 10 -66122
-260097 -1;
#X obj 326 215 bng 10 250 50 0 \$0-TS3 \$0-bar TAP 14 5 0 10 -42068
-4032 -262144;
#X obj 361 215 bng 10 250 50 0 \$0-foo \$0-TR3 empty 17 7 0 10 -42068
-4032 -1;
#X obj 93 521 r \$0-foo;
#X obj 92 566 s \$0-bar;
#X obj 614 73 inlet~;
#X obj 730 537 outlet~;
#N canvas 185 144 450 300 MULT 0;
#X obj 162 137 *~;
#X msg 180 95 \$1 50;
#X obj 180 114 line~;
#X obj 162 44 inlet~;
#X obj 163 181 outlet~;
#X obj 217 44 inlet;
#X connect 0 0 4 0;
#X connect 1 0 2 0;
#X connect 2 0 0 1;
#X connect 3 0 0 0;
#X connect 5 0 1 0;
#X restore 613 374 pd MULT;
#X obj 659 349 r \$0-DRY;
#X obj 129 174 vsl 15 35 100 2500 1 0 \$0-DLY \$0-dlyp DLY 0 45 0 10
-66577 -257985 -262144 700 1;
#X obj 108 197 tgl 15 0 \$0-BYP \$0-bypp BYP -1 22 0 10 -66577 -257985
-262144 0 1;
#N canvas 234 50 1018 710 DELAY 0;
#X obj 479 6 inlet~;
#X obj 474 625 outlet~;
#X obj 907 58 switch~;
#N canvas 440 114 470 600 DELAY-1 0;
#X obj 124 21 inlet~;
#X obj 124 520 outlet~;
#X obj 124 407 delread4~ \$0-delay1;
#X obj 157 223 r \$0-D1;
#X obj 142 195 r \$0-DLY;
#X obj 142 274 *;
#X obj 157 247 t b f;
#X obj 124 123 osc~;
#X obj 124 96 r \$0-S1;
#X obj 124 170 *~;
#X obj 124 374 +~;
#X obj 142 147 r \$0-M1;
#X obj 123 459 lop~;
#X obj 123 482 hip~;
#X obj 164 442 r \$0-H1;
#X obj 164 465 r \$0-L1;
#X obj 142 353 line~;
#N canvas 429 181 459 485 TAP 0;
#X obj 295 226 i;
#X obj 326 227 + 1;
#X obj 295 163 metro 1;
#X msg 265 209 0;
#X msg 295 140 0;
#X obj 215 201 +;
#X msg 206 168 0;
#X obj 327 192 t b b;
#X msg 246 168 0;
#X obj 209 270 moses 2;
#X obj 181 98 delay 5000;
#X obj 247 348 outlet;
#X obj 241 20 r \$0-TS1;
#X connect 0 0 1 0;
#X connect 0 0 5 1;
#X connect 1 0 0 1;
#X connect 2 0 0 0;
#X connect 3 0 0 0;
#X connect 4 0 2 0;
#X connect 5 0 9 0;
#X connect 6 0 5 0;
#X connect 7 0 3 0;
#X connect 7 1 6 0;
#X connect 8 0 5 1;
#X connect 9 1 11 0;
#X connect 10 0 4 0;
#X connect 10 0 8 0;
#X connect 10 0 3 0;
#X connect 12 0 2 0;
#X connect 12 0 7 0;
#X connect 12 0 10 0;
#X restore 237 192 pd TAP;
#X obj 54 294 loadbang;
#X obj 54 324 metro;
#X obj 54 351 s \$0-TR1;
#X msg 142 328 \$1 100;
#X obj 237 223 /;
#X obj 123 63 delwrite~ \$0-delay1 10000;
#X obj 142 301 min 10000;
#X obj 190 25 catch~ \$0-f1;
#X obj 237 247 s \$0-d1p;
#X connect 0 0 23 0;
#X connect 2 0 12 0;
#X connect 3 0 6 0;
#X connect 4 0 5 0;
#X connect 4 0 22 1;
#X connect 5 0 24 0;
#X connect 6 0 5 0;
#X connect 6 1 5 1;
#X connect 7 0 9 0;
#X connect 8 0 7 0;
#X connect 9 0 10 0;
#X connect 10 0 2 0;
#X connect 11 0 9 1;
#X connect 12 0 13 0;
#X connect 13 0 1 0;
#X connect 14 0 12 1;
#X connect 15 0 13 1;
#X connect 16 0 10 1;
#X connect 17 0 22 0;
#X connect 18 0 19 0;
#X connect 19 0 20 0;
#X connect 21 0 16 0;
#X connect 22 0 26 0;
#X connect 24 0 21 0;
#X connect 24 0 19 1;
#X connect 25 0 23 0;
#X restore 83 187 pd DELAY-1;
#N canvas 204 95 535 560 DELAY-2 0;
#X obj 124 21 inlet~;
#X obj 124 519 outlet~;
#X obj 124 122 osc~;
#X obj 124 169 *~;
#X obj 124 373 +~;
#X obj 123 458 lop~;
#X obj 123 481 hip~;
#X obj 124 95 r \$0-S2;
#X obj 142 146 r \$0-M2;
#X obj 164 441 r \$0-H2;
#X obj 124 406 delread4~ \$0-delay2;
#X obj 164 464 r \$0-L2;
#X obj 142 195 r \$0-DLY;
#X obj 142 274 *;
#X obj 157 247 t b f;
#X obj 142 352 line~;
#X obj 157 223 r \$0-D2;
#N canvas 429 181 485 485 TAP 0;
#X obj 295 226 i;
#X obj 326 227 + 1;
#X obj 295 163 metro 1;
#X msg 265 209 0;
#X msg 295 140 0;
#X obj 215 201 +;
#X msg 206 168 0;
#X obj 327 192 t b b;
#X msg 246 168 0;
#X obj 209 270 moses 2;
#X obj 181 98 delay 5000;
#X obj 255 346 outlet;
#X obj 241 20 r \$0-TS2;
#X connect 0 0 1 0;
#X connect 0 0 5 1;
#X connect 1 0 0 1;
#X connect 2 0 0 0;
#X connect 3 0 0 0;
#X connect 4 0 2 0;
#X connect 5 0 9 0;
#X connect 6 0 5 0;
#X connect 7 0 3 0;
#X connect 7 1 6 0;
#X connect 8 0 5 1;
#X connect 9 1 11 0;
#X connect 10 0 4 0;
#X connect 10 0 8 0;
#X connect 10 0 3 0;
#X connect 12 0 2 0;
#X connect 12 0 7 0;
#X connect 12 0 10 0;
#X restore 241 202 pd TAP;
#X obj 55 291 loadbang;
#X obj 55 321 metro;
#X obj 55 348 s \$0-TR2;
#X msg 142 327 \$1 100;
#X obj 241 227 /;
#X obj 123 63 delwrite~ \$0-delay2 10000;
#X obj 142 301 min 10000;
#X obj 198 20 catch~ \$0-f2;
#X obj 241 247 s \$0-d2p;
#X connect 0 0 23 0;
#X connect 2 0 3 0;
#X connect 3 0 4 0;
#X connect 4 0 10 0;
#X connect 5 0 6 0;
#X connect 6 0 1 0;
#X connect 7 0 2 0;
#X connect 8 0 3 1;
#X connect 9 0 5 1;
#X connect 10 0 5 0;
#X connect 11 0 6 1;
#X connect 12 0 13 0;
#X connect 12 0 22 1;
#X connect 13 0 24 0;
#X connect 14 0 13 0;
#X connect 14 1 13 1;
#X connect 15 0 4 1;
#X connect 16 0 14 0;
#X connect 17 0 22 0;
#X connect 18 0 19 0;
#X connect 19 0 20 0;
#X connect 21 0 15 0;
#X connect 22 0 26 0;
#X connect 24 0 21 0;
#X connect 24 0 19 1;
#X connect 25 0 23 0;
#X restore 428 187 pd DELAY-2;
#N canvas 140 50 509 558 DELAY-3 0;
#X obj 124 21 inlet~;
#X obj 124 517 outlet~;
#X obj 124 123 osc~;
#X obj 124 170 *~;
#X obj 124 371 +~;
#X obj 123 456 lop~;
#X obj 123 479 hip~;
#X obj 124 96 r \$0-S3;
#X obj 142 147 r \$0-M3;
#X obj 124 404 delread4~ \$0-delay3;
#X obj 164 439 r \$0-H3;
#X obj 164 462 r \$0-L3;
#X obj 142 195 r \$0-DLY;
#X obj 142 274 *;
#X obj 157 247 t b f;
#X obj 142 350 line~;
#N canvas 429 181 483 485 TAP 0;
#X obj 295 226 i;
#X obj 326 227 + 1;
#X obj 295 163 metro 1;
#X msg 265 209 0;
#X msg 295 140 0;
#X obj 215 201 +;
#X msg 206 168 0;
#X obj 327 192 t b b;
#X msg 246 168 0;
#X obj 209 270 moses 2;
#X obj 181 98 delay 5000;
#X obj 255 336 outlet;
#X obj 241 20 r \$0-TS3;
#X connect 0 0 1 0;
#X connect 0 0 5 1;
#X connect 1 0 0 1;
#X connect 2 0 0 0;
#X connect 3 0 0 0;
#X connect 4 0 2 0;
#X connect 5 0 9 0;
#X connect 6 0 5 0;
#X connect 7 0 3 0;
#X connect 7 1 6 0;
#X connect 8 0 5 1;
#X connect 9 1 11 0;
#X connect 10 0 4 0;
#X connect 10 0 8 0;
#X connect 10 0 3 0;
#X connect 12 0 2 0;
#X connect 12 0 7 0;
#X connect 12 0 10 0;
#X restore 241 196 pd TAP;
#X obj 46 296 loadbang;
#X obj 46 326 metro;
#X obj 46 353 s \$0-TR3;
#X obj 157 223 r \$0-D3;
#X msg 142 325 \$1 100;
#X obj 241 221 /;
#X obj 123 63 delwrite~ \$0-delay3 10000;
#X obj 142 301 min 10000;
#X obj 192 22 catch~ \$0-f3;
#X obj 241 246 s \$0-d3p;
#X connect 0 0 23 0;
#X connect 2 0 3 0;
#X connect 3 0 4 0;
#X connect 4 0 9 0;
#X connect 5 0 6 0;
#X connect 6 0 1 0;
#X connect 7 0 2 0;
#X connect 8 0 3 1;
#X connect 9 0 5 0;
#X connect 10 0 5 1;
#X connect 11 0 6 1;
#X connect 12 0 13 0;
#X connect 12 0 22 1;
#X connect 13 0 24 0;
#X connect 14 0 13 0;
#X connect 14 1 13 1;
#X connect 15 0 4 1;
#X connect 16 0 22 0;
#X connect 17 0 18 0;
#X connect 18 0 19 0;
#X connect 20 0 14 0;
#X connect 21 0 15 0;
#X connect 22 0 26 0;
#X connect 24 0 21 0;
#X connect 24 0 18 1;
#X connect 25 0 23 0;
#X restore 753 180 pd DELAY-3;
#N canvas 136 51 423 565 REVERB-1 0;
#N canvas 251 148 450 392 rv1 0;
#X obj 121 3 inlet~;
#X obj 127 324 outlet~;
#X obj 122 103 +~;
#X obj 126 292 +~;
#X obj 147 69 *~;
#X obj 145 192 *~;
#X obj 161 268 s~ \$0-1r1;
#X obj 147 45 r~ \$0-1r1;
#X obj 122 153 delwrite~ \$0-1r1 5.43216;
#X obj 125 236 delread~ \$0-1r1 5.43216;
#X obj 369 6 inlet -g;
#X obj 262 9 inlet g;
#X connect 0 0 2 0;
#X connect 2 0 5 0;
#X connect 2 0 8 0;
#X connect 3 0 1 0;
#X connect 4 0 2 1;
#X connect 5 0 3 1;
#X connect 7 0 4 0;
#X connect 9 0 3 0;
#X connect 9 0 6 0;
#X connect 10 0 4 1;
#X connect 11 0 5 1;
#X restore 117 206 pd rv1;
#X obj 233 160 * -1;
#X obj 187 123 r \$0-R1;
#N canvas 251 148 450 392 rv2 0;
#X obj 121 3 inlet~;
#X obj 127 324 outlet~;
#X obj 122 103 +~;
#X obj 126 292 +~;
#X obj 147 69 *~;
#X obj 145 192 *~;
#X obj 369 6 inlet -g;
#X obj 262 9 inlet g;
#X obj 147 45 r~ \$0-1r2;
#X obj 161 268 s~ \$0-1r2;
#X obj 122 153 delwrite~ \$0-1r2 8.45346;
#X obj 125 236 delread~ \$0-1r2 8.45346;
#X connect 0 0 2 0;
#X connect 2 0 5 0;
#X connect 2 0 10 0;
#X connect 3 0 1 0;
#X connect 4 0 2 1;
#X connect 5 0 3 1;
#X connect 6 0 4 1;
#X connect 7 0 5 1;
#X connect 8 0 4 0;
#X connect 11 0 3 0;
#X connect 11 0 9 0;
#X restore 117 241 pd rv2;
#N canvas 251 148 450 392 rv3 0;
#X obj 121 3 inlet~;
#X obj 127 324 outlet~;
#X obj 122 103 +~;
#X obj 126 292 +~;
#X obj 147 69 *~;
#X obj 145 192 *~;
#X obj 369 6 inlet -g;
#X obj 262 9 inlet g;
#X obj 147 45 r~ \$0-1r3;
#X obj 161 268 s~ \$0-1r3;
#X obj 122 153 delwrite~ \$0-1r3 13.4367;
#X obj 125 236 delread~ \$0-1r3 13.4367;
#X connect 0 0 2 0;
#X connect 2 0 5 0;
#X connect 2 0 10 0;
#X connect 3 0 1 0;
#X connect 4 0 2 1;
#X connect 5 0 3 1;
#X connect 6 0 4 1;
#X connect 7 0 5 1;
#X connect 8 0 4 0;
#X connect 11 0 3 0;
#X connect 11 0 9 0;
#X restore 117 274 pd rv3;
#N canvas 251 148 450 392 rv4 0;
#X obj 121 3 inlet~;
#X obj 127 324 outlet~;
#X obj 122 103 +~;
#X obj 126 292 +~;
#X obj 147 69 *~;
#X obj 145 192 *~;
#X obj 369 6 inlet -g;
#X obj 262 9 inlet g;
#X obj 147 45 r~ \$0-1r4;
#X obj 161 268 s~ \$0-1r4;
#X obj 122 153 delwrite~ \$0-1r4 21.5463;
#X obj 125 236 delread~ \$0-1r4 21.5463;
#X connect 0 0 2 0;
#X connect 2 0 5 0;
#X connect 2 0 10 0;
#X connect 3 0 1 0;
#X connect 4 0 2 1;
#X connect 5 0 3 1;
#X connect 6 0 4 1;
#X connect 7 0 5 1;
#X connect 8 0 4 0;
#X connect 11 0 3 0;
#X connect 11 0 9 0;
#X restore 117 308 pd rv4;
#N canvas 251 148 450 392 rv5 0;
#X obj 121 3 inlet~;
#X obj 127 324 outlet~;
#X obj 122 103 +~;
#X obj 126 292 +~;
#X obj 147 69 *~;
#X obj 145 192 *~;
#X obj 369 6 inlet -g;
#X obj 262 9 inlet g;
#X obj 147 45 r~ \$0-1r5;
#X obj 161 268 s~ \$0-1r5;
#X obj 122 153 delwrite~ \$0-1r5 34.3876;
#X obj 125 236 delread~ \$0-1r5 34.3876;
#X connect 0 0 2 0;
#X connect 2 0 5 0;
#X connect 2 0 10 0;
#X connect 3 0 1 0;
#X connect 4 0 2 1;
#X connect 5 0 3 1;
#X connect 6 0 4 1;
#X connect 7 0 5 1;
#X connect 8 0 4 0;
#X connect 11 0 3 0;
#X connect 11 0 9 0;
#X restore 117 341 pd rv5;
#N canvas 251 148 450 392 rv6 0;
#X obj 121 3 inlet~;
#X obj 127 324 outlet~;
#X obj 122 103 +~;
#X obj 126 292 +~;
#X obj 147 69 *~;
#X obj 145 192 *~;
#X obj 369 6 inlet -g;
#X obj 262 9 inlet g;
#X obj 147 45 r~ \$0-1r6;
#X obj 161 268 s~ \$0-1r6;
#X obj 122 153 delwrite~ \$0-1r6 55.5437;
#X obj 125 236 delread~ \$0-1r6 55.5437;
#X connect 0 0 2 0;
#X connect 2 0 5 0;
#X connect 2 0 10 0;
#X connect 3 0 1 0;
#X connect 4 0 2 1;
#X connect 5 0 3 1;
#X connect 6 0 4 1;
#X connect 7 0 5 1;
#X connect 8 0 4 0;
#X connect 11 0 3 0;
#X connect 11 0 9 0;
#X restore 117 376 pd rv6;
#X obj 89 159 inlet~;
#X obj 89 499 outlet~;
#N canvas 349 170 450 300 BYPASS 0;
#X obj 161 77 inlet~;
#X obj 167 247 outlet~;
#X obj 190 130 == 0;
#X obj 246 81 inlet~;
#X obj 268 132 == 1;
#X obj 372 79 inlet;
#X obj 166 168 *~;
#X obj 231 166 *~;
#X connect 0 0 6 0;
#X connect 2 0 6 1;
#X connect 3 0 7 0;
#X connect 4 0 7 1;
#X connect 5 0 2 0;
#X connect 5 0 4 0;
#X connect 6 0 1 0;
#X connect 7 0 1 0;
#X restore 88 459 pd BYPASS;
#X obj 148 436 > 0.3;
#X connect 0 0 3 0;
#X connect 1 0 0 2;
#X connect 1 0 3 2;
#X connect 1 0 4 2;
#X connect 1 0 5 2;
#X connect 1 0 6 2;
#X connect 1 0 7 2;
#X connect 2 0 1 0;
#X connect 2 0 0 1;
#X connect 2 0 3 1;
#X connect 2 0 4 1;
#X connect 2 0 5 1;
#X connect 2 0 6 1;
#X connect 2 0 7 1;
#X connect 2 0 11 0;
#X connect 3 0 4 0;
#X connect 4 0 5 0;
#X connect 5 0 6 0;
#X connect 6 0 7 0;
#X connect 7 0 10 1;
#X connect 8 0 0 0;
#X connect 8 0 10 0;
#X connect 10 0 9 0;
#X connect 11 0 10 2;
#X restore 145 288 pd REVERB-1;
#N canvas 114 51 438 516 REVERB-2 0;
#N canvas 251 148 450 392 rv1 0;
#X obj 121 3 inlet~;
#X obj 127 324 outlet~;
#X obj 122 103 +~;
#X obj 126 292 +~;
#X obj 147 69 *~;
#X obj 145 192 *~;
#X obj 369 6 inlet -g;
#X obj 262 9 inlet g;
#X obj 147 45 r~ \$0-2r1;
#X obj 161 268 s~ \$0-2r1;
#X obj 122 153 delwrite~ \$0-2r1 8;
#X obj 125 236 delread~ \$0-2r1 8;
#X connect 0 0 2 0;
#X connect 2 0 5 0;
#X connect 2 0 10 0;
#X connect 3 0 1 0;
#X connect 4 0 2 1;
#X connect 5 0 3 1;
#X connect 6 0 4 1;
#X connect 7 0 5 1;
#X connect 8 0 4 0;
#X connect 11 0 3 0;
#X connect 11 0 9 0;
#X restore 119 152 pd rv1;
#X obj 235 106 * -1;
#N canvas 251 148 450 392 rv2 0;
#X obj 121 3 inlet~;
#X obj 127 324 outlet~;
#X obj 122 103 +~;
#X obj 126 292 +~;
#X obj 147 69 *~;
#X obj 145 192 *~;
#X obj 369 6 inlet -g;
#X obj 262 9 inlet g;
#X obj 147 45 r~ \$0-2r2;
#X obj 161 268 s~ \$0-2r2;
#X obj 121 153 delwrite~ \$0-2r2 14.32;
#X obj 125 236 delread~ \$0-2r2 14.32;
#X connect 0 0 2 0;
#X connect 2 0 5 0;
#X connect 2 0 10 0;
#X connect 3 0 1 0;
#X connect 4 0 2 1;
#X connect 5 0 3 1;
#X connect 6 0 4 1;
#X connect 7 0 5 1;
#X connect 8 0 4 0;
#X connect 11 0 3 0;
#X connect 11 0 9 0;
#X restore 119 187 pd rv2;
#N canvas 251 148 450 392 rv3 0;
#X obj 121 3 inlet~;
#X obj 127 324 outlet~;
#X obj 122 103 +~;
#X obj 126 292 +~;
#X obj 147 69 *~;
#X obj 145 192 *~;
#X obj 369 6 inlet -g;
#X obj 262 9 inlet g;
#X obj 147 45 r~ \$0-2r3;
#X obj 161 268 s~ \$0-2r3;
#X obj 122 153 delwrite~ \$0-2r3 25.6328;
#X obj 125 236 delread~ \$0-2r3 25.6328;
#X connect 0 0 2 0;
#X connect 2 0 5 0;
#X connect 2 0 10 0;
#X connect 3 0 1 0;
#X connect 4 0 2 1;
#X connect 5 0 3 1;
#X connect 6 0 4 1;
#X connect 7 0 5 1;
#X connect 8 0 4 0;
#X connect 11 0 3 0;
#X connect 11 0 9 0;
#X restore 119 220 pd rv3;
#N canvas 251 148 450 392 rv4 0;
#X obj 121 3 inlet~;
#X obj 127 324 outlet~;
#X obj 122 103 +~;
#X obj 126 292 +~;
#X obj 147 69 *~;
#X obj 145 192 *~;
#X obj 369 6 inlet -g;
#X obj 262 9 inlet g;
#X obj 147 45 r~ \$0-2r4;
#X obj 161 268 s~ \$0-2r4;
#X obj 122 153 delwrite~ \$0-2r4 45.8827;
#X obj 125 236 delread~ \$0-2r4 45.8827;
#X connect 0 0 2 0;
#X connect 2 0 5 0;
#X connect 2 0 10 0;
#X connect 3 0 1 0;
#X connect 4 0 2 1;
#X connect 5 0 3 1;
#X connect 6 0 4 1;
#X connect 7 0 5 1;
#X connect 8 0 4 0;
#X connect 11 0 3 0;
#X connect 11 0 9 0;
#X restore 119 254 pd rv4;
#N canvas 251 148 450 392 rv5 0;
#X obj 121 3 inlet~;
#X obj 127 324 outlet~;
#X obj 122 103 +~;
#X obj 126 292 +~;
#X obj 147 69 *~;
#X obj 145 192 *~;
#X obj 369 6 inlet -g;
#X obj 262 9 inlet g;
#X obj 145 47 r~ \$0-2r5;
#X obj 161 268 s~ \$0-2r5;
#X obj 122 153 delwrite~ \$0-2r5 82.1301;
#X obj 124 235 delread~ \$0-2r5 82.1301;
#X connect 0 0 2 0;
#X connect 2 0 5 0;
#X connect 2 0 10 0;
#X connect 3 0 1 0;
#X connect 4 0 2 1;
#X connect 5 0 3 1;
#X connect 6 0 4 1;
#X connect 7 0 5 1;
#X connect 8 0 4 0;
#X connect 11 0 3 0;
#X connect 11 0 9 0;
#X restore 119 287 pd rv5;
#N canvas 251 148 450 392 rv6 0;
#X obj 121 3 inlet~;
#X obj 127 324 outlet~;
#X obj 122 103 +~;
#X obj 126 292 +~;
#X obj 147 69 *~;
#X obj 145 192 *~;
#X obj 369 6 inlet -g;
#X obj 262 9 inlet g;
#X obj 147 45 r~ \$0-2r6;
#X obj 161 268 s~ \$0-2r6;
#X obj 122 153 delwrite~ \$0-2r6 147.013;
#X obj 125 236 delread~ \$0-2r6 147.013;
#X connect 0 0 2 0;
#X connect 2 0 5 0;
#X connect 2 0 10 0;
#X connect 3 0 1 0;
#X connect 4 0 2 1;
#X connect 5 0 3 1;
#X connect 6 0 4 1;
#X connect 7 0 5 1;
#X connect 8 0 4 0;
#X connect 11 0 3 0;
#X connect 11 0 9 0;
#X restore 119 322 pd rv6;
#X obj 89 104 inlet~;
#X obj 88 458 outlet~;
#X obj 189 69 r \$0-R2;
#N canvas 349 170 450 300 BYPASS 0;
#X obj 161 77 inlet~;
#X obj 167 247 outlet~;
#X obj 190 130 == 0;
#X obj 246 81 inlet~;
#X obj 268 132 == 1;
#X obj 372 79 inlet;
#X obj 166 168 *~;
#X obj 231 166 *~;
#X connect 0 0 6 0;
#X connect 2 0 6 1;
#X connect 3 0 7 0;
#X connect 4 0 7 1;
#X connect 5 0 2 0;
#X connect 5 0 4 0;
#X connect 6 0 1 0;
#X connect 7 0 1 0;
#X restore 88 407 pd BYPASS;
#X obj 148 386 > 0.3;
#X connect 0 0 2 0;
#X connect 1 0 0 2;
#X connect 1 0 2 2;
#X connect 1 0 3 2;
#X connect 1 0 4 2;
#X connect 1 0 5 2;
#X connect 1 0 6 2;
#X connect 2 0 3 0;
#X connect 3 0 4 0;
#X connect 4 0 5 0;
#X connect 5 0 6 0;
#X connect 6 0 10 1;
#X connect 7 0 0 0;
#X connect 7 0 10 0;
#X connect 9 0 1 0;
#X connect 9 0 0 1;
#X connect 9 0 2 1;
#X connect 9 0 3 1;
#X connect 9 0 4 1;
#X connect 9 0 5 1;
#X connect 9 0 6 1;
#X connect 9 0 11 0;
#X connect 10 0 8 0;
#X connect 11 0 10 2;
#X restore 490 296 pd REVERB-2;
#N canvas 114 51 422 429 REVERB-3 0;
#N canvas 251 148 450 392 rv1 0;
#X obj 121 3 inlet~;
#X obj 127 324 outlet~;
#X obj 122 103 +~;
#X obj 126 292 +~;
#X obj 147 69 *~;
#X obj 145 192 *~;
#X obj 369 6 inlet -g;
#X obj 262 9 inlet g;
#X obj 147 45 r~ \$0-3r1;
#X obj 122 153 delwrite~ \$0-3r1 5.43216;
#X obj 125 236 delread~ \$0-3r1 5.43216;
#X obj 161 268 s~ \$0-3r1;
#X connect 0 0 2 0;
#X connect 2 0 5 0;
#X connect 2 0 9 0;
#X connect 3 0 1 0;
#X connect 4 0 2 1;
#X connect 5 0 3 1;
#X connect 6 0 4 1;
#X connect 7 0 5 1;
#X connect 8 0 4 0;
#X connect 10 0 3 0;
#X connect 10 0 11 0;
#X restore 97 125 pd rv1;
#X obj 213 79 * -1;
#N canvas 251 148 450 392 rv2 0;
#X obj 121 3 inlet~;
#X obj 127 324 outlet~;
#X obj 122 103 +~;
#X obj 126 292 +~;
#X obj 147 69 *~;
#X obj 145 192 *~;
#X obj 369 6 inlet -g;
#X obj 262 9 inlet g;
#X obj 147 45 r~ \$0-3r2;
#X obj 122 153 delwrite~ \$0-3r2 8.45346;
#X obj 125 236 delread~ \$0-3r2 8.45346;
#X obj 161 268 s~ \$0-3r2;
#X connect 0 0 2 0;
#X connect 2 0 5 0;
#X connect 2 0 9 0;
#X connect 3 0 1 0;
#X connect 4 0 2 1;
#X connect 5 0 3 1;
#X connect 6 0 4 1;
#X connect 7 0 5 1;
#X connect 8 0 4 0;
#X connect 10 0 3 0;
#X connect 10 0 11 0;
#X restore 97 160 pd rv2;
#N canvas 251 148 450 392 rv3 0;
#X obj 121 3 inlet~;
#X obj 127 324 outlet~;
#X obj 122 103 +~;
#X obj 126 292 +~;
#X obj 147 69 *~;
#X obj 145 192 *~;
#X obj 369 6 inlet -g;
#X obj 262 9 inlet g;
#X obj 147 45 r~ \$0-3r3;
#X obj 122 153 delwrite~ \$0-3r3 13.4367;
#X obj 125 236 delread~ \$0-3r3 13.4367;
#X obj 161 268 s~ \$0-3r3;
#X connect 0 0 2 0;
#X connect 2 0 5 0;
#X connect 2 0 9 0;
#X connect 3 0 1 0;
#X connect 4 0 2 1;
#X connect 5 0 3 1;
#X connect 6 0 4 1;
#X connect 7 0 5 1;
#X connect 8 0 4 0;
#X connect 10 0 3 0;
#X connect 10 0 11 0;
#X restore 97 193 pd rv3;
#N canvas 251 148 450 392 rv4 0;
#X obj 121 3 inlet~;
#X obj 127 324 outlet~;
#X obj 122 103 +~;
#X obj 126 292 +~;
#X obj 147 69 *~;
#X obj 145 192 *~;
#X obj 369 6 inlet -g;
#X obj 262 9 inlet g;
#X obj 147 45 r~ \$0-3r4;
#X obj 122 153 delwrite~ \$0-3r4 21.5463;
#X obj 125 236 delread~ \$0-3r4 21.5463;
#X obj 161 268 s~ \$0-3r4;
#X connect 0 0 2 0;
#X connect 2 0 5 0;
#X connect 2 0 9 0;
#X connect 3 0 1 0;
#X connect 4 0 2 1;
#X connect 5 0 3 1;
#X connect 6 0 4 1;
#X connect 7 0 5 1;
#X connect 8 0 4 0;
#X connect 10 0 3 0;
#X connect 10 0 11 0;
#X restore 97 227 pd rv4;
#N canvas 251 148 450 392 rv5 0;
#X obj 121 3 inlet~;
#X obj 127 324 outlet~;
#X obj 122 103 +~;
#X obj 126 292 +~;
#X obj 147 69 *~;
#X obj 145 192 *~;
#X obj 369 6 inlet -g;
#X obj 262 9 inlet g;
#X obj 147 45 r~ \$0-3r5;
#X obj 122 153 delwrite~ \$0-3r5 34.3876;
#X obj 125 236 delread~ \$0-3r5 34.3876;
#X obj 161 268 s~ \$0-3r5;
#X connect 0 0 2 0;
#X connect 2 0 5 0;
#X connect 2 0 9 0;
#X connect 3 0 1 0;
#X connect 4 0 2 1;
#X connect 5 0 3 1;
#X connect 6 0 4 1;
#X connect 7 0 5 1;
#X connect 8 0 4 0;
#X connect 10 0 3 0;
#X connect 10 0 11 0;
#X restore 97 260 pd rv5;
#N canvas 251 148 450 392 rv6 0;
#X obj 121 3 inlet~;
#X obj 127 324 outlet~;
#X obj 122 103 +~;
#X obj 126 292 +~;
#X obj 147 69 *~;
#X obj 145 192 *~;
#X obj 369 6 inlet -g;
#X obj 262 9 inlet g;
#X obj 147 45 r~ \$0-3r6;
#X obj 122 153 delwrite~ \$0-3r6 55.5437;
#X obj 125 236 delread~ \$0-3r6 55.5437;
#X obj 161 268 s~ \$0-3r6;
#X connect 0 0 2 0;
#X connect 2 0 5 0;
#X connect 2 0 9 0;
#X connect 3 0 1 0;
#X connect 4 0 2 1;
#X connect 5 0 3 1;
#X connect 6 0 4 1;
#X connect 7 0 5 1;
#X connect 8 0 4 0;
#X connect 10 0 3 0;
#X connect 10 0 11 0;
#X restore 97 295 pd rv6;
#X obj 68 77 inlet~;
#X obj 68 401 outlet~;
#X obj 167 42 r \$0-R3;
#N canvas 349 170 450 300 BYPASS 0;
#X obj 161 77 inlet~;
#X obj 167 247 outlet~;
#X obj 190 130 == 0;
#X obj 246 81 inlet~;
#X obj 268 132 == 1;
#X obj 372 79 inlet;
#X obj 166 168 *~;
#X obj 231 166 *~;
#X connect 0 0 6 0;
#X connect 2 0 6 1;
#X connect 3 0 7 0;
#X connect 4 0 7 1;
#X connect 5 0 2 0;
#X connect 5 0 4 0;
#X connect 6 0 1 0;
#X connect 7 0 1 0;
#X restore 68 370 pd BYPASS;
#X obj 128 349 > 0.3;
#X connect 0 0 2 0;
#X connect 1 0 0 2;
#X connect 1 0 2 2;
#X connect 1 0 3 2;
#X connect 1 0 4 2;
#X connect 1 0 5 2;
#X connect 1 0 6 2;
#X connect 2 0 3 0;
#X connect 3 0 4 0;
#X connect 4 0 5 0;
#X connect 5 0 6 0;
#X connect 6 0 10 1;
#X connect 7 0 0 0;
#X connect 7 0 10 0;
#X connect 9 0 1 0;
#X connect 9 0 0 1;
#X connect 9 0 2 1;
#X connect 9 0 3 1;
#X connect 9 0 4 1;
#X connect 9 0 5 1;
#X connect 9 0 6 1;
#X connect 9 0 11 0;
#X connect 10 0 8 0;
#X connect 11 0 10 2;
#X restore 820 290 pd REVERB-3;
#N canvas 185 144 450 300 MULT 0;
#X obj 162 137 *~;
#X msg 180 95 \$1 50;
#X obj 180 114 line~;
#X obj 162 44 inlet~;
#X obj 163 181 outlet~;
#X obj 217 44 inlet;
#X connect 0 0 4 0;
#X connect 1 0 2 0;
#X connect 2 0 0 1;
#X connect 3 0 0 0;
#X connect 5 0 1 0;
#X restore 83 481 pd MULT;
#X obj 129 456 r \$0-V1;
#N canvas 492 399 450 300 FB-1 0;
#N canvas 185 144 450 300 MULT 0;
#X obj 162 137 *~;
#X msg 180 95 \$1 50;
#X obj 180 114 line~;
#X obj 162 44 inlet~;
#X obj 163 181 outlet~;
#X obj 217 44 inlet;
#X connect 0 0 4 0;
#X connect 1 0 2 0;
#X connect 2 0 0 1;
#X connect 3 0 0 0;
#X connect 5 0 1 0;
#X restore 147 133 pd MULT;
#X obj 145 75 inlet~;
#X obj 193 108 r \$0-F1;
#N canvas 185 144 450 300 MULT 0;
#X obj 162 137 *~;
#X msg 180 95 \$1 50;
#X obj 180 114 line~;
#X obj 162 44 inlet~;
#X obj 163 181 outlet~;
#X obj 217 44 inlet;
#X connect 0 0 4 0;
#X connect 1 0 2 0;
#X connect 2 0 0 1;
#X connect 3 0 0 0;
#X connect 5 0 1 0;
#X restore 83 212 pd MULT;
#X obj 129 187 r \$0-11;
#N canvas 185 144 450 300 MULT 0;
#X obj 162 137 *~;
#X msg 180 95 \$1 50;
#X obj 180 114 line~;
#X obj 162 44 inlet~;
#X obj 163 181 outlet~;
#X obj 217 44 inlet;
#X connect 0 0 4 0;
#X connect 1 0 2 0;
#X connect 2 0 0 1;
#X connect 3 0 0 0;
#X connect 5 0 1 0;
#X restore 175 213 pd MULT;
#N canvas 185 144 450 300 MULT 0;
#X obj 162 137 *~;
#X msg 180 95 \$1 50;
#X obj 180 114 line~;
#X obj 162 44 inlet~;
#X obj 163 181 outlet~;
#X obj 217 44 inlet;
#X connect 0 0 4 0;
#X connect 1 0 2 0;
#X connect 2 0 0 1;
#X connect 3 0 0 0;
#X connect 5 0 1 0;
#X restore 265 216 pd MULT;
#X obj 221 188 r \$0-12;
#X obj 311 191 r \$0-13;
#X obj 83 243 throw~ \$0-f1;
#X obj 187 246 throw~ \$0-f2;
#X obj 296 246 throw~ \$0-f3;
#X connect 0 0 3 0;
#X connect 0 0 5 0;
#X connect 0 0 6 0;
#X connect 1 0 0 0;
#X connect 2 0 0 1;
#X connect 3 0 9 0;
#X connect 4 0 3 1;
#X connect 5 0 10 0;
#X connect 6 0 11 0;
#X connect 7 0 5 1;
#X connect 8 0 6 1;
#X restore 227 438 pd FB-1;
#N canvas 900 255 450 300 FB-2 0;
#N canvas 185 144 450 300 MULT 0;
#X obj 162 137 *~;
#X msg 180 95 \$1 50;
#X obj 180 114 line~;
#X obj 162 44 inlet~;
#X obj 163 181 outlet~;
#X obj 217 44 inlet;
#X connect 0 0 4 0;
#X connect 1 0 2 0;
#X connect 2 0 0 1;
#X connect 3 0 0 0;
#X connect 5 0 1 0;
#X restore 147 133 pd MULT;
#X obj 145 75 inlet~;
#N canvas 185 144 450 300 MULT 0;
#X obj 162 137 *~;
#X msg 180 95 \$1 50;
#X obj 180 114 line~;
#X obj 162 44 inlet~;
#X obj 163 181 outlet~;
#X obj 217 44 inlet;
#X connect 0 0 4 0;
#X connect 1 0 2 0;
#X connect 2 0 0 1;
#X connect 3 0 0 0;
#X connect 5 0 1 0;
#X restore 83 212 pd MULT;
#N canvas 185 144 450 300 MULT 0;
#X obj 162 137 *~;
#X msg 180 95 \$1 50;
#X obj 180 114 line~;
#X obj 162 44 inlet~;
#X obj 163 181 outlet~;
#X obj 217 44 inlet;
#X connect 0 0 4 0;
#X connect 1 0 2 0;
#X connect 2 0 0 1;
#X connect 3 0 0 0;
#X connect 5 0 1 0;
#X restore 175 213 pd MULT;
#N canvas 185 144 450 300 MULT 0;
#X obj 162 137 *~;
#X msg 180 95 \$1 50;
#X obj 180 114 line~;
#X obj 162 44 inlet~;
#X obj 163 181 outlet~;
#X obj 217 44 inlet;
#X connect 0 0 4 0;
#X connect 1 0 2 0;
#X connect 2 0 0 1;
#X connect 3 0 0 0;
#X connect 5 0 1 0;
#X restore 265 216 pd MULT;
#X obj 83 243 throw~ \$0-f1;
#X obj 187 246 throw~ \$0-f2;
#X obj 296 246 throw~ \$0-f3;
#X obj 193 108 r \$0-F2;
#X obj 129 187 r \$0-21;
#X obj 221 188 r \$0-22;
#X obj 311 191 r \$0-23;
#X connect 0 0 2 0;
#X connect 0 0 3 0;
#X connect 0 0 4 0;
#X connect 1 0 0 0;
#X connect 2 0 5 0;
#X connect 3 0 6 0;
#X connect 4 0 7 0;
#X connect 8 0 0 1;
#X connect 9 0 2 1;
#X connect 10 0 3 1;
#X connect 11 0 4 1;
#X restore 585 425 pd FB-2;
#N canvas 551 263 450 300 FB-3 0;
#N canvas 185 144 450 300 MULT 0;
#X obj 162 137 *~;
#X msg 180 95 \$1 50;
#X obj 180 114 line~;
#X obj 162 44 inlet~;
#X obj 163 181 outlet~;
#X obj 217 44 inlet;
#X connect 0 0 4 0;
#X connect 1 0 2 0;
#X connect 2 0 0 1;
#X connect 3 0 0 0;
#X connect 5 0 1 0;
#X restore 147 133 pd MULT;
#X obj 145 75 inlet~;
#N canvas 185 144 450 300 MULT 0;
#X obj 162 137 *~;
#X msg 180 95 \$1 50;
#X obj 180 114 line~;
#X obj 162 44 inlet~;
#X obj 163 181 outlet~;
#X obj 217 44 inlet;
#X connect 0 0 4 0;
#X connect 1 0 2 0;
#X connect 2 0 0 1;
#X connect 3 0 0 0;
#X connect 5 0 1 0;
#X restore 83 212 pd MULT;
#N canvas 185 144 450 300 MULT 0;
#X obj 162 137 *~;
#X msg 180 95 \$1 50;
#X obj 180 114 line~;
#X obj 162 44 inlet~;
#X obj 163 181 outlet~;
#X obj 217 44 inlet;
#X connect 0 0 4 0;
#X connect 1 0 2 0;
#X connect 2 0 0 1;
#X connect 3 0 0 0;
#X connect 5 0 1 0;
#X restore 175 213 pd MULT;
#N canvas 185 144 450 300 MULT 0;
#X obj 162 137 *~;
#X msg 180 95 \$1 50;
#X obj 180 114 line~;
#X obj 162 44 inlet~;
#X obj 163 181 outlet~;
#X obj 217 44 inlet;
#X connect 0 0 4 0;
#X connect 1 0 2 0;
#X connect 2 0 0 1;
#X connect 3 0 0 0;
#X connect 5 0 1 0;
#X restore 265 216 pd MULT;
#X obj 83 243 throw~ \$0-f1;
#X obj 187 246 throw~ \$0-f2;
#X obj 296 246 throw~ \$0-f3;
#X obj 193 108 r \$0-F3;
#X obj 129 187 r \$0-31;
#X obj 221 188 r \$0-32;
#X obj 311 191 r \$0-33;
#X connect 0 0 2 0;
#X connect 0 0 3 0;
#X connect 0 0 4 0;
#X connect 1 0 0 0;
#X connect 2 0 5 0;
#X connect 3 0 6 0;
#X connect 4 0 7 0;
#X connect 8 0 0 1;
#X connect 9 0 2 1;
#X connect 10 0 3 1;
#X connect 11 0 4 1;
#X restore 905 418 pd FB-3;
#N canvas 185 144 450 300 MULT 0;
#X obj 162 137 *~;
#X msg 180 95 \$1 50;
#X obj 180 114 line~;
#X obj 162 44 inlet~;
#X obj 163 181 outlet~;
#X obj 217 44 inlet;
#X connect 0 0 4 0;
#X connect 1 0 2 0;
#X connect 2 0 0 1;
#X connect 3 0 0 0;
#X connect 5 0 1 0;
#X restore 437 482 pd MULT;
#X obj 483 456 r \$0-V2;
#N canvas 185 144 450 300 MULT 0;
#X obj 162 137 *~;
#X msg 180 95 \$1 50;
#X obj 180 114 line~;
#X obj 162 44 inlet~;
#X obj 163 181 outlet~;
#X obj 217 44 inlet;
#X connect 0 0 4 0;
#X connect 1 0 2 0;
#X connect 2 0 0 1;
#X connect 3 0 0 0;
#X connect 5 0 1 0;
#X restore 788 475 pd MULT;
#X obj 834 449 r \$0-V3;
#X obj 907 33 r \$0-SW;
#X obj 219 145 r \$0-RP1;
#X obj 164 260 *~;
#X obj 194 243 == 0;
#X obj 128 345 *~;
#X obj 146 322 == 0;
#X obj 246 264 *~;
#X obj 276 247 != 1;
#X obj 83 158 *~;
#X obj 117 141 != 0;
#N canvas 185 144 450 300 MULT 0;
#X obj 162 137 *~;
#X msg 180 95 \$1 50;
#X obj 180 114 line~;
#X obj 162 44 inlet~;
#X obj 163 181 outlet~;
#X obj 217 44 inlet;
#X connect 0 0 4 0;
#X connect 1 0 2 0;
#X connect 2 0 0 1;
#X connect 3 0 0 0;
#X connect 5 0 1 0;
#X restore 172 67 pd MULT;
#X obj 218 42 r \$0-SW1;
#N canvas 185 144 450 300 MULT 0;
#X obj 162 137 *~;
#X msg 180 95 \$1 50;
#X obj 180 114 line~;
#X obj 162 44 inlet~;
#X obj 163 181 outlet~;
#X obj 217 44 inlet;
#X connect 0 0 4 0;
#X connect 1 0 2 0;
#X connect 2 0 0 1;
#X connect 3 0 0 0;
#X connect 5 0 1 0;
#X restore 479 87 pd MULT;
#X obj 525 62 r \$0-SW2;
#N canvas 185 144 450 300 MULT 0;
#X obj 162 137 *~;
#X msg 180 95 \$1 50;
#X obj 180 114 line~;
#X obj 162 44 inlet~;
#X obj 163 181 outlet~;
#X obj 217 44 inlet;
#X connect 0 0 4 0;
#X connect 1 0 2 0;
#X connect 2 0 0 1;
#X connect 3 0 0 0;
#X connect 5 0 1 0;
#X restore 767 57 pd MULT;
#X obj 813 32 r \$0-SW3;
#X obj 45 368 *~;
#X obj 75 351 == 0;
#X obj 117 251 *~;
#X obj 171 396 *~;
#X obj 201 379 == 1;
#X obj 147 234 != 0;
#X obj 506 262 *~;
#X obj 536 245 == 0;
#X obj 470 347 *~;
#X obj 488 324 == 0;
#X obj 583 270 *~;
#X obj 613 253 != 1;
#X obj 425 160 *~;
#X obj 459 143 != 0;
#X obj 387 370 *~;
#X obj 417 353 == 0;
#X obj 459 253 *~;
#X obj 513 398 *~;
#X obj 543 381 == 1;
#X obj 489 236 != 0;
#X obj 560 147 r \$0-RP2;
#X obj 834 256 *~;
#X obj 864 239 == 0;
#X obj 798 341 *~;
#X obj 816 318 == 0;
#X obj 916 263 *~;
#X obj 946 246 != 1;
#X obj 753 154 *~;
#X obj 787 137 != 0;
#X obj 715 364 *~;
#X obj 745 347 == 0;
#X obj 787 247 *~;
#X obj 841 392 *~;
#X obj 871 375 == 1;
#X obj 817 230 != 0;
#X obj 892 137 r \$0-RP3;
#X obj 93 387 s~ \$0-1;
#X obj 443 395 s~ \$0-2;
#X obj 776 380 s~ \$0-3;
#X obj 36 114 r~ \$0-1;
#X obj 374 120 r~ \$0-2;
#X obj 698 117 r~ \$0-3;
#X connect 0 0 28 0;
#X connect 0 0 30 0;
#X connect 0 0 32 0;
#X connect 3 0 34 0;
#X connect 3 0 36 0;
#X connect 3 0 24 0;
#X connect 4 0 50 0;
#X connect 4 0 48 0;
#X connect 4 0 44 0;
#X connect 5 0 65 0;
#X connect 5 0 59 0;
#X connect 5 0 63 0;
#X connect 6 0 22 0;
#X connect 6 0 37 0;
#X connect 6 0 9 0;
#X connect 7 0 42 0;
#X connect 7 0 51 0;
#X connect 7 0 14 0;
#X connect 8 0 57 0;
#X connect 8 0 66 0;
#X connect 8 0 16 0;
#X connect 9 0 1 0;
#X connect 10 0 9 1;
#X connect 14 0 1 0;
#X connect 15 0 14 1;
#X connect 16 0 1 0;
#X connect 17 0 16 1;
#X connect 18 0 2 0;
#X connect 19 0 21 0;
#X connect 19 0 25 0;
#X connect 19 0 27 0;
#X connect 19 0 35 0;
#X connect 19 0 23 0;
#X connect 19 0 39 0;
#X connect 19 0 38 0;
#X connect 20 0 6 0;
#X connect 21 0 20 1;
#X connect 22 0 70 0;
#X connect 23 0 22 1;
#X connect 24 0 11 0;
#X connect 25 0 24 1;
#X connect 26 0 3 0;
#X connect 27 0 26 1;
#X connect 28 0 26 0;
#X connect 28 0 20 0;
#X connect 29 0 28 1;
#X connect 30 0 46 0;
#X connect 30 0 40 0;
#X connect 31 0 30 1;
#X connect 32 0 61 0;
#X connect 32 0 55 0;
#X connect 33 0 32 1;
#X connect 34 0 9 0;
#X connect 35 0 34 1;
#X connect 36 0 6 0;
#X connect 37 0 11 0;
#X connect 38 0 37 1;
#X connect 39 0 36 1;
#X connect 40 0 7 0;
#X connect 41 0 40 1;
#X connect 42 0 71 0;
#X connect 43 0 42 1;
#X connect 44 0 12 0;
#X connect 45 0 44 1;
#X connect 46 0 4 0;
#X connect 47 0 46 1;
#X connect 48 0 14 0;
#X connect 49 0 48 1;
#X connect 50 0 7 0;
#X connect 51 0 12 0;
#X connect 52 0 51 1;
#X connect 53 0 50 1;
#X connect 54 0 41 0;
#X connect 54 0 45 0;
#X connect 54 0 47 0;
#X connect 54 0 49 0;
#X connect 54 0 43 0;
#X connect 54 0 53 0;
#X connect 54 0 52 0;
#X connect 55 0 8 0;
#X connect 56 0 55 1;
#X connect 57 0 72 0;
#X connect 58 0 57 1;
#X connect 59 0 13 0;
#X connect 60 0 59 1;
#X connect 61 0 5 0;
#X connect 62 0 61 1;
#X connect 63 0 16 0;
#X connect 64 0 63 1;
#X connect 65 0 8 0;
#X connect 66 0 13 0;
#X connect 67 0 66 1;
#X connect 68 0 65 1;
#X connect 69 0 56 0;
#X connect 69 0 60 0;
#X connect 69 0 62 0;
#X connect 69 0 64 0;
#X connect 69 0 58 0;
#X connect 69 0 68 0;
#X connect 69 0 67 0;
#X connect 73 0 3 0;
#X connect 74 0 4 0;
#X connect 75 0 5 0;
#X restore 730 277 pd DELAY;
#X obj 731 222 *~;
#X obj 749 194 r \$0-BYP;
#N canvas 185 144 450 300 MULT 0;
#X obj 162 137 *~;
#X msg 180 95 \$1 50;
#X obj 180 114 line~;
#X obj 162 44 inlet~;
#X obj 163 181 outlet~;
#X obj 217 44 inlet;
#X connect 0 0 4 0;
#X connect 1 0 2 0;
#X connect 2 0 0 1;
#X connect 3 0 0 0;
#X connect 5 0 1 0;
#X restore 730 374 pd MULT;
#X obj 776 349 r \$0-WET;
#N canvas 349 170 450 300 BYPASS 0;
#X obj 161 77 inlet~;
#X obj 167 247 outlet~;
#X obj 190 130 == 0;
#X obj 246 81 inlet~;
#X obj 268 132 == 1;
#X obj 372 79 inlet;
#X obj 166 168 *~;
#X obj 231 166 *~;
#X connect 0 0 6 0;
#X connect 2 0 6 1;
#X connect 3 0 7 0;
#X connect 4 0 7 1;
#X connect 5 0 2 0;
#X connect 5 0 4 0;
#X connect 6 0 1 0;
#X connect 7 0 1 0;
#X restore 582 454 pd BYPASS;
#X obj 642 431 r \$0-BYP;
#X obj 153 169 vsl 10 41 0.01 1 1 0 \$0-V1 \$0-v1p V 2 39 0 10 -66122
-260097 -262144 4000 1;
#X obj 229 169 vsl 10 41 0.01 1 1 0 \$0-V2 \$0-v2p V 2 39 0 10 -37769
-4034 -262144 4000 1;
#X obj 304 169 vsl 10 41 0.01 1 1 0 \$0-V3 \$0-v3p V 2 39 0 10 -42068
-4032 -262144 4000 1;
#X obj 108 172 bng 15 250 50 0 \$0-MT \$0-bar T 5 8 0 10 -66577 -257985
-262144;
#N canvas 673 180 483 485 TAP 0;
#X obj 295 226 i;
#X obj 326 227 + 1;
#X obj 295 163 metro 1;
#X msg 265 209 0;
#X msg 295 140 0;
#X obj 215 201 +;
#X msg 206 168 0;
#X obj 327 192 t b b;
#X msg 246 168 0;
#X obj 209 270 moses 2;
#X obj 241 20 r \$0-MT;
#X obj 181 98 delay 2500;
#X obj 230 345 s \$0-dlyp;
#X connect 0 0 1 0;
#X connect 0 0 5 1;
#X connect 1 0 0 1;
#X connect 2 0 0 0;
#X connect 3 0 0 0;
#X connect 4 0 2 0;
#X connect 5 0 9 0;
#X connect 6 0 5 0;
#X connect 7 0 3 0;
#X connect 7 1 6 0;
#X connect 8 0 5 1;
#X connect 9 1 12 0;
#X connect 10 0 2 0;
#X connect 10 0 7 0;
#X connect 10 0 11 0;
#X connect 11 0 4 0;
#X connect 11 0 8 0;
#X connect 11 0 3 0;
#X restore 769 145 pd TAP;
#X text 97 28 Ghost Town: reverberated multi-path delay by Shindeibrauns
(Michele Abruzzese) first version 23/11/2016;
#X obj 155 115 cnv 2 10 2 empty empty empty 20 12 0 14 -33289 -66577
0;
#X obj 101 115 cnv 5 278 2 empty empty empty 20 12 0 14 -33289 -66577
0;
#X obj 361 105 tgl 10 0 \$0-SW \$0-swp empty 17 7 0 10 -66577 -257985
-1 0 1;
#X obj 361 181 vradio 10 1 0 3 \$0-RP3 \$0-rp3p empty 0 -8 0 10 -42068
-4032 -262144 2;
#X obj 286 181 vradio 10 1 0 3 \$0-RP2 \$0-rp2p empty 0 -8 0 10 -37769
-4034 -262144 2;
#X obj 210 181 vradio 10 1 0 3 \$0-RP1 \$0-rp1p empty 0 -8 0 10 -66122
-260097 -262144 2;
#N canvas 197 103 1106 555 PRESET 0;
#X obj 145 32 cnv 15 270 200 empty empty empty 20 12 0 14 -33289 -66577
0;
#X obj 155 41 nbx 5 10 -100 15000 0 0 empty \$0-DRY dry 0 15 0 10 -66577
-257985 -262144 1 256;
#X obj 156 63 nbx 5 10 -100 15000 0 0 empty \$0-WET wet 0 15 0 10 -66577
-257985 -262144 1 256;
#X obj 156 86 nbx 5 10 -100 15000 0 0 empty \$0-DLY delay 0 15 0 10
-66577 -257985 -262144 194.004 256;
#X obj 287 41 nbx 5 10 -100 15000 0 0 empty \$0-D2 delay2 0 15 0 10
-37769 -4034 -262144 1 256;
#X obj 223 40 nbx 5 10 -100 15000 0 0 empty \$0-D1 delay1 0 15 0 10
-66122 -260097 -262144 1 256;
#X obj 352 42 nbx 5 10 -100 15000 0 0 empty \$0-D3 delay3 0 15 0 10
-42068 -4032 -262144 1 256;
#X obj 223 61 nbx 5 10 -100 15000 0 0 empty \$0-V1 volume1 0 15 0 10
-66122 -260097 -262144 1 256;
#X obj 223 82 nbx 5 10 -100 15000 0 0 empty \$0-H1 high1 0 15 0 10
-66122 -260097 -262144 15000 256;
#X obj 223 103 nbx 5 10 -100 15000 0 0 empty \$0-L1 low1 0 15 0 10
-66122 -260097 -262144 10 256;
#X obj 224 125 nbx 5 10 -100 15000 0 0 empty \$0-F1 feedback1 0 15
0 10 -66122 -260097 -262144 0.307692 256;
#X obj 224 146 nbx 5 10 -100 15000 0 0 empty \$0-M1 mod1 0 15 0 10
-66122 -260097 -262144 0 256;
#X obj 224 167 nbx 5 10 -100 15000 0 0 empty \$0-S1 speed1 0 15 0 10
-66122 -260097 -262144 0.1 256;
#X obj 224 188 nbx 5 10 -100 15000 0 0 empty \$0-R1 reverb1 0 15 0
10 -66122 -260097 -262144 0.3 256;
#X obj 155 168 tgl 15 0 \$0-foo \$0-11 1 5 7 0 10 -66122 -260097 -262144
1 1;
#X obj 174 168 tgl 15 0 \$0-foo \$0-12 2 5 7 0 10 -66122 -260097 -262144
0 1;
#X obj 193 168 tgl 15 0 \$0-foo \$0-13 3 5 7 0 10 -66122 -260097 -262144
0 1;
#X obj 155 187 tgl 15 0 \$0-foo \$0-21 1 5 7 0 10 -37769 -4034 -262144
0 1;
#X obj 174 187 tgl 15 0 \$0-foo \$0-22 2 5 7 0 10 -37769 -4034 -262144
0 1;
#X obj 193 187 tgl 15 0 \$0-foo \$0-23 3 5 7 0 10 -37769 -4034 -262144
0 1;
#X obj 155 206 tgl 15 0 \$0-foo \$0-31 1 5 7 0 10 -42068 -4032 -262144
0 1;
#X obj 174 206 tgl 15 0 \$0-foo \$0-32 2 5 7 0 10 -42068 -4032 -262144
0 1;
#X obj 193 206 tgl 15 0 \$0-foo \$0-33 3 5 7 0 10 -42068 -4032 -262144
0 1;
#X obj 223 211 tgl 10 0 \$0-SW1 \$0-sw1p 1 14 5 0 10 -66122 -260097
-262144 1 1;
#X obj 351 211 tgl 10 0 \$0-SW3 \$0-sw3p 3 14 5 0 10 -42068 -4032 -262144
0 1;
#X obj 286 211 tgl 10 0 \$0-SW2 \$0-sw2p 2 14 5 0 10 -37769 -4034 -262144
0 1;
#X obj 155 124 tgl 15 0 \$0-foo \$0-BYP BYP -1 22 0 10 -66577 -257985
-262144 0 1;
#X obj 155 110 tgl 10 0 \$0-foo \$0-SW empty 17 7 0 10 -66577 -257985
-1 0 1;
#X obj 246 211 hradio 10 1 0 3 \$0-foo \$0-RP1 empty 0 -8 0 10 -66122
-260097 -262144 2;
#X obj 309 211 hradio 10 1 0 3 \$0-foo \$0-RP2 empty 0 -8 0 10 -37769
-4034 -262144 2;
#X obj 375 211 hradio 10 1 0 3 \$0-foo \$0-RP3 empty 0 -8 0 10 -42068
-4032 -262144 2;
#X obj 287 62 nbx 5 10 -100 15000 0 0 empty \$0-V2 volume2 0 15 0 10
-37769 -4034 -262144 1 256;
#X obj 287 83 nbx 5 10 -100 15000 0 0 empty \$0-H2 high2 0 15 0 10
-37769 -4034 -262144 15000 256;
#X obj 287 104 nbx 5 10 -100 15000 0 0 empty \$0-L2 low2 0 15 0 10
-37769 -4034 -262144 10 256;
#X obj 287 125 nbx 5 10 -100 15000 0 0 empty \$0-F2 feedback2 0 15
0 10 -37769 -4034 -262144 0 256;
#X obj 287 146 nbx 5 10 -100 15000 0 0 empty \$0-M2 mod2 0 15 0 10
-37769 -4034 -262144 0 256;
#X obj 287 167 nbx 5 10 -100 15000 0 0 empty \$0-S2 speed2 0 15 0 10
-37769 -4034 -262144 0.1 256;
#X obj 287 188 nbx 5 10 -100 15000 0 0 empty \$0-R2 reverb2 0 15 0
10 -37769 -4034 -262144 0.3 256;
#X obj 352 63 nbx 5 10 -100 15000 0 0 empty \$0-V3 volume3 0 15 0 10
-42068 -4032 -262144 1 256;
#X obj 352 84 nbx 5 10 -100 15000 0 0 empty \$0-H3 high3 0 15 0 10
-42068 -4032 -262144 15000 256;
#X obj 352 105 nbx 5 10 -100 15000 0 0 empty \$0-L3 low3 0 15 0 10
-42068 -4032 -262144 10 256;
#X obj 352 126 nbx 5 10 -100 15000 0 0 empty \$0-F3 feedback3 0 15
0 10 -42068 -4032 -262144 0 256;
#X obj 352 147 nbx 5 10 -100 15000 0 0 empty \$0-M3 mod3 0 15 0 10
-42068 -4032 -262144 0 256;
#X obj 352 168 nbx 5 10 -100 15000 0 0 empty \$0-S3 speed3 0 15 0 10
-42068 -4032 -262144 0.1 256;
#X obj 352 189 nbx 5 10 -100 15000 0 0 empty \$0-R3 reverb3 0 15 0
10 -42068 -4032 -262144 0.3 256;
#N canvas 303 50 1027 700 makePreset 0;
#X obj 44 14 inlet bang;
#X obj 44 678 outlet message;
#X msg 44 36 preset.name;
#X obj 59 55 r \$0-DRY;
#X obj 74 74 r \$0-WET;
#X obj 89 93 r \$0-DLY;
#X obj 105 112 r \$0-11;
#X obj 120 131 r \$0-12;
#X obj 135 150 r \$0-13;
#X obj 151 169 r \$0-21;
#X obj 166 188 r \$0-22;
#X obj 181 207 r \$0-23;
#X obj 197 226 r \$0-31;
#X obj 212 245 r \$0-32;
#X obj 227 264 r \$0-33;
#X obj 242 283 r \$0-D1;
#X obj 258 302 r \$0-D2;
#X obj 273 321 r \$0-D3;
#X obj 288 340 r \$0-V1;
#X obj 304 359 r \$0-V2;
#X obj 319 378 r \$0-V3;
#X obj 334 397 r \$0-H1;
#X obj 350 416 r \$0-H2;
#X obj 365 435 r \$0-H3;
#X obj 380 454 r \$0-L1;
#X obj 395 473 r \$0-L2;
#X obj 411 492 r \$0-L3;
#X obj 426 511 r \$0-F1;
#X obj 441 530 r \$0-F2;
#X obj 457 549 r \$0-F3;
#X obj 455 228 r \$0-M1;
#X obj 470 247 r \$0-M2;
#X obj 488 270 r \$0-M3;
#X obj 503 289 r \$0-S1;
#X obj 523 313 r \$0-S2;
#X obj 538 332 r \$0-S3;
#X obj 556 355 r \$0-R1;
#X obj 571 374 r \$0-R2;
#X obj 582 395 r \$0-R3;
#X obj 596 421 r \$0-SW1;
#X obj 616 445 r \$0-SW2;
#X obj 631 464 r \$0-SW3;
#X obj 649 487 r \$0-RP1;
#X obj 664 506 r \$0-RP2;
#X obj 675 527 r \$0-RP3;
#X obj 44 611 pack s f f f f f f f f f f f f f f f f f f f f f f f
f f f f f f f f f f f f f f f f f f f, f 94;
#X msg 44 644 set \$1 \$2 \$3 \$4 \$5 \$6 \$7 \$8 \$9 \$10 \$11 \$12
\$13 \$14 \$15 \$16 \$17 \$18 \$19 \$20 \$21 \$22 \$23 \$24 \$25 \$26
\$27 \$28 \$29 \$30 \$31 \$32 \$33 \$34 \$35 \$36 \$37 \$38 \$39 \$40
\$41 \$42 \$43, f 114;
#X connect 0 0 2 0;
#X connect 2 0 45 0;
#X connect 3 0 45 1;
#X connect 4 0 45 2;
#X connect 5 0 45 3;
#X connect 6 0 45 4;
#X connect 7 0 45 5;
#X connect 8 0 45 6;
#X connect 9 0 45 7;
#X connect 10 0 45 8;
#X connect 11 0 45 9;
#X connect 12 0 45 10;
#X connect 13 0 45 11;
#X connect 14 0 45 12;
#X connect 15 0 45 13;
#X connect 16 0 45 14;
#X connect 17 0 45 15;
#X connect 18 0 45 16;
#X connect 19 0 45 17;
#X connect 20 0 45 18;
#X connect 21 0 45 19;
#X connect 22 0 45 20;
#X connect 23 0 45 21;
#X connect 24 0 45 22;
#X connect 25 0 45 23;
#X connect 26 0 45 24;
#X connect 27 0 45 25;
#X connect 28 0 45 26;
#X connect 29 0 45 27;
#X connect 30 0 45 28;
#X connect 31 0 45 29;
#X connect 32 0 45 30;
#X connect 33 0 45 31;
#X connect 34 0 45 32;
#X connect 35 0 45 33;
#X connect 36 0 45 34;
#X connect 37 0 45 35;
#X connect 38 0 45 36;
#X connect 39 0 45 37;
#X connect 40 0 45 38;
#X connect 41 0 45 39;
#X connect 42 0 45 40;
#X connect 43 0 45 41;
#X connect 44 0 45 42;
#X connect 45 0 46 0;
#X connect 46 0 1 0;
#X restore 448 60 pd makePreset;
#X obj 448 34 bng 15 250 50 0 empty \$0-pressave empty 0 -6 0 10 -262144
-1 -1;
#X msg 565 90 preset.name 0.0762699 0.581709 500 1 1 1 1 0 1 0 0 1
0.994 0.741011 0.279741 0.251189 0.01 0.251189 15000 4054.78 4054.78
79.3701 458.041 738.784 0.684615 0.769231 0.615385 1.03704 0.666667
0 0.275723 0.657692 0.1 0.3 0.636199 0.695027 1 1 1 1 1 2;
#N canvas 568 51 679 710 presetDispenser 0;
#X obj 136 57 sel 0 1 2 3 4 5 6 7;
#X obj 138 677 outlet;
#X obj 136 28 r \$0-presnum;
#X msg 201 372;
#X msg 249 601;
#X obj 45 73 spigot;
#X obj 84 52 == 0;
#X obj 46 135 spigot;
#X obj 85 114 == 1;
#X obj 49 205 spigot;
#X obj 88 184 == 2;
#X obj 51 282 spigot;
#X obj 90 261 == 3;
#X obj 52 355 spigot;
#X obj 91 334 == 4;
#X obj 53 428 spigot;
#X obj 92 407 == 5;
#X obj 52 506 spigot;
#X obj 91 485 == 6;
#X obj 53 584 spigot;
#X obj 92 563 == 7;
#X obj 10 28 inlet;
#X msg 1058 350 ETHER 1 0.508022 500 0 1 1 1 0 1 0 0 1 1 0.741011 0.279741
0.01 0.01 1 15000 4054.78 4054.78 79.3701 22.1831 18.9155 0.684615
0.769231 0.615385 1.03704 0.666667 0 0.275723 0.657692 0.1 0.466835
0.636199 0.695027 1 1 1 1 1 2;
#X msg 152 152 ETHER 1 0.508022 500 0 1 1 1 0 1 0 0 1 1 0.741011 0.279741
0.01 0.01 1 15000 4054.78 4054.78 79.3701 22.1831 18.9155 0.684615
0.769231 0.615385 1.03704 0.666667 0 0.275723 0.657692 0.1 0.466835
0.636199 0.695027 1 1 1 1 1 2;
#X msg 136 90 INITIAL 1 1 194.004 1 0 0 0 0 0 0 0 0 1 1 1 1 1 1 15000
15000 15000 10 10 10 0.307692 0 0 0 0 0 0.1 0.1 0.1 0.3 0.3 0.3 1 0
0 2 2 2;
#X msg 184 299;
#X msg 217 446;
#X msg 233 523;
#X msg 168 222 TAPPER 0.0762699 0.581709 500 1 1 1 1 0 1 0 0 1 0.994
0.741011 0.279741 0.251189 0.01 0.251189 15000 4054.78 4054.78 79.3701
458.041 738.784 0.684615 0.769231 0.615385 1.03704 0.666667 0 0.275723
0.657692 0.1 0.3 0.636199 0.695027 1 1 1 1 1 2;
#X connect 0 0 24 0;
#X connect 0 1 23 0;
#X connect 0 2 28 0;
#X connect 0 3 25 0;
#X connect 0 4 3 0;
#X connect 0 5 26 0;
#X connect 0 6 27 0;
#X connect 0 7 4 0;
#X connect 2 0 0 0;
#X connect 2 0 6 0;
#X connect 2 0 8 0;
#X connect 2 0 10 0;
#X connect 2 0 12 0;
#X connect 2 0 14 0;
#X connect 2 0 16 0;
#X connect 2 0 18 0;
#X connect 2 0 20 0;
#X connect 3 0 1 0;
#X connect 4 0 1 0;
#X connect 5 0 24 0;
#X connect 6 0 5 1;
#X connect 7 0 23 0;
#X connect 8 0 7 1;
#X connect 9 0 28 0;
#X connect 10 0 9 1;
#X connect 11 0 25 0;
#X connect 12 0 11 1;
#X connect 13 0 3 0;
#X connect 14 0 13 1;
#X connect 15 0 26 0;
#X connect 16 0 15 1;
#X connect 17 0 27 0;
#X connect 18 0 17 1;
#X connect 19 0 4 0;
#X connect 20 0 19 1;
#X connect 21 0 5 0;
#X connect 21 0 7 0;
#X connect 21 0 9 0;
#X connect 21 0 11 0;
#X connect 21 0 13 0;
#X connect 21 0 15 0;
#X connect 21 0 17 0;
#X connect 21 0 19 0;
#X connect 23 0 1 0;
#X connect 24 0 1 0;
#X connect 25 0 1 0;
#X connect 26 0 1 0;
#X connect 27 0 1 0;
#X connect 28 0 1 0;
#X restore 448 203 pd presetDispenser;
#N canvas 72 50 1211 700 loadPreset 0;
#X obj 45 42 inlet message;
#X msg 45 636 label \$1;
#X obj 60 593 s \$0-dryp;
#X obj 75 574 s \$0-wetp;
#X obj 90 555 s \$0-dlyp;
#X obj 105 536 s \$0-11p;
#X obj 121 517 s \$0-12p;
#X obj 136 498 s \$0-13p;
#X obj 151 479 s \$0-21p;
#X obj 166 460 s \$0-22p;
#X obj 181 441 s \$0-23p;
#X obj 197 422 s \$0-31p;
#X obj 212 403 s \$0-32p;
#X obj 227 384 s \$0-33p;
#X obj 242 365 s \$0-d1p;
#X obj 257 346 s \$0-d2p;
#X obj 273 327 s \$0-d3p;
#X obj 288 308 s \$0-v1p;
#X obj 303 289 s \$0-v2p;
#X obj 318 270 s \$0-v3p;
#X obj 333 251 s \$0-h1p;
#X obj 349 232 s \$0-h2p;
#X obj 364 213 s \$0-h3p;
#X obj 379 194 s \$0-l1p;
#X obj 394 175 s \$0-l2p;
#X obj 409 156 s \$0-l3p;
#X obj 425 137 s \$0-f1p;
#X obj 440 118 s \$0-f2p;
#X obj 455 99 s \$0-f3p;
#X obj 470 394 s \$0-m1p;
#X obj 485 374 s \$0-m2p;
#X obj 501 354 s \$0-m3p;
#X obj 516 334 s \$0-s1p;
#X obj 531 315 s \$0-s2p;
#X obj 546 296 s \$0-s3p;
#X obj 561 276 s \$0-r1p;
#X obj 577 257 s \$0-r2p;
#X obj 592 238 s \$0-r3p;
#X obj 607 219 s \$0-sw1p;
#X obj 622 200 s \$0-sw2p;
#X obj 637 181 s \$0-sw3p;
#X obj 653 162 s \$0-rp1p;
#X obj 668 143 s \$0-rp2p;
#X obj 683 124 s \$0-rp3p;
#X obj 45 678 s \$0-presname;
#X obj 45 65 unpack s f f f f f f f f f f f f f f f f f f f f f f f
f f f f f f f f f f f f f f f f f f f, f 96;
#X connect 0 0 45 0;
#X connect 1 0 44 0;
#X connect 45 0 1 0;
#X connect 45 1 2 0;
#X connect 45 2 3 0;
#X connect 45 3 4 0;
#X connect 45 4 5 0;
#X connect 45 5 6 0;
#X connect 45 6 7 0;
#X connect 45 7 8 0;
#X connect 45 8 9 0;
#X connect 45 9 10 0;
#X connect 45 10 11 0;
#X connect 45 11 12 0;
#X connect 45 12 13 0;
#X connect 45 13 14 0;
#X connect 45 14 15 0;
#X connect 45 15 16 0;
#X connect 45 16 17 0;
#X connect 45 17 18 0;
#X connect 45 18 19 0;
#X connect 45 19 20 0;
#X connect 45 20 21 0;
#X connect 45 21 22 0;
#X connect 45 22 23 0;
#X connect 45 23 24 0;
#X connect 45 24 25 0;
#X connect 45 25 26 0;
#X connect 45 26 27 0;
#X connect 45 27 28 0;
#X connect 45 28 29 0;
#X connect 45 29 30 0;
#X connect 45 30 31 0;
#X connect 45 31 32 0;
#X connect 45 32 33 0;
#X connect 45 33 34 0;
#X connect 45 34 35 0;
#X connect 45 35 36 0;
#X connect 45 36 37 0;
#X connect 45 37 38 0;
#X connect 45 38 39 0;
#X connect 45 39 40 0;
#X connect 45 40 41 0;
#X connect 45 41 42 0;
#X connect 45 42 43 0;
#X restore 448 243 pd loadPreset;
#X obj 39 37 loadbang;
#X obj 39 85 s \$0-presnump;
#X msg 39 61 0;
#X obj 448 172 spigot;
#X obj 487 131 r \$0-SW;
#X obj 487 151 == 0;
#X obj 39 118 s \$0-bypp;
#X obj 40 155 s \$0-swp;
#X obj 406 338 outlet;
#X obj 576 28 inlet;
#X connect 45 0 47 0;
#X connect 45 0 53 0;
#X connect 45 0 58 0;
#X connect 46 0 45 0;
#X connect 48 0 49 0;
#X connect 50 0 52 0;
#X connect 52 0 51 0;
#X connect 52 0 56 0;
#X connect 52 0 57 0;
#X connect 53 0 48 0;
#X connect 54 0 55 0;
#X connect 55 0 53 1;
#X connect 59 0 49 0;
#X restore 768 105 pd PRESET;
#X obj 378 121 vradio 13 1 0 8 \$0-presnum \$0-presnump empty 0 -8
0 10 -66577 -257985 -1 0;
#X obj 378 104 bng 13 250 50 0 \$0-pressave \$0-bar empty 5 8 0 10
-66577 -257985 -262144;
#X obj 769 77 inlet;
#X obj 794 537 outlet;
#X text 116 293 bypass 1 channel reverb dry signal;
#X text 187 312 improve reverb algorithm;
#X connect 44 0 46 0;
#X connect 44 0 51 0;
#X connect 44 0 55 0;
#X connect 46 0 55 1;
#X connect 47 0 46 1;
#X connect 50 0 53 0;
#X connect 51 0 50 0;
#X connect 52 0 51 1;
#X connect 53 0 45 0;
#X connect 54 0 53 1;
#X connect 55 0 45 0;
#X connect 56 0 55 2;
#X connect 69 0 73 0;
#X connect 72 0 69 0;
#X coords 0 -1 1 1 300 130 2 100 100;
