#N canvas 111 50 1169 622 10;
#X declare -path moonlib;
#X obj 93 521 r \$0-foo;
#X obj 92 566 s \$0-bar;
#X obj 614 73 inlet~;
#X obj 704 541 outlet~;
#N canvas 234 50 1018 710 DELAY 0;
#X obj 479 6 inlet~;
#X obj 474 625 outlet~;
#X obj 907 58 switch~;
#N canvas 524 91 515 600 DELAY-1 0;
#X obj 168 19 inlet~;
#X obj 168 518 outlet~;
#X obj 168 405 delread4~ \$0-delay1;
#X obj 201 221 r \$0-D1;
#X obj 186 193 r \$0-DLY;
#X obj 186 272 *;
#X obj 201 245 t b f;
#X obj 168 121 osc~;
#X obj 168 94 r \$0-S1;
#X obj 168 168 *~;
#X obj 168 372 +~;
#X obj 186 145 r \$0-M1;
#X obj 167 457 lop~;
#X obj 167 480 hip~;
#X obj 208 440 r \$0-H1;
#X obj 208 463 r \$0-L1;
#X obj 186 351 line~;
#N canvas 429 181 459 485 TAP 0;
#X obj 295 226 i;
#X obj 326 227 + 1;
#X obj 295 163 metro 1;
#X msg 265 209 0;
#X msg 295 140 0;
#X obj 215 201 +;
#X msg 206 168 0;
#X obj 327 192 t b b;
#X msg 246 168 0;
#X obj 209 270 moses 2;
#X obj 181 98 delay 5000;
#X obj 247 348 outlet;
#X obj 241 20 r \$0-TS1;
#X connect 0 0 1 0;
#X connect 0 0 5 1;
#X connect 1 0 0 1;
#X connect 2 0 0 0;
#X connect 3 0 0 0;
#X connect 4 0 2 0;
#X connect 5 0 9 0;
#X connect 6 0 5 0;
#X connect 7 0 3 0;
#X connect 7 1 6 0;
#X connect 8 0 5 1;
#X connect 9 1 11 0;
#X connect 10 0 4 0;
#X connect 10 0 8 0;
#X connect 10 0 3 0;
#X connect 12 0 2 0;
#X connect 12 0 7 0;
#X connect 12 0 10 0;
#X restore 281 190 pd TAP;
#X msg 186 326 \$1 100;
#X obj 281 221 /;
#X obj 167 61 delwrite~ \$0-delay1 10000;
#X obj 186 299 min 10000;
#X obj 234 23 catch~ \$0-f1;
#X obj 281 245 s \$0-d1p;
#X obj 45 326 metro;
#X obj 45 250 loadbang;
#X msg 84 373 2;
#X msg 46 399 color \$1;
#X msg 46 373 21;
#X obj 45 273 del 100;
#X obj 46 421 s \$0-ts1p;
#X obj 84 349 del 80;
#X connect 0 0 20 0;
#X connect 2 0 12 0;
#X connect 3 0 6 0;
#X connect 4 0 5 0;
#X connect 4 0 19 1;
#X connect 5 0 21 0;
#X connect 6 0 5 0;
#X connect 6 1 5 1;
#X connect 7 0 9 0;
#X connect 8 0 7 0;
#X connect 9 0 10 0;
#X connect 10 0 2 0;
#X connect 11 0 9 1;
#X connect 12 0 13 0;
#X connect 13 0 1 0;
#X connect 14 0 12 1;
#X connect 15 0 13 1;
#X connect 16 0 10 1;
#X connect 17 0 19 0;
#X connect 18 0 16 0;
#X connect 19 0 23 0;
#X connect 21 0 18 0;
#X connect 21 0 24 1;
#X connect 22 0 20 0;
#X connect 24 0 28 0;
#X connect 24 0 31 0;
#X connect 25 0 29 0;
#X connect 26 0 27 0;
#X connect 27 0 30 0;
#X connect 28 0 27 0;
#X connect 29 0 24 0;
#X connect 31 0 26 0;
#X restore 83 187 pd DELAY-1;
#N canvas 204 95 535 560 DELAY-2 0;
#X obj 193 21 inlet~;
#X obj 193 519 outlet~;
#X obj 193 122 osc~;
#X obj 193 169 *~;
#X obj 193 373 +~;
#X obj 192 458 lop~;
#X obj 192 481 hip~;
#X obj 193 95 r \$0-S2;
#X obj 211 146 r \$0-M2;
#X obj 233 441 r \$0-H2;
#X obj 193 406 delread4~ \$0-delay2;
#X obj 233 464 r \$0-L2;
#X obj 211 195 r \$0-DLY;
#X obj 211 274 *;
#X obj 226 247 t b f;
#X obj 211 352 line~;
#X obj 226 223 r \$0-D2;
#N canvas 429 181 485 485 TAP 0;
#X obj 295 226 i;
#X obj 326 227 + 1;
#X obj 295 163 metro 1;
#X msg 265 209 0;
#X msg 295 140 0;
#X obj 215 201 +;
#X msg 206 168 0;
#X obj 327 192 t b b;
#X msg 246 168 0;
#X obj 209 270 moses 2;
#X obj 181 98 delay 5000;
#X obj 255 346 outlet;
#X obj 241 20 r \$0-TS2;
#X connect 0 0 1 0;
#X connect 0 0 5 1;
#X connect 1 0 0 1;
#X connect 2 0 0 0;
#X connect 3 0 0 0;
#X connect 4 0 2 0;
#X connect 5 0 9 0;
#X connect 6 0 5 0;
#X connect 7 0 3 0;
#X connect 7 1 6 0;
#X connect 8 0 5 1;
#X connect 9 1 11 0;
#X connect 10 0 4 0;
#X connect 10 0 8 0;
#X connect 10 0 3 0;
#X connect 12 0 2 0;
#X connect 12 0 7 0;
#X connect 12 0 10 0;
#X restore 310 202 pd TAP;
#X msg 211 327 \$1 100;
#X obj 310 227 /;
#X obj 192 63 delwrite~ \$0-delay2 10000;
#X obj 211 301 min 10000;
#X obj 267 20 catch~ \$0-f2;
#X obj 310 247 s \$0-d2p;
#X obj 45 326 metro;
#X obj 45 250 loadbang;
#X msg 84 373 2;
#X msg 46 399 color \$1;
#X msg 46 373 21;
#X obj 45 273 del 100;
#X obj 46 421 s \$0-ts2p;
#X obj 84 349 del 80;
#X connect 0 0 20 0;
#X connect 2 0 3 0;
#X connect 3 0 4 0;
#X connect 4 0 10 0;
#X connect 5 0 6 0;
#X connect 6 0 1 0;
#X connect 7 0 2 0;
#X connect 8 0 3 1;
#X connect 9 0 5 1;
#X connect 10 0 5 0;
#X connect 11 0 6 1;
#X connect 12 0 13 0;
#X connect 12 0 19 1;
#X connect 13 0 21 0;
#X connect 14 0 13 0;
#X connect 14 1 13 1;
#X connect 15 0 4 1;
#X connect 16 0 14 0;
#X connect 17 0 19 0;
#X connect 18 0 15 0;
#X connect 19 0 23 0;
#X connect 21 0 18 0;
#X connect 21 0 24 1;
#X connect 22 0 20 0;
#X connect 24 0 28 0;
#X connect 24 0 31 0;
#X connect 25 0 29 0;
#X connect 26 0 27 0;
#X connect 27 0 30 0;
#X connect 28 0 27 0;
#X connect 29 0 24 0;
#X connect 31 0 26 0;
#X restore 428 187 pd DELAY-2;
#N canvas 140 50 509 558 DELAY-3 0;
#X obj 191 21 inlet~;
#X obj 191 517 outlet~;
#X obj 191 123 osc~;
#X obj 191 170 *~;
#X obj 191 371 +~;
#X obj 190 456 lop~;
#X obj 190 479 hip~;
#X obj 191 96 r \$0-S3;
#X obj 209 147 r \$0-M3;
#X obj 191 404 delread4~ \$0-delay3;
#X obj 231 439 r \$0-H3;
#X obj 231 462 r \$0-L3;
#X obj 209 195 r \$0-DLY;
#X obj 209 274 *;
#X obj 224 247 t b f;
#X obj 209 350 line~;
#N canvas 429 181 483 485 TAP 0;
#X obj 295 226 i;
#X obj 326 227 + 1;
#X obj 295 163 metro 1;
#X msg 265 209 0;
#X msg 295 140 0;
#X obj 215 201 +;
#X msg 206 168 0;
#X obj 327 192 t b b;
#X msg 246 168 0;
#X obj 209 270 moses 2;
#X obj 181 98 delay 5000;
#X obj 255 336 outlet;
#X obj 241 20 r \$0-TS3;
#X connect 0 0 1 0;
#X connect 0 0 5 1;
#X connect 1 0 0 1;
#X connect 2 0 0 0;
#X connect 3 0 0 0;
#X connect 4 0 2 0;
#X connect 5 0 9 0;
#X connect 6 0 5 0;
#X connect 7 0 3 0;
#X connect 7 1 6 0;
#X connect 8 0 5 1;
#X connect 9 1 11 0;
#X connect 10 0 4 0;
#X connect 10 0 8 0;
#X connect 10 0 3 0;
#X connect 12 0 2 0;
#X connect 12 0 7 0;
#X connect 12 0 10 0;
#X restore 308 196 pd TAP;
#X obj 224 223 r \$0-D3;
#X msg 209 325 \$1 100;
#X obj 308 221 /;
#X obj 190 63 delwrite~ \$0-delay3 10000;
#X obj 209 301 min 10000;
#X obj 259 22 catch~ \$0-f3;
#X obj 308 246 s \$0-d3p;
#X obj 45 326 metro;
#X obj 45 250 loadbang;
#X msg 84 373 2;
#X msg 46 399 color \$1;
#X msg 46 373 21;
#X obj 45 273 del 100;
#X obj 46 421 s \$0-ts3p;
#X obj 84 349 del 80;
#X connect 0 0 20 0;
#X connect 2 0 3 0;
#X connect 3 0 4 0;
#X connect 4 0 9 0;
#X connect 5 0 6 0;
#X connect 6 0 1 0;
#X connect 7 0 2 0;
#X connect 8 0 3 1;
#X connect 9 0 5 0;
#X connect 10 0 5 1;
#X connect 11 0 6 1;
#X connect 12 0 13 0;
#X connect 12 0 19 1;
#X connect 13 0 21 0;
#X connect 14 0 13 0;
#X connect 14 1 13 1;
#X connect 15 0 4 1;
#X connect 16 0 19 0;
#X connect 17 0 14 0;
#X connect 18 0 15 0;
#X connect 19 0 23 0;
#X connect 21 0 18 0;
#X connect 21 0 24 1;
#X connect 22 0 20 0;
#X connect 24 0 28 0;
#X connect 24 0 31 0;
#X connect 25 0 29 0;
#X connect 26 0 27 0;
#X connect 27 0 30 0;
#X connect 28 0 27 0;
#X connect 29 0 24 0;
#X connect 31 0 26 0;
#X restore 753 180 pd DELAY-3;
#N canvas 464 112 423 565 REVERB-1 0;
#X obj 187 123 r \$0-R1;
#X obj 89 159 inlet~;
#X obj 89 499 outlet~;
#N canvas 349 170 450 300 BYPASS 0;
#X obj 161 77 inlet~;
#X obj 167 247 outlet~;
#X obj 190 130 == 0;
#X obj 246 81 inlet~;
#X obj 268 132 == 1;
#X obj 372 79 inlet;
#X obj 166 168 *~;
#X obj 231 166 *~;
#X connect 0 0 6 0;
#X connect 2 0 6 1;
#X connect 3 0 7 0;
#X connect 4 0 7 1;
#X connect 5 0 2 0;
#X connect 5 0 4 0;
#X connect 6 0 1 0;
#X connect 7 0 1 0;
#X restore 88 459 pd BYPASS;
#X obj 119 317 rev1~;
#X obj 148 436 > 0;
#X obj 135 279 * 100;
#X obj 119 364 *~ 0.4;
#X connect 0 0 5 0;
#X connect 0 0 6 0;
#X connect 1 0 3 0;
#X connect 1 0 4 0;
#X connect 3 0 2 0;
#X connect 4 0 7 0;
#X connect 5 0 3 2;
#X connect 6 0 4 1;
#X connect 7 0 3 1;
#X restore 145 288 pd REVERB-1;
#N canvas 114 51 438 516 REVERB-2 0;
#X obj 109 109 inlet~;
#X obj 109 449 outlet~;
#N canvas 349 170 450 300 BYPASS 0;
#X obj 161 77 inlet~;
#X obj 167 247 outlet~;
#X obj 190 130 == 0;
#X obj 246 81 inlet~;
#X obj 268 132 == 1;
#X obj 372 79 inlet;
#X obj 166 168 *~;
#X obj 231 166 *~;
#X connect 0 0 6 0;
#X connect 2 0 6 1;
#X connect 3 0 7 0;
#X connect 4 0 7 1;
#X connect 5 0 2 0;
#X connect 5 0 4 0;
#X connect 6 0 1 0;
#X connect 7 0 1 0;
#X restore 108 409 pd BYPASS;
#X obj 139 267 rev1~;
#X obj 168 386 > 0;
#X obj 155 229 * 100;
#X obj 207 73 r \$0-R2;
#X obj 138 339 *~ 0.4;
#X connect 0 0 2 0;
#X connect 0 0 3 0;
#X connect 2 0 1 0;
#X connect 3 0 7 0;
#X connect 4 0 2 2;
#X connect 5 0 3 1;
#X connect 6 0 4 0;
#X connect 6 0 5 0;
#X connect 7 0 2 1;
#X restore 490 296 pd REVERB-2;
#N canvas 114 51 422 429 REVERB-3 0;
#X obj 104 52 inlet~;
#X obj 104 392 outlet~;
#N canvas 349 170 450 300 BYPASS 0;
#X obj 161 77 inlet~;
#X obj 167 247 outlet~;
#X obj 190 130 == 0;
#X obj 246 81 inlet~;
#X obj 268 132 == 1;
#X obj 372 79 inlet;
#X obj 166 168 *~;
#X obj 231 166 *~;
#X connect 0 0 6 0;
#X connect 2 0 6 1;
#X connect 3 0 7 0;
#X connect 4 0 7 1;
#X connect 5 0 2 0;
#X connect 5 0 4 0;
#X connect 6 0 1 0;
#X connect 7 0 1 0;
#X restore 103 352 pd BYPASS;
#X obj 134 210 rev1~;
#X obj 163 329 > 0;
#X obj 150 172 * 100;
#X obj 202 16 r \$0-R3;
#X obj 133 270 *~ 0.4;
#X connect 0 0 2 0;
#X connect 0 0 3 0;
#X connect 2 0 1 0;
#X connect 3 0 7 0;
#X connect 4 0 2 2;
#X connect 5 0 3 1;
#X connect 6 0 4 0;
#X connect 6 0 5 0;
#X connect 7 0 2 1;
#X restore 820 290 pd REVERB-3;
#N canvas 185 144 450 300 MULT 0;
#X obj 162 137 *~;
#X msg 180 95 \$1 50;
#X obj 180 114 line~;
#X obj 162 44 inlet~;
#X obj 163 181 outlet~;
#X obj 217 44 inlet;
#X connect 0 0 4 0;
#X connect 1 0 2 0;
#X connect 2 0 0 1;
#X connect 3 0 0 0;
#X connect 5 0 1 0;
#X restore 83 481 pd MULT;
#X obj 129 456 r \$0-V1;
#N canvas 492 399 450 300 FB-1 0;
#N canvas 185 144 450 300 MULT 0;
#X obj 162 137 *~;
#X msg 180 95 \$1 50;
#X obj 180 114 line~;
#X obj 162 44 inlet~;
#X obj 163 181 outlet~;
#X obj 217 44 inlet;
#X connect 0 0 4 0;
#X connect 1 0 2 0;
#X connect 2 0 0 1;
#X connect 3 0 0 0;
#X connect 5 0 1 0;
#X restore 147 133 pd MULT;
#X obj 145 75 inlet~;
#X obj 193 108 r \$0-F1;
#N canvas 185 144 450 300 MULT 0;
#X obj 162 137 *~;
#X msg 180 95 \$1 50;
#X obj 180 114 line~;
#X obj 162 44 inlet~;
#X obj 163 181 outlet~;
#X obj 217 44 inlet;
#X connect 0 0 4 0;
#X connect 1 0 2 0;
#X connect 2 0 0 1;
#X connect 3 0 0 0;
#X connect 5 0 1 0;
#X restore 83 212 pd MULT;
#X obj 129 187 r \$0-11;
#N canvas 185 144 450 300 MULT 0;
#X obj 162 137 *~;
#X msg 180 95 \$1 50;
#X obj 180 114 line~;
#X obj 162 44 inlet~;
#X obj 163 181 outlet~;
#X obj 217 44 inlet;
#X connect 0 0 4 0;
#X connect 1 0 2 0;
#X connect 2 0 0 1;
#X connect 3 0 0 0;
#X connect 5 0 1 0;
#X restore 175 213 pd MULT;
#N canvas 185 144 450 300 MULT 0;
#X obj 162 137 *~;
#X msg 180 95 \$1 50;
#X obj 180 114 line~;
#X obj 162 44 inlet~;
#X obj 163 181 outlet~;
#X obj 217 44 inlet;
#X connect 0 0 4 0;
#X connect 1 0 2 0;
#X connect 2 0 0 1;
#X connect 3 0 0 0;
#X connect 5 0 1 0;
#X restore 265 216 pd MULT;
#X obj 221 188 r \$0-12;
#X obj 311 191 r \$0-13;
#X obj 83 243 throw~ \$0-f1;
#X obj 187 246 throw~ \$0-f2;
#X obj 296 246 throw~ \$0-f3;
#X connect 0 0 3 0;
#X connect 0 0 5 0;
#X connect 0 0 6 0;
#X connect 1 0 0 0;
#X connect 2 0 0 1;
#X connect 3 0 9 0;
#X connect 4 0 3 1;
#X connect 5 0 10 0;
#X connect 6 0 11 0;
#X connect 7 0 5 1;
#X connect 8 0 6 1;
#X restore 227 438 pd FB-1;
#N canvas 900 255 450 300 FB-2 0;
#N canvas 185 144 450 300 MULT 0;
#X obj 162 137 *~;
#X msg 180 95 \$1 50;
#X obj 180 114 line~;
#X obj 162 44 inlet~;
#X obj 163 181 outlet~;
#X obj 217 44 inlet;
#X connect 0 0 4 0;
#X connect 1 0 2 0;
#X connect 2 0 0 1;
#X connect 3 0 0 0;
#X connect 5 0 1 0;
#X restore 147 133 pd MULT;
#X obj 145 75 inlet~;
#N canvas 185 144 450 300 MULT 0;
#X obj 162 137 *~;
#X msg 180 95 \$1 50;
#X obj 180 114 line~;
#X obj 162 44 inlet~;
#X obj 163 181 outlet~;
#X obj 217 44 inlet;
#X connect 0 0 4 0;
#X connect 1 0 2 0;
#X connect 2 0 0 1;
#X connect 3 0 0 0;
#X connect 5 0 1 0;
#X restore 83 212 pd MULT;
#N canvas 185 144 450 300 MULT 0;
#X obj 162 137 *~;
#X msg 180 95 \$1 50;
#X obj 180 114 line~;
#X obj 162 44 inlet~;
#X obj 163 181 outlet~;
#X obj 217 44 inlet;
#X connect 0 0 4 0;
#X connect 1 0 2 0;
#X connect 2 0 0 1;
#X connect 3 0 0 0;
#X connect 5 0 1 0;
#X restore 175 213 pd MULT;
#N canvas 185 144 450 300 MULT 0;
#X obj 162 137 *~;
#X msg 180 95 \$1 50;
#X obj 180 114 line~;
#X obj 162 44 inlet~;
#X obj 163 181 outlet~;
#X obj 217 44 inlet;
#X connect 0 0 4 0;
#X connect 1 0 2 0;
#X connect 2 0 0 1;
#X connect 3 0 0 0;
#X connect 5 0 1 0;
#X restore 265 216 pd MULT;
#X obj 83 243 throw~ \$0-f1;
#X obj 187 246 throw~ \$0-f2;
#X obj 296 246 throw~ \$0-f3;
#X obj 193 108 r \$0-F2;
#X obj 129 187 r \$0-21;
#X obj 221 188 r \$0-22;
#X obj 311 191 r \$0-23;
#X connect 0 0 2 0;
#X connect 0 0 3 0;
#X connect 0 0 4 0;
#X connect 1 0 0 0;
#X connect 2 0 5 0;
#X connect 3 0 6 0;
#X connect 4 0 7 0;
#X connect 8 0 0 1;
#X connect 9 0 2 1;
#X connect 10 0 3 1;
#X connect 11 0 4 1;
#X restore 585 425 pd FB-2;
#N canvas 551 263 450 300 FB-3 0;
#N canvas 185 144 450 300 MULT 0;
#X obj 162 137 *~;
#X msg 180 95 \$1 50;
#X obj 180 114 line~;
#X obj 162 44 inlet~;
#X obj 163 181 outlet~;
#X obj 217 44 inlet;
#X connect 0 0 4 0;
#X connect 1 0 2 0;
#X connect 2 0 0 1;
#X connect 3 0 0 0;
#X connect 5 0 1 0;
#X restore 147 133 pd MULT;
#X obj 145 75 inlet~;
#N canvas 185 144 450 300 MULT 0;
#X obj 162 137 *~;
#X msg 180 95 \$1 50;
#X obj 180 114 line~;
#X obj 162 44 inlet~;
#X obj 163 181 outlet~;
#X obj 217 44 inlet;
#X connect 0 0 4 0;
#X connect 1 0 2 0;
#X connect 2 0 0 1;
#X connect 3 0 0 0;
#X connect 5 0 1 0;
#X restore 83 212 pd MULT;
#N canvas 185 144 450 300 MULT 0;
#X obj 162 137 *~;
#X msg 180 95 \$1 50;
#X obj 180 114 line~;
#X obj 162 44 inlet~;
#X obj 163 181 outlet~;
#X obj 217 44 inlet;
#X connect 0 0 4 0;
#X connect 1 0 2 0;
#X connect 2 0 0 1;
#X connect 3 0 0 0;
#X connect 5 0 1 0;
#X restore 175 213 pd MULT;
#N canvas 185 144 450 300 MULT 0;
#X obj 162 137 *~;
#X msg 180 95 \$1 50;
#X obj 180 114 line~;
#X obj 162 44 inlet~;
#X obj 163 181 outlet~;
#X obj 217 44 inlet;
#X connect 0 0 4 0;
#X connect 1 0 2 0;
#X connect 2 0 0 1;
#X connect 3 0 0 0;
#X connect 5 0 1 0;
#X restore 265 216 pd MULT;
#X obj 83 243 throw~ \$0-f1;
#X obj 187 246 throw~ \$0-f2;
#X obj 296 246 throw~ \$0-f3;
#X obj 193 108 r \$0-F3;
#X obj 129 187 r \$0-31;
#X obj 221 188 r \$0-32;
#X obj 311 191 r \$0-33;
#X connect 0 0 2 0;
#X connect 0 0 3 0;
#X connect 0 0 4 0;
#X connect 1 0 0 0;
#X connect 2 0 5 0;
#X connect 3 0 6 0;
#X connect 4 0 7 0;
#X connect 8 0 0 1;
#X connect 9 0 2 1;
#X connect 10 0 3 1;
#X connect 11 0 4 1;
#X restore 905 418 pd FB-3;
#N canvas 185 144 450 300 MULT 0;
#X obj 162 137 *~;
#X msg 180 95 \$1 50;
#X obj 180 114 line~;
#X obj 162 44 inlet~;
#X obj 163 181 outlet~;
#X obj 217 44 inlet;
#X connect 0 0 4 0;
#X connect 1 0 2 0;
#X connect 2 0 0 1;
#X connect 3 0 0 0;
#X connect 5 0 1 0;
#X restore 437 482 pd MULT;
#X obj 483 456 r \$0-V2;
#N canvas 185 144 450 300 MULT 0;
#X obj 162 137 *~;
#X msg 180 95 \$1 50;
#X obj 180 114 line~;
#X obj 162 44 inlet~;
#X obj 163 181 outlet~;
#X obj 217 44 inlet;
#X connect 0 0 4 0;
#X connect 1 0 2 0;
#X connect 2 0 0 1;
#X connect 3 0 0 0;
#X connect 5 0 1 0;
#X restore 788 475 pd MULT;
#X obj 834 449 r \$0-V3;
#X obj 907 33 r \$0-SW;
#X obj 219 145 r \$0-RP1;
#X obj 164 260 *~;
#X obj 194 243 == 0;
#X obj 128 345 *~;
#X obj 146 322 == 0;
#X obj 246 264 *~;
#X obj 276 247 != 1;
#X obj 83 158 *~;
#X obj 117 141 != 0;
#N canvas 185 144 450 300 MULT 0;
#X obj 162 137 *~;
#X msg 180 95 \$1 50;
#X obj 180 114 line~;
#X obj 162 44 inlet~;
#X obj 163 181 outlet~;
#X obj 217 44 inlet;
#X connect 0 0 4 0;
#X connect 1 0 2 0;
#X connect 2 0 0 1;
#X connect 3 0 0 0;
#X connect 5 0 1 0;
#X restore 172 67 pd MULT;
#X obj 218 42 r \$0-SW1;
#N canvas 185 144 450 300 MULT 0;
#X obj 162 137 *~;
#X msg 180 95 \$1 50;
#X obj 180 114 line~;
#X obj 162 44 inlet~;
#X obj 163 181 outlet~;
#X obj 217 44 inlet;
#X connect 0 0 4 0;
#X connect 1 0 2 0;
#X connect 2 0 0 1;
#X connect 3 0 0 0;
#X connect 5 0 1 0;
#X restore 479 87 pd MULT;
#X obj 525 62 r \$0-SW2;
#N canvas 185 144 450 300 MULT 0;
#X obj 162 137 *~;
#X msg 180 95 \$1 50;
#X obj 180 114 line~;
#X obj 162 44 inlet~;
#X obj 163 181 outlet~;
#X obj 217 44 inlet;
#X connect 0 0 4 0;
#X connect 1 0 2 0;
#X connect 2 0 0 1;
#X connect 3 0 0 0;
#X connect 5 0 1 0;
#X restore 767 57 pd MULT;
#X obj 813 32 r \$0-SW3;
#X obj 45 368 *~;
#X obj 75 351 == 0;
#X obj 117 251 *~;
#X obj 171 396 *~;
#X obj 201 379 == 1;
#X obj 147 234 != 0;
#X obj 506 262 *~;
#X obj 536 245 == 0;
#X obj 470 347 *~;
#X obj 488 324 == 0;
#X obj 583 270 *~;
#X obj 613 253 != 1;
#X obj 425 160 *~;
#X obj 459 143 != 0;
#X obj 387 370 *~;
#X obj 417 353 == 0;
#X obj 459 253 *~;
#X obj 513 398 *~;
#X obj 543 381 == 1;
#X obj 489 236 != 0;
#X obj 560 147 r \$0-RP2;
#X obj 834 256 *~;
#X obj 864 239 == 0;
#X obj 798 341 *~;
#X obj 816 318 == 0;
#X obj 916 263 *~;
#X obj 946 246 != 1;
#X obj 753 154 *~;
#X obj 787 137 != 0;
#X obj 715 364 *~;
#X obj 745 347 == 0;
#X obj 787 247 *~;
#X obj 841 392 *~;
#X obj 871 375 == 1;
#X obj 817 230 != 0;
#X obj 892 137 r \$0-RP3;
#X obj 93 387 s~ \$0-1;
#X obj 443 395 s~ \$0-2;
#X obj 776 380 s~ \$0-3;
#X obj 36 114 r~ \$0-1;
#X obj 374 120 r~ \$0-2;
#X obj 698 117 r~ \$0-3;
#X connect 0 0 28 0;
#X connect 0 0 30 0;
#X connect 0 0 32 0;
#X connect 3 0 34 0;
#X connect 3 0 36 0;
#X connect 3 0 24 0;
#X connect 4 0 50 0;
#X connect 4 0 48 0;
#X connect 4 0 44 0;
#X connect 5 0 65 0;
#X connect 5 0 59 0;
#X connect 5 0 63 0;
#X connect 6 0 22 0;
#X connect 6 0 37 0;
#X connect 6 0 9 0;
#X connect 7 0 42 0;
#X connect 7 0 51 0;
#X connect 7 0 14 0;
#X connect 8 0 57 0;
#X connect 8 0 16 0;
#X connect 8 0 66 0;
#X connect 9 0 1 0;
#X connect 10 0 9 1;
#X connect 14 0 1 0;
#X connect 15 0 14 1;
#X connect 16 0 1 0;
#X connect 17 0 16 1;
#X connect 18 0 2 0;
#X connect 19 0 21 0;
#X connect 19 0 25 0;
#X connect 19 0 27 0;
#X connect 19 0 35 0;
#X connect 19 0 23 0;
#X connect 19 0 39 0;
#X connect 19 0 38 0;
#X connect 20 0 6 0;
#X connect 21 0 20 1;
#X connect 22 0 70 0;
#X connect 23 0 22 1;
#X connect 24 0 11 0;
#X connect 25 0 24 1;
#X connect 26 0 3 0;
#X connect 27 0 26 1;
#X connect 28 0 26 0;
#X connect 28 0 20 0;
#X connect 29 0 28 1;
#X connect 30 0 46 0;
#X connect 30 0 40 0;
#X connect 31 0 30 1;
#X connect 32 0 61 0;
#X connect 32 0 55 0;
#X connect 33 0 32 1;
#X connect 34 0 9 0;
#X connect 35 0 34 1;
#X connect 36 0 6 0;
#X connect 37 0 11 0;
#X connect 38 0 37 1;
#X connect 39 0 36 1;
#X connect 40 0 7 0;
#X connect 41 0 40 1;
#X connect 42 0 71 0;
#X connect 43 0 42 1;
#X connect 44 0 12 0;
#X connect 45 0 44 1;
#X connect 46 0 4 0;
#X connect 47 0 46 1;
#X connect 48 0 14 0;
#X connect 49 0 48 1;
#X connect 50 0 7 0;
#X connect 51 0 12 0;
#X connect 52 0 51 1;
#X connect 53 0 50 1;
#X connect 54 0 41 0;
#X connect 54 0 45 0;
#X connect 54 0 47 0;
#X connect 54 0 49 0;
#X connect 54 0 43 0;
#X connect 54 0 53 0;
#X connect 54 0 52 0;
#X connect 55 0 8 0;
#X connect 56 0 55 1;
#X connect 57 0 72 0;
#X connect 58 0 57 1;
#X connect 59 0 13 0;
#X connect 60 0 59 1;
#X connect 61 0 5 0;
#X connect 62 0 61 1;
#X connect 63 0 16 0;
#X connect 64 0 63 1;
#X connect 65 0 8 0;
#X connect 66 0 13 0;
#X connect 67 0 66 1;
#X connect 68 0 65 1;
#X connect 69 0 56 0;
#X connect 69 0 60 0;
#X connect 69 0 62 0;
#X connect 69 0 64 0;
#X connect 69 0 58 0;
#X connect 69 0 68 0;
#X connect 69 0 67 0;
#X connect 73 0 3 0;
#X connect 74 0 4 0;
#X connect 75 0 5 0;
#X restore 730 259 pd DELAY;
#X obj 703 228 *~;
#X obj 721 200 r \$0-BYP;
#N canvas 703 50 483 710 TAP 0;
#X obj 295 226 i;
#X obj 326 227 + 1;
#X obj 295 163 metro 1;
#X msg 265 209 0;
#X msg 295 140 0;
#X obj 215 201 +;
#X msg 206 168 0;
#X obj 327 192 t b b;
#X msg 246 168 0;
#X obj 209 270 moses 2;
#X obj 241 20 r \$0-MT;
#X obj 181 98 delay 2500;
#X obj 254 347 s \$0-dlyp;
#X obj 49 131 metro;
#X obj 49 55 loadbang;
#X obj 101 114 r \$0-DLY;
#X msg 88 178 2;
#X msg 50 204 color \$1;
#X obj 50 226 s \$0-mtp;
#X msg 50 178 21;
#X obj 49 78 del 100;
#X obj 88 154 del 80;
#X connect 0 0 1 0;
#X connect 0 0 5 1;
#X connect 1 0 0 1;
#X connect 2 0 0 0;
#X connect 3 0 0 0;
#X connect 4 0 2 0;
#X connect 5 0 9 0;
#X connect 6 0 5 0;
#X connect 7 0 3 0;
#X connect 7 1 6 0;
#X connect 8 0 5 1;
#X connect 9 1 12 0;
#X connect 10 0 2 0;
#X connect 10 0 7 0;
#X connect 10 0 11 0;
#X connect 11 0 4 0;
#X connect 11 0 8 0;
#X connect 11 0 3 0;
#X connect 13 0 19 0;
#X connect 13 0 21 0;
#X connect 14 0 20 0;
#X connect 15 0 13 1;
#X connect 16 0 17 0;
#X connect 17 0 18 0;
#X connect 19 0 17 0;
#X connect 20 0 13 0;
#X connect 21 0 16 0;
#X restore 906 197 pd TAP;
#N canvas 197 103 633 254 PRESET 0;
#N canvas 303 50 1027 700 makePreset 0;
#X obj 44 14 inlet bang;
#X obj 44 678 outlet message;
#X msg 44 36 preset.name;
#X obj 89 93 r \$0-DLY;
#X obj 105 112 r \$0-11;
#X obj 120 131 r \$0-12;
#X obj 135 150 r \$0-13;
#X obj 151 169 r \$0-21;
#X obj 166 188 r \$0-22;
#X obj 181 207 r \$0-23;
#X obj 197 226 r \$0-31;
#X obj 212 245 r \$0-32;
#X obj 227 264 r \$0-33;
#X obj 242 283 r \$0-D1;
#X obj 258 302 r \$0-D2;
#X obj 273 321 r \$0-D3;
#X obj 288 340 r \$0-V1;
#X obj 304 359 r \$0-V2;
#X obj 319 378 r \$0-V3;
#X obj 334 397 r \$0-H1;
#X obj 350 416 r \$0-H2;
#X obj 365 435 r \$0-H3;
#X obj 380 454 r \$0-L1;
#X obj 395 473 r \$0-L2;
#X obj 411 492 r \$0-L3;
#X obj 426 511 r \$0-F1;
#X obj 441 530 r \$0-F2;
#X obj 457 549 r \$0-F3;
#X obj 455 228 r \$0-M1;
#X obj 470 247 r \$0-M2;
#X obj 488 270 r \$0-M3;
#X obj 503 289 r \$0-S1;
#X obj 523 313 r \$0-S2;
#X obj 538 332 r \$0-S3;
#X obj 556 355 r \$0-R1;
#X obj 571 374 r \$0-R2;
#X obj 582 395 r \$0-R3;
#X obj 596 421 r \$0-SW1;
#X obj 616 445 r \$0-SW2;
#X obj 631 464 r \$0-SW3;
#X obj 649 487 r \$0-RP1;
#X obj 664 506 r \$0-RP2;
#X obj 675 527 r \$0-RP3;
#X msg 44 644 set \$1 \$2 \$3 \$4 \$5 \$6 \$7 \$8 \$9 \$10 \$11 \$12 \$13 \$14 \$15 \$16 \$17 \$18 \$19 \$20 \$21 \$22 \$23 \$24 \$25 \$26 \$27 \$28 \$29 \$30 \$31 \$32 \$33 \$34 \$35 \$36 \$37 \$38 \$39 \$40 \$41 \$42 \$43, f 114;
#X obj 74 74 r \$0-MIX;
#X obj 44 611 pack s 0 f f f f f f f f f f f f f f f f f f f f f f f f f f f f f f f f f f f f f f f f f, f 94;
#X connect 0 0 2 0;
#X connect 2 0 45 0;
#X connect 3 0 45 3;
#X connect 4 0 45 4;
#X connect 5 0 45 5;
#X connect 6 0 45 6;
#X connect 7 0 45 7;
#X connect 8 0 45 8;
#X connect 9 0 45 9;
#X connect 10 0 45 10;
#X connect 11 0 45 11;
#X connect 12 0 45 12;
#X connect 13 0 45 13;
#X connect 14 0 45 14;
#X connect 15 0 45 15;
#X connect 16 0 45 16;
#X connect 17 0 45 17;
#X connect 18 0 45 18;
#X connect 19 0 45 19;
#X connect 20 0 45 20;
#X connect 21 0 45 21;
#X connect 22 0 45 22;
#X connect 23 0 45 23;
#X connect 24 0 45 24;
#X connect 25 0 45 25;
#X connect 26 0 45 26;
#X connect 27 0 45 27;
#X connect 28 0 45 28;
#X connect 29 0 45 29;
#X connect 30 0 45 30;
#X connect 31 0 45 31;
#X connect 32 0 45 32;
#X connect 33 0 45 33;
#X connect 34 0 45 34;
#X connect 35 0 45 35;
#X connect 36 0 45 36;
#X connect 37 0 45 37;
#X connect 38 0 45 38;
#X connect 39 0 45 39;
#X connect 40 0 45 40;
#X connect 41 0 45 41;
#X connect 42 0 45 42;
#X connect 43 0 1 0;
#X connect 44 0 45 2;
#X connect 45 0 43 0;
#X restore 161 72 pd makePreset;
#X msg 161 167 preset.name 0 0.5 193.989 1 0 0 0 0 0 0 0 0 1 1 1 1 1 1 15000 15000 15000 10 10 10 0.307677 0 0 0 0 0 0.1 0.1 0.1 0 0 0 1 0 0 2 2 2;
#N canvas 528 50 679 710 presetDispenser 0;
#X obj 136 57 sel 0 1 2 3 4 5 6 7;
#X obj 138 677 outlet;
#X obj 136 28 r \$0-presnum;
#X msg 201 372;
#X msg 249 601;
#X msg 217 446;
#X msg 233 523;
#X msg 136 90 INIT 0 0.5 193.989 1 0 0 0 0 0 0 0 0 1 1 1 1 1 1 15000 15000 15000 10 10 10 0.307677 0 0 0 0 0 0.1 0.1 0.1 0 0 0 1 0 0 2 2 2;
#X msg 167 207 ETHEREAL 0 0.363636 326.368 1 0 0 1 1 1 0 0 1 2.89394 1.60606 0.583333 1.13131 1.75758 1.83838 15000 15000 15000 54.4606 54.4606 30.9544 0.69697 0.666667 0.646465 1.25253 0.282828 0 0.188183 5 0.1 0.424242 0.575758 0.727273 1 1 1 1 2 2;
#X msg 151 144 REVERB 0 0.333333 100 0 0 0 0 0 0 0 0 0 0.25 1 1 2 1 1 15000 15000 15000 10 10 10 0 0 0 0 0 0 0.1 0.1 0.1 0.383838 0 0 1 0 0 2 2 2;
#X msg 184 299 WABBLE 0 0.363636 326.368 1 1 0 0 1 1 0 0 1 2.89394 0.780303 0.628788 0 0 2 15000 4827.45 15000 54.4606 54.4606 381.254 0.69697 0.777778 0.858586 1.25253 0.282828 2 0.188183 5 0.811988 0.424242 0 0.232323 1 0 0 1 2 0;
#X connect 0 0 7 0;
#X connect 0 1 9 0;
#X connect 0 2 8 0;
#X connect 0 3 10 0;
#X connect 0 4 3 0;
#X connect 0 5 5 0;
#X connect 0 6 6 0;
#X connect 0 7 4 0;
#X connect 2 0 0 0;
#X connect 3 0 1 0;
#X connect 4 0 1 0;
#X connect 5 0 1 0;
#X connect 6 0 1 0;
#X connect 7 0 1 0;
#X connect 8 0 1 0;
#X connect 9 0 1 0;
#X connect 10 0 1 0;
#X restore 476 44 pd presetDispenser;
#N canvas 72 50 1211 700 loadPreset 0;
#X obj 45 42 inlet message;
#X msg 45 636 label \$1;
#X obj 90 555 s \$0-dlyp;
#X obj 105 536 s \$0-11p;
#X obj 121 517 s \$0-12p;
#X obj 136 498 s \$0-13p;
#X obj 151 479 s \$0-21p;
#X obj 166 460 s \$0-22p;
#X obj 181 441 s \$0-23p;
#X obj 197 422 s \$0-31p;
#X obj 212 403 s \$0-32p;
#X obj 227 384 s \$0-33p;
#X obj 242 365 s \$0-d1p;
#X obj 257 346 s \$0-d2p;
#X obj 273 327 s \$0-d3p;
#X obj 288 308 s \$0-v1p;
#X obj 303 289 s \$0-v2p;
#X obj 318 270 s \$0-v3p;
#X obj 333 251 s \$0-h1p;
#X obj 349 232 s \$0-h2p;
#X obj 364 213 s \$0-h3p;
#X obj 379 194 s \$0-l1p;
#X obj 394 175 s \$0-l2p;
#X obj 409 156 s \$0-l3p;
#X obj 425 137 s \$0-f1p;
#X obj 440 118 s \$0-f2p;
#X obj 455 99 s \$0-f3p;
#X obj 470 394 s \$0-m1p;
#X obj 485 374 s \$0-m2p;
#X obj 501 354 s \$0-m3p;
#X obj 516 334 s \$0-s1p;
#X obj 531 315 s \$0-s2p;
#X obj 546 296 s \$0-s3p;
#X obj 561 276 s \$0-r1p;
#X obj 577 257 s \$0-r2p;
#X obj 592 238 s \$0-r3p;
#X obj 607 219 s \$0-sw1p;
#X obj 622 200 s \$0-sw2p;
#X obj 637 181 s \$0-sw3p;
#X obj 653 162 s \$0-rp1p;
#X obj 668 143 s \$0-rp2p;
#X obj 683 124 s \$0-rp3p;
#X obj 45 678 s \$0-presname;
#X obj 75 574 s \$0-mixp;
#X obj 45 65 unpack s f f f f f f f f f f f f f f f f f f f f f f f f f f f f f f f f f f f f f f f f f f, f 96;
#X connect 0 0 44 0;
#X connect 1 0 42 0;
#X connect 44 0 1 0;
#X connect 44 2 43 0;
#X connect 44 3 2 0;
#X connect 44 4 3 0;
#X connect 44 5 4 0;
#X connect 44 6 5 0;
#X connect 44 7 6 0;
#X connect 44 8 7 0;
#X connect 44 9 8 0;
#X connect 44 10 9 0;
#X connect 44 11 10 0;
#X connect 44 12 11 0;
#X connect 44 13 12 0;
#X connect 44 14 13 0;
#X connect 44 15 14 0;
#X connect 44 16 15 0;
#X connect 44 17 16 0;
#X connect 44 18 17 0;
#X connect 44 19 18 0;
#X connect 44 20 19 0;
#X connect 44 21 20 0;
#X connect 44 22 21 0;
#X connect 44 23 22 0;
#X connect 44 24 23 0;
#X connect 44 25 24 0;
#X connect 44 26 25 0;
#X connect 44 27 26 0;
#X connect 44 28 27 0;
#X connect 44 29 28 0;
#X connect 44 30 29 0;
#X connect 44 31 30 0;
#X connect 44 32 31 0;
#X connect 44 33 32 0;
#X connect 44 34 33 0;
#X connect 44 35 34 0;
#X connect 44 36 35 0;
#X connect 44 37 36 0;
#X connect 44 38 37 0;
#X connect 44 39 38 0;
#X connect 44 40 39 0;
#X connect 44 41 40 0;
#X connect 44 42 41 0;
#X restore 477 100 pd loadPreset;
#X obj 39 17 loadbang;
#X obj 39 85 s \$0-presnump;
#X msg 39 61 0;
#X obj 39 118 s \$0-bypp;
#X obj 40 155 s \$0-swp;
#X obj 292 20 inlet;
#X obj 292 46 route preset;
#X obj 292 75 s \$0-presnump;
#X obj 161 48 metro 5000;
#X obj 398 69 list prepend PROTO 0;
#X connect 0 0 1 0;
#X connect 2 0 3 0;
#X connect 4 0 6 0;
#X connect 4 0 12 0;
#X connect 6 0 5 0;
#X connect 6 0 7 0;
#X connect 6 0 8 0;
#X connect 9 0 10 0;
#X connect 10 0 11 0;
#X connect 10 1 13 0;
#X connect 12 0 0 0;
#X connect 13 0 3 0;
#X restore 807 108 pd PRESET;
#X obj 807 73 inlet;
#X obj 101 101 cnv 15 298 98 empty empty Ghost:Town 3 7 1 9 #000000 #9c9c9c 0;
#X obj 121 119 mknob 18 100 0.25 4 0 0 \$0-D1 \$0-d1p empty -2 -6 0 8 #404040 #9c9c9c #9c9c9c 1980 1;
#X obj 385 103 tgl 12 0 \$0-BYP \$0-bypp B 3 6 1 10 #404040 #404040 #a0a0a0 0 1;
#X obj 157 119 mknob 18 100 500 10000 1 0 \$0-H1 \$0-h1p empty -2 -6 0 8 #404040 #9c9c9c #9c9c9c 9900 1;
#X obj 177 119 mknob 18 100 5000 10 1 0 \$0-L1 \$0-l1p empty -2 -6 0 8 #404040 #9c9c9c #9c9c9c 9900 1;
#X obj 197 119 mknob 18 100 0 1 0 0 \$0-F1 \$0-f1p empty -2 -6 0 8 #404040 #9c9c9c #9c9c9c 3046 1;
#X obj 106 122 tgl 12 0 \$0-SW1 \$0-sw1p 1 3 6 1 10 #a0a0a0 #a0a0a0 #404040 0 1;
#X obj 218 122 tgl 12 0 \$0-11 \$0-11p 1 3 6 1 10 #a0a0a0 #a0a0a0 #404040 0 1;
#X obj 231 122 tgl 12 0 \$0-12 \$0-12p 2 3 6 1 10 #404040 #404040 #a0a0a0 0 1;
#X obj 244 122 tgl 12 0 \$0-13 \$0-13p 3 3 6 1 10 #404040 #404040 #a0a0a0 0 1;
#X obj 259 119 mknob 18 100 0 2 0 0 \$0-M1 \$0-m1p empty -2 -6 0 8 #404040 #9c9c9c #9c9c9c 0 1;
#X obj 279 119 mknob 18 100 0.1 5 1 0 \$0-S1 \$0-s1p empty -2 -6 0 8 #404040 #9c9c9c #9c9c9c 0 1;
#X obj 299 119 mknob 18 100 0 1 0 0 \$0-R1 \$0-r1p empty -2 -6 0 8 #404040 #9c9c9c #9c9c9c 0 1;
#X obj 297 105 hradio 8 1 0 8 \$0-presnum \$0-presnump empty 0 -8 0 10 #404040 #9c9c9c #000000 0;
#X obj 121 141 mknob 18 100 0.25 4 0 0 \$0-D2 \$0-d2p empty -2 -6 0 8 #404040 #9c9c9c #9c9c9c 1980 1;
#X obj 157 141 mknob 18 100 500 10000 1 0 \$0-H2 \$0-h2p empty -2 -6 0 8 #404040 #9c9c9c #9c9c9c 9900 1;
#X obj 177 141 mknob 18 100 5000 10 1 0 \$0-L2 \$0-l2p empty -2 -6 0 8 #404040 #9c9c9c #9c9c9c 9900 1;
#X obj 197 141 mknob 18 100 0 1 0 0 \$0-F2 \$0-f2p empty -2 -6 0 8 #404040 #9c9c9c #9c9c9c 0 1;
#X obj 106 144 tgl 12 0 \$0-SW2 \$0-sw2p 2 3 6 1 10 #404040 #404040 #a0a0a0 0 1;
#X obj 218 144 tgl 12 0 \$0-21 \$0-21p 1 3 6 1 10 #404040 #404040 #a0a0a0 0 1;
#X obj 231 144 tgl 12 0 \$0-22 \$0-22p 2 3 6 1 10 #404040 #404040 #a0a0a0 0 1;
#X obj 244 144 tgl 12 0 \$0-23 \$0-23p 3 3 6 1 10 #404040 #404040 #a0a0a0 0 1;
#X obj 259 141 mknob 18 100 0 2 0 0 \$0-M2 \$0-m2p empty -2 -6 0 8 #404040 #9c9c9c #9c9c9c 0 1;
#X obj 279 141 mknob 18 100 0.1 5 1 0 \$0-S2 \$0-s2p empty -2 -6 0 8 #404040 #9c9c9c #9c9c9c 0 1;
#X obj 299 141 mknob 18 100 0 1 0 0 \$0-R2 \$0-r2p empty -2 -6 0 8 #404040 #9c9c9c #9c9c9c 0 1;
#X obj 121 163 mknob 18 100 0.25 4 0 0 \$0-D3 \$0-d3p DLY 3 25 1 7 #404040 #9c9c9c #9c9c9c 1980 1;
#X obj 157 163 mknob 18 100 500 10000 1 0 \$0-H3 \$0-h3p HFR 3 25 1 7 #404040 #9c9c9c #9c9c9c 9900 1;
#X obj 177 163 mknob 18 100 5000 10 1 0 \$0-L3 \$0-l3p LFR 3 25 1 7 #404040 #9c9c9c #9c9c9c 9900 1;
#X obj 197 163 mknob 18 100 0 1 0 0 \$0-F3 \$0-f3p FBK 3 25 1 7 #404040 #9c9c9c #9c9c9c 0 1;
#X obj 106 166 tgl 12 0 \$0-SW3 \$0-sw3p 3 3 6 1 10 #404040 #404040 #a0a0a0 0 1;
#X obj 218 166 tgl 12 0 \$0-31 \$0-31p 1 3 6 1 10 #404040 #404040 #a0a0a0 0 1;
#X obj 231 166 tgl 12 0 \$0-32 \$0-32p 2 3 6 1 10 #404040 #404040 #a0a0a0 0 1;
#X obj 244 166 tgl 12 0 \$0-33 \$0-33p 3 3 6 1 10 #404040 #404040 #a0a0a0 0 1;
#X obj 259 163 mknob 18 100 0 2 0 0 \$0-M3 \$0-m3p MOD 3 25 1 7 #404040 #9c9c9c #9c9c9c 0 1;
#X obj 279 163 mknob 18 100 0.1 5 1 0 \$0-S3 \$0-s3p LFO 3 25 1 7 #404040 #9c9c9c #9c9c9c 0 1;
#X obj 299 163 mknob 18 100 0 1 0 0 \$0-R3 \$0-r3p REV 3 25 1 7 #404040 #9c9c9c #9c9c9c 0 1;
#X obj 106 183 cnv 10 10 10 empty empty IN 3 5 1 7 #000000 #9c9c9c 0;
#X obj 225 183 cnv 10 10 10 empty empty ROUTE 0 5 1 7 #000000 #9c9c9c 0;
#X obj 142 122 bng 12 250 50 0 \$0-TS1 \$0-ts1p empty 17 7 1 10 #404040 #9c9c9c #000000;
#X obj 142 144 bng 12 250 50 0 \$0-TS2 \$0-ts2p empty 17 7 1 10 #404040 #9c9c9c #000000;
#X obj 142 166 bng 12 250 50 0 \$0-TS3 \$0-ts3p empty 17 7 1 10 #404040 #9c9c9c #000000;
#X obj 369 156 mknob 25 100 100 2500 1 0 \$0-DLY \$0-dlyp DELAY 1 32 1 7 #404040 #9c9c9c #9c9c9c 2038 1;
#X obj 369 119 mknob 25 100 0 1 0 0 \$0-MIX \$0-mixp MIX 7 32 1 7 #404040 #9c9c9c #9c9c9c 4950 1;
#X obj 365 103 tgl 12 0 \$0-SW \$0-swp D 3 6 1 10 #404040 #404040 #a0a0a0 0 1;
#X obj 357 144 bng 12 250 50 0 \$0-MT \$0-mtp empty 17 7 1 10 #404040 #9c9c9c #000000;
#N canvas 876 50 399 638 TOGGLE_MANAGER 0;
#X obj 18 35 sel 0 1;
#X msg 18 80 color \$1 \$2 \$3;
#X obj 138 35 sel 0 1;
#X msg 138 80 color \$1 \$2 \$3;
#X obj 138 15 r \$0-SW;
#X obj 138 102 s \$0-swp;
#X msg 198 57 15 15 2;
#X obj 18 165 sel 0 1;
#X msg 18 210 color \$1 \$2 \$3;
#X obj 18 144 r \$0-SW1;
#X obj 18 232 s \$0-sw1p;
#X obj 133 165 sel 0 1;
#X msg 133 210 color \$1 \$2 \$3;
#X obj 251 165 sel 0 1;
#X msg 251 210 color \$1 \$2 \$3;
#X obj 133 144 r \$0-SW2;
#X obj 133 232 s \$0-sw2p;
#X obj 251 144 r \$0-SW3;
#X obj 251 232 s \$0-sw3p;
#X obj 18 295 sel 0 1;
#X msg 18 340 color \$1 \$2 \$3;
#X obj 133 295 sel 0 1;
#X msg 133 340 color \$1 \$2 \$3;
#X obj 251 295 sel 0 1;
#X msg 251 340 color \$1 \$2 \$3;
#X obj 18 274 r \$0-11;
#X obj 18 362 s \$0-11p;
#X obj 133 274 r \$0-12;
#X obj 133 362 s \$0-12p;
#X obj 251 274 r \$0-13;
#X obj 251 362 s \$0-13p;
#X obj 18 415 sel 0 1;
#X msg 18 460 color \$1 \$2 \$3;
#X obj 133 415 sel 0 1;
#X msg 133 460 color \$1 \$2 \$3;
#X obj 251 415 sel 0 1;
#X msg 251 460 color \$1 \$2 \$3;
#X obj 18 394 r \$0-21;
#X obj 133 394 r \$0-22;
#X obj 251 394 r \$0-23;
#X obj 18 482 s \$0-21p;
#X obj 133 482 s \$0-22p;
#X obj 251 482 s \$0-23p;
#X obj 18 535 sel 0 1;
#X msg 18 580 color \$1 \$2 \$3;
#X obj 133 535 sel 0 1;
#X msg 133 580 color \$1 \$2 \$3;
#X obj 251 535 sel 0 1;
#X msg 251 580 color \$1 \$2 \$3;
#X obj 18 514 r \$0-31;
#X obj 133 514 r \$0-32;
#X obj 251 514 r \$0-33;
#X obj 18 602 s \$0-31p;
#X obj 133 602 s \$0-32p;
#X obj 251 602 s \$0-33p;
#X msg 18 187 2 2 1;
#X msg 133 187 2 2 1;
#X msg 71 187 1 1 2;
#X msg 186 187 1 1 2;
#X msg 251 187 2 2 1;
#X msg 303 187 1 1 2;
#X msg 18 317 2 2 1;
#X msg 71 317 1 1 2;
#X msg 133 317 2 2 1;
#X msg 186 317 1 1 2;
#X msg 251 317 2 2 1;
#X msg 304 317 1 1 2;
#X msg 18 437 2 2 1;
#X msg 71 437 1 1 2;
#X msg 133 437 2 2 1;
#X msg 186 437 1 1 2;
#X msg 251 437 2 2 1;
#X msg 304 437 1 1 2;
#X msg 18 557 2 2 1;
#X msg 71 557 1 1 2;
#X msg 133 557 2 2 1;
#X msg 186 557 1 1 2;
#X msg 251 557 2 2 1;
#X msg 304 557 1 1 2;
#X msg 138 57 2 2 1;
#X obj 18 15 r \$0-BYP;
#X obj 18 102 s \$0-bypp;
#X msg 18 57 2 2 1;
#X msg 75 57 13 13 0;
#X connect 0 0 82 0;
#X connect 0 1 83 0;
#X connect 1 0 81 0;
#X connect 2 0 79 0;
#X connect 2 1 6 0;
#X connect 3 0 5 0;
#X connect 4 0 2 0;
#X connect 6 0 3 0;
#X connect 7 0 55 0;
#X connect 7 1 57 0;
#X connect 8 0 10 0;
#X connect 9 0 7 0;
#X connect 11 0 56 0;
#X connect 11 1 58 0;
#X connect 12 0 16 0;
#X connect 13 0 59 0;
#X connect 13 1 60 0;
#X connect 14 0 18 0;
#X connect 15 0 11 0;
#X connect 17 0 13 0;
#X connect 19 0 61 0;
#X connect 19 1 62 0;
#X connect 20 0 26 0;
#X connect 21 0 63 0;
#X connect 21 1 64 0;
#X connect 22 0 28 0;
#X connect 23 0 65 0;
#X connect 23 1 66 0;
#X connect 24 0 30 0;
#X connect 25 0 19 0;
#X connect 27 0 21 0;
#X connect 29 0 23 0;
#X connect 31 0 67 0;
#X connect 31 1 68 0;
#X connect 32 0 40 0;
#X connect 33 0 69 0;
#X connect 33 1 70 0;
#X connect 34 0 41 0;
#X connect 35 0 71 0;
#X connect 35 1 72 0;
#X connect 36 0 42 0;
#X connect 37 0 31 0;
#X connect 38 0 33 0;
#X connect 39 0 35 0;
#X connect 43 0 73 0;
#X connect 43 1 74 0;
#X connect 44 0 52 0;
#X connect 45 0 75 0;
#X connect 45 1 76 0;
#X connect 46 0 53 0;
#X connect 47 0 77 0;
#X connect 47 1 78 0;
#X connect 48 0 54 0;
#X connect 49 0 43 0;
#X connect 50 0 45 0;
#X connect 51 0 47 0;
#X connect 55 0 8 0;
#X connect 56 0 12 0;
#X connect 57 0 8 0;
#X connect 58 0 12 0;
#X connect 59 0 14 0;
#X connect 60 0 14 0;
#X connect 61 0 20 0;
#X connect 62 0 20 0;
#X connect 63 0 22 0;
#X connect 64 0 22 0;
#X connect 65 0 24 0;
#X connect 66 0 24 0;
#X connect 67 0 32 0;
#X connect 68 0 32 0;
#X connect 69 0 34 0;
#X connect 70 0 34 0;
#X connect 71 0 36 0;
#X connect 72 0 36 0;
#X connect 73 0 44 0;
#X connect 74 0 44 0;
#X connect 75 0 46 0;
#X connect 76 0 46 0;
#X connect 77 0 48 0;
#X connect 78 0 48 0;
#X connect 79 0 3 0;
#X connect 80 0 0 0;
#X connect 82 0 1 0;
#X connect 83 0 1 0;
#X restore 903 424 pd TOGGLE_MANAGER;
#N canvas 253 84 532 457 XFADE 0;
#X obj 23 59 inlet~;
#X obj 234 69 inlet;
#X obj 23 343 outlet~;
#X obj 39 205 expr cos($f1 * 3.14159 / 2);
#X obj 272 204 expr sin($f1 * 3.14159 / 2);
#N canvas 0 50 452 300 pan_core 0;
#X obj 21 106 inlet~;
#X obj 226 126 inlet;
#X obj 80 453 *~;
#X obj 144 497 outlet~;
#X obj 210 452 *~;
#X obj 226 428 line~;
#X obj 96 428 line~;
#X obj 96 127 inlet;
#X obj 179 104 inlet~;
#X text 244 544 comment;
#X obj 96 389 pack f 5;
#X obj 226 389 pack f 5;
#X text 223 540 Hans-Christoph Steiner \, 2004;
#X text 223 526 Adapted from [pan_core~];
#X connect 0 0 2 0;
#X connect 1 0 11 0;
#X connect 2 0 3 0;
#X connect 4 0 3 0;
#X connect 5 0 4 1;
#X connect 6 0 2 1;
#X connect 7 0 10 0;
#X connect 8 0 4 0;
#X connect 10 0 6 0;
#X connect 11 0 5 0;
#X restore 29 277 pd pan_core;
#X obj 118 57 inlet~;
#X connect 0 0 5 0;
#X connect 1 0 3 0;
#X connect 1 0 4 0;
#X connect 3 0 5 1;
#X connect 4 0 5 3;
#X connect 5 0 2 0;
#X connect 6 0 5 2;
#X restore 704 350 pd XFADE;
#X obj 757 322 r \$0-MIX;
#X obj 639 255 *~;
#X obj 657 232 == 0;
#N canvas 541 72 634 536 (subpatch) 0;
#X obj 111 335 makefilename %d;
#X msg 111 360 label \$1;
#X obj 111 384 s \$0-uni1;
#X obj 22 380 s \$0-RP1;
#X obj 45 150 r \$0-rp1p;
#X obj 101 201 bng 10 250 50 0 empty empty empty 17 7 0 10 #fcfcfc #000000 #000000;
#X obj 95 235 i;
#X obj 126 235 + 1;
#X obj 95 277 mod 3;
#X obj 97 305 + 1;
#X obj 101 201 cnv 10 10 10 empty \$0-uni1 3 3 5 1 10 #404040 #9c9c9c 0;
#X connect 0 0 1 0;
#X connect 1 0 2 0;
#X connect 4 0 6 0;
#X connect 5 0 6 0;
#X connect 6 0 7 0;
#X connect 6 0 8 0;
#X connect 7 0 6 1;
#X connect 8 0 9 0;
#X connect 8 0 3 0;
#X connect 9 0 0 0;
#X coords 0 -1 1 1 12 12 2 100 200;
#X restore 320 122 pd;
#X obj 320 183 cnv 10 10 10 empty empty POS 0 5 1 7 #000000 #9c9c9c 0;
#N canvas 541 72 634 536 (subpatch) 0;
#X obj 111 335 makefilename %d;
#X msg 111 360 label \$1;
#X obj 101 201 bng 10 250 50 0 empty empty empty 17 7 0 10 #fcfcfc #000000 #000000;
#X obj 95 235 i;
#X obj 126 235 + 1;
#X obj 95 277 mod 3;
#X obj 97 305 + 1;
#X obj 101 201 cnv 10 10 10 empty \$0-uni2 3 3 5 1 10 #404040 #9c9c9c 0;
#X obj 45 150 r \$0-rp2p;
#X obj 22 380 s \$0-RP2;
#X obj 112 384 s \$0-uni2;
#X connect 0 0 1 0;
#X connect 1 0 10 0;
#X connect 2 0 3 0;
#X connect 3 0 4 0;
#X connect 3 0 5 0;
#X connect 4 0 3 1;
#X connect 5 0 6 0;
#X connect 5 0 9 0;
#X connect 6 0 0 0;
#X connect 8 0 3 0;
#X coords 0 -1 1 1 12 12 2 100 200;
#X restore 320 144 pd;
#N canvas 541 72 634 536 (subpatch) 0;
#X obj 111 335 makefilename %d;
#X msg 111 360 label \$1;
#X obj 101 201 bng 10 250 50 0 empty empty empty 17 7 0 10 #fcfcfc #000000 #000000;
#X obj 95 235 i;
#X obj 126 235 + 1;
#X obj 95 277 mod 3;
#X obj 97 305 + 1;
#X obj 101 201 cnv 10 10 10 empty \$0-uni3 3 3 5 1 10 #404040 #9c9c9c 0;
#X obj 45 150 r \$0-rp3p;
#X obj 22 380 s \$0-RP3;
#X obj 111 384 s \$0-uni3;
#X connect 0 0 1 0;
#X connect 1 0 10 0;
#X connect 2 0 3 0;
#X connect 3 0 4 0;
#X connect 3 0 5 0;
#X connect 4 0 3 1;
#X connect 5 0 6 0;
#X connect 5 0 9 0;
#X connect 6 0 0 0;
#X connect 8 0 3 0;
#X coords 0 -1 1 1 12 12 2 100 200;
#X restore 320 166 pd;
#X obj 335 119 mknob 18 100 0 2 0 0 \$0-V1 \$0-v1p empty -2 -6 0 8 #404040 #9c9c9c #9c9c9c 4950 1;
#X obj 335 141 mknob 18 100 0 2 0 0 \$0-V2 \$0-v2p empty -2 -6 0 8 #404040 #9c9c9c #9c9c9c 4950 1;
#X obj 335 163 mknob 18 100 0 2 0 0 \$0-V3 \$0-v3p VOL 3 25 1 7 #404040 #9c9c9c #9c9c9c 4950 1;
#X obj 482 330 env~;
#X obj 545 331 env~;
#X obj 102 193 hvumeter2;
#X obj 256 193 hvumeter2;
#X text 97 28 Ghost Town: reverberated multi-path delay by Shindeibrauns (Michele Abruzzese) third version 27/04/2017;
#X obj 731 290 clip~ -0.5 0.5;
#X obj 545 359 - 84;
#X obj 482 356 - 84;
#X obj 14 8 declare -path moonlib;
#X connect 2 0 5 0;
#X connect 2 0 58 0;
#X connect 2 0 67 0;
#X connect 4 0 72 0;
#X connect 5 0 4 0;
#X connect 5 0 56 0;
#X connect 6 0 5 1;
#X connect 6 0 59 0;
#X connect 9 0 8 0;
#X connect 56 0 3 0;
#X connect 57 0 56 2;
#X connect 58 0 3 0;
#X connect 59 0 58 1;
#X connect 67 0 74 0;
#X connect 68 0 73 0;
#X connect 72 0 56 1;
#X connect 72 0 68 0;
#X connect 73 0 70 0;
#X connect 74 0 69 0;
#X coords 0 -1 1 1 300 100 2 100 100;
