#N canvas 359 245 756 638 10;
#X obj 38 55 sel 0 1 2 3 4 5 6 7 8 9 10 11 12 13 14 15;
#X msg 202 29 0;
#X obj 202 9 loadbang;
#N canvas 85 270 1037 696 toggles 0;
#X obj 191 13 inlet;
#X obj 88 215 del 100;
#X obj 35 174 bang;
#X obj 118 395 del 100;
#X obj 77 357 bang;
#X obj 148 575 del 100;
#X obj 107 536 bang;
#X obj 238 215 del 100;
#X obj 208 181 bang;
#X obj 268 395 del 100;
#X obj 238 359 bang;
#X obj 298 575 del 100;
#X obj 255 532 bang;
#X obj 398 215 del 100;
#X obj 364 177 bang;
#X obj 428 395 del 100;
#X obj 392 357 bang;
#X obj 458 575 del 100;
#X obj 416 540 bang;
#X obj 548 215 del 100;
#X obj 509 172 bang;
#X obj 578 395 del 100;
#X obj 531 355 bang;
#X obj 608 575 del 100;
#X obj 569 528 bang;
#X obj 718 215 del 100;
#X obj 678 173 bang;
#X obj 748 395 del 100;
#X obj 717 356 bang;
#X obj 778 575 del 100;
#X obj 734 522 bang;
#X obj 868 215 del 100;
#X obj 829 175 bang;
#X obj 191 36 sel 0 1 2 3 4 5 6 7 8 9 10 11 12 13 14 15;
#X obj 678 35 inlet;
#X msg 88 197 1;
#X msg 88 234 2;
#X msg 238 197 1;
#X msg 238 234 2;
#X msg 398 197 1;
#X msg 398 234 2;
#X msg 548 197 1;
#X msg 548 234 2;
#X msg 719 197 1;
#X msg 718 234 2;
#X msg 868 197 1;
#X msg 868 234 2;
#X msg 748 377 1;
#X msg 748 414 2;
#X msg 578 377 1;
#X msg 578 414 2;
#X msg 428 377 1;
#X msg 428 414 2;
#X msg 268 377 1;
#X msg 268 414 2;
#X msg 118 377 1;
#X msg 118 414 2;
#X msg 148 557 1;
#X msg 148 594 2;
#X msg 298 557 1;
#X msg 298 594 2;
#X msg 458 557 1;
#X msg 458 594 2;
#X msg 608 557 1;
#X msg 608 594 2;
#X msg 778 557 1;
#X msg 778 594 2;
#X obj 25 273 s \$0-sk1;
#X obj 175 273 s \$0-sk4;
#X obj 335 273 s \$0-sk7;
#X obj 485 273 s \$0-sk10;
#X obj 655 273 s \$0-sk13;
#X obj 805 273 s \$0-sk16;
#X obj 685 453 s \$0-sk14;
#X obj 515 453 s \$0-sk11;
#X obj 365 453 s \$0-sk8;
#X obj 205 452 s \$0-sk5;
#X obj 55 453 s \$0-sk2;
#X obj 85 633 s \$0-sk3;
#X obj 235 633 s \$0-sk6;
#X obj 395 633 s \$0-sk9;
#X obj 545 633 s \$0-sk12;
#X obj 715 633 s \$0-sk15;
#X msg 25 253 color \$1;
#X msg 175 253 color \$1;
#X msg 335 253 color \$1;
#X msg 485 253 color \$1;
#X msg 655 253 color \$1;
#X msg 805 253 color \$1;
#X msg 55 433 color \$1;
#X msg 205 433 color \$1;
#X msg 365 433 color \$1;
#X msg 515 433 color \$1;
#X msg 686 433 color \$1;
#X msg 85 613 color \$1;
#X msg 237 613 color \$1;
#X msg 395 613 color \$1;
#X msg 545 613 color \$1;
#X msg 715 613 color \$1;
#X connect 0 0 33 0;
#X connect 1 0 36 0;
#X connect 2 0 35 0;
#X connect 2 0 1 0;
#X connect 3 0 56 0;
#X connect 4 0 55 0;
#X connect 4 0 3 0;
#X connect 5 0 58 0;
#X connect 6 0 57 0;
#X connect 6 0 5 0;
#X connect 7 0 38 0;
#X connect 8 0 37 0;
#X connect 8 0 7 0;
#X connect 9 0 54 0;
#X connect 10 0 53 0;
#X connect 10 0 9 0;
#X connect 11 0 60 0;
#X connect 12 0 59 0;
#X connect 12 0 11 0;
#X connect 13 0 40 0;
#X connect 14 0 39 0;
#X connect 14 0 13 0;
#X connect 15 0 52 0;
#X connect 16 0 51 0;
#X connect 16 0 15 0;
#X connect 17 0 62 0;
#X connect 18 0 61 0;
#X connect 18 0 17 0;
#X connect 19 0 42 0;
#X connect 20 0 41 0;
#X connect 20 0 19 0;
#X connect 21 0 50 0;
#X connect 22 0 49 0;
#X connect 22 0 21 0;
#X connect 23 0 64 0;
#X connect 24 0 63 0;
#X connect 24 0 23 0;
#X connect 25 0 44 0;
#X connect 26 0 43 0;
#X connect 26 0 25 0;
#X connect 27 0 48 0;
#X connect 28 0 47 0;
#X connect 28 0 27 0;
#X connect 29 0 66 0;
#X connect 30 0 65 0;
#X connect 30 0 29 0;
#X connect 31 0 46 0;
#X connect 32 0 45 0;
#X connect 32 0 31 0;
#X connect 33 0 2 0;
#X connect 33 1 4 0;
#X connect 33 2 6 0;
#X connect 33 3 8 0;
#X connect 33 4 10 0;
#X connect 33 5 12 0;
#X connect 33 6 14 0;
#X connect 33 7 16 0;
#X connect 33 8 18 0;
#X connect 33 9 20 0;
#X connect 33 10 22 0;
#X connect 33 11 24 0;
#X connect 33 12 26 0;
#X connect 33 13 28 0;
#X connect 33 14 30 0;
#X connect 33 15 32 0;
#X connect 34 0 1 1;
#X connect 34 0 7 1;
#X connect 34 0 13 1;
#X connect 34 0 19 1;
#X connect 34 0 25 1;
#X connect 34 0 31 1;
#X connect 34 0 3 1;
#X connect 34 0 9 1;
#X connect 34 0 15 1;
#X connect 34 0 21 1;
#X connect 34 0 27 1;
#X connect 34 0 5 1;
#X connect 34 0 11 1;
#X connect 34 0 17 1;
#X connect 34 0 23 1;
#X connect 34 0 29 1;
#X connect 35 0 83 0;
#X connect 36 0 83 0;
#X connect 37 0 84 0;
#X connect 38 0 84 0;
#X connect 39 0 85 0;
#X connect 40 0 85 0;
#X connect 41 0 86 0;
#X connect 42 0 86 0;
#X connect 43 0 87 0;
#X connect 44 0 87 0;
#X connect 45 0 88 0;
#X connect 46 0 88 0;
#X connect 47 0 93 0;
#X connect 48 0 93 0;
#X connect 49 0 92 0;
#X connect 50 0 92 0;
#X connect 51 0 91 0;
#X connect 52 0 91 0;
#X connect 53 0 90 0;
#X connect 54 0 90 0;
#X connect 55 0 89 0;
#X connect 56 0 89 0;
#X connect 57 0 94 0;
#X connect 58 0 94 0;
#X connect 59 0 95 0;
#X connect 60 0 95 0;
#X connect 61 0 96 0;
#X connect 62 0 96 0;
#X connect 63 0 97 0;
#X connect 64 0 97 0;
#X connect 65 0 98 0;
#X connect 66 0 98 0;
#X connect 83 0 67 0;
#X connect 84 0 68 0;
#X connect 85 0 69 0;
#X connect 86 0 70 0;
#X connect 87 0 71 0;
#X connect 88 0 72 0;
#X connect 89 0 77 0;
#X connect 90 0 76 0;
#X connect 91 0 75 0;
#X connect 92 0 74 0;
#X connect 93 0 73 0;
#X connect 94 0 78 0;
#X connect 95 0 79 0;
#X connect 96 0 80 0;
#X connect 97 0 81 0;
#X connect 98 0 82 0;
#X restore 603 380 pd toggles;
#X obj 101 102 cnv 15 248 146 empty empty EXT_CLK______________________RESET
3 6 0 10 -233017 -66577 0;
#X obj 107 118 vsl 12 100 -12 12 0 0 \$0-foo \$0-sk1 empty 0 -9 0 10
-66577 -262144 -262144 4950 1;
#X obj 119 118 vsl 12 100 -12 12 0 0 \$0-foo \$0-sk2 empty 0 -9 0 10
-66577 -262144 -1 7250 1;
#X obj 131 118 vsl 12 100 -12 12 0 0 \$0-foo \$0-sk3 empty 0 -9 0 10
-66577 -262144 -1 5850 1;
#X obj 143 118 vsl 12 100 -12 12 0 0 \$0-foo \$0-sk4 empty 0 -9 0 10
-66577 -262144 -1 4950 1;
#X obj 156 118 vsl 12 100 -12 12 0 0 \$0-foo \$0-sk5 empty 0 -9 0 10
-66577 -262144 -1 4950 1;
#X obj 168 118 vsl 12 100 -12 12 0 0 \$0-foo \$0-sk6 empty 0 -9 0 10
-66577 -262144 -1 4950 1;
#X obj 180 118 vsl 12 100 -12 12 0 0 \$0-foo \$0-sk7 empty 0 -9 0 10
-66577 -262144 -1 4950 1;
#X obj 192 118 vsl 12 100 -12 12 0 0 \$0-foo \$0-sk8 empty 0 -9 0 10
-66577 -262144 -1 4950 1;
#X obj 205 118 vsl 12 100 -12 12 0 0 \$0-foo \$0-sk9 empty 0 -9 0 10
-66577 -262144 -1 4950 1;
#X obj 217 118 vsl 12 100 -12 12 0 0 \$0-foo \$0-sk10 empty 0 -9 0
10 -66577 -262144 -1 4950 1;
#X obj 229 118 vsl 12 100 -12 12 0 0 \$0-foo \$0-sk11 empty 0 -9 0
10 -66577 -262144 -1 4950 1;
#X obj 241 118 vsl 12 100 -12 12 0 0 \$0-foo \$0-sk12 empty 0 -9 0
10 -66577 -262144 -1 4950 1;
#X obj 254 118 vsl 12 100 -12 12 0 0 \$0-foo \$0-sk13 empty 0 -9 0
10 -66577 -262144 -1 4950 1;
#X obj 266 118 vsl 12 100 -12 12 0 0 \$0-foo \$0-sk14 empty 0 -9 0
10 -66577 -262144 -1 6550 1;
#X obj 278 118 vsl 12 100 -12 12 0 0 \$0-foo \$0-sk15 empty 0 -9 0
10 -66577 -262144 -1 4950 1;
#X obj 290 118 vsl 12 100 -12 12 0 0 \$0-foo \$0-sk16 empty 0 -9 0
10 -66577 -262144 -1 4950 1;
#X obj 38 32 r \$0-bangs;
#X obj 509 182 metro;
#X obj 541 125 swap 60000;
#X obj 541 146 /;
#X obj 506 365 mod;
#X obj 524 330 r \$0-extension;
#X obj 506 303 i;
#X obj 536 303 + 1;
#X obj 541 98 r \$0-bpm;
#X obj 428 90 r \$0-onoff;
#X obj 448 261 spigot;
#X obj 506 260 spigot;
#X obj 520 241 == 0;
#X obj 506 279 spigot;
#X obj 365 68 inlet;
#X obj 481 213 r \$0-ext;
#X obj 642 73 inlet;
#X msg 642 208 0;
#X obj 520 442 outlet;
#X obj 506 394 s \$0-bangs;
#X obj 107 225 tgl_seeker;
#X obj 364 511 outlet;
#X obj 56 310 i;
#X obj 106 310 i;
#X obj 156 310 i;
#X obj 206 310 i;
#X obj 218 330 i;
#X obj 230 350 i;
#X obj 242 370 i;
#X obj 192 370 i;
#X obj 180 350 i;
#X obj 168 330 i;
#X obj 118 330 i;
#X obj 130 350 i;
#X obj 142 370 i;
#X obj 92 370 i;
#X obj 80 350 i;
#X obj 68 330 i;
#X obj 145 420 sig~;
#X obj 307 116 nbx 3 14 1 16 0 0 \$0-extension \$0-bar empty 0 -8 0
10 -99865 -262144 -1 16 256;
#X obj 307 133 nbx 3 14 30 500 0 0 \$0-bpm \$0-bar empty 0 -8 0 10
-99865 -262144 -1 500 256;
#X obj 308 150 nbx 3 14 -5 4 0 0 \$0-octave \$0-bar empty 0 -8 0 10
-99865 -262144 -1 0 256;
#X obj 308 167 nbx 3 14 0 12 0 0 \$0-trasp \$0-bar empty 0 -8 0 10
-99865 -262144 -1 0 256;
#X obj 145 486 +~ 60;
#X obj 224 399 r \$0-octave;
#X obj 224 421 * 12;
#X obj 224 442 + 60;
#X obj 263 463 +;
#X obj 263 442 t b f;
#X obj 144 521 outlet~;
#X floatatom 263 512 5 0 0 0 - - -, f 5;
#X obj 263 421 r \$0-trasp;
#X obj 310 186 tgl 30 0 \$0-onoff \$0-bar empty 17 7 0 10 -162280 -66577
-1 0 1;
#X obj 101 238 cnv 10 10 10 empty empty NOTES___________SEQ____________CLK
3 6 0 10 -233017 -66577 0;
#X obj 317 222 tgl 15 0 \$0-ext \$0-bar empty 17 7 0 10 -162280 -66577
-1 0 1;
#X connect 0 0 43 0;
#X connect 0 1 58 0;
#X connect 0 2 57 0;
#X connect 0 3 56 0;
#X connect 0 4 44 0;
#X connect 0 5 53 0;
#X connect 0 6 54 0;
#X connect 0 7 55 0;
#X connect 0 8 45 0;
#X connect 0 9 52 0;
#X connect 0 10 51 0;
#X connect 0 11 50 0;
#X connect 0 12 46 0;
#X connect 0 13 47 0;
#X connect 0 14 48 0;
#X connect 0 15 49 0;
#X connect 1 0 5 0;
#X connect 1 0 6 0;
#X connect 1 0 7 0;
#X connect 1 0 8 0;
#X connect 1 0 9 0;
#X connect 1 0 10 0;
#X connect 1 0 11 0;
#X connect 1 0 12 0;
#X connect 1 0 13 0;
#X connect 1 0 14 0;
#X connect 1 0 15 0;
#X connect 1 0 16 0;
#X connect 1 0 17 0;
#X connect 1 0 18 0;
#X connect 1 0 19 0;
#X connect 1 0 20 0;
#X connect 2 0 1 0;
#X connect 5 0 43 1;
#X connect 6 0 58 1;
#X connect 7 0 57 1;
#X connect 8 0 56 1;
#X connect 9 0 44 1;
#X connect 10 0 53 1;
#X connect 11 0 54 1;
#X connect 12 0 55 1;
#X connect 13 0 45 1;
#X connect 14 0 52 1;
#X connect 15 0 51 1;
#X connect 16 0 50 1;
#X connect 17 0 46 1;
#X connect 18 0 47 1;
#X connect 19 0 48 1;
#X connect 20 0 49 1;
#X connect 21 0 0 0;
#X connect 21 0 41 0;
#X connect 22 0 32 0;
#X connect 23 0 24 0;
#X connect 23 1 24 1;
#X connect 24 0 22 1;
#X connect 24 0 3 1;
#X connect 24 0 41 1;
#X connect 25 0 40 0;
#X connect 25 0 3 0;
#X connect 26 0 25 1;
#X connect 27 0 28 0;
#X connect 27 0 25 0;
#X connect 28 0 27 1;
#X connect 29 0 23 0;
#X connect 30 0 34 1;
#X connect 30 0 22 0;
#X connect 31 0 34 0;
#X connect 32 0 34 0;
#X connect 33 0 32 1;
#X connect 34 0 27 0;
#X connect 34 0 39 0;
#X connect 35 0 31 0;
#X connect 36 0 31 1;
#X connect 36 0 33 0;
#X connect 37 0 38 0;
#X connect 38 0 27 0;
#X connect 41 0 42 0;
#X connect 43 0 59 0;
#X connect 44 0 59 0;
#X connect 45 0 59 0;
#X connect 46 0 59 0;
#X connect 47 0 59 0;
#X connect 48 0 59 0;
#X connect 49 0 59 0;
#X connect 50 0 59 0;
#X connect 51 0 59 0;
#X connect 52 0 59 0;
#X connect 53 0 59 0;
#X connect 54 0 59 0;
#X connect 55 0 59 0;
#X connect 56 0 59 0;
#X connect 57 0 59 0;
#X connect 58 0 59 0;
#X connect 59 0 64 0;
#X connect 64 0 70 0;
#X connect 65 0 66 0;
#X connect 66 0 67 0;
#X connect 67 0 68 0;
#X connect 68 0 64 1;
#X connect 68 0 71 0;
#X connect 69 0 68 0;
#X connect 69 1 68 1;
#X connect 72 0 69 0;
#X coords 0 -1 1 1 250 150 2 100 100;
