#N canvas 374 218 777 531 10;
#X declare -path moonlib;
#X obj 101 102 cnv 15 48 146 empty empty FRE_MOD_SHA 2 6 0 5 #e0e0e0 #404040 0;
#X obj 101 238 cnv 10 48 10 empty empty SIN_SQR_SAW 2 6 0 5 #e0e0e0 #404040 0;
#X obj 286 66 inlet~;
#X obj 352 66 inlet~;
#X obj 424 240 *~;
#X obj 322 202 +~;
#X msg 323 116 \$1 50;
#X obj 323 137 line~;
#X obj 285 467 outlet~;
#X msg 443 197 \$1 50;
#X obj 443 218 line~;
#X obj 104 119 mknob 25 100 1 100 0 0 \$0-freq \$0-bar empty -2 -6 0 8 #606060 #fcfcfc #000000 0 1;
#X obj 125 143 mknob 20 100 -1 1 0 0 \$0-fine \$0-bar empty -2 -6 0 8 #b8b8b8 #606060 #000000 0 1;
#X obj 126 186 mknob 20 100 0 1 0 0 \$0-shape \$0-bar empty -2 -6 0 8 #b8b8b8 #606060 #000000 0 1;
#X obj 323 97 r \$0-freq;
#X obj 443 178 r \$0-mod;
#X obj 424 66 inlet~;
#X obj 135 122 tgl 10 0 \$0-freqinput \$0-bar empty 17 7 0 10 #606060 #fcfcfc #000000 0 1;
#X obj 306 372 +~;
#X msg 371 148 \$1 50;
#X obj 371 169 line~;
#X obj 371 129 r \$0-fine;
#X obj 248 343 *~;
#X obj 286 343 *~;
#X obj 298 321 == 0;
#X obj 271 300 r \$0-freqinput;
#X obj 126 211 mknob 20 100 0 1 0 0 \$0-mod \$0-bar empty -2 -6 0 8 #b8b8b8 #606060 #000000 0 1;
#X obj 71 441 +;
#X obj 71 416 t b f;
#X floatatom 104 168 6 0 0 0 - \$0-fff \$0-foo 0;
#X obj 130 510 s \$0-fff;
#X obj 71 387 r \$0-fine;
#X obj 50 350 r \$0-freq;
#X obj 106 187 vradio 15 1 0 3 \$0-range \$0-bar empty 0 -8 0 10 #606060 #fcfcfc #000000 0;
#X obj 148 402 sel 0 1 2;
#X obj 130 478 *;
#X obj 148 383 r \$0-range;
#X obj 148 450 t b f;
#X msg 217 426 0.1;
#X msg 183 426 10;
#X obj 248 273 mtof~;
#X msg 148 426 100;
#N canvas 53 50 1200 374 oscillators 0;
#X obj 919 41 block~ 64 1 4;
#X obj 339 22 inlet~;
#X obj 718 9 inlet~;
#X obj 90 133 osc~;
#X obj 90 233 outlet~;
#X obj 90 195 lop~ 18000;
#X obj 90 212 lop~ 18000;
#X obj 506 166 phasor~;
#X obj 507 189 expr~ if($v1>$v2 \, 1 \, -1);
#X obj 507 265 outlet~;
#X obj 507 227 lop~ 18000;
#X obj 507 244 lop~ 18000;
#X obj 174 139 expr~ 2*(2*($v1-0.5))/(1-(2*($v1-0.5)));
#X obj 90 163 expr~ (1+$v2)*$v1/(1+$v2*abs($v1));
#X obj 175 117 clip~ 0.01 0.99;
#X obj 710 120 phasor~;
#X obj 700 287 outlet~;
#X obj 700 249 lop~ 18000;
#X obj 700 266 lop~ 18000;
#X obj 837 154 expr~ if($v1<$v2 \, 1 \, 0);
#X obj 949 176 expr~ 1-$v1;
#X obj 700 202 expr~ 2*($v3*($v1/($v2+0.00001))+($v4*((1-$v1))/(1-$v2+0.00001)))-1, f 67;
#X connect 1 0 7 0;
#X connect 1 0 3 0;
#X connect 1 0 15 0;
#X connect 2 0 8 1;
#X connect 2 0 14 0;
#X connect 2 0 19 1;
#X connect 2 0 21 1;
#X connect 3 0 13 0;
#X connect 5 0 6 0;
#X connect 6 0 4 0;
#X connect 7 0 8 0;
#X connect 8 0 10 0;
#X connect 10 0 11 0;
#X connect 11 0 9 0;
#X connect 12 0 13 1;
#X connect 13 0 5 0;
#X connect 14 0 12 0;
#X connect 15 0 19 0;
#X connect 15 0 21 0;
#X connect 17 0 18 0;
#X connect 18 0 16 0;
#X connect 19 0 20 0;
#X connect 19 0 21 2;
#X connect 20 0 21 3;
#X connect 21 0 17 0;
#X restore 307 405 pd oscillators;
#X obj 353 466 outlet~;
#X obj 419 465 outlet~;
#X obj 462 350 clip~ 0 1;
#X msg 387 346 \$1 50;
#X obj 387 367 line~;
#X obj 387 327 r \$0-shape;
#X obj 561 196 sel 0 1 2;
#X obj 561 177 r \$0-range;
#X msg 630 220 0.1;
#X msg 596 220 10;
#X msg 561 220 100;
#X obj 543 272 *~;
#X obj 44 26 declare -path moonlib;
#X connect 2 0 40 0;
#X connect 3 0 4 0;
#X connect 4 0 18 1;
#X connect 5 0 54 0;
#X connect 6 0 7 0;
#X connect 7 0 5 0;
#X connect 9 0 10 0;
#X connect 10 0 4 1;
#X connect 14 0 6 0;
#X connect 15 0 9 0;
#X connect 16 0 45 0;
#X connect 18 0 42 0;
#X connect 19 0 20 0;
#X connect 20 0 5 1;
#X connect 21 0 19 0;
#X connect 22 0 18 0;
#X connect 23 0 18 0;
#X connect 24 0 23 1;
#X connect 25 0 22 1;
#X connect 25 0 24 0;
#X connect 27 0 35 0;
#X connect 28 0 27 0;
#X connect 28 1 27 1;
#X connect 31 0 28 0;
#X connect 32 0 27 0;
#X connect 34 0 41 0;
#X connect 34 1 39 0;
#X connect 34 2 38 0;
#X connect 35 0 30 0;
#X connect 36 0 34 0;
#X connect 37 0 35 0;
#X connect 37 1 35 1;
#X connect 38 0 37 0;
#X connect 39 0 37 0;
#X connect 40 0 22 0;
#X connect 41 0 37 0;
#X connect 42 0 8 0;
#X connect 42 1 43 0;
#X connect 42 2 44 0;
#X connect 45 0 42 1;
#X connect 46 0 47 0;
#X connect 47 0 42 1;
#X connect 48 0 46 0;
#X connect 49 0 53 0;
#X connect 49 1 52 0;
#X connect 49 2 51 0;
#X connect 50 0 49 0;
#X connect 51 0 54 1;
#X connect 52 0 54 1;
#X connect 53 0 54 1;
#X connect 54 0 23 0;
#X coords 0 -1 1 1 50 150 2 100 100;
