#N canvas 131 235 860 710 10;
#X obj 430 67 oscparse;
#X obj 430 131 list fromsymbol;
#X obj 430 154 - 48;
#X obj 430 180 s \$0-page;
#X obj 430 107 unpack s s;
#X obj 506 156 list fromsymbol;
#X obj 506 201 s \$0-toggle;
#X obj 506 178 i \$1;
#X obj 111 36 loadbang;
#X obj 111 59 f \$1;
#X msg 111 107 listen \$1;
#X obj 111 83 expr if($f1==0 \, 8000 \, $f1);
#X obj 430 45 netreceive -u -b;
#X obj 59 329 outlet message;
#X obj 322 330 outlet raw;
#X obj 180 330 outlet message_set;
#X obj 59 279 route set;
#N canvas 118 244 859 512 decoder 0;
#X obj 237 112 spigot;
#X obj 60 166 spigot;
#X obj 287 95 == 3;
#X obj 60 188 unpack s s f;
#X obj 109 149 < 3;
#X obj 237 134 unpack s s f f;
#X obj 61 257 pack f s f;
#X obj 59 232 f \$1;
#X msg 61 280 set \$3 \$2 \$1;
#X obj 59 211 del 1;
#X obj 109 127 r \$0-page;
#X obj 287 73 r \$0-page;
#X obj 237 206 pack f f s f;
#X obj 237 180 f \$1;
#X obj 237 159 del 1;
#X msg 180 334 set \$4 \$3 \$1 \$2;
#X obj 439 183 spigot;
#X obj 636 113 r \$0-page;
#X obj 439 252 f \$1;
#X obj 439 231 del 1;
#X obj 489 166 == 4;
#X obj 439 206 unpack s s s s f;
#X obj 493 231 unpack s;
#X obj 493 253 list fromsymbol;
#X obj 439 351 pack f s f f f;
#X obj 534 278 unpack s;
#X obj 534 302 list fromsymbol;
#X msg 439 374 set \$5 \$2 \$3 \$4 \$1;
#X obj 493 275 - 48;
#X obj 534 324 - 48;
#X obj 180 311 spigot;
#X obj 269 248 r \$0-toggle;
#X obj 302 313 spigot;
#X obj 219 290 != 116;
#X obj 341 292 == 116;
#X msg 302 335 set \$4 \$3 \$1;
#X obj 439 162 spigot;
#X obj 478 141 != 116;
#X obj 687 73 r \$0-toggle;
#X obj 663 339 f \$1;
#X obj 663 318 del 1;
#X obj 663 361 pack f s f;
#X msg 663 384 set \$3 \$2 \$1;
#X obj 663 293 unpack s s f;
#X obj 663 272 spigot;
#X obj 713 255 == 4;
#X obj 663 250 spigot;
#X obj 702 229 == 116;
#X obj 402 2 inlet;
#X obj 337 449 outlet;
#X connect 0 0 5 0;
#X connect 1 0 3 0;
#X connect 2 0 0 1;
#X connect 3 1 6 1;
#X connect 3 2 9 0;
#X connect 3 2 7 1;
#X connect 4 0 1 1;
#X connect 5 1 12 2;
#X connect 5 2 14 0;
#X connect 5 2 13 1;
#X connect 5 3 12 1;
#X connect 6 0 8 0;
#X connect 7 0 6 0;
#X connect 8 0 49 0;
#X connect 9 0 7 0;
#X connect 10 0 4 0;
#X connect 10 0 6 2;
#X connect 11 0 2 0;
#X connect 11 0 12 3;
#X connect 12 0 30 0;
#X connect 12 0 32 0;
#X connect 13 0 12 0;
#X connect 14 0 13 0;
#X connect 15 0 49 0;
#X connect 16 0 21 0;
#X connect 17 0 20 0;
#X connect 17 0 24 4;
#X connect 17 0 41 2;
#X connect 17 0 45 0;
#X connect 18 0 24 0;
#X connect 19 0 18 0;
#X connect 20 0 16 1;
#X connect 21 1 24 1;
#X connect 21 2 22 0;
#X connect 21 3 25 0;
#X connect 21 4 19 0;
#X connect 21 4 18 1;
#X connect 22 0 23 0;
#X connect 23 0 28 0;
#X connect 24 0 27 0;
#X connect 25 0 26 0;
#X connect 26 0 29 0;
#X connect 27 0 49 0;
#X connect 28 0 24 2;
#X connect 29 0 24 3;
#X connect 30 0 15 0;
#X connect 31 0 33 0;
#X connect 31 0 34 0;
#X connect 32 0 35 0;
#X connect 33 0 30 1;
#X connect 34 0 32 1;
#X connect 35 0 49 0;
#X connect 36 0 16 0;
#X connect 37 0 36 1;
#X connect 38 0 37 0;
#X connect 38 0 47 0;
#X connect 39 0 41 0;
#X connect 40 0 39 0;
#X connect 41 0 42 0;
#X connect 42 0 49 0;
#X connect 43 1 41 1;
#X connect 43 2 40 0;
#X connect 43 2 39 1;
#X connect 44 0 43 0;
#X connect 45 0 44 1;
#X connect 46 0 44 0;
#X connect 47 0 46 1;
#X connect 48 0 1 0;
#X connect 48 0 0 0;
#X connect 48 0 36 0;
#X connect 48 0 46 0;
#X restore 59 248 pd decoder;
#X obj 430 17 inlet;
#X connect 0 0 4 0;
#X connect 0 0 14 0;
#X connect 0 0 17 0;
#X connect 1 0 2 0;
#X connect 2 0 3 0;
#X connect 4 0 1 0;
#X connect 4 1 5 0;
#X connect 5 0 7 0;
#X connect 7 0 6 0;
#X connect 8 0 9 0;
#X connect 9 0 11 0;
#X connect 10 0 12 0;
#X connect 11 0 10 0;
#X connect 12 0 0 0;
#X connect 16 0 13 0;
#X connect 17 0 16 0;
#X connect 17 0 15 0;
#X connect 18 0 12 0;
