#N canvas 488 305 450 300 10;
#X obj 101 62 inlet~ IN1;
#X obj 291 60 inlet~ IN2;
#X obj 203 60 inlet sw;
#X obj 95 209 outlet~ OUT1;
#X obj 269 210 outlet~ OUT2;
#X obj 180 97 == 0;
#X obj 226 97 == 1;
#X obj 101 149 *~ 1;
#X obj 151 142 *~ 0;
#X obj 311 144 *~ 1;
#X obj 252 145 *~ 0;
#X connect 0 0 7 0;
#X connect 0 0 8 0;
#X connect 1 0 9 0;
#X connect 1 0 10 0;
#X connect 2 0 5 0;
#X connect 2 0 6 0;
#X connect 5 0 7 1;
#X connect 5 0 9 1;
#X connect 6 0 8 1;
#X connect 6 0 10 1;
#X connect 7 0 3 0;
#X connect 8 0 4 0;
#X connect 9 0 4 0;
#X connect 10 0 3 0;
