#N canvas 325 208 838 656 10;
#X obj 227 56 inlet;
#X obj 298 264 vline~;
#X obj 350 72 inlet;
#X obj 403 72 inlet;
#X obj 459 72 inlet;
#X obj 520 72 inlet;
#X obj 227 79 sel 1 0;
#X obj 389 207 pack f f f;
#X msg 298 238 1 \$1 \, \$3 \$2 \$1;
#X msg 284 218 0 \$1;
#X obj 298 297 outlet~;
#X obj 366 180 f \$1;
#X obj 419 147 f \$2;
#X obj 464 148 f \$3;
#X obj 284 194 f \$4;
#X obj 118 309 del;
#X obj 136 164 expr if($f1 <= 0 \, 20000 \, $f1);
#X obj 136 142 f \$5;
#X obj 455 184 clip 0 1;
#X obj 309 22 loadbang;
#X msg 206 140 stop;
#X obj 118 109 bang;
#X obj 605 73 inlet;
#X text 346 53 ATTACK__DECAY__SUSTAIN__RELEASE___MAXSUSTIME;
#X obj 475 275 del;
#X obj 461 249 t b f;
#X obj 475 298 outlet;
#X obj 695 62 block~ 1;
#X obj 158 223 +;
#X obj 158 193 t b f;
#X obj 171 276 +;
#X obj 171 246 t b f;
#X obj 272 102 t b b;
#X msg 329 219 0 10;
#X connect 0 0 6 0;
#X connect 1 0 10 0;
#X connect 2 0 11 1;
#X connect 3 0 12 0;
#X connect 4 0 13 0;
#X connect 5 0 14 1;
#X connect 6 0 21 0;
#X connect 6 0 32 0;
#X connect 6 1 14 0;
#X connect 6 1 20 0;
#X connect 7 0 8 0;
#X connect 8 0 1 0;
#X connect 9 0 1 0;
#X connect 11 0 7 0;
#X connect 11 0 29 0;
#X connect 12 0 7 1;
#X connect 12 0 31 0;
#X connect 13 0 18 0;
#X connect 14 0 9 0;
#X connect 14 0 25 0;
#X connect 15 0 14 0;
#X connect 16 0 28 0;
#X connect 17 0 16 0;
#X connect 18 0 7 2;
#X connect 19 0 13 0;
#X connect 19 0 12 0;
#X connect 19 0 17 0;
#X connect 20 0 15 0;
#X connect 21 0 15 0;
#X connect 22 0 16 0;
#X connect 24 0 26 0;
#X connect 25 0 24 0;
#X connect 25 1 24 1;
#X connect 28 0 30 0;
#X connect 29 0 28 0;
#X connect 29 1 28 1;
#X connect 30 0 15 1;
#X connect 31 0 30 0;
#X connect 31 1 30 1;
#X connect 32 0 11 0;
#X connect 32 1 33 0;
#X connect 33 0 1 0;
