#N canvas 399 312 450 425 10;
#X obj 175 203 osc~;
#X obj 175 163 line~;
#X msg 236 162 0.75;
#X obj 194 261 line~;
#X obj 176 310 *~;
#X msg 101 220 1;
#X obj 176 356 outlet~;
#X obj 152 43 t b b;
#X obj 43 88 f \$1;
#X msg 100 138 \$1;
#X obj 265 73 f \$2;
#X obj 152 12 inlet BANG;
#X obj 262 11 inlet PITCH;
#X obj 365 11 inlet DECAY;
#X obj 43 111 expr if ($f1 == 0 \, 100 \, $f1);
#X obj 265 98 expr if ($f1 == 0 \, 100 \, $f1);
#X msg 265 125 0 \$1;
#X connect 0 0 4 0;
#X connect 1 0 0 0;
#X connect 2 0 0 1;
#X connect 3 0 4 1;
#X connect 4 0 6 0;
#X connect 5 0 3 0;
#X connect 7 0 10 0;
#X connect 7 1 2 0;
#X connect 7 1 8 0;
#X connect 8 0 14 0;
#X connect 9 0 1 0;
#X connect 9 0 5 0;
#X connect 10 0 15 0;
#X connect 11 0 7 0;
#X connect 12 0 8 1;
#X connect 13 0 10 1;
#X connect 14 0 9 0;
#X connect 15 0 16 0;
#X connect 16 0 1 0;
#X connect 16 0 3 0;
