#N canvas 349 78 483 554 10;
#X obj 205 165 hip~ 20;
#X obj 74 64 inlet~;
#X obj 205 280 sel 0 1;
#X msg 205 349 0 \$1;
#X msg 244 348 1 \$1;
#X obj 209 67 inlet ATTACK;
#X obj 310 68 inlet DECAY;
#X obj 244 313 f \$1;
#X obj 205 314 f \$2;
#X obj 196 389 line~;
#X obj 67 426 *~;
#X obj 67 500 outlet~;
#X obj 397 68 inlet THRESH;
#X obj 205 229 > \$3;
#X obj 205 256 change;
#X obj 205 194 env~ 64;
#X obj 69 335 delay~ 64;
#X obj 67 458 *~;
#X connect 0 0 15 0;
#X connect 1 0 0 0;
#X connect 1 0 16 0;
#X connect 2 0 8 0;
#X connect 2 1 7 0;
#X connect 3 0 9 0;
#X connect 4 0 9 0;
#X connect 5 0 7 1;
#X connect 6 0 8 1;
#X connect 7 0 4 0;
#X connect 8 0 3 0;
#X connect 9 0 10 1;
#X connect 9 0 17 1;
#X connect 10 0 17 0;
#X connect 12 0 13 1;
#X connect 13 0 14 0;
#X connect 14 0 2 0;
#X connect 15 0 13 0;
#X connect 16 0 10 0;
#X connect 17 0 11 0;
