#N canvas 558 336 510 300 10;
#X obj 217 209 pow;
#X obj 217 182 t b f;
#X obj 187 182 /;
#X obj 232 235 *;
#X obj 185 151 t b f;
#X obj 121 18 inlet;
#X obj 232 263 outlet;
#X obj 220 18 inlet;
#X obj 305 17 inlet;
#X obj 301 56 loadbang;
#X obj 299 149 f \$1;
#X obj 261 91 f \$2;
#X obj 299 179 expr if($f1 <= 0 \, 0.001 \, $f1);
#X obj 261 122 expr if($f1 <= 0 \, 0.001 \, $f1);
#X obj 121 74 clip 0 1;
#X connect 0 0 3 0;
#X connect 1 0 0 0;
#X connect 1 1 0 1;
#X connect 2 0 0 0;
#X connect 3 0 6 0;
#X connect 4 0 2 0;
#X connect 4 1 2 1;
#X connect 4 1 3 1;
#X connect 5 0 14 0;
#X connect 7 0 12 0;
#X connect 8 0 13 0;
#X connect 9 0 10 0;
#X connect 9 0 11 0;
#X connect 10 0 12 0;
#X connect 11 0 13 0;
#X connect 12 0 4 0;
#X connect 13 0 2 0;
#X connect 14 0 1 0;
