#N canvas 376 279 640 590 10;
#X obj 127 341 line~;
#X obj 94 379 *~;
#X obj 94 487 outlet~;
#X obj 260 213 f \$2;
#X obj 48 16 inlet BANG;
#X obj 294 81 inlet DECAY;
#X obj 260 238 expr if ($f1 == 0 \, 100 \, $f1);
#X msg 260 265 0 \$1;
#X obj 94 273 noise~;
#X msg 152 273 1 \$1;
#X obj 187 166 expr if ($f1 == 0 \, 100 \, $f1);
#X obj 187 141 f \$1;
#X obj 204 81 inlet ATTACK;
#X obj 48 47 t b;
#X obj 64 191 del;
#X connect 0 0 1 1;
#X connect 1 0 2 0;
#X connect 3 0 6 0;
#X connect 4 0 13 0;
#X connect 5 0 3 1;
#X connect 6 0 7 0;
#X connect 7 0 0 0;
#X connect 8 0 1 0;
#X connect 9 0 0 0;
#X connect 10 0 9 0;
#X connect 10 0 14 1;
#X connect 11 0 10 0;
#X connect 12 0 11 1;
#X connect 13 0 11 0;
#X connect 13 0 14 0;
#X connect 14 0 3 0;
