#N canvas 662 415 502 230 10;
#X obj 100 22 inlet~;
#X obj 101 156 outlet;
#X obj 101 77 snapshot~;
#X obj 206 119 metro 100;
#X obj 285 81 f \$1;
#X obj 285 102 expr if($f1<=0 \, 100 \, $f1);
#X obj 285 59 loadbang;
#X obj 177 32 route start stop;
#X obj 177 8 inlet;
#X msg 231 68 0;
#X msg 177 68 1;
#X obj 100 100 nbx 5 14 -1e+37 1e+37 0 0 empty empty empty 0 -8 0 10 #606060 #dcdcdc #000000 0 256;
#X connect 0 0 2 0;
#X connect 2 0 11 0;
#X connect 3 0 2 0;
#X connect 4 0 5 0;
#X connect 5 0 3 1;
#X connect 6 0 4 0;
#X connect 6 0 3 0;
#X connect 7 0 10 0;
#X connect 7 1 9 0;
#X connect 7 2 3 0;
#X connect 8 0 7 0;
#X connect 9 0 3 0;
#X connect 10 0 3 0;
#X connect 11 0 1 0;
#X coords 0 -1 1 1 54 14 2 100 100;
