#N canvas 152 106 475 348 10;
#X obj 53 23 inlet~;
#X obj 92 51 +~;
#X obj 53 112 *~;
#X obj 123 23 inlet;
#X obj 173 23 inlet;
#X obj 223 23 inlet;
#X obj 273 23 inlet;
#X obj 54 165 +~;
#X obj 55 197 +~;
#X obj 97 140 *~;
#X obj 162 172 *~;
#X obj 55 298 outlet~;
#X obj 338 23 block~ 64 1 8;
#X obj 163 150 *~;
#X obj 91 75 clip~ -1 1;
#X obj 96 113 *~;
#X obj 55 271 hip~ 10;
#X obj 55 226 lop~ 18000;
#X obj 55 248 lop~ 18000;
#X connect 0 0 1 0;
#X connect 1 0 14 0;
#X connect 2 0 7 0;
#X connect 3 0 1 1;
#X connect 4 0 2 1;
#X connect 5 0 9 1;
#X connect 6 0 10 1;
#X connect 7 0 8 0;
#X connect 8 0 17 0;
#X connect 9 0 7 1;
#X connect 10 0 8 1;
#X connect 13 0 10 0;
#X connect 14 0 2 0;
#X connect 14 0 13 1;
#X connect 14 0 15 0;
#X connect 14 0 15 1;
#X connect 15 0 9 0;
#X connect 15 0 13 0;
#X connect 16 0 11 0;
#X connect 17 0 18 0;
#X connect 18 0 16 0;
