#N canvas 212 72 450 358 10;
#X obj 81 37 route 1 2 3 4 5 6 7 8 9 10 11 12;
#N canvas 234 278 450 300 oscillator 0;
#X obj 45 42 inlet;
#X obj 47 251 outlet~;
#X obj 45 85 unpack;
#X obj 46 114 mtof;
#X obj 46 184 *~;
#X obj 131 96 / 127;
#X obj 131 160 line~;
#X msg 131 128 \$1 100;
#X obj 46 145 phasor~;
#X connect 0 0 2 0;
#X connect 2 0 3 0;
#X connect 2 1 5 0;
#X connect 3 0 8 0;
#X connect 4 0 1 0;
#X connect 5 0 7 0;
#X connect 6 0 4 1;
#X connect 7 0 6 0;
#X connect 8 0 4 0;
#X restore 37 112 pd oscillator;
#N canvas 234 278 450 300 oscillator 0;
#X obj 45 42 inlet;
#X obj 46 249 outlet~;
#X obj 45 85 unpack;
#X obj 46 143 mtof;
#X obj 46 213 *~;
#X obj 131 125 / 127;
#X obj 131 189 line~;
#X msg 131 157 \$1 100;
#X obj 46 174 phasor~;
#X connect 0 0 2 0;
#X connect 2 0 3 0;
#X connect 2 1 5 0;
#X connect 3 0 8 0;
#X connect 4 0 1 0;
#X connect 5 0 7 0;
#X connect 6 0 4 1;
#X connect 7 0 6 0;
#X connect 8 0 4 0;
#X restore 68 134 pd oscillator;
#X obj 210 309 outlet~;
#N canvas 234 278 450 300 oscillator 0;
#X obj 45 42 inlet;
#X obj 47 251 outlet~;
#X obj 45 85 unpack;
#X obj 46 143 mtof;
#X obj 46 213 *~;
#X obj 131 125 / 127;
#X obj 131 189 line~;
#X msg 131 157 \$1 100;
#X obj 46 174 phasor~;
#X connect 0 0 2 0;
#X connect 2 0 3 0;
#X connect 2 1 5 0;
#X connect 3 0 8 0;
#X connect 4 0 1 0;
#X connect 5 0 7 0;
#X connect 6 0 4 1;
#X connect 7 0 6 0;
#X connect 8 0 4 0;
#X restore 104 156 pd oscillator;
#N canvas 234 278 450 300 oscillator 0;
#X obj 45 42 inlet;
#X obj 47 251 outlet~;
#X obj 45 85 unpack;
#X obj 46 143 mtof;
#X obj 46 213 *~;
#X obj 131 125 / 127;
#X obj 131 189 line~;
#X msg 131 157 \$1 100;
#X obj 46 174 phasor~;
#X connect 0 0 2 0;
#X connect 2 0 3 0;
#X connect 2 1 5 0;
#X connect 3 0 8 0;
#X connect 4 0 1 0;
#X connect 5 0 7 0;
#X connect 6 0 4 1;
#X connect 7 0 6 0;
#X connect 8 0 4 0;
#X restore 139 178 pd oscillator;
#N canvas 234 278 450 300 oscillator 0;
#X obj 45 42 inlet;
#X obj 47 251 outlet~;
#X obj 45 85 unpack;
#X obj 46 143 mtof;
#X obj 46 213 *~;
#X obj 131 125 / 127;
#X obj 131 189 line~;
#X msg 131 157 \$1 100;
#X obj 46 174 phasor~;
#X connect 0 0 2 0;
#X connect 2 0 3 0;
#X connect 2 1 5 0;
#X connect 3 0 8 0;
#X connect 4 0 1 0;
#X connect 5 0 7 0;
#X connect 6 0 4 1;
#X connect 7 0 6 0;
#X connect 8 0 4 0;
#X restore 150 111 pd oscillator;
#N canvas 234 278 450 300 oscillator 0;
#X obj 45 42 inlet;
#X obj 47 251 outlet~;
#X obj 45 85 unpack;
#X obj 46 143 mtof;
#X obj 46 213 *~;
#X obj 131 125 / 127;
#X obj 131 189 line~;
#X msg 131 157 \$1 100;
#X obj 46 174 phasor~;
#X connect 0 0 2 0;
#X connect 2 0 3 0;
#X connect 2 1 5 0;
#X connect 3 0 8 0;
#X connect 4 0 1 0;
#X connect 5 0 7 0;
#X connect 6 0 4 1;
#X connect 7 0 6 0;
#X connect 8 0 4 0;
#X restore 181 133 pd oscillator;
#N canvas 234 278 450 300 oscillator 0;
#X obj 45 42 inlet;
#X obj 47 251 outlet~;
#X obj 45 85 unpack;
#X obj 46 143 mtof;
#X obj 46 213 *~;
#X obj 131 125 / 127;
#X obj 131 189 line~;
#X msg 131 157 \$1 100;
#X obj 46 174 phasor~;
#X connect 0 0 2 0;
#X connect 2 0 3 0;
#X connect 2 1 5 0;
#X connect 3 0 8 0;
#X connect 4 0 1 0;
#X connect 5 0 7 0;
#X connect 6 0 4 1;
#X connect 7 0 6 0;
#X connect 8 0 4 0;
#X restore 217 155 pd oscillator;
#N canvas 234 278 450 300 oscillator 0;
#X obj 45 42 inlet;
#X obj 47 251 outlet~;
#X obj 45 85 unpack;
#X obj 46 143 mtof;
#X obj 46 213 *~;
#X obj 131 125 / 127;
#X obj 131 189 line~;
#X msg 131 157 \$1 100;
#X obj 46 174 phasor~;
#X connect 0 0 2 0;
#X connect 2 0 3 0;
#X connect 2 1 5 0;
#X connect 3 0 8 0;
#X connect 4 0 1 0;
#X connect 5 0 7 0;
#X connect 6 0 4 1;
#X connect 7 0 6 0;
#X connect 8 0 4 0;
#X restore 252 177 pd oscillator;
#N canvas 234 278 450 300 oscillator 0;
#X obj 45 42 inlet;
#X obj 47 251 outlet~;
#X obj 45 85 unpack;
#X obj 46 143 mtof;
#X obj 46 213 *~;
#X obj 131 125 / 127;
#X obj 131 189 line~;
#X msg 131 157 \$1 100;
#X obj 46 174 phasor~;
#X connect 0 0 2 0;
#X connect 2 0 3 0;
#X connect 2 1 5 0;
#X connect 3 0 8 0;
#X connect 4 0 1 0;
#X connect 5 0 7 0;
#X connect 6 0 4 1;
#X connect 7 0 6 0;
#X connect 8 0 4 0;
#X restore 267 109 pd oscillator;
#N canvas 234 278 450 300 oscillator 0;
#X obj 45 42 inlet;
#X obj 47 251 outlet~;
#X obj 45 85 unpack;
#X obj 46 143 mtof;
#X obj 46 213 *~;
#X obj 131 125 / 127;
#X obj 131 189 line~;
#X msg 131 157 \$1 100;
#X obj 46 174 phasor~;
#X connect 0 0 2 0;
#X connect 2 0 3 0;
#X connect 2 1 5 0;
#X connect 3 0 8 0;
#X connect 4 0 1 0;
#X connect 5 0 7 0;
#X connect 6 0 4 1;
#X connect 7 0 6 0;
#X connect 8 0 4 0;
#X restore 298 131 pd oscillator;
#N canvas 234 278 450 300 oscillator 0;
#X obj 45 42 inlet;
#X obj 47 251 outlet~;
#X obj 45 85 unpack;
#X obj 46 143 mtof;
#X obj 46 213 *~;
#X obj 131 125 / 127;
#X obj 131 189 line~;
#X msg 131 157 \$1 100;
#X obj 45 174 phasor~;
#X connect 0 0 2 0;
#X connect 2 0 3 0;
#X connect 2 1 5 0;
#X connect 3 0 8 0;
#X connect 4 0 1 0;
#X connect 5 0 7 0;
#X connect 6 0 4 1;
#X connect 7 0 6 0;
#X connect 8 0 4 0;
#X restore 334 153 pd oscillator;
#N canvas 234 278 450 300 oscillator 0;
#X obj 45 42 inlet;
#X obj 47 251 outlet~;
#X obj 45 85 unpack;
#X obj 46 143 mtof;
#X obj 46 213 *~;
#X obj 131 125 / 127;
#X obj 131 189 line~;
#X msg 131 157 \$1 100;
#X obj 46 174 phasor~;
#X connect 0 0 2 0;
#X connect 2 0 3 0;
#X connect 2 1 5 0;
#X connect 3 0 8 0;
#X connect 4 0 1 0;
#X connect 5 0 7 0;
#X connect 6 0 4 1;
#X connect 7 0 6 0;
#X connect 8 0 4 0;
#X restore 369 175 pd oscillator;
#X obj 106 7 inlet;
#X connect 0 0 1 0;
#X connect 0 1 2 0;
#X connect 0 2 4 0;
#X connect 0 3 5 0;
#X connect 0 4 6 0;
#X connect 0 5 7 0;
#X connect 0 6 8 0;
#X connect 0 7 9 0;
#X connect 0 8 10 0;
#X connect 0 9 11 0;
#X connect 0 10 12 0;
#X connect 0 11 13 0;
#X connect 1 0 3 0;
#X connect 2 0 3 0;
#X connect 4 0 3 0;
#X connect 5 0 3 0;
#X connect 6 0 3 0;
#X connect 7 0 3 0;
#X connect 8 0 3 0;
#X connect 9 0 3 0;
#X connect 10 0 3 0;
#X connect 11 0 3 0;
#X connect 12 0 3 0;
#X connect 13 0 3 0;
#X connect 14 0 0 0;
