#N canvas 0 50 450 300 12;
#X obj 25 9 inlet~;
#X obj 386 7 inlet;
#X obj 386 33 switch~;
#X obj 26 46 delwrite~ flanger 100;
#X obj 121 214 delread4~ flanger;
#X obj 153 171 * 2;
#X obj 121 147 osc~;
#X obj 121 171 *~;
#X obj 121 192 +~;
#X obj 112 9 inlet rate;
#X obj 211 8 inlet depth;
#X obj 122 261 outlet~;
#X obj 78 119 *~;
#X obj 292 7 inlet regen;
#X obj 93 88 clip -0.99 0.99;
#X obj 17 100 hip~ 5;
#X connect 0 0 3 0;
#X connect 1 0 2 0;
#X connect 4 0 11 0;
#X connect 4 0 12 0;
#X connect 5 0 8 1;
#X connect 6 0 7 0;
#X connect 7 0 8 0;
#X connect 8 0 4 0;
#X connect 9 0 6 0;
#X connect 10 0 7 1;
#X connect 10 0 5 0;
#X connect 12 0 15 0;
#X connect 13 0 14 0;
#X connect 14 0 12 1;
#X connect 15 0 3 0;
