#N canvas 220 44 713 634 10;
#X obj 422 79 adc~ 1 2;
#X obj 417 516 dac~ 1 2;
#X obj 399 424 hip~;
#X obj 382 391 +~;
#X obj 399 445 *~;
#X obj 503 423 hip~;
#X obj 486 390 +~;
#X obj 503 444 *~;
#X obj 356 136 delwrite~ \$0-chL 20;
#X obj 492 136 delwrite~ \$0-chR 20;
#X obj 382 366 vd~ \$0-chL;
#X obj 486 367 vd~ \$0-chR;
#X obj 109 115 hsl 128 15 -1 1 0 0 empty \$0-position Position 35 -8
0 10 -262144 -1 -1 6350 1;
#X obj 109 143 hsl 128 15 1000 10000 1 0 empty \$0-freq Crossover_Hz
0 -8 0 10 -262144 -1 -1 3823 1;
#X obj 109 172 hsl 128 15 0 100 0 0 empty \$0-separation Separation_%
0 -8 0 10 -262144 -1 -1 3810 1;
#X text 107 101 L;
#X text 232 101 R;
#X obj 485 199 pack 0 50;
#X obj 485 177 change;
#X obj 485 222 line;
#X obj 419 230 pack 0 50;
#X obj 419 178 change;
#X obj 419 253 line~;
#X obj 348 216 pack 0 50;
#X obj 348 194 change;
#X obj 348 239 line~;
#X obj 382 321 clip~ 0 1;
#X obj 486 322 clip~ -1 0;
#X obj 382 344 *~ 20;
#X obj 486 345 *~ -20;
#X obj 456 402 *~;
#X obj 419 204 / 100;
#X obj 382 472 -~;
#X obj 486 471 +~;
#X connect 0 0 8 0;
#X connect 0 1 9 0;
#X connect 2 0 4 0;
#X connect 3 0 2 0;
#X connect 3 0 32 0;
#X connect 4 0 32 1;
#X connect 5 0 7 0;
#X connect 6 0 5 0;
#X connect 6 0 33 0;
#X connect 7 0 33 1;
#X connect 10 0 3 0;
#X connect 11 0 6 0;
#X connect 12 0 24 0;
#X connect 13 0 18 0;
#X connect 14 0 21 0;
#X connect 17 0 19 0;
#X connect 18 0 17 0;
#X connect 19 0 2 1;
#X connect 19 0 5 1;
#X connect 20 0 22 0;
#X connect 21 0 31 0;
#X connect 22 0 30 1;
#X connect 23 0 25 0;
#X connect 24 0 23 0;
#X connect 25 0 27 0;
#X connect 25 0 26 0;
#X connect 25 0 30 0;
#X connect 26 0 28 0;
#X connect 27 0 29 0;
#X connect 28 0 10 0;
#X connect 29 0 11 0;
#X connect 30 0 7 1;
#X connect 30 0 4 1;
#X connect 31 0 20 0;
#X connect 32 0 1 0;
#X connect 33 0 1 1;
#X coords 0 -1 1 1 150 100 2 100 100;
