#N canvas 607 72 629 603 10;
#X obj 468 283 adc~ 1 2;
#X obj 439 517 dac~ 1 2, f 13;
#X obj 57 235 change;
#X msg 57 281 \$1 50;
#X obj 57 259 / 100;
#X obj 162 241 change;
#X obj 56 394 line;
#X msg 56 375 \$1 50;
#X obj 283 76 change;
#X msg 283 99 \$1 50;
#X obj 110 117 hsl 128 15 0.05 5 0 0 empty \$0-rate Rate_Hz 3 -8 0
10 -262144 -1 -1 0 1;
#X obj 110 144 hsl 128 15 0 100 0 0 empty \$0-depth Depth_% 3 -8 0
10 -262144 -1 -1 0 1;
#X obj 110 171 hsl 128 15 0 100 0 0 empty \$0-color Color_% 3 -8 0
10 -262144 -1 -1 0 1;
#X obj 57 300 line~;
#X obj 283 118 line~;
#X obj 284 224 *~ 0.15;
#X obj 284 244 +~ 0.82;
#X obj 284 164 /~ 2;
#X obj 284 184 osc~ 0.6;
#N canvas 79 119 529 548 phasingL 0;
#N canvas 531 241 450 300 stage 0;
#X obj 132 86 rpole~;
#X obj 132 61 rzero_rev~;
#X obj 131 28 inlet~;
#X obj 131 172 outlet~;
#X obj 293 26 inlet~ pz;
#X connect 0 0 3 0;
#X connect 1 0 0 0;
#X connect 2 0 1 0;
#X connect 4 0 1 1;
#X connect 4 0 0 1;
#X restore 76 118 pd stage;
#X obj 37 439 *~;
#X msg 52 396 \$1 50;
#X obj 52 415 line~;
#N canvas 531 241 450 300 stage 0;
#X obj 132 86 rpole~;
#X obj 132 61 rzero_rev~;
#X obj 131 28 inlet~;
#X obj 131 172 outlet~;
#X obj 293 26 inlet~ pz;
#X connect 0 0 3 0;
#X connect 1 0 0 0;
#X connect 2 0 1 0;
#X connect 4 0 1 1;
#X connect 4 0 0 1;
#X restore 106 148 pd stage;
#N canvas 531 241 450 300 stage 0;
#X obj 132 86 rpole~;
#X obj 132 61 rzero_rev~;
#X obj 131 28 inlet~;
#X obj 131 172 outlet~;
#X obj 293 26 inlet~ pz;
#X connect 0 0 3 0;
#X connect 1 0 0 0;
#X connect 2 0 1 0;
#X connect 4 0 1 1;
#X connect 4 0 0 1;
#X restore 136 178 pd stage;
#N canvas 531 241 450 300 stage 0;
#X obj 132 86 rpole~;
#X obj 132 61 rzero_rev~;
#X obj 131 28 inlet~;
#X obj 131 172 outlet~;
#X obj 293 26 inlet~ pz;
#X connect 0 0 3 0;
#X connect 1 0 0 0;
#X connect 2 0 1 0;
#X connect 4 0 1 1;
#X connect 4 0 0 1;
#X restore 166 208 pd stage;
#N canvas 531 241 450 300 stage 0;
#X obj 132 86 rpole~;
#X obj 132 61 rzero_rev~;
#X obj 131 28 inlet~;
#X obj 131 172 outlet~;
#X obj 293 26 inlet~ pz;
#X connect 0 0 3 0;
#X connect 1 0 0 0;
#X connect 2 0 1 0;
#X connect 4 0 1 1;
#X connect 4 0 0 1;
#X restore 196 238 pd stage;
#N canvas 531 241 450 300 stage 0;
#X obj 132 86 rpole~;
#X obj 132 61 rzero_rev~;
#X obj 131 28 inlet~;
#X obj 131 172 outlet~;
#X obj 293 26 inlet~ pz;
#X connect 0 0 3 0;
#X connect 1 0 0 0;
#X connect 2 0 1 0;
#X connect 4 0 1 1;
#X connect 4 0 0 1;
#X restore 226 268 pd stage;
#N canvas 531 241 450 300 stage 0;
#X obj 132 86 rpole~;
#X obj 132 61 rzero_rev~;
#X obj 131 28 inlet~;
#X obj 131 172 outlet~;
#X obj 293 26 inlet~ pz;
#X connect 0 0 3 0;
#X connect 1 0 0 0;
#X connect 2 0 1 0;
#X connect 4 0 1 1;
#X connect 4 0 0 1;
#X restore 256 298 pd stage;
#N canvas 531 241 450 300 stage 0;
#X obj 132 86 rpole~;
#X obj 132 61 rzero_rev~;
#X obj 131 28 inlet~;
#X obj 131 172 outlet~;
#X obj 293 26 inlet~ pz;
#X connect 0 0 3 0;
#X connect 1 0 0 0;
#X connect 2 0 1 0;
#X connect 4 0 1 1;
#X connect 4 0 0 1;
#X restore 286 328 pd stage;
#X obj 77 439 *~;
#X msg 92 396 \$1 50;
#X obj 92 415 line~;
#X obj 117 439 *~;
#X msg 132 396 \$1 50;
#X obj 132 415 line~;
#X obj 157 439 *~;
#X msg 172 396 \$1 50;
#X obj 172 415 line~;
#X obj 197 439 *~;
#X msg 212 396 \$1 50;
#X obj 212 415 line~;
#X obj 237 439 *~;
#X msg 252 396 \$1 50;
#X obj 252 415 line~;
#X obj 277 438 *~;
#X msg 292 397 \$1 50;
#X obj 317 439 *~;
#X msg 332 396 \$1 50;
#X obj 332 415 line~;
#X obj 78 57 inlet~;
#X obj 276 49 inlet~;
#X obj 181 478 outlet~;
#X obj 411 50 inlet;
#N canvas 531 241 450 300 stage 0;
#X obj 132 86 rpole~;
#X obj 132 61 rzero_rev~;
#X obj 131 28 inlet~;
#X obj 131 172 outlet~;
#X obj 293 26 inlet~ pz;
#X connect 0 0 3 0;
#X connect 1 0 0 0;
#X connect 2 0 1 0;
#X connect 4 0 1 1;
#X connect 4 0 0 1;
#X restore 347 295 pd stage;
#N canvas 531 241 450 300 stage 0;
#X obj 132 86 rpole~;
#X obj 132 61 rzero_rev~;
#X obj 131 28 inlet~;
#X obj 131 172 outlet~;
#X obj 293 26 inlet~ pz;
#X connect 0 0 3 0;
#X connect 1 0 0 0;
#X connect 2 0 1 0;
#X connect 4 0 1 1;
#X connect 4 0 0 1;
#X restore 377 325 pd stage;
#N canvas 531 241 450 300 stage 0;
#X obj 132 86 rpole~;
#X obj 132 61 rzero_rev~;
#X obj 131 28 inlet~;
#X obj 131 172 outlet~;
#X obj 293 26 inlet~ pz;
#X connect 0 0 3 0;
#X connect 1 0 0 0;
#X connect 2 0 1 0;
#X connect 4 0 1 1;
#X connect 4 0 0 1;
#X restore 426 295 pd stage;
#N canvas 531 241 450 300 stage 0;
#X obj 132 86 rpole~;
#X obj 132 61 rzero_rev~;
#X obj 131 28 inlet~;
#X obj 131 172 outlet~;
#X obj 293 26 inlet~ pz;
#X connect 0 0 3 0;
#X connect 1 0 0 0;
#X connect 2 0 1 0;
#X connect 4 0 1 1;
#X connect 4 0 0 1;
#X restore 456 325 pd stage;
#X obj 292 418 line~;
#X obj 52 376 == 0;
#X obj 93 375 == 1;
#X obj 132 376 == 2;
#X obj 172 376 == 3;
#X obj 212 376 == 4;
#X obj 252 376 == 5;
#X obj 292 376 == 6;
#X obj 332 376 == 7;
#X connect 0 0 4 0;
#X connect 0 0 1 0;
#X connect 1 0 33 0;
#X connect 2 0 3 0;
#X connect 3 0 1 1;
#X connect 4 0 5 0;
#X connect 4 0 11 0;
#X connect 5 0 6 0;
#X connect 5 0 14 0;
#X connect 6 0 7 0;
#X connect 6 0 17 0;
#X connect 7 0 8 0;
#X connect 8 0 9 0;
#X connect 8 0 20 0;
#X connect 9 0 10 0;
#X connect 10 0 23 0;
#X connect 10 0 35 0;
#X connect 11 0 33 0;
#X connect 12 0 13 0;
#X connect 13 0 11 1;
#X connect 14 0 33 0;
#X connect 15 0 16 0;
#X connect 16 0 14 1;
#X connect 17 0 33 0;
#X connect 18 0 19 0;
#X connect 19 0 17 1;
#X connect 20 0 33 0;
#X connect 21 0 22 0;
#X connect 22 0 20 1;
#X connect 23 0 33 0;
#X connect 24 0 25 0;
#X connect 25 0 23 1;
#X connect 26 0 33 0;
#X connect 27 0 39 0;
#X connect 28 0 33 0;
#X connect 29 0 30 0;
#X connect 30 0 28 1;
#X connect 31 0 0 0;
#X connect 32 0 0 1;
#X connect 32 0 10 1;
#X connect 32 0 9 1;
#X connect 32 0 8 1;
#X connect 32 0 7 1;
#X connect 32 0 6 1;
#X connect 32 0 5 1;
#X connect 32 0 4 1;
#X connect 32 0 35 1;
#X connect 32 0 38 1;
#X connect 32 0 37 1;
#X connect 32 0 36 1;
#X connect 34 0 40 0;
#X connect 34 0 41 0;
#X connect 34 0 42 0;
#X connect 34 0 43 0;
#X connect 34 0 44 0;
#X connect 34 0 45 0;
#X connect 34 0 46 0;
#X connect 34 0 47 0;
#X connect 35 0 36 0;
#X connect 36 0 37 0;
#X connect 36 0 26 0;
#X connect 37 0 38 0;
#X connect 38 0 28 0;
#X connect 39 0 26 1;
#X connect 40 0 2 0;
#X connect 41 0 12 0;
#X connect 42 0 15 0;
#X connect 43 0 18 0;
#X connect 44 0 21 0;
#X connect 45 0 24 0;
#X connect 46 0 27 0;
#X connect 47 0 29 0;
#X restore 285 356 pd phasingL;
#N canvas 480 168 529 525 phasingR 0;
#N canvas 531 241 450 300 stage 0;
#X obj 132 86 rpole~;
#X obj 132 61 rzero_rev~;
#X obj 131 28 inlet~;
#X obj 131 172 outlet~;
#X obj 293 26 inlet~ pz;
#X connect 0 0 3 0;
#X connect 1 0 0 0;
#X connect 2 0 1 0;
#X connect 4 0 1 1;
#X connect 4 0 0 1;
#X restore 100 86 pd stage;
#X obj 61 407 *~;
#X msg 76 364 \$1 50;
#X obj 76 383 line~;
#N canvas 531 241 450 300 stage 0;
#X obj 132 86 rpole~;
#X obj 132 61 rzero_rev~;
#X obj 131 28 inlet~;
#X obj 131 172 outlet~;
#X obj 293 26 inlet~ pz;
#X connect 0 0 3 0;
#X connect 1 0 0 0;
#X connect 2 0 1 0;
#X connect 4 0 1 1;
#X connect 4 0 0 1;
#X restore 130 116 pd stage;
#N canvas 531 241 450 300 stage 0;
#X obj 132 86 rpole~;
#X obj 132 61 rzero_rev~;
#X obj 131 28 inlet~;
#X obj 131 172 outlet~;
#X obj 293 26 inlet~ pz;
#X connect 0 0 3 0;
#X connect 1 0 0 0;
#X connect 2 0 1 0;
#X connect 4 0 1 1;
#X connect 4 0 0 1;
#X restore 160 146 pd stage;
#N canvas 531 241 450 300 stage 0;
#X obj 132 86 rpole~;
#X obj 132 61 rzero_rev~;
#X obj 131 28 inlet~;
#X obj 131 172 outlet~;
#X obj 293 26 inlet~ pz;
#X connect 0 0 3 0;
#X connect 1 0 0 0;
#X connect 2 0 1 0;
#X connect 4 0 1 1;
#X connect 4 0 0 1;
#X restore 190 176 pd stage;
#N canvas 531 241 450 300 stage 0;
#X obj 132 86 rpole~;
#X obj 132 61 rzero_rev~;
#X obj 131 28 inlet~;
#X obj 131 172 outlet~;
#X obj 293 26 inlet~ pz;
#X connect 0 0 3 0;
#X connect 1 0 0 0;
#X connect 2 0 1 0;
#X connect 4 0 1 1;
#X connect 4 0 0 1;
#X restore 220 206 pd stage;
#N canvas 531 241 450 300 stage 0;
#X obj 132 86 rpole~;
#X obj 132 61 rzero_rev~;
#X obj 131 28 inlet~;
#X obj 131 172 outlet~;
#X obj 293 26 inlet~ pz;
#X connect 0 0 3 0;
#X connect 1 0 0 0;
#X connect 2 0 1 0;
#X connect 4 0 1 1;
#X connect 4 0 0 1;
#X restore 250 236 pd stage;
#N canvas 531 241 450 300 stage 0;
#X obj 132 86 rpole~;
#X obj 132 61 rzero_rev~;
#X obj 131 28 inlet~;
#X obj 131 172 outlet~;
#X obj 293 26 inlet~ pz;
#X connect 0 0 3 0;
#X connect 1 0 0 0;
#X connect 2 0 1 0;
#X connect 4 0 1 1;
#X connect 4 0 0 1;
#X restore 280 266 pd stage;
#N canvas 531 241 450 300 stage 0;
#X obj 132 86 rpole~;
#X obj 132 61 rzero_rev~;
#X obj 131 28 inlet~;
#X obj 131 172 outlet~;
#X obj 293 26 inlet~ pz;
#X connect 0 0 3 0;
#X connect 1 0 0 0;
#X connect 2 0 1 0;
#X connect 4 0 1 1;
#X connect 4 0 0 1;
#X restore 310 296 pd stage;
#X obj 101 407 *~;
#X msg 116 364 \$1 50;
#X obj 116 383 line~;
#X obj 141 407 *~;
#X msg 156 364 \$1 50;
#X obj 156 383 line~;
#X obj 181 407 *~;
#X msg 196 364 \$1 50;
#X obj 196 383 line~;
#X obj 221 407 *~;
#X msg 236 364 \$1 50;
#X obj 236 383 line~;
#X obj 261 407 *~;
#X msg 276 364 \$1 50;
#X obj 276 383 line~;
#X obj 301 407 *~;
#X msg 316 360 \$1 50;
#X obj 341 407 *~;
#X msg 356 364 \$1 50;
#X obj 356 383 line~;
#X obj 102 25 inlet~;
#X obj 300 17 inlet~;
#X obj 205 446 outlet~;
#X obj 435 18 inlet;
#N canvas 531 241 450 300 stage 0;
#X obj 132 86 rpole~;
#X obj 132 61 rzero_rev~;
#X obj 131 28 inlet~;
#X obj 131 172 outlet~;
#X obj 293 26 inlet~ pz;
#X connect 0 0 3 0;
#X connect 1 0 0 0;
#X connect 2 0 1 0;
#X connect 4 0 1 1;
#X connect 4 0 0 1;
#X restore 371 263 pd stage;
#N canvas 531 241 450 300 stage 0;
#X obj 132 86 rpole~;
#X obj 132 61 rzero_rev~;
#X obj 131 28 inlet~;
#X obj 131 172 outlet~;
#X obj 293 26 inlet~ pz;
#X connect 0 0 3 0;
#X connect 1 0 0 0;
#X connect 2 0 1 0;
#X connect 4 0 1 1;
#X connect 4 0 0 1;
#X restore 401 293 pd stage;
#N canvas 531 241 450 300 stage 0;
#X obj 132 86 rpole~;
#X obj 132 61 rzero_rev~;
#X obj 131 28 inlet~;
#X obj 131 172 outlet~;
#X obj 293 26 inlet~ pz;
#X connect 0 0 3 0;
#X connect 1 0 0 0;
#X connect 2 0 1 0;
#X connect 4 0 1 1;
#X connect 4 0 0 1;
#X restore 439 263 pd stage;
#N canvas 531 241 450 300 stage 0;
#X obj 132 86 rpole~;
#X obj 132 61 rzero_rev~;
#X obj 131 28 inlet~;
#X obj 131 172 outlet~;
#X obj 293 26 inlet~ pz;
#X connect 0 0 3 0;
#X connect 1 0 0 0;
#X connect 2 0 1 0;
#X connect 4 0 1 1;
#X connect 4 0 0 1;
#X restore 469 293 pd stage;
#X obj 316 383 line~;
#X obj 76 343 == 0;
#X obj 116 344 == 1;
#X obj 156 344 == 2;
#X obj 196 344 == 3;
#X obj 236 344 == 4;
#X obj 276 344 == 5;
#X obj 315 341 == 6;
#X obj 356 344 == 7;
#X connect 0 0 4 0;
#X connect 0 0 1 0;
#X connect 1 0 33 0;
#X connect 2 0 3 0;
#X connect 3 0 1 1;
#X connect 4 0 5 0;
#X connect 4 0 11 0;
#X connect 5 0 6 0;
#X connect 5 0 14 0;
#X connect 6 0 7 0;
#X connect 6 0 17 0;
#X connect 7 0 8 0;
#X connect 8 0 9 0;
#X connect 8 0 20 0;
#X connect 9 0 10 0;
#X connect 10 0 23 0;
#X connect 10 0 35 0;
#X connect 11 0 33 0;
#X connect 12 0 13 0;
#X connect 13 0 11 1;
#X connect 14 0 33 0;
#X connect 15 0 16 0;
#X connect 16 0 14 1;
#X connect 17 0 33 0;
#X connect 18 0 19 0;
#X connect 19 0 17 1;
#X connect 20 0 33 0;
#X connect 21 0 22 0;
#X connect 22 0 20 1;
#X connect 23 0 33 0;
#X connect 24 0 25 0;
#X connect 25 0 23 1;
#X connect 26 0 33 0;
#X connect 27 0 39 0;
#X connect 28 0 33 0;
#X connect 29 0 30 0;
#X connect 30 0 28 1;
#X connect 31 0 0 0;
#X connect 32 0 0 1;
#X connect 32 0 10 1;
#X connect 32 0 9 1;
#X connect 32 0 8 1;
#X connect 32 0 7 1;
#X connect 32 0 6 1;
#X connect 32 0 5 1;
#X connect 32 0 4 1;
#X connect 32 0 35 1;
#X connect 32 0 38 1;
#X connect 32 0 37 1;
#X connect 32 0 36 1;
#X connect 34 0 40 0;
#X connect 34 0 41 0;
#X connect 34 0 42 0;
#X connect 34 0 43 0;
#X connect 34 0 44 0;
#X connect 34 0 45 0;
#X connect 34 0 46 0;
#X connect 34 0 47 0;
#X connect 35 0 36 0;
#X connect 36 0 26 0;
#X connect 36 0 37 0;
#X connect 37 0 38 0;
#X connect 38 0 28 0;
#X connect 39 0 26 1;
#X connect 40 0 2 0;
#X connect 41 0 12 0;
#X connect 42 0 15 0;
#X connect 43 0 18 0;
#X connect 44 0 21 0;
#X connect 45 0 24 0;
#X connect 46 0 27 0;
#X connect 47 0 29 0;
#X restore 365 356 pd phasingR;
#X obj 284 408 *~;
#X obj 365 408 *~;
#X obj 284 438 lop~;
#X obj 365 438 lop~;
#X obj 439 486 +~;
#X obj 514 486 +~;
#X obj 350 225 *~ -0.15;
#X obj 351 245 +~ 0.82;
#X obj 284 204 +~;
#X obj 110 192 tgl 15 0 empty \$0-binaural Bin 17 7 0 10 -262144 -1
-1 0 1;
#X obj 323 288 *~;
#X obj 351 287 *~;
#X obj 437 143 change;
#X msg 437 194 \$1 50;
#X obj 437 213 line~;
#X msg 481 193 \$1 50;
#X obj 481 212 line~;
#X obj 437 172 == 0;
#X obj 481 172 == 1;
#X obj 56 353 expr 200*pow((15000/200) \, $f1/100);
#X obj 158 197 hsl 80 15 0 7.9 0 0 empty \$0-stages Stage_X -2 -8 0
10 -262144 -1 -1 0 1;
#X obj 228 261 i;
#X obj 227 285 change;
#X connect 0 0 25 1;
#X connect 0 0 19 0;
#X connect 0 1 20 0;
#X connect 0 1 26 1;
#X connect 2 0 4 0;
#X connect 3 0 13 0;
#X connect 4 0 3 0;
#X connect 5 0 40 0;
#X connect 6 0 23 1;
#X connect 6 0 24 1;
#X connect 7 0 6 0;
#X connect 8 0 9 0;
#X connect 9 0 14 0;
#X connect 10 0 8 0;
#X connect 11 0 2 0;
#X connect 12 0 5 0;
#X connect 13 0 21 1;
#X connect 13 0 22 1;
#X connect 14 0 17 0;
#X connect 15 0 16 0;
#X connect 16 0 31 0;
#X connect 16 0 19 1;
#X connect 17 0 18 0;
#X connect 18 0 29 0;
#X connect 19 0 21 0;
#X connect 20 0 22 0;
#X connect 21 0 23 0;
#X connect 22 0 24 0;
#X connect 23 0 25 0;
#X connect 24 0 26 0;
#X connect 25 0 1 0;
#X connect 26 0 1 1;
#X connect 27 0 28 0;
#X connect 28 0 32 0;
#X connect 29 0 15 0;
#X connect 29 0 27 0;
#X connect 30 0 33 0;
#X connect 31 0 20 1;
#X connect 32 0 20 1;
#X connect 33 0 38 0;
#X connect 33 0 39 0;
#X connect 34 0 35 0;
#X connect 35 0 31 1;
#X connect 36 0 37 0;
#X connect 37 0 32 1;
#X connect 38 0 34 0;
#X connect 39 0 36 0;
#X connect 40 0 7 0;
#X connect 41 0 42 0;
#X connect 42 0 43 0;
#X connect 43 0 19 2;
#X connect 43 0 20 2;
#X coords 0 -1 1 1 151 120 2 100 100;
