#N canvas 310 251 450 300 10;
#X floatatom 265 111 3 -99 99 0 - - -;
#X obj 150 179 rpole~;
#X obj 260 169 / 100;
#X obj 150 154 rzero_rev~;
#X obj 82 47 inlet~ audioIN;
#X obj 241 79 inlet pole;
#X obj 116 243 outlet~ audioOUT;
#X obj 343 54 loadbang;
#X obj 339 88 f \$1;
#X obj 264 139 clip -100 100;
#X connect 0 0 9 0;
#X connect 1 0 6 0;
#X connect 2 0 3 1;
#X connect 2 0 1 1;
#X connect 3 0 1 0;
#X connect 4 0 3 0;
#X connect 5 0 0 0;
#X connect 7 0 8 0;
#X connect 8 0 0 0;
#X connect 9 0 2 0;
