#N canvas 348 15 866 616 10;
#X obj 505 24 adc~ 1 2;
#X obj 616 99 *~;
#X msg 646 51 \$1 50;
#X obj 646 75 line~;
#X obj 646 29 change;
#X obj 85 58 tgl 15 0 empty \$0-stereo Stereo-IN 17 7 0 10 -262144
-1 -1 0 1;
#X obj 534 345 *~;
#X msg 290 239 \$1 50;
#X obj 290 261 line~;
#X obj 290 201 change;
#X obj 85 115 hsl 128 15 0 100 0 0 empty \$0-feedback Feedback_% -2
-8 0 10 -262144 -1 -1 0 1;
#X obj 290 220 / 100;
#X obj 377 339 *~;
#X obj 418 564 dac~ 1 2, f 30;
#X obj 419 512 *~;
#X obj 85 223 hsl 128 15 0 100 0 0 empty \$0-dry Dry_% -2 -8 0 10 -262144
-1 -1 0 1;
#X msg 317 439 \$1 50;
#X obj 317 458 line~;
#X obj 317 401 change;
#X obj 317 420 / 100;
#X obj 640 508 *~;
#X obj 671 536 *~;
#X msg 701 65 \$1 50;
#X obj 701 84 line~;
#X obj 701 46 == 0;
#X obj 641 537 *~;
#X obj 85 250 hsl 128 15 0 100 0 0 empty \$0-wet Wet_% -2 -8 0 10 -262144
-1 -1 0 1;
#X msg 178 436 \$1 50;
#X obj 178 455 line~;
#X obj 178 398 change;
#X obj 178 417 / 100;
#X obj 205 525 *~;
#X obj 350 526 *~;
#X obj 376 476 throw~ \$0-delL;
#X obj 539 474 throw~ \$0-delR;
#X obj 354 192 catch~ \$0-delR;
#X obj 534 191 catch~ \$0-delL;
#X obj 377 276 -~;
#X obj 395 223 hip~;
#X obj 395 252 *~;
#X obj 534 284 -~;
#X obj 558 226 hip~;
#X obj 558 255 *~;
#X obj 85 142 hsl 128 15 0 100 0 0 empty \$0-damp Damp_% -2 -8 0 10
-262144 -1 -1 0 1;
#X msg 241 338 \$1 50;
#X obj 241 357 line~;
#X obj 241 300 change;
#X obj 241 319 / 100;
#X obj 85 169 hsl 128 15 200 10000 1 0 empty \$0-freq Frequency_Hz
-2 -8 0 10 -262144 -1 -1 0 1;
#X obj 93 333 change;
#X obj 93 379 line;
#X obj 376 448 hip~ 50;
#X obj 539 448 hip~ 50;
#X obj 327 171 *~;
#X obj 392 66 swap 1;
#X obj 392 87 -;
#X obj 392 46 / 100;
#X msg 392 108 \$1 50;
#X obj 392 132 line~;
#X obj 392 27 change;
#X obj 420 171 *~;
#X msg 435 108 \$1 50;
#X obj 435 132 line~;
#X obj 85 196 hsl 128 15 0 100 0 0 empty \$0-pan Pan_% -2 -8 0 10 -262144
-1 -1 0 1;
#X obj 503 171 *~;
#X obj 596 171 *~;
#X obj 85 88 hsl 128 15 30 1000 0 0 empty \$0-time Time_ms -2 -8 0
10 -262144 -1 -1 0 1;
#X obj 376 378 delwrite~ \$0-delayL 1000;
#X obj 537 377 delwrite~ \$0-delayR 1000;
#X obj 84 478 line~;
#X obj 84 438 change;
#X msg 84 459 \$1 500;
#X msg 93 355 \$1 100;
#X obj 376 423 vd~ \$0-delayL;
#X obj 539 422 vd~ \$0-delayR;
#X connect 0 0 14 0;
#X connect 0 0 53 0;
#X connect 0 0 60 0;
#X connect 0 1 1 0;
#X connect 0 1 20 0;
#X connect 1 0 64 0;
#X connect 1 0 65 0;
#X connect 2 0 3 0;
#X connect 3 0 1 1;
#X connect 3 0 25 1;
#X connect 4 0 2 0;
#X connect 4 0 24 0;
#X connect 5 0 4 0;
#X connect 6 0 68 0;
#X connect 7 0 8 0;
#X connect 8 0 6 1;
#X connect 8 0 12 1;
#X connect 9 0 11 0;
#X connect 10 0 9 0;
#X connect 11 0 7 0;
#X connect 12 0 67 0;
#X connect 14 0 13 0;
#X connect 14 0 21 0;
#X connect 15 0 18 0;
#X connect 16 0 17 0;
#X connect 17 0 14 1;
#X connect 17 0 20 1;
#X connect 18 0 19 0;
#X connect 19 0 16 0;
#X connect 20 0 25 0;
#X connect 21 0 13 1;
#X connect 22 0 23 0;
#X connect 23 0 21 1;
#X connect 24 0 22 0;
#X connect 25 0 13 1;
#X connect 26 0 29 0;
#X connect 27 0 28 0;
#X connect 28 0 31 1;
#X connect 28 0 32 1;
#X connect 29 0 30 0;
#X connect 30 0 27 0;
#X connect 31 0 13 0;
#X connect 32 0 13 1;
#X connect 35 0 38 0;
#X connect 35 0 37 0;
#X connect 36 0 41 0;
#X connect 36 0 40 0;
#X connect 37 0 12 0;
#X connect 38 0 39 0;
#X connect 39 0 37 1;
#X connect 40 0 6 0;
#X connect 41 0 42 0;
#X connect 42 0 40 1;
#X connect 43 0 46 0;
#X connect 44 0 45 0;
#X connect 45 0 39 1;
#X connect 45 0 42 1;
#X connect 46 0 47 0;
#X connect 47 0 44 0;
#X connect 48 0 49 0;
#X connect 49 0 72 0;
#X connect 50 0 38 1;
#X connect 50 0 41 1;
#X connect 51 0 33 0;
#X connect 51 0 31 0;
#X connect 52 0 34 0;
#X connect 52 0 32 0;
#X connect 53 0 67 0;
#X connect 54 0 55 0;
#X connect 54 1 55 1;
#X connect 55 0 57 0;
#X connect 56 0 54 0;
#X connect 56 0 61 0;
#X connect 57 0 58 0;
#X connect 58 0 53 1;
#X connect 58 0 65 1;
#X connect 59 0 56 0;
#X connect 60 0 68 0;
#X connect 61 0 62 0;
#X connect 62 0 60 1;
#X connect 62 0 64 1;
#X connect 63 0 59 0;
#X connect 64 0 68 0;
#X connect 65 0 67 0;
#X connect 66 0 70 0;
#X connect 69 0 73 0;
#X connect 69 0 74 0;
#X connect 70 0 71 0;
#X connect 71 0 69 0;
#X connect 72 0 50 0;
#X connect 73 0 51 0;
#X connect 74 0 52 0;
#X coords 0 -1 1 1 152 224 2 76 51;
