#N canvas 93 45 1094 704 12;
#X obj 161 497 +~;
#X obj 706 125 inlet;
#X obj 184 407 *~;
#X obj 486 412 *~;
#X obj 285 412 *~;
#X obj 387 412 *~;
#X obj 443 546 -~;
#X obj 364 545 -~;
#X obj 239 537 +~;
#X obj 161 534 +~;
#X obj 162 444 +~;
#X obj 262 440 +~;
#X obj 464 501 -~;
#X obj 387 499 +~;
#X obj 239 500 -~;
#X obj 476 134 inlet;
#X obj 509 374 line~;
#X obj 509 350 pack 0 50;
#X obj 9 390 inlet~;
#X obj 509 325 / 200;
#X obj 395 121 loadbang;
#X obj 811 187 moses 1;
#X msg 811 212 3000;
#N canvas 748 67 355 597 early-reflect 0;
#X obj 84 119 -~;
#X obj 49 119 +~;
#X obj 50 195 +~;
#X obj 85 196 -~;
#X obj 84 275 -~;
#X obj 49 274 +~;
#X obj 82 349 -~;
#X obj 48 350 +~;
#X obj 83 428 -~;
#X obj 49 428 +~;
#X obj 65 7 inlet~;
#X obj 49 508 outlet~;
#X obj 119 507 outlet~;
#X obj 110 66 delwrite~ \$0-ref1 \$1;
#X obj 110 90 delread~ \$0-ref1;
#X obj 107 145 delwrite~ \$0-ref2 \$1;
#X obj 106 223 delwrite~ \$0-ref3 \$1;
#X obj 102 300 delwrite~ \$0-ref4 \$1;
#X obj 106 376 delwrite~ \$0-ref5 \$1;
#X obj 119 452 delwrite~ \$0-ref6 \$1;
#X obj 107 169 delread~ \$0-ref2;
#X obj 106 247 delread~ \$0-ref3;
#X obj 102 325 delread~ \$0-ref4;
#X obj 106 400 delread~ \$0-ref5;
#X obj 119 477 delread~ \$0-ref6;
#X obj 227 8 r \$0-pred;
#X obj 227 120 / 1.68761;
#X obj 227 198 / 2.24493;
#X obj 227 276 / 2.66033;
#X obj 227 352 / 5.6944;
#X obj 227 428 / 10.2322;
#X connect 0 0 15 0;
#X connect 1 0 3 0;
#X connect 1 0 2 0;
#X connect 2 0 5 0;
#X connect 2 0 4 0;
#X connect 3 0 16 0;
#X connect 4 0 17 0;
#X connect 5 0 7 0;
#X connect 5 0 6 0;
#X connect 6 0 18 0;
#X connect 7 0 9 0;
#X connect 7 0 8 0;
#X connect 8 0 19 0;
#X connect 9 0 11 0;
#X connect 10 0 1 0;
#X connect 10 0 0 0;
#X connect 10 0 13 0;
#X connect 14 0 1 1;
#X connect 14 0 0 1;
#X connect 20 0 2 1;
#X connect 20 0 3 1;
#X connect 21 0 5 1;
#X connect 21 0 4 1;
#X connect 22 0 7 1;
#X connect 22 0 6 1;
#X connect 23 0 9 1;
#X connect 23 0 8 1;
#X connect 24 0 12 0;
#X connect 25 0 14 0;
#X connect 25 0 26 0;
#X connect 25 0 27 0;
#X connect 25 0 28 0;
#X connect 25 0 29 0;
#X connect 25 0 30 0;
#X connect 26 0 20 0;
#X connect 27 0 21 0;
#X connect 28 0 22 0;
#X connect 29 0 23 0;
#X connect 30 0 24 0;
#X restore 9 416 pd early-reflect;
#X obj 804 236 f;
#X obj 804 125 inlet;
#X obj 882 129 inlet;
#X obj 882 220 f;
#X obj 882 243 * 0.01;
#X obj 882 267 pack 0 50;
#X obj 882 291 line~;
#X obj 36 300 *~;
#X obj 115 309 *~;
#X obj 198 313 *~;
#X obj 278 316 *~;
#X obj 36 265 hip~;
#X obj 115 265 hip~;
#X obj 197 265 hip~;
#X obj 16 331 -~;
#X obj 95 333 -~;
#X obj 176 339 -~;
#X obj 258 342 -~;
#X obj 280 265 hip~;
#X obj 568 131 inlet;
#X obj 706 158 f \$3;
#X obj 811 163 f \$4;
#X obj 882 163 f \$5;
#X text 399 51 4: crossover frequency in Hz. (3000 Hz default);
#X text 399 33 3: feedback \, 0-1 (0.5 default);
#X obj 716 186 moses 0;
#X msg 716 210 0.5;
#X text 399 67 5: high frequency damping in % \, -10-100;
#X obj 882 197 clip -10 100;
#X text 400 2 1: max early reflection time in ms (obligatory);
#X text 399 18 2: max reflection time in ms (obligatory);
#X obj 444 595 delwrite~ \$0-del4 \$2;
#X obj 365 617 delwrite~ \$0-del3 \$2;
#X obj 240 639 delwrite~ \$0-del2 \$2;
#X obj 161 663 delwrite~ \$0-del1 \$2;
#X obj 258 229 delread~ \$0-del4;
#X obj 176 205 delread~ \$0-del3;
#X obj 94 143 delread~ \$0-del2;
#X obj 16 81 delread~ \$0-del1;
#X obj 16 55 / 1.46861;
#X obj 94 117 / 1.2404;
#X obj 176 179 / 1.15567;
#X obj 476 188 f \$1;
#X obj 568 156 f \$2;
#X obj 663 393 sel 1;
#X obj 663 446 print -n;
#X obj 568 184 clip 14.6861 \$2;
#X obj 476 215 clip 10.2322 \$1;
#X obj 476 241 s \$0-pred;
#X obj 663 348 ||;
#X obj 637 320 < 10.2322;
#X obj 724 301 < 14.6861;
#X obj 724 327 t b f;
#X obj 661 370 change;
#X obj 443 570 hip~ 20;
#X obj 364 592 hip~ 20;
#X obj 241 614 hip~ 20;
#X obj 162 639 hip~ 20;
#X obj 1004 187 moses 1;
#X obj 997 236 f;
#X obj 997 125 inlet;
#X obj 1004 163 f \$6;
#X msg 1004 212 100;
#X text 399 84 6: low frequency cut-off in Hz (100 Hz default);
#X obj 682 604 outlet~;
#X obj 750 604 outlet~;
#X obj 748 549 *~ 0.25;
#X obj 680 549 *~ 0.25;
#X obj 509 297 clip 60 110;
#X obj 706 235 * 40;
#X obj 705 261 + 60;
#X msg 663 419 ERROR: (rev2~) Insert correct arguments.;
#X connect 0 0 9 0;
#X connect 0 0 7 0;
#X connect 1 0 44 0;
#X connect 2 0 10 1;
#X connect 3 0 12 1;
#X connect 3 0 13 1;
#X connect 3 0 90 0;
#X connect 4 0 11 1;
#X connect 5 0 13 0;
#X connect 5 0 12 0;
#X connect 5 0 91 0;
#X connect 6 0 78 0;
#X connect 7 0 79 0;
#X connect 8 0 80 0;
#X connect 9 0 81 0;
#X connect 10 0 14 0;
#X connect 10 0 0 0;
#X connect 11 0 0 1;
#X connect 11 0 14 1;
#X connect 12 0 8 1;
#X connect 12 0 6 1;
#X connect 13 0 9 1;
#X connect 13 0 7 1;
#X connect 14 0 8 0;
#X connect 14 0 6 0;
#X connect 15 0 66 0;
#X connect 16 0 4 1;
#X connect 16 0 2 1;
#X connect 16 0 5 1;
#X connect 16 0 3 1;
#X connect 17 0 16 0;
#X connect 18 0 23 0;
#X connect 19 0 17 0;
#X connect 20 0 44 0;
#X connect 20 0 45 0;
#X connect 20 0 46 0;
#X connect 20 0 66 0;
#X connect 20 0 67 0;
#X connect 20 0 85 0;
#X connect 21 0 22 0;
#X connect 21 1 24 0;
#X connect 22 0 24 0;
#X connect 23 0 10 0;
#X connect 23 1 11 0;
#X connect 24 0 35 1;
#X connect 24 0 36 1;
#X connect 24 0 37 1;
#X connect 24 0 42 1;
#X connect 25 0 24 0;
#X connect 26 0 46 0;
#X connect 27 0 28 0;
#X connect 28 0 29 0;
#X connect 29 0 30 0;
#X connect 30 0 31 1;
#X connect 30 0 32 1;
#X connect 30 0 33 1;
#X connect 30 0 34 1;
#X connect 31 0 38 1;
#X connect 32 0 39 1;
#X connect 33 0 40 1;
#X connect 34 0 41 1;
#X connect 35 0 31 0;
#X connect 36 0 32 0;
#X connect 37 0 33 0;
#X connect 38 0 2 0;
#X connect 39 0 4 0;
#X connect 40 0 5 0;
#X connect 41 0 3 0;
#X connect 42 0 34 0;
#X connect 43 0 67 0;
#X connect 44 0 49 0;
#X connect 44 0 93 0;
#X connect 45 0 21 0;
#X connect 46 0 52 0;
#X connect 49 0 50 0;
#X connect 50 0 93 0;
#X connect 52 0 27 0;
#X connect 59 0 41 0;
#X connect 59 0 42 0;
#X connect 60 0 37 0;
#X connect 60 0 40 0;
#X connect 61 0 36 0;
#X connect 61 0 39 0;
#X connect 62 0 35 0;
#X connect 62 0 38 0;
#X connect 63 0 62 0;
#X connect 64 0 61 0;
#X connect 65 0 60 0;
#X connect 66 0 71 0;
#X connect 66 0 74 0;
#X connect 67 0 70 0;
#X connect 67 0 75 0;
#X connect 68 0 95 0;
#X connect 70 0 63 0;
#X connect 70 0 59 0;
#X connect 70 0 64 0;
#X connect 70 0 65 0;
#X connect 71 0 72 0;
#X connect 73 0 77 0;
#X connect 74 0 73 0;
#X connect 75 0 76 0;
#X connect 76 0 73 0;
#X connect 76 1 73 1;
#X connect 77 0 68 0;
#X connect 78 0 55 0;
#X connect 79 0 56 0;
#X connect 80 0 57 0;
#X connect 81 0 58 0;
#X connect 82 0 86 0;
#X connect 82 1 83 0;
#X connect 83 0 78 1;
#X connect 83 0 79 1;
#X connect 83 0 80 1;
#X connect 83 0 81 1;
#X connect 84 0 83 0;
#X connect 85 0 82 0;
#X connect 86 0 83 0;
#X connect 90 0 89 0;
#X connect 91 0 88 0;
#X connect 92 0 19 0;
#X connect 93 0 94 0;
#X connect 94 0 92 0;
#X connect 95 0 69 0;
