#N canvas 324 163 760 475 10;
#X obj 108 105 hsl 128 15 0 100 0 0 empty \$0-feedback Feedback_% 5
8 0 10 -262144 -1 -1 0 1;
#X obj 108 124 hsl 128 15 100 10000 1 0 empty \$0-crossover Crossover_Hz
5 8 0 10 -262144 -1 -1 0 1;
#X obj 108 143 hsl 128 15 0 100 0 0 empty \$0-highdamp HighDampening_%
5 8 0 10 -262144 -1 -1 0 1;
#X obj 108 162 hsl 128 15 10 1000 0 0 empty \$0-lowcut LowCut_Hz 5
8 0 10 -262144 -1 -1 0 1;
#X obj 287 287 adc~ 1 2;
#X obj 287 420 dac~ 1 2, f 13;
#X obj 108 181 hsl 128 15 10 43 0 0 empty \$0-early EarlyReflection_ms
5 8 0 10 -262144 -1 -1 0 1;
#X obj 108 200 hsl 128 15 15 86 0 0 empty \$0-late LateReflection_ms
5 8 0 10 -262144 -1 -1 0 1;
#X obj 108 219 hsl 128 15 0 100 0 0 empty \$0-mix Mix_% 5 8 0 10 -262144
-1 -1 0 1;
#X obj 468 234 change;
#X obj 468 302 line;
#X msg 468 283 \$1 50;
#X obj 345 215 change;
#X obj 330 196 change;
#X obj 468 258 / 100;
#X obj 360 120 change;
#X obj 374 139 change;
#X obj 374 260 line;
#X msg 374 241 \$1 50;
#X obj 389 158 change;
#X obj 404 177 change;
#X obj 404 302 line;
#X msg 404 283 \$1 50;
#N canvas 0 50 450 300 crossL 0;
#X obj 43 58 inlet~;
#X obj 254 68 inlet;
#X obj 43 342 outlet~;
#X obj 59 204 expr cos($f1 * 3.14159 / 2);
#X obj 254 204 expr sin($f1 * 3.14159 / 2);
#X obj 254 144 clip 0 1;
#N canvas 298 74 450 377 pan_core 0;
#X obj 21 106 inlet~;
#X obj 226 126 inlet;
#X obj 72 237 *~;
#X obj 136 281 outlet~;
#X obj 202 236 *~;
#X obj 218 212 line~;
#X obj 88 212 line~;
#X obj 96 127 inlet;
#X obj 179 104 inlet~;
#X obj 88 173 pack f 5;
#X obj 218 173 pack f 5;
#X text 215 291 Hans-Christoph Steiner \, 2004;
#X text 215 277 Adapted from [pan_core~];
#X connect 0 0 2 0;
#X connect 1 0 10 0;
#X connect 2 0 3 0;
#X connect 4 0 3 0;
#X connect 5 0 4 1;
#X connect 6 0 2 1;
#X connect 7 0 9 0;
#X connect 8 0 4 0;
#X connect 9 0 6 0;
#X connect 10 0 5 0;
#X restore 49 276 pd pan_core;
#X obj 138 56 inlet~;
#X connect 0 0 6 0;
#X connect 1 0 5 0;
#X connect 3 0 6 1;
#X connect 4 0 6 3;
#X connect 5 0 3 0;
#X connect 5 0 4 0;
#X connect 6 0 2 0;
#X connect 7 0 6 2;
#X restore 287 384 pd crossL;
#N canvas 0 50 450 300 crossR 0;
#X obj 43 58 inlet~;
#X obj 254 68 inlet;
#X obj 43 342 outlet~;
#X obj 59 204 expr cos($f1 * 3.14159 / 2);
#X obj 254 204 expr sin($f1 * 3.14159 / 2);
#X obj 254 144 clip 0 1;
#N canvas 298 74 450 377 pan_core 0;
#X obj 21 106 inlet~;
#X obj 226 126 inlet;
#X obj 72 237 *~;
#X obj 136 281 outlet~;
#X obj 202 236 *~;
#X obj 218 212 line~;
#X obj 88 212 line~;
#X obj 96 127 inlet;
#X obj 179 104 inlet~;
#X obj 88 173 pack f 5;
#X obj 218 173 pack f 5;
#X text 215 291 Hans-Christoph Steiner \, 2004;
#X text 215 277 Adapted from [pan_core~];
#X connect 0 0 2 0;
#X connect 1 0 10 0;
#X connect 2 0 3 0;
#X connect 4 0 3 0;
#X connect 5 0 4 1;
#X connect 6 0 2 1;
#X connect 7 0 9 0;
#X connect 8 0 4 0;
#X connect 9 0 6 0;
#X connect 10 0 5 0;
#X restore 49 276 pd pan_core;
#X obj 138 56 inlet~;
#X connect 0 0 6 0;
#X connect 1 0 5 0;
#X connect 3 0 6 1;
#X connect 4 0 6 3;
#X connect 5 0 3 0;
#X connect 5 0 4 0;
#X connect 6 0 2 0;
#X connect 7 0 6 2;
#X restore 374 384 pd crossR;
#N canvas 100 50 1081 689 shinreverb 0;
#X obj 161 497 +~;
#X obj 706 125 inlet;
#X obj 184 407 *~;
#X obj 486 412 *~;
#X obj 285 412 *~;
#X obj 387 412 *~;
#X obj 443 546 -~;
#X obj 364 545 -~;
#X obj 239 537 +~;
#X obj 161 534 +~;
#X obj 162 444 +~;
#X obj 262 440 +~;
#X obj 464 501 -~;
#X obj 387 499 +~;
#X obj 239 500 -~;
#X obj 476 134 inlet;
#X obj 509 374 line~;
#X obj 509 350 pack 0 50;
#X obj 9 390 inlet~;
#X obj 706 191 / 200;
#N canvas 395 77 355 597 early-reflect 0;
#X obj 84 119 -~;
#X obj 49 119 +~;
#X obj 50 195 +~;
#X obj 85 196 -~;
#X obj 84 275 -~;
#X obj 49 274 +~;
#X obj 82 349 -~;
#X obj 48 350 +~;
#X obj 83 428 -~;
#X obj 49 428 +~;
#X obj 65 7 inlet~;
#X obj 49 508 outlet~;
#X obj 119 507 outlet~;
#X obj 110 66 delwrite~ \$0-ref1 43.5337;
#X obj 107 145 delwrite~ \$0-ref2 25.796;
#X obj 106 223 delwrite~ \$0-ref3 19.392;
#X obj 102 300 delwrite~ \$0-ref4 16.364;
#X obj 106 376 delwrite~ \$0-ref5 7.645;
#X obj 119 452 delwrite~ \$0-ref6 4.2546;
#X obj 227 8 r~ \$0-pred;
#X obj 227 120 /~ 1.68761;
#X obj 227 198 /~ 2.24493;
#X obj 227 276 /~ 2.66033;
#X obj 227 352 /~ 5.6944;
#X obj 227 428 /~ 10.2322;
#X obj 110 90 vd~ \$0-ref1;
#X obj 107 168 vd~ \$0-ref2;
#X obj 106 247 vd~ \$0-ref3;
#X obj 102 325 vd~ \$0-ref4;
#X obj 106 400 vd~ \$0-ref5;
#X obj 119 477 vd~ \$0-ref6;
#X connect 0 0 14 0;
#X connect 1 0 3 0;
#X connect 1 0 2 0;
#X connect 2 0 5 0;
#X connect 2 0 4 0;
#X connect 3 0 15 0;
#X connect 4 0 16 0;
#X connect 5 0 7 0;
#X connect 5 0 6 0;
#X connect 6 0 17 0;
#X connect 7 0 9 0;
#X connect 7 0 8 0;
#X connect 8 0 18 0;
#X connect 9 0 11 0;
#X connect 10 0 1 0;
#X connect 10 0 0 0;
#X connect 10 0 13 0;
#X connect 19 0 20 0;
#X connect 19 0 21 0;
#X connect 19 0 22 0;
#X connect 19 0 23 0;
#X connect 19 0 24 0;
#X connect 19 0 25 0;
#X connect 20 0 26 0;
#X connect 21 0 27 0;
#X connect 22 0 28 0;
#X connect 23 0 29 0;
#X connect 24 0 30 0;
#X connect 25 0 1 1;
#X connect 25 0 0 1;
#X connect 26 0 2 1;
#X connect 26 0 3 1;
#X connect 27 0 5 1;
#X connect 27 0 4 1;
#X connect 28 0 7 1;
#X connect 28 0 6 1;
#X connect 29 0 9 1;
#X connect 29 0 8 1;
#X connect 30 0 12 0;
#X restore 9 416 pd early-reflect;
#X obj 804 151 f;
#X obj 804 125 inlet;
#X obj 882 129 inlet;
#X obj 882 243 * 0.01;
#X obj 882 267 pack 0 50;
#X obj 882 291 line~;
#X obj 36 300 *~;
#X obj 115 309 *~;
#X obj 198 313 *~;
#X obj 278 316 *~;
#X obj 36 265 hip~;
#X obj 115 265 hip~;
#X obj 197 265 hip~;
#X obj 16 331 -~;
#X obj 95 333 -~;
#X obj 176 339 -~;
#X obj 258 342 -~;
#X obj 280 265 hip~;
#X text 399 51 4: crossover frequency in Hz. (3000 Hz default);
#X text 399 33 3: feedback \, 0-1 (0.5 default);
#X text 399 67 5: high frequency damping in % \, -10-100;
#X text 400 2 1: max early reflection time in ms (obligatory);
#X text 399 18 2: max reflection time in ms (obligatory);
#X obj 443 570 hip~ 20;
#X obj 364 592 hip~ 20;
#X obj 241 614 hip~ 20;
#X obj 162 639 hip~ 20;
#X obj 997 148 f;
#X obj 997 125 inlet;
#X text 399 84 6: low frequency cut-off in Hz (100 Hz default);
#X obj 682 604 outlet~;
#X obj 750 604 outlet~;
#X obj 748 549 *~ 0.25;
#X obj 680 549 *~ 0.25;
#X obj 706 169 + 60;
#X obj 161 663 delwrite~ \$0-del1 58.6435;
#X obj 240 639 delwrite~ \$0-del2 69.4325;
#X obj 365 617 delwrite~ \$0-del3 74.5234;
#X obj 444 595 delwrite~ \$0-del4 86.1244;
#X obj 476 271 s~ \$0-pred;
#X obj 16 55 /~ 1.46861;
#X obj 94 117 /~ 1.2404;
#X obj 176 179 /~ 1.15567;
#X obj 568 155 line~;
#X obj 568 131 pack 0 50;
#X obj 568 110 inlet;
#X obj 476 245 line~;
#X obj 476 223 pack 0 50;
#X obj 706 148 * 0.4;
#X obj 16 81 vd~ \$0-del1;
#X obj 94 143 vd~ \$0-del2;
#X obj 176 205 vd~ \$0-del3;
#X obj 258 229 vd~ \$0-del4;
#X connect 0 0 9 0;
#X connect 0 0 7 0;
#X connect 1 0 69 0;
#X connect 2 0 10 1;
#X connect 3 0 12 1;
#X connect 3 0 13 1;
#X connect 3 0 53 0;
#X connect 4 0 11 1;
#X connect 5 0 13 0;
#X connect 5 0 12 0;
#X connect 5 0 54 0;
#X connect 6 0 44 0;
#X connect 7 0 45 0;
#X connect 8 0 46 0;
#X connect 9 0 47 0;
#X connect 10 0 14 0;
#X connect 10 0 0 0;
#X connect 11 0 0 1;
#X connect 11 0 14 1;
#X connect 12 0 8 1;
#X connect 12 0 6 1;
#X connect 13 0 9 1;
#X connect 13 0 7 1;
#X connect 14 0 8 0;
#X connect 14 0 6 0;
#X connect 15 0 68 0;
#X connect 16 0 4 1;
#X connect 16 0 2 1;
#X connect 16 0 5 1;
#X connect 16 0 3 1;
#X connect 17 0 16 0;
#X connect 18 0 20 0;
#X connect 19 0 17 0;
#X connect 20 0 10 0;
#X connect 20 1 11 0;
#X connect 21 0 31 1;
#X connect 21 0 32 1;
#X connect 21 0 33 1;
#X connect 21 0 38 1;
#X connect 22 0 21 0;
#X connect 23 0 24 0;
#X connect 24 0 25 0;
#X connect 25 0 26 0;
#X connect 26 0 27 1;
#X connect 26 0 28 1;
#X connect 26 0 29 1;
#X connect 26 0 30 1;
#X connect 27 0 34 1;
#X connect 28 0 35 1;
#X connect 29 0 36 1;
#X connect 30 0 37 1;
#X connect 31 0 27 0;
#X connect 32 0 28 0;
#X connect 33 0 29 0;
#X connect 34 0 2 0;
#X connect 35 0 4 0;
#X connect 36 0 5 0;
#X connect 37 0 3 0;
#X connect 38 0 30 0;
#X connect 44 0 59 0;
#X connect 45 0 58 0;
#X connect 46 0 57 0;
#X connect 47 0 56 0;
#X connect 48 0 44 1;
#X connect 48 0 45 1;
#X connect 48 0 46 1;
#X connect 48 0 47 1;
#X connect 49 0 48 0;
#X connect 53 0 52 0;
#X connect 54 0 51 0;
#X connect 55 0 19 0;
#X connect 61 0 70 0;
#X connect 62 0 71 0;
#X connect 63 0 72 0;
#X connect 64 0 61 0;
#X connect 64 0 62 0;
#X connect 64 0 63 0;
#X connect 64 0 73 0;
#X connect 65 0 64 0;
#X connect 66 0 65 0;
#X connect 67 0 60 0;
#X connect 68 0 67 0;
#X connect 69 0 55 0;
#X connect 70 0 31 0;
#X connect 70 0 34 0;
#X connect 71 0 32 0;
#X connect 71 0 35 0;
#X connect 72 0 33 0;
#X connect 72 0 36 0;
#X connect 73 0 37 0;
#X connect 73 0 38 0;
#X restore 316 343 pd shinreverb;
#X connect 0 0 15 0;
#X connect 1 0 16 0;
#X connect 2 0 19 0;
#X connect 3 0 20 0;
#X connect 4 0 25 0;
#X connect 4 0 23 0;
#X connect 4 1 25 0;
#X connect 4 1 24 0;
#X connect 6 0 13 0;
#X connect 7 0 12 0;
#X connect 8 0 9 0;
#X connect 9 0 14 0;
#X connect 10 0 23 2;
#X connect 10 0 24 2;
#X connect 11 0 10 0;
#X connect 12 0 25 2;
#X connect 13 0 25 1;
#X connect 14 0 11 0;
#X connect 15 0 25 3;
#X connect 16 0 18 0;
#X connect 17 0 25 4;
#X connect 18 0 17 0;
#X connect 19 0 25 5;
#X connect 20 0 22 0;
#X connect 21 0 25 6;
#X connect 22 0 21 0;
#X connect 23 0 5 0;
#X connect 24 0 5 1;
#X connect 25 0 23 1;
#X connect 25 1 24 1;
#X coords 0 -1 1 1 150 140 2 100 100;
