#N canvas -1935 -360 658 668 10;
#X obj 181 72 inlet;
#X obj 284 72 inlet;
#X obj 387 72 inlet;
#X obj 490 72 inlet;
#X obj 79 362 outlet~;
#X obj 35 23 block~ 64 1 8;
#X obj 80 72 inlet~;
#X obj 510 99 loadbang;
#X obj 198 121 f \$1;
#X obj 298 121 f \$2;
#X obj 405 121 f \$3;
#X obj 510 121 f \$4;
#X obj 405 99 loadbang;
#X obj 298 99 loadbang;
#X obj 198 99 loadbang;
#X obj 79 282 lop~ 18000;
#X obj 79 304 lop~ 18000;
#X obj 79 326 lop~ 18000;
#X obj 79 219 expr~ ($f4 * pow($v1 \, 3)) + ($f3 * pow($v1 \, 2)) + ($f2 * $v1) + $f5, f 69;
#X connect 0 0 18 1;
#X connect 1 0 18 2;
#X connect 2 0 18 3;
#X connect 3 0 18 4;
#X connect 6 0 18 0;
#X connect 7 0 11 0;
#X connect 8 0 18 1;
#X connect 9 0 18 2;
#X connect 10 0 18 3;
#X connect 11 0 18 4;
#X connect 12 0 10 0;
#X connect 13 0 9 0;
#X connect 14 0 8 0;
#X connect 15 0 16 0;
#X connect 16 0 17 0;
#X connect 17 0 4 0;
#X connect 18 0 15 0;
