#N canvas -2741 -229 658 435 10;
#X obj 181 72 inlet;
#X obj 284 72 inlet;
#X obj 387 72 inlet;
#X obj 490 72 inlet;
#X obj 79 362 outlet~;
#X obj 35 23 block~ 64 1 8;
#X obj 80 72 inlet~;
#X obj 510 99 loadbang;
#X obj 198 121 f \$1;
#X obj 298 121 f \$2;
#X obj 405 121 f \$3;
#X obj 510 121 f \$4;
#X obj 405 99 loadbang;
#X obj 298 99 loadbang;
#X obj 198 99 loadbang;
#X obj 79 282 lop~ 18000;
#X obj 79 304 lop~ 18000;
#X obj 79 326 lop~ 18000;
#X msg 181 146 \$1 100;
#X msg 284 146 \$1 100;
#X msg 387 146 \$1 100;
#X msg 490 146 \$1 100;
#X obj 181 170 line~;
#X obj 284 170 line~;
#X obj 387 170 line~;
#X obj 490 170 line~;
#X obj 79 219 expr~ ($v4 * pow($v1 \, 3)) + ($v3 * pow($v1 \, 2)) + ($v2 * $v1) + $v5, f 69;
#X connect 0 0 18 0;
#X connect 1 0 19 0;
#X connect 2 0 20 0;
#X connect 3 0 21 0;
#X connect 6 0 26 0;
#X connect 7 0 11 0;
#X connect 8 0 18 0;
#X connect 9 0 19 0;
#X connect 10 0 20 0;
#X connect 11 0 21 0;
#X connect 12 0 10 0;
#X connect 13 0 9 0;
#X connect 14 0 8 0;
#X connect 15 0 16 0;
#X connect 16 0 17 0;
#X connect 17 0 4 0;
#X connect 18 0 22 0;
#X connect 19 0 23 0;
#X connect 20 0 24 0;
#X connect 21 0 25 0;
#X connect 22 0 26 1;
#X connect 23 0 26 2;
#X connect 24 0 26 3;
#X connect 25 0 26 4;
#X connect 26 0 15 0;
