#N canvas 461 291 450 300 10;
#X obj 129 109 inlet;
#X obj 129 210 i;
#X obj 129 235 outlet;
#X obj 173 109 inlet;
#X obj 173 179 t b f;
#X obj 250 98 loadbang;
#X obj 173 209 + 1;
#X obj 191 152 expr if ($f1==0 \, 1 \, $f1);
#X obj 227 127 f \$1;
#X connect 0 0 1 0;
#X connect 1 0 2 0;
#X connect 1 0 6 0;
#X connect 3 0 4 0;
#X connect 4 0 6 0;
#X connect 4 1 6 1;
#X connect 5 0 8 0;
#X connect 6 0 1 1;
#X connect 7 0 4 0;
#X connect 8 0 7 0;
