#N canvas 56 -8 1302 726 10;
#X obj 9 492 catch~ chL;
#X obj 73 404 throw~ chL;
#X obj 33 305 readsf~;
#X obj 98 306 bng 15 250 50 0 empty empty empty 17 7 0 10 -262144 -1
-1;
#X obj 59 363 tgl 15 0 empty empty empty 17 7 0 10 -262144 -1 -1 0
1;
#X msg 41 262 start;
#X msg 50 281 stop;
#X obj 86 341 throw~ in;
#X obj 33 325 *~ 1;
#X obj 86 362 catch~ out;
#X obj 33 214 t b b;
#X obj 86 323 hsl 50 15 0.05 5 1 0 empty empty empty -2 -8 0 10 -262144
-1 -1 0 1;
#X msg 34 243 open /Users/Shin/Music/PDRec/CoolRiff.wav;
#X obj 532 141 catch~ in;
#X obj 621 541 throw~ out;
#X obj 85 383 spigot~;
#X obj 34 383 spigot~;
#X obj 8 563 Sdac;
#X obj 142 553 OscUI;
#X msg 21 527 \; pd dsp \$1;
#X obj 98 534 tgl 15 0 empty empty empty 17 7 0 10 -262144 -1 -1 0
1;
#X connect 0 0 17 0;
#X connect 0 0 17 1;
#X connect 0 0 18 0;
#X connect 2 0 8 0;
#X connect 2 1 3 0;
#X connect 3 0 10 0;
#X connect 4 0 15 1;
#X connect 4 0 16 1;
#X connect 5 0 2 0;
#X connect 6 0 2 0;
#X connect 8 0 7 0;
#X connect 8 0 16 0;
#X connect 9 0 15 0;
#X connect 10 0 5 0;
#X connect 10 1 12 0;
#X connect 11 0 8 1;
#X connect 12 0 2 0;
#X connect 15 1 1 0;
#X connect 16 0 1 0;
#X connect 20 0 19 0;
