#N canvas 108 50 1189 700 10;
#X obj 108 32 inlet~;
#X obj 105 672 outlet~;
#X obj 227 47 inlet;
#X obj 653 72 inlet;
#X text 236 28 fc;
#X obj 524 27 loadbang;
#X obj 235 83 f \$1;
#X obj 227 106 expr if($f1 <= 0 \, 1000 \, $f1);
#X obj 105 645 biquad~ 0 0 1 0 0;
#X msg 119 621 \$1 \$2 \$3 \$4 \$5;
#X obj 492 74 inlet;
#X text 484 54 dBgain;
#X obj 150 594 pack f f f f f, f 95;
#N canvas 169 137 450 300 A 0;
#X obj 175 104 / 40;
#X obj 175 125 swap 10;
#X obj 175 147 pow;
#X obj 174 63 inlet;
#X obj 174 189 outlet;
#X connect 0 0 1 0;
#X connect 1 0 2 0;
#X connect 1 1 2 1;
#X connect 2 0 4 0;
#X connect 3 0 0 0;
#X restore 492 146 pd A;
#X text 696 71 S;
#X obj 653 147 expr if($f1 <= 0 \, 0.5 \, $f1);
#X obj 521 123 f \$2;
#X obj 664 102 f \$3;
#X obj 653 166 clip 0.0001 0.9999;
#X obj 150 286 expr 2*($f1-1+($f1+1)*cos($f2));
#X obj 332 264 t b f;
#X obj 150 363 /;
#X obj 162 333 t b f;
#X obj 325 344 t b f;
#X obj 250 443 /;
#X obj 262 413 t b f;
#X obj 432 343 t b f;
#X obj 250 465 t b f;
#X obj 425 424 t b f;
#X obj 350 523 /;
#X obj 362 493 t b f;
#X obj 532 423 t b f;
#X obj 350 545 t b f;
#X obj 350 447 expr $f1*($f1+1-($f1-1)*cos($f2)+$f3);
#X obj 811 275 t b f;
#X obj 629 374 /;
#X obj 641 344 t b f;
#X obj 628 402 t b f;
#X obj 629 297 expr 2*$f1*($f1-1-($f1+1)*cos($f2));
#X obj 775 389 t b f;
#X obj 700 488 /;
#X obj 712 458 t b f;
#X obj 882 388 t b f;
#X obj 700 510 t b f;
#X obj 700 412 expr $f1*($f1+1-($f1-1)*cos($f2)-$f3);
#X obj 250 367 expr -($f1+1+($f1-1)*cos($f2)-$f3);
#X obj 253 162 samplerate~;
#X obj 253 139 loadbang;
#X obj 253 184 t b f;
#X obj 253 236 * 2;
#X obj 253 257 * 3.14159;
#X obj 253 214 / 48000;
#X obj 731 216 t b f;
#X obj 849 203 t b f;
#X obj 565 237 expr sin($f3)*sqrt(($f1*$f1+1)*(1/($f2+0.00001)-1)+2*$f1)
;
#X obj 970 255 t b f;
#X obj 1063 254 t b f;
#X obj 902 305 expr $f1*($f1+1+($f1+1)*cos($f2)+$f3);
#X msg 263 627 set \$1 \$2 \$3 \$4 \$5;
#X obj 263 662 outlet;
#X connect 0 0 8 0;
#X connect 2 0 7 0;
#X connect 3 0 15 0;
#X connect 5 0 6 0;
#X connect 5 0 17 0;
#X connect 5 0 16 0;
#X connect 6 0 7 0;
#X connect 7 0 51 0;
#X connect 8 0 1 0;
#X connect 9 0 8 0;
#X connect 10 0 13 0;
#X connect 12 0 9 0;
#X connect 12 0 58 0;
#X connect 13 0 19 0;
#X connect 13 0 45 0;
#X connect 13 0 33 0;
#X connect 13 0 38 0;
#X connect 13 0 44 0;
#X connect 13 0 54 0;
#X connect 13 0 57 0;
#X connect 15 0 18 0;
#X connect 16 0 13 0;
#X connect 17 0 15 0;
#X connect 18 0 52 0;
#X connect 19 0 21 0;
#X connect 20 0 19 0;
#X connect 20 1 19 1;
#X connect 21 0 12 0;
#X connect 22 0 21 0;
#X connect 22 1 21 1;
#X connect 23 0 45 0;
#X connect 23 1 45 1;
#X connect 24 0 27 0;
#X connect 25 0 24 0;
#X connect 25 1 24 1;
#X connect 26 0 45 0;
#X connect 26 1 45 2;
#X connect 27 0 12 0;
#X connect 27 1 12 1;
#X connect 28 0 33 0;
#X connect 28 1 33 1;
#X connect 29 0 32 0;
#X connect 30 0 29 0;
#X connect 30 1 29 1;
#X connect 31 0 33 0;
#X connect 31 1 33 2;
#X connect 32 0 12 0;
#X connect 32 1 12 2;
#X connect 33 0 29 0;
#X connect 34 0 38 0;
#X connect 34 1 38 1;
#X connect 35 0 37 0;
#X connect 36 0 35 0;
#X connect 36 1 35 1;
#X connect 37 0 12 0;
#X connect 37 1 12 3;
#X connect 38 0 35 0;
#X connect 39 0 44 0;
#X connect 39 1 44 1;
#X connect 40 0 43 0;
#X connect 41 0 40 0;
#X connect 41 1 40 1;
#X connect 42 0 44 0;
#X connect 42 1 44 2;
#X connect 43 0 12 0;
#X connect 43 1 12 4;
#X connect 44 0 40 0;
#X connect 45 0 24 0;
#X connect 46 0 48 0;
#X connect 47 0 46 0;
#X connect 48 0 51 0;
#X connect 48 1 51 1;
#X connect 49 0 50 0;
#X connect 50 0 20 0;
#X connect 50 0 23 0;
#X connect 50 0 28 0;
#X connect 50 0 34 0;
#X connect 50 0 39 0;
#X connect 50 0 53 0;
#X connect 50 0 55 0;
#X connect 51 0 49 0;
#X connect 52 0 54 0;
#X connect 52 1 54 1;
#X connect 53 0 54 0;
#X connect 53 1 54 2;
#X connect 54 0 42 0;
#X connect 54 0 31 0;
#X connect 54 0 26 0;
#X connect 54 0 56 0;
#X connect 55 0 57 0;
#X connect 55 1 57 1;
#X connect 56 0 57 0;
#X connect 56 1 57 2;
#X connect 57 0 36 0;
#X connect 57 0 41 0;
#X connect 57 0 22 0;
#X connect 57 0 25 0;
#X connect 57 0 30 0;
#X connect 58 0 59 0;
