#N canvas 766 181 450 408 10;
#X obj 95 41 inlet;
#X obj 245 364 outlet;
#X text 149 41 Bandwidth;
#X text 303 364 Q;
#X obj 330 44 inlet;
#X text 377 42 Fc;
#X obj 245 84 samplerate~;
#X obj 245 64 loadbang;
#X obj 245 103 t b f;
#X obj 245 124 / 48000;
#X obj 245 142 * 6.28318;
#X obj 277 181 sin;
#X obj 245 202 /;
#X obj 245 263 * 0.34657;
#X obj 245 241 *;
#X obj 245 161 t f f;
#X obj 245 221 t b f;
#X obj 245 283 expr 2*sinh($f1);
#X obj 245 302 swap 1;
#X obj 245 322 /;
#X connect 0 0 14 0;
#X connect 4 0 9 0;
#X connect 6 0 8 0;
#X connect 7 0 6 0;
#X connect 8 0 9 0;
#X connect 8 1 9 1;
#X connect 9 0 10 0;
#X connect 10 0 15 0;
#X connect 11 0 12 1;
#X connect 12 0 16 0;
#X connect 13 0 17 0;
#X connect 14 0 13 0;
#X connect 15 0 12 0;
#X connect 15 1 11 0;
#X connect 16 0 14 0;
#X connect 16 1 14 1;
#X connect 17 0 18 0;
#X connect 18 0 19 0;
#X connect 18 1 19 1;
#X connect 19 0 1 0;
