#N canvas -7 0 638 932 12;
#X obj 66 61 canvas_color_maker;
#X floatatom 32 15 5 0 0 0 - - -, f 5;
#X floatatom 87 14 5 0 0 0 - - -, f 5;
#X floatatom 146 16 5 0 0 0 - - -, f 5;
#X obj 190 67 cnv_color_chaser;
#N canvas 633 0 638 932 color_preset 1;
#X msg 185 114 12 2 11 10;
#X restore 341 310 pd color_preset;
#X floatatom 314 18 5 0 0 0 - - -, f 5;
#X obj 190 141 nbx 10 14 -1e+037 1e+037 0 0 empty empty empty 0 -8
0 10 -262144 -1 -1 -1.31585e+007 256;
#X obj 315 143 nbx 20 14 -1e+037 1e+037 0 0 empty empty empty 0 -8
0 10 -262144 -1 -1 -1.51323e+007 256;
#X msg 156 347 \; canv color \$1;
#X obj 121 234 cnv 15 44 44 empty empty empty 20 12 0 14 -1 -66577
0;
#X obj 123 236 cnv 15 40 40 empty canv empty 20 12 0 14 -237147 -66577
0;
#X floatatom 135 303 5 0 0 0 - - -, f 5;
#X connect 1 0 0 0;
#X connect 1 0 4 0;
#X connect 2 0 0 1;
#X connect 2 0 4 1;
#X connect 3 0 0 2;
#X connect 3 0 4 2;
#X connect 4 0 7 0;
#X connect 4 1 8 0;
#X connect 6 0 4 3;
#X connect 8 0 9 0;
#X connect 12 0 9 0;
