#N canvas 423 163 624 684 10;
#X obj 158 250 div 10;
#X obj 114 148 * 10;
#X obj 188 320 makefilename %d;
#X msg 188 345 label \$1;
#X obj 188 369 s \$0-uni;
#X obj 84 20 inlet;
#X obj 108 459 outlet;
#X obj 84 42 route color;
#X obj 296 197 unpack f f f;
#X msg 264 249 color \$1;
#X obj 264 281 s \$0-bkgnd;
#X obj 354 250 pack f f;
#X obj 355 304 s \$0-uni;
#X obj 108 429 change;
#X obj 191 10 loadbang;
#X msg 169 101 0;
#X msg 355 278 color \$1 0 \$2;
#X obj 264 167 expr if($f1==0 \, 2 \, $f1);
#X obj 353 138 expr if($f1==0 \, 1 \, $f1);
#X obj 399 113 expr if($f1==0 \, 0 \, $f1);
#X obj 264 144 f \$1;
#X obj 353 118 f \$2;
#X obj 399 91 f \$3;
#X obj 364 61 t b b;
#X obj 90 73 clip 0 9;
#X obj 100 203 nbx 1 21 0 99 0 0 empty \$0-uni 0 0 -8 0 10 -166441
-262144 -262144 0 256;
#X obj 100 200 cnv 5 22 26 empty \$0-bkgnd empty 20 12 0 14 -66577
-66577 0;
#X obj 103 203 cnv 15 16 20 empty \$0-uni 0 3 11 0 20 -166441 -262144
0;
#X connect 0 0 2 0;
#X connect 0 0 13 0;
#X connect 1 0 25 0;
#X connect 2 0 3 0;
#X connect 3 0 4 0;
#X connect 5 0 7 0;
#X connect 7 0 8 0;
#X connect 7 1 24 0;
#X connect 8 0 9 0;
#X connect 8 1 11 0;
#X connect 8 2 11 1;
#X connect 9 0 10 0;
#X connect 11 0 16 0;
#X connect 13 0 6 0;
#X connect 14 0 15 0;
#X connect 14 0 20 0;
#X connect 14 0 23 0;
#X connect 15 0 25 0;
#X connect 16 0 12 0;
#X connect 17 0 9 0;
#X connect 18 0 11 0;
#X connect 19 0 11 1;
#X connect 20 0 17 0;
#X connect 21 0 18 0;
#X connect 22 0 19 0;
#X connect 23 0 21 0;
#X connect 23 1 22 0;
#X connect 24 0 1 0;
#X connect 25 0 0 0;
#X coords 0 -1 1 1 22 26 2 100 200;
