#N canvas 152 93 532 542 10;
#X obj 178 72 inlet~;
#X obj 244 72 inlet~;
#X obj 375 70 inlet~;
#X obj 436 70 inlet~;
#X obj 312 70 inlet~;
#X obj 81 70 inlet~;
#X text 178 50 a1;
#X text 245 50 a2;
#X text 319 49 b0;
#X text 383 49 b1;
#X text 446 48 b2;
#X obj 86 216 fexpr~ $x1[0]+$x2*$y1[-1]+$x3*$y1[-2];
#X obj 86 274 fexpr~ $x2*$x1[0]+$x3*$x1[-1]+$x4*$x1[-2];
#X obj 86 325 outlet~;
#X connect 0 0 11 1;
#X connect 1 0 11 2;
#X connect 2 0 12 2;
#X connect 3 0 12 3;
#X connect 4 0 12 1;
#X connect 5 0 11 0;
#X connect 11 0 12 0;
#X connect 12 0 13 0;
