#N canvas 232 50 899 702 10;
#X obj 535 515 tabwrite plot-\$0;
#X obj 644 492 r \$0-index;
#X obj 535 321 expr 20*log10($f1);
#X obj 101 101 cnv 15 258 220 empty empty Function::Plotter 160 8 1
12 -128992 -1 0;
#X obj 309 228 nbx 5 12 -9999 10000 0 0 \$0-y_max \$0-foo Y-max 0 17
1 10 -33289 -162280 -1 2 256;
#X obj 309 251 nbx 5 12 -9999 10000 0 0 \$0-y_min \$0-foo Y-min 0 17
1 10 -33289 -162280 -1 -2 256;
#X obj 309 274 nbx 5 12 -9999 10000 0 0 \$0-x_max \$0-foo X-max 0 17
1 10 -33289 -162280 -1 6.28 256;
#X obj 577 6 loadbang;
#X obj 596 351 r \$0-y_max;
#X obj 307 410 array size plot-\$0;
#X obj 309 201 nbx 5 12 1 99999 0 0 \$0-size \$0-foo Size 0 17 1 10
-33289 -162280 -1 99999 256;
#X obj 309 118 bng 46 250 50 0 \$0-run \$0-foo empty -30 10 0 15 -33289
-4034 -1;
#X obj 535 493 clip -1 1;
#X obj 782 324 r \$0-y_min;
#X obj 513 385 +;
#X obj 544 408 t b f;
#X obj 535 360 t b f;
#X obj 749 346 t b f;
#X obj 535 291 max 1e-008;
#X obj 596 375 expr 2/(abs($f1)+abs($f2));
#X obj 535 439 *;
#X obj 621 399 expr -($f1+$f2)/2;
#X obj 191 533 i;
#X obj 219 533 + 1;
#X msg 155 488 0, f 2;
#X obj 157 419 t b b;
#X obj 157 397 r \$0-run;
#X obj 272 365 r \$0-size;
#X obj 309 440 - 1;
#X obj 307 550 /;
#X obj 293 521 t b f;
#X obj 80 516 bng 15 250 50 0 empty empty empty 17 7 0 10 -262144 -1
-1;
#X msg 413 34 100;
#X obj 309 297 nbx 5 12 -9999 10000 0 0 \$0-x_min \$0-foo X-min 0 17
1 10 -33289 -162280 -1 0 256;
#X obj 191 582 s \$0-index;
#X obj 500 89 inlet;
#X obj 272 388 i;
#X floatatom 111 612 10 0 0 0 - - -, f 10;
#X obj 368 660 outlet;
#X obj 477 267 spigot;
#X obj 535 267 spigot;
#X obj 516 242 == 0;
#X obj 344 173 tgl 10 0 \$0-ysweep \$0-foo Y-log -35 4 0 10 -33289
-162280 -1 0 1;
#X obj 344 185 tgl 10 0 \$0-xsweep \$0-foo X-log -35 4 0 10 -33289
-162280 -1 0 1;
#X obj 550 211 r \$0-ysweep;
#N canvas 419 220 450 300 logsweep 0;
#X obj 184 203 pow;
#X obj 184 177 t b f;
#X obj 226 64 r \$0-x_min;
#X obj 110 69 r \$0-x_max;
#X obj 157 156 /;
#X obj 232 235 *;
#X obj 226 116 t b f;
#X obj 196 18 inlet;
#X obj 232 263 outlet;
#X obj 109 96 max 1e-008;
#X obj 226 90 max 1e-008;
#X connect 0 0 5 0;
#X connect 1 0 0 0;
#X connect 1 1 0 1;
#X connect 2 0 10 0;
#X connect 3 0 9 0;
#X connect 4 0 0 0;
#X connect 5 0 8 0;
#X connect 6 0 4 0;
#X connect 6 1 4 1;
#X connect 6 1 5 1;
#X connect 7 0 1 0;
#X connect 9 0 4 0;
#X connect 10 0 6 0;
#X restore 402 589 pd logsweep;
#N canvas 636 280 450 316 linsweep 0;
#X obj 254 47 r \$0-x_min;
#X obj 175 46 r \$0-x_max;
#X obj 114 47 inlet;
#X obj 227 247 outlet;
#X obj 228 139 -;
#X obj 240 111 t b f;
#X obj 210 183 *;
#X obj 227 219 +;
#X connect 0 0 5 0;
#X connect 1 0 4 0;
#X connect 2 0 6 0;
#X connect 4 0 6 1;
#X connect 5 0 4 0;
#X connect 5 1 4 1;
#X connect 5 1 7 1;
#X connect 6 0 7 0;
#X connect 7 0 3 0;
#X restore 310 590 pd linsweep;
#X obj 333 623 spigot;
#X obj 402 622 spigot;
#X obj 388 548 == 0;
#X obj 413 505 r \$0-xsweep;
#X msg 454 51 0;
#X obj 254 436 >=;
#X obj 254 459 sel 1;
#X msg 193 470 1, f 2;
#X msg 220 470 0, f 2;
#X floatatom 409 313 5 0 0 0 - - -, f 5;
#X floatatom 259 646 10 0 0 0 - - -, f 10;
#X obj 791 38 r \$0-size;
#X obj 791 60 i;
#X obj 735 100 t b f;
#X obj 716 126 f \$0;
#X obj 716 152 pack f f;
#X obj 791 83 / 50;
#X msg 716 174 \; plot-\$1 xticks 0 \$2 5;
#X msg 667 212 \; plot-\$1 yticks 0 0.04 5;
#X obj 105 119 cnv 15 198 198 empty empty empty 20 12 0 14 -162280
-66577 0;
#N canvas 197 95 687 431 (subpatch) 0;
#X array plot-\$0 99999 float 4;
#X coords 0 1 99998 -1 200 200 2 0 0;
#X restore 104 118 graph;
#X msg 524 41 2;
#X msg 564 47 -2;
#X msg 603 52 1;
#X msg 646 59 -1;
#X obj 191 505 metro 0.001;
#X obj 603 87 inlet;
#X connect 1 0 0 1;
#X connect 2 0 14 0;
#X connect 7 0 69 0;
#X connect 7 0 68 0;
#X connect 7 0 71 0;
#X connect 7 0 70 0;
#X connect 7 0 32 0;
#X connect 7 0 51 0;
#X connect 8 0 19 0;
#X connect 8 0 21 0;
#X connect 12 0 0 0;
#X connect 13 0 17 0;
#X connect 14 0 20 0;
#X connect 15 0 20 0;
#X connect 15 1 20 1;
#X connect 16 0 14 0;
#X connect 16 1 14 1;
#X connect 17 0 19 0;
#X connect 17 0 21 0;
#X connect 17 1 19 1;
#X connect 17 1 21 1;
#X connect 18 0 2 0;
#X connect 19 0 15 0;
#X connect 20 0 12 0;
#X connect 21 0 16 0;
#X connect 22 0 23 0;
#X connect 22 0 29 0;
#X connect 22 0 34 0;
#X connect 22 0 37 0;
#X connect 22 0 52 0;
#X connect 23 0 22 1;
#X connect 24 0 22 0;
#X connect 25 0 54 0;
#X connect 25 1 24 0;
#X connect 26 0 25 0;
#X connect 27 0 36 0;
#X connect 29 0 46 0;
#X connect 29 0 45 0;
#X connect 30 0 29 0;
#X connect 30 1 29 1;
#X connect 31 0 22 0;
#X connect 32 0 10 0;
#X connect 35 0 39 0;
#X connect 35 0 40 0;
#X connect 35 0 56 0;
#X connect 36 0 28 0;
#X connect 36 0 9 0;
#X connect 36 0 52 1;
#X connect 36 0 30 0;
#X connect 39 0 14 0;
#X connect 40 0 18 0;
#X connect 41 0 39 1;
#X connect 44 0 41 0;
#X connect 44 0 40 1;
#X connect 45 0 48 0;
#X connect 46 0 47 0;
#X connect 46 0 57 0;
#X connect 47 0 38 0;
#X connect 48 0 38 0;
#X connect 49 0 47 1;
#X connect 50 0 49 0;
#X connect 50 0 48 1;
#X connect 51 0 42 0;
#X connect 51 0 43 0;
#X connect 52 0 53 0;
#X connect 53 0 55 0;
#X connect 54 0 72 0;
#X connect 55 0 72 0;
#X connect 58 0 59 0;
#X connect 59 0 63 0;
#X connect 60 0 61 0;
#X connect 60 1 62 1;
#X connect 61 0 65 0;
#X connect 61 0 62 0;
#X connect 62 0 64 0;
#X connect 63 0 60 0;
#X connect 68 0 4 0;
#X connect 69 0 5 0;
#X connect 70 0 6 0;
#X connect 71 0 33 0;
#X connect 72 0 22 0;
#X connect 73 0 72 1;
#X coords 0 -1 1 1 260 222 1 100 100;
