#N canvas 162 205 500 348 12;
#X obj 53 155 * 2;
#X obj 67 7 inlet rate;
#X obj 142 7 inlet depth;
#X obj 396 8 inlet;
#X obj 396 30 switch~;
#X obj 17 7 inlet~;
#X obj 22 292 outlet~;
#X obj 21 131 osc~;
#X obj 21 155 *~;
#X obj 21 176 +~;
#X obj 20 232 lop~ 7000;
#X obj 224 7 inlet tone;
#X obj 152 48 *~;
#X obj 17 77 delwrite~ chorus1 50;
#X obj 20 198 delread4~ chorus1;
#X obj 184 153 * 2;
#X obj 156 130 osc~;
#X obj 156 153 *~;
#X obj 156 175 +~;
#X obj 155 232 lop~ 7000;
#X obj 151 78 delwrite~ chorus2 50;
#X obj 155 198 delread4~ chorus2;
#X obj 312 153 * 2;
#X obj 284 130 osc~;
#X obj 284 153 *~;
#X obj 284 175 +~;
#X obj 283 232 lop~ 7000;
#X obj 280 78 delwrite~ chorus3 50;
#X obj 283 198 delread4~ chorus3;
#X obj 310 8 inlet sel;
#X obj 330 127 * 1.1;
#X obj 202 127 * 0.9;
#X obj 310 31 == 1;
#X obj 199 268 *~;
#X obj 349 265 metro;
#X obj 349 287 outlet bang;
#X floatatom 406 268 5 0 0 0 - - -;
#X obj 376 244 expr 1000/$f1;
#X obj 156 108 * 1.13;
#X obj 284 108 * 0.91;
#X connect 0 0 9 1;
#X connect 1 0 7 0;
#X connect 1 0 37 0;
#X connect 1 0 38 0;
#X connect 1 0 39 0;
#X connect 2 0 0 0;
#X connect 2 0 8 1;
#X connect 2 0 31 0;
#X connect 2 0 30 0;
#X connect 3 0 4 0;
#X connect 3 0 34 0;
#X connect 5 0 12 0;
#X connect 5 0 13 0;
#X connect 7 0 8 0;
#X connect 8 0 9 0;
#X connect 9 0 14 0;
#X connect 10 0 6 0;
#X connect 11 0 10 1;
#X connect 11 0 19 1;
#X connect 11 0 26 1;
#X connect 12 0 20 0;
#X connect 12 0 27 0;
#X connect 14 0 10 0;
#X connect 15 0 18 1;
#X connect 16 0 17 0;
#X connect 17 0 18 0;
#X connect 18 0 21 0;
#X connect 19 0 33 0;
#X connect 21 0 19 0;
#X connect 22 0 25 1;
#X connect 23 0 24 0;
#X connect 24 0 25 0;
#X connect 25 0 28 0;
#X connect 26 0 33 0;
#X connect 28 0 26 0;
#X connect 29 0 32 0;
#X connect 30 0 24 1;
#X connect 30 0 22 0;
#X connect 31 0 17 1;
#X connect 31 0 15 0;
#X connect 32 0 12 1;
#X connect 32 0 33 1;
#X connect 33 0 6 0;
#X connect 34 0 35 0;
#X connect 37 0 34 1;
#X connect 37 0 36 0;
#X connect 38 0 16 0;
#X connect 39 0 23 0;
