#N canvas 0 50 736 504 12;
#X obj 242 65 phasor~ 0.3;
#X obj 335 103 expr~ 1 - 0.03 - 0.6*abs($v1-0.5)*abs($v1-0.5);
#X obj 242 28 inlet rate;
#X obj 145 35 inlet~;
#N canvas 531 241 450 300 2stage 0;
#X obj 132 86 rpole~;
#X obj 132 61 rzero_rev~;
#X obj 132 135 rpole~;
#X obj 132 110 rzero_rev~;
#X obj 131 28 inlet~;
#X obj 131 172 outlet~;
#X obj 293 26 inlet~ pz;
#X connect 0 0 3 0;
#X connect 1 0 0 0;
#X connect 2 0 5 0;
#X connect 3 0 2 0;
#X connect 4 0 1 0;
#X connect 6 0 1 1;
#X connect 6 0 0 1;
#X connect 6 0 3 1;
#X connect 6 0 2 1;
#X restore 145 90 pd 2stage;
#X obj 343 26 inlet stage;
#X obj 144 361 *~;
#X obj 279 462 outlet~;
#X obj 159 338 == 0;
#N canvas 531 241 450 300 2stage 0;
#X obj 132 86 rpole~;
#X obj 132 61 rzero_rev~;
#X obj 132 135 rpole~;
#X obj 132 110 rzero_rev~;
#X obj 131 28 inlet~;
#X obj 131 172 outlet~;
#X obj 293 26 inlet~ pz;
#X connect 0 0 3 0;
#X connect 1 0 0 0;
#X connect 2 0 5 0;
#X connect 3 0 2 0;
#X connect 4 0 1 0;
#X connect 6 0 1 1;
#X connect 6 0 0 1;
#X connect 6 0 3 1;
#X connect 6 0 2 1;
#X restore 181 118 pd 2stage;
#X obj 181 361 *~;
#X obj 218 361 *~;
#X obj 255 361 *~;
#N canvas 531 241 450 300 2stage 0;
#X obj 132 86 rpole~;
#X obj 132 61 rzero_rev~;
#X obj 132 135 rpole~;
#X obj 132 110 rzero_rev~;
#X obj 131 28 inlet~;
#X obj 131 172 outlet~;
#X obj 293 26 inlet~ pz;
#X connect 0 0 3 0;
#X connect 1 0 0 0;
#X connect 2 0 5 0;
#X connect 3 0 2 0;
#X connect 4 0 1 0;
#X connect 6 0 1 1;
#X connect 6 0 0 1;
#X connect 6 0 3 1;
#X connect 6 0 2 1;
#X restore 218 148 pd 2stage;
#N canvas 531 241 450 300 2stage 0;
#X obj 132 86 rpole~;
#X obj 132 61 rzero_rev~;
#X obj 132 135 rpole~;
#X obj 132 110 rzero_rev~;
#X obj 131 28 inlet~;
#X obj 131 172 outlet~;
#X obj 293 26 inlet~ pz;
#X connect 0 0 3 0;
#X connect 1 0 0 0;
#X connect 2 0 5 0;
#X connect 3 0 2 0;
#X connect 4 0 1 0;
#X connect 6 0 1 1;
#X connect 6 0 0 1;
#X connect 6 0 3 1;
#X connect 6 0 2 1;
#X restore 255 176 pd 2stage;
#N canvas 531 241 450 300 2stage 0;
#X obj 132 86 rpole~;
#X obj 132 61 rzero_rev~;
#X obj 132 135 rpole~;
#X obj 132 110 rzero_rev~;
#X obj 131 28 inlet~;
#X obj 131 172 outlet~;
#X obj 293 26 inlet~ pz;
#X connect 0 0 3 0;
#X connect 1 0 0 0;
#X connect 2 0 5 0;
#X connect 3 0 2 0;
#X connect 4 0 1 0;
#X connect 6 0 1 1;
#X connect 6 0 0 1;
#X connect 6 0 3 1;
#X connect 6 0 2 1;
#X restore 292 204 pd 2stage;
#N canvas 531 241 450 300 2stage 0;
#X obj 132 86 rpole~;
#X obj 132 61 rzero_rev~;
#X obj 132 135 rpole~;
#X obj 132 110 rzero_rev~;
#X obj 131 28 inlet~;
#X obj 131 172 outlet~;
#X obj 293 26 inlet~ pz;
#X connect 0 0 3 0;
#X connect 1 0 0 0;
#X connect 2 0 5 0;
#X connect 3 0 2 0;
#X connect 4 0 1 0;
#X connect 6 0 1 1;
#X connect 6 0 0 1;
#X connect 6 0 3 1;
#X connect 6 0 2 1;
#X restore 329 232 pd 2stage;
#N canvas 531 241 450 300 2stage 0;
#X obj 132 86 rpole~;
#X obj 132 61 rzero_rev~;
#X obj 132 135 rpole~;
#X obj 132 110 rzero_rev~;
#X obj 131 28 inlet~;
#X obj 131 172 outlet~;
#X obj 293 26 inlet~ pz;
#X connect 0 0 3 0;
#X connect 1 0 0 0;
#X connect 2 0 5 0;
#X connect 3 0 2 0;
#X connect 4 0 1 0;
#X connect 6 0 1 1;
#X connect 6 0 0 1;
#X connect 6 0 3 1;
#X connect 6 0 2 1;
#X restore 366 260 pd 2stage;
#N canvas 531 241 450 300 2stage 0;
#X obj 132 86 rpole~;
#X obj 132 61 rzero_rev~;
#X obj 132 135 rpole~;
#X obj 132 110 rzero_rev~;
#X obj 131 28 inlet~;
#X obj 131 172 outlet~;
#X obj 293 26 inlet~ pz;
#X connect 0 0 3 0;
#X connect 1 0 0 0;
#X connect 2 0 5 0;
#X connect 3 0 2 0;
#X connect 4 0 1 0;
#X connect 6 0 1 1;
#X connect 6 0 0 1;
#X connect 6 0 3 1;
#X connect 6 0 2 1;
#X restore 403 288 pd 2stage;
#X obj 292 361 *~;
#X obj 329 361 *~;
#X obj 366 361 *~;
#X obj 403 361 *~;
#X obj 196 338 == 1;
#X obj 233 338 == 2;
#X obj 270 338 == 3;
#X obj 307 338 == 4;
#X obj 344 338 == 5;
#X obj 381 338 == 6;
#X obj 418 338 == 7;
#X obj 279 420 *~;
#X obj 564 54 switch~;
#X obj 564 32 inlet;
#X obj 417 26 inlet dense;
#X connect 0 0 1 0;
#X connect 1 0 4 1;
#X connect 1 0 9 1;
#X connect 1 0 13 1;
#X connect 1 0 14 1;
#X connect 1 0 15 1;
#X connect 1 0 16 1;
#X connect 1 0 17 1;
#X connect 1 0 18 1;
#X connect 2 0 0 0;
#X connect 3 0 4 0;
#X connect 4 0 6 0;
#X connect 4 0 9 0;
#X connect 5 0 8 0;
#X connect 5 0 23 0;
#X connect 5 0 24 0;
#X connect 5 0 25 0;
#X connect 5 0 26 0;
#X connect 5 0 27 0;
#X connect 5 0 28 0;
#X connect 5 0 29 0;
#X connect 6 0 30 0;
#X connect 8 0 6 1;
#X connect 9 0 10 0;
#X connect 9 0 13 0;
#X connect 10 0 30 0;
#X connect 11 0 30 0;
#X connect 12 0 30 0;
#X connect 13 0 14 0;
#X connect 13 0 11 0;
#X connect 14 0 15 0;
#X connect 14 0 12 0;
#X connect 15 0 16 0;
#X connect 15 0 19 0;
#X connect 16 0 17 0;
#X connect 16 0 20 0;
#X connect 17 0 18 0;
#X connect 17 0 21 0;
#X connect 18 0 22 0;
#X connect 19 0 30 0;
#X connect 20 0 30 0;
#X connect 21 0 30 0;
#X connect 22 0 30 0;
#X connect 23 0 10 1;
#X connect 24 0 11 1;
#X connect 25 0 12 1;
#X connect 26 0 19 1;
#X connect 27 0 20 1;
#X connect 28 0 21 1;
#X connect 29 0 22 1;
#X connect 30 0 7 0;
#X connect 32 0 31 0;
#X connect 33 0 30 1;
