#N canvas 533 28 1718 1388 10;
#N canvas 286 125 638 440 ROUTE 0;
#N canvas 562 354 450 300 INPUT 0;
#X obj 155 116 r~ INPUT;
#X obj 155 178 outlet~;
#X connect 0 0 1 0;
#X restore 85 21 pd INPUT;
#N canvas 203 236 450 300 OUTPUT 0;
#X obj 149 120 inlet~;
#X obj 149 178 s~ OUTPUT;
#X connect 0 0 1 0;
#X restore 101 382 pd OUTPUT;
#N canvas 132 144 450 300 DELAY 0;
#X obj 173 80 inlet~;
#X obj 172 248 outlet~;
#X obj 193 133 s~ DELAY-IN;
#X obj 190 190 r~ DELAY-OUT;
#X connect 0 0 2 0;
#X connect 3 0 1 0;
#X restore 119 276 pd DELAY;
#N canvas 132 144 450 300 AMPLIFIER 0;
#X obj 173 80 inlet~;
#X obj 193 133 s~ AMPLIFIER-IN;
#X obj 192 188 r~ AMPLIFIER-OUT;
#X obj 172 248 outlet~;
#X connect 0 0 1 0;
#X connect 2 0 3 0;
#X restore 119 140 pd AMPLIFIER;
#N canvas 132 144 450 300 TREMOLO 0;
#X obj 173 80 inlet~;
#X obj 172 248 outlet~;
#X obj 194 133 s~ TREMOLO-IN;
#X obj 190 190 r~ TREMOLO-OUT;
#X connect 0 0 2 0;
#X connect 3 0 1 0;
#X restore 126 170 pd TREMOLO;
#N canvas 132 144 450 300 CHORUS 0;
#X obj 173 80 inlet~;
#X obj 172 248 outlet~;
#X obj 194 133 s~ CHORUS-IN;
#X obj 190 190 r~ CHORUS-OUT;
#X connect 0 0 2 0;
#X connect 3 0 1 0;
#X restore 119 203 pd CHORUS;
#N canvas 132 144 450 300 PHASER 0;
#X obj 173 80 inlet~;
#X obj 172 248 outlet~;
#X obj 193 133 s~ PHASER-IN;
#X obj 192 188 r~ PHASER-OUT;
#X connect 0 0 2 0;
#X connect 3 0 1 0;
#X restore 98 77 pd PHASER;
#N canvas 132 144 450 300 FLANGER 0;
#X obj 173 80 inlet~;
#X obj 172 248 outlet~;
#X obj 193 133 s~ FLANGER-IN;
#X obj 192 188 r~ FLANGER-OUT;
#X connect 0 0 2 0;
#X connect 3 0 1 0;
#X restore 120 233 pd FLANGER;
#N canvas 132 144 450 300 VIBE 0;
#X obj 173 80 inlet~;
#X obj 172 248 outlet~;
#X obj 193 133 s~ VIBE-IN;
#X obj 192 188 r~ VIBE-OUT;
#X connect 0 0 2 0;
#X connect 3 0 1 0;
#X restore 119 255 pd VIBE;
#N canvas 629 305 450 300 EXTERNAL 0;
#X obj 113 30 inlet~;
#X obj 112 198 outlet~;
#X obj 131 83 s~ EXTERNAL-IN;
#X obj 132 138 r~ EXTERNAL-OUT;
#X connect 0 0 2 0;
#X connect 3 0 1 0;
#X restore 119 334 pd EXTERNAL;
#N canvas 629 305 450 300 PRE 0;
#X obj 113 30 inlet~;
#X obj 112 198 outlet~;
#X obj 131 83 s~ PRE-IN;
#X obj 132 138 r~ PRE-OUT;
#X connect 0 0 2 0;
#X connect 3 0 1 0;
#X restore 105 105 pd PRE;
#X connect 0 0 6 0;
#X connect 2 0 9 0;
#X connect 3 0 4 0;
#X connect 4 0 5 0;
#X connect 5 0 7 0;
#X connect 6 0 10 0;
#X connect 7 0 8 0;
#X connect 8 0 2 0;
#X connect 9 0 1 0;
#X connect 10 0 3 0;
#X restore 29 552 pd ROUTE;
#N canvas 575 50 635 710 AMPLIFIER 0;
#X obj 115 664 s~ AMPLIFIER-OUT;
#X obj 114 312 r~ AMPLIFIER-IN;
#X obj 176 8 loadbang;
#X msg 112 47 0.707;
#X obj 140 430 *~ 1;
#X obj 111 124 vsl 20 70 0.99 0.1 0 0 empty empty HEAD -1 80 0 10 -262144
-1 -1 2194 1;
#X obj 138 124 vsl 20 70 0 80 0 0 empty empty GAIN -2 80 0 10 -262144
-1 -1 1725 1;
#X obj 142 507 lop~ 7000;
#X obj 142 533 lop~ 7000;
#X obj 165 124 vsl 20 70 500 1 0 0 empty empty LOW 1 80 0 10 -262144
-1 -1 6222 1;
#X obj 192 124 vsl 20 70 1000 13000 1 0 empty empty HIGH -2 80 0 10
-262144 -1 -1 5235 1;
#X obj 142 559 hip~ 50;
#X msg 194 76 7000;
#X msg 167 55 50;
#X msg 139 75 20;
#X obj 161 408 expr pow(10 \, $f1/20);
#X obj 219 178 tgl 20 0 empty empty ON 3 26 0 10 -262144 -1 -1 0 1
;
#X obj 219 124 vsl 20 40 0.01 1 1 0 empty empty VOL 1 50 0 10 -262144
-1 -1 3313 1;
#X obj 143 598 *~ 1;
#X msg 241 51 0.5;
#X obj 192 338 lop~ 10000;
#X obj 140 386 hip~ 100;
#X obj 241 522 * 1.5;
#X msg 48 435 0;
#X obj 263 665 outlet~ TEST;
#X obj 192 362 lop~ 8000;
#X obj 141 466 FX_Distortion~;
#X obj 114 634 ispigot~;
#X connect 1 0 20 0;
#X connect 1 0 27 0;
#X connect 2 0 3 0;
#X connect 2 0 12 0;
#X connect 2 0 13 0;
#X connect 2 0 14 0;
#X connect 2 0 19 0;
#X connect 2 0 23 0;
#X connect 3 0 5 0;
#X connect 4 0 26 0;
#X connect 5 0 26 1;
#X connect 6 0 15 0;
#X connect 7 0 8 0;
#X connect 8 0 11 0;
#X connect 9 0 11 1;
#X connect 9 0 21 1;
#X connect 10 0 7 1;
#X connect 10 0 22 0;
#X connect 11 0 18 0;
#X connect 12 0 10 0;
#X connect 13 0 9 0;
#X connect 14 0 6 0;
#X connect 15 0 4 1;
#X connect 16 0 27 2;
#X connect 17 0 18 1;
#X connect 18 0 27 1;
#X connect 19 0 17 0;
#X connect 20 0 25 0;
#X connect 21 0 4 0;
#X connect 22 0 8 1;
#X connect 23 0 27 2;
#X connect 25 0 21 0;
#X connect 26 0 7 0;
#X connect 27 0 0 0;
#X connect 27 0 24 0;
#X coords 0 -1 1 1 150 115 1 100 100;
#X restore 275 32 pd AMPLIFIER;
#N canvas 319 88 873 590 TREMOLO 0;
#X obj 311 215 r~ TREMOLO-IN;
#X obj 311 455 s~ TREMOLO-OUT;
#X obj 187 123 vsl 20 70 0 0.5 0 0 empty empty DEPTH -4 80 0 10 -262144
-1 -1 4140 1;
#X obj 156 121 bng 20 250 50 0 empty empty empty 17 7 0 10 -262144
-1 -1;
#X obj 111 193 tgl 15 0 empty empty ON 17 7 0 10 -262144 -1 -1 0 1
;
#X obj 156 143 vsl 20 50 0.1 15 1 0 empty empty RATE -1 60 0 10 -262144
-1 -1 2252 1;
#X obj 136 121 vradio 14 1 0 5 empty empty empty 0 -8 0 10 -262144
-1 -1 1;
#X text 106 119 osc;
#X text 106 133 tri;
#X text 106 147 saw;
#X text 106 174 sqr;
#X text 106 161 inv;
#X obj 225 39 == 0;
#X msg 230 73 0;
#X obj 110 45 loadbang;
#X msg 116 71 1;
#X msg 158 72 0.3;
#X obj 218 123 vsl 20 70 0.5 2 1 0 empty empty LEVEL -2 80 0 10 -262144
-1 -1 3450 1;
#X obj 376 325 *~ 1;
#X msg 80 287 0;
#X obj 455 454 outlet~ TEST;
#X obj 314 157 metro;
#X obj 316 127 expr 1000/$f1;
#X obj 379 366 FX_Tremolo~;
#X obj 311 408 ispigot~;
#X connect 0 0 18 0;
#X connect 0 0 24 0;
#X connect 2 0 23 2;
#X connect 4 0 12 0;
#X connect 4 0 21 0;
#X connect 4 0 23 4;
#X connect 4 0 24 2;
#X connect 5 0 22 0;
#X connect 5 0 23 1;
#X connect 6 0 23 3;
#X connect 12 0 13 0;
#X connect 14 0 15 0;
#X connect 14 0 16 0;
#X connect 14 0 19 0;
#X connect 15 0 6 0;
#X connect 15 0 5 0;
#X connect 15 0 17 0;
#X connect 16 0 2 0;
#X connect 17 0 18 1;
#X connect 18 0 23 0;
#X connect 19 0 24 2;
#X connect 21 0 3 0;
#X connect 22 0 21 1;
#X connect 23 0 24 1;
#X connect 24 0 1 0;
#X connect 24 0 20 0;
#X coords 0 -1 1 1 150 115 1 100 100;
#X restore 274 152 pd TREMOLO;
#N canvas 117 50 984 700 DELAY 0;
#X obj 142 286 r~ DELAY-IN;
#X obj 143 656 s~ DELAY-OUT;
#X obj 192 535 delread4~ delay;
#X obj 197 125 vsl 20 70 30 2000 0 0 empty empty DELAY -5 80 0 10 -262144
-1 -1 1296 1;
#X obj 191 504 line~;
#X msg 191 481 \$1 700;
#X obj 241 345 *~;
#X obj 168 125 vsl 20 70 0.01 1 0 0 empty empty RPT 1 80 0 10 -262144
-1 -1 3415 1;
#X obj 186 390 lop~ 5000;
#X obj 239 575 *~;
#X obj 108 125 vsl 20 70 0 1 0 0 empty empty LEVEL -4 80 0 10 -262144
-1 -1 3450 1;
#X obj 138 125 vsl 20 70 500 7000 1 0 empty empty HIGS -1 80 0 10 -262144
-1 -1 6020 1;
#X obj 223 123 bng 20 250 50 0 empty empty TAP 0 25 0 10 -262144 -1
-1;
#X obj 281 176 metro;
#X obj 173 15 loadbang;
#X obj 223 155 bng 20 250 50 0 empty empty empty 17 7 0 10 -262144
-1 -1;
#X obj 223 188 tgl 20 0 empty empty ON 0 -5 0 10 -262144 -1 -1 0 1
;
#X msg 112 67 0.5;
#X msg 150 68 5000;
#X msg 192 69 0.5;
#X msg 230 67 400;
#X obj 187 421 delwrite~ delay 2000;
#X obj 171 335 *~;
#X msg 301 290 0;
#X obj 142 606 +~;
#X obj 233 657 outlet~ TEST;
#X obj 279 122 tap_tempo;
#X connect 0 0 22 0;
#X connect 0 0 24 0;
#X connect 2 0 9 0;
#X connect 2 0 6 0;
#X connect 3 0 5 0;
#X connect 3 0 13 1;
#X connect 4 0 2 0;
#X connect 5 0 4 0;
#X connect 6 0 8 0;
#X connect 7 0 6 1;
#X connect 8 0 21 0;
#X connect 9 0 24 0;
#X connect 10 0 9 1;
#X connect 11 0 8 1;
#X connect 12 0 26 0;
#X connect 13 0 15 0;
#X connect 14 0 17 0;
#X connect 14 0 18 0;
#X connect 14 0 19 0;
#X connect 14 0 20 0;
#X connect 14 0 23 0;
#X connect 16 0 13 0;
#X connect 16 0 22 1;
#X connect 17 0 10 0;
#X connect 18 0 11 0;
#X connect 19 0 7 0;
#X connect 20 0 3 0;
#X connect 22 0 8 0;
#X connect 23 0 22 1;
#X connect 24 0 1 0;
#X connect 24 0 25 0;
#X connect 26 0 3 0;
#X coords 0 -1 1 1 150 115 1 100 100;
#X restore 427 152 pd DELAY;
#N canvas 75 50 1085 700 CHORUS 0;
#X obj 397 282 r~ CHORUS-IN;
#X obj 397 595 s~ CHORUS-OUT;
#X obj 136 125 vsl 20 70 0.1 10 1 0 empty empty RATE -2 80 0 10 -262144
-1 -1 2411 1;
#X obj 166 125 vsl 20 70 0 2 0 0 empty empty DEPTH -5 80 0 10 -262144
-1 -1 3450 1;
#X obj 196 125 vsl 20 70 0.01 1 1 0 empty empty LEVEL -4 80 0 10 -262144
-1 -1 6900 1;
#X obj 108 125 vsl 20 70 500 15000 1 0 empty empty TONE -2 80 0 10
-262144 -1 -1 5354 1;
#X obj 515 594 outlet~ TEST;
#X obj 222 123 tgl 20 0 empty empty 1/3 0 25 0 10 -262144 -1 -1 0 1
;
#X obj 222 177 tgl 20 0 empty empty ON 0 25 0 10 -262144 -1 -1 0 1
;
#X msg 227 62 0;
#X obj 171 22 loadbang;
#X msg 99 66 7000;
#X msg 139 63 0.5;
#X msg 172 63 1;
#X obj 222 154 bng 20 250 50 0 empty empty empty 17 7 0 10 -262144
-1 -1;
#X obj 444 463 *~;
#X obj 457 400 FX_Chorus~;
#X connect 0 0 1 0;
#X connect 0 0 6 0;
#X connect 0 0 16 0;
#X connect 2 0 16 1;
#X connect 3 0 16 2;
#X connect 4 0 15 1;
#X connect 5 0 16 3;
#X connect 7 0 16 4;
#X connect 8 0 16 5;
#X connect 9 0 7 0;
#X connect 10 0 9 0;
#X connect 10 0 11 0;
#X connect 10 0 12 0;
#X connect 10 0 13 0;
#X connect 11 0 5 0;
#X connect 12 0 2 0;
#X connect 13 0 3 0;
#X connect 13 0 4 0;
#X connect 15 0 1 0;
#X connect 15 0 6 0;
#X connect 16 0 15 0;
#X connect 16 1 14 0;
#X coords 0 -1 1 1 150 115 1 100 100;
#X restore 581 152 pd CHORUS;
#N canvas 516 195 712 606 PHASER 0;
#X obj 98 250 r~ PHASER-IN;
#X obj 97 497 s~ PHASER-OUT;
#X obj 143 124 vsl 20 70 0 1 0 0 empty empty DEPTH -4 80 0 10 -262144
-1 -1 3450 1;
#X obj 111 124 vsl 20 70 0.1 5 1 0 empty empty RATE -1 80 0 10 -262144
-1 -1 4061 1;
#X obj 178 122 vradio 10 1 0 8 empty empty empty 0 85 0 10 -262144
-1 -1 2;
#X text 190 118 2x;
#X text 190 128 4x;
#X text 190 139 6x;
#X text 190 149 8x;
#X text 190 159 10x;
#X text 190 169 12x;
#X text 190 179 14x;
#X text 190 189 16x;
#X obj 219 177 tgl 20 0 empty empty ON 0 25 0 10 -262144 -1 -1 0 1
;
#X obj 219 122 bng 20 250 50 0 empty empty empty 17 7 0 10 -262144
-1 -1;
#X obj 274 167 metro;
#X obj 300 140 expr 1000/$f1;
#X obj 167 448 outlet~ TEST;
#X obj 150 41 loadbang;
#X msg 106 65 1;
#X msg 147 71 0.5;
#X msg 186 66 2;
#X obj 173 348 FX_Phaser~;
#X connect 0 0 1 0;
#X connect 0 0 17 0;
#X connect 0 0 22 0;
#X connect 2 0 22 3;
#X connect 3 0 16 0;
#X connect 3 0 22 1;
#X connect 4 0 22 2;
#X connect 13 0 15 0;
#X connect 13 0 22 4;
#X connect 15 0 14 0;
#X connect 16 0 15 1;
#X connect 18 0 19 0;
#X connect 18 0 20 0;
#X connect 18 0 21 0;
#X connect 19 0 3 0;
#X connect 20 0 2 0;
#X connect 21 0 4 0;
#X connect 22 0 1 0;
#X connect 22 0 17 0;
#X coords 0 -1 1 1 150 115 1 100 100;
#X restore 274 272 pd PHASER;
#N canvas 144 50 971 700 FLANGER 0;
#X obj 399 203 r~ FLANGER-IN;
#X obj 399 541 s~ FLANGER-OUT;
#X obj 111 125 vsl 20 70 0.05 5 1 0 empty empty RATE -2 80 0 10 -262144
-1 -1 4489 1;
#X obj 145 125 vsl 20 70 0 2 0 0 empty empty DEPTH -4 80 0 10 -262144
-1 -1 3450 1;
#X obj 180 125 vsl 20 70 0 1 0 0 empty empty REGEN -4 80 0 10 -262144
-1 -1 690 1;
#X msg 511 290 1;
#X obj 511 347 *;
#X obj 511 317 t b f, f 6;
#X obj 525 255 sel 0 1;
#X msg 543 290 -1;
#X obj 219 188 tgl 20 0 empty empty ON 0 -5 0 10 -262144 -1 -1 0 1
;
#X obj 219 157 tgl 20 0 empty empty +/- 0 -5 0 10 -262144 -1 -1 0 1
;
#X obj 219 123 bng 20 250 50 0 empty empty empty 17 7 0 10 -262144
-1 -1;
#X obj 547 156 metro;
#X obj 574 129 expr 1000/$f1;
#X obj 126 32 loadbang;
#X msg 90 63 1;
#X msg 136 68 1;
#X msg 182 66 0.1;
#X msg 239 70 0;
#X obj 575 518 outlet~ TEST;
#X obj 469 393 FX_Flanger~;
#X connect 0 0 1 0;
#X connect 0 0 20 0;
#X connect 0 0 21 0;
#X connect 2 0 14 0;
#X connect 2 0 21 1;
#X connect 3 0 21 2;
#X connect 4 0 6 0;
#X connect 5 0 7 0;
#X connect 6 0 21 3;
#X connect 7 0 6 0;
#X connect 7 1 6 1;
#X connect 8 0 5 0;
#X connect 8 1 9 0;
#X connect 9 0 7 0;
#X connect 10 0 13 0;
#X connect 10 0 21 4;
#X connect 11 0 8 0;
#X connect 13 0 12 0;
#X connect 14 0 13 1;
#X connect 15 0 16 0;
#X connect 15 0 17 0;
#X connect 15 0 18 0;
#X connect 15 0 19 0;
#X connect 16 0 2 0;
#X connect 17 0 3 0;
#X connect 18 0 4 0;
#X connect 19 0 11 0;
#X connect 21 0 1 0;
#X connect 21 0 20 0;
#X coords 0 -1 1 1 150 115 1 100 100;
#X restore 428 272 pd FLANGER;
#N canvas 394 65 749 610 VIBE 0;
#X obj 374 289 r~ VIBE-IN;
#X obj 378 513 s~ VIBE-OUT;
#X obj 222 183 tgl 15 0 empty empty ON 0 20 0 10 -262144 -1 -1 0 1
;
#X obj 194 125 vsl 20 70 0.1 10 1 0 empty empty RATE -2 80 0 10 -262144
-1 -1 3450 1;
#X obj 110 125 vsl 20 70 0 2 0 0 empty empty DEPTH -5 80 0 10 -262144
-1 -1 3450 1;
#X obj 138 125 vsl 20 70 0.01 1 1 0 empty empty BAL 1 80 0 10 -262144
-1 -1 6900 1;
#X obj 166 125 vsl 20 70 100 10000 1 0 empty empty X 6 80 0 10 -262144
-1 -1 3116 1;
#X obj 222 123 vradio 20 1 0 3 empty empty empty 0 -8 0 10 -262144
-1 -1 0;
#X obj 177 21 loadbang;
#X msg 209 58 0;
#X msg 91 56 1;
#X msg 131 62 800;
#X msg 173 66 1;
#X obj 527 491 outlet~ TEST;
#X obj 413 369 FX_LeslieVibe~;
#X obj 377 444 ispigot~;
#X connect 0 0 14 0;
#X connect 0 0 15 0;
#X connect 2 0 14 6;
#X connect 2 0 15 2;
#X connect 3 0 14 2;
#X connect 4 0 14 1;
#X connect 5 0 14 3;
#X connect 6 0 14 4;
#X connect 7 0 14 5;
#X connect 8 0 9 0;
#X connect 8 0 11 0;
#X connect 8 0 10 0;
#X connect 8 0 12 0;
#X connect 9 0 7 0;
#X connect 9 0 15 2;
#X connect 10 0 4 0;
#X connect 10 0 5 0;
#X connect 11 0 6 0;
#X connect 12 0 3 0;
#X connect 14 0 15 1;
#X connect 15 0 1 0;
#X connect 15 0 13 0;
#X coords 0 -1 1 1 150 115 1 100 100;
#X restore 581 272 pd VIBE;
#X obj 760 26 r~ EXTERNAL-IN;
#X obj 772 1285 s~ EXTERNAL-OUT;
#X obj 1146 29 r~ PRE-IN;
#X obj 1170 1173 s~ PRE-OUT;
#X obj 21 25 UI_input~;
#X obj 18 409 UI_output~;
#X obj 1230 1017 sculptdrive;
#X obj 772 1230 torpedo;
#X obj 771 776 lofidelay;
#X obj 771 668 paraeq;
#X obj 771 899 blacksheep;
#X obj 1218 143 ShinNuclearUI;
#X obj 27 323 s~ INPUT;
#X obj 19 375 r~ OUTPUT;
#X obj 1219 446 shindriveui;
#X obj 792 393 shinghostui;
#X obj 1242 782 shinoctaveui;
#X obj 1229 613 shinphaserui;
#X connect 8 0 23 0;
#X connect 10 0 19 0;
#X connect 12 0 20 0;
#X connect 14 0 11 0;
#X connect 15 0 9 0;
#X connect 16 0 18 0;
#X connect 17 0 16 0;
#X connect 18 0 15 0;
#X connect 19 0 22 0;
#X connect 21 0 13 0;
#X connect 22 0 25 0;
#X connect 23 0 17 0;
#X connect 24 0 14 0;
#X connect 25 0 24 0;
