#N canvas 54 50 1304 726 10;
#X obj 100 100 cnv 5 128 6 empty empty empty 20 12 0 14 -1 -66577 0
;
#X obj 102 102 cnv 2 12 2 empty \$0-sk1 empty 20 12 0 14 -66577 -66577
0;
#X obj 114 102 cnv 2 12 2 empty \$0-sk2 empty 20 12 0 14 -66577 -66577
0;
#X obj 127 102 cnv 2 12 2 empty \$0-sk3 empty 20 12 0 14 -66577 -66577
0;
#X obj 139 102 cnv 2 12 2 empty \$0-sk4 empty 20 12 0 14 -66577 -66577
0;
#X obj 152 102 cnv 2 12 2 empty \$0-sk5 empty 20 12 0 14 -66577 -66577
0;
#X obj 164 102 cnv 2 12 2 empty \$0-sk6 empty 20 12 0 14 -66577 -66577
0;
#X obj 177 102 cnv 2 12 2 empty \$0-sk7 empty 20 12 0 14 -66577 -66577
0;
#X obj 189 102 cnv 2 12 2 empty \$0-sk8 empty 20 12 0 14 -66577 -66577
0;
#X obj 202 102 cnv 2 12 2 empty \$0-sk9 empty 20 12 0 14 -66577 -66577
0;
#X obj 214 102 cnv 2 12 2 empty \$0-sk10 empty 20 12 0 14 -66577 -66577
0;
#X obj 488 268 sel 0 1;
#X msg 488 289 2;
#X msg 521 289 16;
#X msg 488 310 color \$1;
#X obj 488 331 s \$0-sk1;
#X obj 488 217 > -70;
#X obj 558 268 sel 0 1;
#X msg 558 289 2;
#X msg 591 289 16;
#X msg 558 310 color \$1;
#X obj 558 217 > -50;
#X obj 558 331 s \$0-sk2;
#X obj 629 268 sel 0 1;
#X msg 629 289 2;
#X msg 662 289 16;
#X msg 629 310 color \$1;
#X obj 629 217 > -30;
#X obj 629 331 s \$0-sk3;
#X obj 696 268 sel 0 1;
#X msg 696 289 2;
#X msg 729 289 16;
#X msg 696 310 color \$1;
#X obj 696 217 > -20;
#X obj 696 331 s \$0-sk4;
#X obj 767 268 sel 0 1;
#X msg 767 289 2;
#X msg 767 310 color \$1;
#X obj 767 217 > -12;
#X obj 767 331 s \$0-sk5;
#X msg 800 289 15;
#X obj 838 268 sel 0 1;
#X msg 838 289 2;
#X msg 838 310 color \$1;
#X msg 871 289 15;
#X obj 838 217 > -6;
#X obj 838 331 s \$0-sk6;
#X obj 910 268 sel 0 1;
#X msg 910 289 2;
#X msg 910 310 color \$1;
#X obj 910 217 > -2;
#X obj 910 331 s \$0-sk7;
#X obj 984 268 sel 0 1;
#X msg 984 289 2;
#X msg 984 310 color \$1;
#X obj 984 217 > 0;
#X msg 1017 289 13;
#X obj 984 331 s \$0-sk8;
#X msg 942 289 14;
#X obj 1056 267 sel 0 1;
#X msg 1056 288 2;
#X msg 1056 309 color \$1;
#X msg 1089 288 13;
#X obj 1056 216 > 2;
#X obj 1056 330 s \$0-sk9;
#X obj 1128 266 sel 0 1;
#X msg 1128 287 2;
#X msg 1128 308 color \$1;
#X msg 1161 287 13;
#X obj 1128 215 > 6;
#X obj 1128 329 s \$0-sk10;
#X obj 685 81 inlet;
#X obj 488 245 change;
#X obj 558 245 change;
#X obj 628 245 change;
#X obj 698 245 change;
#X obj 768 245 change;
#X obj 838 245 change;
#X obj 908 245 change;
#X obj 978 245 change;
#X obj 1057 245 change;
#X obj 1127 245 change;
#X connect 11 0 12 0;
#X connect 11 1 13 0;
#X connect 12 0 14 0;
#X connect 13 0 14 0;
#X connect 14 0 15 0;
#X connect 16 0 72 0;
#X connect 17 0 18 0;
#X connect 17 1 19 0;
#X connect 18 0 20 0;
#X connect 19 0 20 0;
#X connect 20 0 22 0;
#X connect 21 0 73 0;
#X connect 23 0 24 0;
#X connect 23 1 25 0;
#X connect 24 0 26 0;
#X connect 25 0 26 0;
#X connect 26 0 28 0;
#X connect 27 0 74 0;
#X connect 29 0 30 0;
#X connect 29 1 31 0;
#X connect 30 0 32 0;
#X connect 31 0 32 0;
#X connect 32 0 34 0;
#X connect 33 0 75 0;
#X connect 35 0 36 0;
#X connect 35 1 40 0;
#X connect 36 0 37 0;
#X connect 37 0 39 0;
#X connect 38 0 76 0;
#X connect 40 0 37 0;
#X connect 41 0 42 0;
#X connect 41 1 44 0;
#X connect 42 0 43 0;
#X connect 43 0 46 0;
#X connect 44 0 43 0;
#X connect 45 0 77 0;
#X connect 47 0 48 0;
#X connect 47 1 58 0;
#X connect 48 0 49 0;
#X connect 49 0 51 0;
#X connect 50 0 78 0;
#X connect 52 0 53 0;
#X connect 52 1 56 0;
#X connect 53 0 54 0;
#X connect 54 0 57 0;
#X connect 55 0 79 0;
#X connect 56 0 54 0;
#X connect 58 0 49 0;
#X connect 59 0 60 0;
#X connect 59 1 62 0;
#X connect 60 0 61 0;
#X connect 61 0 64 0;
#X connect 62 0 61 0;
#X connect 63 0 80 0;
#X connect 65 0 66 0;
#X connect 65 1 68 0;
#X connect 66 0 67 0;
#X connect 67 0 70 0;
#X connect 68 0 67 0;
#X connect 69 0 81 0;
#X connect 71 0 16 0;
#X connect 71 0 21 0;
#X connect 71 0 27 0;
#X connect 71 0 33 0;
#X connect 71 0 38 0;
#X connect 71 0 45 0;
#X connect 71 0 50 0;
#X connect 71 0 55 0;
#X connect 71 0 63 0;
#X connect 71 0 69 0;
#X connect 72 0 11 0;
#X connect 73 0 17 0;
#X connect 74 0 23 0;
#X connect 75 0 29 0;
#X connect 76 0 35 0;
#X connect 77 0 41 0;
#X connect 78 0 47 0;
#X connect 79 0 52 0;
#X connect 80 0 59 0;
#X connect 81 0 65 0;
#X coords 0 -1 1 1 128 6 2 100 100;
