#N canvas 486 50 860 710 10;
#X obj 430 67 oscparse;
#X obj 430 131 list fromsymbol;
#X obj 430 154 - 48;
#X obj 430 180 s \$0-page;
#X obj 430 107 unpack s s;
#X obj 506 156 list fromsymbol;
#X obj 506 201 s \$0-toggle;
#X obj 506 178 i \$1;
#X obj 111 36 loadbang;
#X obj 111 59 f \$1;
#X msg 111 107 listen \$1;
#X obj 111 83 expr if($f1==0 \, 8000 \, $f1);
#X obj 430 45 netreceive -u -b;
#X obj 322 330 outlet raw;
#X obj 59 279 route set;
#N canvas 118 244 859 512 decoder 0;
#X obj 237 112 spigot;
#X obj 60 166 spigot;
#X obj 287 95 == 3;
#X obj 60 188 unpack s s f;
#X obj 109 149 < 3;
#X obj 237 134 unpack s s f f;
#X obj 61 257 pack f s f;
#X obj 59 232 f \$1;
#X msg 61 280 set \$3 \$2 \$1;
#X obj 59 211 del 1;
#X obj 109 127 r \$0-page;
#X obj 287 73 r \$0-page;
#X obj 237 206 pack f f s f;
#X obj 237 180 f \$1;
#X obj 237 159 del 1;
#X msg 180 334 set \$4 \$3 \$1 \$2;
#X obj 439 183 spigot;
#X obj 636 113 r \$0-page;
#X obj 439 252 f \$1;
#X obj 439 231 del 1;
#X obj 489 166 == 4;
#X obj 439 206 unpack s s s s f;
#X obj 493 231 unpack s;
#X obj 493 253 list fromsymbol;
#X obj 439 351 pack f s f f f;
#X obj 534 278 unpack s;
#X obj 534 302 list fromsymbol;
#X msg 439 374 set \$5 \$2 \$3 \$4 \$1;
#X obj 493 275 - 48;
#X obj 534 324 - 48;
#X obj 180 311 spigot;
#X obj 269 248 r \$0-toggle;
#X obj 302 313 spigot;
#X obj 219 290 != 116;
#X obj 341 292 == 116;
#X msg 302 335 set \$4 \$3 \$1;
#X obj 439 162 spigot;
#X obj 478 141 != 116;
#X obj 687 73 r \$0-toggle;
#X obj 663 339 f \$1;
#X obj 663 318 del 1;
#X obj 663 361 pack f s f;
#X msg 663 384 set \$3 \$2 \$1;
#X obj 663 293 unpack s s f;
#X obj 663 272 spigot;
#X obj 713 255 == 4;
#X obj 663 250 spigot;
#X obj 702 229 == 116;
#X obj 402 2 inlet;
#X obj 337 449 outlet;
#X connect 0 0 5 0;
#X connect 1 0 3 0;
#X connect 2 0 0 1;
#X connect 3 1 6 1;
#X connect 3 2 9 0;
#X connect 3 2 7 1;
#X connect 4 0 1 1;
#X connect 5 1 12 2;
#X connect 5 2 14 0;
#X connect 5 2 13 1;
#X connect 5 3 12 1;
#X connect 6 0 8 0;
#X connect 7 0 6 0;
#X connect 8 0 49 0;
#X connect 9 0 7 0;
#X connect 10 0 4 0;
#X connect 10 0 6 2;
#X connect 11 0 2 0;
#X connect 11 0 12 3;
#X connect 12 0 30 0;
#X connect 12 0 32 0;
#X connect 13 0 12 0;
#X connect 14 0 13 0;
#X connect 15 0 49 0;
#X connect 16 0 21 0;
#X connect 17 0 20 0;
#X connect 17 0 24 4;
#X connect 17 0 41 2;
#X connect 17 0 45 0;
#X connect 18 0 24 0;
#X connect 19 0 18 0;
#X connect 20 0 16 1;
#X connect 21 1 24 1;
#X connect 21 2 22 0;
#X connect 21 3 25 0;
#X connect 21 4 19 0;
#X connect 21 4 18 1;
#X connect 22 0 23 0;
#X connect 23 0 28 0;
#X connect 24 0 27 0;
#X connect 25 0 26 0;
#X connect 26 0 29 0;
#X connect 27 0 49 0;
#X connect 28 0 24 2;
#X connect 29 0 24 3;
#X connect 30 0 15 0;
#X connect 31 0 33 0;
#X connect 31 0 34 0;
#X connect 32 0 35 0;
#X connect 33 0 30 1;
#X connect 34 0 32 1;
#X connect 35 0 49 0;
#X connect 36 0 16 0;
#X connect 37 0 36 1;
#X connect 38 0 37 0;
#X connect 38 0 47 0;
#X connect 39 0 41 0;
#X connect 40 0 39 0;
#X connect 41 0 42 0;
#X connect 42 0 49 0;
#X connect 43 1 41 1;
#X connect 43 2 40 0;
#X connect 43 2 39 1;
#X connect 44 0 43 0;
#X connect 45 0 44 1;
#X connect 46 0 44 0;
#X connect 47 0 46 1;
#X connect 48 0 1 0;
#X connect 48 0 0 0;
#X connect 48 0 36 0;
#X connect 48 0 46 0;
#X restore 59 248 pd decoder;
#X obj 33 83 sel 0;
#X obj 33 188 print;
#N canvas 126 129 1139 776 linker 0;
#X obj 462 79 route 1 2 3 4;
#X obj 41 241 s \$1.1.fader1;
#X obj 88 224 s \$1.1.fader2;
#X obj 135 207 s \$1.1.fader3;
#X obj 183 190 s \$1.1.fader4;
#X obj 41 131 route fader1 fader2 fader3 fader4 fader5;
#X obj 230 173 s \$1.1.fader5;
#X obj 39 276 route toggle1 toggle2 toggle3 toggle4;
#X obj 39 356 s \$1.1.toggle1;
#X obj 93 339 s \$1.1.toggle2;
#X obj 363 134 route push1 push2 push3 push4;
#X obj 363 219 s \$1.2.push1;
#X obj 399 202 s \$1.2.push2;
#X obj 436 185 s \$1.2.push3;
#X obj 473 168 s \$1.2.push4;
#X obj 363 244 route push5 push6 push7 push8;
#X obj 363 329 s \$1.2.push5;
#X obj 399 312 s \$1.2.push6;
#X obj 436 295 s \$1.2.push7;
#X obj 473 278 s \$1.2.push8;
#X obj 363 354 route push9 push10 push11 push12;
#X obj 363 439 s \$1.2.push9;
#X obj 404 422 s \$1.2.push10;
#X obj 445 405 s \$1.2.push11;
#X obj 486 388 s \$1.2.push12;
#X obj 363 464 route push13 push14 push15 push16;
#X obj 363 549 s \$1.2.push13;
#X obj 405 532 s \$1.2.push14;
#X obj 448 515 s \$1.2.push15;
#X obj 491 498 s \$1.2.push16;
#X obj 363 578 route toggle1 toggle2 toggle3 toggle4;
#X obj 363 658 s \$1.2.toggle1;
#X obj 417 641 s \$1.2.toggle2;
#X obj 148 322 s \$1.1.toggle3;
#X obj 203 305 s \$1.1.toggle4;
#X obj 472 624 s \$1.2.toggle3;
#X obj 527 607 s \$1.2.toggle4;
#X obj 604 133 route xy;
#X obj 604 166 unpack;
#X obj 604 208 s \$1.3.x;
#X obj 637 191 s \$1.3.y;
#X obj 604 236 route toggle1 toggle2 toggle3 toggle4;
#X obj 604 316 s \$1.3.toggle1;
#X obj 658 299 s \$1.3.toggle2;
#X obj 713 282 s \$1.3.toggle3;
#X obj 768 265 s \$1.3.toggle4;
#X obj 879 133 route toggle1 toggle2 toggle3 toggle4;
#X obj 879 213 s \$1.3.toggle1;
#X obj 933 196 s \$1.3.toggle2;
#X obj 988 179 s \$1.3.toggle3;
#X obj 1043 162 s \$1.3.toggle4;
#X obj 880 260 route multitoggle;
#X msg 880 381 \$1.4.\$2\$3;
#X obj 925 307 unpack f f f;
#X obj 880 283 t b list;
#X obj 880 307 f \$1;
#X obj 880 349 pack f f f;
#X obj 880 476 send;
#X msg 994 397 set \$1;
#X msg 880 442;
#X obj 880 406 t b s;
#X obj 462 40 inlet;
#X connect 0 0 5 0;
#X connect 0 1 10 0;
#X connect 0 2 37 0;
#X connect 0 3 46 0;
#X connect 5 0 1 0;
#X connect 5 1 2 0;
#X connect 5 2 3 0;
#X connect 5 3 4 0;
#X connect 5 4 6 0;
#X connect 5 5 7 0;
#X connect 7 0 8 0;
#X connect 7 1 9 0;
#X connect 7 2 33 0;
#X connect 7 3 34 0;
#X connect 10 0 11 0;
#X connect 10 1 12 0;
#X connect 10 2 13 0;
#X connect 10 3 14 0;
#X connect 10 4 15 0;
#X connect 15 0 16 0;
#X connect 15 1 17 0;
#X connect 15 2 18 0;
#X connect 15 3 19 0;
#X connect 15 4 20 0;
#X connect 20 0 21 0;
#X connect 20 1 22 0;
#X connect 20 2 23 0;
#X connect 20 3 24 0;
#X connect 20 4 25 0;
#X connect 25 0 26 0;
#X connect 25 1 27 0;
#X connect 25 2 28 0;
#X connect 25 3 29 0;
#X connect 25 4 30 0;
#X connect 30 0 31 0;
#X connect 30 1 32 0;
#X connect 30 2 35 0;
#X connect 30 3 36 0;
#X connect 37 0 38 0;
#X connect 37 1 41 0;
#X connect 38 0 39 0;
#X connect 38 1 40 0;
#X connect 41 0 42 0;
#X connect 41 1 43 0;
#X connect 41 2 44 0;
#X connect 41 3 45 0;
#X connect 46 0 47 0;
#X connect 46 1 48 0;
#X connect 46 2 49 0;
#X connect 46 3 50 0;
#X connect 46 4 51 0;
#X connect 51 0 54 0;
#X connect 52 0 60 0;
#X connect 53 0 56 1;
#X connect 53 1 56 2;
#X connect 53 2 58 0;
#X connect 54 0 55 0;
#X connect 54 1 53 0;
#X connect 55 0 56 0;
#X connect 56 0 52 0;
#X connect 58 0 59 0;
#X connect 59 0 57 0;
#X connect 60 0 59 0;
#X connect 60 1 57 1;
#X connect 61 0 0 0;
#X restore 59 331 pd linker;
#X msg 33 153 WARNING: argument (UDP PORT) missing: set to 8000 but
OSC s/r link won't work.;
#X connect 0 0 4 0;
#X connect 0 0 13 0;
#X connect 0 0 15 0;
#X connect 1 0 2 0;
#X connect 2 0 3 0;
#X connect 4 0 1 0;
#X connect 4 1 5 0;
#X connect 5 0 7 0;
#X connect 7 0 6 0;
#X connect 8 0 9 0;
#X connect 9 0 11 0;
#X connect 9 0 16 0;
#X connect 10 0 12 0;
#X connect 11 0 10 0;
#X connect 12 0 0 0;
#X connect 14 0 18 0;
#X connect 15 0 14 0;
#X connect 16 0 19 0;
#X connect 19 0 17 0;
