#N canvas 0 50 1280 726 16;
#N canvas 0 50 450 300 (subpatch) 0;
#X array \$0-osc 500 float 0;
#X coords 0 1 499 -1 200 140 1;
#X restore 4 5 graph;
#X obj 209 5 tgl 15 1 \$0-metro \$0-bang empty 17 7 0 10 -4034 -1 -1
0 1;
#X obj 326 569 metro 100;
#X obj 685 303 env~;
#X obj 685 329 - 100;
#X obj 326 600 tabwrite~ \$0-osc;
#X obj 428 30 inlet~;
#X obj 364 399 *~ 1;
#X obj 149 330 loadbang;
#X obj 685 357 s \$0-vu;
#X obj 251 18 vu 15 120 \$0-vu VU -1 -8 0 10 -66577 -1 1 0;
#X obj 377 252 r \$0-vdiv;
#X msg 375 335 0.5;
#X msg 434 334 1;
#X msg 486 334 2;
#X obj 204 38 vradio 15 1 1 5 \$0-vdiv empty empty 0 -8 0 10 -262144
-1 -1 2;
#X floatatom 428 403 5 0 0 0 - - -, f 5;
#X obj 369 297 sel 4 3 2 1;
#X obj 149 357 s \$0-bang;
#X obj 326 538 r \$0-metro;
#X text 217 49 x2;
#X text 217 64 x1;
#X text 217 78 /2;
#X msg 539 334 10;
#X msg 317 334 0.1;
#X text 217 34 x10;
#X text 217 93 /10;
#X obj 69 145 hradio 15 1 1 5 \$0-tdiv empty empty 0 -8 0 10 -262144
-1 -1 2;
#X obj 583 407 r \$0-tdiv;
#X msg 625 490 100;
#X msg 572 489 200;
#X msg 689 488 50;
#X obj 582 440 sel 0 1 2 3;
#X floatatom 521 569 5 0 0 0 - - -, f 5;
#X msg 514 488 500;
#X msg 742 488 20;
#X obj 494 532 t b f;
#X obj 360 133 switch~;
#X connect 1 0 37 0;
#X connect 2 0 5 0;
#X connect 3 0 4 0;
#X connect 4 0 9 0;
#X connect 6 0 3 0;
#X connect 6 0 7 0;
#X connect 7 0 5 0;
#X connect 8 0 18 0;
#X connect 11 0 17 0;
#X connect 12 0 7 1;
#X connect 12 0 16 0;
#X connect 13 0 7 1;
#X connect 13 0 16 0;
#X connect 14 0 7 1;
#X connect 14 0 16 0;
#X connect 17 0 24 0;
#X connect 17 1 12 0;
#X connect 17 2 13 0;
#X connect 17 3 14 0;
#X connect 17 4 23 0;
#X connect 19 0 2 0;
#X connect 23 0 7 1;
#X connect 23 0 16 0;
#X connect 24 0 7 1;
#X connect 24 0 16 0;
#X connect 28 0 32 0;
#X connect 29 0 36 0;
#X connect 30 0 36 0;
#X connect 31 0 36 0;
#X connect 32 0 34 0;
#X connect 32 1 30 0;
#X connect 32 2 29 0;
#X connect 32 3 31 0;
#X connect 32 4 35 0;
#X connect 34 0 36 0;
#X connect 35 0 36 0;
#X connect 36 0 2 0;
#X connect 36 1 2 1;
#X connect 36 1 33 0;
#X coords 0 -1 1 1 300 165 1 0 0;
