#N canvas 134 75 450 300 10;
#X obj 45 42 inlet message;
#X msg 45 636 label \$1;
#X obj 45 65 unpack s f f f f f f f f f f f f f f f f f f f f f f f
f f f f f f f f f f f f f f f f f f f f f, f 96;
#X obj 60 593 s \$0-dryp;
#X obj 75 574 s \$0-wetp;
#X obj 90 555 s \$0-dlyp;
#X obj 105 536 s \$0-11p;
#X obj 121 517 s \$0-12p;
#X obj 136 498 s \$0-13p;
#X obj 151 479 s \$0-21p;
#X obj 166 460 s \$0-22p;
#X obj 181 441 s \$0-23p;
#X obj 197 422 s \$0-31p;
#X obj 212 403 s \$0-32p;
#X obj 227 384 s \$0-33p;
#X obj 242 365 s \$0-d1p;
#X obj 257 346 s \$0-d2p;
#X obj 273 327 s \$0-d3p;
#X obj 288 308 s \$0-v1p;
#X obj 303 289 s \$0-v2p;
#X obj 318 270 s \$0-v3p;
#X obj 333 251 s \$0-h1p;
#X obj 349 232 s \$0-h2p;
#X obj 364 213 s \$0-h3p;
#X obj 379 194 s \$0-l1p;
#X obj 394 175 s \$0-l2p;
#X obj 409 156 s \$0-l3p;
#X obj 425 137 s \$0-f1p;
#X obj 440 118 s \$0-f2p;
#X obj 455 99 s \$0-f3p;
#X obj 470 394 s \$0-m1p;
#X obj 485 374 s \$0-m2p;
#X obj 501 354 s \$0-m3p;
#X obj 516 334 s \$0-s1p;
#X obj 531 315 s \$0-s2p;
#X obj 546 296 s \$0-s3p;
#X obj 561 276 s \$0-r1p;
#X obj 577 257 s \$0-r2p;
#X obj 592 238 s \$0-r3p;
#X obj 607 219 s \$0-sw1p;
#X obj 622 200 s \$0-sw2p;
#X obj 637 181 s \$0-sw3p;
#X obj 653 162 s \$0-rp1p;
#X obj 668 143 s \$0-rp2p;
#X obj 683 124 s \$0-rp3p;
#X obj 698 105 s \$0-swp;
#X obj 714 86 s \$0-bypp;
#X obj 45 678 s \$0-presname;
#X connect 0 0 2 0;
#X connect 1 0 47 0;
#X connect 2 0 1 0;
#X connect 2 1 3 0;
#X connect 2 2 4 0;
#X connect 2 3 5 0;
#X connect 2 4 6 0;
#X connect 2 5 7 0;
#X connect 2 6 8 0;
#X connect 2 7 9 0;
#X connect 2 8 10 0;
#X connect 2 9 11 0;
#X connect 2 10 12 0;
#X connect 2 11 13 0;
#X connect 2 12 14 0;
#X connect 2 13 15 0;
#X connect 2 14 16 0;
#X connect 2 15 17 0;
#X connect 2 16 18 0;
#X connect 2 17 19 0;
#X connect 2 18 20 0;
#X connect 2 19 21 0;
#X connect 2 20 22 0;
#X connect 2 21 23 0;
#X connect 2 22 24 0;
#X connect 2 23 25 0;
#X connect 2 24 26 0;
#X connect 2 25 27 0;
#X connect 2 26 28 0;
#X connect 2 27 29 0;
#X connect 2 28 30 0;
#X connect 2 29 31 0;
#X connect 2 30 32 0;
#X connect 2 31 33 0;
#X connect 2 32 34 0;
#X connect 2 33 35 0;
#X connect 2 34 36 0;
#X connect 2 35 37 0;
#X connect 2 36 38 0;
#X connect 2 37 39 0;
#X connect 2 38 40 0;
#X connect 2 39 41 0;
#X connect 2 40 42 0;
#X connect 2 41 43 0;
#X connect 2 42 44 0;
#X connect 2 43 45 0;
#X connect 2 44 46 0;
