#N canvas 825 187 450 417 10;
#X obj 121 3 inlet~;
#X obj 127 324 outlet~;
#X obj 122 103 +~;
#X obj 126 292 +~;
#X obj 210 114 * -1;
#X obj 122 153 delwrite~ \$0-\$1 \$2;
#X obj 125 236 delread~ \$0-\$1 \$2;
#X msg 163 182 \$1 100;
#X obj 204 6 inlet time;
#X obj 318 6 inlet feedback;
#X obj 163 208 line;
#X obj 247 30 loadbang;
#X obj 247 55 f \$2;
#X obj 200 78 clip 0;
#X obj 282 55 f \$3;
#X obj 41 190 *~;
#X obj 297 82 clip 0 0.99;
#X obj 275 196 *~;
#X connect 0 0 2 0;
#X connect 2 0 5 0;
#X connect 2 0 17 0;
#X connect 3 0 1 0;
#X connect 4 0 15 1;
#X connect 6 0 15 0;
#X connect 6 0 3 0;
#X connect 7 0 10 0;
#X connect 8 0 13 0;
#X connect 9 0 16 0;
#X connect 10 0 6 0;
#X connect 11 0 12 0;
#X connect 11 0 14 0;
#X connect 12 0 13 2;
#X connect 13 0 7 0;
#X connect 14 0 16 0;
#X connect 15 0 2 1;
#X connect 16 0 4 0;
#X connect 16 0 17 1;
#X connect 17 0 3 1;
