#N canvas 604 152 450 684 10;
#X obj 91 60 inlet~;
#X obj 86 417 outlet~;
#X obj 89 134 biquad_hpf~ 35 1;
#X obj 90 112 biquad_hpf~ 25 2.1;
#X obj 89 201 biquad_peak~ 200 2 -2;
#X obj 90 157 biquad_losh~ 100 -25;
#X obj 89 177 biquad_peak~ 130 1 6;
#X obj 88 263 biquad_peak~ 1900 0.2 -3;
#X obj 88 292 biquad_peak~ 3000 1.2 8;
#X obj 88 234 biquad_peak~ 1300 0.5 -7;
#X obj 88 315 biquad_hish~ 9000 -28 1.2;
#X obj 86 345 biquad_peak~ 7000 0.5 -6;
#X connect 0 0 3 0;
#X connect 2 0 5 0;
#X connect 3 0 2 0;
#X connect 4 0 9 0;
#X connect 5 0 6 0;
#X connect 6 0 4 0;
#X connect 7 0 8 0;
#X connect 8 0 10 0;
#X connect 9 0 7 0;
#X connect 10 0 11 0;
#X connect 11 0 1 0;
