#N canvas 714 50 636 710 10;
#X obj 420 200 f \$0;
#X obj 405 42 loadbang;
#X obj 236 347 pack f f;
#X msg 236 391 \; \$2-tgl color \$1;
#X obj 100 100 tgl 15 0 empty empty empty 17 7 0 10 -262144 -1 -1 0
1;
#X obj 74 40 inlet;
#X obj 77 212 outlet;
#X obj 100 100 cnv 15 15 15 empty \$0-tgl empty 20 12 0 14 -166441
-66577 0;
#X obj 224 120 sel 0 1;
#X floatatom 178 333 5 0 0 0 - - -, f 5;
#X obj 289 102 f \$1;
#X obj 346 101 f \$2;
#X msg 289 207 set \$1;
#X msg 346 207 set \$1;
#X msg 229 250 2;
#X msg 262 250 1;
#X obj 289 127 expr if($f1==0 \, 2 \, $f1);
#X obj 346 152 expr if($f1==0 \, 1 \, $f1);
#X obj 192 38 loadbang;
#X msg 192 64 0;
#X connect 0 0 2 1;
#X connect 1 0 0 0;
#X connect 1 0 11 0;
#X connect 1 0 10 0;
#X connect 1 0 14 0;
#X connect 1 0 15 0;
#X connect 2 0 3 0;
#X connect 4 0 6 0;
#X connect 4 0 8 0;
#X connect 5 0 4 0;
#X connect 8 0 14 0;
#X connect 8 1 15 0;
#X connect 9 0 2 0;
#X connect 10 0 16 0;
#X connect 11 0 17 0;
#X connect 12 0 14 0;
#X connect 13 0 15 0;
#X connect 14 0 2 0;
#X connect 15 0 2 0;
#X connect 16 0 12 0;
#X connect 17 0 13 0;
#X connect 18 0 19 0;
#X connect 19 0 4 0;
#X coords 0 -1 1 1 15 15 2 100 100;
