#N canvas 0 50 600 334 10;
#X obj 189 30 adc~ 1;
#X obj 107 122 vsl 20 40 0.01 1 1 0 empty empty empty 0 -9 0 10 -4032
-1 -1 0 1;
#X floatatom 107 190 3 0 0 2 - - -;
#X obj 137 122 vu 15 80 empty empty -1 -8 0 10 -66577 -1 1 0;
#X obj 302 154 * 1;
#X obj 302 108 expr pow(10 \, $f1/20);
#X obj 107 167 tgl 20 0 empty empty empty 17 7 0 10 -4034 -1 -1 1 1
;
#X obj 352 28 sel 0 1;
#X msg 421 161 0, f 2;
#X obj 302 131 t b f;
#X obj 224 215 env~;
#X obj 302 85 min 40;
#X obj 224 242 - 99;
#X obj 65 54 loadbang;
#X obj 117 7 inlet~ externalinput;
#X obj 379 265 outlet~ TEST;
#X obj 459 211 line~;
#X msg 459 184 \$1 50;
#X obj 277 187 *~;
#X connect 0 0 18 0;
#X connect 1 0 4 0;
#X connect 2 0 11 0;
#X connect 4 0 17 0;
#X connect 5 0 9 0;
#X connect 6 0 7 0;
#X connect 7 0 8 0;
#X connect 7 1 1 0;
#X connect 8 0 17 0;
#X connect 9 0 4 0;
#X connect 9 1 4 1;
#X connect 10 0 12 0;
#X connect 11 0 5 0;
#X connect 12 0 3 0;
#X connect 13 0 6 0;
#X connect 14 0 18 0;
#X connect 16 0 18 1;
#X connect 17 0 16 0;
#X connect 18 0 10 0;
#X connect 18 0 15 0;
#X coords 0 -1 1 1 84 110 1 100 100;
