#N canvas 60 96 1222 481 10;
#X obj 401 301 vvumeters;
#X obj 407 301 vvumeters;
#X obj 413 301 vvumeters;
#X obj 419 301 vvumeters;
#X obj 425 301 vvumeters;
#X obj 431 301 vvumeters;
#X obj 437 301 vvumeters;
#X obj 443 301 vvumeters;
#X obj 449 301 vvumeters;
#X obj 455 301 vvumeters;
#X obj 461 301 vvumeters;
#X obj 467 301 vvumeters;
#X obj 473 301 vvumeters;
#X obj 479 301 vvumeters;
#X obj 485 301 vvumeters;
#X obj 491 301 vvumeters;
#X obj 497 301 vvumeters;
#X obj 503 301 vvumeters;
#X obj 509 301 vvumeters;
#X obj 515 301 vvumeters;
#X obj 26 260 env~;
#X obj 26 284 - 99;
#X obj 61 260 env~;
#X obj 61 284 - 99;
#X obj 96 260 env~;
#X obj 96 284 - 99;
#X obj 131 260 env~;
#X obj 131 284 - 99;
#X obj 166 260 env~;
#X obj 166 284 - 99;
#X obj 201 260 env~;
#X obj 201 284 - 99;
#X obj 236 260 env~;
#X obj 236 284 - 99;
#X obj 271 260 env~;
#X obj 271 284 - 99;
#X obj 306 260 env~;
#X obj 306 284 - 99;
#X obj 341 260 env~;
#X obj 341 284 - 99;
#X obj 544 260 env~;
#X obj 544 284 - 99;
#X obj 579 260 env~;
#X obj 579 284 - 99;
#X obj 614 260 env~;
#X obj 614 284 - 99;
#X obj 649 260 env~;
#X obj 649 284 - 99;
#X obj 684 260 env~;
#X obj 684 284 - 99;
#X obj 719 260 env~;
#X obj 719 284 - 99;
#X obj 754 260 env~;
#X obj 754 284 - 99;
#X obj 789 260 env~;
#X obj 789 284 - 99;
#X obj 824 260 env~;
#X obj 824 284 - 99;
#X obj 859 260 env~;
#X obj 859 284 - 99;
#X obj 27 66 biquad_bpf~ 31 0.3;
#X obj 27 86 biquad_bpf~ 31 0.3;
#X obj 62 106 biquad_bpf~ 44 0.3;
#X obj 62 126 biquad_bpf~ 44 0.3;
#X obj 97 146 biquad_bpf~ 63 0.3;
#X obj 97 166 biquad_bpf~ 63 0.3;
#X obj 130 187 biquad_bpf~ 87 0.3;
#X obj 130 207 biquad_bpf~ 87 0.3;
#X obj 165 66 biquad_bpf~ 125 0.3;
#X obj 165 86 biquad_bpf~ 125 0.3;
#X obj 200 106 biquad_bpf~ 175 0.3;
#X obj 200 126 biquad_bpf~ 175 0.3;
#X obj 237 146 biquad_bpf~ 250 0.3;
#X obj 237 166 biquad_bpf~ 250 0.3;
#X obj 271 186 biquad_bpf~ 350 0.3;
#X obj 271 206 biquad_bpf~ 350 0.3;
#X obj 306 65 biquad_bpf~ 500 0.3;
#X obj 306 85 biquad_bpf~ 500 0.3;
#X obj 342 105 biquad_bpf~ 700 0.3;
#X obj 342 125 biquad_bpf~ 700 0.3;
#X obj 545 66 biquad_bpf~ 1000 0.3;
#X obj 545 86 biquad_bpf~ 1000 0.3;
#X obj 580 106 biquad_bpf~ 1400 0.3;
#X obj 580 126 biquad_bpf~ 1400 0.3;
#X obj 615 146 biquad_bpf~ 2000 0.3;
#X obj 615 166 biquad_bpf~ 2000 0.3;
#X obj 648 187 biquad_bpf~ 2800 0.3;
#X obj 648 207 biquad_bpf~ 2800 0.3;
#X obj 683 66 biquad_bpf~ 4000 0.3;
#X obj 683 86 biquad_bpf~ 4000 0.3;
#X obj 718 106 biquad_bpf~ 5600 0.3;
#X obj 718 126 biquad_bpf~ 5600 0.3;
#X obj 755 146 biquad_bpf~ 8000 0.3;
#X obj 755 166 biquad_bpf~ 8000 0.3;
#X obj 789 186 biquad_bpf~ 11200 0.3;
#X obj 789 206 biquad_bpf~ 11200 0.3;
#X obj 824 65 biquad_bpf~ 16000 0.3;
#X obj 824 85 biquad_bpf~ 16000 0.3;
#X obj 860 105 biquad_bpf~ 20000 0.3;
#X obj 860 125 biquad_bpf~ 20000 0.3;
#X obj 451 8 inlet~;
#X obj 451 29 *~ 10;
#X connect 20 0 21 0;
#X connect 21 0 0 0;
#X connect 22 0 23 0;
#X connect 23 0 1 0;
#X connect 24 0 25 0;
#X connect 25 0 2 0;
#X connect 26 0 27 0;
#X connect 27 0 3 0;
#X connect 28 0 29 0;
#X connect 29 0 4 0;
#X connect 30 0 31 0;
#X connect 31 0 5 0;
#X connect 32 0 33 0;
#X connect 33 0 6 0;
#X connect 34 0 35 0;
#X connect 35 0 7 0;
#X connect 36 0 37 0;
#X connect 37 0 8 0;
#X connect 38 0 39 0;
#X connect 39 0 9 0;
#X connect 40 0 41 0;
#X connect 41 0 10 0;
#X connect 42 0 43 0;
#X connect 43 0 11 0;
#X connect 44 0 45 0;
#X connect 45 0 12 0;
#X connect 46 0 47 0;
#X connect 47 0 13 0;
#X connect 48 0 49 0;
#X connect 49 0 14 0;
#X connect 50 0 51 0;
#X connect 51 0 15 0;
#X connect 52 0 53 0;
#X connect 53 0 16 0;
#X connect 54 0 55 0;
#X connect 55 0 17 0;
#X connect 56 0 57 0;
#X connect 57 0 18 0;
#X connect 58 0 59 0;
#X connect 59 0 19 0;
#X connect 60 0 61 0;
#X connect 61 0 20 0;
#X connect 62 0 63 0;
#X connect 63 0 22 0;
#X connect 64 0 65 0;
#X connect 65 0 24 0;
#X connect 66 0 67 0;
#X connect 67 0 26 0;
#X connect 68 0 69 0;
#X connect 69 0 28 0;
#X connect 70 0 71 0;
#X connect 71 0 30 0;
#X connect 72 0 73 0;
#X connect 73 0 32 0;
#X connect 74 0 75 0;
#X connect 75 0 34 0;
#X connect 76 0 77 0;
#X connect 77 0 36 0;
#X connect 78 0 79 0;
#X connect 79 0 38 0;
#X connect 80 0 81 0;
#X connect 81 0 40 0;
#X connect 82 0 83 0;
#X connect 83 0 42 0;
#X connect 84 0 85 0;
#X connect 85 0 44 0;
#X connect 86 0 87 0;
#X connect 87 0 46 0;
#X connect 88 0 89 0;
#X connect 89 0 48 0;
#X connect 90 0 91 0;
#X connect 91 0 50 0;
#X connect 92 0 93 0;
#X connect 93 0 52 0;
#X connect 94 0 95 0;
#X connect 95 0 54 0;
#X connect 96 0 97 0;
#X connect 97 0 56 0;
#X connect 98 0 99 0;
#X connect 99 0 58 0;
#X connect 100 0 101 0;
#X connect 101 0 60 0;
#X connect 101 0 62 0;
#X connect 101 0 64 0;
#X connect 101 0 66 0;
#X connect 101 0 68 0;
#X connect 101 0 70 0;
#X connect 101 0 72 0;
#X connect 101 0 74 0;
#X connect 101 0 76 0;
#X connect 101 0 78 0;
#X connect 101 0 80 0;
#X connect 101 0 82 0;
#X connect 101 0 84 0;
#X connect 101 0 86 0;
#X connect 101 0 88 0;
#X connect 101 0 90 0;
#X connect 101 0 92 0;
#X connect 101 0 94 0;
#X connect 101 0 96 0;
#X connect 101 0 98 0;
#X coords 0 -1 1 1 122 70 2 400 300;
